<svg xmlns="http://www.w3.org/2000/svg" width="100" height="96.452" viewBox="0 0 100 96.452">
  <g id="revision" transform="translate(0 -9.083)">
    <path id="Trazado_203898" data-name="Trazado 203898" d="M22.011,160.478h46.7V79.254H7.8v67.01Z" transform="translate(-6.274 -56.466)" fill="#fff"/>
    <path id="Trazado_203899" data-name="Trazado 203899" d="M7.8,422.343H22.011v14.214" transform="translate(-6.274 -332.545)" fill="#dce736"/>
    <rect id="Rectángulo_41889" data-name="Rectángulo 41889" width="5.076" height="12.183" transform="matrix(-0.906, 0.423, -0.423, -0.906, 81.117, 64.123)" fill="#fff"/>
    <path id="Trazado_203903" data-name="Trazado 203903" d="M0,0H9.137V35.535H0Z" transform="matrix(-0.906, 0.423, -0.423, -0.906, 97.975, 95.472)" fill="#f85316"/>
    <rect id="Rectángulo_41891" data-name="Rectángulo 41891" width="6.092" height="9.137" transform="matrix(0.423, 0.906, -0.906, 0.423, 95.403, 89.949)" fill="#fff"/>
    <path id="Trazado_203904" data-name="Trazado 203904" d="M22.844,0A22.844,22.844,0,1,1,0,22.844,22.844,22.844,0,0,1,22.844,0Z" transform="translate(41.17 10.605)" fill="#3d46c2" opacity="0.268"/>
    <circle id="Elipse_5673" data-name="Elipse 5673" cx="15.229" cy="15.229" r="15.229" transform="translate(48.785 18.22)" fill="#fff"/>
    <circle id="Elipse_5674" data-name="Elipse 5674" cx="7.615" cy="7.615" r="7.615" transform="translate(56.4 23.296)" fill="#75b62f"/>
    <circle id="Elipse_5675" data-name="Elipse 5675" cx="3.046" cy="3.046" r="3.046" transform="translate(60.969 27.865)" fill="#fff"/>
    <rect id="Rectángulo_41892" data-name="Rectángulo 41892" width="30.183" height="3.046" transform="translate(7.615 37.51)"/>
    <rect id="Rectángulo_41893" data-name="Rectángulo 41893" width="35.941" height="3.046" transform="translate(7.615 49.694)"/>
    <rect id="Rectángulo_41894" data-name="Rectángulo 41894" width="42.642" height="3.046" transform="translate(7.615 55.786)"/>
    <rect id="Rectángulo_41895" data-name="Rectángulo 41895" width="48.734" height="3.046" transform="translate(7.615 61.877)"/>
    <rect id="Rectángulo_41896" data-name="Rectángulo 41896" width="48.734" height="3.046" transform="translate(7.615 67.969)"/>
    <rect id="Rectángulo_41897" data-name="Rectángulo 41897" width="48.734" height="3.046" transform="translate(7.615 74.061)"/>
    <rect id="Rectángulo_41898" data-name="Rectángulo 41898" width="38.581" height="3.046" transform="translate(7.615 80.153)"/>
    <rect id="Rectángulo_41899" data-name="Rectángulo 41899" width="24.367" height="3.046" transform="translate(31.982 92.336)"/>
    <path id="Trazado_203900" data-name="Trazado 203900" d="M83.695,61.24l-1.84.858-4.005-8.59A24.406,24.406,0,0,0,86.1,23.151h0a24.364,24.364,0,0,0-46.362,8.268H17.768v3.046h21.9a24.22,24.22,0,0,0,2.2,9.138H7.615v3.046H43.533A24.4,24.4,0,0,0,60.918,57.609v44.88H16.368L3.046,89.167V24.311h36.7V21.265H0V90.429l15.106,15.106H63.964V57.813l.088,0a24.181,24.181,0,0,0,6.437-.872l2.932,6.288,2.761-1.287-2.8-6c.311-.13.621-.264.93-.408s.611-.295.911-.45l3.871,8.3-6.441,3,16.305,34.967L100,96.207Zm-10.67-8.468A21.321,21.321,0,1,1,83.338,24.438,21.345,21.345,0,0,1,73.025,52.773Zm9.2,12.515L93.378,89.213l-5.521,2.575L76.7,67.863Zm8.21,32.02-1.287-2.761,5.521-2.574,1.287,2.761Z" transform="translate(0 0)"/>
    <path id="Trazado_203901" data-name="Trazado 203901" d="M304.359,102.018a4.569,4.569,0,1,0,4.569-4.569A4.574,4.574,0,0,0,304.359,102.018Zm6.092,0a1.523,1.523,0,1,1-1.523-1.523A1.524,1.524,0,0,1,310.451,102.018Z" transform="translate(-244.914 -71.107)"/>
    <path id="Trazado_203902" data-name="Trazado 203902" d="M271.782,85.016c-.05.094-5.089,9.347-13.886,9.347-3.63,0-7.05-1.541-10.165-4.579a23.258,23.258,0,0,1-3.291-4.051,22.615,22.615,0,0,1,4.762-5.348,9.138,9.138,0,1,0,17.386,0c.478.384.951.8,1.416,1.248l2.12-2.187a17.671,17.671,0,0,0-11.746-5.371q-.239-.013-.482-.013c-10.6,0-16.334,10.512-16.573,10.959l-.383.717.383.717c.239.447,5.97,10.959,16.573,10.959S274.231,86.9,274.47,86.45Zm-7.794-1.821a6.092,6.092,0,1,1-6.417-6.083c.108,0,.215-.009.325-.009s.213.006.32.009A6.1,6.1,0,0,1,263.988,83.194Z" transform="translate(-193.882 -52.284)"/>
  </g>
</svg>
