<svg id="sirena" xmlns="http://www.w3.org/2000/svg" width="100" height="100" viewBox="0 0 100 100">
  <path id="XMLID_974_" d="M157.828,142A23.827,23.827,0,0,0,134,165.828v29.3h47.656v-29.3A23.827,23.827,0,0,0,157.828,142Z" transform="translate(-107.828 -114.266)" fill="#f85316"/>
  <circle id="XMLID_943_" cx="5.08" cy="5.08" r="5.08" transform="translate(44.947 48.942)" fill="#dce736"/>
  <path id="XMLID_942_" d="M160.815,431.188H99.8V420.177L105.977,414h48.661l6.177,6.177Z" transform="translate(-80.308 -333.141)" fill="#e1e3e9"/>
  <path id="XMLID_941_" d="M99.8,466.594Z" transform="translate(-80.308 -368.547)" fill="#afafaf"/>
  <path id="XMLID_53_" d="M148.042,185.766V157.781a25.781,25.781,0,1,0-51.563,0v27.985l-6.107,6.108a1.951,1.951,0,0,0-.573,1.381v11.011a1.953,1.953,0,0,0,1.953,1.953h61.016a1.953,1.953,0,0,0,1.953-1.953V193.255a1.953,1.953,0,0,0-.573-1.381Zm-47.656-27.985a21.875,21.875,0,0,1,43.75,0v27.344h-19.9V167a7.032,7.032,0,1,0-3.906,0v18.129H100.386Zm21.9,5.586a3.127,3.127,0,1,1,3.127-3.126A3.131,3.131,0,0,1,122.288,163.367ZM93.706,202.313v-4.687H113.5a1.953,1.953,0,0,0,0-3.906H94.052l4.688-4.687h47.044l4.688,4.688H131.077a1.953,1.953,0,0,0,0,3.906h19.739v4.688Z" transform="translate(-72.261 -106.219)"/>
  <path id="XMLID_62_" d="M247.953,21.094a1.953,1.953,0,0,0,1.953-1.953V1.953a1.953,1.953,0,0,0-3.906,0V19.141A1.953,1.953,0,0,0,247.953,21.094Z" transform="translate(-197.953)"/>
  <path id="XMLID_63_" d="M365.33,90.454a1.946,1.946,0,0,0,1.382-.572l12.153-12.154a1.953,1.953,0,0,0-2.761-2.762L363.951,87.119a1.953,1.953,0,0,0,1.379,3.335Z" transform="translate(-292.408 -59.864)"/>
  <path id="XMLID_64_" d="M429.578,254H413.953a1.953,1.953,0,0,0,0,3.906h15.625a1.953,1.953,0,0,0,0-3.906Z" transform="translate(-331.531 -204.391)"/>
  <path id="XMLID_65_" d="M79.121,89.883a1.953,1.953,0,1,0,2.762-2.761L69.729,74.967a1.953,1.953,0,0,0-2.762,2.762Z" transform="translate(-53.428 -59.865)"/>
  <path id="XMLID_66_" d="M19.531,255.953A1.953,1.953,0,0,0,17.578,254H1.953a1.953,1.953,0,0,0,0,3.906H17.578A1.953,1.953,0,0,0,19.531,255.953Z" transform="translate(0 -204.391)"/>
  <path id="XMLID_67_" d="M248.093,448a1.939,1.939,0,0,0-1.382.576,1.945,1.945,0,0,0,0,2.754,1.945,1.945,0,0,0,2.764,0,1.945,1.945,0,0,0,0-2.754A1.939,1.939,0,0,0,248.093,448Z" transform="translate(-198.066 -360.5)"/>
</svg>
