<svg xmlns="http://www.w3.org/2000/svg" width="28.525" height="24.959" viewBox="0 0 28.525 24.959">
  <path id="Icon_awesome-quote-right" data-name="Icon awesome-quote-right" d="M25.85,0H18.719a2.675,2.675,0,0,0-2.674,2.674V9.805a2.675,2.675,0,0,0,2.674,2.674h4.457v3.566a3.569,3.569,0,0,1-3.566,3.566h-.446a1.334,1.334,0,0,0-1.337,1.337v2.674a1.334,1.334,0,0,0,1.337,1.337h.446a8.911,8.911,0,0,0,8.914-8.914V2.674A2.675,2.675,0,0,0,25.85,0ZM9.805,0H2.674A2.675,2.675,0,0,0,0,2.674V9.805a2.675,2.675,0,0,0,2.674,2.674H7.131v3.566a3.569,3.569,0,0,1-3.566,3.566H3.12a1.334,1.334,0,0,0-1.337,1.337v2.674A1.334,1.334,0,0,0,3.12,24.959h.446a8.911,8.911,0,0,0,8.914-8.914V2.674A2.675,2.675,0,0,0,9.805,0Z" transform="translate(28.525 24.959) rotate(180)" fill="#3d46c2"/>
</svg>
