<svg xmlns="http://www.w3.org/2000/svg" width="1071.835" height="433.835" viewBox="0 0 1071.835 433.835">
  <g id="Grupo_150554" data-name="Grupo 150554" transform="translate(-264.082 -1515.583)">
    <rect id="Rectángulo_40621" data-name="Rectángulo 40621" width="190" height="50" rx="4.588" transform="translate(265 1615.761)" fill="#d1d5fc" stroke="#3e4bbf" stroke-width="1.835"/>
    <path id="Trazado_206369" data-name="Trazado 206369" d="M4.9-3.9H3.149V0H.952V-10.664H4.915a4.479,4.479,0,0,1,2.915.842,2.907,2.907,0,0,1,1.025,2.38,3.281,3.281,0,0,1-.472,1.82A3.222,3.222,0,0,1,6.951-4.46L9.258-.1V0H6.9Zm-1.75-1.78H4.922A1.815,1.815,0,0,0,6.2-6.1a1.505,1.505,0,0,0,.454-1.161,1.611,1.611,0,0,0-.428-1.187,1.781,1.781,0,0,0-1.315-.432H3.149ZM14.033.146A3.89,3.89,0,0,1,11.2-.923,3.8,3.8,0,0,1,10.1-3.772v-.205a4.787,4.787,0,0,1,.461-2.135,3.386,3.386,0,0,1,1.307-1.45,3.669,3.669,0,0,1,1.93-.509,3.289,3.289,0,0,1,2.56,1.025,4.167,4.167,0,0,1,.934,2.908v.864H12.246a1.966,1.966,0,0,0,.619,1.245,1.871,1.871,0,0,0,1.307.469,2.285,2.285,0,0,0,1.912-.886l1.04,1.165A3.178,3.178,0,0,1,15.835-.231,4.229,4.229,0,0,1,14.033.146Zm-.242-6.511a1.323,1.323,0,0,0-1.022.427,2.209,2.209,0,0,0-.5,1.221h2.944v-.169a1.576,1.576,0,0,0-.381-1.092A1.365,1.365,0,0,0,13.792-6.365Zm8,4.8a1.388,1.388,0,0,0,.952-.322,1.129,1.129,0,0,0,.381-.857h1.985a2.715,2.715,0,0,1-.439,1.476,2.9,2.9,0,0,1-1.183,1.04,3.7,3.7,0,0,1-1.659.37,3.44,3.44,0,0,1-2.681-1.08,4.275,4.275,0,0,1-.981-2.985v-.139a4.226,4.226,0,0,1,.974-2.922,3.4,3.4,0,0,1,2.673-1.091,3.333,3.333,0,0,1,2.384.846,3,3,0,0,1,.912,2.252H23.123a1.455,1.455,0,0,0-.381-1.005,1.27,1.27,0,0,0-.967-.387,1.275,1.275,0,0,0-1.117.539,3.125,3.125,0,0,0-.377,1.749v.22A3.164,3.164,0,0,0,20.654-2.1,1.291,1.291,0,0,0,21.79-1.56Zm9.272.754a2.654,2.654,0,0,1-2.168.952,2.5,2.5,0,0,1-1.945-.732,3.127,3.127,0,0,1-.685-2.146V-7.925h2.117V-2.8q0,1.239,1.128,1.239a1.528,1.528,0,0,0,1.479-.748V-7.925h2.124V0H31.121Zm8.1-5.134A5.751,5.751,0,0,0,38.4-6a1.55,1.55,0,0,0-1.575.813V0H34.709V-7.925h2l.059.945a1.961,1.961,0,0,1,1.765-1.091,2.218,2.218,0,0,1,.659.1Zm5.31,3.75a.682.682,0,0,0-.385-.612,4.368,4.368,0,0,0-1.234-.4q-2.827-.593-2.827-2.4A2.178,2.178,0,0,1,40.9-7.365a3.531,3.531,0,0,1,2.289-.707,3.8,3.8,0,0,1,2.413.71,2.239,2.239,0,0,1,.9,1.846H44.392a1.024,1.024,0,0,0-.293-.751,1.24,1.24,0,0,0-.916-.3,1.267,1.267,0,0,0-.828.242.763.763,0,0,0-.293.615.652.652,0,0,0,.333.568,3.428,3.428,0,0,0,1.124.374,9.183,9.183,0,0,1,1.333.355,2.19,2.19,0,0,1,1.677,2.131A2.067,2.067,0,0,1,45.6-.524a4.013,4.013,0,0,1-2.4.67,4.191,4.191,0,0,1-1.769-.355,2.968,2.968,0,0,1-1.212-.974,2.263,2.263,0,0,1-.439-1.337h2.007a1.105,1.105,0,0,0,.417.864,1.656,1.656,0,0,0,1.04.3,1.533,1.533,0,0,0,.919-.231A.718.718,0,0,0,44.473-2.19Zm3.091-1.846a4.7,4.7,0,0,1,.454-2.1,3.324,3.324,0,0,1,1.307-1.428,3.814,3.814,0,0,1,1.981-.505,3.609,3.609,0,0,1,2.618.981,3.939,3.939,0,0,1,1.132,2.666l.015.542A4.142,4.142,0,0,1,54.053-.956a3.539,3.539,0,0,1-2.732,1.1,3.556,3.556,0,0,1-2.736-1.1A4.215,4.215,0,0,1,47.563-3.94Zm2.117.15A2.962,2.962,0,0,0,50.1-2.158a1.4,1.4,0,0,0,1.216.6,1.4,1.4,0,0,0,1.2-.591,3.241,3.241,0,0,0,.432-1.889,2.933,2.933,0,0,0-.432-1.716,1.4,1.4,0,0,0-1.216-.609,1.382,1.382,0,0,0-1.2.605A3.3,3.3,0,0,0,49.68-3.885Zm10.986,1.7a.682.682,0,0,0-.385-.612,4.368,4.368,0,0,0-1.234-.4q-2.827-.593-2.827-2.4A2.178,2.178,0,0,1,57.1-7.365a3.531,3.531,0,0,1,2.289-.707,3.8,3.8,0,0,1,2.413.71,2.239,2.239,0,0,1,.9,1.846H60.586a1.024,1.024,0,0,0-.293-.751,1.24,1.24,0,0,0-.916-.3,1.267,1.267,0,0,0-.828.242.763.763,0,0,0-.293.615.652.652,0,0,0,.333.568,3.428,3.428,0,0,0,1.124.374,9.183,9.183,0,0,1,1.333.355,2.19,2.19,0,0,1,1.677,2.131,2.067,2.067,0,0,1-.93,1.754,4.013,4.013,0,0,1-2.4.67,4.191,4.191,0,0,1-1.769-.355,2.968,2.968,0,0,1-1.212-.974,2.263,2.263,0,0,1-.439-1.337h2.007a1.105,1.105,0,0,0,.417.864,1.656,1.656,0,0,0,1.04.3,1.533,1.533,0,0,0,.919-.231A.718.718,0,0,0,60.667-2.19Z" transform="translate(324.488 1645.557)" fill="#14263e"/>
    <rect id="Rectángulo_40621-2" data-name="Rectángulo 40621" width="190" height="50" rx="4.588" transform="translate(1145 1615.761)" fill="#d1d5fc" stroke="#3e4bbf" stroke-width="1.835"/>
    <path id="Trazado_206359" data-name="Trazado 206359" d="M7.368-4.636H3.149v2.871H8.1V0H.952V-10.664H8.086v1.78H3.149v2.542H7.368ZM12.407-1.56a1.388,1.388,0,0,0,.952-.322,1.129,1.129,0,0,0,.381-.857h1.985a2.715,2.715,0,0,1-.439,1.476A2.9,2.9,0,0,1,14.1-.223a3.7,3.7,0,0,1-1.659.37A3.44,3.44,0,0,1,9.763-.934a4.275,4.275,0,0,1-.981-2.985v-.139A4.226,4.226,0,0,1,9.756-6.98a3.4,3.4,0,0,1,2.673-1.091,3.333,3.333,0,0,1,2.384.846,3,3,0,0,1,.912,2.252H13.74a1.455,1.455,0,0,0-.381-1.005,1.27,1.27,0,0,0-.967-.387,1.275,1.275,0,0,0-1.117.539A3.125,3.125,0,0,0,10.9-4.076v.22A3.164,3.164,0,0,0,11.272-2.1,1.291,1.291,0,0,0,12.407-1.56Zm4.2-2.476a4.7,4.7,0,0,1,.454-2.1,3.324,3.324,0,0,1,1.307-1.428,3.814,3.814,0,0,1,1.981-.505,3.609,3.609,0,0,1,2.618.981A3.939,3.939,0,0,1,24.1-4.424l.015.542A4.142,4.142,0,0,1,23.093-.956a3.539,3.539,0,0,1-2.732,1.1,3.556,3.556,0,0,1-2.736-1.1A4.215,4.215,0,0,1,16.6-3.94Zm2.117.15a2.962,2.962,0,0,0,.425,1.727,1.4,1.4,0,0,0,1.216.6,1.4,1.4,0,0,0,1.2-.591,3.241,3.241,0,0,0,.432-1.889,2.933,2.933,0,0,0-.432-1.716,1.4,1.4,0,0,0-1.216-.609,1.382,1.382,0,0,0-1.2.605A3.3,3.3,0,0,0,18.721-3.885Zm8.643-4.039.066.916a2.767,2.767,0,0,1,2.278-1.062,2.3,2.3,0,0,1,1.875.74,3.451,3.451,0,0,1,.63,2.212V0H30.1V-5.08a1.379,1.379,0,0,0-.293-.98,1.31,1.31,0,0,0-.974-.3,1.456,1.456,0,0,0-1.34.763V0H25.371V-7.925Zm6.123,3.889a4.7,4.7,0,0,1,.454-2.1,3.324,3.324,0,0,1,1.307-1.428,3.814,3.814,0,0,1,1.981-.505,3.609,3.609,0,0,1,2.618.981,3.939,3.939,0,0,1,1.132,2.666l.015.542A4.142,4.142,0,0,1,39.976-.956a3.539,3.539,0,0,1-2.732,1.1,3.556,3.556,0,0,1-2.736-1.1A4.215,4.215,0,0,1,33.486-3.94Zm2.117.15a2.962,2.962,0,0,0,.425,1.727,1.4,1.4,0,0,0,1.216.6,1.4,1.4,0,0,0,1.2-.591,3.241,3.241,0,0,0,.432-1.889,2.933,2.933,0,0,0-.432-1.716,1.4,1.4,0,0,0-1.216-.609,1.382,1.382,0,0,0-1.2.605A3.3,3.3,0,0,0,35.6-3.885Zm8.679-4.039.066.886a2.785,2.785,0,0,1,2.278-1.033,2.114,2.114,0,0,1,2.1,1.208,2.721,2.721,0,0,1,2.38-1.208,2.364,2.364,0,0,1,1.919.751,3.451,3.451,0,0,1,.63,2.26V0H51.533V-5.065a1.515,1.515,0,0,0-.264-.987,1.167,1.167,0,0,0-.93-.312,1.321,1.321,0,0,0-1.318.91L49.028,0H46.912V-5.058a1.5,1.5,0,0,0-.271-1,1.178,1.178,0,0,0-.923-.308,1.371,1.371,0,0,0-1.3.749V0H42.3V-7.925ZM57.568,0H55.452V-7.925h2.117Zm-.623-11.14h2.307L57.224-8.87H55.5ZM63.984,0a2.351,2.351,0,0,1-.212-.71,2.561,2.561,0,0,1-2,.857,2.814,2.814,0,0,1-1.93-.674,2.167,2.167,0,0,1-.765-1.7,2.24,2.24,0,0,1,.934-1.934,4.608,4.608,0,0,1,2.7-.681h.974V-5.3a1.306,1.306,0,0,0-.282-.879,1.109,1.109,0,0,0-.89-.33,1.261,1.261,0,0,0-.839.256.871.871,0,0,0-.3.7H59.253a2.126,2.126,0,0,1,.425-1.274,2.808,2.808,0,0,1,1.2-.919,4.378,4.378,0,0,1,1.743-.333,3.459,3.459,0,0,1,2.325.736,2.575,2.575,0,0,1,.861,2.069v3.435a3.789,3.789,0,0,0,.315,1.707V0Zm-1.75-1.472a1.823,1.823,0,0,0,.864-.209,1.371,1.371,0,0,0,.586-.56V-3.6h-.791Q61.3-3.6,61.2-2.5l-.007.125a.847.847,0,0,0,.278.652A1.081,1.081,0,0,0,62.234-1.472Z" transform="translate(1206.5 1645.557)" fill="#14263e"/>
    <rect id="Rectángulo_40621-3" data-name="Rectángulo 40621" width="190" height="50" rx="4.588" transform="translate(265 1528.587)" fill="#d1d5fc" stroke="#3e4bbf" stroke-width="1.835"/>
    <path id="Trazado_206356" data-name="Trazado 206356" d="M9.324-3.552A3.774,3.774,0,0,1,8.053-.842,4.463,4.463,0,0,1,5.032.146,4.013,4.013,0,0,1,1.805-1.234,5.661,5.661,0,0,1,.63-5.024v-.652a6.393,6.393,0,0,1,.542-2.71,4.062,4.062,0,0,1,1.549-1.8,4.339,4.339,0,0,1,2.34-.626,4.348,4.348,0,0,1,2.974.989,4.055,4.055,0,0,1,1.3,2.776h-2.2a2.227,2.227,0,0,0-.575-1.5,2.129,2.129,0,0,0-1.505-.465,1.867,1.867,0,0,0-1.644.787,4.413,4.413,0,0,0-.56,2.443v.806A4.723,4.723,0,0,0,3.38-2.446a1.832,1.832,0,0,0,1.652.8,2.169,2.169,0,0,0,1.52-.465,2.1,2.1,0,0,0,.575-1.439Zm6.05,2.747a2.654,2.654,0,0,1-2.168.952,2.5,2.5,0,0,1-1.945-.732,3.127,3.127,0,0,1-.685-2.146V-7.925h2.117V-2.8q0,1.239,1.128,1.239A1.528,1.528,0,0,0,15.3-2.308V-7.925h2.124V0H15.432ZM21.255,0H19.131V-11.25h2.124Zm4.277-9.873v1.948h1.355v1.553H25.532v3.955a.944.944,0,0,0,.168.63.846.846,0,0,0,.645.19,3.376,3.376,0,0,0,.623-.051v1.6a4.358,4.358,0,0,1-1.282.19A2.021,2.021,0,0,1,23.416-2.1v-4.27H22.258V-7.925h1.157V-9.873Zm7.28,9.067a2.654,2.654,0,0,1-2.168.952A2.5,2.5,0,0,1,28.7-.586a3.127,3.127,0,0,1-.685-2.146V-7.925h2.117V-2.8q0,1.239,1.128,1.239a1.528,1.528,0,0,0,1.479-.748V-7.925h2.124V0H32.871Zm8.1-5.134A5.751,5.751,0,0,0,40.151-6a1.55,1.55,0,0,0-1.575.813V0H36.46V-7.925h2l.059.945a1.961,1.961,0,0,1,1.765-1.091,2.218,2.218,0,0,1,.659.1ZM46.3,0a2.351,2.351,0,0,1-.212-.71,2.561,2.561,0,0,1-2,.857,2.814,2.814,0,0,1-1.93-.674,2.167,2.167,0,0,1-.765-1.7A2.24,2.24,0,0,1,42.33-4.16a4.608,4.608,0,0,1,2.7-.681H46V-5.3a1.306,1.306,0,0,0-.282-.879,1.109,1.109,0,0,0-.89-.33,1.261,1.261,0,0,0-.839.256.871.871,0,0,0-.3.7H41.572A2.126,2.126,0,0,1,42-6.819a2.808,2.808,0,0,1,1.2-.919,4.378,4.378,0,0,1,1.743-.333,3.459,3.459,0,0,1,2.325.736,2.575,2.575,0,0,1,.861,2.069v3.435a3.789,3.789,0,0,0,.315,1.707V0Zm-1.75-1.472a1.823,1.823,0,0,0,.864-.209A1.371,1.371,0,0,0,46-2.241V-3.6h-.791q-1.589,0-1.692,1.1l-.007.125a.847.847,0,0,0,.278.652A1.081,1.081,0,0,0,44.553-1.472Zm8.606-2.563a4.7,4.7,0,0,1,.454-2.1,3.324,3.324,0,0,1,1.307-1.428A3.814,3.814,0,0,1,56.9-8.071a3.609,3.609,0,0,1,2.618.981,3.939,3.939,0,0,1,1.132,2.666l.015.542A4.142,4.142,0,0,1,59.648-.956a3.539,3.539,0,0,1-2.732,1.1,3.556,3.556,0,0,1-2.736-1.1A4.215,4.215,0,0,1,53.159-3.94Zm2.117.15A2.962,2.962,0,0,0,55.7-2.158a1.4,1.4,0,0,0,1.216.6,1.4,1.4,0,0,0,1.2-.591,3.241,3.241,0,0,0,.432-1.889,2.933,2.933,0,0,0-.432-1.716A1.4,1.4,0,0,0,56.9-6.365a1.382,1.382,0,0,0-1.2.605A3.3,3.3,0,0,0,55.276-3.885ZM66.423-5.94A5.751,5.751,0,0,0,65.662-6a1.55,1.55,0,0,0-1.575.813V0H61.97V-7.925h2l.059.945a1.961,1.961,0,0,1,1.765-1.091,2.218,2.218,0,0,1,.659.1Zm.571,1.919a4.644,4.644,0,0,1,.868-2.937A2.812,2.812,0,0,1,70.2-8.071a2.466,2.466,0,0,1,2.029.894l.088-.747h1.919V-.264a3.387,3.387,0,0,1-.472,1.809,3.034,3.034,0,0,1-1.329,1.172,4.673,4.673,0,0,1-2.007.4,4.346,4.346,0,0,1-1.7-.348,3.016,3.016,0,0,1-1.252-.9L68.416.586a2.48,2.48,0,0,0,1.919.886,1.815,1.815,0,0,0,1.311-.45,1.69,1.69,0,0,0,.469-1.278V-.681a2.448,2.448,0,0,1-1.926.828A2.8,2.8,0,0,1,67.877-.97a4.643,4.643,0,0,1-.883-2.963Zm2.117.151a2.907,2.907,0,0,0,.432,1.7,1.373,1.373,0,0,0,1.187.614,1.469,1.469,0,0,0,1.384-.728V-5.636a1.465,1.465,0,0,0-1.37-.728,1.382,1.382,0,0,0-1.2.625A3.278,3.278,0,0,0,69.111-3.87ZM80.457,0a2.351,2.351,0,0,1-.212-.71,2.561,2.561,0,0,1-2,.857,2.814,2.814,0,0,1-1.93-.674,2.167,2.167,0,0,1-.765-1.7,2.24,2.24,0,0,1,.934-1.934,4.608,4.608,0,0,1,2.7-.681h.974V-5.3a1.306,1.306,0,0,0-.282-.879,1.109,1.109,0,0,0-.89-.33,1.261,1.261,0,0,0-.839.256.871.871,0,0,0-.3.7H75.725a2.126,2.126,0,0,1,.425-1.274,2.808,2.808,0,0,1,1.2-.919,4.378,4.378,0,0,1,1.743-.333,3.459,3.459,0,0,1,2.325.736,2.575,2.575,0,0,1,.861,2.069v3.435A3.789,3.789,0,0,0,82.6-.125V0Zm-1.75-1.472a1.823,1.823,0,0,0,.864-.209,1.371,1.371,0,0,0,.586-.56V-3.6h-.791q-1.589,0-1.692,1.1l-.007.125a.847.847,0,0,0,.278.652A1.081,1.081,0,0,0,78.706-1.472Zm7.148-6.453.066.916A2.767,2.767,0,0,1,88.2-8.071a2.3,2.3,0,0,1,1.875.74A3.451,3.451,0,0,1,90.7-5.12V0H88.586V-5.08a1.379,1.379,0,0,0-.293-.98,1.31,1.31,0,0,0-.974-.3,1.456,1.456,0,0,0-1.34.763V0H83.862V-7.925ZM94.541,0H92.417V-7.925h2.124ZM92.292-9.976a1.042,1.042,0,0,1,.319-.784,1.2,1.2,0,0,1,.868-.308,1.2,1.2,0,0,1,.864.308,1.036,1.036,0,0,1,.322.784,1.039,1.039,0,0,1-.326.791,1.2,1.2,0,0,1-.861.308,1.2,1.2,0,0,1-.861-.308A1.039,1.039,0,0,1,92.292-9.976Zm6.423,8.269h3.875V0H96.013V-1.289l3.728-4.929H96.123V-7.925h6.35v1.247ZM108.508,0a2.351,2.351,0,0,1-.212-.71,2.561,2.561,0,0,1-2,.857,2.814,2.814,0,0,1-1.93-.674,2.167,2.167,0,0,1-.765-1.7,2.24,2.24,0,0,1,.934-1.934,4.608,4.608,0,0,1,2.7-.681h.974V-5.3a1.306,1.306,0,0,0-.282-.879,1.109,1.109,0,0,0-.89-.33,1.261,1.261,0,0,0-.839.256.871.871,0,0,0-.3.7h-2.117a2.126,2.126,0,0,1,.425-1.274,2.808,2.808,0,0,1,1.2-.919,4.378,4.378,0,0,1,1.743-.333,3.459,3.459,0,0,1,2.325.736,2.575,2.575,0,0,1,.861,2.069v3.435a3.789,3.789,0,0,0,.315,1.707V0Zm-1.75-1.472a1.823,1.823,0,0,0,.864-.209,1.371,1.371,0,0,0,.586-.56V-3.6h-.791q-1.589,0-1.692,1.1l-.007.125a.847.847,0,0,0,.278.652A1.081,1.081,0,0,0,106.758-1.472Zm8.5-.088a1.388,1.388,0,0,0,.952-.322,1.129,1.129,0,0,0,.381-.857h1.985a2.715,2.715,0,0,1-.439,1.476,2.9,2.9,0,0,1-1.183,1.04,3.7,3.7,0,0,1-1.659.37,3.44,3.44,0,0,1-2.681-1.08,4.275,4.275,0,0,1-.981-2.985v-.139A4.226,4.226,0,0,1,112.6-6.98a3.4,3.4,0,0,1,2.673-1.091,3.333,3.333,0,0,1,2.384.846,3,3,0,0,1,.912,2.252h-1.985a1.455,1.455,0,0,0-.381-1.005,1.27,1.27,0,0,0-.967-.387,1.275,1.275,0,0,0-1.117.539,3.125,3.125,0,0,0-.377,1.749v.22a3.164,3.164,0,0,0,.374,1.761A1.291,1.291,0,0,0,115.254-1.56ZM122.014,0H119.89V-7.925h2.124Zm-2.249-9.976a1.042,1.042,0,0,1,.319-.784,1.2,1.2,0,0,1,.868-.308,1.2,1.2,0,0,1,.864.308,1.036,1.036,0,0,1,.322.784,1.039,1.039,0,0,1-.326.791,1.2,1.2,0,0,1-.861.308,1.2,1.2,0,0,1-.861-.308A1.039,1.039,0,0,1,119.766-9.976Zm3.662,5.94a4.7,4.7,0,0,1,.454-2.1,3.324,3.324,0,0,1,1.307-1.428,3.814,3.814,0,0,1,1.981-.505,3.609,3.609,0,0,1,2.618.981,3.939,3.939,0,0,1,1.132,2.666l.015.542a4.142,4.142,0,0,1-1.018,2.926,3.539,3.539,0,0,1-2.732,1.1,3.556,3.556,0,0,1-2.736-1.1,4.215,4.215,0,0,1-1.022-2.988Zm2.117.15a2.962,2.962,0,0,0,.425,1.727,1.4,1.4,0,0,0,1.216.6,1.4,1.4,0,0,0,1.2-.591,3.241,3.241,0,0,0,.432-1.889,2.933,2.933,0,0,0-.432-1.716,1.4,1.4,0,0,0-1.216-.609,1.382,1.382,0,0,0-1.2.605A3.3,3.3,0,0,0,125.544-3.885Zm8.643-4.039.066.916a2.767,2.767,0,0,1,2.278-1.062,2.3,2.3,0,0,1,1.875.74,3.451,3.451,0,0,1,.63,2.212V0h-2.117V-5.08a1.379,1.379,0,0,0-.293-.98,1.31,1.31,0,0,0-.974-.3,1.456,1.456,0,0,0-1.34.763V0h-2.117V-7.925ZM145.232,0a2.351,2.351,0,0,1-.212-.71,2.561,2.561,0,0,1-2,.857,2.814,2.814,0,0,1-1.93-.674,2.167,2.167,0,0,1-.765-1.7,2.24,2.24,0,0,1,.934-1.934,4.608,4.608,0,0,1,2.7-.681h.974V-5.3a1.306,1.306,0,0,0-.282-.879,1.109,1.109,0,0,0-.89-.33,1.261,1.261,0,0,0-.839.256.871.871,0,0,0-.3.7H140.5a2.126,2.126,0,0,1,.425-1.274,2.808,2.808,0,0,1,1.2-.919,4.378,4.378,0,0,1,1.743-.333,3.459,3.459,0,0,1,2.325.736,2.575,2.575,0,0,1,.861,2.069v3.435a3.789,3.789,0,0,0,.315,1.707V0Zm-1.75-1.472a1.823,1.823,0,0,0,.864-.209,1.371,1.371,0,0,0,.586-.56V-3.6h-.791q-1.589,0-1.692,1.1l-.007.125a.847.847,0,0,0,.278.652A1.081,1.081,0,0,0,143.481-1.472ZM150.916,0h-2.124V-11.25h2.124Z" transform="translate(285 1558.962)" fill="#14263e"/>
    <rect id="Rectángulo_40621-4" data-name="Rectángulo 40621" width="190" height="50" rx="4.588" transform="translate(1145 1528.587)" fill="#d1d5fc" stroke="#3e4bbf" stroke-width="1.835"/>
    <path id="Trazado_206358" data-name="Trazado 206358" d="M.952,0V-10.664H4.233a4.983,4.983,0,0,1,2.516.634,4.418,4.418,0,0,1,1.732,1.8A5.557,5.557,0,0,1,9.1-5.574v.491a5.573,5.573,0,0,1-.612,2.644A4.38,4.38,0,0,1,6.768-.645,5.021,5.021,0,0,1,4.255,0Zm2.2-8.884v7.119H4.211a2.386,2.386,0,0,0,1.97-.842,3.806,3.806,0,0,0,.7-2.41v-.564A3.867,3.867,0,0,0,6.2-8.046a2.378,2.378,0,0,0-1.97-.839ZM14.209.146A3.89,3.89,0,0,1,11.371-.923a3.8,3.8,0,0,1-1.095-2.849v-.205a4.787,4.787,0,0,1,.461-2.135,3.386,3.386,0,0,1,1.307-1.45,3.669,3.669,0,0,1,1.93-.509,3.289,3.289,0,0,1,2.56,1.025,4.167,4.167,0,0,1,.934,2.908v.864H12.422a1.966,1.966,0,0,0,.619,1.245,1.871,1.871,0,0,0,1.307.469,2.285,2.285,0,0,0,1.912-.886L17.3-1.282A3.178,3.178,0,0,1,16.011-.231,4.229,4.229,0,0,1,14.209.146Zm-.242-6.511a1.323,1.323,0,0,0-1.022.427,2.209,2.209,0,0,0-.5,1.221h2.944v-.169a1.576,1.576,0,0,0-.381-1.092A1.365,1.365,0,0,0,13.967-6.365Zm6.687-1.56.066.886A2.785,2.785,0,0,1,23-8.071a2.114,2.114,0,0,1,2.1,1.208,2.721,2.721,0,0,1,2.38-1.208,2.364,2.364,0,0,1,1.919.751,3.451,3.451,0,0,1,.63,2.26V0H27.905V-5.065a1.515,1.515,0,0,0-.264-.987,1.167,1.167,0,0,0-.93-.312,1.321,1.321,0,0,0-1.318.91L25.4,0H23.284V-5.058a1.5,1.5,0,0,0-.271-1,1.178,1.178,0,0,0-.923-.308,1.371,1.371,0,0,0-1.3.749V0H18.669V-7.925ZM31.326-4.036a4.7,4.7,0,0,1,.454-2.1,3.324,3.324,0,0,1,1.307-1.428,3.814,3.814,0,0,1,1.981-.505,3.609,3.609,0,0,1,2.618.981,3.939,3.939,0,0,1,1.132,2.666l.015.542A4.142,4.142,0,0,1,37.815-.956a3.539,3.539,0,0,1-2.732,1.1,3.556,3.556,0,0,1-2.736-1.1A4.215,4.215,0,0,1,31.326-3.94Zm2.117.15a2.962,2.962,0,0,0,.425,1.727,1.4,1.4,0,0,0,1.216.6,1.4,1.4,0,0,0,1.2-.591,3.241,3.241,0,0,0,.432-1.889,2.933,2.933,0,0,0-.432-1.716,1.4,1.4,0,0,0-1.216-.609,1.382,1.382,0,0,0-1.2.605A3.3,3.3,0,0,0,33.442-3.885Zm6.387-.136A4.644,4.644,0,0,1,40.7-6.958a2.812,2.812,0,0,1,2.34-1.113,2.466,2.466,0,0,1,2.029.894l.088-.747h1.919V-.264A3.387,3.387,0,0,1,46.6,1.545a3.034,3.034,0,0,1-1.329,1.172,4.673,4.673,0,0,1-2.007.4,4.346,4.346,0,0,1-1.7-.348,3.016,3.016,0,0,1-1.252-.9L41.25.586a2.48,2.48,0,0,0,1.919.886,1.815,1.815,0,0,0,1.311-.45,1.69,1.69,0,0,0,.469-1.278V-.681a2.448,2.448,0,0,1-1.926.828A2.8,2.8,0,0,1,40.712-.97a4.643,4.643,0,0,1-.883-2.963Zm2.117.151a2.907,2.907,0,0,0,.432,1.7,1.373,1.373,0,0,0,1.187.614,1.469,1.469,0,0,0,1.384-.728V-5.636a1.465,1.465,0,0,0-1.37-.728,1.382,1.382,0,0,0-1.2.625A3.278,3.278,0,0,0,41.946-3.87ZM53.152-5.94A5.751,5.751,0,0,0,52.39-6a1.55,1.55,0,0,0-1.575.813V0H48.7V-7.925h2l.059.945a1.961,1.961,0,0,1,1.765-1.091,2.218,2.218,0,0,1,.659.1ZM58.542,0a2.351,2.351,0,0,1-.212-.71,2.561,2.561,0,0,1-2,.857A2.814,2.814,0,0,1,54.4-.527a2.167,2.167,0,0,1-.765-1.7,2.24,2.24,0,0,1,.934-1.934,4.608,4.608,0,0,1,2.7-.681h.974V-5.3a1.306,1.306,0,0,0-.282-.879,1.109,1.109,0,0,0-.89-.33,1.261,1.261,0,0,0-.839.256.871.871,0,0,0-.3.7H53.811a2.126,2.126,0,0,1,.425-1.274,2.808,2.808,0,0,1,1.2-.919,4.378,4.378,0,0,1,1.743-.333,3.459,3.459,0,0,1,2.325.736,2.575,2.575,0,0,1,.861,2.069v3.435a3.789,3.789,0,0,0,.315,1.707V0Zm-1.75-1.472a1.823,1.823,0,0,0,.864-.209,1.371,1.371,0,0,0,.586-.56V-3.6h-.791q-1.589,0-1.692,1.1l-.007.125a.847.847,0,0,0,.278.652A1.081,1.081,0,0,0,56.792-1.472ZM62.571,0V-6.372H61.392V-7.925h1.179V-8.6a2.736,2.736,0,0,1,.765-2.069,2.964,2.964,0,0,1,2.142-.736,4.989,4.989,0,0,1,1.077.145l-.022,1.627a2.7,2.7,0,0,0-.645-.066q-1.194,0-1.194,1.13v.642H66.27v1.553H64.695V0Zm7.083,0H67.537V-7.925h2.117Zm-.623-11.14h2.307L69.309-8.87H67.588ZM76.069,0a2.351,2.351,0,0,1-.212-.71,2.561,2.561,0,0,1-2,.857,2.814,2.814,0,0,1-1.93-.674,2.167,2.167,0,0,1-.765-1.7A2.24,2.24,0,0,1,72.1-4.16a4.608,4.608,0,0,1,2.7-.681h.974V-5.3a1.306,1.306,0,0,0-.282-.879,1.109,1.109,0,0,0-.89-.33,1.261,1.261,0,0,0-.839.256.871.871,0,0,0-.3.7H71.338a2.126,2.126,0,0,1,.425-1.274,2.808,2.808,0,0,1,1.2-.919,4.378,4.378,0,0,1,1.743-.333,3.459,3.459,0,0,1,2.325.736,2.575,2.575,0,0,1,.861,2.069v3.435a3.789,3.789,0,0,0,.315,1.707V0Zm-1.75-1.472a1.823,1.823,0,0,0,.864-.209,1.371,1.371,0,0,0,.586-.56V-3.6h-.791q-1.589,0-1.692,1.1l-.007.125a.847.847,0,0,0,.278.652A1.081,1.081,0,0,0,74.319-1.472Z" transform="translate(1200.5 1558.383)" fill="#14263e"/>
    <rect id="Rectángulo_40621-5" data-name="Rectángulo 40621" width="190" height="50" rx="4.588" transform="translate(265 1705.587)" fill="#d1d5fc" stroke="#3e4bbf" stroke-width="1.835"/>
    <path id="Trazado_206368" data-name="Trazado 206368" d="M6.973-2.2H3.12L2.388,0H.051l3.97-10.664H6.057L10.049,0H7.712ZM3.713-3.977H6.379L5.039-7.969ZM14.2-1.56a1.388,1.388,0,0,0,.952-.322,1.129,1.129,0,0,0,.381-.857H17.52a2.715,2.715,0,0,1-.439,1.476A2.9,2.9,0,0,1,15.9-.223a3.7,3.7,0,0,1-1.659.37,3.44,3.44,0,0,1-2.681-1.08,4.275,4.275,0,0,1-.981-2.985v-.139A4.226,4.226,0,0,1,11.55-6.98a3.4,3.4,0,0,1,2.673-1.091,3.333,3.333,0,0,1,2.384.846,3,3,0,0,1,.912,2.252H15.535a1.455,1.455,0,0,0-.381-1.005,1.27,1.27,0,0,0-.967-.387,1.275,1.275,0,0,0-1.117.539,3.125,3.125,0,0,0-.377,1.749v.22A3.164,3.164,0,0,0,13.066-2.1,1.291,1.291,0,0,0,14.2-1.56Zm7.061-8.313v1.948h1.355v1.553H21.262v3.955a.944.944,0,0,0,.168.63.846.846,0,0,0,.645.19,3.376,3.376,0,0,0,.623-.051v1.6a4.358,4.358,0,0,1-1.282.19A2.021,2.021,0,0,1,19.146-2.1v-4.27H17.988V-7.925h1.157V-9.873ZM26.03,0H23.906V-7.925H26.03ZM23.782-9.976a1.042,1.042,0,0,1,.319-.784,1.2,1.2,0,0,1,.868-.308,1.2,1.2,0,0,1,.864.308,1.036,1.036,0,0,1,.322.784,1.039,1.039,0,0,1-.326.791,1.2,1.2,0,0,1-.861.308,1.2,1.2,0,0,1-.861-.308A1.039,1.039,0,0,1,23.782-9.976Zm6.958,7.39,1.472-5.339h2.212L31.75,0H29.729L27.056-7.925h2.212ZM37.588,0H35.464V-7.925h2.124ZM35.339-9.976a1.042,1.042,0,0,1,.319-.784,1.2,1.2,0,0,1,.868-.308,1.2,1.2,0,0,1,.864.308,1.036,1.036,0,0,1,.322.784,1.039,1.039,0,0,1-.326.791,1.2,1.2,0,0,1-.861.308,1.2,1.2,0,0,1-.861-.308A1.039,1.039,0,0,1,35.339-9.976ZM39-4.021a4.776,4.776,0,0,1,.831-2.952,2.7,2.7,0,0,1,2.274-1.1,2.427,2.427,0,0,1,1.912.864V-11.25h2.124V0H44.231l-.1-.842a2.491,2.491,0,0,1-2.036.989,2.69,2.69,0,0,1-2.245-1.1A4.93,4.93,0,0,1,39-4.021Zm2.117.151a3.146,3.146,0,0,0,.388,1.714,1.263,1.263,0,0,0,1.128.6,1.416,1.416,0,0,0,1.384-.831V-5.533a1.4,1.4,0,0,0-1.37-.831Q41.118-6.365,41.118-3.87ZM52.375,0a2.351,2.351,0,0,1-.212-.71,2.561,2.561,0,0,1-2,.857,2.814,2.814,0,0,1-1.93-.674,2.167,2.167,0,0,1-.765-1.7A2.24,2.24,0,0,1,48.4-4.16a4.608,4.608,0,0,1,2.7-.681h.974V-5.3a1.306,1.306,0,0,0-.282-.879,1.109,1.109,0,0,0-.89-.33,1.261,1.261,0,0,0-.839.256.871.871,0,0,0-.3.7H47.644a2.126,2.126,0,0,1,.425-1.274,2.808,2.808,0,0,1,1.2-.919,4.378,4.378,0,0,1,1.743-.333,3.459,3.459,0,0,1,2.325.736A2.575,2.575,0,0,1,54.2-5.266v3.435a3.789,3.789,0,0,0,.315,1.707V0Zm-1.75-1.472a1.823,1.823,0,0,0,.864-.209,1.371,1.371,0,0,0,.586-.56V-3.6h-.791q-1.589,0-1.692,1.1l-.007.125a.847.847,0,0,0,.278.652A1.081,1.081,0,0,0,50.625-1.472ZM55.5-4.021a4.776,4.776,0,0,1,.831-2.952,2.7,2.7,0,0,1,2.274-1.1,2.427,2.427,0,0,1,1.912.864V-11.25h2.124V0H60.725l-.1-.842a2.491,2.491,0,0,1-2.036.989,2.69,2.69,0,0,1-2.245-1.1A4.93,4.93,0,0,1,55.5-4.021Zm2.117.151A3.146,3.146,0,0,0,58-2.156a1.263,1.263,0,0,0,1.128.6,1.416,1.416,0,0,0,1.384-.831V-5.533a1.4,1.4,0,0,0-1.37-.831Q57.612-6.365,57.612-3.87ZM71.66.146A3.89,3.89,0,0,1,68.822-.923a3.8,3.8,0,0,1-1.095-2.849v-.205a4.787,4.787,0,0,1,.461-2.135A3.386,3.386,0,0,1,69.5-7.562a3.669,3.669,0,0,1,1.93-.509,3.289,3.289,0,0,1,2.56,1.025,4.167,4.167,0,0,1,.934,2.908v.864H69.873a1.966,1.966,0,0,0,.619,1.245A1.871,1.871,0,0,0,71.8-1.56a2.285,2.285,0,0,0,1.912-.886l1.04,1.165A3.178,3.178,0,0,1,73.462-.231,4.229,4.229,0,0,1,71.66.146Zm-.242-6.511a1.323,1.323,0,0,0-1.022.427,2.209,2.209,0,0,0-.5,1.221h2.944v-.169a1.576,1.576,0,0,0-.381-1.092A1.365,1.365,0,0,0,71.418-6.365Zm8,4.8a1.388,1.388,0,0,0,.952-.322,1.129,1.129,0,0,0,.381-.857h1.985a2.715,2.715,0,0,1-.439,1.476,2.9,2.9,0,0,1-1.183,1.04,3.7,3.7,0,0,1-1.659.37,3.44,3.44,0,0,1-2.681-1.08,4.275,4.275,0,0,1-.981-2.985v-.139a4.226,4.226,0,0,1,.974-2.922,3.4,3.4,0,0,1,2.673-1.091,3.333,3.333,0,0,1,2.384.846,3,3,0,0,1,.912,2.252H80.75a1.455,1.455,0,0,0-.381-1.005,1.27,1.27,0,0,0-.967-.387,1.275,1.275,0,0,0-1.117.539,3.125,3.125,0,0,0-.377,1.749v.22A3.164,3.164,0,0,0,78.281-2.1,1.291,1.291,0,0,0,79.417-1.56Zm4.2-2.476a4.7,4.7,0,0,1,.454-2.1,3.324,3.324,0,0,1,1.307-1.428,3.814,3.814,0,0,1,1.981-.505,3.609,3.609,0,0,1,2.618.981,3.939,3.939,0,0,1,1.132,2.666l.015.542A4.142,4.142,0,0,1,90.1-.956a3.539,3.539,0,0,1-2.732,1.1,3.556,3.556,0,0,1-2.736-1.1A4.215,4.215,0,0,1,83.613-3.94Zm2.117.15a2.962,2.962,0,0,0,.425,1.727,1.4,1.4,0,0,0,1.216.6,1.4,1.4,0,0,0,1.2-.591A3.241,3.241,0,0,0,89-4.039a2.933,2.933,0,0,0-.432-1.716,1.4,1.4,0,0,0-1.216-.609,1.382,1.382,0,0,0-1.2.605A3.3,3.3,0,0,0,85.73-3.885Zm8.643-4.039.066.916a2.767,2.767,0,0,1,2.278-1.062,2.3,2.3,0,0,1,1.875.74,3.451,3.451,0,0,1,.63,2.212V0H97.1V-5.08a1.379,1.379,0,0,0-.293-.98,1.31,1.31,0,0,0-.974-.3A1.456,1.456,0,0,0,94.5-5.6V0H92.38V-7.925ZM100.5-4.036a4.7,4.7,0,0,1,.454-2.1,3.324,3.324,0,0,1,1.307-1.428,3.814,3.814,0,0,1,1.981-.505,3.609,3.609,0,0,1,2.618.981,3.939,3.939,0,0,1,1.132,2.666l.015.542a4.142,4.142,0,0,1-1.018,2.926,3.539,3.539,0,0,1-2.732,1.1,3.556,3.556,0,0,1-2.736-1.1A4.215,4.215,0,0,1,100.5-3.94Zm2.117.15a2.962,2.962,0,0,0,.425,1.727,1.4,1.4,0,0,0,1.216.6,1.4,1.4,0,0,0,1.2-.591,3.241,3.241,0,0,0,.432-1.889,2.933,2.933,0,0,0-.432-1.716,1.4,1.4,0,0,0-1.216-.609,1.382,1.382,0,0,0-1.2.605A3.3,3.3,0,0,0,102.612-3.885Zm2.043-7.365h2.307l-2.029,2.271h-1.721Zm6.636,3.325.066.886a2.785,2.785,0,0,1,2.278-1.033,2.114,2.114,0,0,1,2.1,1.208,2.721,2.721,0,0,1,2.38-1.208,2.364,2.364,0,0,1,1.919.751,3.451,3.451,0,0,1,.63,2.26V0h-2.124V-5.065a1.515,1.515,0,0,0-.264-.987,1.167,1.167,0,0,0-.93-.312,1.321,1.321,0,0,0-1.318.91L116.038,0h-2.117V-5.058a1.5,1.5,0,0,0-.271-1,1.178,1.178,0,0,0-.923-.308,1.371,1.371,0,0,0-1.3.749V0h-2.117V-7.925ZM124.526,0H122.4V-7.925h2.124Zm-2.249-9.976a1.042,1.042,0,0,1,.319-.784,1.2,1.2,0,0,1,.868-.308,1.2,1.2,0,0,1,.864.308,1.036,1.036,0,0,1,.322.784,1.039,1.039,0,0,1-.326.791,1.2,1.2,0,0,1-.861.308,1.2,1.2,0,0,1-.861-.308A1.039,1.039,0,0,1,122.278-9.976Zm7.288,8.416a1.388,1.388,0,0,0,.952-.322,1.129,1.129,0,0,0,.381-.857h1.985a2.715,2.715,0,0,1-.439,1.476,2.9,2.9,0,0,1-1.183,1.04,3.7,3.7,0,0,1-1.659.37,3.44,3.44,0,0,1-2.681-1.08,4.275,4.275,0,0,1-.981-2.985v-.139a4.226,4.226,0,0,1,.974-2.922,3.4,3.4,0,0,1,2.673-1.091,3.333,3.333,0,0,1,2.384.846,3,3,0,0,1,.912,2.252H130.9a1.455,1.455,0,0,0-.381-1.005,1.27,1.27,0,0,0-.967-.387,1.275,1.275,0,0,0-1.117.539,3.125,3.125,0,0,0-.377,1.749v.22A3.164,3.164,0,0,0,128.43-2.1,1.291,1.291,0,0,0,129.565-1.56ZM138.684,0a2.351,2.351,0,0,1-.212-.71,2.561,2.561,0,0,1-2,.857,2.814,2.814,0,0,1-1.93-.674,2.167,2.167,0,0,1-.765-1.7,2.24,2.24,0,0,1,.934-1.934,4.608,4.608,0,0,1,2.7-.681h.974V-5.3a1.306,1.306,0,0,0-.282-.879,1.109,1.109,0,0,0-.89-.33,1.261,1.261,0,0,0-.839.256.871.871,0,0,0-.3.7h-2.117a2.126,2.126,0,0,1,.425-1.274,2.808,2.808,0,0,1,1.2-.919,4.378,4.378,0,0,1,1.743-.333,3.459,3.459,0,0,1,2.325.736,2.575,2.575,0,0,1,.861,2.069v3.435a3.789,3.789,0,0,0,.315,1.707V0Zm-1.75-1.472a1.823,1.823,0,0,0,.864-.209,1.371,1.371,0,0,0,.586-.56V-3.6h-.791Q136-3.6,135.9-2.5l-.007.125a.847.847,0,0,0,.278.652A1.081,1.081,0,0,0,136.934-1.472Z" transform="translate(290 1735.383)" fill="#14263e"/>
    <rect id="Rectángulo_40621-6" data-name="Rectángulo 40621" width="190" height="50" rx="4.588" transform="translate(1145 1705.587)" fill="#d1d5fc" stroke="#3e4bbf" stroke-width="1.835"/>
    <path id="Trazado_206360" data-name="Trazado 206360" d="M3.149-3.757V0H.952V-10.664h4.16a4.813,4.813,0,0,1,2.113.439,3.238,3.238,0,0,1,1.4,1.249,3.482,3.482,0,0,1,.491,1.842A3.062,3.062,0,0,1,8.046-4.662a4.469,4.469,0,0,1-2.97.9Zm0-1.78H5.112a1.93,1.93,0,0,0,1.329-.41A1.492,1.492,0,0,0,6.9-7.119a1.759,1.759,0,0,0-.461-1.267,1.724,1.724,0,0,0-1.274-.5H3.149Zm6.914,1.5a4.7,4.7,0,0,1,.454-2.1,3.324,3.324,0,0,1,1.307-1.428,3.814,3.814,0,0,1,1.981-.505,3.609,3.609,0,0,1,2.618.981,3.939,3.939,0,0,1,1.132,2.666l.015.542A4.142,4.142,0,0,1,16.553-.956a3.539,3.539,0,0,1-2.732,1.1,3.556,3.556,0,0,1-2.736-1.1A4.215,4.215,0,0,1,10.063-3.94Zm2.117.15A2.962,2.962,0,0,0,12.6-2.158a1.4,1.4,0,0,0,1.216.6,1.4,1.4,0,0,0,1.2-.591,3.241,3.241,0,0,0,.432-1.889,2.933,2.933,0,0,0-.432-1.716,1.4,1.4,0,0,0-1.216-.609,1.382,1.382,0,0,0-1.2.605A3.3,3.3,0,0,0,12.18-3.885ZM21.108,0H18.984V-11.25h2.124Zm4.028,0H23.02V-7.925h2.117Zm-.623-11.14h2.307L24.792-8.87H23.071Zm4.98,1.267v1.948H30.85v1.553H29.495v3.955a.944.944,0,0,0,.168.63.846.846,0,0,0,.645.19,3.376,3.376,0,0,0,.623-.051v1.6a4.358,4.358,0,0,1-1.282.19A2.021,2.021,0,0,1,27.378-2.1v-4.27H26.221V-7.925h1.157V-9.873ZM34.263,0H32.139V-7.925h2.124ZM32.014-9.976a1.042,1.042,0,0,1,.319-.784,1.2,1.2,0,0,1,.868-.308,1.2,1.2,0,0,1,.864.308,1.036,1.036,0,0,1,.322.784,1.039,1.039,0,0,1-.326.791,1.2,1.2,0,0,1-.861.308,1.2,1.2,0,0,1-.861-.308A1.039,1.039,0,0,1,32.014-9.976ZM39.3-1.56a1.388,1.388,0,0,0,.952-.322,1.129,1.129,0,0,0,.381-.857H42.62a2.715,2.715,0,0,1-.439,1.476A2.9,2.9,0,0,1,41-.223a3.7,3.7,0,0,1-1.659.37,3.44,3.44,0,0,1-2.681-1.08,4.275,4.275,0,0,1-.981-2.985v-.139A4.226,4.226,0,0,1,36.65-6.98a3.4,3.4,0,0,1,2.673-1.091,3.333,3.333,0,0,1,2.384.846,3,3,0,0,1,.912,2.252H40.635a1.455,1.455,0,0,0-.381-1.005,1.27,1.27,0,0,0-.967-.387,1.275,1.275,0,0,0-1.117.539,3.125,3.125,0,0,0-.377,1.749v.22A3.164,3.164,0,0,0,38.167-2.1,1.291,1.291,0,0,0,39.3-1.56ZM48.42,0a2.351,2.351,0,0,1-.212-.71,2.561,2.561,0,0,1-2,.857,2.814,2.814,0,0,1-1.93-.674,2.167,2.167,0,0,1-.765-1.7,2.24,2.24,0,0,1,.934-1.934,4.608,4.608,0,0,1,2.7-.681h.974V-5.3a1.306,1.306,0,0,0-.282-.879,1.109,1.109,0,0,0-.89-.33,1.261,1.261,0,0,0-.839.256.871.871,0,0,0-.3.7H43.689a2.126,2.126,0,0,1,.425-1.274,2.808,2.808,0,0,1,1.2-.919,4.378,4.378,0,0,1,1.743-.333,3.459,3.459,0,0,1,2.325.736,2.575,2.575,0,0,1,.861,2.069v3.435a3.789,3.789,0,0,0,.315,1.707V0ZM46.67-1.472a1.823,1.823,0,0,0,.864-.209,1.371,1.371,0,0,0,.586-.56V-3.6h-.791q-1.589,0-1.692,1.1l-.007.125a.847.847,0,0,0,.278.652A1.081,1.081,0,0,0,46.67-1.472Z" transform="translate(1214.5 1735.383)" fill="#14263e"/>
    <rect id="Rectángulo_40621-7" data-name="Rectángulo 40621" width="190" height="50" rx="4.588" transform="translate(265 1885.239)" fill="#d1d5fc" stroke="#3e4bbf" stroke-width="1.835"/>
    <path id="Trazado_206366" data-name="Trazado 206366" d="M8.979-8.884H5.713V0h-2.2V-8.884H.293v-1.78H8.979ZM14.07-5.94A5.751,5.751,0,0,0,13.308-6a1.55,1.55,0,0,0-1.575.813V0H9.617V-7.925h2l.059.945A1.961,1.961,0,0,1,13.44-8.071a2.218,2.218,0,0,1,.659.1ZM19.46,0a2.351,2.351,0,0,1-.212-.71,2.561,2.561,0,0,1-2,.857,2.814,2.814,0,0,1-1.93-.674,2.167,2.167,0,0,1-.765-1.7,2.24,2.24,0,0,1,.934-1.934,4.608,4.608,0,0,1,2.7-.681h.974V-5.3a1.306,1.306,0,0,0-.282-.879,1.109,1.109,0,0,0-.89-.33,1.261,1.261,0,0,0-.839.256.871.871,0,0,0-.3.7H14.729a2.126,2.126,0,0,1,.425-1.274,2.808,2.808,0,0,1,1.2-.919A4.378,4.378,0,0,1,18.1-8.071a3.459,3.459,0,0,1,2.325.736,2.575,2.575,0,0,1,.861,2.069v3.435A3.789,3.789,0,0,0,21.6-.125V0ZM17.71-1.472a1.823,1.823,0,0,0,.864-.209,1.371,1.371,0,0,0,.586-.56V-3.6h-.791q-1.589,0-1.692,1.1l-.007.125a.847.847,0,0,0,.278.652A1.081,1.081,0,0,0,17.71-1.472ZM25.759-3l1.465-4.929h2.271L26.309,1.23l-.176.417A2.416,2.416,0,0,1,23.789,3.2a3.33,3.33,0,0,1-.937-.139v-1.6l.322.007a1.741,1.741,0,0,0,.9-.183,1.2,1.2,0,0,0,.465-.608l.249-.652L22.009-7.925h2.278ZM33.882.146A3.89,3.89,0,0,1,31.044-.923a3.8,3.8,0,0,1-1.095-2.849v-.205a4.787,4.787,0,0,1,.461-2.135,3.386,3.386,0,0,1,1.307-1.45,3.669,3.669,0,0,1,1.93-.509,3.289,3.289,0,0,1,2.56,1.025,4.167,4.167,0,0,1,.934,2.908v.864H32.095a1.966,1.966,0,0,0,.619,1.245,1.871,1.871,0,0,0,1.307.469,2.285,2.285,0,0,0,1.912-.886l1.04,1.165A3.178,3.178,0,0,1,35.684-.231,4.229,4.229,0,0,1,33.882.146ZM33.64-6.365a1.323,1.323,0,0,0-1.022.427,2.209,2.209,0,0,0-.5,1.221h2.944v-.169a1.576,1.576,0,0,0-.381-1.092A1.365,1.365,0,0,0,33.64-6.365Zm8,4.8a1.388,1.388,0,0,0,.952-.322,1.129,1.129,0,0,0,.381-.857h1.985a2.715,2.715,0,0,1-.439,1.476,2.9,2.9,0,0,1-1.183,1.04,3.7,3.7,0,0,1-1.659.37,3.44,3.44,0,0,1-2.681-1.08,4.275,4.275,0,0,1-.981-2.985v-.139a4.226,4.226,0,0,1,.974-2.922A3.4,3.4,0,0,1,41.66-8.071a3.333,3.333,0,0,1,2.384.846,3,3,0,0,1,.912,2.252H42.971a1.455,1.455,0,0,0-.381-1.005,1.27,1.27,0,0,0-.967-.387,1.275,1.275,0,0,0-1.117.539,3.125,3.125,0,0,0-.377,1.749v.22A3.164,3.164,0,0,0,40.5-2.1,1.291,1.291,0,0,0,41.638-1.56ZM48.7-9.873v1.948h1.355v1.553H48.7v3.955a.944.944,0,0,0,.168.63.846.846,0,0,0,.645.19,3.376,3.376,0,0,0,.623-.051v1.6a4.358,4.358,0,0,1-1.282.19A2.021,2.021,0,0,1,46.582-2.1v-4.27H45.425V-7.925h1.157V-9.873Zm1.985,5.837a4.7,4.7,0,0,1,.454-2.1,3.324,3.324,0,0,1,1.307-1.428,3.814,3.814,0,0,1,1.981-.505,3.609,3.609,0,0,1,2.618.981,3.939,3.939,0,0,1,1.132,2.666l.015.542A4.142,4.142,0,0,1,57.173-.956a3.539,3.539,0,0,1-2.732,1.1,3.556,3.556,0,0,1-2.736-1.1A4.215,4.215,0,0,1,50.684-3.94Zm2.117.15a2.962,2.962,0,0,0,.425,1.727,1.4,1.4,0,0,0,1.216.6,1.4,1.4,0,0,0,1.2-.591,3.241,3.241,0,0,0,.432-1.889,2.933,2.933,0,0,0-.432-1.716,1.4,1.4,0,0,0-1.216-.609,1.382,1.382,0,0,0-1.2.605A3.3,3.3,0,0,0,52.8-3.885ZM63.948-5.94A5.751,5.751,0,0,0,63.186-6a1.55,1.55,0,0,0-1.575.813V0H59.495V-7.925h2l.059.945a1.961,1.961,0,0,1,1.765-1.091,2.218,2.218,0,0,1,.659.1ZM67.2,0H65.076V-7.925H67.2ZM64.951-9.976a1.042,1.042,0,0,1,.319-.784,1.2,1.2,0,0,1,.868-.308,1.2,1.2,0,0,1,.864.308,1.036,1.036,0,0,1,.322.784A1.039,1.039,0,0,1,67-9.185a1.2,1.2,0,0,1-.861.308,1.2,1.2,0,0,1-.861-.308A1.039,1.039,0,0,1,64.951-9.976ZM73.535,0a2.351,2.351,0,0,1-.212-.71,2.561,2.561,0,0,1-2,.857,2.814,2.814,0,0,1-1.93-.674,2.167,2.167,0,0,1-.765-1.7,2.24,2.24,0,0,1,.934-1.934,4.608,4.608,0,0,1,2.7-.681h.974V-5.3a1.306,1.306,0,0,0-.282-.879,1.109,1.109,0,0,0-.89-.33,1.261,1.261,0,0,0-.839.256.871.871,0,0,0-.3.7H68.8a2.126,2.126,0,0,1,.425-1.274,2.808,2.808,0,0,1,1.2-.919,4.378,4.378,0,0,1,1.743-.333,3.459,3.459,0,0,1,2.325.736,2.575,2.575,0,0,1,.861,2.069v3.435a3.789,3.789,0,0,0,.315,1.707V0Zm-1.75-1.472a1.823,1.823,0,0,0,.864-.209,1.371,1.371,0,0,0,.586-.56V-3.6h-.791q-1.589,0-1.692,1.1l-.007.125a.847.847,0,0,0,.278.652A1.081,1.081,0,0,0,71.785-1.472Z" transform="translate(322 1915.035)" fill="#14263e"/>
    <rect id="Rectángulo_40621-8" data-name="Rectángulo 40621" width="190" height="50" rx="4.588" transform="translate(1145 1885.239)" fill="#d1d5fc" stroke="#3e4bbf" stroke-width="1.835"/>
    <path id="Trazado_206362" data-name="Trazado 206362" d="M3.823-10.664,6.563-2.93l2.725-7.734h2.886V0h-2.2V-2.915l.22-5.032L7.31,0H5.8L2.93-7.939l.22,5.024V0H.952V-10.664ZM17.6.146A3.89,3.89,0,0,1,14.762-.923a3.8,3.8,0,0,1-1.095-2.849v-.205a4.787,4.787,0,0,1,.461-2.135,3.386,3.386,0,0,1,1.307-1.45,3.669,3.669,0,0,1,1.93-.509,3.289,3.289,0,0,1,2.56,1.025,4.167,4.167,0,0,1,.934,2.908v.864H15.813a1.966,1.966,0,0,0,.619,1.245,1.871,1.871,0,0,0,1.307.469,2.285,2.285,0,0,0,1.912-.886l1.04,1.165A3.178,3.178,0,0,1,19.4-.231,4.229,4.229,0,0,1,17.6.146Zm-.242-6.511a1.323,1.323,0,0,0-1.022.427,2.209,2.209,0,0,0-.5,1.221h2.944v-.169A1.576,1.576,0,0,0,18.4-5.979,1.365,1.365,0,0,0,17.358-6.365Zm9.155.425A5.751,5.751,0,0,0,25.752-6a1.55,1.55,0,0,0-1.575.813V0H22.061V-7.925h2l.059.945a1.961,1.961,0,0,1,1.765-1.091,2.218,2.218,0,0,1,.659.1Zm4.175,4.38a1.388,1.388,0,0,0,.952-.322,1.129,1.129,0,0,0,.381-.857h1.985a2.715,2.715,0,0,1-.439,1.476,2.9,2.9,0,0,1-1.183,1.04,3.7,3.7,0,0,1-1.659.37,3.44,3.44,0,0,1-2.681-1.08,4.275,4.275,0,0,1-.981-2.985v-.139a4.226,4.226,0,0,1,.974-2.922A3.4,3.4,0,0,1,30.71-8.071a3.333,3.333,0,0,1,2.384.846,3,3,0,0,1,.912,2.252H32.021a1.455,1.455,0,0,0-.381-1.005,1.27,1.27,0,0,0-.967-.387,1.275,1.275,0,0,0-1.117.539,3.125,3.125,0,0,0-.377,1.749v.22A3.164,3.164,0,0,0,29.553-2.1,1.291,1.291,0,0,0,30.688-1.56ZM39.807,0a2.351,2.351,0,0,1-.212-.71,2.561,2.561,0,0,1-2,.857,2.814,2.814,0,0,1-1.93-.674,2.167,2.167,0,0,1-.765-1.7,2.24,2.24,0,0,1,.934-1.934,4.608,4.608,0,0,1,2.7-.681h.974V-5.3a1.306,1.306,0,0,0-.282-.879,1.109,1.109,0,0,0-.89-.33,1.261,1.261,0,0,0-.839.256.871.871,0,0,0-.3.7H35.076A2.126,2.126,0,0,1,35.5-6.819a2.808,2.808,0,0,1,1.2-.919,4.378,4.378,0,0,1,1.743-.333,3.459,3.459,0,0,1,2.325.736,2.575,2.575,0,0,1,.861,2.069v3.435a3.789,3.789,0,0,0,.315,1.707V0Zm-1.75-1.472a1.823,1.823,0,0,0,.864-.209,1.371,1.371,0,0,0,.586-.56V-3.6h-.791q-1.589,0-1.692,1.1l-.007.125a.847.847,0,0,0,.278.652A1.081,1.081,0,0,0,38.057-1.472Zm4.871-2.549a4.776,4.776,0,0,1,.831-2.952,2.7,2.7,0,0,1,2.274-1.1,2.427,2.427,0,0,1,1.912.864V-11.25h2.124V0H48.157l-.1-.842a2.491,2.491,0,0,1-2.036.989,2.69,2.69,0,0,1-2.245-1.1A4.93,4.93,0,0,1,42.927-4.021Zm2.117.151a3.146,3.146,0,0,0,.388,1.714,1.263,1.263,0,0,0,1.128.6,1.416,1.416,0,0,0,1.384-.831V-5.533a1.4,1.4,0,0,0-1.37-.831Q45.044-6.365,45.044-3.87Zm6.335-.165a4.7,4.7,0,0,1,.454-2.1,3.324,3.324,0,0,1,1.307-1.428,3.814,3.814,0,0,1,1.981-.505,3.609,3.609,0,0,1,2.618.981,3.939,3.939,0,0,1,1.132,2.666l.015.542A4.142,4.142,0,0,1,57.869-.956a3.539,3.539,0,0,1-2.732,1.1A3.556,3.556,0,0,1,52.4-.952,4.215,4.215,0,0,1,51.379-3.94Zm2.117.15a2.962,2.962,0,0,0,.425,1.727,1.4,1.4,0,0,0,1.216.6,1.4,1.4,0,0,0,1.2-.591,3.241,3.241,0,0,0,.432-1.889,2.933,2.933,0,0,0-.432-1.716,1.4,1.4,0,0,0-1.216-.609,1.382,1.382,0,0,0-1.2.605A3.3,3.3,0,0,0,53.5-3.885Zm10.525-.451a11.24,11.24,0,0,1,.447-3.193,8.427,8.427,0,0,1,1.318-2.684,4.923,4.923,0,0,1,1.89-1.622l.41,1.143a5.1,5.1,0,0,0-1.67,2.446,11.327,11.327,0,0,0-.6,3.867v.227a11.543,11.543,0,0,0,.593,3.882,5.2,5.2,0,0,0,1.677,2.483l-.41,1.121a4.925,4.925,0,0,1-1.857-1.578A8.286,8.286,0,0,1,64.5-.857a11.173,11.173,0,0,1-.483-3.091ZM72.488-1.56a1.388,1.388,0,0,0,.952-.322,1.129,1.129,0,0,0,.381-.857h1.985a2.715,2.715,0,0,1-.439,1.476,2.9,2.9,0,0,1-1.183,1.04,3.7,3.7,0,0,1-1.659.37,3.44,3.44,0,0,1-2.681-1.08,4.275,4.275,0,0,1-.981-2.985v-.139a4.226,4.226,0,0,1,.974-2.922A3.4,3.4,0,0,1,72.51-8.071a3.333,3.333,0,0,1,2.384.846,3,3,0,0,1,.912,2.252H73.821a1.455,1.455,0,0,0-.381-1.005,1.27,1.27,0,0,0-.967-.387,1.275,1.275,0,0,0-1.117.539,3.125,3.125,0,0,0-.377,1.749v.22A3.164,3.164,0,0,0,71.353-2.1,1.291,1.291,0,0,0,72.488-1.56Zm4.2-2.476a4.7,4.7,0,0,1,.454-2.1,3.324,3.324,0,0,1,1.307-1.428,3.814,3.814,0,0,1,1.981-.505,3.609,3.609,0,0,1,2.618.981,3.939,3.939,0,0,1,1.132,2.666l.015.542A4.142,4.142,0,0,1,83.174-.956a3.539,3.539,0,0,1-2.732,1.1,3.556,3.556,0,0,1-2.736-1.1A4.215,4.215,0,0,1,76.685-3.94Zm2.117.15a2.962,2.962,0,0,0,.425,1.727,1.4,1.4,0,0,0,1.216.6,1.4,1.4,0,0,0,1.2-.591,3.241,3.241,0,0,0,.432-1.889,2.933,2.933,0,0,0-.432-1.716,1.4,1.4,0,0,0-1.216-.609,1.382,1.382,0,0,0-1.2.605A3.3,3.3,0,0,0,78.8-3.885ZM87.48-7.925l.066.886a2.785,2.785,0,0,1,2.278-1.033,2.114,2.114,0,0,1,2.1,1.208,2.721,2.721,0,0,1,2.38-1.208,2.364,2.364,0,0,1,1.919.751,3.451,3.451,0,0,1,.63,2.26V0H94.731V-5.065a1.515,1.515,0,0,0-.264-.987,1.167,1.167,0,0,0-.93-.312,1.321,1.321,0,0,0-1.318.91L92.227,0H90.11V-5.058a1.5,1.5,0,0,0-.271-1,1.178,1.178,0,0,0-.923-.308,1.371,1.371,0,0,0-1.3.749V0H85.5V-7.925Zm18.135,4.036a4.753,4.753,0,0,1-.831,2.933,2.665,2.665,0,0,1-2.245,1.1A2.469,2.469,0,0,1,100.6-.688V3.047H98.481V-7.925h1.963l.073.776a2.488,2.488,0,0,1,2.007-.923A2.683,2.683,0,0,1,104.8-6.987,4.882,4.882,0,0,1,105.615-4ZM103.5-4.051a3.136,3.136,0,0,0-.392-1.712,1.275,1.275,0,0,0-1.139-.6,1.385,1.385,0,0,0-1.37.764v3.255a1.409,1.409,0,0,0,1.384.786Q103.5-1.56,103.5-4.051Zm7.075,4.2a3.89,3.89,0,0,1-2.838-1.069,3.8,3.8,0,0,1-1.095-2.849v-.205a4.787,4.787,0,0,1,.461-2.135,3.386,3.386,0,0,1,1.307-1.45,3.669,3.669,0,0,1,1.93-.509,3.289,3.289,0,0,1,2.56,1.025,4.167,4.167,0,0,1,.934,2.908v.864h-5.046a1.966,1.966,0,0,0,.619,1.245,1.871,1.871,0,0,0,1.307.469,2.285,2.285,0,0,0,1.912-.886l1.04,1.165a3.178,3.178,0,0,1-1.289,1.051A4.229,4.229,0,0,1,110.574.146Zm-.242-6.511a1.323,1.323,0,0,0-1.022.427,2.209,2.209,0,0,0-.5,1.221h2.944v-.169a1.576,1.576,0,0,0-.381-1.092A1.365,1.365,0,0,0,110.332-6.365Zm7.236-3.508v1.948h1.355v1.553h-1.355v3.955a.944.944,0,0,0,.168.63.846.846,0,0,0,.645.19A3.376,3.376,0,0,0,119-1.648v1.6a4.358,4.358,0,0,1-1.282.19A2.021,2.021,0,0,1,115.452-2.1v-4.27h-1.157V-7.925h1.157V-9.873ZM123.75.146a3.89,3.89,0,0,1-2.838-1.069,3.8,3.8,0,0,1-1.095-2.849v-.205a4.787,4.787,0,0,1,.461-2.135,3.386,3.386,0,0,1,1.307-1.45,3.669,3.669,0,0,1,1.93-.509,3.289,3.289,0,0,1,2.56,1.025,4.167,4.167,0,0,1,.934,2.908v.864h-5.046a1.966,1.966,0,0,0,.619,1.245,1.871,1.871,0,0,0,1.307.469,2.285,2.285,0,0,0,1.912-.886l1.04,1.165a3.178,3.178,0,0,1-1.289,1.051A4.229,4.229,0,0,1,123.75.146Zm-.242-6.511a1.323,1.323,0,0,0-1.022.427,2.209,2.209,0,0,0-.5,1.221h2.944v-.169a1.576,1.576,0,0,0-.381-1.092A1.365,1.365,0,0,0,123.508-6.365Zm6.65-1.56.066.916A2.767,2.767,0,0,1,132.5-8.071a2.3,2.3,0,0,1,1.875.74,3.451,3.451,0,0,1,.63,2.212V0h-2.117V-5.08a1.379,1.379,0,0,0-.293-.98,1.31,1.31,0,0,0-.974-.3,1.456,1.456,0,0,0-1.34.763V0h-2.117V-7.925Zm9.749,6.365a1.388,1.388,0,0,0,.952-.322,1.129,1.129,0,0,0,.381-.857h1.985a2.715,2.715,0,0,1-.439,1.476A2.9,2.9,0,0,1,141.6-.223a3.7,3.7,0,0,1-1.659.37,3.44,3.44,0,0,1-2.681-1.08,4.275,4.275,0,0,1-.981-2.985v-.139a4.226,4.226,0,0,1,.974-2.922,3.4,3.4,0,0,1,2.673-1.091,3.333,3.333,0,0,1,2.384.846,3,3,0,0,1,.912,2.252H141.24a1.455,1.455,0,0,0-.381-1.005,1.27,1.27,0,0,0-.967-.387,1.275,1.275,0,0,0-1.117.539,3.125,3.125,0,0,0-.377,1.749v.22a3.164,3.164,0,0,0,.374,1.761A1.291,1.291,0,0,0,139.907-1.56ZM146.667,0h-2.124V-7.925h2.124Zm-2.249-9.976a1.042,1.042,0,0,1,.319-.784,1.2,1.2,0,0,1,.868-.308,1.2,1.2,0,0,1,.864.308,1.036,1.036,0,0,1,.322.784,1.039,1.039,0,0,1-.326.791,1.2,1.2,0,0,1-.861.308,1.2,1.2,0,0,1-.861-.308A1.039,1.039,0,0,1,144.419-9.976ZM153,0a2.351,2.351,0,0,1-.212-.71,2.561,2.561,0,0,1-2,.857,2.814,2.814,0,0,1-1.93-.674,2.167,2.167,0,0,1-.765-1.7,2.24,2.24,0,0,1,.934-1.934,4.608,4.608,0,0,1,2.7-.681h.974V-5.3a1.306,1.306,0,0,0-.282-.879,1.109,1.109,0,0,0-.89-.33,1.261,1.261,0,0,0-.839.256.871.871,0,0,0-.3.7h-2.117a2.126,2.126,0,0,1,.425-1.274,2.808,2.808,0,0,1,1.2-.919,4.378,4.378,0,0,1,1.743-.333,3.459,3.459,0,0,1,2.325.736,2.575,2.575,0,0,1,.861,2.069v3.435a3.789,3.789,0,0,0,.315,1.707V0Zm-1.75-1.472a1.823,1.823,0,0,0,.864-.209,1.371,1.371,0,0,0,.586-.56V-3.6h-.791q-1.589,0-1.692,1.1l-.007.125a.847.847,0,0,0,.278.652A1.081,1.081,0,0,0,151.252-1.472Zm8.848-2.7a10.666,10.666,0,0,1-.476,3.186,8.648,8.648,0,0,1-1.37,2.7,4.935,4.935,0,0,1-1.912,1.611l-.41-1.121a5.15,5.15,0,0,0,1.641-2.417,11.192,11.192,0,0,0,.623-3.757v-.388a11.445,11.445,0,0,0-.6-3.86,5.369,5.369,0,0,0-1.666-2.5l.41-1.121a4.936,4.936,0,0,1,1.879,1.567,8.537,8.537,0,0,1,1.37,2.644A10.59,10.59,0,0,1,160.1-4.5Z" transform="translate(1159.5 1915.035)" fill="#14263e"/>
    <rect id="Rectángulo_40621-9" data-name="Rectángulo 40621" width="190" height="50" rx="4.588" transform="translate(265 1795.413)" fill="#d1d5fc" stroke="#3e4bbf" stroke-width="1.835"/>
    <path id="Trazado_206367" data-name="Trazado 206367" d="M8.979-8.884H5.713V0h-2.2V-8.884H.293v-1.78H8.979ZM13.455,0a2.351,2.351,0,0,1-.212-.71,2.561,2.561,0,0,1-2,.857,2.814,2.814,0,0,1-1.93-.674,2.167,2.167,0,0,1-.765-1.7A2.24,2.24,0,0,1,9.481-4.16a4.608,4.608,0,0,1,2.7-.681h.974V-5.3a1.306,1.306,0,0,0-.282-.879,1.109,1.109,0,0,0-.89-.33,1.261,1.261,0,0,0-.839.256.871.871,0,0,0-.3.7H8.723a2.126,2.126,0,0,1,.425-1.274,2.808,2.808,0,0,1,1.2-.919,4.378,4.378,0,0,1,1.743-.333,3.459,3.459,0,0,1,2.325.736,2.575,2.575,0,0,1,.861,2.069v3.435a3.789,3.789,0,0,0,.315,1.707V0ZM11.7-1.472a1.823,1.823,0,0,0,.864-.209,1.371,1.371,0,0,0,.586-.56V-3.6h-.791q-1.589,0-1.692,1.1l-.007.125a.847.847,0,0,0,.278.652A1.081,1.081,0,0,0,11.7-1.472Zm7.185-6.453.066.886a2.785,2.785,0,0,1,2.278-1.033,2.114,2.114,0,0,1,2.1,1.208,2.721,2.721,0,0,1,2.38-1.208,2.364,2.364,0,0,1,1.919.751,3.451,3.451,0,0,1,.63,2.26V0H26.14V-5.065a1.515,1.515,0,0,0-.264-.987,1.167,1.167,0,0,0-.93-.312,1.321,1.321,0,0,0-1.318.91L23.635,0H21.519V-5.058a1.5,1.5,0,0,0-.271-1,1.178,1.178,0,0,0-.923-.308,1.371,1.371,0,0,0-1.3.749V0H16.9V-7.925ZM34.482,0a2.351,2.351,0,0,1-.212-.71,2.561,2.561,0,0,1-2,.857,2.814,2.814,0,0,1-1.93-.674,2.167,2.167,0,0,1-.765-1.7,2.24,2.24,0,0,1,.934-1.934,4.608,4.608,0,0,1,2.7-.681h.974V-5.3a1.306,1.306,0,0,0-.282-.879,1.109,1.109,0,0,0-.89-.33,1.261,1.261,0,0,0-.839.256.871.871,0,0,0-.3.7H29.751a2.126,2.126,0,0,1,.425-1.274,2.808,2.808,0,0,1,1.2-.919,4.378,4.378,0,0,1,1.743-.333,3.459,3.459,0,0,1,2.325.736,2.575,2.575,0,0,1,.861,2.069v3.435a3.789,3.789,0,0,0,.315,1.707V0Zm-1.75-1.472a1.823,1.823,0,0,0,.864-.209,1.371,1.371,0,0,0,.586-.56V-3.6h-.791Q31.8-3.6,31.7-2.5l-.007.125a.847.847,0,0,0,.278.652A1.081,1.081,0,0,0,32.732-1.472ZM39.88-7.925l.066.916a2.767,2.767,0,0,1,2.278-1.062,2.3,2.3,0,0,1,1.875.74,3.451,3.451,0,0,1,.63,2.212V0H42.612V-5.08a1.379,1.379,0,0,0-.293-.98,1.31,1.31,0,0,0-.974-.3A1.456,1.456,0,0,0,40-5.6V0H37.888V-7.925Zm4.2-3.23A2.05,2.05,0,0,1,43.6-9.767a1.5,1.5,0,0,1-1.179.56,1.789,1.789,0,0,1-.494-.062,3.317,3.317,0,0,1-.6-.267,3.22,3.22,0,0,0-.549-.253,1.343,1.343,0,0,0-.366-.048.587.587,0,0,0-.436.183.712.712,0,0,0-.179.52l-1.23-.073a2.081,2.081,0,0,1,.48-1.384,1.48,1.48,0,0,1,1.176-.571,1.513,1.513,0,0,1,.414.055,4.557,4.557,0,0,1,.634.267,4.118,4.118,0,0,0,.608.256,1.387,1.387,0,0,0,.352.044.618.618,0,0,0,.443-.179.683.683,0,0,0,.187-.516ZM46-4.036a4.7,4.7,0,0,1,.454-2.1,3.324,3.324,0,0,1,1.307-1.428,3.814,3.814,0,0,1,1.981-.505,3.609,3.609,0,0,1,2.618.981A3.939,3.939,0,0,1,53.5-4.424l.015.542A4.142,4.142,0,0,1,52.493-.956a3.539,3.539,0,0,1-2.732,1.1,3.556,3.556,0,0,1-2.736-1.1A4.215,4.215,0,0,1,46-3.94Zm2.117.15a2.962,2.962,0,0,0,.425,1.727,1.4,1.4,0,0,0,1.216.6,1.4,1.4,0,0,0,1.2-.591,3.241,3.241,0,0,0,.432-1.889,2.933,2.933,0,0,0-.432-1.716,1.4,1.4,0,0,0-1.216-.609,1.382,1.382,0,0,0-1.2.605A3.3,3.3,0,0,0,48.12-3.885Zm10.1-.136a4.776,4.776,0,0,1,.831-2.952,2.7,2.7,0,0,1,2.274-1.1,2.427,2.427,0,0,1,1.912.864V-11.25h2.124V0H63.45l-.1-.842a2.491,2.491,0,0,1-2.036.989,2.69,2.69,0,0,1-2.245-1.1A4.93,4.93,0,0,1,58.22-4.021Zm2.117.151a3.146,3.146,0,0,0,.388,1.714,1.263,1.263,0,0,0,1.128.6,1.416,1.416,0,0,0,1.384-.831V-5.533a1.4,1.4,0,0,0-1.37-.831Q60.337-6.365,60.337-3.87ZM70.649.146A3.89,3.89,0,0,1,67.811-.923a3.8,3.8,0,0,1-1.095-2.849v-.205a4.787,4.787,0,0,1,.461-2.135,3.386,3.386,0,0,1,1.307-1.45,3.669,3.669,0,0,1,1.93-.509,3.289,3.289,0,0,1,2.56,1.025,4.167,4.167,0,0,1,.934,2.908v.864H68.862a1.966,1.966,0,0,0,.619,1.245,1.871,1.871,0,0,0,1.307.469A2.285,2.285,0,0,0,72.7-2.446l1.04,1.165A3.178,3.178,0,0,1,72.451-.231,4.229,4.229,0,0,1,70.649.146Zm-.242-6.511a1.323,1.323,0,0,0-1.022.427,2.209,2.209,0,0,0-.5,1.221h2.944v-.169a1.576,1.576,0,0,0-.381-1.092A1.365,1.365,0,0,0,70.408-6.365ZM81.079,0H78.955V-11.25h2.124Zm6.335,0A2.351,2.351,0,0,1,87.2-.71a2.561,2.561,0,0,1-2,.857,2.814,2.814,0,0,1-1.93-.674,2.167,2.167,0,0,1-.765-1.7,2.24,2.24,0,0,1,.934-1.934,4.608,4.608,0,0,1,2.7-.681h.974V-5.3a1.306,1.306,0,0,0-.282-.879,1.109,1.109,0,0,0-.89-.33,1.261,1.261,0,0,0-.839.256.871.871,0,0,0-.3.7H82.683a2.126,2.126,0,0,1,.425-1.274,2.808,2.808,0,0,1,1.2-.919,4.378,4.378,0,0,1,1.743-.333,3.459,3.459,0,0,1,2.325.736,2.575,2.575,0,0,1,.861,2.069v3.435a3.789,3.789,0,0,0,.315,1.707V0Zm-1.75-1.472a1.823,1.823,0,0,0,.864-.209,1.371,1.371,0,0,0,.586-.56V-3.6h-.791q-1.589,0-1.692,1.1l-.007.125a.847.847,0,0,0,.278.652A1.081,1.081,0,0,0,85.664-1.472ZM98.247.146A3.89,3.89,0,0,1,95.409-.923a3.8,3.8,0,0,1-1.095-2.849v-.205a4.787,4.787,0,0,1,.461-2.135,3.386,3.386,0,0,1,1.307-1.45,3.669,3.669,0,0,1,1.93-.509,3.289,3.289,0,0,1,2.56,1.025,4.167,4.167,0,0,1,.934,2.908v.864H96.46a1.966,1.966,0,0,0,.619,1.245,1.871,1.871,0,0,0,1.307.469,2.285,2.285,0,0,0,1.912-.886l1.04,1.165a3.178,3.178,0,0,1-1.289,1.051A4.229,4.229,0,0,1,98.247.146Zm-.242-6.511a1.323,1.323,0,0,0-1.022.427,2.209,2.209,0,0,0-.5,1.221h2.944v-.169a1.576,1.576,0,0,0-.381-1.092A1.365,1.365,0,0,0,98.005-6.365Zm6.687-1.56.066.886a2.785,2.785,0,0,1,2.278-1.033,2.114,2.114,0,0,1,2.1,1.208,2.721,2.721,0,0,1,2.38-1.208,2.364,2.364,0,0,1,1.919.751,3.451,3.451,0,0,1,.63,2.26V0h-2.124V-5.065a1.515,1.515,0,0,0-.264-.987,1.167,1.167,0,0,0-.93-.312,1.321,1.321,0,0,0-1.318.91L109.438,0h-2.117V-5.058a1.5,1.5,0,0,0-.271-1,1.178,1.178,0,0,0-.923-.308,1.371,1.371,0,0,0-1.3.749V0h-2.117V-7.925Zm18.135,4.036A4.753,4.753,0,0,1,122-.956a2.665,2.665,0,0,1-2.245,1.1,2.469,2.469,0,0,1-1.941-.835V3.047h-2.117V-7.925h1.963l.073.776a2.488,2.488,0,0,1,2.007-.923,2.683,2.683,0,0,1,2.278,1.084A4.882,4.882,0,0,1,122.827-4Zm-2.117-.161a3.136,3.136,0,0,0-.392-1.712,1.275,1.275,0,0,0-1.139-.6,1.385,1.385,0,0,0-1.37.764v3.255a1.409,1.409,0,0,0,1.384.786Q120.71-1.56,120.71-4.051Zm7.881-1.889A5.751,5.751,0,0,0,127.83-6a1.55,1.55,0,0,0-1.575.813V0h-2.117V-7.925h2l.059.945a1.961,1.961,0,0,1,1.765-1.091,2.218,2.218,0,0,1,.659.1ZM133.118.146A3.89,3.89,0,0,1,130.28-.923a3.8,3.8,0,0,1-1.095-2.849v-.205a4.787,4.787,0,0,1,.461-2.135,3.386,3.386,0,0,1,1.307-1.45,3.669,3.669,0,0,1,1.93-.509,3.289,3.289,0,0,1,2.56,1.025,4.167,4.167,0,0,1,.934,2.908v.864h-5.046a1.966,1.966,0,0,0,.619,1.245,1.871,1.871,0,0,0,1.307.469,2.285,2.285,0,0,0,1.912-.886l1.04,1.165a3.178,3.178,0,0,1-1.289,1.051A4.229,4.229,0,0,1,133.118.146Zm-.242-6.511a1.323,1.323,0,0,0-1.022.427,2.209,2.209,0,0,0-.5,1.221H134.3v-.169a1.576,1.576,0,0,0-.381-1.092A1.365,1.365,0,0,0,132.876-6.365ZM141.87-2.19a.682.682,0,0,0-.385-.612,4.368,4.368,0,0,0-1.234-.4q-2.827-.593-2.827-2.4a2.178,2.178,0,0,1,.875-1.761,3.531,3.531,0,0,1,2.289-.707,3.8,3.8,0,0,1,2.413.71,2.239,2.239,0,0,1,.9,1.846H141.79a1.024,1.024,0,0,0-.293-.751,1.24,1.24,0,0,0-.916-.3,1.267,1.267,0,0,0-.828.242.763.763,0,0,0-.293.615.652.652,0,0,0,.333.568,3.428,3.428,0,0,0,1.124.374,9.183,9.183,0,0,1,1.333.355,2.19,2.19,0,0,1,1.677,2.131A2.067,2.067,0,0,1,143-.524a4.013,4.013,0,0,1-2.4.67,4.191,4.191,0,0,1-1.769-.355,2.968,2.968,0,0,1-1.212-.974,2.263,2.263,0,0,1-.439-1.337h2.007a1.105,1.105,0,0,0,.417.864,1.656,1.656,0,0,0,1.04.3,1.533,1.533,0,0,0,.919-.231A.718.718,0,0,0,141.87-2.19ZM149.883,0a2.351,2.351,0,0,1-.212-.71,2.561,2.561,0,0,1-2,.857,2.814,2.814,0,0,1-1.93-.674,2.167,2.167,0,0,1-.765-1.7,2.24,2.24,0,0,1,.934-1.934,4.608,4.608,0,0,1,2.7-.681h.974V-5.3a1.306,1.306,0,0,0-.282-.879,1.109,1.109,0,0,0-.89-.33,1.261,1.261,0,0,0-.839.256.871.871,0,0,0-.3.7h-2.117a2.126,2.126,0,0,1,.425-1.274,2.808,2.808,0,0,1,1.2-.919,4.378,4.378,0,0,1,1.743-.333,3.459,3.459,0,0,1,2.325.736,2.575,2.575,0,0,1,.861,2.069v3.435a3.789,3.789,0,0,0,.315,1.707V0Zm-1.75-1.472A1.823,1.823,0,0,0,149-1.681a1.371,1.371,0,0,0,.586-.56V-3.6h-.791q-1.589,0-1.692,1.1l-.007.125a.847.847,0,0,0,.278.652A1.081,1.081,0,0,0,148.132-1.472Z" transform="translate(285 1825.209)" fill="#14263e"/>
    <rect id="Rectángulo_40621-10" data-name="Rectángulo 40621" width="190" height="50" rx="4.588" transform="translate(1145 1795.413)" fill="#d1d5fc" stroke="#3e4bbf" stroke-width="1.835"/>
    <path id="Trazado_206361" data-name="Trazado 206361" d="M3.823-10.664,6.563-2.93l2.725-7.734h2.886V0h-2.2V-2.915l.22-5.032L7.31,0H5.8L2.93-7.939l.22,5.024V0H.952V-10.664ZM17.6.146A3.89,3.89,0,0,1,14.762-.923a3.8,3.8,0,0,1-1.095-2.849v-.205a4.787,4.787,0,0,1,.461-2.135,3.386,3.386,0,0,1,1.307-1.45,3.669,3.669,0,0,1,1.93-.509,3.289,3.289,0,0,1,2.56,1.025,4.167,4.167,0,0,1,.934,2.908v.864H15.813a1.966,1.966,0,0,0,.619,1.245,1.871,1.871,0,0,0,1.307.469,2.285,2.285,0,0,0,1.912-.886l1.04,1.165A3.178,3.178,0,0,1,19.4-.231,4.229,4.229,0,0,1,17.6.146Zm-.242-6.511a1.323,1.323,0,0,0-1.022.427,2.209,2.209,0,0,0-.5,1.221h2.944v-.169A1.576,1.576,0,0,0,18.4-5.979,1.365,1.365,0,0,0,17.358-6.365Zm4.373,2.344a4.776,4.776,0,0,1,.831-2.952,2.7,2.7,0,0,1,2.274-1.1,2.427,2.427,0,0,1,1.912.864V-11.25h2.124V0H26.96l-.1-.842a2.491,2.491,0,0,1-2.036.989,2.69,2.69,0,0,1-2.245-1.1A4.93,4.93,0,0,1,21.731-4.021Zm2.117.151a3.146,3.146,0,0,0,.388,1.714,1.263,1.263,0,0,0,1.128.6,1.416,1.416,0,0,0,1.384-.831V-5.533a1.4,1.4,0,0,0-1.37-.831Q23.848-6.365,23.848-3.87ZM32.747,0H30.623V-7.925h2.124ZM30.5-9.976a1.042,1.042,0,0,1,.319-.784,1.2,1.2,0,0,1,.868-.308,1.2,1.2,0,0,1,.864.308,1.036,1.036,0,0,1,.322.784,1.039,1.039,0,0,1-.326.791,1.2,1.2,0,0,1-.861.308,1.2,1.2,0,0,1-.861-.308A1.039,1.039,0,0,1,30.5-9.976Zm3.662,5.94a4.7,4.7,0,0,1,.454-2.1,3.324,3.324,0,0,1,1.307-1.428A3.814,3.814,0,0,1,37.9-8.071a3.609,3.609,0,0,1,2.618.981,3.939,3.939,0,0,1,1.132,2.666l.015.542A4.142,4.142,0,0,1,40.649-.956a3.539,3.539,0,0,1-2.732,1.1,3.556,3.556,0,0,1-2.736-1.1A4.215,4.215,0,0,1,34.16-3.94Zm2.117.15A2.962,2.962,0,0,0,36.7-2.158a1.4,1.4,0,0,0,1.216.6,1.4,1.4,0,0,0,1.2-.591,3.241,3.241,0,0,0,.432-1.889,2.933,2.933,0,0,0-.432-1.716A1.4,1.4,0,0,0,37.9-6.365a1.382,1.382,0,0,0-1.2.605A3.3,3.3,0,0,0,36.277-3.885ZM51.3,0a2.351,2.351,0,0,1-.212-.71,2.561,2.561,0,0,1-2,.857,2.814,2.814,0,0,1-1.93-.674,2.167,2.167,0,0,1-.765-1.7,2.24,2.24,0,0,1,.934-1.934,4.608,4.608,0,0,1,2.7-.681H51V-5.3a1.306,1.306,0,0,0-.282-.879,1.109,1.109,0,0,0-.89-.33,1.261,1.261,0,0,0-.839.256.871.871,0,0,0-.3.7H46.567a2.126,2.126,0,0,1,.425-1.274,2.808,2.808,0,0,1,1.2-.919,4.378,4.378,0,0,1,1.743-.333,3.459,3.459,0,0,1,2.325.736,2.575,2.575,0,0,1,.861,2.069v3.435a3.789,3.789,0,0,0,.315,1.707V0Zm-1.75-1.472a1.823,1.823,0,0,0,.864-.209A1.371,1.371,0,0,0,51-2.241V-3.6h-.791q-1.589,0-1.692,1.1l-.007.125a.847.847,0,0,0,.278.652A1.081,1.081,0,0,0,49.548-1.472Zm7.185-6.453.066.886a2.785,2.785,0,0,1,2.278-1.033,2.114,2.114,0,0,1,2.1,1.208,2.721,2.721,0,0,1,2.38-1.208,2.364,2.364,0,0,1,1.919.751,3.451,3.451,0,0,1,.63,2.26V0H63.984V-5.065a1.515,1.515,0,0,0-.264-.987,1.167,1.167,0,0,0-.93-.312,1.321,1.321,0,0,0-1.318.91L61.479,0H59.363V-5.058a1.5,1.5,0,0,0-.271-1,1.178,1.178,0,0,0-.923-.308,1.371,1.371,0,0,0-1.3.749V0H54.749V-7.925ZM74.875-3.889a4.8,4.8,0,0,1-.813,2.97A2.693,2.693,0,0,1,71.792.146a2.474,2.474,0,0,1-2.058-.989l-.1.842h-1.9V-11.25h2.117v4.036a2.411,2.411,0,0,1,1.926-.857,2.715,2.715,0,0,1,2.274,1.066,4.806,4.806,0,0,1,.824,3Zm-2.117-.161a3.17,3.17,0,0,0-.381-1.76,1.287,1.287,0,0,0-1.135-.555,1.4,1.4,0,0,0-1.392.83V-2.4a1.415,1.415,0,0,0,1.406.837A1.307,1.307,0,0,0,72.6-2.574,5.245,5.245,0,0,0,72.759-4.051ZM78.413,0H76.289V-7.925h2.124ZM76.165-9.976a1.042,1.042,0,0,1,.319-.784,1.2,1.2,0,0,1,.868-.308,1.2,1.2,0,0,1,.864.308,1.036,1.036,0,0,1,.322.784,1.039,1.039,0,0,1-.326.791,1.2,1.2,0,0,1-.861.308,1.2,1.2,0,0,1-.861-.308A1.039,1.039,0,0,1,76.165-9.976ZM83.8.146A3.89,3.89,0,0,1,80.966-.923a3.8,3.8,0,0,1-1.095-2.849v-.205a4.787,4.787,0,0,1,.461-2.135,3.386,3.386,0,0,1,1.307-1.45,3.669,3.669,0,0,1,1.93-.509,3.289,3.289,0,0,1,2.56,1.025,4.167,4.167,0,0,1,.934,2.908v.864H82.017a1.966,1.966,0,0,0,.619,1.245,1.871,1.871,0,0,0,1.307.469,2.285,2.285,0,0,0,1.912-.886l1.04,1.165A3.178,3.178,0,0,1,85.605-.231,4.229,4.229,0,0,1,83.8.146Zm-.242-6.511a1.323,1.323,0,0,0-1.022.427,2.209,2.209,0,0,0-.5,1.221h2.944v-.169A1.576,1.576,0,0,0,84.6-5.979,1.365,1.365,0,0,0,83.562-6.365Zm6.65-1.56.066.916a2.767,2.767,0,0,1,2.278-1.062,2.3,2.3,0,0,1,1.875.74,3.451,3.451,0,0,1,.63,2.212V0H92.944V-5.08a1.379,1.379,0,0,0-.293-.98,1.31,1.31,0,0,0-.974-.3,1.456,1.456,0,0,0-1.34.763V0H88.22V-7.925ZM99.2-9.873v1.948h1.355v1.553H99.2v3.955a.944.944,0,0,0,.168.63.846.846,0,0,0,.645.19,3.376,3.376,0,0,0,.623-.051v1.6a4.358,4.358,0,0,1-1.282.19A2.021,2.021,0,0,1,97.083-2.1v-4.27H95.925V-7.925h1.157V-9.873ZM105.381.146a3.89,3.89,0,0,1-2.838-1.069,3.8,3.8,0,0,1-1.095-2.849v-.205a4.787,4.787,0,0,1,.461-2.135,3.386,3.386,0,0,1,1.307-1.45,3.669,3.669,0,0,1,1.93-.509,3.289,3.289,0,0,1,2.56,1.025,4.167,4.167,0,0,1,.934,2.908v.864h-5.046a1.966,1.966,0,0,0,.619,1.245,1.871,1.871,0,0,0,1.307.469,2.285,2.285,0,0,0,1.912-.886l1.04,1.165a3.178,3.178,0,0,1-1.289,1.051A4.229,4.229,0,0,1,105.381.146Zm-.242-6.511a1.323,1.323,0,0,0-1.022.427,2.209,2.209,0,0,0-.5,1.221h2.944v-.169a1.576,1.576,0,0,0-.381-1.092A1.365,1.365,0,0,0,105.139-6.365Z" transform="translate(1185.5 1825.209)" fill="#14263e"/>
    <line id="Línea_675" data-name="Línea 675" x1="34.453" transform="translate(485.047 1731.551)" fill="none" stroke="#3e4bbf" stroke-miterlimit="10" stroke-width="1.835"/>
    <line id="Línea_678" data-name="Línea 678" x2="34.453" transform="translate(1080.708 1731.551)" fill="none" stroke="#3e4bbf" stroke-miterlimit="10" stroke-width="1.835"/>
    <line id="Línea_676" data-name="Línea 676" y1="357" transform="translate(485.047 1553.5)" fill="none" stroke="#3e4bbf" stroke-miterlimit="10" stroke-width="1.835"/>
    <line id="Línea_677" data-name="Línea 677" y1="357" transform="translate(1115.161 1553.5)" fill="none" stroke="#3e4bbf" stroke-miterlimit="10" stroke-width="1.835"/>
    <g id="Grupo_150544" data-name="Grupo 150544" transform="translate(461.943 1548.037)">
      <path id="Trazado_204539" data-name="Trazado 204539" d="M18.418,0H0" transform="translate(5.6 5.925)" fill="none" stroke="#3e4bbf" stroke-width="1.835"/>
      <path id="Trazado_158597" data-name="Trazado 158597" d="M133.3,21.553V33.4l-5.925-5.925Z" transform="translate(-127.379 -21.553)" fill="#3d46c2"/>
    </g>
    <g id="Grupo_150549" data-name="Grupo 150549" transform="translate(1114.246 1548.037)">
      <path id="Trazado_204539-2" data-name="Trazado 204539" d="M0,0H18.418" transform="translate(0 5.925)" fill="none" stroke="#3e4bbf" stroke-width="1.835"/>
      <path id="Trazado_158597-2" data-name="Trazado 158597" d="M127.379,21.553V33.4l5.925-5.925Z" transform="translate(-109.286 -21.553)" fill="#3d46c2"/>
    </g>
    <g id="Grupo_150545" data-name="Grupo 150545" transform="translate(461.943 1634.631)">
      <path id="Trazado_204539-3" data-name="Trazado 204539" d="M18.418,0H0" transform="translate(5.6 5.925)" fill="none" stroke="#3e4bbf" stroke-width="1.835"/>
      <path id="Trazado_158597-3" data-name="Trazado 158597" d="M133.3,21.553V33.4l-5.925-5.925Z" transform="translate(-127.379 -21.553)" fill="#3d46c2"/>
    </g>
    <g id="Grupo_150550" data-name="Grupo 150550" transform="translate(1114.246 1634.631)">
      <path id="Trazado_204539-4" data-name="Trazado 204539" d="M0,0H18.418" transform="translate(0 5.925)" fill="none" stroke="#3e4bbf" stroke-width="1.835"/>
      <path id="Trazado_158597-4" data-name="Trazado 158597" d="M127.379,21.553V33.4l5.925-5.925Z" transform="translate(-109.286 -21.553)" fill="#3d46c2"/>
    </g>
    <g id="Grupo_150546" data-name="Grupo 150546" transform="translate(461.943 1725.625)">
      <path id="Trazado_204539-5" data-name="Trazado 204539" d="M18.418,0H0" transform="translate(5.6 5.925)" fill="none" stroke="#3e4bbf" stroke-width="1.835"/>
      <path id="Trazado_158597-5" data-name="Trazado 158597" d="M133.3,21.553V33.4l-5.925-5.925Z" transform="translate(-127.379 -21.553)" fill="#3d46c2"/>
    </g>
    <g id="Grupo_150551" data-name="Grupo 150551" transform="translate(1114.246 1725.625)">
      <path id="Trazado_204539-6" data-name="Trazado 204539" d="M0,0H18.418" transform="translate(0 5.926)" fill="none" stroke="#3e4bbf" stroke-width="1.835"/>
      <path id="Trazado_158597-6" data-name="Trazado 158597" d="M127.379,21.553V33.4l5.925-5.925Z" transform="translate(-109.286 -21.552)" fill="#3d46c2"/>
    </g>
    <g id="Grupo_150547" data-name="Grupo 150547" transform="translate(461.943 1814.488)">
      <path id="Trazado_204539-7" data-name="Trazado 204539" d="M18.418,0H0" transform="translate(5.6 5.925)" fill="none" stroke="#3e4bbf" stroke-width="1.835"/>
      <path id="Trazado_158597-7" data-name="Trazado 158597" d="M133.3,21.553V33.4l-5.925-5.925Z" transform="translate(-127.379 -21.553)" fill="#3d46c2"/>
    </g>
    <g id="Grupo_150552" data-name="Grupo 150552" transform="translate(1114.246 1814.488)">
      <path id="Trazado_204539-8" data-name="Trazado 204539" d="M0,0H18.418" transform="translate(0 5.925)" fill="none" stroke="#3e4bbf" stroke-width="1.835"/>
      <path id="Trazado_158597-8" data-name="Trazado 158597" d="M127.379,21.553V33.4l5.925-5.925Z" transform="translate(-109.286 -21.553)" fill="#3d46c2"/>
    </g>
    <g id="Grupo_150548" data-name="Grupo 150548" transform="translate(461.943 1904.109)">
      <path id="Trazado_204539-9" data-name="Trazado 204539" d="M18.418,0H0" transform="translate(5.6 5.925)" fill="none" stroke="#3e4bbf" stroke-width="1.835"/>
      <path id="Trazado_158597-9" data-name="Trazado 158597" d="M133.3,21.553V33.4l-5.925-5.925Z" transform="translate(-127.379 -21.553)" fill="#3d46c2"/>
    </g>
    <g id="Grupo_150553" data-name="Grupo 150553" transform="translate(1114.246 1904.109)">
      <path id="Trazado_204539-10" data-name="Trazado 204539" d="M0,0H18.418" transform="translate(0 5.926)" fill="none" stroke="#3e4bbf" stroke-width="1.835"/>
      <path id="Trazado_158597-10" data-name="Trazado 158597" d="M127.379,21.553V33.4l5.925-5.925Z" transform="translate(-109.286 -21.552)" fill="#3d46c2"/>
    </g>
    <rect id="Rectángulo_40599" data-name="Rectángulo 40599" width="189.415" height="50" rx="6.469" transform="translate(515.585 1707.5)" fill="#bae887" stroke="#77b43a" stroke-width="1.835"/>
    <path id="Trazado_206365" data-name="Trazado 206365" d="M7.438-2.344H3.328L2.547,0H.055L4.289-11.375H6.461L10.719,0H8.227Zm-3.477-1.9H6.8L5.375-8.5Zm9.375-4.211.07.977a2.951,2.951,0,0,1,2.43-1.133,2.453,2.453,0,0,1,2,.789,3.682,3.682,0,0,1,.672,2.359V0H16.25V-5.419a1.47,1.47,0,0,0-.312-1.045A1.4,1.4,0,0,0,14.9-6.789a1.553,1.553,0,0,0-1.43.814V0H11.211V-8.453ZM25.117,0a2.507,2.507,0,0,1-.227-.758,2.732,2.732,0,0,1-2.133.914A3,3,0,0,1,20.7-.562a2.312,2.312,0,0,1-.816-1.812,2.389,2.389,0,0,1,1-2.062,4.915,4.915,0,0,1,2.879-.727H24.8v-.484a1.393,1.393,0,0,0-.3-.937,1.183,1.183,0,0,0-.949-.352,1.345,1.345,0,0,0-.895.273.929.929,0,0,0-.324.75H20.07a2.268,2.268,0,0,1,.453-1.359,3,3,0,0,1,1.281-.98,4.669,4.669,0,0,1,1.859-.355,3.689,3.689,0,0,1,2.48.785,2.747,2.747,0,0,1,.918,2.207v3.664A4.041,4.041,0,0,0,27.4-.133V0ZM23.25-1.57a1.945,1.945,0,0,0,.922-.223,1.462,1.462,0,0,0,.625-.6V-3.844h-.844q-1.7,0-1.8,1.172l-.008.133a.9.9,0,0,0,.3.7A1.153,1.153,0,0,0,23.25-1.57ZM24.109-12H26.57L24.406-9.578H22.57ZM31.18,0H28.914V-12H31.18Zm4.242,0H33.156V-8.453h2.266Zm-2.4-10.641a1.112,1.112,0,0,1,.34-.836,1.277,1.277,0,0,1,.926-.328,1.28,1.28,0,0,1,.922.328,1.105,1.105,0,0,1,.344.836,1.108,1.108,0,0,1-.348.844,1.283,1.283,0,0,1-.918.328,1.283,1.283,0,0,1-.918-.328A1.108,1.108,0,0,1,33.023-10.641Zm8.836,8.3a.727.727,0,0,0-.41-.652,4.659,4.659,0,0,0-1.316-.426q-3.016-.633-3.016-2.562a2.323,2.323,0,0,1,.934-1.879,3.766,3.766,0,0,1,2.441-.754,4.053,4.053,0,0,1,2.574.758,2.388,2.388,0,0,1,.965,1.969H41.773a1.092,1.092,0,0,0-.312-.8A1.322,1.322,0,0,0,40.484-7a1.351,1.351,0,0,0-.883.258.814.814,0,0,0-.312.656.7.7,0,0,0,.355.605,3.657,3.657,0,0,0,1.2.4,9.8,9.8,0,0,1,1.422.379A2.336,2.336,0,0,1,44.055-2.43a2.2,2.2,0,0,1-.992,1.871A4.28,4.28,0,0,1,40.5.156a4.47,4.47,0,0,1-1.887-.379A3.166,3.166,0,0,1,37.32-1.262a2.414,2.414,0,0,1-.469-1.426h2.141a1.179,1.179,0,0,0,.445.922,1.766,1.766,0,0,0,1.109.32,1.635,1.635,0,0,0,.98-.246A.766.766,0,0,0,41.859-2.336ZM47.891,0H45.625V-8.453h2.266Zm-2.4-10.641a1.112,1.112,0,0,1,.34-.836,1.277,1.277,0,0,1,.926-.328,1.28,1.28,0,0,1,.922.328,1.105,1.105,0,0,1,.344.836,1.108,1.108,0,0,1-.348.844,1.283,1.283,0,0,1-.918.328A1.283,1.283,0,0,1,45.84-9.8,1.108,1.108,0,0,1,45.492-10.641Zm8.836,8.3a.727.727,0,0,0-.41-.652A4.659,4.659,0,0,0,52.6-3.414q-3.016-.633-3.016-2.562a2.323,2.323,0,0,1,.934-1.879,3.766,3.766,0,0,1,2.441-.754,4.053,4.053,0,0,1,2.574.758A2.388,2.388,0,0,1,56.5-5.883H54.242a1.092,1.092,0,0,0-.312-.8A1.322,1.322,0,0,0,52.953-7a1.351,1.351,0,0,0-.883.258.814.814,0,0,0-.312.656.7.7,0,0,0,.355.605,3.657,3.657,0,0,0,1.2.4,9.8,9.8,0,0,1,1.422.379A2.336,2.336,0,0,1,56.523-2.43a2.2,2.2,0,0,1-.992,1.871,4.28,4.28,0,0,1-2.562.715,4.47,4.47,0,0,1-1.887-.379,3.166,3.166,0,0,1-1.293-1.039,2.414,2.414,0,0,1-.469-1.426h2.141a1.179,1.179,0,0,0,.445.922,1.766,1.766,0,0,0,1.109.32A1.635,1.635,0,0,0,54-1.691.766.766,0,0,0,54.328-2.336ZM64.344,0H62.078V-8.453h2.266Zm-2.4-10.641a1.112,1.112,0,0,1,.34-.836,1.277,1.277,0,0,1,.926-.328,1.28,1.28,0,0,1,.922.328,1.105,1.105,0,0,1,.344.836,1.108,1.108,0,0,1-.348.844,1.283,1.283,0,0,1-.918.328,1.283,1.283,0,0,1-.918-.328A1.108,1.108,0,0,1,61.945-10.641Zm6.336,2.188.07.977a2.951,2.951,0,0,1,2.43-1.133,2.453,2.453,0,0,1,2,.789,3.682,3.682,0,0,1,.672,2.359V0H71.2V-5.419a1.47,1.47,0,0,0-.312-1.045,1.4,1.4,0,0,0-1.039-.325,1.553,1.553,0,0,0-1.43.814V0H66.156V-8.453Zm9.586-2.078v2.078h1.445V-6.8H77.867v4.219a1.007,1.007,0,0,0,.18.672.9.9,0,0,0,.688.2,3.6,3.6,0,0,0,.664-.055V-.047a4.648,4.648,0,0,1-1.367.2,2.156,2.156,0,0,1-2.422-2.4V-6.8H74.375V-8.453h1.234v-2.078ZM84.461.156A4.15,4.15,0,0,1,81.434-.984a4.054,4.054,0,0,1-1.168-3.039v-.219a5.106,5.106,0,0,1,.492-2.277,3.612,3.612,0,0,1,1.395-1.547,3.914,3.914,0,0,1,2.059-.543,3.508,3.508,0,0,1,2.73,1.094,4.444,4.444,0,0,1,1,3.1v.922H82.555a2.1,2.1,0,0,0,.66,1.328,2,2,0,0,0,1.395.5,2.437,2.437,0,0,0,2.039-.945l1.109,1.242A3.389,3.389,0,0,1,86.383-.246,4.511,4.511,0,0,1,84.461.156ZM84.2-6.789a1.411,1.411,0,0,0-1.09.455,2.357,2.357,0,0,0-.535,1.3h3.141v-.181a1.681,1.681,0,0,0-.406-1.165A1.456,1.456,0,0,0,84.2-6.789Zm9.766.453a6.134,6.134,0,0,0-.812-.062,1.654,1.654,0,0,0-1.68.867V0H89.219V-8.453h2.133l.063,1.008A2.092,2.092,0,0,1,93.3-8.609a2.366,2.366,0,0,1,.7.1Zm3.164-2.117.07.977a2.951,2.951,0,0,1,2.43-1.133,2.453,2.453,0,0,1,2,.789,3.682,3.682,0,0,1,.672,2.359V0h-2.258V-5.419a1.47,1.47,0,0,0-.312-1.045A1.4,1.4,0,0,0,98.7-6.789a1.553,1.553,0,0,0-1.43.814V0H95.008V-8.453ZM103.664-4.3a5.013,5.013,0,0,1,.484-2.242,3.546,3.546,0,0,1,1.395-1.523,4.069,4.069,0,0,1,2.113-.539,3.849,3.849,0,0,1,2.793,1.047,4.2,4.2,0,0,1,1.207,2.844l.016.578a4.418,4.418,0,0,1-1.086,3.121A3.775,3.775,0,0,1,107.672.156a3.793,3.793,0,0,1-2.918-1.172,4.5,4.5,0,0,1-1.09-3.187Zm2.258.16a3.16,3.16,0,0,0,.453,1.843,1.5,1.5,0,0,0,1.3.638,1.5,1.5,0,0,0,1.281-.63,3.457,3.457,0,0,0,.461-2.015,3.128,3.128,0,0,0-.461-1.831,1.5,1.5,0,0,0-1.3-.649,1.474,1.474,0,0,0-1.281.646A3.516,3.516,0,0,0,105.922-4.144Z" transform="translate(554.292 1738)" fill="#14263e"/>
    <rect id="Rectángulo_40599-2" data-name="Rectángulo 40599" width="189.415" height="50" rx="6.469" transform="translate(895 1707.5)" fill="#bae887" stroke="#77b43a" stroke-width="1.835"/>
    <path id="Trazado_206363" data-name="Trazado 206363" d="M7.438-2.344H3.328L2.547,0H.055L4.289-11.375H6.461L10.719,0H8.227Zm-3.477-1.9H6.8L5.375-8.5Zm9.375-4.211.07.977a2.951,2.951,0,0,1,2.43-1.133,2.453,2.453,0,0,1,2,.789,3.682,3.682,0,0,1,.672,2.359V0H16.25V-5.419a1.47,1.47,0,0,0-.312-1.045A1.4,1.4,0,0,0,14.9-6.789a1.553,1.553,0,0,0-1.43.814V0H11.211V-8.453ZM25.117,0a2.507,2.507,0,0,1-.227-.758,2.732,2.732,0,0,1-2.133.914A3,3,0,0,1,20.7-.562a2.312,2.312,0,0,1-.816-1.812,2.389,2.389,0,0,1,1-2.062,4.915,4.915,0,0,1,2.879-.727H24.8v-.484a1.393,1.393,0,0,0-.3-.937,1.183,1.183,0,0,0-.949-.352,1.345,1.345,0,0,0-.895.273.929.929,0,0,0-.324.75H20.07a2.268,2.268,0,0,1,.453-1.359,3,3,0,0,1,1.281-.98,4.669,4.669,0,0,1,1.859-.355,3.689,3.689,0,0,1,2.48.785,2.747,2.747,0,0,1,.918,2.207v3.664A4.041,4.041,0,0,0,27.4-.133V0ZM23.25-1.57a1.945,1.945,0,0,0,.922-.223,1.462,1.462,0,0,0,.625-.6V-3.844h-.844q-1.7,0-1.8,1.172l-.008.133a.9.9,0,0,0,.3.7A1.153,1.153,0,0,0,23.25-1.57ZM24.109-12H26.57L24.406-9.578H22.57ZM31.18,0H28.914V-12H31.18Zm4.242,0H33.156V-8.453h2.266Zm-2.4-10.641a1.112,1.112,0,0,1,.34-.836,1.277,1.277,0,0,1,.926-.328,1.28,1.28,0,0,1,.922.328,1.105,1.105,0,0,1,.344.836,1.108,1.108,0,0,1-.348.844,1.283,1.283,0,0,1-.918.328,1.283,1.283,0,0,1-.918-.328A1.108,1.108,0,0,1,33.023-10.641Zm8.836,8.3a.727.727,0,0,0-.41-.652,4.659,4.659,0,0,0-1.316-.426q-3.016-.633-3.016-2.562a2.323,2.323,0,0,1,.934-1.879,3.766,3.766,0,0,1,2.441-.754,4.053,4.053,0,0,1,2.574.758,2.388,2.388,0,0,1,.965,1.969H41.773a1.092,1.092,0,0,0-.312-.8A1.322,1.322,0,0,0,40.484-7a1.351,1.351,0,0,0-.883.258.814.814,0,0,0-.312.656.7.7,0,0,0,.355.605,3.657,3.657,0,0,0,1.2.4,9.8,9.8,0,0,1,1.422.379A2.336,2.336,0,0,1,44.055-2.43a2.2,2.2,0,0,1-.992,1.871A4.28,4.28,0,0,1,40.5.156a4.47,4.47,0,0,1-1.887-.379A3.166,3.166,0,0,1,37.32-1.262a2.414,2.414,0,0,1-.469-1.426h2.141a1.179,1.179,0,0,0,.445.922,1.766,1.766,0,0,0,1.109.32,1.635,1.635,0,0,0,.98-.246A.766.766,0,0,0,41.859-2.336ZM47.891,0H45.625V-8.453h2.266Zm-2.4-10.641a1.112,1.112,0,0,1,.34-.836,1.277,1.277,0,0,1,.926-.328,1.28,1.28,0,0,1,.922.328,1.105,1.105,0,0,1,.344.836,1.108,1.108,0,0,1-.348.844,1.283,1.283,0,0,1-.918.328A1.283,1.283,0,0,1,45.84-9.8,1.108,1.108,0,0,1,45.492-10.641Zm8.836,8.3a.727.727,0,0,0-.41-.652A4.659,4.659,0,0,0,52.6-3.414q-3.016-.633-3.016-2.562a2.323,2.323,0,0,1,.934-1.879,3.766,3.766,0,0,1,2.441-.754,4.053,4.053,0,0,1,2.574.758A2.388,2.388,0,0,1,56.5-5.883H54.242a1.092,1.092,0,0,0-.312-.8A1.322,1.322,0,0,0,52.953-7a1.351,1.351,0,0,0-.883.258.814.814,0,0,0-.312.656.7.7,0,0,0,.355.605,3.657,3.657,0,0,0,1.2.4,9.8,9.8,0,0,1,1.422.379A2.336,2.336,0,0,1,56.523-2.43a2.2,2.2,0,0,1-.992,1.871,4.28,4.28,0,0,1-2.562.715,4.47,4.47,0,0,1-1.887-.379,3.166,3.166,0,0,1-1.293-1.039,2.414,2.414,0,0,1-.469-1.426h2.141a1.179,1.179,0,0,0,.445.922,1.766,1.766,0,0,0,1.109.32A1.635,1.635,0,0,0,54-1.691.766.766,0,0,0,54.328-2.336ZM65.852.156A4.15,4.15,0,0,1,62.824-.984a4.054,4.054,0,0,1-1.168-3.039v-.219a5.106,5.106,0,0,1,.492-2.277,3.612,3.612,0,0,1,1.395-1.547A3.914,3.914,0,0,1,65.6-8.609a3.508,3.508,0,0,1,2.73,1.094,4.444,4.444,0,0,1,1,3.1v.922H63.945a2.1,2.1,0,0,0,.66,1.328,2,2,0,0,0,1.395.5,2.437,2.437,0,0,0,2.039-.945l1.109,1.242A3.389,3.389,0,0,1,67.773-.246,4.511,4.511,0,0,1,65.852.156Zm-.258-6.945a1.411,1.411,0,0,0-1.09.455,2.357,2.357,0,0,0-.535,1.3h3.141v-.181A1.681,1.681,0,0,0,66.7-6.377,1.456,1.456,0,0,0,65.594-6.789Zm8.234.859L75.25-8.453h2.414L75.258-4.312,77.766,0H75.344L73.836-2.656,72.336,0h-2.43l2.508-4.312-2.4-4.141h2.422Zm7.625-4.6v2.078H82.9V-6.8H81.453v4.219a1.007,1.007,0,0,0,.18.672.9.9,0,0,0,.688.2,3.6,3.6,0,0,0,.664-.055V-.047a4.648,4.648,0,0,1-1.367.2,2.156,2.156,0,0,1-2.422-2.4V-6.8H77.961V-8.453H79.2v-2.078ZM88.047.156A4.15,4.15,0,0,1,85.02-.984a4.054,4.054,0,0,1-1.168-3.039v-.219a5.106,5.106,0,0,1,.492-2.277,3.612,3.612,0,0,1,1.395-1.547A3.914,3.914,0,0,1,87.8-8.609a3.508,3.508,0,0,1,2.73,1.094,4.444,4.444,0,0,1,1,3.1v.922H86.141a2.1,2.1,0,0,0,.66,1.328,2,2,0,0,0,1.395.5,2.437,2.437,0,0,0,2.039-.945l1.109,1.242A3.389,3.389,0,0,1,89.969-.246,4.511,4.511,0,0,1,88.047.156Zm-.258-6.945a1.411,1.411,0,0,0-1.09.455,2.357,2.357,0,0,0-.535,1.3H89.3v-.181A1.681,1.681,0,0,0,88.9-6.377,1.456,1.456,0,0,0,87.789-6.789Zm9.766.453a6.134,6.134,0,0,0-.812-.062,1.654,1.654,0,0,0-1.68.867V0H92.8V-8.453h2.133L95-7.445a2.092,2.092,0,0,1,1.883-1.164,2.366,2.366,0,0,1,.7.1Zm3.164-2.117.07.977a2.951,2.951,0,0,1,2.43-1.133,2.453,2.453,0,0,1,2,.789,3.682,3.682,0,0,1,.672,2.359V0h-2.258V-5.419a1.47,1.47,0,0,0-.312-1.045,1.4,1.4,0,0,0-1.039-.325,1.553,1.553,0,0,0-1.43.814V0H98.594V-8.453ZM107.25-4.3a5.013,5.013,0,0,1,.484-2.242,3.546,3.546,0,0,1,1.395-1.523,4.069,4.069,0,0,1,2.113-.539,3.849,3.849,0,0,1,2.793,1.047,4.2,4.2,0,0,1,1.207,2.844l.016.578a4.418,4.418,0,0,1-1.086,3.121A3.775,3.775,0,0,1,111.258.156a3.793,3.793,0,0,1-2.918-1.172A4.5,4.5,0,0,1,107.25-4.2Zm2.258.16a3.16,3.16,0,0,0,.453,1.843,1.5,1.5,0,0,0,1.3.638,1.5,1.5,0,0,0,1.281-.63A3.457,3.457,0,0,0,113-4.309a3.128,3.128,0,0,0-.461-1.831,1.5,1.5,0,0,0-1.3-.649,1.474,1.474,0,0,0-1.281.646A3.516,3.516,0,0,0,109.508-4.144Z" transform="translate(931.708 1738)" fill="#14263e"/>
    <path id="Trazado_204540" data-name="Trazado 204540" d="M-1.473,12.171,178.715-122.96" transform="translate(614.294 1688.054)" fill="none" stroke="#3e4bbf" stroke-width="1.835"/>
    <path id="Trazado_204542" data-name="Trazado 204542" d="M-1.473-122.96,178.715,12.171" transform="translate(614.294 1886.829)" fill="none" stroke="#3e4bbf" stroke-width="1.835"/>
    <path id="Trazado_204541" data-name="Trazado 204541" d="M178.715,12.171-1.473-122.96" transform="translate(807.473 1688.054)" fill="none" stroke="#3e4bbf" stroke-width="1.835"/>
    <path id="Trazado_204543" data-name="Trazado 204543" d="M178.715-122.96-1.473,12.17" transform="translate(807.473 1886.83)" fill="none" stroke="#3e4bbf" stroke-width="1.835"/>
    <path id="Trazado_158597-11" data-name="Trazado 158597" d="M570.3,251.052V262.9l-5.925-5.925Z" transform="matrix(0.766, -0.643, 0.643, 0.766, 11.467, 1868.879)" fill="#3d46c2"/>
    <path id="Trazado_158597-12" data-name="Trazado 158597" d="M5.925,11.851V0L0,5.925Z" transform="translate(612.794 1756.594) rotate(40)" fill="#3d46c2"/>
    <path id="Trazado_158597-13" data-name="Trazado 158597" d="M5.925,11.851V0L0,5.925Z" transform="translate(986.214 1707.5) rotate(-140)" fill="#3d46c2"/>
    <path id="Trazado_158597-14" data-name="Trazado 158597" d="M5.925,0V11.851L0,5.925Z" transform="translate(993.832 1765.672) rotate(140)" fill="#3d46c2"/>
    <rect id="Rectángulo_40599-3" data-name="Rectángulo 40599" width="189.415" height="50" rx="6.469" transform="translate(705.292 1516.5)" fill="#bae887" stroke="#77b43a" stroke-width="1.835"/>
    <rect id="Rectángulo_40599-4" data-name="Rectángulo 40599" width="189.415" height="50" rx="6.469" transform="translate(705.5 1898.5)" fill="#bae887" stroke="#77b43a" stroke-width="1.835"/>
    <path id="Trazado_206357" data-name="Trazado 206357" d="M7.438-2.344H3.328L2.547,0H.055L4.289-11.375H6.461L10.719,0H8.227Zm-3.477-1.9H6.8L5.375-8.5Zm9.375-4.211.07.977a2.951,2.951,0,0,1,2.43-1.133,2.453,2.453,0,0,1,2,.789,3.682,3.682,0,0,1,.672,2.359V0H16.25V-5.419a1.47,1.47,0,0,0-.312-1.045A1.4,1.4,0,0,0,14.9-6.789a1.553,1.553,0,0,0-1.43.814V0H11.211V-8.453ZM25.117,0a2.507,2.507,0,0,1-.227-.758,2.732,2.732,0,0,1-2.133.914A3,3,0,0,1,20.7-.562a2.312,2.312,0,0,1-.816-1.812,2.389,2.389,0,0,1,1-2.062,4.915,4.915,0,0,1,2.879-.727H24.8v-.484a1.393,1.393,0,0,0-.3-.937,1.183,1.183,0,0,0-.949-.352,1.345,1.345,0,0,0-.895.273.929.929,0,0,0-.324.75H20.07a2.268,2.268,0,0,1,.453-1.359,3,3,0,0,1,1.281-.98,4.669,4.669,0,0,1,1.859-.355,3.689,3.689,0,0,1,2.48.785,2.747,2.747,0,0,1,.918,2.207v3.664A4.041,4.041,0,0,0,27.4-.133V0ZM23.25-1.57a1.945,1.945,0,0,0,.922-.223,1.462,1.462,0,0,0,.625-.6V-3.844h-.844q-1.7,0-1.8,1.172l-.008.133a.9.9,0,0,0,.3.7A1.153,1.153,0,0,0,23.25-1.57ZM24.109-12H26.57L24.406-9.578H22.57ZM31.18,0H28.914V-12H31.18Zm4.242,0H33.156V-8.453h2.266Zm-2.4-10.641a1.112,1.112,0,0,1,.34-.836,1.277,1.277,0,0,1,.926-.328,1.28,1.28,0,0,1,.922.328,1.105,1.105,0,0,1,.344.836,1.108,1.108,0,0,1-.348.844,1.283,1.283,0,0,1-.918.328,1.283,1.283,0,0,1-.918-.328A1.108,1.108,0,0,1,33.023-10.641Zm8.836,8.3a.727.727,0,0,0-.41-.652,4.659,4.659,0,0,0-1.316-.426q-3.016-.633-3.016-2.562a2.323,2.323,0,0,1,.934-1.879,3.766,3.766,0,0,1,2.441-.754,4.053,4.053,0,0,1,2.574.758,2.388,2.388,0,0,1,.965,1.969H41.773a1.092,1.092,0,0,0-.312-.8A1.322,1.322,0,0,0,40.484-7a1.351,1.351,0,0,0-.883.258.814.814,0,0,0-.312.656.7.7,0,0,0,.355.605,3.657,3.657,0,0,0,1.2.4,9.8,9.8,0,0,1,1.422.379A2.336,2.336,0,0,1,44.055-2.43a2.2,2.2,0,0,1-.992,1.871A4.28,4.28,0,0,1,40.5.156a4.47,4.47,0,0,1-1.887-.379A3.166,3.166,0,0,1,37.32-1.262a2.414,2.414,0,0,1-.469-1.426h2.141a1.179,1.179,0,0,0,.445.922,1.766,1.766,0,0,0,1.109.32,1.635,1.635,0,0,0,.98-.246A.766.766,0,0,0,41.859-2.336ZM47.891,0H45.625V-8.453h2.266Zm-2.4-10.641a1.112,1.112,0,0,1,.34-.836,1.277,1.277,0,0,1,.926-.328,1.28,1.28,0,0,1,.922.328,1.105,1.105,0,0,1,.344.836,1.108,1.108,0,0,1-.348.844,1.283,1.283,0,0,1-.918.328A1.283,1.283,0,0,1,45.84-9.8,1.108,1.108,0,0,1,45.492-10.641Zm8.836,8.3a.727.727,0,0,0-.41-.652A4.659,4.659,0,0,0,52.6-3.414q-3.016-.633-3.016-2.562a2.323,2.323,0,0,1,.934-1.879,3.766,3.766,0,0,1,2.441-.754,4.053,4.053,0,0,1,2.574.758A2.388,2.388,0,0,1,56.5-5.883H54.242a1.092,1.092,0,0,0-.312-.8A1.322,1.322,0,0,0,52.953-7a1.351,1.351,0,0,0-.883.258.814.814,0,0,0-.312.656.7.7,0,0,0,.355.605,3.657,3.657,0,0,0,1.2.4,9.8,9.8,0,0,1,1.422.379A2.336,2.336,0,0,1,56.523-2.43a2.2,2.2,0,0,1-.992,1.871,4.28,4.28,0,0,1-2.562.715,4.47,4.47,0,0,1-1.887-.379,3.166,3.166,0,0,1-1.293-1.039,2.414,2.414,0,0,1-.469-1.426h2.141a1.179,1.179,0,0,0,.445.922,1.766,1.766,0,0,0,1.109.32A1.635,1.635,0,0,0,54-1.691.766.766,0,0,0,54.328-2.336ZM65.852.156A4.15,4.15,0,0,1,62.824-.984a4.054,4.054,0,0,1-1.168-3.039v-.219a5.106,5.106,0,0,1,.492-2.277,3.612,3.612,0,0,1,1.395-1.547A3.914,3.914,0,0,1,65.6-8.609a3.508,3.508,0,0,1,2.73,1.094,4.444,4.444,0,0,1,1,3.1v.922H63.945a2.1,2.1,0,0,0,.66,1.328,2,2,0,0,0,1.395.5,2.437,2.437,0,0,0,2.039-.945l1.109,1.242A3.389,3.389,0,0,1,67.773-.246,4.511,4.511,0,0,1,65.852.156Zm-.258-6.945a1.411,1.411,0,0,0-1.09.455,2.357,2.357,0,0,0-.535,1.3h3.141v-.181A1.681,1.681,0,0,0,66.7-6.377,1.456,1.456,0,0,0,65.594-6.789Zm9.594,4.453a.727.727,0,0,0-.41-.652,4.659,4.659,0,0,0-1.316-.426q-3.016-.633-3.016-2.562a2.323,2.323,0,0,1,.934-1.879,3.766,3.766,0,0,1,2.441-.754,4.053,4.053,0,0,1,2.574.758,2.388,2.388,0,0,1,.965,1.969H75.1a1.092,1.092,0,0,0-.312-.8A1.322,1.322,0,0,0,73.813-7a1.351,1.351,0,0,0-.883.258.814.814,0,0,0-.312.656.7.7,0,0,0,.355.605,3.657,3.657,0,0,0,1.2.4,9.8,9.8,0,0,1,1.422.379A2.336,2.336,0,0,1,77.383-2.43a2.2,2.2,0,0,1-.992,1.871,4.28,4.28,0,0,1-2.562.715,4.47,4.47,0,0,1-1.887-.379,3.166,3.166,0,0,1-1.293-1.039,2.414,2.414,0,0,1-.469-1.426H72.32a1.179,1.179,0,0,0,.445.922,1.766,1.766,0,0,0,1.109.32,1.635,1.635,0,0,0,.98-.246A.766.766,0,0,0,75.188-2.336Zm6.352-8.2v2.078h1.445V-6.8H81.539v4.219a1.007,1.007,0,0,0,.18.672.9.9,0,0,0,.688.2,3.6,3.6,0,0,0,.664-.055V-.047a4.648,4.648,0,0,1-1.367.2,2.156,2.156,0,0,1-2.422-2.4V-6.8H78.047V-8.453h1.234v-2.078Zm7.453,4.2A6.134,6.134,0,0,0,88.18-6.4a1.654,1.654,0,0,0-1.68.867V0H84.242V-8.453h2.133l.063,1.008A2.092,2.092,0,0,1,88.32-8.609a2.366,2.366,0,0,1,.7.1ZM94.742,0a2.507,2.507,0,0,1-.227-.758,2.732,2.732,0,0,1-2.133.914,3,3,0,0,1-2.059-.719,2.312,2.312,0,0,1-.816-1.812,2.389,2.389,0,0,1,1-2.062,4.915,4.915,0,0,1,2.879-.727h1.039v-.484a1.393,1.393,0,0,0-.3-.937,1.183,1.183,0,0,0-.949-.352,1.345,1.345,0,0,0-.895.273.929.929,0,0,0-.324.75H89.7a2.268,2.268,0,0,1,.453-1.359,3,3,0,0,1,1.281-.98,4.669,4.669,0,0,1,1.859-.355,3.689,3.689,0,0,1,2.48.785,2.747,2.747,0,0,1,.918,2.207v3.664a4.041,4.041,0,0,0,.336,1.82V0ZM92.875-1.57a1.945,1.945,0,0,0,.922-.223,1.462,1.462,0,0,0,.625-.6V-3.844h-.844q-1.7,0-1.8,1.172l-.008.133a.9.9,0,0,0,.3.7A1.153,1.153,0,0,0,92.875-1.57Zm8.25-8.961v2.078h1.445V-6.8h-1.445v4.219a1.007,1.007,0,0,0,.18.672.9.9,0,0,0,.688.2,3.6,3.6,0,0,0,.664-.055V-.047a4.648,4.648,0,0,1-1.367.2,2.156,2.156,0,0,1-2.422-2.4V-6.8H97.633V-8.453h1.234v-2.078ZM107.719.156a4.15,4.15,0,0,1-3.027-1.141,4.054,4.054,0,0,1-1.168-3.039v-.219a5.106,5.106,0,0,1,.492-2.277,3.612,3.612,0,0,1,1.395-1.547,3.914,3.914,0,0,1,2.059-.543,3.508,3.508,0,0,1,2.73,1.094,4.444,4.444,0,0,1,1,3.1v.922h-5.383a2.1,2.1,0,0,0,.66,1.328,2,2,0,0,0,1.395.5,2.437,2.437,0,0,0,2.039-.945l1.109,1.242a3.389,3.389,0,0,1-1.375,1.121A4.511,4.511,0,0,1,107.719.156Zm-.258-6.945a1.411,1.411,0,0,0-1.09.455,2.357,2.357,0,0,0-.535,1.3h3.141v-.181a1.681,1.681,0,0,0-.406-1.165A1.456,1.456,0,0,0,107.461-6.789Zm.2-5.211h2.461l-2.164,2.422h-1.836Zm4.484,7.711a4.954,4.954,0,0,1,.926-3.133,3,3,0,0,1,2.5-1.187,2.631,2.631,0,0,1,2.164.953l.094-.8h2.047V-.281a3.613,3.613,0,0,1-.5,1.93,3.236,3.236,0,0,1-1.418,1.25,4.985,4.985,0,0,1-2.141.43A4.635,4.635,0,0,1,114,2.957,3.217,3.217,0,0,1,112.664,2l1-1.375a2.645,2.645,0,0,0,2.047.945,1.936,1.936,0,0,0,1.4-.48,1.8,1.8,0,0,0,.5-1.363V-.727a2.612,2.612,0,0,1-2.055.883,2.992,2.992,0,0,1-2.465-1.191,4.953,4.953,0,0,1-.941-3.16Zm2.258.161a3.1,3.1,0,0,0,.461,1.809,1.465,1.465,0,0,0,1.266.655,1.567,1.567,0,0,0,1.477-.777V-6.012a1.563,1.563,0,0,0-1.461-.777,1.474,1.474,0,0,0-1.277.667A3.5,3.5,0,0,0,114.406-4.128ZM123.992,0h-2.266V-8.453h2.266Zm-2.4-10.641a1.112,1.112,0,0,1,.34-.836,1.277,1.277,0,0,1,.926-.328,1.28,1.28,0,0,1,.922.328,1.105,1.105,0,0,1,.344.836,1.108,1.108,0,0,1-.348.844,1.283,1.283,0,0,1-.918.328,1.283,1.283,0,0,1-.918-.328A1.108,1.108,0,0,1,121.594-10.641Zm7.773,8.977a1.481,1.481,0,0,0,1.016-.344,1.2,1.2,0,0,0,.406-.914h2.117a2.9,2.9,0,0,1-.469,1.574,3.093,3.093,0,0,1-1.262,1.109,3.949,3.949,0,0,1-1.77.395A3.67,3.67,0,0,1,126.547-1,4.56,4.56,0,0,1,125.5-4.18v-.148a4.508,4.508,0,0,1,1.039-3.117,3.627,3.627,0,0,1,2.852-1.164,3.555,3.555,0,0,1,2.543.9,3.2,3.2,0,0,1,.973,2.4h-2.117a1.551,1.551,0,0,0-.406-1.072,1.355,1.355,0,0,0-1.031-.412,1.36,1.36,0,0,0-1.191.575,3.333,3.333,0,0,0-.4,1.866v.235a3.375,3.375,0,0,0,.4,1.878A1.377,1.377,0,0,0,129.367-1.664ZM133.844-4.3a5.013,5.013,0,0,1,.484-2.242,3.546,3.546,0,0,1,1.395-1.523,4.069,4.069,0,0,1,2.113-.539,3.849,3.849,0,0,1,2.793,1.047,4.2,4.2,0,0,1,1.207,2.844l.016.578a4.418,4.418,0,0,1-1.086,3.121A3.775,3.775,0,0,1,137.852.156a3.793,3.793,0,0,1-2.918-1.172,4.5,4.5,0,0,1-1.09-3.187Zm2.258.16a3.16,3.16,0,0,0,.453,1.843,1.5,1.5,0,0,0,1.3.638,1.5,1.5,0,0,0,1.281-.63,3.457,3.457,0,0,0,.461-2.015,3.128,3.128,0,0,0-.461-1.831,1.5,1.5,0,0,0-1.3-.649,1.474,1.474,0,0,0-1.281.646A3.516,3.516,0,0,0,136.1-4.144Z" transform="translate(729 1546.5)" fill="#14263e"/>
    <path id="Trazado_206364" data-name="Trazado 206364" d="M1.016,0V-11.375h3.5A5.315,5.315,0,0,1,7.2-10.7,4.712,4.712,0,0,1,9.047-8.777a5.928,5.928,0,0,1,.664,2.832v.523A5.945,5.945,0,0,1,9.059-2.6,4.672,4.672,0,0,1,7.219-.687,5.355,5.355,0,0,1,4.539,0ZM3.359-9.477v7.594H4.492a2.545,2.545,0,0,0,2.1-.9,4.06,4.06,0,0,0,.742-2.57v-.6a4.124,4.124,0,0,0-.719-2.629,2.537,2.537,0,0,0-2.1-.895ZM13.648,0H11.383V-8.453h2.266Zm-2.4-10.641a1.112,1.112,0,0,1,.34-.836,1.277,1.277,0,0,1,.926-.328,1.28,1.28,0,0,1,.922.328,1.105,1.105,0,0,1,.344.836,1.108,1.108,0,0,1-.348.844,1.283,1.283,0,0,1-.918.328A1.283,1.283,0,0,1,11.6-9.8,1.108,1.108,0,0,1,11.25-10.641ZM20.406,0a2.507,2.507,0,0,1-.227-.758,2.732,2.732,0,0,1-2.133.914,3,3,0,0,1-2.059-.719,2.312,2.312,0,0,1-.816-1.812,2.389,2.389,0,0,1,1-2.062,4.915,4.915,0,0,1,2.879-.727h1.039v-.484a1.393,1.393,0,0,0-.3-.937,1.183,1.183,0,0,0-.949-.352,1.345,1.345,0,0,0-.895.273.929.929,0,0,0-.324.75H15.359a2.268,2.268,0,0,1,.453-1.359,3,3,0,0,1,1.281-.98,4.669,4.669,0,0,1,1.859-.355,3.689,3.689,0,0,1,2.48.785,2.747,2.747,0,0,1,.918,2.207v3.664a4.041,4.041,0,0,0,.336,1.82V0ZM18.539-1.57a1.945,1.945,0,0,0,.922-.223,1.462,1.462,0,0,0,.625-.6V-3.844h-.844q-1.7,0-1.8,1.172l-.008.133a.9.9,0,0,0,.3.7A1.153,1.153,0,0,0,18.539-1.57Zm5.219-2.719a4.954,4.954,0,0,1,.926-3.133,3,3,0,0,1,2.5-1.187,2.631,2.631,0,0,1,2.164.953l.094-.8h2.047V-.281a3.613,3.613,0,0,1-.5,1.93A3.236,3.236,0,0,1,29.563,2.9a4.985,4.985,0,0,1-2.141.43,4.635,4.635,0,0,1-1.812-.371A3.217,3.217,0,0,1,24.273,2l1-1.375a2.645,2.645,0,0,0,2.047.945,1.936,1.936,0,0,0,1.4-.48,1.8,1.8,0,0,0,.5-1.363V-.727a2.612,2.612,0,0,1-2.055.883A2.992,2.992,0,0,1,24.7-1.035a4.953,4.953,0,0,1-.941-3.16Zm2.258.161a3.1,3.1,0,0,0,.461,1.809,1.465,1.465,0,0,0,1.266.655,1.567,1.567,0,0,0,1.477-.777V-6.012a1.563,1.563,0,0,0-1.461-.777,1.474,1.474,0,0,0-1.277.667A3.5,3.5,0,0,0,26.016-4.128ZM35.3-8.453l.07.977A2.951,2.951,0,0,1,37.8-8.609a2.453,2.453,0,0,1,2,.789,3.682,3.682,0,0,1,.672,2.359V0H38.211V-5.419A1.47,1.47,0,0,0,37.9-6.464a1.4,1.4,0,0,0-1.039-.325,1.553,1.553,0,0,0-1.43.814V0H33.172V-8.453ZM41.828-4.3a5.013,5.013,0,0,1,.484-2.242A3.546,3.546,0,0,1,43.707-8.07a4.069,4.069,0,0,1,2.113-.539,3.849,3.849,0,0,1,2.793,1.047A4.2,4.2,0,0,1,49.82-4.719l.016.578A4.418,4.418,0,0,1,48.75-1.02,3.775,3.775,0,0,1,45.836.156a3.793,3.793,0,0,1-2.918-1.172A4.5,4.5,0,0,1,41.828-4.2Zm2.258.16A3.16,3.16,0,0,0,44.539-2.3a1.5,1.5,0,0,0,1.3.638,1.5,1.5,0,0,0,1.281-.63,3.457,3.457,0,0,0,.461-2.015,3.128,3.128,0,0,0-.461-1.831,1.5,1.5,0,0,0-1.3-.649,1.474,1.474,0,0,0-1.281.646A3.516,3.516,0,0,0,44.086-4.144ZM46.266-12h2.461L46.563-9.578H44.727ZM55.8-2.336a.727.727,0,0,0-.41-.652,4.659,4.659,0,0,0-1.316-.426q-3.016-.633-3.016-2.562A2.323,2.323,0,0,1,52-7.855a3.766,3.766,0,0,1,2.441-.754,4.053,4.053,0,0,1,2.574.758,2.388,2.388,0,0,1,.965,1.969H55.719a1.092,1.092,0,0,0-.312-.8A1.322,1.322,0,0,0,54.43-7a1.351,1.351,0,0,0-.883.258.814.814,0,0,0-.312.656.7.7,0,0,0,.355.605,3.657,3.657,0,0,0,1.2.4,9.8,9.8,0,0,1,1.422.379A2.336,2.336,0,0,1,58-2.43a2.2,2.2,0,0,1-.992,1.871,4.28,4.28,0,0,1-2.562.715,4.47,4.47,0,0,1-1.887-.379,3.166,3.166,0,0,1-1.293-1.039A2.414,2.414,0,0,1,50.8-2.687h2.141a1.179,1.179,0,0,0,.445.922,1.766,1.766,0,0,0,1.109.32,1.635,1.635,0,0,0,.98-.246A.766.766,0,0,0,55.8-2.336Zm6.352-8.2v2.078H63.6V-6.8H62.156v4.219a1.007,1.007,0,0,0,.18.672.9.9,0,0,0,.688.2,3.6,3.6,0,0,0,.664-.055V-.047a4.648,4.648,0,0,1-1.367.2,2.156,2.156,0,0,1-2.422-2.4V-6.8H58.664V-8.453H59.9v-2.078ZM67.242,0H64.977V-8.453h2.266Zm-2.4-10.641a1.112,1.112,0,0,1,.34-.836,1.277,1.277,0,0,1,.926-.328,1.28,1.28,0,0,1,.922.328,1.105,1.105,0,0,1,.344.836,1.108,1.108,0,0,1-.348.844,1.283,1.283,0,0,1-.918.328,1.283,1.283,0,0,1-.918-.328A1.108,1.108,0,0,1,64.844-10.641Zm7.773,8.977a1.481,1.481,0,0,0,1.016-.344,1.2,1.2,0,0,0,.406-.914h2.117a2.9,2.9,0,0,1-.469,1.574A3.093,3.093,0,0,1,74.426-.238a3.949,3.949,0,0,1-1.77.395A3.67,3.67,0,0,1,69.8-1,4.56,4.56,0,0,1,68.75-4.18v-.148a4.508,4.508,0,0,1,1.039-3.117,3.627,3.627,0,0,1,2.852-1.164,3.555,3.555,0,0,1,2.543.9,3.2,3.2,0,0,1,.973,2.4H74.039a1.551,1.551,0,0,0-.406-1.072A1.354,1.354,0,0,0,72.6-6.789a1.36,1.36,0,0,0-1.191.575,3.333,3.333,0,0,0-.4,1.866v.235a3.375,3.375,0,0,0,.4,1.878A1.377,1.377,0,0,0,72.617-1.664ZM77.094-4.3a5.013,5.013,0,0,1,.484-2.242A3.546,3.546,0,0,1,78.973-8.07a4.069,4.069,0,0,1,2.113-.539,3.849,3.849,0,0,1,2.793,1.047,4.2,4.2,0,0,1,1.207,2.844l.016.578A4.418,4.418,0,0,1,84.016-1.02,3.775,3.775,0,0,1,81.1.156a3.793,3.793,0,0,1-2.918-1.172A4.5,4.5,0,0,1,77.094-4.2Zm2.258.16A3.16,3.16,0,0,0,79.8-2.3a1.5,1.5,0,0,0,1.3.638,1.5,1.5,0,0,0,1.281-.63,3.457,3.457,0,0,0,.461-2.015,3.128,3.128,0,0,0-.461-1.831,1.5,1.5,0,0,0-1.3-.649,1.474,1.474,0,0,0-1.281.646A3.516,3.516,0,0,0,79.352-4.144Z" transform="translate(757 1928.5)" fill="#14263e"/>
  </g>
</svg>
