<svg xmlns="http://www.w3.org/2000/svg" width="457.077" height="229.086" viewBox="0 0 457.077 229.086">
  <g id="Grupo_150861" data-name="Grupo 150861" transform="translate(-857.923 -3782.778)">
    <g id="Grupo_150563" data-name="Grupo 150563" transform="translate(746.987 3455.127)">
      <path id="Trazado_204544" data-name="Trazado 204544" d="M166.151,402.485,305.183,541.518V344.946A204.442,204.442,0,0,0,166.151,402.485Z" transform="translate(31.187 9.769)" fill="#3d46c2"/>
      <path id="Trazado_204545" data-name="Trazado 204545" d="M398.959,402.485a204.446,204.446,0,0,0-139.034-57.539V541.518Z" transform="translate(84.154 9.769)" fill="#75b62f"/>
      <path id="Trazado_204546" data-name="Trazado 204546" d="M125.9,524.232H322.469L183.437,385.2A204.44,204.44,0,0,0,125.9,524.232Z" transform="translate(8.451 32.505)" fill="#75b62f"/>
      <path id="Trazado_204547" data-name="Trazado 204547" d="M263.409,524.232H459.98A204.445,204.445,0,0,0,402.441,385.2Z" transform="translate(86.122 32.505)" fill="#3d46c2"/>
      <circle id="Elipse_5724" data-name="Elipse 5724" cx="36.913" cy="36.913" r="36.913" transform="translate(110.935 447.433)" fill="#fafce1"/>
      <path id="Trazado_204555" data-name="Trazado 204555" d="M31.228,0A31.228,31.228,0,1,1,0,31.228,31.228,31.228,0,0,1,31.228,0Z" transform="translate(116.62 453.118)" fill="#75b62f"/>
      <path id="Trazado_205780" data-name="Trazado 205780" d="M36.913,0A36.913,36.913,0,1,1,0,36.913,36.913,36.913,0,0,1,36.913,0Z" transform="translate(494.187 447.433)" fill="#fafce1"/>
      <path id="Trazado_204558" data-name="Trazado 204558" d="M31.228,0A31.228,31.228,0,1,1,0,31.228,31.228,31.228,0,0,1,31.228,0Z" transform="translate(499.872 453.118)" fill="#3d46c2"/>
      <path id="Trazado_205778" data-name="Trazado 205778" d="M36.913,0A36.913,36.913,0,1,1,0,36.913,36.913,36.913,0,0,1,36.913,0Z" transform="translate(222.116 334.902)" fill="#fafce1"/>
      <path id="Trazado_204556" data-name="Trazado 204556" d="M31.228,0A31.228,31.228,0,1,1,0,31.228,31.228,31.228,0,0,1,31.228,0Z" transform="translate(223.201 397.638) rotate(-80.783)" fill="#3d46c2"/>
      <path id="Trazado_205779" data-name="Trazado 205779" d="M36.913,0A36.913,36.913,0,1,1,0,36.913,36.913,36.913,0,0,1,36.913,0Z" transform="translate(378.348 334.902)" fill="#fafce1"/>
      <path id="Trazado_204557" data-name="Trazado 204557" d="M31.228,0A31.228,31.228,0,1,1,0,31.228,31.228,31.228,0,0,1,31.228,0Z" transform="translate(371.097 371.815) rotate(-45)" fill="#75b62f"/>
    </g>
    <path id="Trazado_206392" data-name="Trazado 206392" d="M7.2,22.281V30H1.719V7.25H10.8a10.574,10.574,0,0,1,4.617.961,7.242,7.242,0,0,1,3.109,2.734,7.468,7.468,0,0,1,1.1,4.023,6.583,6.583,0,0,1-2.383,5.32A9.887,9.887,0,0,1,10.7,22.281Zm0-4.234H10.8a3.389,3.389,0,0,0,2.43-.8A2.961,2.961,0,0,0,14.063,15a3.66,3.66,0,0,0-.859-2.547,3.043,3.043,0,0,0-2.344-.969H7.2Z" transform="translate(887 3919)" fill="#fff"/>
    <path id="Trazado_206393" data-name="Trazado 206393" d="M15.828,20.344H7.2v5.438H17.391V30H1.719V7.25h15.7v4.234H7.2v4.8h8.625Z" transform="translate(997 3807)" fill="#fff"/>
    <path id="Trazado_206394" data-name="Trazado 206394" d="M13.453,23.953a2.253,2.253,0,0,0-.852-1.875,10.584,10.584,0,0,0-2.992-1.391,28.706,28.706,0,0,1-3.5-1.391q-4.422-2.172-4.422-5.969a5.352,5.352,0,0,1,1.1-3.336,7.125,7.125,0,0,1,3.117-2.25,12.131,12.131,0,0,1,4.531-.8,10.611,10.611,0,0,1,4.4.875A6.964,6.964,0,0,1,17.859,10.3,6.508,6.508,0,0,1,18.938,14H13.469a2.75,2.75,0,0,0-.852-2.156,3.319,3.319,0,0,0-2.3-.766,3.743,3.743,0,0,0-2.32.648,1.91,1.91,0,0,0,.086,3.234,11.823,11.823,0,0,0,3.3,1.469,20.2,20.2,0,0,1,3.875,1.633,6.512,6.512,0,0,1,3.688,5.859,5.555,5.555,0,0,1-2.25,4.688,10.008,10.008,0,0,1-6.172,1.7,12.245,12.245,0,0,1-5.008-.992A7.55,7.55,0,0,1,2.133,26.6,7.084,7.084,0,0,1,1,22.625H6.5a3.489,3.489,0,0,0,.945,2.7,4.468,4.468,0,0,0,3.07.867,3.53,3.53,0,0,0,2.148-.586A1.934,1.934,0,0,0,13.453,23.953Z" transform="translate(1152 3807)" fill="#fff"/>
    <path id="Trazado_206395" data-name="Trazado 206395" d="M19.578,11.484H12.75V30H7.266V11.484H.563V7.25H19.578Z" transform="translate(1267 3919)" fill="#fff"/>
    <g id="idea" transform="translate(1178 3944.303)">
      <g id="Grupo_150585" data-name="Grupo 150585" transform="translate(24.475 6.103)">
        <g id="Grupo_150584" data-name="Grupo 150584">
          <path id="Trazado_204583" data-name="Trazado 204583" d="M242.508,59.99a1.523,1.523,0,0,0,0,3.047,9.152,9.152,0,0,1,9.142,9.141,1.523,1.523,0,0,0,3.047,0A12.2,12.2,0,0,0,242.508,59.99Z" transform="translate(-240.985 -59.99)" fill="#fff"/>
        </g>
      </g>
      <g id="Grupo_150587" data-name="Grupo 150587" transform="translate(7.72 0.012)">
        <g id="Grupo_150586" data-name="Grupo 150586" transform="translate(0 0)">
          <path id="Trazado_204584" data-name="Trazado 204584" d="M90.363.42a18.271,18.271,0,0,0-9.74,30,11.868,11.868,0,0,1,3,7.777v3.047a4.578,4.578,0,0,0,3.158,4.346,7.6,7.6,0,0,0,15.012,0,4.578,4.578,0,0,0,3.158-4.346V38.2a12.026,12.026,0,0,1,3.092-7.878A18.284,18.284,0,0,0,90.363.42ZM94.29,48.963A4.662,4.662,0,0,1,89.981,45.8H98.6A4.662,4.662,0,0,1,94.29,48.963Zm7.617-7.719a1.525,1.525,0,0,1-1.523,1.523H88.2a1.525,1.525,0,0,1-1.523-1.523V39.721h15.234Zm3.847-12.933a15.276,15.276,0,0,0-3.764,8.363h-15.4a15.055,15.055,0,0,0-3.69-8.279,15.234,15.234,0,1,1,22.855-.084Z" transform="translate(-76.01 -0.012)" fill="#fff"/>
        </g>
      </g>
      <g id="Grupo_150589" data-name="Grupo 150589" transform="translate(0 18.291)">
        <g id="Grupo_150588" data-name="Grupo 150588">
          <path id="Trazado_204585" data-name="Trazado 204585" d="M4.57,179.99H1.523a1.523,1.523,0,0,0,0,3.047H4.57a1.523,1.523,0,0,0,0-3.047Z" transform="translate(0 -179.99)" fill="#fff"/>
        </g>
      </g>
      <g id="Grupo_150591" data-name="Grupo 150591" transform="translate(0.446 8.073)">
        <g id="Grupo_150590" data-name="Grupo 150590">
          <path id="Trazado_204586" data-name="Trazado 204586" d="M9.149,81.984,6.994,79.83A1.523,1.523,0,0,0,4.84,81.984l2.154,2.154a1.523,1.523,0,0,0,2.154-2.154Z" transform="translate(-4.394 -79.383)" fill="#fff"/>
        </g>
      </g>
      <g id="Grupo_150593" data-name="Grupo 150593" transform="translate(0.446 26.354)">
        <g id="Grupo_150592" data-name="Grupo 150592">
          <path id="Trazado_204587" data-name="Trazado 204587" d="M9.149,259.83a1.523,1.523,0,0,0-2.154,0L4.84,261.984a1.523,1.523,0,1,0,2.154,2.154l2.154-2.154A1.523,1.523,0,0,0,9.149,259.83Z" transform="translate(-4.394 -259.384)" fill="#fff"/>
        </g>
      </g>
      <g id="Grupo_150595" data-name="Grupo 150595" transform="translate(45.906 18.291)">
        <g id="Grupo_150594" data-name="Grupo 150594">
          <path id="Trazado_204588" data-name="Trazado 204588" d="M456.57,179.99h-3.047a1.523,1.523,0,0,0,0,3.047h3.047a1.523,1.523,0,0,0,0-3.047Z" transform="translate(-452 -179.99)" fill="#fff"/>
        </g>
      </g>
      <g id="Grupo_150597" data-name="Grupo 150597" transform="translate(46.353 8.073)">
        <g id="Grupo_150596" data-name="Grupo 150596">
          <path id="Trazado_204589" data-name="Trazado 204589" d="M461.149,79.83a1.523,1.523,0,0,0-2.154,0l-2.154,2.154a1.523,1.523,0,0,0,2.154,2.154l2.154-2.154A1.523,1.523,0,0,0,461.149,79.83Z" transform="translate(-456.393 -79.383)" fill="#fff"/>
        </g>
      </g>
      <g id="Grupo_150599" data-name="Grupo 150599" transform="translate(46.353 26.354)">
        <g id="Grupo_150598" data-name="Grupo 150598">
          <path id="Trazado_204590" data-name="Trazado 204590" d="M461.149,261.984l-2.154-2.154a1.523,1.523,0,0,0-2.154,2.154l2.154,2.154a1.523,1.523,0,1,0,2.154-2.154Z" transform="translate(-456.393 -259.384)" fill="#fff"/>
        </g>
      </g>
    </g>
    <g id="Layer_3" transform="translate(1098.001 3864.89)">
      <g id="Grupo_150583" data-name="Grupo 150583" transform="translate(6.999 15.489)">
        <g id="ARC_424_" transform="translate(0 29.3)">
          <g id="Grupo_150564" data-name="Grupo 150564">
            <path id="Trazado_204559" data-name="Trazado 204559" d="M16.2,43.533a1.3,1.3,0,0,1-.184-.013,25.4,25.4,0,0,1-8.336-2.729,1.281,1.281,0,1,1,1.206-2.26,22.758,22.758,0,0,0,7.5,2.454,1.281,1.281,0,0,1-.18,2.548Z" transform="translate(-6.999 -38.381)" fill="#fff"/>
          </g>
        </g>
        <g id="ARC_423_" transform="translate(53.521 29.301)">
          <g id="Grupo_150565" data-name="Grupo 150565">
            <path id="Trazado_204560" data-name="Trazado 204560" d="M50.094,43.532a1.28,1.28,0,0,1-.18-2.547,22.748,22.748,0,0,0,7.5-2.454,1.281,1.281,0,0,1,1.206,2.26,25.4,25.4,0,0,1-8.336,2.729A1.515,1.515,0,0,1,50.094,43.532Z" transform="translate(-48.815 -38.382)" fill="#fff"/>
          </g>
        </g>
        <g id="ARC_422_" transform="translate(40.133 16.541)">
          <g id="Grupo_150566" data-name="Grupo 150566">
            <path id="Trazado_204561" data-name="Trazado 204561" d="M39.634,34.833a1.28,1.28,0,0,1-1.071-1.979,9.755,9.755,0,0,1,8.2-4.443,1.28,1.28,0,1,1,0,2.56,7.2,7.2,0,0,0-6.053,3.28A1.277,1.277,0,0,1,39.634,34.833Z" transform="translate(-38.354 -28.412)" fill="#fff"/>
          </g>
        </g>
        <g id="CIRCLE_38_" transform="translate(43.007 2.364)">
          <g id="Grupo_150567" data-name="Grupo 150567">
            <path id="Trazado_204562" data-name="Trazado 204562" d="M48.969,34.072A8.368,8.368,0,1,1,57.338,25.7,8.48,8.48,0,0,1,48.969,34.072Zm0-14.177A5.808,5.808,0,1,0,54.778,25.7,5.887,5.887,0,0,0,48.969,19.9Z" transform="translate(-40.6 -17.336)" fill="#fff"/>
          </g>
        </g>
        <g id="ARC_421_" transform="translate(52.931 16.542)">
          <g id="Grupo_150568" data-name="Grupo 150568">
            <path id="Trazado_204563" data-name="Trazado 204563" d="M58.14,39.479a1.279,1.279,0,0,1-1.28-1.28,7.235,7.235,0,0,0-7.226-7.226,1.28,1.28,0,1,1,0-2.56A9.8,9.8,0,0,1,59.42,38.2,1.28,1.28,0,0,1,58.14,39.479Z" transform="translate(-48.354 -28.413)" fill="#fff"/>
          </g>
        </g>
        <g id="LINE_818_" transform="translate(47.26 16.541)">
          <g id="Grupo_150569" data-name="Grupo 150569">
            <path id="Trazado_204564" data-name="Trazado 204564" d="M50.874,30.972H45.2a1.28,1.28,0,0,1,0-2.56h5.671a1.28,1.28,0,0,1,0,2.56Z" transform="translate(-43.923 -28.412)" fill="#fff"/>
          </g>
        </g>
        <g id="LINE_817_" transform="translate(61.438 25.048)">
          <g id="Grupo_150570" data-name="Grupo 150570">
            <path id="Trazado_204565" data-name="Trazado 204565" d="M56.28,41.872A1.279,1.279,0,0,1,55,40.592V36.339a1.28,1.28,0,1,1,2.56,0v4.253A1.279,1.279,0,0,1,56.28,41.872Z" transform="translate(-55 -35.059)" fill="#fff"/>
          </g>
        </g>
        <g id="ARC_420_" transform="translate(15.597 18.905)">
          <g id="Grupo_150571" data-name="Grupo 150571">
            <path id="Trazado_204566" data-name="Trazado 204566" d="M20.465,44.16a1.279,1.279,0,0,1-1.28-1.28A12.635,12.635,0,0,1,31.806,30.259a1.28,1.28,0,1,1,0,2.56A10.072,10.072,0,0,0,21.745,42.88,1.28,1.28,0,0,1,20.465,44.16Z" transform="translate(-19.185 -30.259)" fill="#fff"/>
          </g>
        </g>
        <g id="LINE_816_" transform="translate(26.938 18.905)">
          <g id="Grupo_150572" data-name="Grupo 150572">
            <path id="Trazado_204567" data-name="Trazado 204567" d="M36.888,32.819H29.326a1.28,1.28,0,1,1,0-2.56h7.562a1.28,1.28,0,0,1,0,2.56Z" transform="translate(-28.046 -30.259)" fill="#fff"/>
          </g>
        </g>
        <g id="ARC_419_" transform="translate(14.18 16.541)">
          <g id="Grupo_150573" data-name="Grupo 150573">
            <path id="Trazado_204568" data-name="Trazado 204568" d="M26.485,34.833a1.28,1.28,0,0,1-1.074-.581,7.2,7.2,0,0,0-6.053-3.28,1.28,1.28,0,0,1,0-2.56,9.754,9.754,0,0,1,8.2,4.443,1.28,1.28,0,0,1-1.071,1.979Z" transform="translate(-18.078 -28.412)" fill="#fff"/>
          </g>
        </g>
        <g id="LINE_815_" transform="translate(15.597 30.246)">
          <g id="Grupo_150574" data-name="Grupo 150574">
            <path id="Trazado_204569" data-name="Trazado 204569" d="M20.465,47.351a1.279,1.279,0,0,1-1.28-1.28V40.4a1.28,1.28,0,0,1,2.56,0v5.671A1.28,1.28,0,0,1,20.465,47.351Z" transform="translate(-19.185 -39.12)" fill="#fff"/>
          </g>
        </g>
        <g id="CIRCLE_37_" transform="translate(21.267)">
          <g id="Grupo_150575" data-name="Grupo 150575" transform="translate(0)">
            <path id="Trazado_204570" data-name="Trazado 204570" d="M34.347,36.953A10.876,10.876,0,0,1,23.615,26.221a10.732,10.732,0,0,1,21.464,0A10.876,10.876,0,0,1,34.347,36.953Zm0-18.9a8.172,8.172,0,1,0,8.172,8.172A8.282,8.282,0,0,0,34.347,18.049Z" transform="translate(-23.615 -15.489)" fill="#fff"/>
          </g>
        </g>
        <g id="ARC_418_" transform="translate(34.5 18.905)">
          <g id="Grupo_150576" data-name="Grupo 150576">
            <path id="Trazado_204571" data-name="Trazado 204571" d="M46.575,44.16a1.279,1.279,0,0,1-1.28-1.28A10.072,10.072,0,0,0,35.234,32.819a1.28,1.28,0,0,1,0-2.56A12.635,12.635,0,0,1,47.855,42.88,1.279,1.279,0,0,1,46.575,44.16Z" transform="translate(-33.954 -30.259)" fill="#fff"/>
          </g>
        </g>
        <g id="LINE_814_" transform="translate(45.842 30.246)">
          <g id="Grupo_150577" data-name="Grupo 150577">
            <path id="Trazado_204572" data-name="Trazado 204572" d="M44.095,47.351a1.279,1.279,0,0,1-1.28-1.28V40.4a1.28,1.28,0,0,1,2.56,0v5.671A1.279,1.279,0,0,1,44.095,47.351Z" transform="translate(-42.815 -39.12)" fill="#fff"/>
          </g>
        </g>
        <g id="ARC_417_" transform="translate(15.596 35.917)">
          <g id="Grupo_150578" data-name="Grupo 150578">
            <path id="Trazado_204573" data-name="Trazado 204573" d="M35.588,49.9a33.4,33.4,0,0,1-15.725-3.938,1.281,1.281,0,1,1,1.206-2.26,30.8,30.8,0,0,0,29.04,0,1.281,1.281,0,0,1,1.206,2.26A33.422,33.422,0,0,1,35.588,49.9Z" transform="translate(-19.184 -43.551)" fill="#fff"/>
          </g>
        </g>
        <g id="CIRCLE_36_" transform="translate(4.254 2.364)">
          <g id="Grupo_150579" data-name="Grupo 150579">
            <path id="Trazado_204574" data-name="Trazado 204574" d="M18.691,34.072a8.368,8.368,0,0,1,0-16.736,8.368,8.368,0,0,1,0,16.736Zm0-14.177A5.808,5.808,0,1,0,24.5,25.7,5.886,5.886,0,0,0,18.691,19.9Z" transform="translate(-10.323 -17.336)" fill="#fff"/>
          </g>
        </g>
        <g id="ARC_416_" transform="translate(0.001 16.542)">
          <g id="Grupo_150580" data-name="Grupo 150580">
            <path id="Trazado_204575" data-name="Trazado 204575" d="M8.28,39.479A1.279,1.279,0,0,1,7,38.2a9.8,9.8,0,0,1,9.786-9.786,1.28,1.28,0,1,1,0,2.56A7.233,7.233,0,0,0,9.56,38.2,1.28,1.28,0,0,1,8.28,39.479Z" transform="translate(-7 -28.413)" fill="#fff"/>
          </g>
        </g>
        <g id="LINE_813_" transform="translate(8.507 16.541)">
          <g id="Grupo_150581" data-name="Grupo 150581">
            <path id="Trazado_204576" data-name="Trazado 204576" d="M20.6,30.972H14.926a1.28,1.28,0,1,1,0-2.56H20.6a1.28,1.28,0,0,1,0,2.56Z" transform="translate(-13.646 -28.412)" fill="#fff"/>
          </g>
        </g>
        <g id="LINE_812_" transform="translate(0.001 25.048)">
          <g id="Grupo_150582" data-name="Grupo 150582">
            <path id="Trazado_204577" data-name="Trazado 204577" d="M8.28,41.872A1.279,1.279,0,0,1,7,40.592V36.339a1.28,1.28,0,0,1,2.56,0v4.253A1.279,1.279,0,0,1,8.28,41.872Z" transform="translate(-7 -35.059)" fill="#fff"/>
          </g>
        </g>
      </g>
    </g>
    <g id="performance" transform="translate(992.37 3844.227)">
      <path id="Trazado_204578" data-name="Trazado 204578" d="M77.288,25.7H70.194a1.382,1.382,0,0,0-1.364,1.364V74.082a1.382,1.382,0,0,0,1.364,1.364h7.094a1.273,1.273,0,0,0,.909-.364h0a1.219,1.219,0,0,0,.373-.909V27.064A1.382,1.382,0,0,0,77.288,25.7Zm-5.729,7.2V28.428h4.365V72.718H71.558Z" transform="translate(-4.481 -0.673)" fill="#fff"/>
      <path id="Trazado_204579" data-name="Trazado 204579" d="M61.568,43H54.474a1.382,1.382,0,0,0-1.364,1.364V75.649a1.382,1.382,0,0,0,1.364,1.364h7.094a1.237,1.237,0,0,0,.909-.364h.055a1.219,1.219,0,0,0,.373-.909V44.4A1.382,1.382,0,0,0,61.568,43Zm-5.729,2.728H60.2V74.284H55.838Z" transform="translate(-3.057 -2.24)" fill="#fff"/>
      <path id="Trazado_204580" data-name="Trazado 204580" d="M45.848,53H38.754a1.382,1.382,0,0,0-1.364,1.364v22.19a1.382,1.382,0,0,0,1.364,1.364h7.094a1.255,1.255,0,0,0,.909-.364,1.219,1.219,0,0,0,.373-.909V54.319A1.382,1.382,0,0,0,45.848,53Zm-5.729,2.728h4.365V75.19H40.118Z" transform="translate(-1.633 -3.145)" fill="#fff"/>
      <path id="Trazado_204581" data-name="Trazado 204581" d="M30.158,65.83H23.064A1.382,1.382,0,0,0,21.7,67.194V77.716a1.382,1.382,0,0,0,1.364,1.364h7.094a1.258,1.258,0,0,0,1.282-1.273V67.194A1.382,1.382,0,0,0,30.158,65.83ZM24.4,76.352V68.558h4.365v7.794Z" transform="translate(-0.212 -4.307)" fill="#fff"/>
      <path id="Trazado_204582" data-name="Trazado 204582" d="M57.628,22.79,44.305,36.113l-1.873,1.919-7.539-2a1.446,1.446,0,0,0-1.546.628l-12,15.924-1.728,2.283c-1.064,1.4,1.31,2.728,2.355,1.373l12-15.915,1.082-1.382,6.712,1.7a2.019,2.019,0,0,0,2.174-.346c.527-.491,1.019-1.019,1.528-1.528L58.993,25.3c.191-.182.373-.373.564-.564l2.31,2.292,2.346-8.758-8.758,2.346Z" transform="translate(0)" fill="#fff"/>
    </g>
    <path id="hombre-con-corbata" d="M79.562,43.211a10.43,10.43,0,0,0-8.1-3.88H65.535V34.777a24.028,24.028,0,0,0,3.283-5c1.692-.286,3.392-2.04,4.275-4.545,1.08-3.062.6-5.81-1.153-6.8a16.657,16.657,0,0,0-2.92-12.278A14.882,14.882,0,0,0,56.569,0,14.887,14.887,0,0,0,44.115,6.156,16.672,16.672,0,0,0,41.181,18.4c-1.8.952-2.334,3.731-1.241,6.833.913,2.587,2.584,4.324,4.324,4.559a19.9,19.9,0,0,0,3.424,5.255v4.288h-6a10.576,10.576,0,0,0-8.174,3.88A13.452,13.452,0,0,0,30.5,51.842v6.213a1.681,1.681,0,0,0,.952,1.5,57.261,57.261,0,0,0,25.226,5.885,56.831,56.831,0,0,0,10.127-.908A49.246,49.246,0,0,0,81.728,59.5a1.617,1.617,0,0,0,.774-1.445V51.841A13.4,13.4,0,0,0,79.562,43.211Zm-21.078,7.1a1.144,1.144,0,0,1-1.144,1.144H55.662a1.144,1.144,0,0,1-1.144-1.144V48.628a1.144,1.144,0,0,1,1.144-1.144h1.679a1.144,1.144,0,0,1,1.144,1.144Zm1.073-5.639a4.432,4.432,0,0,0-2.122-.489h-1.72a4.433,4.433,0,0,0-2.122.489l-2.78-2.794a1.75,1.75,0,0,0,.18-.791V38.109A9.339,9.339,0,0,0,56.5,39.96a9.844,9.844,0,0,0,5.73-2.009v3.132a1.856,1.856,0,0,0,.185.638ZM46.828,8.107A11.442,11.442,0,0,1,56.575,3.34a11.442,11.442,0,0,1,9.746,4.767,13.139,13.139,0,0,1,2.27,10.114C57.663,20.894,52.428,10.63,52.213,10.2a1.67,1.67,0,0,0-3.146.461c-.012.072-1.191,6.486-4.5,7.6A13.127,13.127,0,0,1,46.828,8.107Zm-4.075,13.58c4.617.365,7.368-3.616,8.577-6.8a21.607,21.607,0,0,0,2.775,2.9A16.464,16.464,0,0,0,65.05,22a26.2,26.2,0,0,0,5.242-.542,5.211,5.211,0,0,1-.306,2.657,4.574,4.574,0,0,1-1.539,2.32,1.67,1.67,0,0,0-2.087.895c-1.9,4.284-5.609,9.287-9.786,9.287s-7.894-5.018-9.8-9.315a1.67,1.67,0,0,0-2.155-.871,4.6,4.6,0,0,1-1.533-2.316A5.323,5.323,0,0,1,42.754,21.687ZM33.806,51.842c0-4.406,2.8-9.205,7.881-9.205H47l4.438,4.505a4.86,4.86,0,0,0-.225,1.43v1.72a4.475,4.475,0,0,0,1.354,3.2l-1.481,8.315A54.95,54.95,0,0,1,33.806,57V51.842Zm20.671,10.2,1.274-7.288H57.4l1.276,7.295C57.335,62.1,55.932,62.1,54.477,62.043Zm24.72-5a48.891,48.891,0,0,1-13.163,4.226c-1.244.223-2.575.417-4.022.562L60.5,53.491a4.423,4.423,0,0,0,1.291-3.2v-1.72a4.842,4.842,0,0,0-.151-1.43l4.512-4.505h5.312c5.08,0,7.734,4.8,7.734,9.205v5.2Z" transform="translate(917.498 3937.593)" fill="#fff"/>
  </g>
</svg>
