<svg xmlns="http://www.w3.org/2000/svg" width="1240" height="288.196" viewBox="0 0 1240 288.196">
  <g id="Grupo_150496" data-name="Grupo 150496" transform="translate(-180 -397)">
    <path id="Trazado_204352" data-name="Trazado 204352" d="M-1777.256-319H-560.744c6.459,0,11.744,4.39,11.744,9.755V-40.559c0,5.365-5.284,9.755-11.744,9.755H-1777.256c-6.459,0-11.744-4.39-11.744-9.755V-309.245c0-5.365,5.285-9.755,11.744-9.755Z" transform="translate(1969 716)" fill="#f3f9ff"/>
    <path id="Trazado_204353" data-name="Trazado 204353" d="M-1674.326-140.25h173.893V33.643h-173.893V-140.25Zm201.868,0h173.893V33.643h-173.893V-140.25Zm201.867,0H-1096.7V33.643h-173.893V-140.25Zm201.868,0H-894.83V33.643h-173.893V-140.25Zm201.867,0h173.893V33.643H-866.856V-140.25Z" transform="translate(1983.645 587.263)" fill="none" stroke="#fff" stroke-miterlimit="2.613" stroke-width="0.5"/>
    <path id="Trazado_204432" data-name="Trazado 204432" d="M-1368.132,117.147a34.4,34.4,0,0,0-24.4-10.107,34.4,34.4,0,0,0-24.4,10.107,34.4,34.4,0,0,0-10.107,24.4,34.4,34.4,0,0,0,10.107,24.4,34.4,34.4,0,0,0,24.4,10.107,34.4,34.4,0,0,0,24.4-10.107,34.4,34.4,0,0,0,10.107-24.4,34.4,34.4,0,0,0-10.107-24.4Zm-32.738,19.325-.026-.007a2.814,2.814,0,0,1-.958-.452,2.006,2.006,0,0,1-.592-.98,17.1,17.1,0,0,1-.541-1.993,13.622,13.622,0,0,1-.281-1.845,3.352,3.352,0,0,1,.1-1.345,1.238,1.238,0,0,1,.7-.715,2.1,2.1,0,0,1,.466-.055c.1-.027-.053-.088-.056-.139l-.286-4.012c-.188-1.844.207-4.52,1.558-5.772a2.167,2.167,0,0,1,1.6-.335,1.291,1.291,0,0,1,.124-1.454,6.9,6.9,0,0,1,2.276-2.09,9.5,9.5,0,0,1,4.633-.974,11.5,11.5,0,0,1,5.016,1.9,8.486,8.486,0,0,1,2.9,3.2,11.726,11.726,0,0,1,1.06,4.473,24.367,24.367,0,0,1-.212,5.188,1.718,1.718,0,0,1,.5.11,1.232,1.232,0,0,1,.789.774,4.409,4.409,0,0,1,.074,1.657,12.528,12.528,0,0,1-.293,1.851,11.663,11.663,0,0,1-.542,1.684,2.131,2.131,0,0,1-.592.906,2.756,2.756,0,0,1-.957.45c-.073.024-.147.043-.223.063l-.121,1.883a4.529,4.529,0,0,1-1.21,2.851v3.26a1.962,1.962,0,0,1-.791,1.6l-4.844,3.716,1.754,1.043c.341.2.157.656,0,1.019l-.707,1.627c-.168.39-.381.729-.214,1.118l.171.391,1.1,4.03.325,9.682a30.485,30.485,0,0,1-3.349.186,30.61,30.61,0,0,1-3.358-.186l.324-9.681,1.1-4.031.1-.239c.167-.39-.028-.736-.212-1.118l-.859-1.779c-.171-.358-.341-.817,0-1.02h0l1.873-1.115-4.746-3.643a1.966,1.966,0,0,1-.793-1.6v-2.812l-.354-.372a4.532,4.532,0,0,1-1.293-2.94l-.126-1.952h0Zm12.839,32.156,2.564-11.943a9.969,9.969,0,0,0,1.355-4.952c.066-1.85-.081-4.489-.245-7.193a.279.279,0,0,1,.163-.277.287.287,0,0,1,.318.042,11.245,11.245,0,0,0,3.6,2.163,71.445,71.445,0,0,0,8.009,2.335c2.263.556,3.275.771,3.989,1.3.656.489,1.061,1.245,1.645,3.17a1.186,1.186,0,0,1-.118.982,30.019,30.019,0,0,1-4.608,5.932,29.857,29.857,0,0,1-16.676,8.435Zm-30.4-15.359c.583-1.915.986-2.671,1.639-3.159.715-.531,1.726-.75,3.989-1.305a70.76,70.76,0,0,0,8.011-2.337,11.223,11.223,0,0,0,3.6-2.16.284.284,0,0,1,.319-.043.282.282,0,0,1,.163.277c-.166,2.7-.312,5.342-.246,7.194a9.936,9.936,0,0,0,1.357,4.952l2.56,11.939a29.862,29.862,0,0,1-16.667-8.434,30.075,30.075,0,0,1-4.612-5.94,1.187,1.187,0,0,1-.117-.984Z" transform="translate(1788.796 392.414)" fill="#75b62f" fill-rule="evenodd"/>
    <path id="Trazado_204433" data-name="Trazado 204433" d="M-1319.206-109.407a18.183,18.183,0,0,0-12.9-5.343,18.185,18.185,0,0,0-12.9,5.343,18.184,18.184,0,0,0-5.343,12.9,18.184,18.184,0,0,0,5.343,12.9,18.185,18.185,0,0,0,12.9,5.343,18.183,18.183,0,0,0,12.9-5.343,18.183,18.183,0,0,0,5.344-12.9,18.183,18.183,0,0,0-5.344-12.9Zm-17.308,10.217-.014,0a1.488,1.488,0,0,1-.506-.239,1.064,1.064,0,0,1-.313-.518,9.137,9.137,0,0,1-.286-1.054,7.18,7.18,0,0,1-.148-.976,1.772,1.772,0,0,1,.05-.711.655.655,0,0,1,.369-.378,1.11,1.11,0,0,1,.246-.029c.055-.014-.028-.046-.029-.073l-.151-2.121a4,4,0,0,1,.824-3.051,1.145,1.145,0,0,1,.846-.177.683.683,0,0,1,.065-.769,3.653,3.653,0,0,1,1.2-1.1,5.021,5.021,0,0,1,2.45-.515,6.083,6.083,0,0,1,2.651,1,4.488,4.488,0,0,1,1.532,1.691,6.2,6.2,0,0,1,.56,2.365,12.871,12.871,0,0,1-.112,2.743.9.9,0,0,1,.264.058.652.652,0,0,1,.417.409,2.331,2.331,0,0,1,.039.876,6.606,6.606,0,0,1-.155.979,6.182,6.182,0,0,1-.287.89,1.122,1.122,0,0,1-.313.479,1.457,1.457,0,0,1-.506.238c-.038.013-.078.023-.118.033l-.064,1a2.394,2.394,0,0,1-.64,1.507v1.724a1.038,1.038,0,0,1-.418.848l-2.561,1.965.927.551c.18.107.083.347,0,.539l-.374.86c-.089.206-.2.386-.113.591l.091.207.582,2.131.171,5.119a16.111,16.111,0,0,1-1.771.1,16.181,16.181,0,0,1-1.775-.1l.171-5.118.583-2.131.055-.126c.089-.206-.015-.389-.112-.591l-.454-.941c-.091-.189-.181-.432,0-.539h0l.99-.59-2.509-1.926a1.04,1.04,0,0,1-.419-.848v-1.487l-.187-.2a2.4,2.4,0,0,1-.683-1.554l-.066-1.032h0Zm6.788,17,1.355-6.314a5.274,5.274,0,0,0,.717-2.618c.035-.978-.043-2.373-.13-3.8a.147.147,0,0,1,.086-.147.151.151,0,0,1,.168.022,5.951,5.951,0,0,0,1.906,1.143,37.809,37.809,0,0,0,4.234,1.235,6.32,6.32,0,0,1,2.109.69c.347.258.561.658.87,1.676a.626.626,0,0,1-.062.519,15.868,15.868,0,0,1-2.436,3.136,15.784,15.784,0,0,1-8.816,4.459Zm-16.072-8.12c.308-1.013.521-1.412.866-1.67a6.359,6.359,0,0,1,2.109-.69,37.393,37.393,0,0,0,4.235-1.235,5.934,5.934,0,0,0,1.905-1.142.15.15,0,0,1,.169-.023.149.149,0,0,1,.086.146c-.088,1.429-.165,2.824-.13,3.8a5.254,5.254,0,0,0,.717,2.618l1.354,6.312a15.787,15.787,0,0,1-8.811-4.459,15.893,15.893,0,0,1-2.438-3.14.627.627,0,0,1-.062-.52Z" transform="translate(1728.37 567.171)" fill="#3d46c2" fill-rule="evenodd"/>
    <path id="Trazado_204434" data-name="Trazado 204434" d="M-1102.807-9.084a18.184,18.184,0,0,0-5.343-12.9,18.187,18.187,0,0,0-12.9-5.343,18.183,18.183,0,0,0-12.9,5.343,18.185,18.185,0,0,0-5.343,12.9,18.185,18.185,0,0,0,5.343,12.9,18.184,18.184,0,0,0,12.9,5.343,18.185,18.185,0,0,0,12.9-5.343,18.184,18.184,0,0,0,5.343-12.9ZM-1122.27-14.1l-.007-.013a1.485,1.485,0,0,1-.189-.527,1.061,1.061,0,0,1,.145-.588,9.041,9.041,0,0,1,.543-.947,7.211,7.211,0,0,1,.585-.795,1.774,1.774,0,0,1,.538-.467.655.655,0,0,1,.528-.007,1.118,1.118,0,0,1,.195.154c.049.029.013-.053.031-.073l1.393-1.607a4,4,0,0,1,2.74-1.575c.23.008.71.34.723.473a.682.682,0,0,1,.59-.5,3.649,3.649,0,0,1,1.632.07,5.022,5.022,0,0,1,2.1,1.368,6.083,6.083,0,0,1,1.166,2.584,4.486,4.486,0,0,1-.113,2.279,6.191,6.191,0,0,1-1.276,2.068,12.873,12.873,0,0,1-2.018,1.86.9.9,0,0,1,.145.228.651.651,0,0,1,.005.584,2.33,2.33,0,0,1-.592.647,6.609,6.609,0,0,1-.8.582,6.179,6.179,0,0,1-.832.427,1.126,1.126,0,0,1-.56.117,1.454,1.454,0,0,1-.526-.19c-.036-.018-.071-.039-.107-.06l-.749.659a2.4,2.4,0,0,1-1.518.613l-1.219,1.219a1.038,1.038,0,0,1-.9.3l-3.2-.422.266,1.045c.051.2-.187.3-.381.381l-.873.344c-.208.083-.415.13-.5.338l-.082.21-1.1,1.918-3.5,3.741a16.06,16.06,0,0,1-1.321-1.182,16.115,16.115,0,0,1-1.186-1.324l3.74-3.5,1.919-1.095.128-.05c.208-.083.265-.286.339-.5l.344-.986c.07-.2.178-.433.381-.381h0l1.117.283-.412-3.136a1.039,1.039,0,0,1,.3-.9l1.051-1.051.007-.271a2.4,2.4,0,0,1,.616-1.582l.683-.777h0l0,0Zm-7.221,16.821,5.423-3.506a5.27,5.27,0,0,0,2.358-1.345c.717-.667,1.648-1.708,2.6-2.781a.147.147,0,0,1,.164-.043.151.151,0,0,1,.1.134,5.943,5.943,0,0,0,.539,2.156,37.707,37.707,0,0,0,2.122,3.867,6.337,6.337,0,0,1,1,1.979,2.972,2.972,0,0,1-.57,1.8.626.626,0,0,1-.411.323,15.874,15.874,0,0,1-3.94.5,15.787,15.787,0,0,1-9.387-3.081Zm-5.623-17.107a2.973,2.973,0,0,1,1.793-.568,6.349,6.349,0,0,1,1.979,1,37.392,37.392,0,0,0,3.869,2.121,5.932,5.932,0,0,0,2.154.54.151.151,0,0,1,.136.1.15.15,0,0,1-.043.165c-1.072.948-2.114,1.881-2.781,2.6a5.255,5.255,0,0,0-1.344,2.358l-3.506,5.42a15.785,15.785,0,0,1-3.078-9.383,15.877,15.877,0,0,1,.5-3.945.626.626,0,0,1,.324-.412Z" transform="translate(1562.071 498.286)" fill="#3d46c2" fill-rule="evenodd"/>
    <path id="Trazado_204435" data-name="Trazado 204435" d="M-1020.729,214.87a18.185,18.185,0,0,0,5.343-12.9,18.187,18.187,0,0,0-5.343-12.9,18.185,18.185,0,0,0-12.9-5.343,18.185,18.185,0,0,0-12.9,5.343,18.186,18.186,0,0,0-5.343,12.9,18.184,18.184,0,0,0,5.343,12.9,18.185,18.185,0,0,0,12.9,5.343,18.185,18.185,0,0,0,12.9-5.343Zm-10.217-17.308,0-.014a1.487,1.487,0,0,1,.239-.506,1.059,1.059,0,0,1,.518-.313,9.007,9.007,0,0,1,1.054-.286,7.215,7.215,0,0,1,.976-.148,1.773,1.773,0,0,1,.711.05.653.653,0,0,1,.378.369,1.116,1.116,0,0,1,.029.247c.014.055.046-.028.073-.029l2.121-.151a4,4,0,0,1,3.051.824,1.146,1.146,0,0,1,.177.846.682.682,0,0,1,.768.066,3.648,3.648,0,0,1,1.1,1.2,5.022,5.022,0,0,1,.515,2.45,6.08,6.08,0,0,1-1,2.652,4.487,4.487,0,0,1-1.691,1.532,6.2,6.2,0,0,1-2.365.56,12.878,12.878,0,0,1-2.743-.112.91.91,0,0,1-.058.264.651.651,0,0,1-.41.417,2.328,2.328,0,0,1-.876.039,6.615,6.615,0,0,1-.979-.155,6.162,6.162,0,0,1-.89-.286,1.127,1.127,0,0,1-.479-.313,1.456,1.456,0,0,1-.238-.506c-.012-.038-.023-.078-.033-.118l-1-.064a2.393,2.393,0,0,1-1.507-.64h-1.724a1.038,1.038,0,0,1-.848-.418l-1.964-2.561-.551.927c-.107.18-.347.083-.539,0l-.86-.374c-.206-.088-.385-.2-.592-.113l-.207.091-2.131.581-5.119.172a16.091,16.091,0,0,1-.1-1.77,16.164,16.164,0,0,1,.1-1.775l5.118.171,2.131.583.126.055c.206.089.389-.015.591-.112l.94-.454c.189-.091.432-.18.539,0h0l.59.99,1.926-2.509a1.04,1.04,0,0,1,.848-.419h1.487l.2-.187a2.4,2.4,0,0,1,1.554-.683l1.032-.067h0v0Zm-17,6.788,6.314,1.355a5.27,5.27,0,0,0,2.618.716c.978.035,2.373-.043,3.8-.13a.148.148,0,0,1,.147.086.152.152,0,0,1-.022.168,5.943,5.943,0,0,0-1.143,1.905,37.766,37.766,0,0,0-1.235,4.235,6.322,6.322,0,0,1-.69,2.109c-.258.347-.658.561-1.676.87a.627.627,0,0,1-.519-.062,15.868,15.868,0,0,1-3.136-2.436,15.786,15.786,0,0,1-4.459-8.816Zm8.12-16.073c1.013.308,1.412.521,1.67.866a6.362,6.362,0,0,1,.69,2.109,37.374,37.374,0,0,0,1.235,4.235,5.93,5.93,0,0,0,1.142,1.905.15.15,0,0,1,.023.169.149.149,0,0,1-.146.087c-1.429-.088-2.824-.165-3.8-.13a5.254,5.254,0,0,0-2.618.717l-6.312,1.353a15.787,15.787,0,0,1,4.459-8.811,15.888,15.888,0,0,1,3.141-2.438.626.626,0,0,1,.52-.062Z" transform="translate(1493.189 331.989)" fill="#3d46c2" fill-rule="evenodd"/>
    <path id="Trazado_204436" data-name="Trazado 204436" d="M-1121.05,431.269a18.184,18.184,0,0,0,12.9-5.343,18.186,18.186,0,0,0,5.343-12.9,18.184,18.184,0,0,0-5.343-12.9,18.185,18.185,0,0,0-12.9-5.343,18.186,18.186,0,0,0-12.9,5.343,18.183,18.183,0,0,0-5.343,12.9,18.185,18.185,0,0,0,5.343,12.9,18.184,18.184,0,0,0,12.9,5.343Zm5.014-19.463.013-.007a1.487,1.487,0,0,1,.527-.189,1.058,1.058,0,0,1,.588.145,9.054,9.054,0,0,1,.947.542,7.233,7.233,0,0,1,.795.585,1.775,1.775,0,0,1,.467.538.656.656,0,0,1,.006.528,1.1,1.1,0,0,1-.154.195c-.029.049.053.013.073.031l1.607,1.393a4,4,0,0,1,1.575,2.74c-.008.23-.34.71-.473.723a.682.682,0,0,1,.5.59,3.648,3.648,0,0,1-.07,1.632,5.023,5.023,0,0,1-1.368,2.1,6.083,6.083,0,0,1-2.584,1.166,4.488,4.488,0,0,1-2.279-.112,6.2,6.2,0,0,1-2.068-1.276,12.878,12.878,0,0,1-1.86-2.018.912.912,0,0,1-.228.145.651.651,0,0,1-.584.005,2.332,2.332,0,0,1-.647-.592,6.616,6.616,0,0,1-.583-.8,6.18,6.18,0,0,1-.427-.832,1.129,1.129,0,0,1-.117-.56,1.454,1.454,0,0,1,.19-.526c.018-.036.039-.071.06-.107l-.659-.749a2.4,2.4,0,0,1-.613-1.518l-1.219-1.219a1.037,1.037,0,0,1-.3-.9l.422-3.2-1.046.266c-.2.051-.3-.187-.381-.381l-.344-.872c-.083-.208-.13-.415-.338-.5l-.21-.082-1.918-1.1-3.741-3.5a16.109,16.109,0,0,1,1.183-1.321,16.155,16.155,0,0,1,1.325-1.186l3.5,3.74,1.1,1.919.05.128c.083.208.286.265.5.338l.986.344c.2.07.433.178.381.381h0l-.283,1.117,3.136-.412a1.04,1.04,0,0,1,.9.3l1.051,1.051.271.006a2.4,2.4,0,0,1,1.582.616l.777.683h0Zm-16.821-7.221,3.506,5.423a5.271,5.271,0,0,0,1.345,2.358c.667.716,1.708,1.648,2.781,2.6a.148.148,0,0,1,.043.164.152.152,0,0,1-.135.1,5.945,5.945,0,0,0-2.156.539,37.779,37.779,0,0,0-3.867,2.121,6.316,6.316,0,0,1-1.979,1c-.428.063-.862-.069-1.8-.57a.627.627,0,0,1-.323-.411,15.868,15.868,0,0,1-.5-3.94,15.785,15.785,0,0,1,3.081-9.387Zm17.107-5.623a2.974,2.974,0,0,1,.568,1.793,6.358,6.358,0,0,1-1,1.979,37.427,37.427,0,0,0-2.121,3.868,5.931,5.931,0,0,0-.54,2.155.15.15,0,0,1-.1.135.149.149,0,0,1-.165-.042c-.948-1.072-1.881-2.114-2.6-2.781a5.251,5.251,0,0,0-2.358-1.344l-5.42-3.506a15.787,15.787,0,0,1,9.384-3.078,15.9,15.9,0,0,1,3.945.5.629.629,0,0,1,.412.324Z" transform="translate(1562.072 165.69)" fill="#3d46c2" fill-rule="evenodd"/>
    <path id="Trazado_204438" data-name="Trazado 204438" d="M-1561.4,413.026a18.184,18.184,0,0,0,5.343,12.9,18.187,18.187,0,0,0,12.9,5.343,18.183,18.183,0,0,0,12.9-5.343,18.184,18.184,0,0,0,5.343-12.9,18.186,18.186,0,0,0-5.343-12.9,18.182,18.182,0,0,0-12.9-5.343,18.185,18.185,0,0,0-12.9,5.343,18.184,18.184,0,0,0-5.343,12.9Zm19.463,5.014.007.013a1.493,1.493,0,0,1,.189.527,1.058,1.058,0,0,1-.145.588,9.031,9.031,0,0,1-.542.947,7.256,7.256,0,0,1-.585.795,1.775,1.775,0,0,1-.539.467.654.654,0,0,1-.528.006,1.119,1.119,0,0,1-.195-.154c-.049-.029-.013.053-.031.073l-1.393,1.607a4,4,0,0,1-2.74,1.575c-.23-.008-.71-.34-.723-.473a.682.682,0,0,1-.59.5,3.649,3.649,0,0,1-1.632-.07,5.016,5.016,0,0,1-2.1-1.368,6.082,6.082,0,0,1-1.166-2.584,4.486,4.486,0,0,1,.113-2.279,6.19,6.19,0,0,1,1.276-2.069,12.873,12.873,0,0,1,2.018-1.86.914.914,0,0,1-.145-.228.652.652,0,0,1-.005-.584,2.333,2.333,0,0,1,.592-.647,6.628,6.628,0,0,1,.8-.583,6.2,6.2,0,0,1,.832-.427,1.127,1.127,0,0,1,.56-.117,1.453,1.453,0,0,1,.526.19c.036.018.071.039.107.06l.749-.659a2.393,2.393,0,0,1,1.518-.613l1.219-1.219a1.038,1.038,0,0,1,.9-.3l3.2.421-.266-1.045c-.052-.2.187-.3.381-.381l.873-.344c.209-.083.415-.13.5-.338l.082-.211,1.1-1.918,3.5-3.741a16.183,16.183,0,0,1,1.321,1.182,16.167,16.167,0,0,1,1.186,1.325l-3.74,3.5-1.919,1.095-.128.05c-.209.083-.265.286-.339.5l-.344.986c-.07.2-.178.433-.381.381h0l-1.117-.283.412,3.136a1.039,1.039,0,0,1-.3.9l-1.051,1.051-.006.271a2.4,2.4,0,0,1-.616,1.582l-.683.777h0l0,0Zm7.221-16.821-5.423,3.506a5.268,5.268,0,0,0-2.358,1.344c-.717.667-1.648,1.708-2.6,2.781a.148.148,0,0,1-.164.043.151.151,0,0,1-.1-.134,5.949,5.949,0,0,0-.539-2.156,37.868,37.868,0,0,0-2.121-3.867,6.326,6.326,0,0,1-1-1.979,2.971,2.971,0,0,1,.57-1.8.626.626,0,0,1,.411-.323,15.871,15.871,0,0,1,3.94-.5,15.785,15.785,0,0,1,9.387,3.081Zm5.623,17.107a2.974,2.974,0,0,1-1.793.568,6.354,6.354,0,0,1-1.979-1,37.435,37.435,0,0,0-3.868-2.121,5.936,5.936,0,0,0-2.155-.54.15.15,0,0,1-.135-.1.149.149,0,0,1,.042-.165c1.072-.948,2.114-1.881,2.781-2.6a5.254,5.254,0,0,0,1.344-2.359l3.506-5.42a15.788,15.788,0,0,1,3.078,9.383,15.9,15.9,0,0,1-.5,3.945.627.627,0,0,1-.324.412Z" transform="translate(1894.668 165.691)" fill="#3d46c2" fill-rule="evenodd"/>
    <path id="Trazado_204439" data-name="Trazado 204439" d="M-1643.482,189.07a18.183,18.183,0,0,0-5.343,12.9,18.185,18.185,0,0,0,5.343,12.9,18.183,18.183,0,0,0,12.9,5.343,18.185,18.185,0,0,0,12.9-5.343,18.186,18.186,0,0,0,5.343-12.9,18.184,18.184,0,0,0-5.343-12.9,18.185,18.185,0,0,0-12.9-5.343,18.183,18.183,0,0,0-12.9,5.343Zm10.217,17.308,0,.014a1.489,1.489,0,0,1-.239.506,1.06,1.06,0,0,1-.518.313,9.093,9.093,0,0,1-1.053.286,7.223,7.223,0,0,1-.976.148,1.778,1.778,0,0,1-.711-.05.654.654,0,0,1-.378-.369,1.114,1.114,0,0,1-.029-.247c-.014-.055-.046.028-.073.029l-2.121.151a4,4,0,0,1-3.052-.824,1.145,1.145,0,0,1-.177-.846.683.683,0,0,1-.769-.066,3.652,3.652,0,0,1-1.1-1.2,5.018,5.018,0,0,1-.515-2.45,6.076,6.076,0,0,1,1-2.652,4.484,4.484,0,0,1,1.691-1.532,6.194,6.194,0,0,1,2.365-.561,12.877,12.877,0,0,1,2.742.112.913.913,0,0,1,.058-.264.652.652,0,0,1,.409-.417,2.334,2.334,0,0,1,.876-.039,6.61,6.61,0,0,1,.978.155,6.168,6.168,0,0,1,.891.287,1.125,1.125,0,0,1,.479.313,1.455,1.455,0,0,1,.238.506c.013.038.023.077.033.118l1,.064a2.4,2.4,0,0,1,1.507.64H-1629a1.037,1.037,0,0,1,.848.418l1.964,2.561.551-.927c.107-.18.347-.083.539,0l.86.374c.206.089.385.2.591.113l.207-.091,2.131-.581,5.119-.172a16.121,16.121,0,0,1,.1,1.77,16.2,16.2,0,0,1-.1,1.775l-5.118-.171-2.131-.582-.126-.055c-.206-.089-.389.015-.591.112l-.941.454c-.189.091-.432.18-.539,0h0l-.59-.99-1.926,2.509a1.039,1.039,0,0,1-.849.419h-1.486l-.2.187a2.4,2.4,0,0,1-1.554.684l-1.032.067h0v0Zm17-6.788-6.314-1.355a5.271,5.271,0,0,0-2.618-.717c-.978-.035-2.373.043-3.8.13a.148.148,0,0,1-.147-.086.153.153,0,0,1,.022-.168,5.947,5.947,0,0,0,1.143-1.906,37.855,37.855,0,0,0,1.235-4.234,6.321,6.321,0,0,1,.69-2.109c.258-.347.658-.561,1.676-.87a.626.626,0,0,1,.519.062,15.874,15.874,0,0,1,3.136,2.436,15.787,15.787,0,0,1,4.459,8.816Zm-8.12,16.073c-1.012-.308-1.412-.521-1.67-.867a6.352,6.352,0,0,1-.69-2.109,37.36,37.36,0,0,0-1.235-4.235,5.934,5.934,0,0,0-1.142-1.905.151.151,0,0,1-.023-.169.15.15,0,0,1,.147-.086c1.429.088,2.824.165,3.8.13a5.257,5.257,0,0,0,2.618-.717l6.312-1.353a15.786,15.786,0,0,1-4.459,8.811,15.893,15.893,0,0,1-3.141,2.438.628.628,0,0,1-.52.062Z" transform="translate(1963.551 331.99)" fill="#3d46c2" fill-rule="evenodd"/>
    <path id="Trazado_204440" data-name="Trazado 204440" d="M-1543.16-27.327a18.184,18.184,0,0,0-12.9,5.343,18.186,18.186,0,0,0-5.343,12.9,18.184,18.184,0,0,0,5.343,12.9,18.185,18.185,0,0,0,12.9,5.343,18.187,18.187,0,0,0,12.9-5.343,18.184,18.184,0,0,0,5.343-12.9,18.185,18.185,0,0,0-5.343-12.9,18.183,18.183,0,0,0-12.9-5.343Zm-5.014,19.463-.013.007a1.491,1.491,0,0,1-.527.189,1.059,1.059,0,0,1-.588-.145,9.031,9.031,0,0,1-.947-.543,7.2,7.2,0,0,1-.795-.585,1.77,1.77,0,0,1-.467-.538.654.654,0,0,1-.006-.528,1.111,1.111,0,0,1,.154-.195c.029-.049-.053-.013-.073-.031l-1.607-1.393a4,4,0,0,1-1.575-2.74c.008-.23.34-.71.473-.723a.683.683,0,0,1-.5-.59,3.648,3.648,0,0,1,.07-1.632,5.019,5.019,0,0,1,1.368-2.1,6.08,6.08,0,0,1,2.584-1.166,4.486,4.486,0,0,1,2.279.112,6.191,6.191,0,0,1,2.068,1.276,12.873,12.873,0,0,1,1.86,2.018.914.914,0,0,1,.228-.145.651.651,0,0,1,.584-.006,2.334,2.334,0,0,1,.647.592,6.633,6.633,0,0,1,.583.8,6.207,6.207,0,0,1,.427.832,1.125,1.125,0,0,1,.117.56,1.452,1.452,0,0,1-.19.526c-.018.036-.039.071-.06.107l.659.749a2.4,2.4,0,0,1,.613,1.518l1.219,1.219a1.038,1.038,0,0,1,.3.9l-.422,3.2,1.045-.266c.2-.051.3.187.381.381l.344.873c.083.208.13.415.338.5l.21.082,1.918,1.1,3.741,3.5a16.135,16.135,0,0,1-1.182,1.321,16.149,16.149,0,0,1-1.325,1.186l-3.5-3.74-1.095-1.919-.05-.128c-.083-.208-.286-.265-.5-.338l-.986-.344c-.2-.07-.433-.178-.381-.381h0l.283-1.117-3.136.412a1.04,1.04,0,0,1-.9-.3l-1.051-1.051-.271-.006a2.4,2.4,0,0,1-1.582-.616l-.777-.683h0Zm16.82,7.221-3.506-5.423a5.272,5.272,0,0,0-1.345-2.358c-.667-.716-1.708-1.648-2.78-2.6a.148.148,0,0,1-.043-.165.152.152,0,0,1,.135-.1,5.945,5.945,0,0,0,2.156-.539,37.8,37.8,0,0,0,3.867-2.121,6.317,6.317,0,0,1,1.979-1c.428-.063.862.069,1.8.57a.627.627,0,0,1,.323.411,15.868,15.868,0,0,1,.5,3.94,15.784,15.784,0,0,1-3.081,9.387ZM-1548.46,4.98a2.975,2.975,0,0,1-.568-1.793,6.355,6.355,0,0,1,1-1.979,37.38,37.38,0,0,0,2.121-3.868,5.932,5.932,0,0,0,.54-2.155.15.15,0,0,1,.1-.136.149.149,0,0,1,.165.042c.949,1.072,1.881,2.114,2.6,2.781a5.255,5.255,0,0,0,2.359,1.344l5.42,3.506A15.787,15.787,0,0,1-1544.1,5.8a15.884,15.884,0,0,1-3.945-.5.627.627,0,0,1-.412-.324Z" transform="translate(1894.668 498.287)" fill="#3d46c2" fill-rule="evenodd"/>
    <path id="Trazado_204441" data-name="Trazado 204441" d="M1497.585,3.647a10.136,10.136,0,0,1,10.141,10.141c0,5.6-3.6,14.277-10.141,14.277s-10.141-8.673-10.141-14.277a10.136,10.136,0,0,1,10.141-10.141Zm7.206,27.82,8.873,3.336a9.613,9.613,0,0,1,6.2,7.472l2.6,14.61a20.955,20.955,0,0,1-.4,9.54l-5.137,19.012a4.851,4.851,0,0,1-4.736,3.67h-.6l-2.4,42.564a4.9,4.9,0,0,1-4.87,4.67h-13.476a4.9,4.9,0,0,1-4.87-4.67l-2.4-42.564h-.6a4.851,4.851,0,0,1-4.737-3.67L1473.1,66.425a20.969,20.969,0,0,1-.4-9.54l2.6-14.61a9.616,9.616,0,0,1,6.2-7.472l8.873-3.336a4.7,4.7,0,0,1,2.868-.2l3.2.734a4.364,4.364,0,0,0,2.268,0l3.2-.734a4.718,4.718,0,0,1,2.868.2Zm-4,4.4a17.365,17.365,0,0,1-3.069.267,10.016,10.016,0,0,1-3.269-.4c-.134,0-.267.067-.267.134-.2.6.2,1.134.6,1.668l1.067,1.4-1.935,27.019a2.9,2.9,0,0,0,.467,1.935l2.335,2.8a1.039,1.039,0,0,0,1.735,0l2.335-2.8a2.9,2.9,0,0,0,.467-1.935l-1.935-27.019,1.068-1.4c.4-.467.8-1,.667-1.534-.067-.067-.067-.134-.134-.134-.067-.067-.067-.067-.134,0Z" transform="translate(-495.716 473.882)" fill="#75b62f" fill-rule="evenodd"/>
    <path id="Trazado_204442" data-name="Trazado 204442" d="M1763,3.647a10.136,10.136,0,0,1,10.141,10.141c0,5.6-3.6,14.277-10.141,14.277s-10.141-8.673-10.141-14.277A10.136,10.136,0,0,1,1763,3.647Zm7.205,27.82,8.873,3.336a9.613,9.613,0,0,1,6.2,7.472l2.6,14.61a20.96,20.96,0,0,1-.4,9.54l-5.137,19.012a4.851,4.851,0,0,1-4.736,3.67h-.6l-2.4,42.564a4.9,4.9,0,0,1-4.87,4.67h-13.477a4.9,4.9,0,0,1-4.87-4.67l-2.4-42.564h-.6a4.852,4.852,0,0,1-4.737-3.67l-5.137-19.012a20.969,20.969,0,0,1-.4-9.54l2.6-14.61a9.615,9.615,0,0,1,6.2-7.472l8.872-3.336a4.706,4.706,0,0,1,2.869-.2l3.2.734a4.363,4.363,0,0,0,2.268,0l3.2-.734a4.717,4.717,0,0,1,2.868.2Zm-4,4.4a17.362,17.362,0,0,1-3.069.267,10.02,10.02,0,0,1-3.269-.4c-.134,0-.267.067-.267.134-.2.6.2,1.134.6,1.668l1.067,1.4-1.935,27.019a2.9,2.9,0,0,0,.467,1.935l2.335,2.8a1.039,1.039,0,0,0,1.735,0l2.335-2.8a2.894,2.894,0,0,0,.467-1.935l-1.935-27.019,1.067-1.4c.4-.467.8-1,.667-1.534-.067-.067-.067-.134-.134-.134-.067-.067-.067-.067-.134,0Z" transform="translate(-704.849 473.882)" fill="#75b62f" fill-rule="evenodd"/>
    <path id="Trazado_204443" data-name="Trazado 204443" d="M1232.169,3.647a10.136,10.136,0,0,1,10.141,10.141c0,5.6-3.6,14.277-10.141,14.277s-10.141-8.673-10.141-14.277a10.136,10.136,0,0,1,10.141-10.141Zm7.206,27.82,8.873,3.336a9.613,9.613,0,0,1,6.2,7.472l2.6,14.61a20.955,20.955,0,0,1-.4,9.54l-5.137,19.012a4.85,4.85,0,0,1-4.736,3.67h-.6l-2.4,42.564a4.9,4.9,0,0,1-4.87,4.67h-13.476a4.9,4.9,0,0,1-4.87-4.67l-2.4-42.564h-.6a4.851,4.851,0,0,1-4.737-3.67l-5.137-19.012a20.969,20.969,0,0,1-.4-9.54l2.6-14.61a9.615,9.615,0,0,1,6.2-7.472l8.872-3.336a4.705,4.705,0,0,1,2.868-.2l3.2.734a4.364,4.364,0,0,0,2.268,0l3.2-.734a4.718,4.718,0,0,1,2.868.2Zm-4,4.4a17.359,17.359,0,0,1-3.069.267,10.02,10.02,0,0,1-3.269-.4c-.134,0-.267.067-.267.134-.2.6.2,1.134.6,1.668l1.067,1.4L1228.5,65.958a2.9,2.9,0,0,0,.467,1.935l2.335,2.8a1.039,1.039,0,0,0,1.735,0l2.335-2.8a2.9,2.9,0,0,0,.467-1.935L1233.9,38.939l1.067-1.4c.4-.467.8-1,.667-1.534-.067-.067-.067-.134-.134-.134-.067-.067-.067-.067-.134,0Z" transform="translate(-286.586 473.882)" fill="#75b62f" fill-rule="evenodd"/>
    <path id="Trazado_204444" data-name="Trazado 204444" d="M1404.371-89.873a10.136,10.136,0,0,1,10.14,10.141c0,5.6-3.6,14.277-10.14,14.277s-10.141-8.673-10.141-14.277a10.136,10.136,0,0,1,10.141-10.141Zm9.759,28.781a1.5,1.5,0,0,1,.99,1.414,24.926,24.926,0,0,0,2.922,11.223,1.483,1.483,0,0,1,.082,1.26,1.48,1.48,0,0,1-.893.892l-3.942,1.481a16.415,16.415,0,0,0-3.981,2.155,1.5,1.5,0,0,1-1.547.159,1.5,1.5,0,0,1-.885-1.279l-.773-10.794,1.068-1.4c.4-.467.8-1,.667-1.534-.067-.068-.067-.134-.134-.134-.068-.066-.068-.066-.134,0h0a17.327,17.327,0,0,1-3.069.267,10.031,10.031,0,0,1-3.269-.4c-.134,0-.267.067-.267.134-.2.6.2,1.135.6,1.669l1.068,1.4-.878,12.244a1.5,1.5,0,0,1-.976,1.317,1.5,1.5,0,0,1-1.607-.324,16.218,16.218,0,0,0-5.549-3.477l-3.94-1.481a1.481,1.481,0,0,1-.893-.892,1.482,1.482,0,0,1,.083-1.26,25.058,25.058,0,0,0,2.905-10.578,1.5,1.5,0,0,1,.99-1.368l4.391-1.652a4.7,4.7,0,0,1,2.867-.2l3.2.733a4.347,4.347,0,0,0,2.269,0l3.2-.733a4.726,4.726,0,0,1,2.869.2l2.558.961ZM1411.193,42.82h-13.562a4.821,4.821,0,0,1-2.705-.829,1.492,1.492,0,0,1-.67-1.352l1.1-19.48a1.484,1.484,0,0,1,.693-1.2,11.29,11.29,0,0,0,4.738-6.559l1.2-4.429a1.528,1.528,0,0,1,2.95,0l1.2,4.429a11.291,11.291,0,0,0,4.738,6.559,1.484,1.484,0,0,1,.693,1.2l1.131,20.047a1.528,1.528,0,0,1-1.5,1.614Z" transform="translate(-429.813 547.569)" fill="#3d46c2" fill-rule="evenodd"/>
    <path id="Trazado_204445" data-name="Trazado 204445" d="M1670.532-89.873a10.136,10.136,0,0,1,10.14,10.141c0,5.6-3.6,14.277-10.14,14.277s-10.141-8.673-10.141-14.277a10.136,10.136,0,0,1,10.141-10.141Zm9.759,28.781a1.5,1.5,0,0,1,.99,1.414,24.93,24.93,0,0,0,2.922,11.223,1.481,1.481,0,0,1,.082,1.26,1.479,1.479,0,0,1-.893.892l-3.942,1.481a16.417,16.417,0,0,0-3.981,2.155,1.5,1.5,0,0,1-1.547.159,1.5,1.5,0,0,1-.885-1.279l-.773-10.794,1.068-1.4c.4-.467.8-1,.667-1.534-.067-.068-.067-.134-.134-.134-.068-.066-.068-.066-.134,0h0a17.328,17.328,0,0,1-3.069.267,10.031,10.031,0,0,1-3.269-.4c-.134,0-.267.067-.267.134-.2.6.2,1.135.6,1.669l1.068,1.4-.878,12.244a1.5,1.5,0,0,1-.976,1.317,1.5,1.5,0,0,1-1.607-.324,16.217,16.217,0,0,0-5.549-3.477l-3.94-1.481a1.481,1.481,0,0,1-.893-.892,1.482,1.482,0,0,1,.083-1.26,25.062,25.062,0,0,0,2.905-10.578,1.5,1.5,0,0,1,.99-1.368l4.392-1.652a4.7,4.7,0,0,1,2.867-.2l3.2.733a4.347,4.347,0,0,0,2.269,0l3.2-.733a4.726,4.726,0,0,1,2.869.2l2.557.961ZM1677.355,42.82h-13.562a4.821,4.821,0,0,1-2.7-.829,1.492,1.492,0,0,1-.67-1.352l1.1-19.48a1.485,1.485,0,0,1,.693-1.2,11.29,11.29,0,0,0,4.738-6.559l1.2-4.429a1.528,1.528,0,0,1,2.95,0l1.2,4.429a11.291,11.291,0,0,0,4.738,6.559,1.484,1.484,0,0,1,.693,1.2l1.131,20.047a1.528,1.528,0,0,1-1.5,1.614Z" transform="translate(-639.532 547.569)" fill="#3d46c2" fill-rule="evenodd"/>
    <path id="Trazado_204446" data-name="Trazado 204446" d="M2426.058-87.424l-.033-.01a3.418,3.418,0,0,1-1.179-.555,2.48,2.48,0,0,1-.728-1.207,21.092,21.092,0,0,1-.667-2.451,17.17,17.17,0,0,1-.346-2.273,4.207,4.207,0,0,1,.117-1.658,1.542,1.542,0,0,1,.862-.879,2.757,2.757,0,0,1,.573-.067c.13-.033-.066-.106-.069-.171l-.351-4.94c-.232-2.268.254-5.564,1.919-7.106a2.665,2.665,0,0,1,1.969-.41,1.6,1.6,0,0,1,.15-1.793,8.533,8.533,0,0,1,2.8-2.569,11.679,11.679,0,0,1,5.7-1.2,14.158,14.158,0,0,1,6.174,2.336,10.448,10.448,0,0,1,3.57,3.937,14.412,14.412,0,0,1,1.3,5.505,29.961,29.961,0,0,1-.26,6.387,2.109,2.109,0,0,1,.615.134,1.53,1.53,0,0,1,.971.954,5.5,5.5,0,0,1,.089,2.04,15.567,15.567,0,0,1-.361,2.277,14.358,14.358,0,0,1-.666,2.073,2.626,2.626,0,0,1-.727,1.114,3.464,3.464,0,0,1-1.179.556c-.089.027-.182.052-.276.075l-.15,2.319A5.554,5.554,0,0,1,2444.4-81.5v4.014a2.422,2.422,0,0,1-.975,1.977l-5.96,4.574,2.169,1.367c.419.249.194.807,0,1.255l-.881,1.92c-.209.479-.471.9-.264,1.376l.209.481,1.357,4.964.583,17.463,4.384-20.431a12.266,12.266,0,0,0,1.67-6.1c.081-2.28-.1-5.526-.3-8.855a.348.348,0,0,1,.2-.342.35.35,0,0,1,.392.054,13.832,13.832,0,0,0,4.436,2.66,88.1,88.1,0,0,0,9.861,2.875c2.786.683,4.03.949,4.909,1.606a3.056,3.056,0,0,1,.4.354,1.479,1.479,0,0,1,.42,1.106,1.474,1.474,0,0,1-.5,1.075,9.662,9.662,0,0,0-2.329,3.934c-1.971,5.568-2.03,14.334-2.511,19.2a10.6,10.6,0,0,0,.214,3.441,1.48,1.48,0,0,1-.245,1.233,1.48,1.48,0,0,1-1.086.633,234.7,234.7,0,0,1-42.946.443,1.479,1.479,0,0,1-1.108-.616,1.482,1.482,0,0,1-.261-1.241,11.474,11.474,0,0,0,.267-2.506V-56.711c0-4.64-1.848-9.894-5.424-12.974a1.5,1.5,0,0,1-.489-1.513,1.5,1.5,0,0,1,1.121-1.128,84.411,84.411,0,0,0,9.517-2.792,13.824,13.824,0,0,0,4.439-2.659.348.348,0,0,1,.392-.054.349.349,0,0,1,.2.342c-.2,3.326-.384,6.575-.3,8.855a12.264,12.264,0,0,0,1.67,6.1l4.382,20.431.585-17.464,1.361-5.143.127-.3c.207-.479-.04-.726-.266-1.194l-1.056-2.191c-.212-.441-.419-1.006,0-1.255h0l2.3-1.373-5.842-4.484a2.421,2.421,0,0,1-.974-1.977v-3.461l-.437-.458a5.57,5.57,0,0,1-1.592-3.619l-.156-2.4h0Z" transform="translate(-1234.968 567.169)" fill="#3d46c2" fill-rule="evenodd"/>
    <path id="Trazado_204447" data-name="Trazado 204447" d="M2176.791-50.745l-.029-.008a3.038,3.038,0,0,1-1.05-.5,2.208,2.208,0,0,1-.648-1.075,18.739,18.739,0,0,1-.6-2.184,15.4,15.4,0,0,1-.308-2.025,3.73,3.73,0,0,1,.1-1.477,1.369,1.369,0,0,1,.767-.783,2.5,2.5,0,0,1,.512-.06c.114-.029-.06-.094-.062-.152l-1.548-4.346c-2.1-4.863,2-7.614,4.7-6.749-.755-1.393,1.531-3.4,2.631-3.886,4.627-2.05,8.992-.852,13.052,1.763,2.636,1.564,3.481-.825,3.952-.478,1.707,1.26,2.186,6.252-1.68,9.48.387,2.219.036,3.344-.634,4.347a1.851,1.851,0,0,1,.548.119,1.361,1.361,0,0,1,.865.85,4.913,4.913,0,0,1,.08,1.818,13.9,13.9,0,0,1-.323,2.029,12.831,12.831,0,0,1-.593,1.846,2.344,2.344,0,0,1-.648.992,3.083,3.083,0,0,1-1.051.5c-.079.024-.161.046-.245.067l-.135,2.065a4.943,4.943,0,0,1-1.326,3.124v3.575a2.153,2.153,0,0,1-.868,1.761l-5.308,5.364a1.644,1.644,0,0,1-1.018.381,1.744,1.744,0,0,1-1.024-.386l-5.3-5.357a2.159,2.159,0,0,1-.869-1.761v-3.084l-.389-.408a4.959,4.959,0,0,1-1.418-3.224l-.139-2.14h0Zm.5,8.847a.308.308,0,0,0-.178-.3,1.137,1.137,0,0,0-.947.211l-6.586,4.118c-8.041,2.231-10.263,5.6-10.756,12.462v14.168a2.467,2.467,0,0,0,2.44,2.663,172.949,172.949,0,0,0,21.11,1.438l1.475-25.476c.026-.448-1.679-1.09-3.82.955-.783.749-2.25.7-2.483-.276-.7-2.934-.48-6.242-.255-9.96Zm17.306,0a.308.308,0,0,1,.178-.3,1.137,1.137,0,0,1,.947.211l6.586,4.118c8.041,2.231,10.264,5.6,10.756,12.462v13.132c0,3.008-1.468,3.573-2.44,3.7a172.952,172.952,0,0,1-21.11,1.438l-1.475-25.476c-.026-.448,1.679-1.09,3.82.955.782.749,2.25.7,2.483-.276.7-2.934.48-6.242.254-9.96Z" transform="translate(-1036.629 535.867)" fill="#3d46c2" fill-rule="evenodd"/>
    <path id="Trazado_204448" data-name="Trazado 204448" d="M2705.99-31.78a7.055,7.055,0,0,1-7.663,0,.207.207,0,0,0-.229,0,.206.206,0,0,0-.1.207,83.424,83.424,0,0,1,.65,8.512V-6.415q3.509-.01,7.016-.022V-23.063a83.408,83.408,0,0,1,.651-8.514.208.208,0,0,0-.1-.207.208.208,0,0,0-.229,0Zm-10.87-7.931c-.187-.625-.374-1.248-.556-1.866,2.287,1.812,4.6,3.559,7.707,3.537,2.313-.017,6.443-2.476,7.881-4.428-.31.91-.662,1.8-1.021,2.691a.209.209,0,0,0,.055.237.209.209,0,0,0,.242.028,12.378,12.378,0,0,0,2.293-1.526,21.694,21.694,0,0,0,2.546-2.873l-.868,2.451a37.22,37.22,0,0,0,3.143-2.816,21.23,21.23,0,0,0,2.138-2.766c-.566-4.011-1.131-8.022-1.792-11.216a29.879,29.879,0,0,0-2.445-7.6,15.627,15.627,0,0,0-4.037-5.111,13.876,13.876,0,0,0-5.885-2.923,11.242,11.242,0,0,0-5.853.427,13.982,13.982,0,0,0-3.98,2.4,9.226,9.226,0,0,0-2.59,1.3,9,9,0,0,0-2.949,4.212,55.909,55.909,0,0,0-2.521,9.368,66.2,66.2,0,0,0-.937,6.91c-.106,1.314-.081,1.477.246,2.024a15.712,15.712,0,0,0,1.754,2.358,30.664,30.664,0,0,0,2.734,2.54q-.17-.887-.339-1.773c1.818,2.876,2.076,3.121,4.723,4.671a.207.207,0,0,0,.238-.016.208.208,0,0,0,.072-.227Zm-2.279-19.252,1.012.26a.409.409,0,0,0,.34-.059.407.407,0,0,0,.184-.292,10.382,10.382,0,0,1,.7-2.795,15.211,15.211,0,0,1,2.025-3.036,33.2,33.2,0,0,0-1.145,3.6,7.149,7.149,0,0,0-.159,1.919.423.423,0,0,0,.417.406l2.158.028a.422.422,0,0,0,.427-.381c.1-1,.208-1.99.37-2.865a24.689,24.689,0,0,1,.686-2.672c-.164,1.346-.327,2.691-.346,3.735a11.277,11.277,0,0,0,.161,2.1.409.409,0,0,0,.175.28.408.408,0,0,0,.322.069l.011,0a.421.421,0,0,0,.344-.429c-.033-1.048-.057-2.088.005-3.052a26.369,26.369,0,0,1,.421-3.037c-.012,1.459-.025,2.918.032,3.936a11.888,11.888,0,0,0,.289,2.088.406.406,0,0,0,.071.16l.111.152a.413.413,0,0,0,.374.172l3.125-.234a.413.413,0,0,0,.343-.224.412.412,0,0,0-.008-.409,12.412,12.412,0,0,1-.728-1.41,5.622,5.622,0,0,1-.364-1.515,8.069,8.069,0,0,0,1.484,2.05,5.475,5.475,0,0,0,.887.635.417.417,0,0,0,.5-.049.418.418,0,0,0,.1-.489c-.028-.062-.054-.125-.08-.191a11.2,11.2,0,0,1-.477-2.069,11.087,11.087,0,0,0,1.823,2.578,8.247,8.247,0,0,0,2.477,1.421c.183,2.251.895,11.578-.422,13.135-2.18,2.6-4.676,4.989-8.339,5.2a10.736,10.736,0,0,1-8.16-4.99c-1.883-2.218-1.552-10.786-1.148-13.727Zm26.526,52.489h4.119a5.261,5.261,0,0,0,4.027-1.784,5.262,5.262,0,0,0,1.382-4.183c-.616-6.25-1.193-14.849-1.649-16.423-.658-2.274-1.062-3.1-1.755-3.616s-1.677-.729-3.876-1.269l-2.127-.531c-1.286-.4-2.406-.693-3.443-1.012a15.066,15.066,0,0,1-6.2-3.38.277.277,0,0,0-.31-.042.278.278,0,0,0-.157.27,6.927,6.927,0,0,1-.872,4.859,74.018,74.018,0,0,0-1.129,10.7V-6.44l11.986-.034Zm-34.417,0h-4.119a5.261,5.261,0,0,1-4.027-1.784,5.264,5.264,0,0,1-1.383-4.183c.616-6.25,1.194-14.849,1.65-16.423.658-2.274,1.062-3.1,1.755-3.616s1.677-.729,3.875-1.269l2.128-.531c1.286-.4,2.406-.693,3.443-1.012a15.069,15.069,0,0,0,6.2-3.38.277.277,0,0,1,.309-.042.278.278,0,0,1,.158.27,6.927,6.927,0,0,0,.872,4.859,74.059,74.059,0,0,1,1.129,10.7V-6.44l-11.987-.034Z" transform="translate(-1443.65 535.142)" fill="#3d46c2" fill-rule="evenodd"/>
    <path id="Trazado_204449" data-name="Trazado 204449" d="M2317.632,273.754a24.737,24.737,0,0,0,10.521,20.5,4.987,4.987,0,0,1,1.881,5.72,81.976,81.976,0,0,1-4.519,10.9,4.988,4.988,0,0,1-5.375,2.712,24.8,24.8,0,0,0-28.674,28.675,4.985,4.985,0,0,1-2.712,5.375,82.124,82.124,0,0,1-10.9,4.52,4.987,4.987,0,0,1-5.722-1.884,24.8,24.8,0,0,0-40.555,0,4.99,4.99,0,0,1-5.722,1.884,82.089,82.089,0,0,1-10.9-4.52,4.987,4.987,0,0,1-2.712-5.375,24.8,24.8,0,0,0-28.675-28.675,4.987,4.987,0,0,1-5.374-2.712,81.792,81.792,0,0,1-4.522-10.9,4.986,4.986,0,0,1,1.883-5.72,24.735,24.735,0,0,0,10.522-20.5,2.535,2.535,0,0,1,2.548-2.57h22.977a2.549,2.549,0,0,1,2.547,2.563,37.7,37.7,0,1,0,75.4,0,2.537,2.537,0,0,1,2.548-2.563h22.98a2.535,2.535,0,0,1,2.548,2.57Z" transform="translate(-1048.121 263.08)" fill="#75b62f" fill-rule="evenodd"/>
    <path id="Trazado_204450" data-name="Trazado 204450" d="M500.3-86.973l-.033-.01a3.467,3.467,0,0,1-1.2-.565,2.52,2.52,0,0,1-.74-1.226,21.443,21.443,0,0,1-.679-2.493,17.577,17.577,0,0,1-.352-2.31,4.271,4.271,0,0,1,.119-1.685,1.563,1.563,0,0,1,.875-.893,2.826,2.826,0,0,1,.583-.069c.131-.034-.067-.108-.07-.173l-.357-5.022c-.235-2.306.259-5.656,1.95-7.224a2.707,2.707,0,0,1,2-.416,1.623,1.623,0,0,1,.153-1.823,8.688,8.688,0,0,1,2.85-2.612,11.886,11.886,0,0,1,5.8-1.22,14.405,14.405,0,0,1,6.276,2.375,10.624,10.624,0,0,1,3.628,4,14.65,14.65,0,0,1,1.325,5.6,30.481,30.481,0,0,1-.265,6.493,2.155,2.155,0,0,1,.626.136,1.557,1.557,0,0,1,.987.97,5.592,5.592,0,0,1,.091,2.074,15.781,15.781,0,0,1-.367,2.315,14.66,14.66,0,0,1-.677,2.107,2.673,2.673,0,0,1-.739,1.132,3.528,3.528,0,0,1-1.2.565c-.09.027-.185.053-.28.076l-.153,2.357a5.648,5.648,0,0,1-1.513,3.565v4.08a2.461,2.461,0,0,1-.991,2.01l-6.058,4.649,2.192,1.305c.426.253.2.82,0,1.275l-.883,2.037c-.212.487-.478.913-.269,1.4l.212.489,1.38,5.045.593,17.753,4.456-20.771a12.467,12.467,0,0,0,1.7-6.2c.082-2.318-.1-5.618-.308-9a.354.354,0,0,1,.2-.347.356.356,0,0,1,.4.055,14.082,14.082,0,0,0,4.51,2.7A89.557,89.557,0,0,0,536.1-71.542c2.832.695,4.1.965,4.991,1.633s1.415,1.731,2.263,4.659c.528,1.827,1.185,17.464,1.888,20.288a4.592,4.592,0,0,1-.685,3.825,4.594,4.594,0,0,1-3.311,2.033,240.5,240.5,0,0,1-60.99-.033,4.591,4.591,0,0,1-3.328-2.025,4.6,4.6,0,0,1-.69-3.837c.7-2.808,1.352-18.431,1.878-20.248.848-2.928,1.368-3.99,2.26-4.659s2.16-.938,4.993-1.633a88.908,88.908,0,0,0,10.022-2.924,14.074,14.074,0,0,0,4.512-2.7.352.352,0,0,1,.4-.055.355.355,0,0,1,.2.347c-.206,3.382-.39,6.684-.308,9a12.468,12.468,0,0,0,1.7,6.2L506.351-40.9l.6-17.754,1.38-5.045.13-.3c.21-.487-.037-.921-.267-1.4l-1.073-2.227c-.216-.447-.426-1.022,0-1.275h0l2.343-1.4-5.938-4.559a2.461,2.461,0,0,1-.991-2.01v-3.519l-.444-.465a5.662,5.662,0,0,1-1.619-3.68l-.159-2.442h0Z" transform="translate(289.259 567.169)" fill="#75b62f" fill-rule="evenodd"/>
    <path id="Trazado_204451" data-name="Trazado 204451" d="M324.444,327.391,335.7,310.767a1.02,1.02,0,0,1,1.548-.166,15.757,15.757,0,0,0,4.331,2.939,1.02,1.02,0,0,1,.421,1.5l-11.259,16.623a1.02,1.02,0,0,1-1.569.144,13.294,13.294,0,0,0-4.283-2.905,1.018,1.018,0,0,1-.447-1.51ZM388.85,269.75h4.531a1.022,1.022,0,0,1,1.019,1.019v11.867a1.02,1.02,0,0,1-1.144,1.012,17.556,17.556,0,0,0-4.282,0,1.018,1.018,0,0,1-1.143-1.011V270.769a1.021,1.021,0,0,1,1.019-1.019ZM364.636,295.4h9.96a1.02,1.02,0,0,1,1.006,1.189,15.818,15.818,0,0,0,0,5.267,1.019,1.019,0,0,1-1,1.189h-9.96a1.019,1.019,0,0,1-1.005-1.189,15.8,15.8,0,0,0,0-5.267,1.019,1.019,0,0,1,1.005-1.189Zm43,0h9.96a1.02,1.02,0,0,1,1.005,1.189,15.812,15.812,0,0,0,0,5.267,1.02,1.02,0,0,1-1,1.189h-9.96a1.019,1.019,0,0,1-1.006-1.189,15.79,15.79,0,0,0,0-5.267,1.02,1.02,0,0,1,1.006-1.189Zm38.894,15.366,11.258,16.624a1.019,1.019,0,0,1-.447,1.51,13.3,13.3,0,0,0-4.283,2.905,1.019,1.019,0,0,1-1.569-.144L440.23,315.039a1.02,1.02,0,0,1,.42-1.5,15.757,15.757,0,0,0,4.331-2.939,1.02,1.02,0,0,1,1.548.166Zm-8.966,5.057-.249,11.507a1.019,1.019,0,0,1-1.28.963,13.281,13.281,0,0,0-3.411-.443,13.422,13.422,0,0,0-1.764.117,1.02,1.02,0,0,1-1.154-1.033l.245-11.276a1.019,1.019,0,0,1,1.21-.979,15.85,15.85,0,0,0,5.238.113,1.019,1.019,0,0,1,1.166,1.031Zm-37.4-2.26,4.571,13.081a1.019,1.019,0,0,1-.821,1.346,13.185,13.185,0,0,0-4.891,1.709,1.019,1.019,0,0,1-1.481-.541l-4.571-13.081a1.019,1.019,0,0,1,.792-1.341,15.6,15.6,0,0,0,4.946-1.728,1.018,1.018,0,0,1,1.455.556Zm-10.9,2.513-4.572,13.081a1.018,1.018,0,0,1-1.48.541,13.2,13.2,0,0,0-4.891-1.709,1.018,1.018,0,0,1-.821-1.346l4.571-13.081a1.019,1.019,0,0,1,1.455-.555,15.619,15.619,0,0,0,4.947,1.728,1.019,1.019,0,0,1,.791,1.341Zm-36.979-.417.247,11.376a1.019,1.019,0,0,1-1.2,1.026,13.366,13.366,0,0,0-5.18.111,1.019,1.019,0,0,1-1.239-.973l-.246-11.377a1.018,1.018,0,0,1,1.166-1.03,15.876,15.876,0,0,0,5.238-.113,1.02,1.02,0,0,1,1.21.98Z" transform="translate(408.885 264.21)" fill="#f85316"/>
    <path id="Trazado_204452" data-name="Trazado 204452" d="M794.777,348.466A12.78,12.78,0,1,1,782,361.246a12.781,12.781,0,0,1,12.78-12.78Z" transform="translate(48.222 202.187)" fill="#3d46c2" fill-rule="evenodd"/>
    <path id="Trazado_204453" data-name="Trazado 204453" d="M592.014,348.466a12.78,12.78,0,1,1-12.78,12.78,12.78,12.78,0,0,1,12.78-12.78Z" transform="translate(207.986 202.187)" fill="#3d46c2" fill-rule="evenodd"/>
    <path id="Trazado_204454" data-name="Trazado 204454" d="M389.251,348.466a12.78,12.78,0,1,1-12.78,12.78,12.781,12.781,0,0,1,12.78-12.78Z" transform="translate(367.75 202.187)" fill="#3d46c2" fill-rule="evenodd"/>
    <path id="Trazado_204461" data-name="Trazado 204461" d="M-427.721-114.749a12.457,12.457,0,0,1,12.463,12.463c0,6.887-4.428,17.546-12.463,17.546s-12.463-10.658-12.463-17.546a12.457,12.457,0,0,1,12.463-12.463Zm19.76,38.289a11.814,11.814,0,0,1,7.624,9.183l3.2,17.955a25.754,25.754,0,0,1-.492,11.724l-6.313,23.366a5.961,5.961,0,0,1-5.821,4.51h-.738l-2.952,52.31a6.027,6.027,0,0,1-5.985,5.739H-436a6.026,6.026,0,0,1-5.985-5.739l-2.952-52.31h-.738a5.962,5.962,0,0,1-5.822-4.51L-457.813-37.6a25.768,25.768,0,0,1-.493-11.724l3.2-17.955a11.817,11.817,0,0,1,7.625-9.183l10.9-4.1a5.783,5.783,0,0,1,3.525-.246l3.935.9a5.363,5.363,0,0,0,2.788,0l3.935-.9a5.8,5.8,0,0,1,3.525.246l10.909,4.1Zm-15.824,1.312a21.353,21.353,0,0,1-3.772.328,12.323,12.323,0,0,1-4.018-.492c-.164,0-.328.082-.328.165-.246.738.246,1.394.738,2.05l1.312,1.722-2.378,33.206a3.564,3.564,0,0,0,.574,2.378l2.869,3.443a1.194,1.194,0,0,0,1.066.574,1.2,1.2,0,0,0,1.066-.574l2.869-3.443a3.557,3.557,0,0,0,.574-2.378l-2.378-33.206,1.312-1.722c.492-.574.984-1.23.82-1.885a.25.25,0,0,0-.327-.164Z" transform="translate(1025.855 567.17)" fill="#75b62f" fill-rule="evenodd"/>
    <path id="Trazado_204462" data-name="Trazado 204462" d="M-627.994,26.713c.469-.122.594-.745.011-.8l-4.547-.678a17.121,17.121,0,0,0-17.976,9.122L-696.33,120.98c-1.7,3.21.536,5.868,4.119,5.868h53.3a2.465,2.465,0,0,0,1.838-.783,2.461,2.461,0,0,0,.708-1.867l-.771-18.124a.8.8,0,0,0-.64-.864c-1.952-.642-5.189-1.469-6.983-6.982l-6.413-23.794s-1.914-6.021-.77-11.611l3.637-21.045c.486-3.805,2.571-10.655,12.062-13.044l8.252-2.022Zm25.246,0c-.469-.122-.594-.745-.012-.8l4.548-.678a17.121,17.121,0,0,1,17.976,9.122l45.825,86.628c1.7,3.21-.536,5.868-4.119,5.868h-53.3a2.465,2.465,0,0,1-1.838-.783,2.46,2.46,0,0,1-.708-1.867l.771-18.124a.8.8,0,0,1,.64-.864c1.952-.642,5.189-1.469,6.983-6.982l6.413-23.794s1.914-6.021.77-11.611l-3.637-21.045C-582.92,37.974-585,31.124-594.5,28.735l-8.251-2.022Z" transform="translate(1213.504 457.02)" fill="#3d46c2" fill-rule="evenodd"/>
  </g>
</svg>
