<svg xmlns="http://www.w3.org/2000/svg" width="97.689" height="97.689" viewBox="0 0 97.689 97.689">
  <g id="empoderamiento" transform="translate(-2 -2)">
    <ellipse id="Elipse_5700" data-name="Elipse 5700" cx="29" cy="29.5" rx="29" ry="29.5" transform="translate(21.815 3.815)" fill="#dce736"/>
    <path id="Trazado_204146" data-name="Trazado 204146" d="M51.121,13.884a4.07,4.07,0,0,0-4.07,4.07V13.07a4.07,4.07,0,1,0-8.141,0,4.07,4.07,0,1,0-8.141,0v3.256a4.07,4.07,0,0,0-8.141,0v8.4l.033-.011A7.2,7.2,0,0,0,21,29.287V39.463a5.424,5.424,0,0,0,1.649,3.9l4.863,4.717v7.47a29.4,29.4,0,0,0,22.794,0v-7.47A7.144,7.144,0,0,0,55.191,41.3V26.91l-.081,0a4.149,4.149,0,0,0,.081-.811V17.955A4.07,4.07,0,0,0,51.121,13.884Z" transform="translate(11.935 4.397)" fill="#ffd6a8"/>
    <path id="Trazado_204148" data-name="Trazado 204148" d="M9.513,49H6.256A3.266,3.266,0,0,0,3,52.256v6.513L4.628,60.4v8.141h6.513V60.4l1.628-1.628V52.256A3.266,3.266,0,0,0,9.513,49Z" transform="translate(0.628 29.523)" fill="#75b62f"/>
    <path id="Trazado_204149" data-name="Trazado 204149" d="M19.513,49H16.256A3.266,3.266,0,0,0,13,52.256v6.513L14.628,60.4v8.141h6.513V60.4l1.628-1.628V52.256A3.266,3.266,0,0,0,19.513,49Z" transform="translate(6.91 29.523)" fill="#75b62f"/>
    <path id="Trazado_204150" data-name="Trazado 204150" d="M29.513,49H26.256A3.266,3.266,0,0,0,23,52.256v6.513L24.628,60.4v8.141h6.513V60.4l1.628-1.628V52.256A3.266,3.266,0,0,0,29.513,49Z" transform="translate(13.191 29.523)" fill="#75b62f"/>
    <path id="Trazado_204151" data-name="Trazado 204151" d="M41.513,49H38.256A3.266,3.266,0,0,0,35,52.256v6.513L36.628,60.4v8.141h6.513V60.4l1.628-1.628V52.256A3.266,3.266,0,0,0,41.513,49Z" transform="translate(20.729 29.523)" fill="#75b62f"/>
    <path id="Trazado_204152" data-name="Trazado 204152" d="M51.513,49H48.256A3.266,3.266,0,0,0,45,52.256v6.513L46.628,60.4v8.141h6.513V60.4l1.628-1.628V52.256A3.266,3.266,0,0,0,51.513,49Z" transform="translate(27.01 29.523)" fill="#75b62f"/>
    <path id="Trazado_204153" data-name="Trazado 204153" d="M61.513,49H58.256A3.266,3.266,0,0,0,55,52.256v6.513L56.628,60.4v8.141h6.513V60.4l1.628-1.628V52.256A3.266,3.266,0,0,0,61.513,49Z" transform="translate(33.292 29.523)" fill="#75b62f"/>
    <g id="Grupo_150429" data-name="Grupo 150429" transform="translate(5.002 72.167)">
      <circle id="Elipse_5701" data-name="Elipse 5701" cx="3.5" cy="3.5" r="3.5" transform="translate(-0.187 -0.352)" fill="#ffd6a8"/>
      <circle id="Elipse_5702" data-name="Elipse 5702" cx="3.5" cy="3.5" r="3.5" transform="translate(16.813 -0.352)" fill="#ffd6a8"/>
      <circle id="Elipse_5703" data-name="Elipse 5703" cx="3.5" cy="3.5" r="3.5" transform="translate(32.813 -0.352)" fill="#ffd6a8"/>
      <circle id="Elipse_5704" data-name="Elipse 5704" cx="3.5" cy="3.5" r="3.5" transform="translate(51.813 -0.352)" fill="#ffd6a8"/>
      <circle id="Elipse_5705" data-name="Elipse 5705" cx="3.5" cy="3.5" r="3.5" transform="translate(67.813 -0.352)" fill="#ffd6a8"/>
      <circle id="Elipse_5706" data-name="Elipse 5706" cx="3.5" cy="3.5" r="3.5" transform="translate(84.813 -0.352)" fill="#ffd6a8"/>
    </g>
    <path id="Trazado_204154" data-name="Trazado 204154" d="M3.628,64.212v7.467a1.627,1.627,0,0,0,1.628,1.628h6.513A1.627,1.627,0,0,0,13.4,71.679V64.212l1.151-1.151a1.621,1.621,0,0,0,.477-1.151V55.4a4.874,4.874,0,0,0-2.281-4.118,4.831,4.831,0,0,0,.653-2.4,4.884,4.884,0,1,0-9.769,0,4.831,4.831,0,0,0,.653,2.4A4.874,4.874,0,0,0,2,55.4V61.91a1.621,1.621,0,0,0,.477,1.151ZM8.513,47.256a1.628,1.628,0,1,1-1.628,1.628A1.629,1.629,0,0,1,8.513,47.256ZM5.256,55.4a1.629,1.629,0,0,1,1.628-1.628h3.256A1.629,1.629,0,0,1,11.769,55.4v5.839l-1.151,1.151a1.621,1.621,0,0,0-.477,1.151V70.05H6.884V63.538a1.621,1.621,0,0,0-.477-1.151L5.256,61.236Z" transform="translate(0 26.382)"/>
    <path id="Trazado_204155" data-name="Trazado 204155" d="M21.769,73.307A1.627,1.627,0,0,0,23.4,71.679V64.212l1.151-1.151a1.621,1.621,0,0,0,.477-1.151V55.4a4.874,4.874,0,0,0-2.281-4.118,4.831,4.831,0,0,0,.653-2.4,4.884,4.884,0,0,0-9.769,0,4.831,4.831,0,0,0,.653,2.4A4.874,4.874,0,0,0,12,55.4V61.91a1.621,1.621,0,0,0,.477,1.151l1.151,1.151v7.467a1.627,1.627,0,0,0,1.628,1.628Zm-3.256-26.05a1.628,1.628,0,1,1-1.628,1.628A1.629,1.629,0,0,1,18.513,47.256ZM15.256,55.4a1.629,1.629,0,0,1,1.628-1.628h3.256A1.629,1.629,0,0,1,21.769,55.4v5.839l-1.151,1.151a1.621,1.621,0,0,0-.477,1.151V70.05H16.884V63.538a1.621,1.621,0,0,0-.477-1.151l-1.151-1.151Z" transform="translate(6.281 26.382)"/>
    <path id="Trazado_204156" data-name="Trazado 204156" d="M25.256,73.307h6.513A1.627,1.627,0,0,0,33.4,71.679V64.212l1.151-1.151a1.621,1.621,0,0,0,.477-1.151V55.4a4.874,4.874,0,0,0-2.281-4.118,4.831,4.831,0,0,0,.653-2.4,4.884,4.884,0,1,0-9.769,0,4.831,4.831,0,0,0,.653,2.4A4.874,4.874,0,0,0,22,55.4V61.91a1.621,1.621,0,0,0,.477,1.151l1.151,1.151v7.467a1.627,1.627,0,0,0,1.628,1.628Zm3.256-26.05a1.628,1.628,0,1,1-1.628,1.628A1.629,1.629,0,0,1,28.513,47.256ZM25.256,55.4a1.629,1.629,0,0,1,1.628-1.628h3.256A1.629,1.629,0,0,1,31.769,55.4v5.839l-1.151,1.151a1.621,1.621,0,0,0-.477,1.151V70.05H26.884V63.538a1.621,1.621,0,0,0-.477-1.151l-1.151-1.151Z" transform="translate(12.563 26.382)"/>
    <path id="Trazado_204157" data-name="Trazado 204157" d="M37.256,73.307h6.513A1.627,1.627,0,0,0,45.4,71.679V64.212l1.151-1.151a1.621,1.621,0,0,0,.477-1.151V55.4a4.874,4.874,0,0,0-2.281-4.118,4.831,4.831,0,0,0,.653-2.4,4.884,4.884,0,0,0-9.769,0,4.831,4.831,0,0,0,.653,2.4A4.874,4.874,0,0,0,34,55.4V61.91a1.621,1.621,0,0,0,.477,1.151l1.151,1.151v7.467A1.627,1.627,0,0,0,37.256,73.307Zm3.256-26.05a1.628,1.628,0,1,1-1.628,1.628A1.629,1.629,0,0,1,40.513,47.256ZM37.256,55.4a1.629,1.629,0,0,1,1.628-1.628h3.256A1.629,1.629,0,0,1,43.769,55.4v5.839l-1.151,1.151a1.621,1.621,0,0,0-.477,1.151V70.05H38.884V63.538a1.621,1.621,0,0,0-.477-1.151l-1.151-1.151Z" transform="translate(20.101 26.382)"/>
    <path id="Trazado_204158" data-name="Trazado 204158" d="M55.4,71.679V64.212l1.151-1.151a1.621,1.621,0,0,0,.477-1.151V55.4a4.874,4.874,0,0,0-2.281-4.118,4.831,4.831,0,0,0,.653-2.4,4.884,4.884,0,1,0-9.769,0,4.831,4.831,0,0,0,.653,2.4A4.874,4.874,0,0,0,44,55.4V61.91a1.621,1.621,0,0,0,.477,1.151l1.151,1.151v7.467a1.627,1.627,0,0,0,1.628,1.628h6.513A1.627,1.627,0,0,0,55.4,71.679ZM50.513,47.256a1.628,1.628,0,1,1-1.628,1.628A1.629,1.629,0,0,1,50.513,47.256Zm1.628,16.281V70.05H48.884V63.538a1.621,1.621,0,0,0-.477-1.151l-1.151-1.151V55.4a1.629,1.629,0,0,1,1.628-1.628h3.256A1.629,1.629,0,0,1,53.769,55.4v5.839l-1.151,1.151A1.621,1.621,0,0,0,52.141,63.538Z" transform="translate(26.382 26.382)"/>
    <path id="Trazado_204159" data-name="Trazado 204159" d="M64.744,51.279a4.831,4.831,0,0,0,.653-2.4,4.884,4.884,0,1,0-9.769,0,4.831,4.831,0,0,0,.653,2.4A4.874,4.874,0,0,0,54,55.4V61.91a1.621,1.621,0,0,0,.477,1.151l1.151,1.151v7.467a1.627,1.627,0,0,0,1.628,1.628h6.513A1.627,1.627,0,0,0,65.4,71.679V64.212l1.151-1.151a1.621,1.621,0,0,0,.477-1.151V55.4A4.874,4.874,0,0,0,64.744,51.279Zm-4.232-4.023a1.628,1.628,0,1,1-1.628,1.628A1.629,1.629,0,0,1,60.513,47.256Zm3.256,13.979-1.151,1.151a1.621,1.621,0,0,0-.477,1.151V70.05H58.884V63.538a1.621,1.621,0,0,0-.477-1.151l-1.151-1.151V55.4a1.629,1.629,0,0,1,1.628-1.628h3.256A1.629,1.629,0,0,1,63.769,55.4Z" transform="translate(32.664 26.382)"/>
    <path id="Trazado_204160" data-name="Trazado 204160" d="M43.935,2A30.935,30.935,0,1,0,74.87,32.935,30.969,30.969,0,0,0,43.935,2ZM53.7,52.473V58.8a27.214,27.214,0,0,1-19.538,0V52.473a1.624,1.624,0,0,0-.495-1.169l-4.865-4.718a3.814,3.814,0,0,1-1.153-2.726V33.684a5.639,5.639,0,0,1,5.633-5.633H39.6a2.822,2.822,0,0,1,2.048.887,2.289,2.289,0,0,1,.646,1.636c0,.047-.01.094-.015.142a2.4,2.4,0,0,1-.184.751c-.015.033-.034.062-.05.093a2.413,2.413,0,0,1-.459.664,2.446,2.446,0,0,1-1.726.712h-5.7a1.627,1.627,0,0,0-1.628,1.628v3.256a1.672,1.672,0,0,0,.492,1.166,8.5,8.5,0,0,0,4.4,2.257,8.169,8.169,0,0,1,6.5,7.975h3.256a11.435,11.435,0,0,0-9.1-11.164,5.673,5.673,0,0,1-2.292-.972v-.889h4.07A5.734,5.734,0,0,0,43.9,34.527c.016-.016.028-.036.044-.054a5.67,5.67,0,0,0,8.136,0,5.611,5.611,0,0,0,6.513,1.151V45.7a5.515,5.515,0,0,1-3.772,5.23A1.625,1.625,0,0,0,53.7,52.473ZM29.281,25.758V20.724a2.442,2.442,0,1,1,4.884,0v4.07h-.879A8.817,8.817,0,0,0,29.281,25.758Zm8.141-.964V17.467a2.442,2.442,0,1,1,4.884,0V25.46a6.049,6.049,0,0,0-2.7-.666Zm8.141,5.7V17.467a2.442,2.442,0,1,1,4.884,0V30.493a2.442,2.442,0,1,1-4.884,0Zm8.141,0V22.352a2.442,2.442,0,1,1,4.884,0v8.141a2.442,2.442,0,1,1-4.884,0ZM56.96,57.344V53.559A8.763,8.763,0,0,0,61.844,45.7V31.307h-.083a5.607,5.607,0,0,0,.083-.814V22.352a5.7,5.7,0,0,0-5.7-5.7,5.625,5.625,0,0,0-2.465.585,5.677,5.677,0,0,0-9.741-3.751c-.015-.015-.026-.034-.041-.05a5.679,5.679,0,0,0-9.44,2.318,5.656,5.656,0,0,0-8.434,4.969v7.849A8.83,8.83,0,0,0,24.4,33.684V43.86a7.083,7.083,0,0,0,2.143,5.064l4.37,4.238v4.183a27.679,27.679,0,1,1,26.05,0Z" transform="translate(6.91)"/>
    <path id="Trazado_204161" data-name="Trazado 204161" d="M62.769,22.628A1.627,1.627,0,0,0,61.141,21H53v3.256h6.513V48.679h3.256Z" transform="translate(32.036 11.935)"/>
    <path id="Trazado_204162" data-name="Trazado 204162" d="M8.256,24.256h6.513V21H6.628A1.627,1.627,0,0,0,5,22.628v26.05H8.256Z" transform="translate(1.884 11.935)"/>
    <path id="Trazado_204163" data-name="Trazado 204163" d="M47,35h3.256v4.884H47Z" transform="translate(28.267 20.729)"/>
    <path id="Trazado_204164" data-name="Trazado 204164" d="M15,35h3.256v4.884H15Z" transform="translate(8.166 20.729)"/>
    <path id="Trazado_204165" data-name="Trazado 204165" d="M5,40H8.256v3.256H5Z" transform="translate(1.884 23.87)"/>
    <path id="Trazado_204166" data-name="Trazado 204166" d="M15,40h3.256v3.256H15Z" transform="translate(8.166 23.87)"/>
    <path id="Trazado_204167" data-name="Trazado 204167" d="M47,40h3.256v3.256H47Z" transform="translate(28.267 23.87)"/>
    <path id="Trazado_204168" data-name="Trazado 204168" d="M57,40h3.256v3.256H57Z" transform="translate(34.548 23.87)"/>
    <path id="Trazado_204169" data-name="Trazado 204169" d="M31,42h3.256v3.256H31Z" transform="translate(18.216 25.126)"/>
  </g>
</svg>
