<svg xmlns="http://www.w3.org/2000/svg" width="608.858" height="610.472" viewBox="0 0 608.858 610.472">
  <g id="Grupo_150514" data-name="Grupo 150514" transform="translate(-496 -4484)">
    <g id="Grupo_150509" data-name="Grupo 150509" transform="translate(370.7 4471.535)">
      <g id="Grupo_150499" data-name="Grupo 150499" transform="translate(284.448 12.465)">
        <g id="Grupo_150497" data-name="Grupo 150497">
          <path id="Trazado_204463" data-name="Trazado 204463" d="M449.391,270.372a2.071,2.071,0,0,1-1.469-.609l-68.934-68.934a2.08,2.08,0,0,1,0-2.935,106.191,106.191,0,1,0-150.176,0,2.076,2.076,0,0,1-2.935,2.935,110.342,110.342,0,1,1,157.5-1.481l67.479,67.482a2.075,2.075,0,0,1-1.466,3.542Z" transform="translate(-193.559 -12.465)" fill="#f85316"/>
        </g>
        <g id="Grupo_150498" data-name="Grupo 150498" transform="translate(234.099 234.101)">
          <path id="Trazado_204464" data-name="Trazado 204464" d="M293.965,136.881l.148-4.153,20.456.75-.747-20.459,4.152-.148.9,24.917Z" transform="translate(-293.965 -112.872)" fill="#f85316"/>
        </g>
      </g>
      <g id="Grupo_150502" data-name="Grupo 150502" transform="translate(475.139 168.785)">
        <g id="Grupo_150500" data-name="Grupo 150500" transform="translate(1.11)">
          <path id="Trazado_204465" data-name="Trazado 204465" d="M277.9,337.418a2.076,2.076,0,0,1-1.466-3.544l68.934-68.934a2.136,2.136,0,0,1,2.935,0,106.191,106.191,0,1,0,0-150.176,2.076,2.076,0,1,1-2.935-2.935,110.342,110.342,0,1,1,1.481,157.5l-67.479,67.479A2.071,2.071,0,0,1,277.9,337.418Z" transform="translate(-275.823 -79.511)" fill="#dce736"/>
        </g>
        <g id="Grupo_150501" data-name="Grupo 150501" transform="translate(0 234.098)">
          <path id="Trazado_204466" data-name="Trazado 204466" d="M276.255,179.916l4.152.148-.75,20.456,20.459-.747.148,4.153-24.917.9Z" transform="translate(-275.347 -179.916)" fill="#dce736"/>
        </g>
      </g>
      <g id="Grupo_150505" data-name="Grupo 150505" transform="translate(315.997 363.919)">
        <g id="Grupo_150503" data-name="Grupo 150503" transform="translate(1.106 1.111)">
          <path id="Trazado_204467" data-name="Trazado 204467" d="M355.13,421.588A110.342,110.342,0,0,1,275.653,234.7l-67.479-67.479a2.075,2.075,0,0,1,2.933-2.935l68.934,68.934a2.074,2.074,0,0,1,0,2.935,106.19,106.19,0,1,0,150.179,0,2.075,2.075,0,0,1,2.933-2.935A110.341,110.341,0,0,1,355.13,421.588Z" transform="translate(-207.565 -163.681)" fill="#3d46c2"/>
        </g>
        <g id="Grupo_150504" data-name="Grupo 150504">
          <path id="Trazado_204468" data-name="Trazado 204468" d="M232,164.112l-.147,4.152-20.456-.75.747,20.459-4.153.148-.9-24.917Z" transform="translate(-207.091 -163.204)" fill="#3d46c2"/>
        </g>
      </g>
      <g id="Grupo_150508" data-name="Grupo 150508" transform="translate(125.3 207.605)">
        <g id="Grupo_150506" data-name="Grupo 150506" transform="translate(0 1.105)">
          <path id="Trazado_204469" data-name="Trazado 204469" d="M235.642,354.544a110.343,110.343,0,1,1,76.542-189.822l67.481-67.479a2.076,2.076,0,1,1,2.935,2.935l-68.934,68.934a2.079,2.079,0,0,1-2.935,0,106.191,106.191,0,1,0,0,150.176,2.076,2.076,0,0,1,2.935,2.935A109.619,109.619,0,0,1,235.642,354.544Z" transform="translate(-125.3 -96.635)" fill="#75b62f"/>
        </g>
        <g id="Grupo_150507" data-name="Grupo 150507" transform="translate(234.102)">
          <path id="Trazado_204470" data-name="Trazado 204470" d="M249.717,121.075l-4.153-.148.75-20.456-20.458.747-.148-4.152,24.917-.9Z" transform="translate(-225.707 -96.161)" fill="#ff9d00"/>
        </g>
      </g>
    </g>
    <path id="Trazado_206356" data-name="Trazado 206356" d="M-27.22-4.342V0H-30.3V-12.8H-25.2a5.948,5.948,0,0,1,2.6.541,4.074,4.074,0,0,1,1.749,1.538,4.2,4.2,0,0,1,.62,2.263,3.7,3.7,0,0,1-1.34,2.993,5.561,5.561,0,0,1-3.678,1.121Zm0-2.382H-25.2a1.906,1.906,0,0,0,1.367-.448,1.665,1.665,0,0,0,.47-1.266,2.059,2.059,0,0,0-.483-1.433,1.712,1.712,0,0,0-1.318-.545H-27.22ZM-15.6,0h-2.971V-13.5H-15.6ZM-8.42,0A3.344,3.344,0,0,1-8.7-.853,2.754,2.754,0,0,1-10.986.176a3.374,3.374,0,0,1-2.285-.813,2.588,2.588,0,0,1-.94-2.043,2.66,2.66,0,0,1,1.143-2.338A5.821,5.821,0,0,1-9.747-5.81h.914v-.5q0-1.316-1.134-1.316a.927.927,0,0,0-1.055,1.042h-2.962A2.655,2.655,0,0,1-12.81-8.825a4.931,4.931,0,0,1,2.993-.86A4.323,4.323,0,0,1-6.943-8.8,3.086,3.086,0,0,1-5.862-6.363v4.21a4.311,4.311,0,0,0,.4,2V0Zm-1.854-1.934a1.652,1.652,0,0,0,.918-.237,1.487,1.487,0,0,0,.523-.536V-4.228h-.861q-1.547,0-1.547,1.389a.848.848,0,0,0,.272.655A.986.986,0,0,0-10.274-1.934ZM-1.5-9.51l.1,1.116A3.225,3.225,0,0,1,1.31-9.686,2.713,2.713,0,0,1,3.529-8.8a4.226,4.226,0,0,1,.76,2.672V0H1.318V-6a1.6,1.6,0,0,0-.29-1.059A1.342,1.342,0,0,0-.026-7.4a1.413,1.413,0,0,0-1.292.686V0H-4.28V-9.51ZM10.529.176A4.889,4.889,0,0,1,6.987-1.129a4.507,4.507,0,0,1-1.354-3.4v-.246a5.84,5.84,0,0,1,.541-2.575A3.955,3.955,0,0,1,7.752-9.075a4.763,4.763,0,0,1,2.461-.611,4.117,4.117,0,0,1,3.164,1.244,4.887,4.887,0,0,1,1.16,3.467v1.151H8.648a2.135,2.135,0,0,0,.694,1.257,2.066,2.066,0,0,0,1.389.457,2.662,2.662,0,0,0,2.2-.984l1.354,1.6A3.784,3.784,0,0,1,12.713-.277,5.3,5.3,0,0,1,10.529.176ZM10.2-7.4q-1.3,0-1.547,1.723h2.988v-.229a1.467,1.467,0,0,0-.36-1.1A1.434,1.434,0,0,0,10.2-7.4ZM21.085,0A3.344,3.344,0,0,1,20.8-.853,2.754,2.754,0,0,1,18.519.176a3.374,3.374,0,0,1-2.285-.813,2.588,2.588,0,0,1-.94-2.043,2.66,2.66,0,0,1,1.143-2.338,5.821,5.821,0,0,1,3.322-.791h.914v-.5q0-1.316-1.134-1.316a.927.927,0,0,0-1.055,1.042H15.521a2.655,2.655,0,0,1,1.173-2.239,4.931,4.931,0,0,1,2.993-.86,4.323,4.323,0,0,1,2.874.888,3.086,3.086,0,0,1,1.081,2.435v4.21a4.311,4.311,0,0,0,.4,2V0ZM19.23-1.934a1.652,1.652,0,0,0,.918-.237,1.487,1.487,0,0,0,.523-.536V-4.228h-.861q-1.547,0-1.547,1.389a.848.848,0,0,0,.272.655A.986.986,0,0,0,19.23-1.934Zm11.8-4.9-.976-.07a1.752,1.752,0,0,0-1.793.879V0H25.3V-9.51h2.777l.1,1.222a2.294,2.294,0,0,1,2.083-1.4,2.888,2.888,0,0,1,.826.105Z" transform="translate(769 4636)" fill="#12263f"/>
    <path id="Trazado_206360" data-name="Trazado 206360" d="M-26.5-5.789V0h-4.113V-17.062h6.809a7.93,7.93,0,0,1,3.463.721,5.431,5.431,0,0,1,2.332,2.051,5.6,5.6,0,0,1,.826,3.018,4.937,4.937,0,0,1-1.787,3.99,7.415,7.415,0,0,1-4.9,1.494Zm0-3.176h2.7a2.542,2.542,0,0,0,1.822-.6,2.221,2.221,0,0,0,.627-1.687A2.745,2.745,0,0,0-22-13.16a2.282,2.282,0,0,0-1.758-.727H-26.5ZM-.732,0h-4.09V-7.125h-6.059V0h-4.113V-17.062h4.113v6.773h6.059v-6.773h4.09ZM8.49-4.641l3.4-12.422h4.594L10.74,0H6.24L.545-17.062H5.1ZM26.537-3.187H20.9L19.916,0H15.521l6.258-17.062h3.867L31.951,0H27.533ZM21.885-6.363h3.668l-1.84-5.918Z" transform="translate(800 4863)" fill="#12263f"/>
    <path id="Trazado_206359" data-name="Trazado 206359" d="M-12.423,0h-3.067V-5.344h-4.544V0H-23.12V-12.8h3.085v5.08h4.544V-12.8h3.067Zm7.172,0a3.344,3.344,0,0,1-.281-.853A2.754,2.754,0,0,1-7.818.176,3.374,3.374,0,0,1-10.1-.637a2.588,2.588,0,0,1-.94-2.043A2.66,2.66,0,0,1-9.9-5.019,5.821,5.821,0,0,1-6.579-5.81h.914v-.5q0-1.316-1.134-1.316A.927.927,0,0,0-7.853-6.587h-2.962A2.655,2.655,0,0,1-9.642-8.825a4.931,4.931,0,0,1,2.993-.86A4.323,4.323,0,0,1-3.775-8.8,3.086,3.086,0,0,1-2.694-6.363v4.21a4.311,4.311,0,0,0,.4,2V0ZM-7.106-1.934a1.652,1.652,0,0,0,.918-.237,1.487,1.487,0,0,0,.523-.536V-4.228h-.861q-1.547,0-1.547,1.389a.848.848,0,0,0,.272.655A.986.986,0,0,0-7.106-1.934ZM2.966-2.109a1.317,1.317,0,0,0,.967-.338,1.241,1.241,0,0,0,.334-.945H7.044A3.288,3.288,0,0,1,5.924-.826a4.168,4.168,0,0,1-2.887,1,4.22,4.22,0,0,1-3.27-1.3,5.125,5.125,0,0,1-1.2-3.6v-.123A5.792,5.792,0,0,1-.9-7.4a3.872,3.872,0,0,1,1.534-1.7A4.573,4.573,0,0,1,3.01-9.686,4.116,4.116,0,0,1,5.955-8.657a3.647,3.647,0,0,1,1.09,2.786H4.267A1.626,1.626,0,0,0,3.907-7a1.244,1.244,0,0,0-.967-.4Q1.789-7.4,1.6-5.933a10.357,10.357,0,0,0-.062,1.283,4.068,4.068,0,0,0,.343,1.986A1.187,1.187,0,0,0,2.966-2.109ZM12.9.176A4.889,4.889,0,0,1,9.356-1.129,4.507,4.507,0,0,1,8-4.526v-.246a5.84,5.84,0,0,1,.541-2.575,3.955,3.955,0,0,1,1.578-1.727,4.763,4.763,0,0,1,2.461-.611,4.117,4.117,0,0,1,3.164,1.244,4.887,4.887,0,0,1,1.16,3.467v1.151H11.017a2.135,2.135,0,0,0,.694,1.257,2.066,2.066,0,0,0,1.389.457,2.662,2.662,0,0,0,2.2-.984l1.354,1.6A3.784,3.784,0,0,1,15.082-.277,5.3,5.3,0,0,1,12.9.176ZM12.564-7.4q-1.3,0-1.547,1.723h2.988v-.229a1.467,1.467,0,0,0-.36-1.1A1.434,1.434,0,0,0,12.564-7.4Zm11.285.571-.976-.07a1.752,1.752,0,0,0-1.793.879V0H18.119V-9.51H20.9l.1,1.222a2.294,2.294,0,0,1,2.083-1.4,2.888,2.888,0,0,1,.826.105Z" transform="translate(1000 4822)" fill="#12263f"/>
    <path id="Trazado_206358" data-name="Trazado 206358" d="M-28.63-3.173l2.9-9.624h2.936L-27.25,0H-30L-34.44-12.8h2.927ZM-17.767.176a4.668,4.668,0,0,1-3.406-1.283,4.561,4.561,0,0,1-1.314-3.419v-.246a5.745,5.745,0,0,1,.554-2.562,4.064,4.064,0,0,1,1.569-1.74,4.4,4.4,0,0,1,2.316-.611,3.947,3.947,0,0,1,3.072,1.23,5,5,0,0,1,1.121,3.489v1.037h-6.056a2.36,2.36,0,0,0,.743,1.494,2.245,2.245,0,0,0,1.569.563,2.742,2.742,0,0,0,2.294-1.063l1.248,1.4A3.813,3.813,0,0,1-15.6-.277,5.075,5.075,0,0,1-17.767.176Zm-.29-7.813a1.587,1.587,0,0,0-1.226.512,2.651,2.651,0,0,0-.6,1.466h3.533v-.2a1.891,1.891,0,0,0-.457-1.311A1.638,1.638,0,0,0-18.057-7.638Zm10.986.51a6.9,6.9,0,0,0-.914-.07,1.86,1.86,0,0,0-1.89.976V0h-2.54V-9.51h2.4l.07,1.134a2.354,2.354,0,0,1,2.118-1.31,2.662,2.662,0,0,1,.791.114ZM-3.168,0H-5.717V-9.51h2.549Zm-2.7-11.971a1.251,1.251,0,0,1,.382-.94,1.436,1.436,0,0,1,1.042-.369,1.44,1.44,0,0,1,1.037.369,1.244,1.244,0,0,1,.387.94,1.247,1.247,0,0,1-.391.949,1.443,1.443,0,0,1-1.033.369,1.443,1.443,0,0,1-1.033-.369A1.247,1.247,0,0,1-5.867-11.971ZM-.461,0V-7.646H-1.876V-9.51H-.461v-.439a3.566,3.566,0,0,1,1.1-2.764A4.438,4.438,0,0,1,3.7-13.685a10.16,10.16,0,0,1,2.883.519l-.369,2.1a11.248,11.248,0,0,0-1.336-.33,6.564,6.564,0,0,0-1.02-.075q-1.775,0-1.775,1.573v.387H3.959v1.863H2.087V0ZM7.774,0H5.225V-9.51H7.774ZM13.83-1.872a1.666,1.666,0,0,0,1.143-.387,1.355,1.355,0,0,0,.457-1.028h2.382a3.258,3.258,0,0,1-.527,1.771A3.48,3.48,0,0,1,15.864-.268a4.442,4.442,0,0,1-1.991.444,4.129,4.129,0,0,1-3.217-1.3A5.13,5.13,0,0,1,9.479-4.7v-.167a5.071,5.071,0,0,1,1.169-3.507,4.08,4.08,0,0,1,3.208-1.31A4,4,0,0,1,16.717-8.67a3.594,3.594,0,0,1,1.094,2.7H15.429a1.745,1.745,0,0,0-.457-1.206,1.524,1.524,0,0,0-1.16-.464,1.53,1.53,0,0,0-1.34.647,3.749,3.749,0,0,0-.453,2.1v.264a3.8,3.8,0,0,0,.448,2.113A1.549,1.549,0,0,0,13.83-1.872ZM24.772,0a2.821,2.821,0,0,1-.255-.853,3.073,3.073,0,0,1-2.4,1.028A3.376,3.376,0,0,1,19.8-.633a2.6,2.6,0,0,1-.918-2.039A2.687,2.687,0,0,1,20-4.992a5.529,5.529,0,0,1,3.239-.817h1.169v-.545a1.567,1.567,0,0,0-.338-1.055,1.331,1.331,0,0,0-1.068-.4A1.513,1.513,0,0,0,22-7.5a1.045,1.045,0,0,0-.365.844h-2.54a2.551,2.551,0,0,1,.51-1.529,3.37,3.37,0,0,1,1.441-1.1,5.253,5.253,0,0,1,2.092-.4,4.15,4.15,0,0,1,2.791.883A3.09,3.09,0,0,1,26.96-6.319V-2.2a4.546,4.546,0,0,0,.378,2.048V0Zm-2.1-1.767a2.188,2.188,0,0,0,1.037-.25,1.645,1.645,0,0,0,.7-.672V-4.324h-.949q-1.907,0-2.03,1.318l-.009.149a1.017,1.017,0,0,0,.334.782A1.3,1.3,0,0,0,22.671-1.767ZM34.255-7.128a6.9,6.9,0,0,0-.914-.07,1.86,1.86,0,0,0-1.89.976V0h-2.54V-9.51h2.4l.07,1.134A2.354,2.354,0,0,1,33.5-9.686a2.662,2.662,0,0,1,.791.114Z" transform="translate(834 5067)" fill="#12263f"/>
    <path id="Trazado_206357" data-name="Trazado 206357" d="M-18.567-2.637H-23.19L-24.069,0h-2.8l4.764-12.8h2.443L-14.875,0h-2.8Zm-3.911-2.136h3.2l-1.608-4.79Zm12.586,2.9A1.666,1.666,0,0,0-8.75-2.259a1.355,1.355,0,0,0,.457-1.028h2.382a3.258,3.258,0,0,1-.527,1.771A3.48,3.48,0,0,1-7.857-.268,4.442,4.442,0,0,1-9.848.176a4.129,4.129,0,0,1-3.217-1.3A5.13,5.13,0,0,1-14.243-4.7v-.167a5.071,5.071,0,0,1,1.169-3.507,4.08,4.08,0,0,1,3.208-1.31A4,4,0,0,1-7-8.67a3.594,3.594,0,0,1,1.094,2.7H-8.292A1.745,1.745,0,0,0-8.75-7.174a1.524,1.524,0,0,0-1.16-.464,1.53,1.53,0,0,0-1.34.647,3.749,3.749,0,0,0-.453,2.1v.264a3.8,3.8,0,0,0,.448,2.113A1.549,1.549,0,0,0-9.892-1.872Zm8.473-9.976V-9.51H.207v1.863H-1.419V-2.9a1.133,1.133,0,0,0,.2.756,1.015,1.015,0,0,0,.773.229A4.051,4.051,0,0,0,.3-1.978V-.053A5.229,5.229,0,0,1-1.235.176a2.425,2.425,0,0,1-2.725-2.7V-7.646H-5.348V-9.51h1.389v-2.338ZM7.317-.967A3.185,3.185,0,0,1,4.715.176,3,3,0,0,1,2.382-.7,3.752,3.752,0,0,1,1.56-3.278V-9.51H4.1v6.151q0,1.487,1.354,1.487a1.834,1.834,0,0,0,1.775-.9V-9.51H9.778V0H7.387ZM17.2,0a2.821,2.821,0,0,1-.255-.853A3.073,3.073,0,0,1,14.55.176a3.376,3.376,0,0,1-2.316-.809,2.6,2.6,0,0,1-.918-2.039,2.687,2.687,0,0,1,1.121-2.32,5.529,5.529,0,0,1,3.239-.817h1.169v-.545a1.567,1.567,0,0,0-.338-1.055,1.331,1.331,0,0,0-1.068-.4,1.513,1.513,0,0,0-1.006.308,1.045,1.045,0,0,0-.365.844h-2.54a2.551,2.551,0,0,1,.51-1.529,3.37,3.37,0,0,1,1.441-1.1,5.253,5.253,0,0,1,2.092-.4A4.15,4.15,0,0,1,18.36-8.8a3.09,3.09,0,0,1,1.033,2.483V-2.2a4.546,4.546,0,0,0,.378,2.048V0ZM15.1-1.767a2.188,2.188,0,0,0,1.037-.25,1.645,1.645,0,0,0,.7-.672V-4.324H15.9q-1.907,0-2.03,1.318l-.009.149a1.017,1.017,0,0,0,.334.782A1.3,1.3,0,0,0,15.1-1.767ZM26.688-7.128a6.9,6.9,0,0,0-.914-.07,1.86,1.86,0,0,0-1.89.976V0h-2.54V-9.51h2.4l.07,1.134a2.354,2.354,0,0,1,2.118-1.31,2.662,2.662,0,0,1,.791.114Z" transform="translate(605 4896)" fill="#12263f"/>
    <g id="ejecucion" transform="translate(942.885 4689.237)">
      <path id="Trazado_204471" data-name="Trazado 204471" d="M47.437,30.309a19.884,19.884,0,0,0,0-4.536l-3.662-1.616a17.2,17.2,0,0,0-.857-2.743l2.018-3.481a20.473,20.473,0,0,0-2.627-3.67l-3.875.887a16.747,16.747,0,0,0-2.272-1.68l-.37-4.05A19.559,19.559,0,0,0,31.577,8l-2.641,3.064c-.465-.04-.932-.072-1.407-.072s-.942.033-1.407.072L23.482,8a19.559,19.559,0,0,0-4.216,1.417l-.37,4.05a16.758,16.758,0,0,0-2.272,1.68l-3.875-.887a20.473,20.473,0,0,0-2.627,3.67l2.018,3.481a17.179,17.179,0,0,0-.857,2.743L7.621,25.773a19.884,19.884,0,0,0,0,4.536l3.662,1.616a17.221,17.221,0,0,0,.857,2.743l-2.018,3.481a20.473,20.473,0,0,0,2.627,3.67l3.875-.887a16.716,16.716,0,0,0,2.272,1.68l.37,4.05a19.559,19.559,0,0,0,4.216,1.417l2.641-3.064c.465.04.932.072,1.407.072s.942-.033,1.407-.072l2.641,3.064a19.574,19.574,0,0,0,4.216-1.417l.37-4.049a16.758,16.758,0,0,0,2.272-1.68l3.875.887a20.473,20.473,0,0,0,2.627-3.67l-2.018-3.481a17.178,17.178,0,0,0,.857-2.743Z" transform="translate(-5.837 -6.333)" fill="#75b62f"/>
      <path id="Trazado_204484" data-name="Trazado 204484" d="M10.019,0A10.019,10.019,0,1,1,0,10.019,10.019,10.019,0,0,1,10.019,0Z" transform="translate(11.674 11.689)" fill="#f3f9ff"/>
      <path id="Trazado_204472" data-name="Trazado 204472" d="M344.778,26.593a16.566,16.566,0,0,0,0-3.78l-3.052-1.347a14.329,14.329,0,0,0-.714-2.286l1.682-2.9a17.062,17.062,0,0,0-2.189-3.059l-3.229.74a13.957,13.957,0,0,0-1.893-1.4l-.309-3.375A16.3,16.3,0,0,0,331.561,8l-2.2,2.553c-.387-.033-.776-.061-1.172-.061s-.785.027-1.172.061L324.815,8A16.3,16.3,0,0,0,321.3,9.186l-.309,3.375a13.972,13.972,0,0,0-1.893,1.4l-3.229-.74a17.064,17.064,0,0,0-2.189,3.059l1.682,2.9a14.329,14.329,0,0,0-.714,2.286L311.6,22.813a16.566,16.566,0,0,0,0,3.78l3.052,1.347a14.347,14.347,0,0,0,.714,2.286l-1.682,2.9a17.062,17.062,0,0,0,2.189,3.059l3.229-.74a13.956,13.956,0,0,0,1.893,1.4l.309,3.375a16.31,16.31,0,0,0,3.513,1.181l2.2-2.553c.387.033.776.061,1.172.061s.785-.027,1.172-.061l2.2,2.553a16.312,16.312,0,0,0,3.513-1.181l.309-3.375a13.938,13.938,0,0,0,1.893-1.4l3.229.74a17.063,17.063,0,0,0,2.189-3.059l-1.681-2.9a14.329,14.329,0,0,0,.714-2.286Z" transform="translate(-246.382 -6.335)" fill="#75b62f"/>
      <path id="Trazado_204485" data-name="Trazado 204485" d="M6.679,0A6.679,6.679,0,1,1,0,6.679,6.679,6.679,0,0,1,6.679,0Z" transform="translate(75.127 11.689)" fill="#f3f9ff"/>
      <path id="Trazado_204473" data-name="Trazado 204473" d="M294.056,274.23a21.377,21.377,0,0,0,0-5.7l-3.486-.733a19.827,19.827,0,0,0-.856-3.178l2.671-2.393a23.317,23.317,0,0,0-2.866-4.9l-3.37,1.107a20.159,20.159,0,0,0-2.332-2.331l1.107-3.37a23.307,23.307,0,0,0-4.9-2.866l-2.393,2.671a19.85,19.85,0,0,0-3.178-.856l-.733-3.486a21.377,21.377,0,0,0-5.7,0l-.733,3.486a19.849,19.849,0,0,0-3.178.856l-2.393-2.671a23.319,23.319,0,0,0-4.9,2.866l1.107,3.37a20.159,20.159,0,0,0-2.331,2.332l-3.37-1.107a23.31,23.31,0,0,0-2.866,4.9l2.671,2.393a19.852,19.852,0,0,0-.856,3.178l-3.486.733a21.377,21.377,0,0,0,0,5.7l3.486.733a19.82,19.82,0,0,0,.856,3.178l-2.671,2.393a23.317,23.317,0,0,0,2.866,4.9l3.37-1.107a20.16,20.16,0,0,0,2.331,2.331l-1.107,3.37a23.306,23.306,0,0,0,4.9,2.866l2.393-2.671a19.852,19.852,0,0,0,3.178.857l.733,3.486a21.377,21.377,0,0,0,5.7,0l.733-3.486a19.845,19.845,0,0,0,3.178-.856l2.393,2.671a23.317,23.317,0,0,0,4.9-2.866l-1.107-3.37a20.161,20.161,0,0,0,2.331-2.332l3.37,1.107a23.306,23.306,0,0,0,2.866-4.9l-2.671-2.393a19.853,19.853,0,0,0,.856-3.178Z" transform="translate(-195.742 -196.24)" fill="#3d46c2"/>
      <path id="Trazado_204486" data-name="Trazado 204486" d="M13.359,0A13.359,13.359,0,1,1,0,13.359,13.359,13.359,0,0,1,13.359,0Z" transform="translate(61.768 61.784)" fill="#dce736"/>
      <path id="Trazado_204474" data-name="Trazado 204474" d="M159.491,328.005v10.019l11.689-5.009Z" transform="translate(-126.11 -259.542)" fill="#92b1f9"/>
      <path id="Trazado_204475" data-name="Trazado 204475" d="M1.11,17.913a1.67,1.67,0,0,0-.995,1.528v4.536a1.669,1.669,0,0,0,.995,1.528l2.914,1.285c.132.489.276.952.435,1.4L2.84,30.978a1.671,1.671,0,0,0-.013,1.652A22.168,22.168,0,0,0,5.668,36.6a1.663,1.663,0,0,0,1.618.514l3.066-.7q.536.428,1.119.825l.3,3.245a1.67,1.67,0,0,0,.962,1.362A21.2,21.2,0,0,0,17.3,43.381a1.665,1.665,0,0,0,1.608-.545l2.139-2.483h1.285l2.139,2.483a1.667,1.667,0,0,0,1.266.58,1.63,1.63,0,0,0,.343-.036,21.222,21.222,0,0,0,4.574-1.536,1.67,1.67,0,0,0,.962-1.363l.3-3.243c.387-.264.761-.54,1.119-.825l3.066.7a1.66,1.66,0,0,0,1.618-.514,22.132,22.132,0,0,0,2.841-3.971,1.672,1.672,0,0,0-.013-1.652L38.925,28.19c.16-.447.3-.91.435-1.4l2.914-1.285a1.67,1.67,0,0,0,.995-1.528V19.441a1.669,1.669,0,0,0-.995-1.528l-2.914-1.285c-.132-.489-.276-.952-.435-1.4l1.619-2.788a1.672,1.672,0,0,0,.013-1.652,22.16,22.16,0,0,0-2.841-3.971A1.658,1.658,0,0,0,36.1,6.3l-3.066.7q-.536-.428-1.119-.825l-.3-3.245a1.67,1.67,0,0,0-.962-1.362A21.2,21.2,0,0,0,26.082.038a1.661,1.661,0,0,0-1.608.545L22.335,3.066H21.05L18.911.582A1.659,1.659,0,0,0,17.3.038a21.223,21.223,0,0,0-4.574,1.536,1.67,1.67,0,0,0-.962,1.363l-.3,3.243c-.387.264-.761.54-1.119.825L7.285,6.3a1.657,1.657,0,0,0-1.618.514,22.132,22.132,0,0,0-2.841,3.971,1.672,1.672,0,0,0,.013,1.652l1.619,2.788c-.16.447-.3.91-.435,1.4Zm5.011,1.44A1.672,1.672,0,0,0,7.073,18.2a15.347,15.347,0,0,1,.773-2.477,1.671,1.671,0,0,0-.1-1.477L6.221,11.611A18.968,18.968,0,0,1,7.527,9.786l2.886.66a1.661,1.661,0,0,0,1.479-.375A15.249,15.249,0,0,1,13.94,8.557a1.668,1.668,0,0,0,.783-1.267L15,4.226a18.47,18.47,0,0,1,2.042-.693L19.02,5.825a1.671,1.671,0,0,0,1.266.58H23.1a1.671,1.671,0,0,0,1.266-.58L26.34,3.533a18.5,18.5,0,0,1,2.043.693l.281,3.067a1.671,1.671,0,0,0,.783,1.265,15.051,15.051,0,0,1,2.047,1.513,1.66,1.66,0,0,0,1.479.375l2.886-.66a18.934,18.934,0,0,1,1.306,1.825l-1.528,2.634a1.672,1.672,0,0,0-.1,1.477,15.347,15.347,0,0,1,.773,2.477,1.672,1.672,0,0,0,.952,1.154l2.666,1.176V22.89l-2.666,1.176a1.672,1.672,0,0,0-.952,1.154,15.347,15.347,0,0,1-.773,2.477,1.671,1.671,0,0,0,.1,1.477l1.528,2.634a18.934,18.934,0,0,1-1.306,1.825l-2.886-.66a1.655,1.655,0,0,0-1.479.375,15.249,15.249,0,0,1-2.048,1.515,1.668,1.668,0,0,0-.783,1.267l-.281,3.064a18.47,18.47,0,0,1-2.042.693l-1.975-2.293a1.671,1.671,0,0,0-1.266-.58H20.285a1.671,1.671,0,0,0-1.266.58l-1.975,2.293A18.5,18.5,0,0,1,15,39.194l-.281-3.067a1.671,1.671,0,0,0-.783-1.265,15.051,15.051,0,0,1-2.047-1.513,1.657,1.657,0,0,0-1.479-.375l-2.886.66A18.969,18.969,0,0,1,6.22,31.809l1.528-2.634a1.672,1.672,0,0,0,.1-1.477,15.347,15.347,0,0,1-.773-2.477,1.672,1.672,0,0,0-.952-1.154L3.454,22.89V20.529Z" transform="translate(0 -0.002)"/>
      <path id="Trazado_204476" data-name="Trazado 204476" d="M59.18,71.383A11.689,11.689,0,1,0,47.491,59.694,11.689,11.689,0,0,0,59.18,71.383Zm0-20.038a8.349,8.349,0,1,1-8.349,8.349A8.349,8.349,0,0,1,59.18,51.345Z" transform="translate(-37.487 -37.986)"/>
      <path id="Trazado_204477" data-name="Trazado 204477" d="M305,14.951a1.668,1.668,0,0,0-1,1.528v3.78a1.668,1.668,0,0,0,1,1.528l2.306,1.018c.09.323.187.633.292.934l-1.285,2.215a1.675,1.675,0,0,0-.013,1.654,18.861,18.861,0,0,0,2.4,3.358,1.66,1.66,0,0,0,1.618.514l2.423-.556c.238.187.484.369.735.543l.235,2.573a1.667,1.667,0,0,0,.962,1.363,18.078,18.078,0,0,0,3.873,1.3,1.664,1.664,0,0,0,1.608-.545l1.7-1.973h.815l1.7,1.973a1.667,1.667,0,0,0,1.265.58,1.63,1.63,0,0,0,.343-.036,18.071,18.071,0,0,0,3.873-1.3,1.667,1.667,0,0,0,.962-1.363l.235-2.573q.377-.262.734-.541l2.426.554a1.661,1.661,0,0,0,1.616-.514,18.884,18.884,0,0,0,2.4-3.358,1.675,1.675,0,0,0-.013-1.654l-1.285-2.214c.1-.3.2-.612.292-.934l2.306-1.018a1.668,1.668,0,0,0,1-1.528v-3.78a1.668,1.668,0,0,0-1-1.528l-2.306-1.018c-.09-.323-.187-.633-.292-.934l1.285-2.214a1.675,1.675,0,0,0,.013-1.654,18.864,18.864,0,0,0-2.4-3.358,1.659,1.659,0,0,0-1.616-.514l-2.426.554q-.357-.279-.734-.541L330.817,2.7a1.667,1.667,0,0,0-.962-1.363,18.078,18.078,0,0,0-3.873-1.3,1.659,1.659,0,0,0-1.608.545l-1.7,1.973h-.815L320.16.581a1.657,1.657,0,0,0-1.608-.545,18.07,18.07,0,0,0-3.873,1.3,1.667,1.667,0,0,0-.962,1.363l-.235,2.573q-.377.262-.734.541l-2.426-.554a1.662,1.662,0,0,0-1.616.514,18.748,18.748,0,0,0-2.4,3.359,1.672,1.672,0,0,0,.013,1.652L307.6,13q-.157.452-.292.936Zm2.343,2.616,2.056-.907a1.664,1.664,0,0,0,.954-1.158,12.558,12.558,0,0,1,.63-2.017,1.671,1.671,0,0,0-.1-1.477L309.7,9.959c.267-.416.558-.823.869-1.218l2.237.512a1.661,1.661,0,0,0,1.476-.375,12.358,12.358,0,0,1,1.666-1.231,1.672,1.672,0,0,0,.786-1.269l.217-2.384c.448-.176.9-.329,1.347-.457l1.53,1.776a1.671,1.671,0,0,0,1.265.58h2.345a1.671,1.671,0,0,0,1.266-.58l1.53-1.776c.448.127.9.281,1.347.457l.217,2.384a1.672,1.672,0,0,0,.786,1.269,12.362,12.362,0,0,1,1.667,1.231,1.658,1.658,0,0,0,1.476.375l2.237-.512q.467.592.871,1.22l-1.189,2.048a1.676,1.676,0,0,0-.1,1.479,12.477,12.477,0,0,1,.63,2.014,1.665,1.665,0,0,0,.954,1.158l2.056.907v1.6l-2.056.907a1.664,1.664,0,0,0-.954,1.158,12.47,12.47,0,0,1-.63,2.014,1.675,1.675,0,0,0,.1,1.479l1.189,2.048q-.4.626-.871,1.22l-2.237-.512a1.652,1.652,0,0,0-1.476.375,12.36,12.36,0,0,1-1.667,1.231,1.672,1.672,0,0,0-.786,1.269l-.217,2.384c-.448.176-.9.329-1.347.457l-1.53-1.776a1.671,1.671,0,0,0-1.265-.58h-2.345a1.671,1.671,0,0,0-1.265.58L318.3,33.2c-.448-.127-.9-.281-1.347-.457l-.217-2.384a1.671,1.671,0,0,0-.786-1.269,12.253,12.253,0,0,1-1.665-1.231,1.68,1.68,0,0,0-1.479-.377l-2.236.512c-.311-.393-.6-.8-.871-1.218l1.189-2.048a1.676,1.676,0,0,0,.1-1.479,12.477,12.477,0,0,1-.63-2.014,1.665,1.665,0,0,0-.954-1.158l-2.056-.907Z" transform="translate(-240.461 0)"/>
      <path id="Trazado_204478" data-name="Trazado 204478" d="M359.84,64.7a8.349,8.349,0,1,0-8.349-8.349A8.349,8.349,0,0,0,359.84,64.7Zm0-13.359a5.009,5.009,0,1,1-5.009,5.009A5.009,5.009,0,0,1,359.84,51.345Z" transform="translate(-278.034 -37.986)"/>
      <path id="Trazado_204479" data-name="Trazado 204479" d="M268.106,290.629a1.67,1.67,0,0,0,1.634-1.326l.509-2.42c.419-.1.838-.212,1.254-.338l1.663,1.856a1.665,1.665,0,0,0,1.9.422,25.091,25.091,0,0,0,5.254-3.067,1.671,1.671,0,0,0,.582-1.856l-.766-2.334c.315-.3.623-.6.92-.92l2.332.766a1.675,1.675,0,0,0,1.854-.58,24.99,24.99,0,0,0,3.071-5.256,1.669,1.669,0,0,0-.422-1.9l-1.857-1.663c.127-.416.24-.835.339-1.254l2.42-.509a1.67,1.67,0,0,0,1.326-1.634v-5.694a1.67,1.67,0,0,0-1.326-1.634l-2.42-.509c-.1-.419-.212-.838-.337-1.254l1.856-1.663a1.669,1.669,0,0,0,.422-1.9,25.092,25.092,0,0,0-3.067-5.254,1.676,1.676,0,0,0-1.856-.582l-2.334.766c-.3-.315-.6-.623-.92-.92l.766-2.332a1.669,1.669,0,0,0-.58-1.854,24.99,24.99,0,0,0-5.256-3.071,1.678,1.678,0,0,0-1.9.422L271.5,245c-.416-.127-.835-.24-1.254-.339l-.509-2.42a1.67,1.67,0,0,0-1.634-1.326h-5.695a1.67,1.67,0,0,0-1.634,1.326l-.509,2.42c-.419.1-.838.212-1.254.338l-1.663-1.856a1.677,1.677,0,0,0-1.9-.422,25.092,25.092,0,0,0-5.254,3.067,1.671,1.671,0,0,0-.582,1.856l.766,2.334c-.315.3-.623.6-.92.92l-2.332-.766a1.68,1.68,0,0,0-1.854.58,24.99,24.99,0,0,0-3.071,5.256,1.669,1.669,0,0,0,.422,1.9l1.857,1.663c-.127.416-.24.835-.339,1.254l-2.42.509a1.67,1.67,0,0,0-1.326,1.634v5.694a1.67,1.67,0,0,0,1.326,1.634l2.42.509c.1.419.212.838.338,1.254l-1.856,1.663a1.669,1.669,0,0,0-.422,1.9,25.092,25.092,0,0,0,3.067,5.254,1.676,1.676,0,0,0,1.856.582l2.334-.766c.3.315.6.623.92.92l-.766,2.332a1.669,1.669,0,0,0,.58,1.854,24.99,24.99,0,0,0,5.256,3.071,1.664,1.664,0,0,0,1.9-.422l1.663-1.857c.416.127.835.24,1.254.339l.509,2.42a1.67,1.67,0,0,0,1.634,1.326Zm-9.042-7.584a1.682,1.682,0,0,0-1.808.458l-1.569,1.751a21.935,21.935,0,0,1-2.515-1.476l.726-2.206a1.673,1.673,0,0,0-.507-1.8,18.236,18.236,0,0,1-2.138-2.136,1.678,1.678,0,0,0-1.8-.506l-2.2.726a21.8,21.8,0,0,1-1.476-2.515l1.751-1.57a1.671,1.671,0,0,0,.458-1.81,17.981,17.981,0,0,1-.784-2.908,1.67,1.67,0,0,0-1.3-1.337l-2.161-.455v-2.984l2.161-.455a1.67,1.67,0,0,0,1.3-1.337,18.163,18.163,0,0,1,.784-2.911,1.669,1.669,0,0,0-.458-1.808l-1.751-1.569a21.939,21.939,0,0,1,1.476-2.515l2.206.726a1.676,1.676,0,0,0,1.8-.507,18.239,18.239,0,0,1,2.136-2.138,1.673,1.673,0,0,0,.506-1.8l-.726-2.2a21.8,21.8,0,0,1,2.515-1.476l1.57,1.751a1.675,1.675,0,0,0,1.81.458,17.983,17.983,0,0,1,2.908-.784,1.67,1.67,0,0,0,1.337-1.3l.455-2.161h2.984l.455,2.161a1.67,1.67,0,0,0,1.337,1.3,18.156,18.156,0,0,1,2.911.784,1.672,1.672,0,0,0,1.808-.458l1.569-1.751a21.937,21.937,0,0,1,2.515,1.476l-.726,2.206a1.673,1.673,0,0,0,.507,1.8,18.236,18.236,0,0,1,2.138,2.136,1.684,1.684,0,0,0,1.8.506l2.2-.726a21.8,21.8,0,0,1,1.476,2.515l-1.751,1.57a1.671,1.671,0,0,0-.458,1.81,17.981,17.981,0,0,1,.784,2.908,1.67,1.67,0,0,0,1.3,1.337l2.161.455v2.984l-2.161.455a1.67,1.67,0,0,0-1.3,1.337,18.164,18.164,0,0,1-.784,2.911,1.669,1.669,0,0,0,.458,1.808l1.751,1.569a21.942,21.942,0,0,1-1.476,2.515l-2.206-.726a1.676,1.676,0,0,0-1.8.507,18.233,18.233,0,0,1-2.136,2.138,1.673,1.673,0,0,0-.506,1.8l.726,2.2a21.8,21.8,0,0,1-2.515,1.476l-1.57-1.751a1.678,1.678,0,0,0-1.81-.458,17.984,17.984,0,0,1-2.908.784,1.67,1.67,0,0,0-1.337,1.3l-.455,2.161h-2.984l-.455-2.161a1.67,1.67,0,0,0-1.337-1.3,18.157,18.157,0,0,1-2.911-.784Z" transform="translate(-190.132 -190.63)"/>
      <path id="Trazado_204480" data-name="Trazado 204480" d="M317.548,303.033a15.028,15.028,0,1,0-15.028,15.028h0A15.045,15.045,0,0,0,317.548,303.033Zm-26.717,0a11.689,11.689,0,1,1,11.689,11.689h0A11.7,11.7,0,0,1,290.831,303.033Z" transform="translate(-227.393 -227.891)"/>
      <path id="Trazado_204481" data-name="Trazado 204481" d="M223.491,88H236.85v3.34H223.491Z" transform="translate(-176.751 -69.637)"/>
      <path id="Trazado_204482" data-name="Trazado 204482" d="M76.884,242.857,65.2,237.847a1.668,1.668,0,0,0-2.327,1.534v3.34H42.831V216h-3.34v28.387a1.669,1.669,0,0,0,1.668,1.67h21.71v3.34a1.669,1.669,0,0,0,1.668,1.67h0a1.646,1.646,0,0,0,.657-.135l11.689-5.009a1.669,1.669,0,0,0,0-3.069Zm-10.676,4.012v-4.954l5.779,2.477Z" transform="translate(-31.157 -170.919)"/>
      <path id="Trazado_204483" data-name="Trazado 204483" d="M335.09,330.88l-7.178,8.615-3.716-3.716-2.361,2.361,5.009,5.009a1.664,1.664,0,0,0,1.181.489c.024,0,.051,0,.075,0a1.672,1.672,0,0,0,1.208-.6l8.349-10.019Z" transform="translate(-254.567 -261.817)"/>
    </g>
    <g id="desarrollo-de-estrategias" transform="translate(747.999 4724.002)">
      <path id="Trazado_204487" data-name="Trazado 204487" d="M3,55H23V65H3Z" transform="translate(0.667 35.332)" fill="#dce736"/>
      <path id="Trazado_204488" data-name="Trazado 204488" d="M26,55H46V65H26Z" transform="translate(15.999 35.332)" fill="#75b62f"/>
      <path id="Trazado_204489" data-name="Trazado 204489" d="M49,55H69V65H49Z" transform="translate(31.331 35.332)" fill="#f85316"/>
      <path id="Trazado_204490" data-name="Trazado 204490" d="M40.333,21.329V12.98h3.333l-8.333-10L27,12.98h3.333v8.35" transform="translate(16.665 0.655)" fill="#3d46c2"/>
      <path id="Trazado_204491" data-name="Trazado 204491" d="M28.333,34.662V18h3.333L23.333,7.98,15,18h3.333V34.662" transform="translate(8.666 3.988)" fill="#75b62f"/>
      <path id="Trazado_204492" data-name="Trazado 204492" d="M52.333,34.662V18h3.333L47.333,7.98,39,18h3.333V34.662" transform="translate(24.665 3.988)" fill="#75b62f"/>
      <path id="Trazado_204493" data-name="Trazado 204493" d="M48,42.323H59.666v3.333l10-8.333-10-8.333v3.333H48" transform="translate(30.664 17.993)" fill="#f85316"/>
      <path id="Trazado_204494" data-name="Trazado 204494" d="M24.666,32.323H13V28.99L3,37.323l10,8.333V42.323H24.666" transform="translate(0.667 17.993)" fill="#f85316"/>
      <path id="Trazado_204495" data-name="Trazado 204495" d="M62.332,47.666v-10H58.3a19,19,0,0,0-1.667-3.933l2.85-2.85L52.416,23.8l-2.85,2.867A18.133,18.133,0,0,0,45.632,25V21H35.666v4.033A18.133,18.133,0,0,0,31.733,26.7l-2.85-2.867-7.066,7.083,2.85,2.85A19,19,0,0,0,23,37.7H19v10h4.033A19,19,0,0,0,24.7,51.632l-2.85,2.85,7.066,7.083,2.85-2.85A18.949,18.949,0,0,0,35.7,60.382v3.95h10v-4.05a18.949,18.949,0,0,0,3.933-1.667l2.85,2.85,7.066-7.083-2.883-2.8a19,19,0,0,0,1.667-3.933Z" transform="translate(11.332 12.667)" fill="#3d46c2"/>
      <circle id="Elipse_5723" data-name="Elipse 5723" cx="10" cy="10" r="10" transform="translate(41.999 45.317)" fill="#f2f2f2"/>
      <path id="Trazado_204496" data-name="Trazado 204496" d="M42.667,15.334h1.667A1.667,1.667,0,0,0,45.617,12.6l-8.333-10a1.667,1.667,0,0,0-2.567,0l-8.333,10a1.667,1.667,0,0,0,1.283,2.733h1.667V22h3.333V13.668A1.667,1.667,0,0,0,31.218,12L36,6.234,40.784,12a1.667,1.667,0,0,0-1.45,1.667V22h3.333Z" transform="translate(15.998 0)"/>
      <path id="Trazado_204497" data-name="Trazado 204497" d="M28,15.99h3.333v3.333H28Z" transform="translate(17.332 9.327)"/>
      <path id="Trazado_204498" data-name="Trazado 204498" d="M34,15.99h3.333v3.333H34Z" transform="translate(21.332 9.327)"/>
      <path id="Trazado_204499" data-name="Trazado 204499" d="M60.733,28.374A1.667,1.667,0,0,0,58,29.674v1.667H48v3.333H59.666a1.667,1.667,0,0,0,1.667-1.45l5.733,4.783-5.733,4.767a1.667,1.667,0,0,0-1.667-1.433H48v3.333H58v1.667a1.669,1.669,0,0,0,2.733,1.283l10-8.333a1.667,1.667,0,0,0,0-2.567Z" transform="translate(30.664 17.325)"/>
      <path id="Trazado_204500" data-name="Trazado 204500" d="M2,38a1.667,1.667,0,0,0,.6,1.283l10,8.333a1.666,1.666,0,0,0,2.733-1.283V44.667h10V41.334H13.666A1.667,1.667,0,0,0,12,42.784L6.267,38,12,33.2a1.667,1.667,0,0,0,1.667,1.467H25.333V31.334h-10V29.668A1.667,1.667,0,0,0,12.6,28.384l-10,8.333A1.667,1.667,0,0,0,2,38Z" transform="translate(0 17.332)"/>
      <path id="Trazado_204501" data-name="Trazado 204501" d="M16,25.99h3.333v3.333H16Z" transform="translate(9.333 15.993)"/>
      <path id="Trazado_204502" data-name="Trazado 204502" d="M46,25.99h3.333v3.333H46Z" transform="translate(29.331 15.993)"/>
      <path id="Trazado_204503" data-name="Trazado 204503" d="M48.333,38.666A11.666,11.666,0,1,0,36.666,50.333,11.666,11.666,0,0,0,48.333,38.666Zm-20,0A8.333,8.333,0,1,1,36.666,47,8.333,8.333,0,0,1,28.333,38.666Z" transform="translate(15.332 16.667)"/>
      <path id="Trazado_204504" data-name="Trazado 204504" d="M100.33,85.332H92v-5a1.667,1.667,0,0,0-1.667-1.667H53.665V75.332H57a1.667,1.667,0,0,0,1.667-1.667V70.833a20,20,0,0,0,1.95-.8L62.6,72a1.667,1.667,0,0,0,2.367,0L72,64.949a1.667,1.667,0,0,0,0-2.35l-1.983-2c.283-.633.567-1.283.8-1.95h2.85a1.667,1.667,0,0,0,1.667-1.667V47a1.667,1.667,0,0,0-1.667-1.667H70.848c-.233-.667-.517-1.317-.8-1.95l1.95-2a1.667,1.667,0,0,0,0-2.367l-3.333-3.333V18.668A1.667,1.667,0,0,0,67.215,17L72,11.251,76.781,17a1.667,1.667,0,0,0-1.45,1.667V35.334h3.333v-15h1.667A1.666,1.666,0,0,0,81.614,17.6l-8.333-10a1.667,1.667,0,0,0-2.567,0l-8.333,10a1.666,1.666,0,0,0,1.283,2.733h1.667v12L64.965,32A1.667,1.667,0,0,0,62.6,32l-1.983,1.983a20,20,0,0,0-1.95-.85v-2.8A1.667,1.667,0,0,0,57,28.667H47a1.667,1.667,0,0,0-1.667,1.667V33.15a20,20,0,0,0-1.95.8L41.4,32a1.667,1.667,0,0,0-2.367,0l-.367.367V20.334h1.667A1.666,1.666,0,0,0,41.615,17.6l-8.333-10a1.667,1.667,0,0,0-2.567,0l-8.333,10a1.666,1.666,0,0,0,1.283,2.733h1.667v15h3.333V18.668A1.667,1.667,0,0,0,27.216,17L32,11.251,36.782,17a1.667,1.667,0,0,0-1.45,1.667v17L32,39a1.667,1.667,0,0,0,0,2.367l1.983,1.983c-.283.633-.567,1.283-.8,1.95h-2.85a1.667,1.667,0,0,0-1.667,1.667v10a1.667,1.667,0,0,0,1.667,1.667h2.817c.233.667.517,1.317.8,1.95L32,62.6a1.667,1.667,0,0,0,0,2.35L39.032,72A1.667,1.667,0,0,0,41.4,72l1.983-2a20,20,0,0,0,1.95.833v2.833A1.667,1.667,0,0,0,47,75.332h3.333v3.333H13.666A1.667,1.667,0,0,0,12,80.332v5H3.667A1.667,1.667,0,0,0,2,87V97a1.667,1.667,0,0,0,1.667,1.667h20A1.667,1.667,0,0,0,25.333,97V87a1.667,1.667,0,0,0-1.667-1.667H15.333V82h35v3.333H42A1.667,1.667,0,0,0,40.332,87V97A1.667,1.667,0,0,0,42,98.665H62A1.667,1.667,0,0,0,63.665,97V87A1.667,1.667,0,0,0,62,85.332H53.665V82h35v3.333H80.331A1.667,1.667,0,0,0,78.664,87V97a1.667,1.667,0,0,0,1.667,1.667h20A1.667,1.667,0,0,0,102,97V87A1.667,1.667,0,0,0,100.33,85.332ZM47.449,68.016a16.082,16.082,0,0,1-3.567-1.483,1.667,1.667,0,0,0-2,.283l-1.667,1.667-4.717-4.7,1.667-1.667a1.667,1.667,0,0,0,.267-2,16.05,16.05,0,0,1-1.467-3.567A1.667,1.667,0,0,0,34.3,55.333H32V48.667h2.367a1.667,1.667,0,0,0,1.667-1.217A16.382,16.382,0,0,1,37.5,43.883a1.667,1.667,0,0,0-.267-2l-1.667-1.667L40.282,35.5l1.667,1.667a1.667,1.667,0,0,0,2,.283,16.05,16.05,0,0,1,3.567-1.467,1.667,1.667,0,0,0,1.217-1.667V32H55.4v2.367a1.667,1.667,0,0,0,1.217,1.667A16.049,16.049,0,0,1,60.181,37.5a1.667,1.667,0,0,0,2-.283l1.667-1.667,4.717,4.717L66.9,41.933a1.667,1.667,0,0,0-.267,2A16.383,16.383,0,0,1,68.1,47.5a1.667,1.667,0,0,0,1.667,1.217H72v6.666H69.631A1.667,1.667,0,0,0,67.965,56.6,16.049,16.049,0,0,1,66.5,60.166a1.667,1.667,0,0,0,.267,2l1.667,1.667-4.717,4.7-1.667-1.667a1.667,1.667,0,0,0-2-.283,16.083,16.083,0,0,1-3.567,1.483,1.667,1.667,0,0,0-1.217,1.667V72h-6.6V69.616a1.667,1.667,0,0,0-1.217-1.6ZM22,95.332H5.333V88.665H22Zm38.332,0H43.665V88.665H60.331Zm38.332,0H82V88.665H98.664Z" transform="translate(0 3.333)"/>
    </g>
    <g id="plan" transform="translate(719 4471.274)">
      <g id="Grupo_150510" data-name="Grupo 150510" transform="translate(1.467 55.172)">
        <path id="Trazado_204505" data-name="Trazado 204505" d="M7.511,156.773H101.36A3.988,3.988,0,0,1,104.583,160V210.98a3.994,3.994,0,0,1-3.222,3.222H16.84a9.331,9.331,0,0,1-9.329-9.334V156.773Z" transform="translate(-7.511 -138.11)" fill="#fff" fill-rule="evenodd"/>
        <path id="Trazado_204506" data-name="Trazado 204506" d="M16.84,61.218a9.326,9.326,0,0,0-9.329,9.329v57.429a9.326,9.326,0,0,1,9.329-9.329,8.716,8.716,0,0,1,4.629,1.224.648.648,0,0,0,1-.609V64.291a2.269,2.269,0,0,0-1.135-1.927,9.231,9.231,0,0,0-4.49-1.146Z" transform="translate(-7.511 -61.218)" fill="#e8e8e8" fill-rule="evenodd"/>
        <path id="Trazado_204507" data-name="Trazado 204507" d="M125.434,195.041h13.941a1.429,1.429,0,0,1,1.423,1.423V210.4a1.426,1.426,0,0,1-1.423,1.423H125.434a1.421,1.421,0,0,1-1.417-1.423V196.464A1.425,1.425,0,0,1,125.434,195.041Z" transform="translate(-101.262 -168.904)" fill="#dce736" fill-rule="evenodd"/>
        <path id="Trazado_204508" data-name="Trazado 204508" d="M412.889,107.823l-6.539-1.988-5.979,1.988v46.661l6.295,1.639,6.223-1.639Z" transform="translate(-323.64 -97.121)" fill="#3d46c2" fill-rule="evenodd"/>
        <path id="Trazado_204509" data-name="Trazado 204509" d="M407.419,365.683l2.342-4.606,3.128-6.162H400.371l3.128,6.162,2.342,4.606A.859.859,0,0,0,407.419,365.683Z" transform="translate(-323.64 -297.552)" fill="#ffd4a2" fill-rule="evenodd"/>
        <path id="Trazado_204510" data-name="Trazado 204510" d="M412.889,71.92V65.044a3.837,3.837,0,0,0-3.826-3.826H404.2a3.838,3.838,0,0,0-3.831,3.826V71.92Z" transform="translate(-323.64 -61.218)" fill="#f85316" fill-rule="evenodd"/>
        <path id="Trazado_204511" data-name="Trazado 204511" d="M118.109,380.059h9.545l1.567-5.182-1.567-4.031h-9.545a2.969,2.969,0,0,0-2.4,2.4v4.413a2.969,2.969,0,0,0,2.4,2.4Z" transform="translate(-94.579 -310.372)" fill="#dce736" fill-rule="evenodd"/>
        <path id="Trazado_204512" data-name="Trazado 204512" d="M176.856,339.639H188.8l1.633-5.891-1.633-9.063v-1.666a2.969,2.969,0,0,0-2.4-2.4h-7.142a2.968,2.968,0,0,0-2.4,2.4v16.62Z" transform="translate(-143.781 -269.952)" fill="#75b62f" fill-rule="evenodd"/>
        <path id="Trazado_204513" data-name="Trazado 204513" d="M238.028,356.4H249.97l1.207-3.97-1.207-5.243v-3.344a2.969,2.969,0,0,0-2.4-2.4h-9.539Z" transform="translate(-193.005 -286.718)" fill="#dce736" fill-rule="evenodd"/>
        <path id="Trazado_204514" data-name="Trazado 204514" d="M299.172,380.059h9.545a2.969,2.969,0,0,0,2.4-2.4v-4.413a2.969,2.969,0,0,0-2.4-2.4h-9.545Z" transform="translate(-242.207 -310.372)" fill="#75b62f" fill-rule="evenodd"/>
      </g>
      <path id="Trazado_204519" data-name="Trazado 204519" d="M89.254,64.412V59a2.382,2.382,0,0,0-2.364-2.364H82.029A2.372,2.372,0,0,0,79.665,59v5.415h9.589ZM28.02,90.737a1.464,1.464,0,0,1,2.071-2.071L31.425,90l3.7-3.709A1.466,1.466,0,0,1,37.2,88.368l-4.739,4.739a1.467,1.467,0,0,1-2.071,0Zm54.972-16.9a1.464,1.464,0,1,1,2.929,0v30.744a1.464,1.464,0,1,1-2.929,0ZM59.9,123.4h9.013v-6.284H59.9Zm10.475,2.929H22.6a1.47,1.47,0,0,1-1.467-1.467v-9.213a1.465,1.465,0,0,1,1.467-1.462H33.08v-8.349a1.46,1.46,0,0,1,1.462-1.461H46.49a1.46,1.46,0,0,1,1.462,1.461v2.6h10.48A1.47,1.47,0,0,1,59.9,109.9v4.28H70.374a1.465,1.465,0,0,1,1.467,1.462v9.213A1.47,1.47,0,0,1,70.374,126.326ZM47.952,123.4h9.014V111.372H47.952Zm-11.942,0h9.013V107.3H36.009Zm-11.948,0h9.019v-6.284H24.062ZM17.883,72.368H76.73V59a5.312,5.312,0,0,1,5.3-5.293H86.89A5.312,5.312,0,0,1,92.183,59V72.368h6.356A1.465,1.465,0,0,1,100,73.835v57.429a1.46,1.46,0,0,1-1.462,1.462H57.984a1.464,1.464,0,0,1,0-2.929H97.071V75.3H92.183V85.888a1.464,1.464,0,1,1-2.929,0V67.341H79.664v43.732h9.589V92.526a1.464,1.464,0,1,1,2.929,0v20.009a1.554,1.554,0,0,1-.249.83l-6.168,12.147a1.489,1.489,0,0,1-.653.653,1.458,1.458,0,0,1-1.96-.648l-6.19-12.18a1.558,1.558,0,0,1-.232-.8V75.3H17.883V86.38a1.464,1.464,0,1,1-2.929,0V57.818A7.769,7.769,0,0,0,10.8,56.633,7.864,7.864,0,0,0,2.928,64.5v50.038c.078-.083.155-.166.232-.244a10.767,10.767,0,0,1,7.635-3.161,10.932,10.932,0,0,1,3.433.559c.244.083.487.177.725.277V93.019a1.464,1.464,0,1,1,2.929,0v21.465a1.465,1.465,0,0,1-2.347,1.163,7.67,7.67,0,0,0-2.237-1.179,7.87,7.87,0,1,0-2.5,15.33H51.351a1.464,1.464,0,0,1,0,2.929H10.8A10.793,10.793,0,0,1,0,121.93V64.5a10.8,10.8,0,0,1,17.229-8.67,1.475,1.475,0,0,1,.653,1.224V72.368ZM88.335,114H80.578l3.881,7.635ZM68.758,81.243a1.464,1.464,0,0,1,0,2.929H48.931a1.464,1.464,0,0,1,0-2.929ZM60.514,95.228a1.464,1.464,0,1,1,0,2.929H48.932a1.464,1.464,0,0,1,0-2.929Zm8.244-6.993a1.464,1.464,0,0,1,0,2.929H48.931a1.464,1.464,0,0,1,0-2.929ZM24.222,79.842H41a1.465,1.465,0,0,1,1.462,1.467V98.09A1.465,1.465,0,0,1,41,99.557H24.222a1.466,1.466,0,0,1-1.467-1.467V81.309a1.466,1.466,0,0,1,1.467-1.467Zm15.314,2.934H25.684V96.628H39.536Z" transform="translate(0)"/>
    </g>
    <g id="verificar" transform="translate(780 4935.235)">
      <g id="Grupo_150511" data-name="Grupo 150511" transform="translate(11.953 1.953)">
        <path id="Trazado_204520" data-name="Trazado 204520" d="M336.392,255.513a3.749,3.749,0,0,0-3.762,3.714v-13.29a3.984,3.984,0,0,0-7.967,0v21.98l-.831.473a3.322,3.322,0,0,0-1.789,2.544,6.98,6.98,0,0,0,.281,2.739l1.471,5.09,2.1,7.276v4.125a2.646,2.646,0,0,0,2.656,2.621h19.918a2.647,2.647,0,0,0,2.656-2.621v-4.125l2.41-3.153c1.363-1.784,1.668-2.959,1.668-5.721V264.178a3.763,3.763,0,0,0-7.525,0v-2.427a3.739,3.739,0,0,0-2.9-3.615,3.788,3.788,0,0,0-.862-.1,3.749,3.749,0,0,0-3.762,3.714v-2.525a3.758,3.758,0,0,0-3.762-3.714Z" transform="translate(-263.016 -196.691)" fill="#ffdcd5" fill-rule="evenodd"/>
        <path id="Trazado_204521" data-name="Trazado 204521" d="M79.026,84.243A35.158,35.158,0,1,1,94.29,68.933a3.738,3.738,0,0,1,2.847,3.6V75.06a3.766,3.766,0,0,1,4.624-3.615A42.97,42.97,0,1,0,80.778,92.072l-1.471-5.09a6.981,6.981,0,0,1-.281-2.739Z" transform="translate(-20 -10)" fill="#75b62f" fill-rule="evenodd"/>
        <path id="Trazado_204522" data-name="Trazado 204522" d="M95.156,120.312a35.153,35.153,0,0,0,16.058-3.882A3.322,3.322,0,0,1,113,113.886l.831-.473V91.432a3.984,3.984,0,0,1,7.967,0v13.29a3.749,3.749,0,0,1,3.762-3.714,3.791,3.791,0,0,1,.915.112,35.156,35.156,0,1,0-31.322,19.192Z" transform="translate(-52.188 -42.187)" fill="#dce736" fill-rule="evenodd"/>
        <path id="Trazado_204523" data-name="Trazado 204523" d="M152.058,179.2a4.882,4.882,0,0,1,6.9-6.9l5.634,5.634L177.2,165.318a4.882,4.882,0,0,1,6.9,6.9l-16.06,16.06a4.882,4.882,0,0,1-6.9,0Z" transform="translate(-125.115 -133.832)" fill="#fff" fill-rule="evenodd"/>
      </g>
      <g id="Grupo_150512" data-name="Grupo 150512" transform="translate(10 0)">
        <path id="Trazado_204524" data-name="Trazado 204524" d="M100.378,63.773a5.722,5.722,0,0,0-2.487.565,5.718,5.718,0,0,0-1.624-1.864,45.236,45.236,0,0,0,3.577-17.552,44.736,44.736,0,0,0-7.357-24.638,1.953,1.953,0,1,0-3.265,2.146,40.836,40.836,0,0,1,6.716,22.492A41.293,41.293,0,0,1,92.5,61.358a5.712,5.712,0,0,0-2.09.534,5.714,5.714,0,0,0-1.587-1.882,37.106,37.106,0,1,0-65.829,3.828,1.953,1.953,0,1,0,3.359-1.994,33.207,33.207,0,1,1,58.715-3.011,5.733,5.733,0,0,0-1.547.28V51.2a5.937,5.937,0,0,0-11.873,0V72.046a5.206,5.206,0,0,0-2.342,2.8A33.206,33.206,0,0,1,38,73.494a1.953,1.953,0,0,0-1.994,3.359A37.091,37.091,0,0,0,69.3,79.127c.026.106.049.211.078.32l.009.03.992,3.433a41.014,41.014,0,1,1-15.454-79,40.832,40.832,0,0,1,22.494,6.716,1.953,1.953,0,0,0,2.146-3.264,44.923,44.923,0,0,0-56.4,69.328,44.914,44.914,0,0,0,48.309,10l1.414,4.894v3.848A4.6,4.6,0,0,0,77.489,100H97.407a4.6,4.6,0,0,0,4.609-4.574V91.962l2.008-2.628c1.77-2.316,2.069-4,2.069-6.907V69.44a5.7,5.7,0,0,0-5.715-5.667Zm1.809,18.654c0,2.52-.27,3.231-1.266,4.535l-2.41,3.153a1.953,1.953,0,0,0-.4,1.186v4.125a.7.7,0,0,1-.7.668H77.489a.7.7,0,0,1-.7-.668V91.3a1.948,1.948,0,0,0-.077-.542l-3.569-12.35c-.637-2.359.074-2.764.594-3.061l.831-.473a1.953,1.953,0,0,0,.986-1.7V51.2a2.031,2.031,0,0,1,4.061,0V68.553a1.953,1.953,0,0,0,3.906,0V64.488a1.81,1.81,0,0,1,3.619,0v2.525a1.953,1.953,0,0,0,3.906,0,1.81,1.81,0,0,1,3.619,0V69.44a1.953,1.953,0,0,0,3.906,0,1.81,1.81,0,0,1,3.619,0Z" transform="translate(-10 0)"/>
        <path id="Trazado_204525" data-name="Trazado 204525" d="M387.521,68.345A1.953,1.953,0,0,0,388.9,65.01h0a1.953,1.953,0,1,0-1.38,3.335Z" transform="translate(-312.215 -51.852)"/>
        <path id="Trazado_204526" data-name="Trazado 204526" d="M104.679,351.188a1.953,1.953,0,0,0,1.5-3.2h0a1.953,1.953,0,1,0-1.5,3.2Z" transform="translate(-84.614 -279.453)"/>
        <path id="Trazado_204527" data-name="Trazado 204527" d="M151.718,181.631a6.836,6.836,0,0,0,9.667,0l16.06-16.06a6.835,6.835,0,1,0-9.667-9.667l-11.227,11.227-4.253-4.253a6.835,6.835,0,0,0-9.667,9.667Zm-6.324-15.991a2.932,2.932,0,0,1,4.143,0l5.634,5.634a1.953,1.953,0,0,0,2.762,0l12.608-12.608a2.929,2.929,0,1,1,4.142,4.142l-16.06,16.061a2.932,2.932,0,0,1-4.142,0l-9.086-9.086A2.933,2.933,0,0,1,145.394,165.641Z" transform="translate(-115.116 -123.846)"/>
      </g>
    </g>
    <g id="ingenieria" transform="translate(553 4764)">
      <path id="Trazado_204528" data-name="Trazado 204528" d="M59.312,58.7a24.9,24.9,0,0,1-1.285,4.807l5.218,4.728a31.462,31.462,0,0,1-2.527,4.41l-6.7-2.16a25.072,25.072,0,0,1-3.532,3.53l2.16,6.7a31.627,31.627,0,0,1-4.41,2.527l-4.728-5.218A24.87,24.87,0,0,1,38.7,79.312l-1.488,6.893c-.842.067-1.687.128-2.547.128s-1.705-.062-2.548-.128L30.63,79.312a24.9,24.9,0,0,1-4.807-1.285L21.1,83.245a31.459,31.459,0,0,1-4.41-2.527l2.16-6.7a25.148,25.148,0,0,1-3.53-3.53l-6.7,2.16a31.629,31.629,0,0,1-2.527-4.41l5.218-4.728A24.869,24.869,0,0,1,10.022,58.7L3.128,57.215C3.062,56.372,3,55.527,3,54.667s.062-1.705.128-2.548l6.893-1.488a24.9,24.9,0,0,1,1.285-4.807L6.088,41.1a31.462,31.462,0,0,1,2.527-4.41l6.7,2.16a25.071,25.071,0,0,1,3.532-3.53l-2.16-6.7a31.629,31.629,0,0,1,4.41-2.527l4.728,5.218a24.869,24.869,0,0,1,4.807-1.285l1.488-6.893c.842-.067,1.687-.128,2.547-.128s1.705.062,2.548.128L38.7,30.022a24.9,24.9,0,0,1,4.807,1.285l4.728-5.218a31.462,31.462,0,0,1,4.41,2.527l-2.16,6.7a25.071,25.071,0,0,1,3.53,3.532l6.7-2.16a31.628,31.628,0,0,1,2.527,4.41l-5.218,4.728a24.869,24.869,0,0,1,1.285,4.807l6.893,1.488c.067.842.128,1.687.128,2.547s-.062,1.705-.128,2.548ZM34.667,38A16.667,16.667,0,1,0,51.334,54.667,16.666,16.666,0,0,0,34.667,38Z" transform="translate(0.667 14)" fill="#3d46c2"/>
      <path id="Trazado_204529" data-name="Trazado 204529" d="M63.1,25.175a13.358,13.358,0,0,1-1.018,2.467l2.632,5.043a18.419,18.419,0,0,1-3.025,3.025l-5.043-2.632A13.132,13.132,0,0,1,54.177,34.1L52.47,39.53a18.113,18.113,0,0,1-2.137.137,18.422,18.422,0,0,1-2.135-.135L46.492,34.1a13.245,13.245,0,0,1-2.467-1.018l-5.043,2.632a18.418,18.418,0,0,1-3.025-3.025l2.632-5.043a13.132,13.132,0,0,1-1.018-2.467L32.137,23.47A18.111,18.111,0,0,1,32,21.333a18.422,18.422,0,0,1,.135-2.135l5.433-1.707a13.244,13.244,0,0,1,1.018-2.467L35.955,9.982A18.418,18.418,0,0,1,38.98,6.957l5.043,2.632A13.132,13.132,0,0,1,46.49,8.57L48.2,3.137A18.111,18.111,0,0,1,50.333,3a18.423,18.423,0,0,1,2.135.135l1.707,5.433a13.244,13.244,0,0,1,2.467,1.018l5.043-2.632A18.418,18.418,0,0,1,64.71,9.98l-2.632,5.043A13.133,13.133,0,0,1,63.1,17.49L68.53,19.2a18.111,18.111,0,0,1,.137,2.137,18.422,18.422,0,0,1-.135,2.135ZM50.333,14.667A6.667,6.667,0,1,0,57,21.333,6.667,6.667,0,0,0,50.333,14.667Z" transform="translate(20 0.666)" fill="#75b62f"/>
      <path id="Trazado_204530" data-name="Trazado 204530" d="M69.232,46.118a11.6,11.6,0,0,1-1.082,2.62l1.658,3.49a15.117,15.117,0,0,1-2.58,2.58l-3.49-1.658a11.569,11.569,0,0,1-2.62,1.082l-1.3,3.647a13.7,13.7,0,0,1-3.643,0l-1.3-3.647a11.6,11.6,0,0,1-2.62-1.082l-3.49,1.658a15.117,15.117,0,0,1-2.58-2.58l1.658-3.49a11.588,11.588,0,0,1-1.082-2.618l-3.647-1.3a13.71,13.71,0,0,1,0-3.645l3.647-1.3a11.556,11.556,0,0,1,1.082-2.618l-1.658-3.49a15.117,15.117,0,0,1,2.58-2.58l3.49,1.658a11.568,11.568,0,0,1,2.62-1.082l1.3-3.647A14.6,14.6,0,0,1,58,28a14.927,14.927,0,0,1,1.822.122l1.3,3.647a11.6,11.6,0,0,1,2.62,1.082l3.49-1.658a15.117,15.117,0,0,1,2.58,2.58l-1.658,3.49a11.569,11.569,0,0,1,1.082,2.62l3.647,1.3a13.7,13.7,0,0,1,0,3.643ZM58,38a5,5,0,1,0,5,5A5,5,0,0,0,58,38Z" transform="translate(27.334 17.333)" fill="#dce736"/>
      <g id="Grupo_150513" data-name="Grupo 150513" transform="translate(2 2.001)">
        <path id="Trazado_204531" data-name="Trazado 204531" d="M2.133,58a1.665,1.665,0,0,0,1.31,1.5l5.808,1.253a26.331,26.331,0,0,0,.78,2.92l-4.4,3.983a1.666,1.666,0,0,0-.385,1.952A33.327,33.327,0,0,0,7.91,74.25a1.667,1.667,0,0,0,1.882.638l5.645-1.818a26.706,26.706,0,0,0,2.15,2.15l-1.818,5.645a1.667,1.667,0,0,0,.638,1.882,33.327,33.327,0,0,0,4.642,2.66A1.668,1.668,0,0,0,23,85.022l3.983-4.4a26.831,26.831,0,0,0,2.922.78l1.253,5.808a1.669,1.669,0,0,0,1.5,1.31c.887.07,1.775.133,2.68.133s1.793-.063,2.68-.133a1.665,1.665,0,0,0,1.5-1.31l1.253-5.808a26.359,26.359,0,0,0,2.922-.78l3.983,4.4a1.665,1.665,0,0,0,1.952.385,33.495,33.495,0,0,0,4.642-2.66,1.667,1.667,0,0,0,.638-1.882L53.082,75.22a26.958,26.958,0,0,0,2.15-2.148l5.645,1.818a1.664,1.664,0,0,0,1.882-.638,33.328,33.328,0,0,0,2.66-4.642,1.666,1.666,0,0,0-.385-1.952l-4.4-3.983a26.83,26.83,0,0,0,.78-2.922L67.226,59.5a1.669,1.669,0,0,0,1.31-1.5c.068-.888.132-1.777.132-2.682s-.063-1.793-.133-2.68a1.665,1.665,0,0,0-1.31-1.5l-5.808-1.253a26.36,26.36,0,0,0-.78-2.922l4.4-3.983a1.666,1.666,0,0,0,.385-1.952,33.495,33.495,0,0,0-2.66-4.642,1.664,1.664,0,0,0-1.882-.638L55.23,37.575a26.7,26.7,0,0,0-2.15-2.15L54.9,29.78A1.667,1.667,0,0,0,54.26,27.9a33.327,33.327,0,0,0-4.642-2.66,1.663,1.663,0,0,0-1.952.385l-3.983,4.4a26.833,26.833,0,0,0-2.922-.78l-1.253-5.808a1.669,1.669,0,0,0-1.5-1.31,33.874,33.874,0,0,0-5.362,0,1.665,1.665,0,0,0-1.5,1.31L29.9,29.24a26.331,26.331,0,0,0-2.92.78L23,25.623a1.666,1.666,0,0,0-1.952-.385,33.327,33.327,0,0,0-4.642,2.66,1.667,1.667,0,0,0-.638,1.882l1.818,5.645a26.7,26.7,0,0,0-2.15,2.15L9.792,35.757a1.663,1.663,0,0,0-1.882.638,33.327,33.327,0,0,0-2.66,4.642,1.666,1.666,0,0,0,.385,1.952l4.4,3.983a26.832,26.832,0,0,0-.78,2.922L3.443,51.147a1.669,1.669,0,0,0-1.31,1.5C2.063,53.53,2,54.418,2,55.323s.063,1.793.133,2.68Zm3.235-3.862,5.67-1.225a1.667,1.667,0,0,0,1.293-1.362,23.235,23.235,0,0,1,1.2-4.485,1.665,1.665,0,0,0-.44-1.825l-4.282-3.88c.373-.715.763-1.4,1.167-2.048l5.493,1.77a1.673,1.673,0,0,0,1.8-.53,23.434,23.434,0,0,1,3.3-3.3,1.665,1.665,0,0,0,.53-1.8l-1.77-5.493q.973-.608,2.048-1.167l3.88,4.283a1.669,1.669,0,0,0,1.827.44,23.123,23.123,0,0,1,4.483-1.2,1.667,1.667,0,0,0,1.362-1.293l1.223-5.67a21.951,21.951,0,0,1,2.365,0l1.225,5.67A1.667,1.667,0,0,0,39.1,32.323a23.235,23.235,0,0,1,4.485,1.2,1.664,1.664,0,0,0,1.825-.44l3.88-4.282c.715.373,1.4.763,2.048,1.167L49.57,35.46a1.668,1.668,0,0,0,.53,1.8,23.434,23.434,0,0,1,3.3,3.3,1.661,1.661,0,0,0,1.8.53l5.493-1.77q.608.973,1.167,2.047l-4.283,3.88a1.667,1.667,0,0,0-.44,1.827,23.123,23.123,0,0,1,1.2,4.483,1.667,1.667,0,0,0,1.293,1.362L65.3,54.14c.022.392.037.787.037,1.183s-.013.792-.035,1.182l-5.67,1.225a1.667,1.667,0,0,0-1.293,1.362,23.234,23.234,0,0,1-1.2,4.485,1.665,1.665,0,0,0,.44,1.825l4.282,3.88c-.373.715-.763,1.4-1.167,2.048L55.2,69.56a1.659,1.659,0,0,0-1.8.53,23.523,23.523,0,0,1-3.3,3.3,1.666,1.666,0,0,0-.53,1.8l1.77,5.493q-.973.607-2.047,1.167l-3.88-4.283a1.673,1.673,0,0,0-1.827-.44,23.123,23.123,0,0,1-4.483,1.2,1.667,1.667,0,0,0-1.362,1.293l-1.223,5.67a21.949,21.949,0,0,1-2.365,0l-1.225-5.67a1.667,1.667,0,0,0-1.362-1.293,23.235,23.235,0,0,1-4.485-1.2,1.663,1.663,0,0,0-1.825.44l-3.88,4.282c-.715-.373-1.4-.763-2.048-1.167l1.77-5.493a1.668,1.668,0,0,0-.53-1.8,23.434,23.434,0,0,1-3.3-3.3,1.664,1.664,0,0,0-1.8-.53l-5.493,1.77q-.608-.973-1.167-2.048l4.283-3.88a1.667,1.667,0,0,0,.44-1.827,23.123,23.123,0,0,1-1.2-4.483,1.667,1.667,0,0,0-1.293-1.362l-5.673-1.22c-.02-.392-.035-.787-.035-1.183S5.347,54.532,5.368,54.142Z" transform="translate(-2 11.343)"/>
        <path id="Trazado_204532" data-name="Trazado 204532" d="M69.7,25.725a1.665,1.665,0,0,0,1.155-1.4A19.6,19.6,0,0,0,71,22a19.939,19.939,0,0,0-.145-2.327,1.665,1.665,0,0,0-1.155-1.4l-4.622-1.452q-.208-.568-.46-1.113l2.24-4.292a1.67,1.67,0,0,0-.17-1.805,20.179,20.179,0,0,0-3.3-3.3,1.671,1.671,0,0,0-1.805-.172l-4.3,2.24q-.545-.25-1.113-.458L54.725,3.3a1.665,1.665,0,0,0-1.4-1.155,18.437,18.437,0,0,0-4.655,0,1.665,1.665,0,0,0-1.4,1.155L45.822,7.925q-.568.208-1.113.46l-4.292-2.24a1.674,1.674,0,0,0-1.805.17,20.179,20.179,0,0,0-3.3,3.3,1.667,1.667,0,0,0-.172,1.805L37.38,15.71q-.25.545-.458,1.113L32.3,18.275a1.665,1.665,0,0,0-1.155,1.4,18.74,18.74,0,0,0,0,4.653,1.665,1.665,0,0,0,1.155,1.4l4.622,1.452q.207.568.46,1.113l-2.24,4.292a1.67,1.67,0,0,0,.17,1.805,20.179,20.179,0,0,0,3.3,3.3,1.67,1.67,0,0,0,1.805.172l4.292-2.238q.545.25,1.113.458L47.272,40.7a1.665,1.665,0,0,0,1.4,1.155A19.7,19.7,0,0,0,51,42a19.939,19.939,0,0,0,2.327-.145,1.665,1.665,0,0,0,1.4-1.155l1.452-4.622q.568-.207,1.113-.46l4.292,2.24a1.667,1.667,0,0,0,1.805-.17,20.179,20.179,0,0,0,3.3-3.3,1.667,1.667,0,0,0,.172-1.805l-2.24-4.292q.253-.545.46-1.113Zm-6.433-1.473a1.671,1.671,0,0,0-1.1,1.112,11.739,11.739,0,0,1-.89,2.157,1.662,1.662,0,0,0-.01,1.56l2.115,4.053a17.009,17.009,0,0,1-1.25,1.25L58.08,32.268a1.667,1.667,0,0,0-1.56.01,11.739,11.739,0,0,1-2.157.89,1.671,1.671,0,0,0-1.112,1.1l-1.373,4.373a14.042,14.042,0,0,1-1.757,0l-1.373-4.373a1.671,1.671,0,0,0-1.112-1.1,11.581,11.581,0,0,1-2.155-.89,1.666,1.666,0,0,0-1.562-.01l-4.053,2.115a17.009,17.009,0,0,1-1.25-1.25l2.115-4.053a1.667,1.667,0,0,0-.01-1.56,11.739,11.739,0,0,1-.89-2.157,1.671,1.671,0,0,0-1.1-1.112l-4.373-1.373c-.02-.305-.028-.6-.028-.878s.008-.573.028-.878l4.373-1.373a1.671,1.671,0,0,0,1.1-1.112,11.581,11.581,0,0,1,.89-2.155,1.666,1.666,0,0,0,.01-1.562l-2.115-4.053a17.01,17.01,0,0,1,1.25-1.25l4.053,2.115a1.672,1.672,0,0,0,1.56-.01,11.739,11.739,0,0,1,2.157-.89,1.671,1.671,0,0,0,1.112-1.1l1.373-4.373a14.041,14.041,0,0,1,1.757,0l1.373,4.373a1.671,1.671,0,0,0,1.112,1.1,11.581,11.581,0,0,1,2.155.89,1.666,1.666,0,0,0,1.562.01l4.053-2.115a17.01,17.01,0,0,1,1.25,1.25L61.269,14.92a1.667,1.667,0,0,0,.01,1.56,11.739,11.739,0,0,1,.89,2.157,1.671,1.671,0,0,0,1.1,1.112l4.373,1.373c.02.305.028.6.028.878s-.008.573-.028.878Z" transform="translate(17.334 -2.001)"/>
        <path id="Trazado_204533" data-name="Trazado 204533" d="M74.1,40.273,71.24,39.256a13.507,13.507,0,0,0-.562-1.362l1.3-2.742a1.66,1.66,0,0,0-.193-1.74,16.774,16.774,0,0,0-2.865-2.867,1.667,1.667,0,0,0-1.742-.193l-2.743,1.3a13.311,13.311,0,0,0-1.36-.56l-1.018-2.863a1.67,1.67,0,0,0-1.37-1.1,15.359,15.359,0,0,0-4.045,0,1.665,1.665,0,0,0-1.37,1.1l-1.017,2.863a13.508,13.508,0,0,0-1.362.562l-2.742-1.3a1.668,1.668,0,0,0-1.74.193,16.774,16.774,0,0,0-2.867,2.865,1.67,1.67,0,0,0-.193,1.742l1.3,2.743a13.311,13.311,0,0,0-.56,1.36l-2.863,1.018a1.671,1.671,0,0,0-1.1,1.37A16.329,16.329,0,0,0,42,43.666a16.706,16.706,0,0,0,.133,2.022,1.665,1.665,0,0,0,1.1,1.37l2.863,1.017a13.509,13.509,0,0,0,.562,1.362l-1.3,2.742a1.66,1.66,0,0,0,.193,1.74,16.774,16.774,0,0,0,2.865,2.867,1.67,1.67,0,0,0,1.742.193l2.743-1.3a13.311,13.311,0,0,0,1.36.56L55.275,59.1a1.67,1.67,0,0,0,1.37,1.1,16.1,16.1,0,0,0,2.022.137,16.706,16.706,0,0,0,2.022-.133,1.665,1.665,0,0,0,1.37-1.1l1.017-2.863a13.51,13.51,0,0,0,1.362-.562l2.742,1.3a1.656,1.656,0,0,0,1.74-.193,16.774,16.774,0,0,0,2.867-2.865,1.669,1.669,0,0,0,.193-1.742l-1.3-2.743a13.311,13.311,0,0,0,.56-1.36L74.1,47.058a1.67,1.67,0,0,0,1.1-1.37,16.1,16.1,0,0,0,.137-2.022,16.706,16.706,0,0,0-.133-2.022,1.667,1.667,0,0,0-1.1-1.372Zm-2.12,4-2.642.938a1.667,1.667,0,0,0-1.048,1.125,9.917,9.917,0,0,1-.925,2.245,1.671,1.671,0,0,0-.055,1.535l1.2,2.522q-.415.455-.868.868l-2.522-1.2a1.671,1.671,0,0,0-1.535.055,9.923,9.923,0,0,1-2.243.925,1.673,1.673,0,0,0-1.127,1.048l-.938,2.642a11.4,11.4,0,0,1-1.217,0l-.938-2.642A1.667,1.667,0,0,0,56,53.291a9.917,9.917,0,0,1-2.245-.925,1.68,1.68,0,0,0-1.535-.055l-2.522,1.2q-.455-.415-.868-.868l1.2-2.522a1.666,1.666,0,0,0-.055-1.535,9.923,9.923,0,0,1-.925-2.243A1.673,1.673,0,0,0,48,45.213l-2.642-.938c-.013-.2-.02-.4-.02-.608s.007-.408.017-.608l2.642-.94a1.661,1.661,0,0,0,1.047-1.125,9.967,9.967,0,0,1,.927-2.245,1.671,1.671,0,0,0,.055-1.535l-1.2-2.522q.415-.455.868-.868l2.522,1.2a1.661,1.661,0,0,0,1.535-.055,9.923,9.923,0,0,1,2.243-.925,1.673,1.673,0,0,0,1.127-1.048l.938-2.642a11.393,11.393,0,0,1,1.217,0l.938,2.642a1.667,1.667,0,0,0,1.125,1.048,9.917,9.917,0,0,1,2.245.925,1.661,1.661,0,0,0,1.535.055l2.522-1.2q.455.415.868.868l-1.2,2.522a1.666,1.666,0,0,0,.055,1.535,9.923,9.923,0,0,1,.925,2.243,1.673,1.673,0,0,0,1.048,1.127l2.642.938c.013.2.02.405.02.61s-.007.407-.017.608Z" transform="translate(24.667 14.667)"/>
        <path id="Trazado_204534" data-name="Trazado 204534" d="M29.333,67.667A18.333,18.333,0,1,0,11,49.333,18.355,18.355,0,0,0,29.333,67.667Zm0-33.334a15,15,0,1,1-15,15A15.018,15.018,0,0,1,29.333,34.333Z" transform="translate(4 17.333)"/>
        <path id="Trazado_204535" data-name="Trazado 204535" d="M2.022,33.4l2.56,2.135a39.919,39.919,0,0,1,30.737-14.4c.848,0,1.7.048,2.542.1l-2.053,2.053,2.357,2.357,5-5a1.665,1.665,0,0,0,0-2.357l-5-5L35.807,15.65l2.265,2.265c-.917-.058-1.835-.11-2.753-.11a43.246,43.246,0,0,0-33.3,15.6Z" transform="translate(-1.985 5.528)"/>
        <path id="Trazado_204536" data-name="Trazado 204536" d="M46.333,9a8.333,8.333,0,1,0,8.333,8.333A8.343,8.343,0,0,0,46.333,9Zm0,13.333a5,5,0,1,1,5-5A5.006,5.006,0,0,1,46.333,22.333Z" transform="translate(22.001 2.666)"/>
        <path id="Trazado_204537" data-name="Trazado 204537" d="M54.667,33a6.667,6.667,0,1,0,6.667,6.667A6.673,6.673,0,0,0,54.667,33Zm0,10A3.333,3.333,0,1,1,58,39.667,3.337,3.337,0,0,1,54.667,43Z" transform="translate(28.667 18.666)"/>
        <path id="Trazado_204538" data-name="Trazado 204538" d="M65.981,5.7,57.647,4.033A1.663,1.663,0,0,0,55.686,5.34l-1.667,8.333,3.268.655.9-4.487a25.008,25.008,0,0,1,2.468,10.825,24.733,24.733,0,0,1-5.483,15.625l2.6,2.085A28.356,28.356,0,0,0,61.061,8.115l4.267.853Z" transform="translate(32.68 -0.668)"/>
      </g>
    </g>
  </g>
</svg>
