<svg xmlns="http://www.w3.org/2000/svg" width="120" height="120" viewBox="0 0 120 120">
  <g id="Grupo_150461" data-name="Grupo 150461" transform="translate(-740 -751)">
    <g id="Elipse_5611" data-name="Elipse 5611" transform="translate(740 751)" fill="#fff" stroke="#77b43a" stroke-width="4">
      <circle cx="60" cy="60" r="60" stroke="none"/>
      <circle cx="60" cy="60" r="58" fill="none"/>
    </g>
    <g id="lapiz" transform="translate(738.146 768.091)">
      <g id="Grupo_150458" data-name="Grupo 150458" transform="translate(17.777 1.22)">
        <path id="Trazado_204312" data-name="Trazado 204312" d="M106.907,104.334v59.682a5.388,5.388,0,0,0,5.388,5.388h51.183a5.388,5.388,0,0,0,5.388-5.388V104.334Z" transform="translate(-93.434 -88.588)" fill="#f9f5f3"/>
        <g id="Grupo_150456" data-name="Grupo 150456" transform="translate(0 37.71)">
          <path id="Trazado_204314" data-name="Trazado 204314" d="M77.894,285.634,56.868,264.609l-7.619,7.619,21.025,21.025a1.3,1.3,0,0,0,.92.381h1.161l5.919-5.919v-1.161A1.3,1.3,0,0,0,77.894,285.634Z" transform="translate(-45.151 -260.511)" fill="#75b62f"/>
          <path id="Trazado_204316" data-name="Trazado 204316" d="M188.945,403v-5.78a1.3,1.3,0,0,0-.084-.455l-7.452,7.452a1.3,1.3,0,0,0,.455.084h5.78A1.3,1.3,0,0,0,188.945,403Z" transform="translate(-155.821 -371.181)" fill="#f9eae0"/>
          <path id="Trazado_204317" data-name="Trazado 204317" d="M28.646,240.2l-3.81,3.81a2.694,2.694,0,0,0,0,3.81l3.81,3.81,7.619-7.619-3.81-3.81A2.694,2.694,0,0,0,28.646,240.2Z" transform="translate(-24.047 -239.408)" fill="#f85316"/>
        </g>
        <path id="Trazado_204319" data-name="Trazado 204319" d="M163.477,40.634H112.294a5.388,5.388,0,0,0-5.388,5.388V54.1h61.958V46.021a5.387,5.387,0,0,0-5.387-5.387Z" transform="translate(-93.433 -35.246)" fill="#dce736"/>
        <g id="Grupo_150457" data-name="Grupo 150457" transform="translate(21.555)">
          <path id="Trazado_204321" data-name="Trazado 204321" d="M156.607,15.582a2.694,2.694,0,0,0,5.388,0V10.194a2.694,2.694,0,0,0-5.388,0Z" transform="translate(-156.607 -7.5)" fill="#bdd3dd"/>
          <path id="Trazado_204322" data-name="Trazado 204322" d="M405.107,15.582a2.694,2.694,0,1,0,5.388,0V10.194a2.694,2.694,0,1,0-5.388,0Z" transform="translate(-364.699 -7.5)" fill="#bdd3dd"/>
          <path id="Trazado_204323" data-name="Trazado 204323" d="M239.44,15.582a2.694,2.694,0,0,0,5.388,0V10.194a2.694,2.694,0,0,0-5.388,0Z" transform="translate(-225.971 -7.5)" fill="#bdd3dd"/>
          <path id="Trazado_204324" data-name="Trazado 204324" d="M322.274,15.582a2.694,2.694,0,1,0,5.388,0V10.194a2.694,2.694,0,1,0-5.388,0Z" transform="translate(-295.336 -7.5)" fill="#bdd3dd"/>
        </g>
        <path id="Trazado_204325" data-name="Trazado 204325" d="M412.044,7.5a2.683,2.683,0,0,0-1.87.757A2.684,2.684,0,0,1,411,10.194v5.388a2.685,2.685,0,0,1-.824,1.937,2.692,2.692,0,0,0,4.564-1.937V10.194A2.694,2.694,0,0,0,412.044,7.5Z" transform="translate(-347.388 -7.5)" fill="#b0c0d2"/>
        <path id="Trazado_204326" data-name="Trazado 204326" d="M329.211,7.5a2.683,2.683,0,0,0-1.87.757,2.684,2.684,0,0,1,.824,1.937v5.388a2.684,2.684,0,0,1-.824,1.937,2.692,2.692,0,0,0,4.564-1.937V10.194A2.694,2.694,0,0,0,329.211,7.5Z" transform="translate(-278.024 -7.5)" fill="#b0c0d2"/>
        <path id="Trazado_204327" data-name="Trazado 204327" d="M246.378,7.5a2.683,2.683,0,0,0-1.87.757,2.684,2.684,0,0,1,.824,1.937v5.388a2.684,2.684,0,0,1-.824,1.937,2.692,2.692,0,0,0,4.564-1.937V10.194A2.694,2.694,0,0,0,246.378,7.5Z" transform="translate(-208.66 -7.5)" fill="#b0c0d2"/>
        <path id="Trazado_204328" data-name="Trazado 204328" d="M163.544,7.5a2.683,2.683,0,0,0-1.87.757,2.684,2.684,0,0,1,.824,1.937v5.388a2.684,2.684,0,0,1-.824,1.937,2.692,2.692,0,0,0,4.564-1.937V10.194A2.694,2.694,0,0,0,163.544,7.5Z" transform="translate(-139.295 -7.5)" fill="#b0c0d2"/>
      </g>
      <g id="Grupo_150459" data-name="Grupo 150459" transform="translate(16.559 0)">
        <path id="Trazado_204329" data-name="Trazado 204329" d="M87.821,5.388H86.347V3.913a3.913,3.913,0,1,0-7.827,0V5.388H72.877V3.913a3.913,3.913,0,1,0-7.827,0V5.388H59.408V3.913a3.913,3.913,0,1,0-7.827,0V5.388H45.939V3.913a3.913,3.913,0,1,0-7.827,0V5.388H36.638a6.614,6.614,0,0,0-6.607,6.607V41.839l-2.983-2.983a3.918,3.918,0,0,0-5.534,0l-3.81,3.81a3.918,3.918,0,0,0,0,5.534L30.031,60.527v16.12a6.615,6.615,0,0,0,6.607,6.607H78.124a1.22,1.22,0,0,0,0-2.439H36.638a4.173,4.173,0,0,1-4.168-4.168V62.966l9.949,9.949a1.19,1.19,0,0,0,.091.082c.021.017.043.033.066.049l.031.023c.028.019.057.035.086.051l.016.01c.031.016.062.031.094.044l.014.007c.031.013.062.023.093.033l.019.007c.03.009.06.016.089.022l.027.007c.029.006.058.009.088.013l.03,0c.04,0,.079.006.119.006H50.4l1.548,1.548a1.22,1.22,0,0,0,1.725-1.725L52.12,71.547V64.434q0-.06-.006-.12c0-.009,0-.017,0-.026,0-.031-.008-.062-.014-.092,0-.008,0-.015-.006-.023-.007-.031-.014-.062-.023-.093l-.006-.016c-.01-.032-.021-.065-.034-.1l0-.01c-.014-.033-.029-.066-.046-.1l-.007-.012c-.017-.031-.034-.061-.054-.09l-.02-.027c-.017-.024-.033-.047-.052-.07s-.053-.062-.082-.091l-9.949-9.949H83.78a1.22,1.22,0,1,0,0-2.439h-43.1a1.215,1.215,0,0,0-.9.4L32.47,44.278V21.3H91.989v8.317a1.22,1.22,0,0,0,2.439,0V11.995A6.614,6.614,0,0,0,87.821,5.388ZM49.681,70.833H46.225l3.456-3.456ZM24.1,51.147l2.085-2.085L45.366,68.243l-2.085,2.085ZM47.091,66.518,27.91,47.337l2.085-2.085L49.176,64.433ZM19.428,44.39l3.81-3.81a1.476,1.476,0,0,1,2.085,0l2.947,2.947-2.947,2.947h0l-2.947,2.947-2.947-2.947A1.476,1.476,0,0,1,19.428,44.39ZM82.433,2.439a1.476,1.476,0,0,1,1.474,1.474V9.3a1.474,1.474,0,1,1-2.949,0V3.913a1.476,1.476,0,0,1,1.474-1.474Zm-13.469,0a1.476,1.476,0,0,1,1.474,1.474V9.3a1.474,1.474,0,1,1-2.949,0V3.913a1.476,1.476,0,0,1,1.474-1.474ZM54.021,3.913a1.474,1.474,0,1,1,2.949,0V9.3a1.474,1.474,0,1,1-2.949,0ZM42.026,2.439A1.476,1.476,0,0,1,43.5,3.913V9.3a1.474,1.474,0,0,1-2.949,0V3.913A1.476,1.476,0,0,1,42.026,2.439ZM32.47,18.857V11.995a4.173,4.173,0,0,1,4.168-4.168h1.475V9.3a3.913,3.913,0,0,0,7.827,0V7.827h5.642V9.3a3.913,3.913,0,0,0,7.827,0V7.827h5.642V9.3a3.913,3.913,0,0,0,7.827,0V7.827H78.52V9.3a3.913,3.913,0,0,0,7.827,0V7.827h1.474a4.173,4.173,0,0,1,4.168,4.168v6.862Z" transform="translate(-16.559 0)"/>
        <path id="Trazado_204330" data-name="Trazado 204330" d="M429.1,204.619a1.22,1.22,0,0,0-1.22,1.22v42.155a4.173,4.173,0,0,1-4.168,4.168h-4.819a1.22,1.22,0,1,0,0,2.439h4.819a6.615,6.615,0,0,0,6.607-6.607V205.839A1.22,1.22,0,0,0,429.1,204.619Z" transform="translate(-352.45 -171.347)"/>
        <path id="Trazado_204331" data-name="Trazado 204331" d="M158.61,168.106h43.1a1.22,1.22,0,0,0,0-2.439h-43.1a1.22,1.22,0,1,0,0,2.439Z" transform="translate(-134.49 -138.729)"/>
        <path id="Trazado_204332" data-name="Trazado 204332" d="M158.61,217.806h43.1a1.22,1.22,0,1,0,0-2.439h-43.1a1.22,1.22,0,1,0,0,2.439Z" transform="translate(-134.49 -180.347)"/>
        <path id="Trazado_204333" data-name="Trazado 204333" d="M158.61,267.506h43.1a1.22,1.22,0,0,0,0-2.439h-43.1a1.22,1.22,0,1,0,0,2.439Z" transform="translate(-134.49 -221.966)"/>
        <path id="Trazado_204334" data-name="Trazado 204334" d="M279.232,365.687a1.22,1.22,0,0,0-1.22-1.22H249.728a1.22,1.22,0,0,0,0,2.439h28.285A1.22,1.22,0,0,0,279.232,365.687Z" transform="translate(-210.792 -305.203)"/>
      </g>
    </g>
  </g>
</svg>
