<svg xmlns="http://www.w3.org/2000/svg" width="610" height="400" viewBox="0 0 610 400">
  <g id="Grupo_157940" data-name="Grupo 157940" transform="translate(-265 -267)">
    <rect id="Rectángulo_41738" data-name="Rectángulo 41738" width="610" height="400" transform="translate(265 267)" fill="#f3f9ff"/>
    <g id="Grupo_150488" data-name="Grupo 150488" transform="translate(285 336)">
      <rect id="Rectángulo_41924" data-name="Rectángulo 41924" width="68.892" height="26.668" rx="10" transform="translate(82.748 60.516)" fill="#3d46c2"/>
      <path id="Trazado_206299" data-name="Trazado 206299" d="M5.594-2.131A2.264,2.264,0,0,1,4.832-.505,2.678,2.678,0,0,1,3.019.088,2.408,2.408,0,0,1,1.083-.74,3.4,3.4,0,0,1,.378-3.015v-.391A3.836,3.836,0,0,1,.7-5.032a2.437,2.437,0,0,1,.929-1.079,2.6,2.6,0,0,1,1.4-.376,2.609,2.609,0,0,1,1.784.593A2.433,2.433,0,0,1,5.6-4.228H4.285a1.336,1.336,0,0,0-.345-.9,1.277,1.277,0,0,0-.9-.279,1.12,1.12,0,0,0-.987.472,2.648,2.648,0,0,0-.336,1.466v.483a2.834,2.834,0,0,0,.314,1.516,1.1,1.1,0,0,0,.991.479,1.3,1.3,0,0,0,.912-.279,1.26,1.26,0,0,0,.345-.864Zm4.715-.65H7.778v1.723h2.971V0H6.46V-6.4h4.28v1.068H7.778v1.525H10.31Zm6.469-.272A3.863,3.863,0,0,1,16.444-1.4a2.515,2.515,0,0,1-.956,1.1,2.644,2.644,0,0,1-1.426.387,2.662,2.662,0,0,1-1.419-.382,2.54,2.54,0,0,1-.967-1.092,3.752,3.752,0,0,1-.347-1.633v-.316A3.842,3.842,0,0,1,11.67-5a2.536,2.536,0,0,1,.962-1.1,2.647,2.647,0,0,1,1.422-.385,2.647,2.647,0,0,1,1.422.385A2.536,2.536,0,0,1,16.438-5a3.831,3.831,0,0,1,.341,1.659Zm-1.336-.29a2.693,2.693,0,0,0-.36-1.529A1.174,1.174,0,0,0,14.054-5.4a1.175,1.175,0,0,0-1.024.516,2.662,2.662,0,0,0-.365,1.514v.312a2.726,2.726,0,0,0,.36,1.521,1.171,1.171,0,0,0,1.037.541,1.161,1.161,0,0,0,1.02-.521,2.71,2.71,0,0,0,.36-1.518Z" transform="translate(107.605 75.184)" fill="#fff"/>
      <path id="Trazado_204344" data-name="Trazado 204344" d="M174.392.028-.705,0H-2.547" transform="translate(29.981 97.644)" fill="none" stroke="#3e4bbf" stroke-width="1"/>
      <line id="Línea_625" data-name="Línea 625" x1="16.195" transform="translate(4.872 174.654)" fill="none" stroke="#3e4bbf" stroke-miterlimit="10" stroke-width="1"/>
      <line id="Línea_635" data-name="Línea 635" x1="16.195" transform="translate(91.513 174.654)" fill="none" stroke="#3e4bbf" stroke-miterlimit="10" stroke-width="1"/>
      <line id="Línea_640" data-name="Línea 640" x1="16.195" transform="translate(179.645 174.654)" fill="none" stroke="#3e4bbf" stroke-miterlimit="10" stroke-width="1"/>
      <line id="Línea_626" data-name="Línea 626" x1="16.195" transform="translate(4.872 213.241)" fill="none" stroke="#3e4bbf" stroke-miterlimit="10" stroke-width="1"/>
      <line id="Línea_636" data-name="Línea 636" x1="16.195" transform="translate(91.513 213.241)" fill="none" stroke="#3e4bbf" stroke-miterlimit="10" stroke-width="1"/>
      <line id="Línea_638" data-name="Línea 638" x1="16.195" transform="translate(179.645 213.241)" fill="none" stroke="#3e4bbf" stroke-miterlimit="10" stroke-width="1"/>
      <path id="Trazado_204342" data-name="Trazado 204342" d="M15.969,0H-.917" transform="translate(5.098 253.573)" fill="none" stroke="#3e4bbf" stroke-width="1"/>
      <path id="Trazado_204346" data-name="Trazado 204346" d="M15.969,0H-.917" transform="translate(91.739 253.573)" fill="none" stroke="#3e4bbf" stroke-width="1"/>
      <path id="Trazado_204347" data-name="Trazado 204347" d="M15.969,0H-.917" transform="translate(179.871 253.573)" fill="none" stroke="#3e4bbf" stroke-width="1"/>
      <line id="Línea_620" data-name="Línea 620" y2="25.906" transform="translate(28.111 97.049)" fill="none" stroke="#3e4bbf" stroke-miterlimit="10" stroke-width="1"/>
      <line id="Línea_634" data-name="Línea 634" y2="40.948" transform="translate(116.697 82.007)" fill="none" stroke="#3e4bbf" stroke-miterlimit="10" stroke-width="1"/>
      <line id="Línea_622" data-name="Línea 622" y2="123.581" transform="translate(4.872 130.14)" fill="none" stroke="#3e4bbf" stroke-miterlimit="10" stroke-width="1"/>
      <line id="Línea_637" data-name="Línea 637" y2="123.581" transform="translate(91.513 130.14)" fill="none" stroke="#3e4bbf" stroke-miterlimit="10" stroke-width="1"/>
      <line id="Línea_639" data-name="Línea 639" y2="123.581" transform="translate(179.645 130.14)" fill="none" stroke="#3e4bbf" stroke-miterlimit="10" stroke-width="1"/>
      <line id="Línea_621" data-name="Línea 621" y2="25.906" transform="translate(203.727 97.049)" fill="none" stroke="#3e4bbf" stroke-miterlimit="10" stroke-width="1"/>
      <rect id="Rectángulo_40599" data-name="Rectángulo 40599" width="56.221" height="18.418" rx="6.469" transform="translate(0 119.457)" fill="#bae887" stroke="#77b43a" stroke-width="1"/>
      <rect id="Rectángulo_40599-2" data-name="Rectángulo 40599" width="57.353" height="18.418" rx="6.469" transform="translate(88.517 119.256)" fill="#bae887" stroke="#77b43a" stroke-width="1"/>
      <rect id="Rectángulo_40599-3" data-name="Rectángulo 40599" width="56.222" height="18.418" rx="6.469" transform="translate(175.829 119.256)" fill="#bae887" stroke="#77b43a" stroke-width="1"/>
      <path id="Trazado_206300" data-name="Trazado 206300" d="M4.421-2.782H1.89v1.723H4.86V0H.571V-6.4h4.28v1.068H1.89v1.525H4.421Zm3.9,2.3a1.593,1.593,0,0,1-1.3.571A1.5,1.5,0,0,1,5.856-.352a1.876,1.876,0,0,1-.411-1.288V-4.755h1.27V-1.68q0,.743.677.743a.917.917,0,0,0,.888-.449v-3.37H9.554V0h-1.2Zm4.86-3.081a3.45,3.45,0,0,0-.457-.035.93.93,0,0,0-.945.488V0h-1.27V-4.755h1.2l.035.567a1.177,1.177,0,0,1,1.059-.655,1.331,1.331,0,0,1,.4.057Zm.255,1.143a2.82,2.82,0,0,1,.272-1.261A2,2,0,0,1,14.5-4.54a2.289,2.289,0,0,1,1.189-.3,2.165,2.165,0,0,1,1.571.589,2.363,2.363,0,0,1,.679,1.6l.009.325a2.485,2.485,0,0,1-.611,1.756,2.123,2.123,0,0,1-1.639.661,2.134,2.134,0,0,1-1.641-.659,2.529,2.529,0,0,1-.613-1.793Zm1.27.09a1.777,1.777,0,0,0,.255,1.036.841.841,0,0,0,.729.359.843.843,0,0,0,.721-.354,1.945,1.945,0,0,0,.259-1.133,1.76,1.76,0,0,0-.259-1.03.843.843,0,0,0-.729-.365.829.829,0,0,0-.721.363A1.978,1.978,0,0,0,14.708-2.331Zm8.3,0a2.852,2.852,0,0,1-.5,1.76A1.6,1.6,0,0,1,21.16.088,1.481,1.481,0,0,1,20-.413V1.828h-1.27V-4.755H19.9l.044.466a1.493,1.493,0,0,1,1.2-.554,1.61,1.61,0,0,1,1.367.65A2.929,2.929,0,0,1,23.005-2.4Zm-1.27-.1A1.882,1.882,0,0,0,21.5-3.457a.765.765,0,0,0-.683-.361A.831.831,0,0,0,20-3.36v1.953a.845.845,0,0,0,.831.472Q21.735-.936,21.735-2.43ZM26.547,0a1.41,1.41,0,0,1-.127-.426,1.537,1.537,0,0,1-1.2.514,1.688,1.688,0,0,1-1.158-.4,1.3,1.3,0,0,1-.459-1.02,1.344,1.344,0,0,1,.56-1.16A2.765,2.765,0,0,1,25.783-2.9h.584v-.272A.784.784,0,0,0,26.2-3.7a.666.666,0,0,0-.534-.2.757.757,0,0,0-.5.154.523.523,0,0,0-.182.422h-1.27a1.276,1.276,0,0,1,.255-.765,1.685,1.685,0,0,1,.721-.552,2.627,2.627,0,0,1,1.046-.2,2.075,2.075,0,0,1,1.4.442,1.545,1.545,0,0,1,.516,1.241V-1.1a2.273,2.273,0,0,0,.189,1.024V0ZM25.5-.883a1.094,1.094,0,0,0,.519-.125.823.823,0,0,0,.352-.336v-.817h-.475q-.954,0-1.015.659l0,.075a.508.508,0,0,0,.167.391A.649.649,0,0,0,25.5-.883Z" transform="translate(12.969 130.201)" fill="#12263f"/>
      <path id="Trazado_206301" data-name="Trazado 206301" d="M1.89-1.059h2.8V0H.571V-6.4H1.89Zm7.251-.259H6.829L6.39,0h-1.4L7.37-6.4H8.591l2.4,6.4h-1.4ZM7.185-2.386h1.6l-.8-2.4Zm8.688-2.944h-1.96V0H12.595V-5.331H10.661V-6.4h5.212Zm3.836,4.012H17.4L16.958,0h-1.4l2.382-6.4H19.16l2.4,6.4h-1.4ZM17.754-2.386h1.6l-.8-2.4ZM23.875-6.4l1.644,4.641L27.154-6.4h1.731V0H27.563V-1.749l.132-3.019L25.967,0h-.905L23.339-4.764l.132,3.015V0H22.153V-6.4Z" transform="translate(99.786 130)" fill="#12263f"/>
      <path id="Trazado_206302" data-name="Trazado 206302" d="M4.184-1.318H1.872L1.433,0H.031L2.413-6.4H3.634L6.029,0h-1.4ZM2.228-2.386h1.6l-.8-2.4ZM9.119-1.314a.409.409,0,0,0-.231-.367,2.621,2.621,0,0,0-.74-.24q-1.7-.356-1.7-1.441a1.307,1.307,0,0,1,.525-1.057A2.118,2.118,0,0,1,8.35-4.843,2.28,2.28,0,0,1,9.8-4.417a1.343,1.343,0,0,1,.543,1.107H9.07a.615.615,0,0,0-.176-.45.744.744,0,0,0-.549-.178.76.76,0,0,0-.5.145.458.458,0,0,0-.176.369.391.391,0,0,0,.2.341,2.057,2.057,0,0,0,.675.224,5.51,5.51,0,0,1,.8.213,1.314,1.314,0,0,1,1.006,1.279A1.24,1.24,0,0,1,9.8-.314a2.408,2.408,0,0,1-1.441.4A2.515,2.515,0,0,1,7.293-.125,1.781,1.781,0,0,1,6.565-.71a1.358,1.358,0,0,1-.264-.8h1.2a.663.663,0,0,0,.25.519.994.994,0,0,0,.624.18.92.92,0,0,0,.552-.138A.431.431,0,0,0,9.119-1.314ZM12.511,0H11.237V-4.755h1.274ZM11.162-5.985a.625.625,0,0,1,.191-.47.718.718,0,0,1,.521-.185.72.72,0,0,1,.519.185.622.622,0,0,1,.193.47.624.624,0,0,1-.2.475.722.722,0,0,1-.516.185.722.722,0,0,1-.516-.185A.624.624,0,0,1,11.162-5.985ZM16.313,0a1.41,1.41,0,0,1-.127-.426,1.537,1.537,0,0,1-1.2.514,1.688,1.688,0,0,1-1.158-.4,1.3,1.3,0,0,1-.459-1.02,1.344,1.344,0,0,1,.56-1.16A2.765,2.765,0,0,1,15.548-2.9h.584v-.272a.784.784,0,0,0-.169-.527.666.666,0,0,0-.534-.2.757.757,0,0,0-.5.154.523.523,0,0,0-.182.422h-1.27a1.276,1.276,0,0,1,.255-.765,1.685,1.685,0,0,1,.721-.552,2.627,2.627,0,0,1,1.046-.2,2.075,2.075,0,0,1,1.4.442,1.545,1.545,0,0,1,.516,1.241V-1.1A2.273,2.273,0,0,0,17.6-.075V0Zm-1.05-.883a1.094,1.094,0,0,0,.519-.125.823.823,0,0,0,.352-.336v-.817h-.475q-.954,0-1.015.659l0,.075a.508.508,0,0,0,.167.391A.649.649,0,0,0,15.262-.883Z" transform="translate(194.746 130)" fill="#12263f"/>
      <rect id="Rectángulo_40599-4" data-name="Rectángulo 40599" width="58.854" height="16.106" rx="6.469" transform="translate(15.418 167.794)" fill="#d1d5fc" stroke="#3e4bbf" stroke-width="1"/>
      <rect id="Rectángulo_40599-5" data-name="Rectángulo 40599" width="58.854" height="16.106" rx="6.469" transform="translate(102.058 167.794)" fill="#d1d5fc" stroke="#3e4bbf" stroke-width="1"/>
      <rect id="Rectángulo_40599-6" data-name="Rectángulo 40599" width="58.854" height="16.106" rx="6.469" transform="translate(190.19 167.794)" fill="#d1d5fc" stroke="#3e4bbf" stroke-width="1"/>
      <rect id="Rectángulo_40599-7" data-name="Rectángulo 40599" width="58.854" height="16.106" rx="6.469" transform="translate(15.418 205.189)" fill="#d1d5fc" stroke="#3e4bbf" stroke-width="1"/>
      <rect id="Rectángulo_40599-8" data-name="Rectángulo 40599" width="58.854" height="16.106" rx="6.469" transform="translate(102.058 205.189)" fill="#d1d5fc" stroke="#3e4bbf" stroke-width="1"/>
      <rect id="Rectángulo_40599-9" data-name="Rectángulo 40599" width="58.854" height="16.106" rx="6.469" transform="translate(190.19 205.189)" fill="#d1d5fc" stroke="#3e4bbf" stroke-width="1"/>
      <rect id="Rectángulo_40599-10" data-name="Rectángulo 40599" width="58.854" height="16.106" rx="6.469" transform="translate(15.418 245.668)" fill="#d1d5fc" stroke="#3e4bbf" stroke-width="1"/>
      <rect id="Rectángulo_40599-11" data-name="Rectángulo 40599" width="58.854" height="16.106" rx="6.469" transform="translate(102.058 245.668)" fill="#d1d5fc" stroke="#3e4bbf" stroke-width="1"/>
      <rect id="Rectángulo_40599-12" data-name="Rectángulo 40599" width="58.854" height="16.106" rx="6.469" transform="translate(190.19 245.668)" fill="#d1d5fc" stroke="#3e4bbf" stroke-width="1"/>
      <path id="Trazado_206306" data-name="Trazado 206306" d="M4.421-2.615H1.89V0H.571V-6.4H4.737v1.068H1.89v1.652H4.421ZM6.759,0H5.484V-4.755H6.759ZM5.41-5.985a.625.625,0,0,1,.191-.47.718.718,0,0,1,.521-.185.72.72,0,0,1,.519.185.622.622,0,0,1,.193.47.624.624,0,0,1-.2.475.722.722,0,0,1-.516.185.722.722,0,0,1-.516-.185A.624.624,0,0,1,5.41-5.985Zm3.564,1.23.04.549a1.66,1.66,0,0,1,1.367-.637A1.38,1.38,0,0,1,11.5-4.4a2.071,2.071,0,0,1,.378,1.327V0h-1.27V-3.048a.827.827,0,0,0-.176-.588.786.786,0,0,0-.584-.183.873.873,0,0,0-.8.458V0H7.778V-4.755ZM15.6,0a1.41,1.41,0,0,1-.127-.426,1.537,1.537,0,0,1-1.2.514,1.688,1.688,0,0,1-1.158-.4,1.3,1.3,0,0,1-.459-1.02,1.344,1.344,0,0,1,.56-1.16A2.765,2.765,0,0,1,14.836-2.9h.584v-.272a.784.784,0,0,0-.169-.527.666.666,0,0,0-.534-.2.757.757,0,0,0-.5.154.523.523,0,0,0-.182.422h-1.27a1.276,1.276,0,0,1,.255-.765,1.685,1.685,0,0,1,.721-.552,2.627,2.627,0,0,1,1.046-.2,2.075,2.075,0,0,1,1.4.442,1.545,1.545,0,0,1,.516,1.241V-1.1a2.273,2.273,0,0,0,.189,1.024V0ZM14.55-.883a1.094,1.094,0,0,0,.519-.125.823.823,0,0,0,.352-.336v-.817h-.475q-.954,0-1.015.659l0,.075a.508.508,0,0,0,.167.391A.649.649,0,0,0,14.55-.883Zm4.289-3.872.04.549a1.66,1.66,0,0,1,1.367-.637,1.38,1.38,0,0,1,1.125.444,2.071,2.071,0,0,1,.378,1.327V0h-1.27V-3.048a.827.827,0,0,0-.176-.588.786.786,0,0,0-.584-.183.873.873,0,0,0-.8.458V0h-1.27V-4.755ZM24.17-1.024h2.325V0H22.548V-.773l2.237-2.958H22.614V-4.755h3.81v.748ZM30.045,0a1.41,1.41,0,0,1-.127-.426,1.537,1.537,0,0,1-1.2.514,1.688,1.688,0,0,1-1.158-.4,1.3,1.3,0,0,1-.459-1.02,1.344,1.344,0,0,1,.56-1.16A2.765,2.765,0,0,1,29.281-2.9h.584v-.272A.784.784,0,0,0,29.7-3.7a.666.666,0,0,0-.534-.2.757.757,0,0,0-.5.154.523.523,0,0,0-.182.422h-1.27a1.276,1.276,0,0,1,.255-.765,1.685,1.685,0,0,1,.721-.552,2.627,2.627,0,0,1,1.046-.2,2.075,2.075,0,0,1,1.4.442A1.545,1.545,0,0,1,31.14-3.16V-1.1a2.273,2.273,0,0,0,.189,1.024V0ZM29-.883a1.094,1.094,0,0,0,.519-.125.823.823,0,0,0,.352-.336v-.817h-.475q-.954,0-1.015.659l0,.075a.508.508,0,0,0,.167.391A.649.649,0,0,0,29-.883Zm5.7-.431a.409.409,0,0,0-.231-.367,2.621,2.621,0,0,0-.74-.24q-1.7-.356-1.7-1.441a1.307,1.307,0,0,1,.525-1.057,2.118,2.118,0,0,1,1.373-.424,2.28,2.28,0,0,1,1.448.426,1.343,1.343,0,0,1,.543,1.107h-1.27a.615.615,0,0,0-.176-.45.744.744,0,0,0-.549-.178.76.76,0,0,0-.5.145.458.458,0,0,0-.176.369.391.391,0,0,0,.2.341,2.057,2.057,0,0,0,.675.224,5.51,5.51,0,0,1,.8.213,1.314,1.314,0,0,1,1.006,1.279,1.24,1.24,0,0,1-.558,1.052,2.408,2.408,0,0,1-1.441.4,2.515,2.515,0,0,1-1.061-.213,1.781,1.781,0,0,1-.727-.584,1.358,1.358,0,0,1-.264-.8h1.2a.663.663,0,0,0,.25.519.994.994,0,0,0,.624.18A.92.92,0,0,0,34.5-.951.431.431,0,0,0,34.69-1.314Z" transform="translate(25.591 215.826)" fill="#12263f"/>
      <path id="Trazado_206307" data-name="Trazado 206307" d="M4.421-2.615H1.89V0H.571V-6.4H4.737v1.068H1.89v1.652H4.421ZM6.759,0H5.484V-4.755H6.759ZM5.41-5.985a.625.625,0,0,1,.191-.47.718.718,0,0,1,.521-.185.72.72,0,0,1,.519.185.622.622,0,0,1,.193.47.624.624,0,0,1-.2.475.722.722,0,0,1-.516.185.722.722,0,0,1-.516-.185A.624.624,0,0,1,5.41-5.985Zm3.564,1.23.04.549a1.66,1.66,0,0,1,1.367-.637A1.38,1.38,0,0,1,11.5-4.4a2.071,2.071,0,0,1,.378,1.327V0h-1.27V-3.048a.827.827,0,0,0-.176-.588.786.786,0,0,0-.584-.183.873.873,0,0,0-.8.458V0H7.778V-4.755ZM15.6,0a1.41,1.41,0,0,1-.127-.426,1.537,1.537,0,0,1-1.2.514,1.688,1.688,0,0,1-1.158-.4,1.3,1.3,0,0,1-.459-1.02,1.344,1.344,0,0,1,.56-1.16A2.765,2.765,0,0,1,14.836-2.9h.584v-.272a.784.784,0,0,0-.169-.527.666.666,0,0,0-.534-.2.757.757,0,0,0-.5.154.523.523,0,0,0-.182.422h-1.27a1.276,1.276,0,0,1,.255-.765,1.685,1.685,0,0,1,.721-.552,2.627,2.627,0,0,1,1.046-.2,2.075,2.075,0,0,1,1.4.442,1.545,1.545,0,0,1,.516,1.241V-1.1a2.273,2.273,0,0,0,.189,1.024V0ZM14.55-.883a1.094,1.094,0,0,0,.519-.125.823.823,0,0,0,.352-.336v-.817h-.475q-.954,0-1.015.659l0,.075a.508.508,0,0,0,.167.391A.649.649,0,0,0,14.55-.883Zm4.289-3.872.04.549a1.66,1.66,0,0,1,1.367-.637,1.38,1.38,0,0,1,1.125.444,2.071,2.071,0,0,1,.378,1.327V0h-1.27V-3.048a.827.827,0,0,0-.176-.588.786.786,0,0,0-.584-.183.873.873,0,0,0-.8.458V0h-1.27V-4.755ZM24.17-1.024h2.325V0H22.548V-.773l2.237-2.958H22.614V-4.755h3.81v.748ZM30.045,0a1.41,1.41,0,0,1-.127-.426,1.537,1.537,0,0,1-1.2.514,1.688,1.688,0,0,1-1.158-.4,1.3,1.3,0,0,1-.459-1.02,1.344,1.344,0,0,1,.56-1.16A2.765,2.765,0,0,1,29.281-2.9h.584v-.272A.784.784,0,0,0,29.7-3.7a.666.666,0,0,0-.534-.2.757.757,0,0,0-.5.154.523.523,0,0,0-.182.422h-1.27a1.276,1.276,0,0,1,.255-.765,1.685,1.685,0,0,1,.721-.552,2.627,2.627,0,0,1,1.046-.2,2.075,2.075,0,0,1,1.4.442A1.545,1.545,0,0,1,31.14-3.16V-1.1a2.273,2.273,0,0,0,.189,1.024V0ZM29-.883a1.094,1.094,0,0,0,.519-.125.823.823,0,0,0,.352-.336v-.817h-.475q-.954,0-1.015.659l0,.075a.508.508,0,0,0,.167.391A.649.649,0,0,0,29-.883Zm5.7-.431a.409.409,0,0,0-.231-.367,2.621,2.621,0,0,0-.74-.24q-1.7-.356-1.7-1.441a1.307,1.307,0,0,1,.525-1.057,2.118,2.118,0,0,1,1.373-.424,2.28,2.28,0,0,1,1.448.426,1.343,1.343,0,0,1,.543,1.107h-1.27a.615.615,0,0,0-.176-.45.744.744,0,0,0-.549-.178.76.76,0,0,0-.5.145.458.458,0,0,0-.176.369.391.391,0,0,0,.2.341,2.057,2.057,0,0,0,.675.224,5.51,5.51,0,0,1,.8.213,1.314,1.314,0,0,1,1.006,1.279,1.24,1.24,0,0,1-.558,1.052,2.408,2.408,0,0,1-1.441.4,2.515,2.515,0,0,1-1.061-.213,1.781,1.781,0,0,1-.727-.584,1.358,1.358,0,0,1-.264-.8h1.2a.663.663,0,0,0,.25.519.994.994,0,0,0,.624.18A.92.92,0,0,0,34.5-.951.431.431,0,0,0,34.69-1.314Z" transform="translate(112.232 215.826)" fill="#12263f"/>
      <path id="Trazado_206308" data-name="Trazado 206308" d="M4.421-2.615H1.89V0H.571V-6.4H4.737v1.068H1.89v1.652H4.421ZM6.759,0H5.484V-4.755H6.759ZM5.41-5.985a.625.625,0,0,1,.191-.47.718.718,0,0,1,.521-.185.72.72,0,0,1,.519.185.622.622,0,0,1,.193.47.624.624,0,0,1-.2.475.722.722,0,0,1-.516.185.722.722,0,0,1-.516-.185A.624.624,0,0,1,5.41-5.985Zm3.564,1.23.04.549a1.66,1.66,0,0,1,1.367-.637A1.38,1.38,0,0,1,11.5-4.4a2.071,2.071,0,0,1,.378,1.327V0h-1.27V-3.048a.827.827,0,0,0-.176-.588.786.786,0,0,0-.584-.183.873.873,0,0,0-.8.458V0H7.778V-4.755ZM15.6,0a1.41,1.41,0,0,1-.127-.426,1.537,1.537,0,0,1-1.2.514,1.688,1.688,0,0,1-1.158-.4,1.3,1.3,0,0,1-.459-1.02,1.344,1.344,0,0,1,.56-1.16A2.765,2.765,0,0,1,14.836-2.9h.584v-.272a.784.784,0,0,0-.169-.527.666.666,0,0,0-.534-.2.757.757,0,0,0-.5.154.523.523,0,0,0-.182.422h-1.27a1.276,1.276,0,0,1,.255-.765,1.685,1.685,0,0,1,.721-.552,2.627,2.627,0,0,1,1.046-.2,2.075,2.075,0,0,1,1.4.442,1.545,1.545,0,0,1,.516,1.241V-1.1a2.273,2.273,0,0,0,.189,1.024V0ZM14.55-.883a1.094,1.094,0,0,0,.519-.125.823.823,0,0,0,.352-.336v-.817h-.475q-.954,0-1.015.659l0,.075a.508.508,0,0,0,.167.391A.649.649,0,0,0,14.55-.883Zm4.289-3.872.04.549a1.66,1.66,0,0,1,1.367-.637,1.38,1.38,0,0,1,1.125.444,2.071,2.071,0,0,1,.378,1.327V0h-1.27V-3.048a.827.827,0,0,0-.176-.588.786.786,0,0,0-.584-.183.873.873,0,0,0-.8.458V0h-1.27V-4.755ZM24.17-1.024h2.325V0H22.548V-.773l2.237-2.958H22.614V-4.755h3.81v.748ZM30.045,0a1.41,1.41,0,0,1-.127-.426,1.537,1.537,0,0,1-1.2.514,1.688,1.688,0,0,1-1.158-.4,1.3,1.3,0,0,1-.459-1.02,1.344,1.344,0,0,1,.56-1.16A2.765,2.765,0,0,1,29.281-2.9h.584v-.272A.784.784,0,0,0,29.7-3.7a.666.666,0,0,0-.534-.2.757.757,0,0,0-.5.154.523.523,0,0,0-.182.422h-1.27a1.276,1.276,0,0,1,.255-.765,1.685,1.685,0,0,1,.721-.552,2.627,2.627,0,0,1,1.046-.2,2.075,2.075,0,0,1,1.4.442A1.545,1.545,0,0,1,31.14-3.16V-1.1a2.273,2.273,0,0,0,.189,1.024V0ZM29-.883a1.094,1.094,0,0,0,.519-.125.823.823,0,0,0,.352-.336v-.817h-.475q-.954,0-1.015.659l0,.075a.508.508,0,0,0,.167.391A.649.649,0,0,0,29-.883Zm5.7-.431a.409.409,0,0,0-.231-.367,2.621,2.621,0,0,0-.74-.24q-1.7-.356-1.7-1.441a1.307,1.307,0,0,1,.525-1.057,2.118,2.118,0,0,1,1.373-.424,2.28,2.28,0,0,1,1.448.426,1.343,1.343,0,0,1,.543,1.107h-1.27a.615.615,0,0,0-.176-.45.744.744,0,0,0-.549-.178.76.76,0,0,0-.5.145.458.458,0,0,0-.176.369.391.391,0,0,0,.2.341,2.057,2.057,0,0,0,.675.224,5.51,5.51,0,0,1,.8.213,1.314,1.314,0,0,1,1.006,1.279,1.24,1.24,0,0,1-.558,1.052,2.408,2.408,0,0,1-1.441.4,2.515,2.515,0,0,1-1.061-.213,1.781,1.781,0,0,1-.727-.584,1.358,1.358,0,0,1-.264-.8h1.2a.663.663,0,0,0,.25.519.994.994,0,0,0,.624.18A.92.92,0,0,0,34.5-.951.431.431,0,0,0,34.69-1.314Z" transform="translate(200.364 215.826)" fill="#12263f"/>
      <path id="Trazado_206311" data-name="Trazado 206311" d="M2.936-1.586,4.386-6.4H5.854L3.625,0H2.25L.031-6.4H1.494ZM8.367.088a2.334,2.334,0,0,1-1.7-.642,2.281,2.281,0,0,1-.657-1.709v-.123a2.872,2.872,0,0,1,.277-1.281,2.032,2.032,0,0,1,.784-.87,2.2,2.2,0,0,1,1.158-.305,1.973,1.973,0,0,1,1.536.615,2.5,2.5,0,0,1,.56,1.745v.519H7.295a1.18,1.18,0,0,0,.371.747,1.123,1.123,0,0,0,.784.281A1.371,1.371,0,0,0,9.6-1.468l.624.7a1.907,1.907,0,0,1-.773.631A2.538,2.538,0,0,1,8.367.088ZM8.222-3.819a.794.794,0,0,0-.613.256,1.326,1.326,0,0,0-.3.733H9.075v-.1a.946.946,0,0,0-.229-.655A.819.819,0,0,0,8.222-3.819Zm3.99-.936.04.549a1.66,1.66,0,0,1,1.367-.637,1.38,1.38,0,0,1,1.125.444,2.071,2.071,0,0,1,.378,1.327V0h-1.27V-3.048a.827.827,0,0,0-.176-.588.786.786,0,0,0-.584-.183.873.873,0,0,0-.8.458V0h-1.27V-4.755ZM17.6-5.924v1.169h.813v.932H17.6V-1.45a.567.567,0,0,0,.1.378.508.508,0,0,0,.387.114,2.025,2.025,0,0,0,.374-.031v.962A2.615,2.615,0,0,1,17.7.088a1.213,1.213,0,0,1-1.362-1.349V-3.823H15.64v-.932h.694V-5.924ZM21.88,0a1.41,1.41,0,0,1-.127-.426,1.537,1.537,0,0,1-1.2.514,1.688,1.688,0,0,1-1.158-.4,1.3,1.3,0,0,1-.459-1.02A1.344,1.344,0,0,1,19.5-2.5,2.765,2.765,0,0,1,21.116-2.9H21.7v-.272a.784.784,0,0,0-.169-.527A.666.666,0,0,0,21-3.9a.757.757,0,0,0-.5.154.523.523,0,0,0-.182.422h-1.27a1.276,1.276,0,0,1,.255-.765,1.685,1.685,0,0,1,.721-.552,2.627,2.627,0,0,1,1.046-.2,2.075,2.075,0,0,1,1.4.442,1.545,1.545,0,0,1,.516,1.241V-1.1a2.273,2.273,0,0,0,.189,1.024V0ZM20.83-.883a1.094,1.094,0,0,0,.519-.125.823.823,0,0,0,.352-.336v-.817h-.475q-.954,0-1.015.659l0,.075a.508.508,0,0,0,.167.391A.649.649,0,0,0,20.83-.883Zm5.7-.431a.409.409,0,0,0-.231-.367,2.621,2.621,0,0,0-.74-.24q-1.7-.356-1.7-1.441a1.307,1.307,0,0,1,.525-1.057,2.118,2.118,0,0,1,1.373-.424,2.28,2.28,0,0,1,1.448.426,1.343,1.343,0,0,1,.543,1.107h-1.27a.615.615,0,0,0-.176-.45.744.744,0,0,0-.549-.178.76.76,0,0,0-.5.145.458.458,0,0,0-.176.369.391.391,0,0,0,.2.341,2.057,2.057,0,0,0,.675.224,5.51,5.51,0,0,1,.8.213A1.314,1.314,0,0,1,27.76-1.367,1.24,1.24,0,0,1,27.2-.314a2.408,2.408,0,0,1-1.441.4A2.515,2.515,0,0,1,24.7-.125a1.781,1.781,0,0,1-.727-.584,1.358,1.358,0,0,1-.264-.8h1.2a.663.663,0,0,0,.25.519.994.994,0,0,0,.624.18.92.92,0,0,0,.552-.138A.431.431,0,0,0,26.525-1.314Z" transform="translate(25.535 256.306)" fill="#12263f"/>
      <path id="Trazado_206310" data-name="Trazado 206310" d="M2.936-1.586,4.386-6.4H5.854L3.625,0H2.25L.031-6.4H1.494ZM8.367.088a2.334,2.334,0,0,1-1.7-.642,2.281,2.281,0,0,1-.657-1.709v-.123a2.872,2.872,0,0,1,.277-1.281,2.032,2.032,0,0,1,.784-.87,2.2,2.2,0,0,1,1.158-.305,1.973,1.973,0,0,1,1.536.615,2.5,2.5,0,0,1,.56,1.745v.519H7.295a1.18,1.18,0,0,0,.371.747,1.123,1.123,0,0,0,.784.281A1.371,1.371,0,0,0,9.6-1.468l.624.7a1.907,1.907,0,0,1-.773.631A2.538,2.538,0,0,1,8.367.088ZM8.222-3.819a.794.794,0,0,0-.613.256,1.326,1.326,0,0,0-.3.733H9.075v-.1a.946.946,0,0,0-.229-.655A.819.819,0,0,0,8.222-3.819Zm3.99-.936.04.549a1.66,1.66,0,0,1,1.367-.637,1.38,1.38,0,0,1,1.125.444,2.071,2.071,0,0,1,.378,1.327V0h-1.27V-3.048a.827.827,0,0,0-.176-.588.786.786,0,0,0-.584-.183.873.873,0,0,0-.8.458V0h-1.27V-4.755ZM17.6-5.924v1.169h.813v.932H17.6V-1.45a.567.567,0,0,0,.1.378.508.508,0,0,0,.387.114,2.025,2.025,0,0,0,.374-.031v.962A2.615,2.615,0,0,1,17.7.088a1.213,1.213,0,0,1-1.362-1.349V-3.823H15.64v-.932h.694V-5.924ZM21.88,0a1.41,1.41,0,0,1-.127-.426,1.537,1.537,0,0,1-1.2.514,1.688,1.688,0,0,1-1.158-.4,1.3,1.3,0,0,1-.459-1.02A1.344,1.344,0,0,1,19.5-2.5,2.765,2.765,0,0,1,21.116-2.9H21.7v-.272a.784.784,0,0,0-.169-.527A.666.666,0,0,0,21-3.9a.757.757,0,0,0-.5.154.523.523,0,0,0-.182.422h-1.27a1.276,1.276,0,0,1,.255-.765,1.685,1.685,0,0,1,.721-.552,2.627,2.627,0,0,1,1.046-.2,2.075,2.075,0,0,1,1.4.442,1.545,1.545,0,0,1,.516,1.241V-1.1a2.273,2.273,0,0,0,.189,1.024V0ZM20.83-.883a1.094,1.094,0,0,0,.519-.125.823.823,0,0,0,.352-.336v-.817h-.475q-.954,0-1.015.659l0,.075a.508.508,0,0,0,.167.391A.649.649,0,0,0,20.83-.883Zm5.7-.431a.409.409,0,0,0-.231-.367,2.621,2.621,0,0,0-.74-.24q-1.7-.356-1.7-1.441a1.307,1.307,0,0,1,.525-1.057,2.118,2.118,0,0,1,1.373-.424,2.28,2.28,0,0,1,1.448.426,1.343,1.343,0,0,1,.543,1.107h-1.27a.615.615,0,0,0-.176-.45.744.744,0,0,0-.549-.178.76.76,0,0,0-.5.145.458.458,0,0,0-.176.369.391.391,0,0,0,.2.341,2.057,2.057,0,0,0,.675.224,5.51,5.51,0,0,1,.8.213A1.314,1.314,0,0,1,27.76-1.367,1.24,1.24,0,0,1,27.2-.314a2.408,2.408,0,0,1-1.441.4A2.515,2.515,0,0,1,24.7-.125a1.781,1.781,0,0,1-.727-.584,1.358,1.358,0,0,1-.264-.8h1.2a.663.663,0,0,0,.25.519.994.994,0,0,0,.624.18.92.92,0,0,0,.552-.138A.431.431,0,0,0,26.525-1.314Z" transform="translate(112.176 256.306)" fill="#12263f"/>
      <path id="Trazado_206309" data-name="Trazado 206309" d="M2.936-1.586,4.386-6.4H5.854L3.625,0H2.25L.031-6.4H1.494ZM8.367.088a2.334,2.334,0,0,1-1.7-.642,2.281,2.281,0,0,1-.657-1.709v-.123a2.872,2.872,0,0,1,.277-1.281,2.032,2.032,0,0,1,.784-.87,2.2,2.2,0,0,1,1.158-.305,1.973,1.973,0,0,1,1.536.615,2.5,2.5,0,0,1,.56,1.745v.519H7.295a1.18,1.18,0,0,0,.371.747,1.123,1.123,0,0,0,.784.281A1.371,1.371,0,0,0,9.6-1.468l.624.7a1.907,1.907,0,0,1-.773.631A2.538,2.538,0,0,1,8.367.088ZM8.222-3.819a.794.794,0,0,0-.613.256,1.326,1.326,0,0,0-.3.733H9.075v-.1a.946.946,0,0,0-.229-.655A.819.819,0,0,0,8.222-3.819Zm3.99-.936.04.549a1.66,1.66,0,0,1,1.367-.637,1.38,1.38,0,0,1,1.125.444,2.071,2.071,0,0,1,.378,1.327V0h-1.27V-3.048a.827.827,0,0,0-.176-.588.786.786,0,0,0-.584-.183.873.873,0,0,0-.8.458V0h-1.27V-4.755ZM17.6-5.924v1.169h.813v.932H17.6V-1.45a.567.567,0,0,0,.1.378.508.508,0,0,0,.387.114,2.025,2.025,0,0,0,.374-.031v.962A2.615,2.615,0,0,1,17.7.088a1.213,1.213,0,0,1-1.362-1.349V-3.823H15.64v-.932h.694V-5.924ZM21.88,0a1.41,1.41,0,0,1-.127-.426,1.537,1.537,0,0,1-1.2.514,1.688,1.688,0,0,1-1.158-.4,1.3,1.3,0,0,1-.459-1.02A1.344,1.344,0,0,1,19.5-2.5,2.765,2.765,0,0,1,21.116-2.9H21.7v-.272a.784.784,0,0,0-.169-.527A.666.666,0,0,0,21-3.9a.757.757,0,0,0-.5.154.523.523,0,0,0-.182.422h-1.27a1.276,1.276,0,0,1,.255-.765,1.685,1.685,0,0,1,.721-.552,2.627,2.627,0,0,1,1.046-.2,2.075,2.075,0,0,1,1.4.442,1.545,1.545,0,0,1,.516,1.241V-1.1a2.273,2.273,0,0,0,.189,1.024V0ZM20.83-.883a1.094,1.094,0,0,0,.519-.125.823.823,0,0,0,.352-.336v-.817h-.475q-.954,0-1.015.659l0,.075a.508.508,0,0,0,.167.391A.649.649,0,0,0,20.83-.883Zm5.7-.431a.409.409,0,0,0-.231-.367,2.621,2.621,0,0,0-.74-.24q-1.7-.356-1.7-1.441a1.307,1.307,0,0,1,.525-1.057,2.118,2.118,0,0,1,1.373-.424,2.28,2.28,0,0,1,1.448.426,1.343,1.343,0,0,1,.543,1.107h-1.27a.615.615,0,0,0-.176-.45.744.744,0,0,0-.549-.178.76.76,0,0,0-.5.145.458.458,0,0,0-.176.369.391.391,0,0,0,.2.341,2.057,2.057,0,0,0,.675.224,5.51,5.51,0,0,1,.8.213A1.314,1.314,0,0,1,27.76-1.367,1.24,1.24,0,0,1,27.2-.314a2.408,2.408,0,0,1-1.441.4A2.515,2.515,0,0,1,24.7-.125a1.781,1.781,0,0,1-.727-.584,1.358,1.358,0,0,1-.264-.8h1.2a.663.663,0,0,0,.25.519.994.994,0,0,0,.624.18.92.92,0,0,0,.552-.138A.431.431,0,0,0,26.525-1.314Z" transform="translate(200.308 256.306)" fill="#12263f"/>
      <path id="Trazado_206303" data-name="Trazado 206303" d="M2.294-6.4,3.938-1.758,5.572-6.4H7.3V0H5.981V-1.749l.132-3.019L4.386,0H3.48L1.758-4.764,1.89-1.749V0H.571V-6.4ZM11.127,0A1.41,1.41,0,0,1,11-.426,1.537,1.537,0,0,1,9.8.088a1.688,1.688,0,0,1-1.158-.4,1.3,1.3,0,0,1-.459-1.02,1.344,1.344,0,0,1,.56-1.16A2.765,2.765,0,0,1,10.362-2.9h.584v-.272a.784.784,0,0,0-.169-.527.666.666,0,0,0-.534-.2.757.757,0,0,0-.5.154.523.523,0,0,0-.182.422H8.288a1.276,1.276,0,0,1,.255-.765,1.685,1.685,0,0,1,.721-.552,2.627,2.627,0,0,1,1.046-.2,2.075,2.075,0,0,1,1.4.442,1.545,1.545,0,0,1,.516,1.241V-1.1A2.273,2.273,0,0,0,12.41-.075V0Zm-1.05-.883a1.094,1.094,0,0,0,.519-.125.823.823,0,0,0,.352-.336v-.817h-.475q-.954,0-1.015.659l0,.075a.508.508,0,0,0,.167.391A.649.649,0,0,0,10.077-.883Zm5.792-2.681a3.45,3.45,0,0,0-.457-.035.93.93,0,0,0-.945.488V0H13.2V-4.755h1.2l.035.567a1.177,1.177,0,0,1,1.059-.655,1.331,1.331,0,0,1,.4.057Zm2.338,1.657-.457.457V0h-1.27V-6.75h1.27v3.74L18-3.327l1.217-1.428h1.525L19.02-2.773,20.887,0H19.428Zm5.181,2a2.334,2.334,0,0,1-1.7-.642,2.281,2.281,0,0,1-.657-1.709v-.123A2.872,2.872,0,0,1,21.3-3.667a2.032,2.032,0,0,1,.784-.87,2.2,2.2,0,0,1,1.158-.305,1.973,1.973,0,0,1,1.536.615,2.5,2.5,0,0,1,.56,1.745v.519H22.315a1.18,1.18,0,0,0,.371.747,1.123,1.123,0,0,0,.784.281,1.371,1.371,0,0,0,1.147-.532l.624.7a1.907,1.907,0,0,1-.773.631A2.538,2.538,0,0,1,23.388.088Zm-.145-3.907a.794.794,0,0,0-.613.256,1.326,1.326,0,0,0-.3.733H24.1v-.1a.946.946,0,0,0-.229-.655A.819.819,0,0,0,23.243-3.819Zm4.342-2.1v1.169H28.4v.932h-.813V-1.45a.567.567,0,0,0,.1.378.508.508,0,0,0,.387.114,2.025,2.025,0,0,0,.374-.031v.962a2.615,2.615,0,0,1-.769.114,1.213,1.213,0,0,1-1.362-1.349V-3.823H25.62v-.932h.694V-5.924ZM30.445,0H29.171V-4.755h1.274ZM29.1-5.985a.625.625,0,0,1,.191-.47.718.718,0,0,1,.521-.185.72.72,0,0,1,.519.185.622.622,0,0,1,.193.47.624.624,0,0,1-.2.475.722.722,0,0,1-.516.185.722.722,0,0,1-.516-.185A.624.624,0,0,1,29.1-5.985Zm3.564,1.23.04.549a1.66,1.66,0,0,1,1.367-.637,1.38,1.38,0,0,1,1.125.444,2.071,2.071,0,0,1,.378,1.327V0H34.3V-3.048a.827.827,0,0,0-.176-.588.786.786,0,0,0-.584-.183.873.873,0,0,0-.8.458V0h-1.27V-4.755Zm3.687,2.342a2.787,2.787,0,0,1,.521-1.762,1.687,1.687,0,0,1,1.4-.668,1.48,1.48,0,0,1,1.217.536l.053-.448h1.151v4.6A2.032,2.032,0,0,1,40.41.927a1.82,1.82,0,0,1-.8.7,2.8,2.8,0,0,1-1.2.242,2.607,2.607,0,0,1-1.02-.209,1.809,1.809,0,0,1-.751-.538L37.2.352a1.488,1.488,0,0,0,1.151.532,1.089,1.089,0,0,0,.787-.27,1.014,1.014,0,0,0,.281-.767V-.409a1.469,1.469,0,0,1-1.156.5,1.683,1.683,0,0,1-1.386-.67,2.786,2.786,0,0,1-.53-1.778Zm1.27.09A1.744,1.744,0,0,0,37.876-1.3a.824.824,0,0,0,.712.369.881.881,0,0,0,.831-.437V-3.382a.879.879,0,0,0-.822-.437.829.829,0,0,0-.719.375A1.967,1.967,0,0,0,37.617-2.322Z" transform="translate(23.134 178.431)" fill="#12263f"/>
      <path id="Trazado_206304" data-name="Trazado 206304" d="M2.294-6.4,3.938-1.758,5.572-6.4H7.3V0H5.981V-1.749l.132-3.019L4.386,0H3.48L1.758-4.764,1.89-1.749V0H.571V-6.4ZM11.127,0A1.41,1.41,0,0,1,11-.426,1.537,1.537,0,0,1,9.8.088a1.688,1.688,0,0,1-1.158-.4,1.3,1.3,0,0,1-.459-1.02,1.344,1.344,0,0,1,.56-1.16A2.765,2.765,0,0,1,10.362-2.9h.584v-.272a.784.784,0,0,0-.169-.527.666.666,0,0,0-.534-.2.757.757,0,0,0-.5.154.523.523,0,0,0-.182.422H8.288a1.276,1.276,0,0,1,.255-.765,1.685,1.685,0,0,1,.721-.552,2.627,2.627,0,0,1,1.046-.2,2.075,2.075,0,0,1,1.4.442,1.545,1.545,0,0,1,.516,1.241V-1.1A2.273,2.273,0,0,0,12.41-.075V0Zm-1.05-.883a1.094,1.094,0,0,0,.519-.125.823.823,0,0,0,.352-.336v-.817h-.475q-.954,0-1.015.659l0,.075a.508.508,0,0,0,.167.391A.649.649,0,0,0,10.077-.883Zm5.792-2.681a3.45,3.45,0,0,0-.457-.035.93.93,0,0,0-.945.488V0H13.2V-4.755h1.2l.035.567a1.177,1.177,0,0,1,1.059-.655,1.331,1.331,0,0,1,.4.057Zm2.338,1.657-.457.457V0h-1.27V-6.75h1.27v3.74L18-3.327l1.217-1.428h1.525L19.02-2.773,20.887,0H19.428Zm5.181,2a2.334,2.334,0,0,1-1.7-.642,2.281,2.281,0,0,1-.657-1.709v-.123A2.872,2.872,0,0,1,21.3-3.667a2.032,2.032,0,0,1,.784-.87,2.2,2.2,0,0,1,1.158-.305,1.973,1.973,0,0,1,1.536.615,2.5,2.5,0,0,1,.56,1.745v.519H22.315a1.18,1.18,0,0,0,.371.747,1.123,1.123,0,0,0,.784.281,1.371,1.371,0,0,0,1.147-.532l.624.7a1.907,1.907,0,0,1-.773.631A2.538,2.538,0,0,1,23.388.088Zm-.145-3.907a.794.794,0,0,0-.613.256,1.326,1.326,0,0,0-.3.733H24.1v-.1a.946.946,0,0,0-.229-.655A.819.819,0,0,0,23.243-3.819Zm4.342-2.1v1.169H28.4v.932h-.813V-1.45a.567.567,0,0,0,.1.378.508.508,0,0,0,.387.114,2.025,2.025,0,0,0,.374-.031v.962a2.615,2.615,0,0,1-.769.114,1.213,1.213,0,0,1-1.362-1.349V-3.823H25.62v-.932h.694V-5.924ZM30.445,0H29.171V-4.755h1.274ZM29.1-5.985a.625.625,0,0,1,.191-.47.718.718,0,0,1,.521-.185.72.72,0,0,1,.519.185.622.622,0,0,1,.193.47.624.624,0,0,1-.2.475.722.722,0,0,1-.516.185.722.722,0,0,1-.516-.185A.624.624,0,0,1,29.1-5.985Zm3.564,1.23.04.549a1.66,1.66,0,0,1,1.367-.637,1.38,1.38,0,0,1,1.125.444,2.071,2.071,0,0,1,.378,1.327V0H34.3V-3.048a.827.827,0,0,0-.176-.588.786.786,0,0,0-.584-.183.873.873,0,0,0-.8.458V0h-1.27V-4.755Zm3.687,2.342a2.787,2.787,0,0,1,.521-1.762,1.687,1.687,0,0,1,1.4-.668,1.48,1.48,0,0,1,1.217.536l.053-.448h1.151v4.6A2.032,2.032,0,0,1,40.41.927a1.82,1.82,0,0,1-.8.7,2.8,2.8,0,0,1-1.2.242,2.607,2.607,0,0,1-1.02-.209,1.809,1.809,0,0,1-.751-.538L37.2.352a1.488,1.488,0,0,0,1.151.532,1.089,1.089,0,0,0,.787-.27,1.014,1.014,0,0,0,.281-.767V-.409a1.469,1.469,0,0,1-1.156.5,1.683,1.683,0,0,1-1.386-.67,2.786,2.786,0,0,1-.53-1.778Zm1.27.09A1.744,1.744,0,0,0,37.876-1.3a.824.824,0,0,0,.712.369.881.881,0,0,0,.831-.437V-3.382a.879.879,0,0,0-.822-.437.829.829,0,0,0-.719.375A1.967,1.967,0,0,0,37.617-2.322Z" transform="translate(109.775 178.431)" fill="#12263f"/>
      <path id="Trazado_206305" data-name="Trazado 206305" d="M2.294-6.4,3.938-1.758,5.572-6.4H7.3V0H5.981V-1.749l.132-3.019L4.386,0H3.48L1.758-4.764,1.89-1.749V0H.571V-6.4ZM11.127,0A1.41,1.41,0,0,1,11-.426,1.537,1.537,0,0,1,9.8.088a1.688,1.688,0,0,1-1.158-.4,1.3,1.3,0,0,1-.459-1.02,1.344,1.344,0,0,1,.56-1.16A2.765,2.765,0,0,1,10.362-2.9h.584v-.272a.784.784,0,0,0-.169-.527.666.666,0,0,0-.534-.2.757.757,0,0,0-.5.154.523.523,0,0,0-.182.422H8.288a1.276,1.276,0,0,1,.255-.765,1.685,1.685,0,0,1,.721-.552,2.627,2.627,0,0,1,1.046-.2,2.075,2.075,0,0,1,1.4.442,1.545,1.545,0,0,1,.516,1.241V-1.1A2.273,2.273,0,0,0,12.41-.075V0Zm-1.05-.883a1.094,1.094,0,0,0,.519-.125.823.823,0,0,0,.352-.336v-.817h-.475q-.954,0-1.015.659l0,.075a.508.508,0,0,0,.167.391A.649.649,0,0,0,10.077-.883Zm5.792-2.681a3.45,3.45,0,0,0-.457-.035.93.93,0,0,0-.945.488V0H13.2V-4.755h1.2l.035.567a1.177,1.177,0,0,1,1.059-.655,1.331,1.331,0,0,1,.4.057Zm2.338,1.657-.457.457V0h-1.27V-6.75h1.27v3.74L18-3.327l1.217-1.428h1.525L19.02-2.773,20.887,0H19.428Zm5.181,2a2.334,2.334,0,0,1-1.7-.642,2.281,2.281,0,0,1-.657-1.709v-.123A2.872,2.872,0,0,1,21.3-3.667a2.032,2.032,0,0,1,.784-.87,2.2,2.2,0,0,1,1.158-.305,1.973,1.973,0,0,1,1.536.615,2.5,2.5,0,0,1,.56,1.745v.519H22.315a1.18,1.18,0,0,0,.371.747,1.123,1.123,0,0,0,.784.281,1.371,1.371,0,0,0,1.147-.532l.624.7a1.907,1.907,0,0,1-.773.631A2.538,2.538,0,0,1,23.388.088Zm-.145-3.907a.794.794,0,0,0-.613.256,1.326,1.326,0,0,0-.3.733H24.1v-.1a.946.946,0,0,0-.229-.655A.819.819,0,0,0,23.243-3.819Zm4.342-2.1v1.169H28.4v.932h-.813V-1.45a.567.567,0,0,0,.1.378.508.508,0,0,0,.387.114,2.025,2.025,0,0,0,.374-.031v.962a2.615,2.615,0,0,1-.769.114,1.213,1.213,0,0,1-1.362-1.349V-3.823H25.62v-.932h.694V-5.924ZM30.445,0H29.171V-4.755h1.274ZM29.1-5.985a.625.625,0,0,1,.191-.47.718.718,0,0,1,.521-.185.72.72,0,0,1,.519.185.622.622,0,0,1,.193.47.624.624,0,0,1-.2.475.722.722,0,0,1-.516.185.722.722,0,0,1-.516-.185A.624.624,0,0,1,29.1-5.985Zm3.564,1.23.04.549a1.66,1.66,0,0,1,1.367-.637,1.38,1.38,0,0,1,1.125.444,2.071,2.071,0,0,1,.378,1.327V0H34.3V-3.048a.827.827,0,0,0-.176-.588.786.786,0,0,0-.584-.183.873.873,0,0,0-.8.458V0h-1.27V-4.755Zm3.687,2.342a2.787,2.787,0,0,1,.521-1.762,1.687,1.687,0,0,1,1.4-.668,1.48,1.48,0,0,1,1.217.536l.053-.448h1.151v4.6A2.032,2.032,0,0,1,40.41.927a1.82,1.82,0,0,1-.8.7,2.8,2.8,0,0,1-1.2.242,2.607,2.607,0,0,1-1.02-.209,1.809,1.809,0,0,1-.751-.538L37.2.352a1.488,1.488,0,0,0,1.151.532,1.089,1.089,0,0,0,.787-.27,1.014,1.014,0,0,0,.281-.767V-.409a1.469,1.469,0,0,1-1.156.5,1.683,1.683,0,0,1-1.386-.67,2.786,2.786,0,0,1-.53-1.778Zm1.27.09A1.744,1.744,0,0,0,37.876-1.3a.824.824,0,0,0,.712.369.881.881,0,0,0,.831-.437V-3.382a.879.879,0,0,0-.822-.437.829.829,0,0,0-.719.375A1.967,1.967,0,0,0,37.617-2.322Z" transform="translate(197.907 178.431)" fill="#12263f"/>
      <path id="Trazado_206298" data-name="Trazado 206298" d="M32.192,8.673H28.254v2.68h4.621V13H26.2V3.047h6.658V4.708H28.254V7.08h3.938Zm5.763,2.283a.637.637,0,0,0-.359-.571,4.077,4.077,0,0,0-1.152-.373q-2.639-.554-2.639-2.242a2.032,2.032,0,0,1,.817-1.644,3.3,3.3,0,0,1,2.136-.66,3.547,3.547,0,0,1,2.252.663,2.09,2.09,0,0,1,.844,1.723H37.879a.956.956,0,0,0-.273-.7,1.157,1.157,0,0,0-.854-.277,1.182,1.182,0,0,0-.772.226.712.712,0,0,0-.273.574.609.609,0,0,0,.311.53,3.2,3.2,0,0,0,1.049.349,8.571,8.571,0,0,1,1.244.332,2.044,2.044,0,0,1,1.565,1.989,1.929,1.929,0,0,1-.868,1.637,3.745,3.745,0,0,1-2.242.625,3.912,3.912,0,0,1-1.651-.332,2.77,2.77,0,0,1-1.131-.909,2.113,2.113,0,0,1-.41-1.248h1.873a1.031,1.031,0,0,0,.39.807,1.546,1.546,0,0,0,.971.28,1.43,1.43,0,0,0,.858-.215A.67.67,0,0,0,37.954,10.956Zm5.558-7.171V5.6h1.265V7.053H43.512v3.691a.881.881,0,0,0,.157.588.79.79,0,0,0,.6.178,3.15,3.15,0,0,0,.581-.048v1.5a4.067,4.067,0,0,1-1.2.178,1.886,1.886,0,0,1-2.119-2.1V7.053h-1.08V5.6h1.08V3.785Zm6.521,3.671a5.367,5.367,0,0,0-.711-.055,1.447,1.447,0,0,0-1.47.759V13H45.877V5.6h1.866l.055.882a1.831,1.831,0,0,1,1.647-1.019,2.07,2.07,0,0,1,.615.089Zm5.38,4.792a2.477,2.477,0,0,1-2.023.889,2.337,2.337,0,0,1-1.815-.684,2.918,2.918,0,0,1-.639-2V5.6h1.976v4.784q0,1.157,1.053,1.157a1.426,1.426,0,0,0,1.381-.7V5.6h1.982V13H55.468Zm6.48-.7a1.3,1.3,0,0,0,.889-.3,1.054,1.054,0,0,0,.355-.8h1.853a2.534,2.534,0,0,1-.41,1.377,2.706,2.706,0,0,1-1.1.971,3.455,3.455,0,0,1-1.548.345,3.211,3.211,0,0,1-2.5-1.008,3.99,3.99,0,0,1-.916-2.786v-.13a3.944,3.944,0,0,1,.909-2.728,3.174,3.174,0,0,1,2.5-1.019,3.111,3.111,0,0,1,2.225.79,2.8,2.8,0,0,1,.851,2.1H63.138a1.358,1.358,0,0,0-.355-.938,1.321,1.321,0,0,0-1.945.142A2.916,2.916,0,0,0,60.486,9.2V9.4a2.953,2.953,0,0,0,.349,1.643A1.2,1.2,0,0,0,61.894,11.544Zm6.59-7.759V5.6h1.265V7.053H68.484v3.691a.881.881,0,0,0,.157.588.79.79,0,0,0,.6.178,3.15,3.15,0,0,0,.581-.048v1.5a4.067,4.067,0,0,1-1.2.178,1.886,1.886,0,0,1-2.119-2.1V7.053h-1.08V5.6h1.08V3.785Zm6.795,8.463a2.477,2.477,0,0,1-2.023.889,2.337,2.337,0,0,1-1.815-.684,2.918,2.918,0,0,1-.639-2V5.6h1.976v4.784q0,1.157,1.053,1.157a1.426,1.426,0,0,0,1.381-.7V5.6h1.982V13H75.333Zm7.561-4.792a5.367,5.367,0,0,0-.711-.055,1.447,1.447,0,0,0-1.47.759V13H78.683V5.6h1.866l.055.882a1.831,1.831,0,0,1,1.647-1.019,2.07,2.07,0,0,1,.615.089ZM87.87,13a2.194,2.194,0,0,1-.2-.663,2.39,2.39,0,0,1-1.866.8,2.626,2.626,0,0,1-1.8-.629,2.023,2.023,0,0,1-.714-1.586,2.09,2.09,0,0,1,.872-1.8,4.3,4.3,0,0,1,2.519-.636h.909V8.058a1.219,1.219,0,0,0-.263-.82A1.035,1.035,0,0,0,86.5,6.93a1.177,1.177,0,0,0-.783.239.813.813,0,0,0-.284.656H83.454a1.985,1.985,0,0,1,.4-1.189,2.621,2.621,0,0,1,1.121-.858A4.086,4.086,0,0,1,86.6,5.467a3.228,3.228,0,0,1,2.17.687,2.4,2.4,0,0,1,.8,1.931v3.206a3.536,3.536,0,0,0,.294,1.593V13Zm-1.634-1.374a1.7,1.7,0,0,0,.807-.195,1.28,1.28,0,0,0,.547-.523V9.637h-.738q-1.483,0-1.579,1.025l-.007.116a.791.791,0,0,0,.26.608A1.009,1.009,0,0,0,86.237,11.626Zm8.032-2.379a4.457,4.457,0,0,1,.776-2.755,2.517,2.517,0,0,1,2.123-1.025,2.265,2.265,0,0,1,1.784.807V2.5h1.982V13H99.15l-.1-.786a2.325,2.325,0,0,1-1.9.923,2.511,2.511,0,0,1-2.1-1.029A4.6,4.6,0,0,1,94.269,9.247Zm1.976.141a2.936,2.936,0,0,0,.362,1.6,1.179,1.179,0,0,0,1.053.556,1.321,1.321,0,0,0,1.292-.776V7.836a1.3,1.3,0,0,0-1.278-.776Q96.245,7.06,96.245,9.388ZM104.55,13h-1.982V5.6h1.982Zm-2.1-9.311a.973.973,0,0,1,.3-.731,1.281,1.281,0,0,1,1.617,0,.967.967,0,0,1,.3.731.97.97,0,0,1-.3.738,1.267,1.267,0,0,1-1.606,0A.97.97,0,0,1,102.452,3.689Zm6.494,6.9L110.32,5.6h2.064l-2.5,7.4H108l-2.5-7.4h2.064ZM115.337,13h-1.982V5.6h1.982Zm-2.1-9.311a.973.973,0,0,1,.3-.731,1.281,1.281,0,0,1,1.617,0,.967.967,0,0,1,.3.731.97.97,0,0,1-.3.738,1.267,1.267,0,0,1-1.606,0A.97.97,0,0,1,113.239,3.689Zm7.731,7.267a.637.637,0,0,0-.359-.571,4.077,4.077,0,0,0-1.152-.373q-2.639-.554-2.639-2.242a2.032,2.032,0,0,1,.817-1.644,3.3,3.3,0,0,1,2.136-.66,3.547,3.547,0,0,1,2.252.663,2.09,2.09,0,0,1,.844,1.723h-1.976a.956.956,0,0,0-.273-.7,1.157,1.157,0,0,0-.854-.277,1.182,1.182,0,0,0-.772.226.712.712,0,0,0-.273.574.609.609,0,0,0,.311.53,3.2,3.2,0,0,0,1.049.349,8.571,8.571,0,0,1,1.244.332,2.044,2.044,0,0,1,1.565,1.989,1.929,1.929,0,0,1-.868,1.637,3.745,3.745,0,0,1-2.242.625,3.912,3.912,0,0,1-1.651-.332A2.77,2.77,0,0,1,117,11.9a2.113,2.113,0,0,1-.41-1.248h1.873a1.031,1.031,0,0,0,.39.807,1.546,1.546,0,0,0,.971.28,1.43,1.43,0,0,0,.858-.215A.67.67,0,0,0,120.97,10.956ZM126.247,13h-1.982V5.6h1.982Zm-2.1-9.311a.973.973,0,0,1,.3-.731,1.281,1.281,0,0,1,1.617,0,.967.967,0,0,1,.3.731.97.97,0,0,1-.3.738,1.267,1.267,0,0,1-1.606,0A.97.97,0,0,1,124.149,3.689Zm3.418,5.544a4.387,4.387,0,0,1,.424-1.962,3.1,3.1,0,0,1,1.22-1.333,3.56,3.56,0,0,1,1.849-.472,3.368,3.368,0,0,1,2.444.916,3.676,3.676,0,0,1,1.056,2.488l.014.506a3.866,3.866,0,0,1-.95,2.731,3.683,3.683,0,0,1-5.1,0,3.934,3.934,0,0,1-.954-2.789Zm1.976.14a2.765,2.765,0,0,0,.4,1.612,1.424,1.424,0,0,0,2.256.007,3.025,3.025,0,0,0,.4-1.763,2.737,2.737,0,0,0-.4-1.6,1.311,1.311,0,0,0-1.135-.568,1.29,1.29,0,0,0-1.121.565A3.076,3.076,0,0,0,129.542,9.374Zm8.066-3.77.062.854a2.582,2.582,0,0,1,2.126-.991,2.146,2.146,0,0,1,1.75.69,3.221,3.221,0,0,1,.588,2.064V13h-1.976V8.259a1.287,1.287,0,0,0-.273-.915,1.222,1.222,0,0,0-.909-.284,1.359,1.359,0,0,0-1.251.713V13h-1.976V5.6ZM147.917,13a2.194,2.194,0,0,1-.2-.663,2.39,2.39,0,0,1-1.866.8,2.626,2.626,0,0,1-1.8-.629,2.023,2.023,0,0,1-.714-1.586,2.09,2.09,0,0,1,.872-1.8,4.3,4.3,0,0,1,2.519-.636h.909V8.058a1.219,1.219,0,0,0-.263-.82,1.035,1.035,0,0,0-.831-.308,1.177,1.177,0,0,0-.783.239.813.813,0,0,0-.284.656H143.5a1.984,1.984,0,0,1,.4-1.189,2.621,2.621,0,0,1,1.121-.858,4.086,4.086,0,0,1,1.627-.311,3.228,3.228,0,0,1,2.17.687,2.4,2.4,0,0,1,.8,1.931v3.206a3.536,3.536,0,0,0,.294,1.593V13Zm-1.634-1.374a1.7,1.7,0,0,0,.807-.195,1.28,1.28,0,0,0,.547-.523V9.637H146.9q-1.483,0-1.579,1.025l-.007.116a.791.791,0,0,0,.26.608A1.009,1.009,0,0,0,146.284,11.626ZM153.222,13H151.24V2.5h1.982ZM56.576,23.247a4.335,4.335,0,0,1,.81-2.741,2.625,2.625,0,0,1,2.184-1.039,2.3,2.3,0,0,1,1.894.834l.082-.7h1.791v7.15a3.161,3.161,0,0,1-.441,1.688,2.832,2.832,0,0,1-1.241,1.094,4.362,4.362,0,0,1-1.873.376,4.056,4.056,0,0,1-1.586-.325,2.815,2.815,0,0,1-1.169-.837l.875-1.2a2.314,2.314,0,0,0,1.791.827,1.694,1.694,0,0,0,1.224-.42,1.577,1.577,0,0,0,.438-1.193v-.4a2.285,2.285,0,0,1-1.8.772A2.618,2.618,0,0,1,57.4,26.094a4.334,4.334,0,0,1-.824-2.765Zm1.976.141a2.714,2.714,0,0,0,.4,1.583,1.282,1.282,0,0,0,1.107.573,1.371,1.371,0,0,0,1.292-.68V21.739a1.368,1.368,0,0,0-1.278-.68,1.29,1.29,0,0,0-1.118.584A3.059,3.059,0,0,0,58.551,23.388Zm9.707,3.749a3.631,3.631,0,0,1-2.649-1,3.548,3.548,0,0,1-1.022-2.659v-.191a4.468,4.468,0,0,1,.431-1.993,3.161,3.161,0,0,1,1.22-1.354,3.425,3.425,0,0,1,1.8-.475,3.07,3.07,0,0,1,2.389.957,3.889,3.889,0,0,1,.872,2.714v.807H66.59a1.835,1.835,0,0,0,.578,1.162,1.746,1.746,0,0,0,1.22.438,2.132,2.132,0,0,0,1.784-.827l.971,1.087a2.966,2.966,0,0,1-1.2.981A3.947,3.947,0,0,1,68.258,27.137Zm-.226-6.077a1.234,1.234,0,0,0-.954.4,2.062,2.062,0,0,0-.468,1.14h2.748V22.44A1.471,1.471,0,0,0,69,21.42,1.274,1.274,0,0,0,68.033,21.06Zm4.081,2.174a4.387,4.387,0,0,1,.424-1.962,3.1,3.1,0,0,1,1.22-1.333,3.56,3.56,0,0,1,1.849-.472,3.368,3.368,0,0,1,2.444.916,3.676,3.676,0,0,1,1.056,2.488l.014.506a3.866,3.866,0,0,1-.95,2.731,3.683,3.683,0,0,1-5.1,0,3.934,3.934,0,0,1-.954-2.789Zm1.976.14a2.765,2.765,0,0,0,.4,1.612,1.424,1.424,0,0,0,2.256.007,3.025,3.025,0,0,0,.4-1.763,2.737,2.737,0,0,0-.4-1.6,1.311,1.311,0,0,0-1.135-.568,1.29,1.29,0,0,0-1.121.565A3.076,3.076,0,0,0,74.089,23.374Zm5.961-.127a4.335,4.335,0,0,1,.81-2.741,2.625,2.625,0,0,1,2.184-1.039,2.3,2.3,0,0,1,1.894.834l.082-.7h1.791v7.15a3.161,3.161,0,0,1-.441,1.688,2.832,2.832,0,0,1-1.241,1.094,4.362,4.362,0,0,1-1.873.376,4.056,4.056,0,0,1-1.586-.325A2.815,2.815,0,0,1,80.5,28.75l.875-1.2a2.314,2.314,0,0,0,1.791.827,1.694,1.694,0,0,0,1.224-.42,1.577,1.577,0,0,0,.438-1.193v-.4a2.285,2.285,0,0,1-1.8.772,2.618,2.618,0,0,1-2.157-1.042,4.334,4.334,0,0,1-.824-2.765Zm1.976.141a2.714,2.714,0,0,0,.4,1.583,1.282,1.282,0,0,0,1.107.573,1.371,1.371,0,0,0,1.292-.68V21.739a1.368,1.368,0,0,0-1.278-.68,1.29,1.29,0,0,0-1.118.584A3.059,3.059,0,0,0,82.026,23.388Zm10.459-1.932a5.367,5.367,0,0,0-.711-.055,1.447,1.447,0,0,0-1.47.759V27H88.328V19.6h1.866l.055.882A1.831,1.831,0,0,1,91.9,19.467a2.07,2.07,0,0,1,.615.089ZM97.516,27a2.194,2.194,0,0,1-.2-.663,2.39,2.39,0,0,1-1.866.8,2.626,2.626,0,0,1-1.8-.629,2.023,2.023,0,0,1-.714-1.586,2.09,2.09,0,0,1,.872-1.8,4.3,4.3,0,0,1,2.519-.636h.909v-.424a1.219,1.219,0,0,0-.263-.82,1.035,1.035,0,0,0-.831-.308,1.177,1.177,0,0,0-.783.239.813.813,0,0,0-.284.656H93.1a1.985,1.985,0,0,1,.4-1.189,2.621,2.621,0,0,1,1.121-.858,4.086,4.086,0,0,1,1.627-.311,3.228,3.228,0,0,1,2.17.687,2.4,2.4,0,0,1,.8,1.931v3.206a3.536,3.536,0,0,0,.294,1.593V27Zm-1.634-1.374a1.7,1.7,0,0,0,.807-.195,1.28,1.28,0,0,0,.547-.523V23.637H96.5q-1.483,0-1.579,1.025l-.007.116a.791.791,0,0,0,.26.608A1.009,1.009,0,0,0,95.882,25.626Zm.752-9.126h2.153l-1.894,2.119H95.287Zm4.58,10.5V21.053h-1.1V19.6h1.1v-.342a2.774,2.774,0,0,1,.858-2.15,3.452,3.452,0,0,1,2.382-.755,7.9,7.9,0,0,1,2.242.4l-.287,1.634a8.748,8.748,0,0,0-1.039-.256,5.105,5.105,0,0,0-.793-.058q-1.381,0-1.381,1.224v.3h1.456v1.449H103.2V27Zm6.405,0h-1.982V19.6h1.982Zm4.71-1.456a1.3,1.3,0,0,0,.889-.3,1.054,1.054,0,0,0,.355-.8h1.853a2.534,2.534,0,0,1-.41,1.377,2.706,2.706,0,0,1-1.1.971,3.455,3.455,0,0,1-1.548.345,3.211,3.211,0,0,1-2.5-1.008,3.99,3.99,0,0,1-.916-2.786v-.13a3.944,3.944,0,0,1,.909-2.728,3.174,3.174,0,0,1,2.5-1.019,3.111,3.111,0,0,1,2.225.79,2.8,2.8,0,0,1,.851,2.1h-1.853a1.358,1.358,0,0,0-.355-.938,1.321,1.321,0,0,0-1.945.142,2.916,2.916,0,0,0-.352,1.633V23.4a2.953,2.953,0,0,0,.349,1.643A1.2,1.2,0,0,0,112.329,25.544ZM120.84,27a2.194,2.194,0,0,1-.2-.663,2.39,2.39,0,0,1-1.866.8,2.626,2.626,0,0,1-1.8-.629,2.023,2.023,0,0,1-.714-1.586,2.09,2.09,0,0,1,.872-1.8,4.3,4.3,0,0,1,2.519-.636h.909v-.424a1.219,1.219,0,0,0-.263-.82,1.035,1.035,0,0,0-.831-.308,1.177,1.177,0,0,0-.783.239.813.813,0,0,0-.284.656h-1.976a1.985,1.985,0,0,1,.4-1.189,2.621,2.621,0,0,1,1.121-.858,4.086,4.086,0,0,1,1.627-.311,3.228,3.228,0,0,1,2.17.687,2.4,2.4,0,0,1,.8,1.931v3.206a3.536,3.536,0,0,0,.294,1.593V27Zm-1.634-1.374a1.7,1.7,0,0,0,.807-.195,1.28,1.28,0,0,0,.547-.523V23.637h-.738q-1.483,0-1.579,1.025l-.007.116a.791.791,0,0,0,.26.608A1.009,1.009,0,0,0,119.206,25.626Z" transform="translate(30.951 0)" fill="#12263f"/>
    </g>
    <g id="Grupo_150489" data-name="Grupo 150489" transform="translate(599.94 336)">
      <rect id="Rectángulo_41925" data-name="Rectángulo 41925" width="68.892" height="26.668" rx="10" transform="translate(82.748 60.516)" fill="#3d46c2"/>
      <path id="Trazado_206313" data-name="Trazado 206313" d="M5.594-2.131A2.264,2.264,0,0,1,4.832-.505,2.678,2.678,0,0,1,3.019.088,2.408,2.408,0,0,1,1.083-.74,3.4,3.4,0,0,1,.378-3.015v-.391A3.836,3.836,0,0,1,.7-5.032a2.437,2.437,0,0,1,.929-1.079,2.6,2.6,0,0,1,1.4-.376,2.609,2.609,0,0,1,1.784.593A2.433,2.433,0,0,1,5.6-4.228H4.285a1.336,1.336,0,0,0-.345-.9,1.277,1.277,0,0,0-.9-.279,1.12,1.12,0,0,0-.987.472,2.648,2.648,0,0,0-.336,1.466v.483a2.834,2.834,0,0,0,.314,1.516,1.1,1.1,0,0,0,.991.479,1.3,1.3,0,0,0,.912-.279,1.26,1.26,0,0,0,.345-.864Zm4.715-.65H7.778v1.723h2.971V0H6.46V-6.4h4.28v1.068H7.778v1.525H10.31Zm6.469-.272A3.863,3.863,0,0,1,16.444-1.4a2.515,2.515,0,0,1-.956,1.1,2.644,2.644,0,0,1-1.426.387,2.662,2.662,0,0,1-1.419-.382,2.54,2.54,0,0,1-.967-1.092,3.752,3.752,0,0,1-.347-1.633v-.316A3.842,3.842,0,0,1,11.67-5a2.536,2.536,0,0,1,.962-1.1,2.647,2.647,0,0,1,1.422-.385,2.647,2.647,0,0,1,1.422.385A2.536,2.536,0,0,1,16.438-5a3.831,3.831,0,0,1,.341,1.659Zm-1.336-.29a2.693,2.693,0,0,0-.36-1.529A1.174,1.174,0,0,0,14.054-5.4a1.175,1.175,0,0,0-1.024.516,2.662,2.662,0,0,0-.365,1.514v.312a2.726,2.726,0,0,0,.36,1.521,1.171,1.171,0,0,0,1.037.541,1.161,1.161,0,0,0,1.02-.521,2.71,2.71,0,0,0,.36-1.518Z" transform="translate(107.605 75.184)" fill="#fff"/>
      <path id="Trazado_204348" data-name="Trazado 204348" d="M174.392.028-.705,0H-2.547" transform="translate(29.981 97.644)" fill="none" stroke="#3e4bbf" stroke-width="1"/>
      <line id="Línea_642" data-name="Línea 642" x1="16.195" transform="translate(4.872 174.654)" fill="none" stroke="#3e4bbf" stroke-miterlimit="10" stroke-width="1"/>
      <line id="Línea_643" data-name="Línea 643" x1="16.195" transform="translate(91.513 174.654)" fill="none" stroke="#3e4bbf" stroke-miterlimit="10" stroke-width="1"/>
      <line id="Línea_649" data-name="Línea 649" x1="16.195" transform="translate(179.645 174.654)" fill="none" stroke="#3e4bbf" stroke-miterlimit="10" stroke-width="1"/>
      <line id="Línea_646" data-name="Línea 646" x1="16.195" transform="translate(4.872 213.241)" fill="none" stroke="#3e4bbf" stroke-miterlimit="10" stroke-width="1"/>
      <line id="Línea_647" data-name="Línea 647" x1="16.195" transform="translate(91.513 213.241)" fill="none" stroke="#3e4bbf" stroke-miterlimit="10" stroke-width="1"/>
      <line id="Línea_650" data-name="Línea 650" x1="16.195" transform="translate(179.645 213.241)" fill="none" stroke="#3e4bbf" stroke-miterlimit="10" stroke-width="1"/>
      <path id="Trazado_204349" data-name="Trazado 204349" d="M15.969,0H-.917" transform="translate(5.098 253.573)" fill="none" stroke="#3e4bbf" stroke-width="1"/>
      <path id="Trazado_204350" data-name="Trazado 204350" d="M15.969,0H-.917" transform="translate(91.739 253.573)" fill="none" stroke="#3e4bbf" stroke-width="1"/>
      <path id="Trazado_204351" data-name="Trazado 204351" d="M15.969,0H-.917" transform="translate(179.871 253.573)" fill="none" stroke="#3e4bbf" stroke-width="1"/>
      <line id="Línea_644" data-name="Línea 644" y2="25.906" transform="translate(28.111 97.049)" fill="none" stroke="#3e4bbf" stroke-miterlimit="10" stroke-width="1"/>
      <line id="Línea_648" data-name="Línea 648" y2="40.948" transform="translate(116.697 82.007)" fill="none" stroke="#3e4bbf" stroke-miterlimit="10" stroke-width="1"/>
      <line id="Línea_641" data-name="Línea 641" y2="123.581" transform="translate(4.872 130.14)" fill="none" stroke="#3e4bbf" stroke-miterlimit="10" stroke-width="1"/>
      <line id="Línea_645" data-name="Línea 645" y2="123.581" transform="translate(91.513 130.14)" fill="none" stroke="#3e4bbf" stroke-miterlimit="10" stroke-width="1"/>
      <line id="Línea_651" data-name="Línea 651" y2="123.581" transform="translate(179.645 130.14)" fill="none" stroke="#3e4bbf" stroke-miterlimit="10" stroke-width="1"/>
      <line id="Línea_652" data-name="Línea 652" y2="25.906" transform="translate(203.727 97.049)" fill="none" stroke="#3e4bbf" stroke-miterlimit="10" stroke-width="1"/>
      <rect id="Rectángulo_40599-13" data-name="Rectángulo 40599" width="56.221" height="18.418" rx="6.469" transform="translate(0 119.457)" fill="#bae887" stroke="#77b43a" stroke-width="1"/>
      <rect id="Rectángulo_40599-14" data-name="Rectángulo 40599" width="57.353" height="18.418" rx="6.469" transform="translate(88.517 119.256)" fill="#bae887" stroke="#77b43a" stroke-width="1"/>
      <rect id="Rectángulo_40599-15" data-name="Rectángulo 40599" width="56.222" height="18.418" rx="6.469" transform="translate(175.829 119.256)" fill="#bae887" stroke="#77b43a" stroke-width="1"/>
      <path id="Trazado_206314" data-name="Trazado 206314" d="M2.294-6.4,3.938-1.758,5.572-6.4H7.3V0H5.981V-1.749l.132-3.019L4.386,0H3.48L1.758-4.764,1.89-1.749V0H.571V-6.4ZM11.127,0A1.41,1.41,0,0,1,11-.426,1.537,1.537,0,0,1,9.8.088a1.688,1.688,0,0,1-1.158-.4,1.3,1.3,0,0,1-.459-1.02,1.344,1.344,0,0,1,.56-1.16A2.765,2.765,0,0,1,10.362-2.9h.584v-.272a.784.784,0,0,0-.169-.527.666.666,0,0,0-.534-.2.757.757,0,0,0-.5.154.523.523,0,0,0-.182.422H8.288a1.276,1.276,0,0,1,.255-.765,1.685,1.685,0,0,1,.721-.552,2.627,2.627,0,0,1,1.046-.2,2.075,2.075,0,0,1,1.4.442,1.545,1.545,0,0,1,.516,1.241V-1.1A2.273,2.273,0,0,0,12.41-.075V0Zm-1.05-.883a1.094,1.094,0,0,0,.519-.125.823.823,0,0,0,.352-.336v-.817h-.475q-.954,0-1.015.659l0,.075a.508.508,0,0,0,.167.391A.649.649,0,0,0,10.077-.883Zm5.792-2.681a3.45,3.45,0,0,0-.457-.035.93.93,0,0,0-.945.488V0H13.2V-4.755h1.2l.035.567a1.177,1.177,0,0,1,1.059-.655,1.331,1.331,0,0,1,.4.057Zm2.5,2.628a.833.833,0,0,0,.571-.193.677.677,0,0,0,.229-.514h1.191a1.629,1.629,0,0,1-.264.885,1.74,1.74,0,0,1-.71.624,2.221,2.221,0,0,1-1,.222A2.064,2.064,0,0,1,16.787-.56,2.565,2.565,0,0,1,16.2-2.351v-.083a2.536,2.536,0,0,1,.584-1.753,2.04,2.04,0,0,1,1.6-.655,2,2,0,0,1,1.43.508,1.8,1.8,0,0,1,.547,1.351H19.173a.873.873,0,0,0-.229-.6.762.762,0,0,0-.58-.232.765.765,0,0,0-.67.323,1.875,1.875,0,0,0-.226,1.05v.132a1.9,1.9,0,0,0,.224,1.056A.775.775,0,0,0,18.374-.936ZM23.845,0a1.41,1.41,0,0,1-.127-.426,1.537,1.537,0,0,1-1.2.514,1.688,1.688,0,0,1-1.158-.4,1.3,1.3,0,0,1-.459-1.02,1.344,1.344,0,0,1,.56-1.16A2.765,2.765,0,0,1,23.08-2.9h.584v-.272A.784.784,0,0,0,23.5-3.7a.666.666,0,0,0-.534-.2.757.757,0,0,0-.5.154.523.523,0,0,0-.182.422h-1.27a1.276,1.276,0,0,1,.255-.765,1.685,1.685,0,0,1,.721-.552,2.627,2.627,0,0,1,1.046-.2,2.075,2.075,0,0,1,1.4.442,1.545,1.545,0,0,1,.516,1.241V-1.1a2.273,2.273,0,0,0,.189,1.024V0Zm-1.05-.883a1.094,1.094,0,0,0,.519-.125.823.823,0,0,0,.352-.336v-.817H23.19q-.954,0-1.015.659l0,.075a.508.508,0,0,0,.167.391A.649.649,0,0,0,22.794-.883ZM31.188,0h-1.27V-4.9L28.4-4.434V-5.458l2.65-.949h.136Z" transform="translate(12.969 130.201)" fill="#12263f"/>
      <path id="Trazado_206321" data-name="Trazado 206321" d="M2.294-6.4,3.938-1.758,5.572-6.4H7.3V0H5.981V-1.749l.132-3.019L4.386,0H3.48L1.758-4.764,1.89-1.749V0H.571V-6.4ZM11.127,0A1.41,1.41,0,0,1,11-.426,1.537,1.537,0,0,1,9.8.088a1.688,1.688,0,0,1-1.158-.4,1.3,1.3,0,0,1-.459-1.02,1.344,1.344,0,0,1,.56-1.16A2.765,2.765,0,0,1,10.362-2.9h.584v-.272a.784.784,0,0,0-.169-.527.666.666,0,0,0-.534-.2.757.757,0,0,0-.5.154.523.523,0,0,0-.182.422H8.288a1.276,1.276,0,0,1,.255-.765,1.685,1.685,0,0,1,.721-.552,2.627,2.627,0,0,1,1.046-.2,2.075,2.075,0,0,1,1.4.442,1.545,1.545,0,0,1,.516,1.241V-1.1A2.273,2.273,0,0,0,12.41-.075V0Zm-1.05-.883a1.094,1.094,0,0,0,.519-.125.823.823,0,0,0,.352-.336v-.817h-.475q-.954,0-1.015.659l0,.075a.508.508,0,0,0,.167.391A.649.649,0,0,0,10.077-.883Zm5.792-2.681a3.45,3.45,0,0,0-.457-.035.93.93,0,0,0-.945.488V0H13.2V-4.755h1.2l.035.567a1.177,1.177,0,0,1,1.059-.655,1.331,1.331,0,0,1,.4.057Zm2.5,2.628a.833.833,0,0,0,.571-.193.677.677,0,0,0,.229-.514h1.191a1.629,1.629,0,0,1-.264.885,1.74,1.74,0,0,1-.71.624,2.221,2.221,0,0,1-1,.222A2.064,2.064,0,0,1,16.787-.56,2.565,2.565,0,0,1,16.2-2.351v-.083a2.536,2.536,0,0,1,.584-1.753,2.04,2.04,0,0,1,1.6-.655,2,2,0,0,1,1.43.508,1.8,1.8,0,0,1,.547,1.351H19.173a.873.873,0,0,0-.229-.6.762.762,0,0,0-.58-.232.765.765,0,0,0-.67.323,1.875,1.875,0,0,0-.226,1.05v.132a1.9,1.9,0,0,0,.224,1.056A.775.775,0,0,0,18.374-.936ZM23.845,0a1.41,1.41,0,0,1-.127-.426,1.537,1.537,0,0,1-1.2.514,1.688,1.688,0,0,1-1.158-.4,1.3,1.3,0,0,1-.459-1.02,1.344,1.344,0,0,1,.56-1.16A2.765,2.765,0,0,1,23.08-2.9h.584v-.272A.784.784,0,0,0,23.5-3.7a.666.666,0,0,0-.534-.2.757.757,0,0,0-.5.154.523.523,0,0,0-.182.422h-1.27a1.276,1.276,0,0,1,.255-.765,1.685,1.685,0,0,1,.721-.552,2.627,2.627,0,0,1,1.046-.2,2.075,2.075,0,0,1,1.4.442,1.545,1.545,0,0,1,.516,1.241V-1.1a2.273,2.273,0,0,0,.189,1.024V0Zm-1.05-.883a1.094,1.094,0,0,0,.519-.125.823.823,0,0,0,.352-.336v-.817H23.19q-.954,0-1.015.659l0,.075a.508.508,0,0,0,.167.391A.649.649,0,0,0,22.794-.883ZM32.489,0H28.1V-.87l2.07-2.206a5.106,5.106,0,0,0,.631-.813,1.306,1.306,0,0,0,.2-.659.977.977,0,0,0-.215-.67.777.777,0,0,0-.615-.244.838.838,0,0,0-.679.3,1.175,1.175,0,0,0-.248.78H27.976a2.1,2.1,0,0,1,.279-1.068,1.967,1.967,0,0,1,.789-.758A2.4,2.4,0,0,1,30.2-6.486a2.27,2.27,0,0,1,1.536.475,1.679,1.679,0,0,1,.547,1.34,2.151,2.151,0,0,1-.246.967,5.373,5.373,0,0,1-.844,1.147L29.738-1.024h2.751Z" transform="translate(99.786 130)" fill="#12263f"/>
      <path id="Trazado_206322" data-name="Trazado 206322" d="M2.294-6.4,3.938-1.758,5.572-6.4H7.3V0H5.981V-1.749l.132-3.019L4.386,0H3.48L1.758-4.764,1.89-1.749V0H.571V-6.4ZM11.127,0A1.41,1.41,0,0,1,11-.426,1.537,1.537,0,0,1,9.8.088a1.688,1.688,0,0,1-1.158-.4,1.3,1.3,0,0,1-.459-1.02,1.344,1.344,0,0,1,.56-1.16A2.765,2.765,0,0,1,10.362-2.9h.584v-.272a.784.784,0,0,0-.169-.527.666.666,0,0,0-.534-.2.757.757,0,0,0-.5.154.523.523,0,0,0-.182.422H8.288a1.276,1.276,0,0,1,.255-.765,1.685,1.685,0,0,1,.721-.552,2.627,2.627,0,0,1,1.046-.2,2.075,2.075,0,0,1,1.4.442,1.545,1.545,0,0,1,.516,1.241V-1.1A2.273,2.273,0,0,0,12.41-.075V0Zm-1.05-.883a1.094,1.094,0,0,0,.519-.125.823.823,0,0,0,.352-.336v-.817h-.475q-.954,0-1.015.659l0,.075a.508.508,0,0,0,.167.391A.649.649,0,0,0,10.077-.883Zm5.792-2.681a3.45,3.45,0,0,0-.457-.035.93.93,0,0,0-.945.488V0H13.2V-4.755h1.2l.035.567a1.177,1.177,0,0,1,1.059-.655,1.331,1.331,0,0,1,.4.057Zm2.5,2.628a.833.833,0,0,0,.571-.193.677.677,0,0,0,.229-.514h1.191a1.629,1.629,0,0,1-.264.885,1.74,1.74,0,0,1-.71.624,2.221,2.221,0,0,1-1,.222A2.064,2.064,0,0,1,16.787-.56,2.565,2.565,0,0,1,16.2-2.351v-.083a2.536,2.536,0,0,1,.584-1.753,2.04,2.04,0,0,1,1.6-.655,2,2,0,0,1,1.43.508,1.8,1.8,0,0,1,.547,1.351H19.173a.873.873,0,0,0-.229-.6.762.762,0,0,0-.58-.232.765.765,0,0,0-.67.323,1.875,1.875,0,0,0-.226,1.05v.132a1.9,1.9,0,0,0,.224,1.056A.775.775,0,0,0,18.374-.936ZM23.845,0a1.41,1.41,0,0,1-.127-.426,1.537,1.537,0,0,1-1.2.514,1.688,1.688,0,0,1-1.158-.4,1.3,1.3,0,0,1-.459-1.02,1.344,1.344,0,0,1,.56-1.16A2.765,2.765,0,0,1,23.08-2.9h.584v-.272A.784.784,0,0,0,23.5-3.7a.666.666,0,0,0-.534-.2.757.757,0,0,0-.5.154.523.523,0,0,0-.182.422h-1.27a1.276,1.276,0,0,1,.255-.765,1.685,1.685,0,0,1,.721-.552,2.627,2.627,0,0,1,1.046-.2,2.075,2.075,0,0,1,1.4.442,1.545,1.545,0,0,1,.516,1.241V-1.1a2.273,2.273,0,0,0,.189,1.024V0Zm-1.05-.883a1.094,1.094,0,0,0,.519-.125.823.823,0,0,0,.352-.336v-.817H23.19q-.954,0-1.015.659l0,.075a.508.508,0,0,0,.167.391A.649.649,0,0,0,22.794-.883Zm6.6-2.878h.677A.954.954,0,0,0,30.788-4a.886.886,0,0,0,.233-.642.783.783,0,0,0-.231-.6.894.894,0,0,0-.635-.215.937.937,0,0,0-.611.2.639.639,0,0,0-.246.521h-1.27a1.562,1.562,0,0,1,.27-.9,1.8,1.8,0,0,1,.756-.622,2.523,2.523,0,0,1,1.07-.224A2.392,2.392,0,0,1,31.715-6a1.657,1.657,0,0,1,.576,1.338,1.346,1.346,0,0,1-.268.809,1.742,1.742,0,0,1-.7.567,1.59,1.59,0,0,1,.806.58,1.574,1.574,0,0,1,.266.914A1.684,1.684,0,0,1,31.77-.426a2.5,2.5,0,0,1-1.646.514,2.371,2.371,0,0,1-1.567-.505,1.65,1.65,0,0,1-.609-1.336h1.27a.736.736,0,0,0,.27.589,1,1,0,0,0,.666.229,1,1,0,0,0,.71-.24.827.827,0,0,0,.257-.635q0-.958-1.055-.958H29.4Z" transform="translate(186.278 130)" fill="#12263f"/>
      <rect id="Rectángulo_40599-16" data-name="Rectángulo 40599" width="58.854" height="16.106" rx="6.469" transform="translate(15.417 167.794)" fill="#d1d5fc" stroke="#3e4bbf" stroke-width="1"/>
      <rect id="Rectángulo_40599-17" data-name="Rectángulo 40599" width="58.854" height="16.106" rx="6.469" transform="translate(102.058 167.794)" fill="#d1d5fc" stroke="#3e4bbf" stroke-width="1"/>
      <rect id="Rectángulo_40599-18" data-name="Rectángulo 40599" width="58.854" height="16.106" rx="6.469" transform="translate(190.19 167.794)" fill="#d1d5fc" stroke="#3e4bbf" stroke-width="1"/>
      <rect id="Rectángulo_40599-19" data-name="Rectángulo 40599" width="58.854" height="16.106" rx="6.469" transform="translate(15.417 205.189)" fill="#d1d5fc" stroke="#3e4bbf" stroke-width="1"/>
      <rect id="Rectángulo_40599-20" data-name="Rectángulo 40599" width="58.854" height="16.106" rx="6.469" transform="translate(102.058 205.189)" fill="#d1d5fc" stroke="#3e4bbf" stroke-width="1"/>
      <rect id="Rectángulo_40599-21" data-name="Rectángulo 40599" width="58.854" height="16.106" rx="6.469" transform="translate(190.19 205.189)" fill="#d1d5fc" stroke="#3e4bbf" stroke-width="1"/>
      <rect id="Rectángulo_40599-22" data-name="Rectángulo 40599" width="58.854" height="16.106" rx="6.469" transform="translate(15.417 245.668)" fill="#d1d5fc" stroke="#3e4bbf" stroke-width="1"/>
      <rect id="Rectángulo_40599-23" data-name="Rectángulo 40599" width="58.854" height="16.106" rx="6.469" transform="translate(102.058 245.668)" fill="#d1d5fc" stroke="#3e4bbf" stroke-width="1"/>
      <rect id="Rectángulo_40599-24" data-name="Rectángulo 40599" width="58.854" height="16.106" rx="6.469" transform="translate(190.19 245.668)" fill="#d1d5fc" stroke="#3e4bbf" stroke-width="1"/>
      <path id="Trazado_206316" data-name="Trazado 206316" d="M4.421-2.615H1.89V0H.571V-6.4H4.737v1.068H1.89v1.652H4.421ZM6.759,0H5.484V-4.755H6.759ZM5.41-5.985a.625.625,0,0,1,.191-.47.718.718,0,0,1,.521-.185.72.72,0,0,1,.519.185.622.622,0,0,1,.193.47.624.624,0,0,1-.2.475.722.722,0,0,1-.516.185.722.722,0,0,1-.516-.185A.624.624,0,0,1,5.41-5.985Zm3.564,1.23.04.549a1.66,1.66,0,0,1,1.367-.637A1.38,1.38,0,0,1,11.5-4.4a2.071,2.071,0,0,1,.378,1.327V0h-1.27V-3.048a.827.827,0,0,0-.176-.588.786.786,0,0,0-.584-.183.873.873,0,0,0-.8.458V0H7.778V-4.755ZM15.6,0a1.41,1.41,0,0,1-.127-.426,1.537,1.537,0,0,1-1.2.514,1.688,1.688,0,0,1-1.158-.4,1.3,1.3,0,0,1-.459-1.02,1.344,1.344,0,0,1,.56-1.16A2.765,2.765,0,0,1,14.836-2.9h.584v-.272a.784.784,0,0,0-.169-.527.666.666,0,0,0-.534-.2.757.757,0,0,0-.5.154.523.523,0,0,0-.182.422h-1.27a1.276,1.276,0,0,1,.255-.765,1.685,1.685,0,0,1,.721-.552,2.627,2.627,0,0,1,1.046-.2,2.075,2.075,0,0,1,1.4.442,1.545,1.545,0,0,1,.516,1.241V-1.1a2.273,2.273,0,0,0,.189,1.024V0ZM14.55-.883a1.094,1.094,0,0,0,.519-.125.823.823,0,0,0,.352-.336v-.817h-.475q-.954,0-1.015.659l0,.075a.508.508,0,0,0,.167.391A.649.649,0,0,0,14.55-.883Zm4.289-3.872.04.549a1.66,1.66,0,0,1,1.367-.637,1.38,1.38,0,0,1,1.125.444,2.071,2.071,0,0,1,.378,1.327V0h-1.27V-3.048a.827.827,0,0,0-.176-.588.786.786,0,0,0-.584-.183.873.873,0,0,0-.8.458V0h-1.27V-4.755ZM24.17-1.024h2.325V0H22.548V-.773l2.237-2.958H22.614V-4.755h3.81v.748ZM30.045,0a1.41,1.41,0,0,1-.127-.426,1.537,1.537,0,0,1-1.2.514,1.688,1.688,0,0,1-1.158-.4,1.3,1.3,0,0,1-.459-1.02,1.344,1.344,0,0,1,.56-1.16A2.765,2.765,0,0,1,29.281-2.9h.584v-.272A.784.784,0,0,0,29.7-3.7a.666.666,0,0,0-.534-.2.757.757,0,0,0-.5.154.523.523,0,0,0-.182.422h-1.27a1.276,1.276,0,0,1,.255-.765,1.685,1.685,0,0,1,.721-.552,2.627,2.627,0,0,1,1.046-.2,2.075,2.075,0,0,1,1.4.442A1.545,1.545,0,0,1,31.14-3.16V-1.1a2.273,2.273,0,0,0,.189,1.024V0ZM29-.883a1.094,1.094,0,0,0,.519-.125.823.823,0,0,0,.352-.336v-.817h-.475q-.954,0-1.015.659l0,.075a.508.508,0,0,0,.167.391A.649.649,0,0,0,29-.883Zm5.7-.431a.409.409,0,0,0-.231-.367,2.621,2.621,0,0,0-.74-.24q-1.7-.356-1.7-1.441a1.307,1.307,0,0,1,.525-1.057,2.118,2.118,0,0,1,1.373-.424,2.28,2.28,0,0,1,1.448.426,1.343,1.343,0,0,1,.543,1.107h-1.27a.615.615,0,0,0-.176-.45.744.744,0,0,0-.549-.178.76.76,0,0,0-.5.145.458.458,0,0,0-.176.369.391.391,0,0,0,.2.341,2.057,2.057,0,0,0,.675.224,5.51,5.51,0,0,1,.8.213,1.314,1.314,0,0,1,1.006,1.279,1.24,1.24,0,0,1-.558,1.052,2.408,2.408,0,0,1-1.441.4,2.515,2.515,0,0,1-1.061-.213,1.781,1.781,0,0,1-.727-.584,1.358,1.358,0,0,1-.264-.8h1.2a.663.663,0,0,0,.25.519.994.994,0,0,0,.624.18A.92.92,0,0,0,34.5-.951.431.431,0,0,0,34.69-1.314Z" transform="translate(25.591 215.826)" fill="#12263f"/>
      <path id="Trazado_206319" data-name="Trazado 206319" d="M4.421-2.615H1.89V0H.571V-6.4H4.737v1.068H1.89v1.652H4.421ZM6.759,0H5.484V-4.755H6.759ZM5.41-5.985a.625.625,0,0,1,.191-.47.718.718,0,0,1,.521-.185.72.72,0,0,1,.519.185.622.622,0,0,1,.193.47.624.624,0,0,1-.2.475.722.722,0,0,1-.516.185.722.722,0,0,1-.516-.185A.624.624,0,0,1,5.41-5.985Zm3.564,1.23.04.549a1.66,1.66,0,0,1,1.367-.637A1.38,1.38,0,0,1,11.5-4.4a2.071,2.071,0,0,1,.378,1.327V0h-1.27V-3.048a.827.827,0,0,0-.176-.588.786.786,0,0,0-.584-.183.873.873,0,0,0-.8.458V0H7.778V-4.755ZM15.6,0a1.41,1.41,0,0,1-.127-.426,1.537,1.537,0,0,1-1.2.514,1.688,1.688,0,0,1-1.158-.4,1.3,1.3,0,0,1-.459-1.02,1.344,1.344,0,0,1,.56-1.16A2.765,2.765,0,0,1,14.836-2.9h.584v-.272a.784.784,0,0,0-.169-.527.666.666,0,0,0-.534-.2.757.757,0,0,0-.5.154.523.523,0,0,0-.182.422h-1.27a1.276,1.276,0,0,1,.255-.765,1.685,1.685,0,0,1,.721-.552,2.627,2.627,0,0,1,1.046-.2,2.075,2.075,0,0,1,1.4.442,1.545,1.545,0,0,1,.516,1.241V-1.1a2.273,2.273,0,0,0,.189,1.024V0ZM14.55-.883a1.094,1.094,0,0,0,.519-.125.823.823,0,0,0,.352-.336v-.817h-.475q-.954,0-1.015.659l0,.075a.508.508,0,0,0,.167.391A.649.649,0,0,0,14.55-.883Zm4.289-3.872.04.549a1.66,1.66,0,0,1,1.367-.637,1.38,1.38,0,0,1,1.125.444,2.071,2.071,0,0,1,.378,1.327V0h-1.27V-3.048a.827.827,0,0,0-.176-.588.786.786,0,0,0-.584-.183.873.873,0,0,0-.8.458V0h-1.27V-4.755ZM24.17-1.024h2.325V0H22.548V-.773l2.237-2.958H22.614V-4.755h3.81v.748ZM30.045,0a1.41,1.41,0,0,1-.127-.426,1.537,1.537,0,0,1-1.2.514,1.688,1.688,0,0,1-1.158-.4,1.3,1.3,0,0,1-.459-1.02,1.344,1.344,0,0,1,.56-1.16A2.765,2.765,0,0,1,29.281-2.9h.584v-.272A.784.784,0,0,0,29.7-3.7a.666.666,0,0,0-.534-.2.757.757,0,0,0-.5.154.523.523,0,0,0-.182.422h-1.27a1.276,1.276,0,0,1,.255-.765,1.685,1.685,0,0,1,.721-.552,2.627,2.627,0,0,1,1.046-.2,2.075,2.075,0,0,1,1.4.442A1.545,1.545,0,0,1,31.14-3.16V-1.1a2.273,2.273,0,0,0,.189,1.024V0ZM29-.883a1.094,1.094,0,0,0,.519-.125.823.823,0,0,0,.352-.336v-.817h-.475q-.954,0-1.015.659l0,.075a.508.508,0,0,0,.167.391A.649.649,0,0,0,29-.883Zm5.7-.431a.409.409,0,0,0-.231-.367,2.621,2.621,0,0,0-.74-.24q-1.7-.356-1.7-1.441a1.307,1.307,0,0,1,.525-1.057,2.118,2.118,0,0,1,1.373-.424,2.28,2.28,0,0,1,1.448.426,1.343,1.343,0,0,1,.543,1.107h-1.27a.615.615,0,0,0-.176-.45.744.744,0,0,0-.549-.178.76.76,0,0,0-.5.145.458.458,0,0,0-.176.369.391.391,0,0,0,.2.341,2.057,2.057,0,0,0,.675.224,5.51,5.51,0,0,1,.8.213,1.314,1.314,0,0,1,1.006,1.279,1.24,1.24,0,0,1-.558,1.052,2.408,2.408,0,0,1-1.441.4,2.515,2.515,0,0,1-1.061-.213,1.781,1.781,0,0,1-.727-.584,1.358,1.358,0,0,1-.264-.8h1.2a.663.663,0,0,0,.25.519.994.994,0,0,0,.624.18A.92.92,0,0,0,34.5-.951.431.431,0,0,0,34.69-1.314Z" transform="translate(112.231 215.826)" fill="#12263f"/>
      <path id="Trazado_206324" data-name="Trazado 206324" d="M4.421-2.615H1.89V0H.571V-6.4H4.737v1.068H1.89v1.652H4.421ZM6.759,0H5.484V-4.755H6.759ZM5.41-5.985a.625.625,0,0,1,.191-.47.718.718,0,0,1,.521-.185.72.72,0,0,1,.519.185.622.622,0,0,1,.193.47.624.624,0,0,1-.2.475.722.722,0,0,1-.516.185.722.722,0,0,1-.516-.185A.624.624,0,0,1,5.41-5.985Zm3.564,1.23.04.549a1.66,1.66,0,0,1,1.367-.637A1.38,1.38,0,0,1,11.5-4.4a2.071,2.071,0,0,1,.378,1.327V0h-1.27V-3.048a.827.827,0,0,0-.176-.588.786.786,0,0,0-.584-.183.873.873,0,0,0-.8.458V0H7.778V-4.755ZM15.6,0a1.41,1.41,0,0,1-.127-.426,1.537,1.537,0,0,1-1.2.514,1.688,1.688,0,0,1-1.158-.4,1.3,1.3,0,0,1-.459-1.02,1.344,1.344,0,0,1,.56-1.16A2.765,2.765,0,0,1,14.836-2.9h.584v-.272a.784.784,0,0,0-.169-.527.666.666,0,0,0-.534-.2.757.757,0,0,0-.5.154.523.523,0,0,0-.182.422h-1.27a1.276,1.276,0,0,1,.255-.765,1.685,1.685,0,0,1,.721-.552,2.627,2.627,0,0,1,1.046-.2,2.075,2.075,0,0,1,1.4.442,1.545,1.545,0,0,1,.516,1.241V-1.1a2.273,2.273,0,0,0,.189,1.024V0ZM14.55-.883a1.094,1.094,0,0,0,.519-.125.823.823,0,0,0,.352-.336v-.817h-.475q-.954,0-1.015.659l0,.075a.508.508,0,0,0,.167.391A.649.649,0,0,0,14.55-.883Zm4.289-3.872.04.549a1.66,1.66,0,0,1,1.367-.637,1.38,1.38,0,0,1,1.125.444,2.071,2.071,0,0,1,.378,1.327V0h-1.27V-3.048a.827.827,0,0,0-.176-.588.786.786,0,0,0-.584-.183.873.873,0,0,0-.8.458V0h-1.27V-4.755ZM24.17-1.024h2.325V0H22.548V-.773l2.237-2.958H22.614V-4.755h3.81v.748ZM30.045,0a1.41,1.41,0,0,1-.127-.426,1.537,1.537,0,0,1-1.2.514,1.688,1.688,0,0,1-1.158-.4,1.3,1.3,0,0,1-.459-1.02,1.344,1.344,0,0,1,.56-1.16A2.765,2.765,0,0,1,29.281-2.9h.584v-.272A.784.784,0,0,0,29.7-3.7a.666.666,0,0,0-.534-.2.757.757,0,0,0-.5.154.523.523,0,0,0-.182.422h-1.27a1.276,1.276,0,0,1,.255-.765,1.685,1.685,0,0,1,.721-.552,2.627,2.627,0,0,1,1.046-.2,2.075,2.075,0,0,1,1.4.442A1.545,1.545,0,0,1,31.14-3.16V-1.1a2.273,2.273,0,0,0,.189,1.024V0ZM29-.883a1.094,1.094,0,0,0,.519-.125.823.823,0,0,0,.352-.336v-.817h-.475q-.954,0-1.015.659l0,.075a.508.508,0,0,0,.167.391A.649.649,0,0,0,29-.883Zm5.7-.431a.409.409,0,0,0-.231-.367,2.621,2.621,0,0,0-.74-.24q-1.7-.356-1.7-1.441a1.307,1.307,0,0,1,.525-1.057,2.118,2.118,0,0,1,1.373-.424,2.28,2.28,0,0,1,1.448.426,1.343,1.343,0,0,1,.543,1.107h-1.27a.615.615,0,0,0-.176-.45.744.744,0,0,0-.549-.178.76.76,0,0,0-.5.145.458.458,0,0,0-.176.369.391.391,0,0,0,.2.341,2.057,2.057,0,0,0,.675.224,5.51,5.51,0,0,1,.8.213,1.314,1.314,0,0,1,1.006,1.279,1.24,1.24,0,0,1-.558,1.052,2.408,2.408,0,0,1-1.441.4,2.515,2.515,0,0,1-1.061-.213,1.781,1.781,0,0,1-.727-.584,1.358,1.358,0,0,1-.264-.8h1.2a.663.663,0,0,0,.25.519.994.994,0,0,0,.624.18A.92.92,0,0,0,34.5-.951.431.431,0,0,0,34.69-1.314Z" transform="translate(200.364 215.826)" fill="#12263f"/>
      <path id="Trazado_206317" data-name="Trazado 206317" d="M2.936-1.586,4.386-6.4H5.854L3.625,0H2.25L.031-6.4H1.494ZM8.367.088a2.334,2.334,0,0,1-1.7-.642,2.281,2.281,0,0,1-.657-1.709v-.123a2.872,2.872,0,0,1,.277-1.281,2.032,2.032,0,0,1,.784-.87,2.2,2.2,0,0,1,1.158-.305,1.973,1.973,0,0,1,1.536.615,2.5,2.5,0,0,1,.56,1.745v.519H7.295a1.18,1.18,0,0,0,.371.747,1.123,1.123,0,0,0,.784.281A1.371,1.371,0,0,0,9.6-1.468l.624.7a1.907,1.907,0,0,1-.773.631A2.538,2.538,0,0,1,8.367.088ZM8.222-3.819a.794.794,0,0,0-.613.256,1.326,1.326,0,0,0-.3.733H9.075v-.1a.946.946,0,0,0-.229-.655A.819.819,0,0,0,8.222-3.819Zm3.99-.936.04.549a1.66,1.66,0,0,1,1.367-.637,1.38,1.38,0,0,1,1.125.444,2.071,2.071,0,0,1,.378,1.327V0h-1.27V-3.048a.827.827,0,0,0-.176-.588.786.786,0,0,0-.584-.183.873.873,0,0,0-.8.458V0h-1.27V-4.755ZM17.6-5.924v1.169h.813v.932H17.6V-1.45a.567.567,0,0,0,.1.378.508.508,0,0,0,.387.114,2.025,2.025,0,0,0,.374-.031v.962A2.615,2.615,0,0,1,17.7.088a1.213,1.213,0,0,1-1.362-1.349V-3.823H15.64v-.932h.694V-5.924ZM21.88,0a1.41,1.41,0,0,1-.127-.426,1.537,1.537,0,0,1-1.2.514,1.688,1.688,0,0,1-1.158-.4,1.3,1.3,0,0,1-.459-1.02A1.344,1.344,0,0,1,19.5-2.5,2.765,2.765,0,0,1,21.116-2.9H21.7v-.272a.784.784,0,0,0-.169-.527A.666.666,0,0,0,21-3.9a.757.757,0,0,0-.5.154.523.523,0,0,0-.182.422h-1.27a1.276,1.276,0,0,1,.255-.765,1.685,1.685,0,0,1,.721-.552,2.627,2.627,0,0,1,1.046-.2,2.075,2.075,0,0,1,1.4.442,1.545,1.545,0,0,1,.516,1.241V-1.1a2.273,2.273,0,0,0,.189,1.024V0ZM20.83-.883a1.094,1.094,0,0,0,.519-.125.823.823,0,0,0,.352-.336v-.817h-.475q-.954,0-1.015.659l0,.075a.508.508,0,0,0,.167.391A.649.649,0,0,0,20.83-.883Zm5.7-.431a.409.409,0,0,0-.231-.367,2.621,2.621,0,0,0-.74-.24q-1.7-.356-1.7-1.441a1.307,1.307,0,0,1,.525-1.057,2.118,2.118,0,0,1,1.373-.424,2.28,2.28,0,0,1,1.448.426,1.343,1.343,0,0,1,.543,1.107h-1.27a.615.615,0,0,0-.176-.45.744.744,0,0,0-.549-.178.76.76,0,0,0-.5.145.458.458,0,0,0-.176.369.391.391,0,0,0,.2.341,2.057,2.057,0,0,0,.675.224,5.51,5.51,0,0,1,.8.213A1.314,1.314,0,0,1,27.76-1.367,1.24,1.24,0,0,1,27.2-.314a2.408,2.408,0,0,1-1.441.4A2.515,2.515,0,0,1,24.7-.125a1.781,1.781,0,0,1-.727-.584,1.358,1.358,0,0,1-.264-.8h1.2a.663.663,0,0,0,.25.519.994.994,0,0,0,.624.18.92.92,0,0,0,.552-.138A.431.431,0,0,0,26.525-1.314Z" transform="translate(25.535 256.306)" fill="#12263f"/>
      <path id="Trazado_206318" data-name="Trazado 206318" d="M2.936-1.586,4.386-6.4H5.854L3.625,0H2.25L.031-6.4H1.494ZM8.367.088a2.334,2.334,0,0,1-1.7-.642,2.281,2.281,0,0,1-.657-1.709v-.123a2.872,2.872,0,0,1,.277-1.281,2.032,2.032,0,0,1,.784-.87,2.2,2.2,0,0,1,1.158-.305,1.973,1.973,0,0,1,1.536.615,2.5,2.5,0,0,1,.56,1.745v.519H7.295a1.18,1.18,0,0,0,.371.747,1.123,1.123,0,0,0,.784.281A1.371,1.371,0,0,0,9.6-1.468l.624.7a1.907,1.907,0,0,1-.773.631A2.538,2.538,0,0,1,8.367.088ZM8.222-3.819a.794.794,0,0,0-.613.256,1.326,1.326,0,0,0-.3.733H9.075v-.1a.946.946,0,0,0-.229-.655A.819.819,0,0,0,8.222-3.819Zm3.99-.936.04.549a1.66,1.66,0,0,1,1.367-.637,1.38,1.38,0,0,1,1.125.444,2.071,2.071,0,0,1,.378,1.327V0h-1.27V-3.048a.827.827,0,0,0-.176-.588.786.786,0,0,0-.584-.183.873.873,0,0,0-.8.458V0h-1.27V-4.755ZM17.6-5.924v1.169h.813v.932H17.6V-1.45a.567.567,0,0,0,.1.378.508.508,0,0,0,.387.114,2.025,2.025,0,0,0,.374-.031v.962A2.615,2.615,0,0,1,17.7.088a1.213,1.213,0,0,1-1.362-1.349V-3.823H15.64v-.932h.694V-5.924ZM21.88,0a1.41,1.41,0,0,1-.127-.426,1.537,1.537,0,0,1-1.2.514,1.688,1.688,0,0,1-1.158-.4,1.3,1.3,0,0,1-.459-1.02A1.344,1.344,0,0,1,19.5-2.5,2.765,2.765,0,0,1,21.116-2.9H21.7v-.272a.784.784,0,0,0-.169-.527A.666.666,0,0,0,21-3.9a.757.757,0,0,0-.5.154.523.523,0,0,0-.182.422h-1.27a1.276,1.276,0,0,1,.255-.765,1.685,1.685,0,0,1,.721-.552,2.627,2.627,0,0,1,1.046-.2,2.075,2.075,0,0,1,1.4.442,1.545,1.545,0,0,1,.516,1.241V-1.1a2.273,2.273,0,0,0,.189,1.024V0ZM20.83-.883a1.094,1.094,0,0,0,.519-.125.823.823,0,0,0,.352-.336v-.817h-.475q-.954,0-1.015.659l0,.075a.508.508,0,0,0,.167.391A.649.649,0,0,0,20.83-.883Zm5.7-.431a.409.409,0,0,0-.231-.367,2.621,2.621,0,0,0-.74-.24q-1.7-.356-1.7-1.441a1.307,1.307,0,0,1,.525-1.057,2.118,2.118,0,0,1,1.373-.424,2.28,2.28,0,0,1,1.448.426,1.343,1.343,0,0,1,.543,1.107h-1.27a.615.615,0,0,0-.176-.45.744.744,0,0,0-.549-.178.76.76,0,0,0-.5.145.458.458,0,0,0-.176.369.391.391,0,0,0,.2.341,2.057,2.057,0,0,0,.675.224,5.51,5.51,0,0,1,.8.213A1.314,1.314,0,0,1,27.76-1.367,1.24,1.24,0,0,1,27.2-.314a2.408,2.408,0,0,1-1.441.4A2.515,2.515,0,0,1,24.7-.125a1.781,1.781,0,0,1-.727-.584,1.358,1.358,0,0,1-.264-.8h1.2a.663.663,0,0,0,.25.519.994.994,0,0,0,.624.18.92.92,0,0,0,.552-.138A.431.431,0,0,0,26.525-1.314Z" transform="translate(112.176 256.306)" fill="#12263f"/>
      <path id="Trazado_206325" data-name="Trazado 206325" d="M2.936-1.586,4.386-6.4H5.854L3.625,0H2.25L.031-6.4H1.494ZM8.367.088a2.334,2.334,0,0,1-1.7-.642,2.281,2.281,0,0,1-.657-1.709v-.123a2.872,2.872,0,0,1,.277-1.281,2.032,2.032,0,0,1,.784-.87,2.2,2.2,0,0,1,1.158-.305,1.973,1.973,0,0,1,1.536.615,2.5,2.5,0,0,1,.56,1.745v.519H7.295a1.18,1.18,0,0,0,.371.747,1.123,1.123,0,0,0,.784.281A1.371,1.371,0,0,0,9.6-1.468l.624.7a1.907,1.907,0,0,1-.773.631A2.538,2.538,0,0,1,8.367.088ZM8.222-3.819a.794.794,0,0,0-.613.256,1.326,1.326,0,0,0-.3.733H9.075v-.1a.946.946,0,0,0-.229-.655A.819.819,0,0,0,8.222-3.819Zm3.99-.936.04.549a1.66,1.66,0,0,1,1.367-.637,1.38,1.38,0,0,1,1.125.444,2.071,2.071,0,0,1,.378,1.327V0h-1.27V-3.048a.827.827,0,0,0-.176-.588.786.786,0,0,0-.584-.183.873.873,0,0,0-.8.458V0h-1.27V-4.755ZM17.6-5.924v1.169h.813v.932H17.6V-1.45a.567.567,0,0,0,.1.378.508.508,0,0,0,.387.114,2.025,2.025,0,0,0,.374-.031v.962A2.615,2.615,0,0,1,17.7.088a1.213,1.213,0,0,1-1.362-1.349V-3.823H15.64v-.932h.694V-5.924ZM21.88,0a1.41,1.41,0,0,1-.127-.426,1.537,1.537,0,0,1-1.2.514,1.688,1.688,0,0,1-1.158-.4,1.3,1.3,0,0,1-.459-1.02A1.344,1.344,0,0,1,19.5-2.5,2.765,2.765,0,0,1,21.116-2.9H21.7v-.272a.784.784,0,0,0-.169-.527A.666.666,0,0,0,21-3.9a.757.757,0,0,0-.5.154.523.523,0,0,0-.182.422h-1.27a1.276,1.276,0,0,1,.255-.765,1.685,1.685,0,0,1,.721-.552,2.627,2.627,0,0,1,1.046-.2,2.075,2.075,0,0,1,1.4.442,1.545,1.545,0,0,1,.516,1.241V-1.1a2.273,2.273,0,0,0,.189,1.024V0ZM20.83-.883a1.094,1.094,0,0,0,.519-.125.823.823,0,0,0,.352-.336v-.817h-.475q-.954,0-1.015.659l0,.075a.508.508,0,0,0,.167.391A.649.649,0,0,0,20.83-.883Zm5.7-.431a.409.409,0,0,0-.231-.367,2.621,2.621,0,0,0-.74-.24q-1.7-.356-1.7-1.441a1.307,1.307,0,0,1,.525-1.057,2.118,2.118,0,0,1,1.373-.424,2.28,2.28,0,0,1,1.448.426,1.343,1.343,0,0,1,.543,1.107h-1.27a.615.615,0,0,0-.176-.45.744.744,0,0,0-.549-.178.76.76,0,0,0-.5.145.458.458,0,0,0-.176.369.391.391,0,0,0,.2.341,2.057,2.057,0,0,0,.675.224,5.51,5.51,0,0,1,.8.213A1.314,1.314,0,0,1,27.76-1.367,1.24,1.24,0,0,1,27.2-.314a2.408,2.408,0,0,1-1.441.4A2.515,2.515,0,0,1,24.7-.125a1.781,1.781,0,0,1-.727-.584,1.358,1.358,0,0,1-.264-.8h1.2a.663.663,0,0,0,.25.519.994.994,0,0,0,.624.18.92.92,0,0,0,.552-.138A.431.431,0,0,0,26.525-1.314Z" transform="translate(200.308 256.306)" fill="#12263f"/>
      <path id="Trazado_206315" data-name="Trazado 206315" d="M2.294-6.4,3.938-1.758,5.572-6.4H7.3V0H5.981V-1.749l.132-3.019L4.386,0H3.48L1.758-4.764,1.89-1.749V0H.571V-6.4ZM11.127,0A1.41,1.41,0,0,1,11-.426,1.537,1.537,0,0,1,9.8.088a1.688,1.688,0,0,1-1.158-.4,1.3,1.3,0,0,1-.459-1.02,1.344,1.344,0,0,1,.56-1.16A2.765,2.765,0,0,1,10.362-2.9h.584v-.272a.784.784,0,0,0-.169-.527.666.666,0,0,0-.534-.2.757.757,0,0,0-.5.154.523.523,0,0,0-.182.422H8.288a1.276,1.276,0,0,1,.255-.765,1.685,1.685,0,0,1,.721-.552,2.627,2.627,0,0,1,1.046-.2,2.075,2.075,0,0,1,1.4.442,1.545,1.545,0,0,1,.516,1.241V-1.1A2.273,2.273,0,0,0,12.41-.075V0Zm-1.05-.883a1.094,1.094,0,0,0,.519-.125.823.823,0,0,0,.352-.336v-.817h-.475q-.954,0-1.015.659l0,.075a.508.508,0,0,0,.167.391A.649.649,0,0,0,10.077-.883Zm5.792-2.681a3.45,3.45,0,0,0-.457-.035.93.93,0,0,0-.945.488V0H13.2V-4.755h1.2l.035.567a1.177,1.177,0,0,1,1.059-.655,1.331,1.331,0,0,1,.4.057Zm2.338,1.657-.457.457V0h-1.27V-6.75h1.27v3.74L18-3.327l1.217-1.428h1.525L19.02-2.773,20.887,0H19.428Zm5.181,2a2.334,2.334,0,0,1-1.7-.642,2.281,2.281,0,0,1-.657-1.709v-.123A2.872,2.872,0,0,1,21.3-3.667a2.032,2.032,0,0,1,.784-.87,2.2,2.2,0,0,1,1.158-.305,1.973,1.973,0,0,1,1.536.615,2.5,2.5,0,0,1,.56,1.745v.519H22.315a1.18,1.18,0,0,0,.371.747,1.123,1.123,0,0,0,.784.281,1.371,1.371,0,0,0,1.147-.532l.624.7a1.907,1.907,0,0,1-.773.631A2.538,2.538,0,0,1,23.388.088Zm-.145-3.907a.794.794,0,0,0-.613.256,1.326,1.326,0,0,0-.3.733H24.1v-.1a.946.946,0,0,0-.229-.655A.819.819,0,0,0,23.243-3.819Zm4.342-2.1v1.169H28.4v.932h-.813V-1.45a.567.567,0,0,0,.1.378.508.508,0,0,0,.387.114,2.025,2.025,0,0,0,.374-.031v.962a2.615,2.615,0,0,1-.769.114,1.213,1.213,0,0,1-1.362-1.349V-3.823H25.62v-.932h.694V-5.924ZM30.445,0H29.171V-4.755h1.274ZM29.1-5.985a.625.625,0,0,1,.191-.47.718.718,0,0,1,.521-.185.72.72,0,0,1,.519.185.622.622,0,0,1,.193.47.624.624,0,0,1-.2.475.722.722,0,0,1-.516.185.722.722,0,0,1-.516-.185A.624.624,0,0,1,29.1-5.985Zm3.564,1.23.04.549a1.66,1.66,0,0,1,1.367-.637,1.38,1.38,0,0,1,1.125.444,2.071,2.071,0,0,1,.378,1.327V0H34.3V-3.048a.827.827,0,0,0-.176-.588.786.786,0,0,0-.584-.183.873.873,0,0,0-.8.458V0h-1.27V-4.755Zm3.687,2.342a2.787,2.787,0,0,1,.521-1.762,1.687,1.687,0,0,1,1.4-.668,1.48,1.48,0,0,1,1.217.536l.053-.448h1.151v4.6A2.032,2.032,0,0,1,40.41.927a1.82,1.82,0,0,1-.8.7,2.8,2.8,0,0,1-1.2.242,2.607,2.607,0,0,1-1.02-.209,1.809,1.809,0,0,1-.751-.538L37.2.352a1.488,1.488,0,0,0,1.151.532,1.089,1.089,0,0,0,.787-.27,1.014,1.014,0,0,0,.281-.767V-.409a1.469,1.469,0,0,1-1.156.5,1.683,1.683,0,0,1-1.386-.67,2.786,2.786,0,0,1-.53-1.778Zm1.27.09A1.744,1.744,0,0,0,37.876-1.3a.824.824,0,0,0,.712.369.881.881,0,0,0,.831-.437V-3.382a.879.879,0,0,0-.822-.437.829.829,0,0,0-.719.375A1.967,1.967,0,0,0,37.617-2.322Z" transform="translate(23.134 178.431)" fill="#12263f"/>
      <path id="Trazado_206320" data-name="Trazado 206320" d="M2.294-6.4,3.938-1.758,5.572-6.4H7.3V0H5.981V-1.749l.132-3.019L4.386,0H3.48L1.758-4.764,1.89-1.749V0H.571V-6.4ZM11.127,0A1.41,1.41,0,0,1,11-.426,1.537,1.537,0,0,1,9.8.088a1.688,1.688,0,0,1-1.158-.4,1.3,1.3,0,0,1-.459-1.02,1.344,1.344,0,0,1,.56-1.16A2.765,2.765,0,0,1,10.362-2.9h.584v-.272a.784.784,0,0,0-.169-.527.666.666,0,0,0-.534-.2.757.757,0,0,0-.5.154.523.523,0,0,0-.182.422H8.288a1.276,1.276,0,0,1,.255-.765,1.685,1.685,0,0,1,.721-.552,2.627,2.627,0,0,1,1.046-.2,2.075,2.075,0,0,1,1.4.442,1.545,1.545,0,0,1,.516,1.241V-1.1A2.273,2.273,0,0,0,12.41-.075V0Zm-1.05-.883a1.094,1.094,0,0,0,.519-.125.823.823,0,0,0,.352-.336v-.817h-.475q-.954,0-1.015.659l0,.075a.508.508,0,0,0,.167.391A.649.649,0,0,0,10.077-.883Zm5.792-2.681a3.45,3.45,0,0,0-.457-.035.93.93,0,0,0-.945.488V0H13.2V-4.755h1.2l.035.567a1.177,1.177,0,0,1,1.059-.655,1.331,1.331,0,0,1,.4.057Zm2.338,1.657-.457.457V0h-1.27V-6.75h1.27v3.74L18-3.327l1.217-1.428h1.525L19.02-2.773,20.887,0H19.428Zm5.181,2a2.334,2.334,0,0,1-1.7-.642,2.281,2.281,0,0,1-.657-1.709v-.123A2.872,2.872,0,0,1,21.3-3.667a2.032,2.032,0,0,1,.784-.87,2.2,2.2,0,0,1,1.158-.305,1.973,1.973,0,0,1,1.536.615,2.5,2.5,0,0,1,.56,1.745v.519H22.315a1.18,1.18,0,0,0,.371.747,1.123,1.123,0,0,0,.784.281,1.371,1.371,0,0,0,1.147-.532l.624.7a1.907,1.907,0,0,1-.773.631A2.538,2.538,0,0,1,23.388.088Zm-.145-3.907a.794.794,0,0,0-.613.256,1.326,1.326,0,0,0-.3.733H24.1v-.1a.946.946,0,0,0-.229-.655A.819.819,0,0,0,23.243-3.819Zm4.342-2.1v1.169H28.4v.932h-.813V-1.45a.567.567,0,0,0,.1.378.508.508,0,0,0,.387.114,2.025,2.025,0,0,0,.374-.031v.962a2.615,2.615,0,0,1-.769.114,1.213,1.213,0,0,1-1.362-1.349V-3.823H25.62v-.932h.694V-5.924ZM30.445,0H29.171V-4.755h1.274ZM29.1-5.985a.625.625,0,0,1,.191-.47.718.718,0,0,1,.521-.185.72.72,0,0,1,.519.185.622.622,0,0,1,.193.47.624.624,0,0,1-.2.475.722.722,0,0,1-.516.185.722.722,0,0,1-.516-.185A.624.624,0,0,1,29.1-5.985Zm3.564,1.23.04.549a1.66,1.66,0,0,1,1.367-.637,1.38,1.38,0,0,1,1.125.444,2.071,2.071,0,0,1,.378,1.327V0H34.3V-3.048a.827.827,0,0,0-.176-.588.786.786,0,0,0-.584-.183.873.873,0,0,0-.8.458V0h-1.27V-4.755Zm3.687,2.342a2.787,2.787,0,0,1,.521-1.762,1.687,1.687,0,0,1,1.4-.668,1.48,1.48,0,0,1,1.217.536l.053-.448h1.151v4.6A2.032,2.032,0,0,1,40.41.927a1.82,1.82,0,0,1-.8.7,2.8,2.8,0,0,1-1.2.242,2.607,2.607,0,0,1-1.02-.209,1.809,1.809,0,0,1-.751-.538L37.2.352a1.488,1.488,0,0,0,1.151.532,1.089,1.089,0,0,0,.787-.27,1.014,1.014,0,0,0,.281-.767V-.409a1.469,1.469,0,0,1-1.156.5,1.683,1.683,0,0,1-1.386-.67,2.786,2.786,0,0,1-.53-1.778Zm1.27.09A1.744,1.744,0,0,0,37.876-1.3a.824.824,0,0,0,.712.369.881.881,0,0,0,.831-.437V-3.382a.879.879,0,0,0-.822-.437.829.829,0,0,0-.719.375A1.967,1.967,0,0,0,37.617-2.322Z" transform="translate(109.775 178.431)" fill="#12263f"/>
      <path id="Trazado_206323" data-name="Trazado 206323" d="M2.294-6.4,3.938-1.758,5.572-6.4H7.3V0H5.981V-1.749l.132-3.019L4.386,0H3.48L1.758-4.764,1.89-1.749V0H.571V-6.4ZM11.127,0A1.41,1.41,0,0,1,11-.426,1.537,1.537,0,0,1,9.8.088a1.688,1.688,0,0,1-1.158-.4,1.3,1.3,0,0,1-.459-1.02,1.344,1.344,0,0,1,.56-1.16A2.765,2.765,0,0,1,10.362-2.9h.584v-.272a.784.784,0,0,0-.169-.527.666.666,0,0,0-.534-.2.757.757,0,0,0-.5.154.523.523,0,0,0-.182.422H8.288a1.276,1.276,0,0,1,.255-.765,1.685,1.685,0,0,1,.721-.552,2.627,2.627,0,0,1,1.046-.2,2.075,2.075,0,0,1,1.4.442,1.545,1.545,0,0,1,.516,1.241V-1.1A2.273,2.273,0,0,0,12.41-.075V0Zm-1.05-.883a1.094,1.094,0,0,0,.519-.125.823.823,0,0,0,.352-.336v-.817h-.475q-.954,0-1.015.659l0,.075a.508.508,0,0,0,.167.391A.649.649,0,0,0,10.077-.883Zm5.792-2.681a3.45,3.45,0,0,0-.457-.035.93.93,0,0,0-.945.488V0H13.2V-4.755h1.2l.035.567a1.177,1.177,0,0,1,1.059-.655,1.331,1.331,0,0,1,.4.057Zm2.338,1.657-.457.457V0h-1.27V-6.75h1.27v3.74L18-3.327l1.217-1.428h1.525L19.02-2.773,20.887,0H19.428Zm5.181,2a2.334,2.334,0,0,1-1.7-.642,2.281,2.281,0,0,1-.657-1.709v-.123A2.872,2.872,0,0,1,21.3-3.667a2.032,2.032,0,0,1,.784-.87,2.2,2.2,0,0,1,1.158-.305,1.973,1.973,0,0,1,1.536.615,2.5,2.5,0,0,1,.56,1.745v.519H22.315a1.18,1.18,0,0,0,.371.747,1.123,1.123,0,0,0,.784.281,1.371,1.371,0,0,0,1.147-.532l.624.7a1.907,1.907,0,0,1-.773.631A2.538,2.538,0,0,1,23.388.088Zm-.145-3.907a.794.794,0,0,0-.613.256,1.326,1.326,0,0,0-.3.733H24.1v-.1a.946.946,0,0,0-.229-.655A.819.819,0,0,0,23.243-3.819Zm4.342-2.1v1.169H28.4v.932h-.813V-1.45a.567.567,0,0,0,.1.378.508.508,0,0,0,.387.114,2.025,2.025,0,0,0,.374-.031v.962a2.615,2.615,0,0,1-.769.114,1.213,1.213,0,0,1-1.362-1.349V-3.823H25.62v-.932h.694V-5.924ZM30.445,0H29.171V-4.755h1.274ZM29.1-5.985a.625.625,0,0,1,.191-.47.718.718,0,0,1,.521-.185.72.72,0,0,1,.519.185.622.622,0,0,1,.193.47.624.624,0,0,1-.2.475.722.722,0,0,1-.516.185.722.722,0,0,1-.516-.185A.624.624,0,0,1,29.1-5.985Zm3.564,1.23.04.549a1.66,1.66,0,0,1,1.367-.637,1.38,1.38,0,0,1,1.125.444,2.071,2.071,0,0,1,.378,1.327V0H34.3V-3.048a.827.827,0,0,0-.176-.588.786.786,0,0,0-.584-.183.873.873,0,0,0-.8.458V0h-1.27V-4.755Zm3.687,2.342a2.787,2.787,0,0,1,.521-1.762,1.687,1.687,0,0,1,1.4-.668,1.48,1.48,0,0,1,1.217.536l.053-.448h1.151v4.6A2.032,2.032,0,0,1,40.41.927a1.82,1.82,0,0,1-.8.7,2.8,2.8,0,0,1-1.2.242,2.607,2.607,0,0,1-1.02-.209,1.809,1.809,0,0,1-.751-.538L37.2.352a1.488,1.488,0,0,0,1.151.532,1.089,1.089,0,0,0,.787-.27,1.014,1.014,0,0,0,.281-.767V-.409a1.469,1.469,0,0,1-1.156.5,1.683,1.683,0,0,1-1.386-.67,2.786,2.786,0,0,1-.53-1.778Zm1.27.09A1.744,1.744,0,0,0,37.876-1.3a.824.824,0,0,0,.712.369.881.881,0,0,0,.831-.437V-3.382a.879.879,0,0,0-.822-.437.829.829,0,0,0-.719.375A1.967,1.967,0,0,0,37.617-2.322Z" transform="translate(197.907 178.431)" fill="#12263f"/>
      <path id="Trazado_206312" data-name="Trazado 206312" d="M20,8.673H16.059v2.68H20.68V13H14.008V3.047h6.658V4.708H16.059V7.08H20Zm5.763,2.283a.637.637,0,0,0-.359-.571,4.077,4.077,0,0,0-1.152-.373Q21.61,9.459,21.61,7.771a2.032,2.032,0,0,1,.817-1.644,3.3,3.3,0,0,1,2.136-.66,3.547,3.547,0,0,1,2.252.663,2.09,2.09,0,0,1,.844,1.723H25.684a.956.956,0,0,0-.273-.7,1.157,1.157,0,0,0-.854-.277,1.182,1.182,0,0,0-.772.226.712.712,0,0,0-.273.574.609.609,0,0,0,.311.53,3.2,3.2,0,0,0,1.049.349,8.571,8.571,0,0,1,1.244.332,2.044,2.044,0,0,1,1.565,1.989,1.929,1.929,0,0,1-.868,1.637,3.745,3.745,0,0,1-2.242.625,3.912,3.912,0,0,1-1.651-.332,2.77,2.77,0,0,1-1.131-.909,2.113,2.113,0,0,1-.41-1.248H23.25a1.031,1.031,0,0,0,.39.807,1.546,1.546,0,0,0,.971.28,1.43,1.43,0,0,0,.858-.215A.67.67,0,0,0,25.759,10.956Zm5.558-7.171V5.6h1.265V7.053H31.317v3.691a.881.881,0,0,0,.157.588.79.79,0,0,0,.6.178,3.15,3.15,0,0,0,.581-.048v1.5a4.067,4.067,0,0,1-1.2.178,1.886,1.886,0,0,1-2.119-2.1V7.053h-1.08V5.6h1.08V3.785Zm6.521,3.671a5.367,5.367,0,0,0-.711-.055,1.447,1.447,0,0,0-1.47.759V13H33.682V5.6h1.866l.055.882A1.831,1.831,0,0,1,37.25,5.467a2.07,2.07,0,0,1,.615.089Zm5.38,4.792a2.477,2.477,0,0,1-2.023.889,2.337,2.337,0,0,1-1.815-.684,2.918,2.918,0,0,1-.639-2V5.6h1.976v4.784q0,1.157,1.053,1.157a1.426,1.426,0,0,0,1.381-.7V5.6h1.982V13H43.273Zm6.48-.7a1.3,1.3,0,0,0,.889-.3,1.054,1.054,0,0,0,.355-.8H52.8a2.534,2.534,0,0,1-.41,1.377,2.706,2.706,0,0,1-1.1.971,3.455,3.455,0,0,1-1.548.345,3.211,3.211,0,0,1-2.5-1.008,3.99,3.99,0,0,1-.916-2.786v-.13a3.944,3.944,0,0,1,.909-2.728,3.174,3.174,0,0,1,2.5-1.019,3.111,3.111,0,0,1,2.225.79,2.8,2.8,0,0,1,.851,2.1H50.943a1.358,1.358,0,0,0-.355-.938,1.321,1.321,0,0,0-1.945.142A2.916,2.916,0,0,0,48.29,9.2V9.4a2.953,2.953,0,0,0,.349,1.643A1.2,1.2,0,0,0,49.7,11.544Zm6.59-7.759V5.6h1.265V7.053H56.288v3.691a.881.881,0,0,0,.157.588.79.79,0,0,0,.6.178,3.15,3.15,0,0,0,.581-.048v1.5a4.067,4.067,0,0,1-1.2.178,1.886,1.886,0,0,1-2.119-2.1V7.053h-1.08V5.6h1.08V3.785Zm6.795,8.463a2.477,2.477,0,0,1-2.023.889,2.337,2.337,0,0,1-1.815-.684,2.918,2.918,0,0,1-.639-2V5.6h1.976v4.784q0,1.157,1.053,1.157a1.426,1.426,0,0,0,1.381-.7V5.6H65V13H63.138Zm7.561-4.792a5.367,5.367,0,0,0-.711-.055,1.447,1.447,0,0,0-1.47.759V13H66.488V5.6h1.866l.055.882a1.831,1.831,0,0,1,1.647-1.019,2.07,2.07,0,0,1,.615.089ZM75.675,13a2.194,2.194,0,0,1-.2-.663,2.39,2.39,0,0,1-1.866.8,2.626,2.626,0,0,1-1.8-.629,2.023,2.023,0,0,1-.714-1.586,2.09,2.09,0,0,1,.872-1.8,4.3,4.3,0,0,1,2.519-.636h.909V8.058a1.219,1.219,0,0,0-.263-.82A1.035,1.035,0,0,0,74.3,6.93a1.177,1.177,0,0,0-.783.239.813.813,0,0,0-.284.656H71.259a1.985,1.985,0,0,1,.4-1.189,2.621,2.621,0,0,1,1.121-.858A4.086,4.086,0,0,1,74.4,5.467a3.228,3.228,0,0,1,2.17.687,2.4,2.4,0,0,1,.8,1.931v3.206a3.536,3.536,0,0,0,.294,1.593V13Zm-1.634-1.374a1.7,1.7,0,0,0,.807-.195,1.28,1.28,0,0,0,.547-.523V9.637h-.738q-1.483,0-1.579,1.025l-.007.116a.791.791,0,0,0,.26.608A1.009,1.009,0,0,0,74.041,11.626Zm8.032-2.379a4.457,4.457,0,0,1,.776-2.755,2.517,2.517,0,0,1,2.123-1.025,2.265,2.265,0,0,1,1.784.807V2.5h1.982V13H86.954l-.1-.786a2.325,2.325,0,0,1-1.9.923,2.511,2.511,0,0,1-2.1-1.029A4.6,4.6,0,0,1,82.074,9.247Zm1.976.141a2.936,2.936,0,0,0,.362,1.6,1.179,1.179,0,0,0,1.053.556,1.321,1.321,0,0,0,1.292-.776V7.836a1.3,1.3,0,0,0-1.278-.776Q84.049,7.06,84.049,9.388ZM92.355,13H90.372V5.6h1.982Zm-2.1-9.311a.973.973,0,0,1,.3-.731,1.281,1.281,0,0,1,1.617,0,.967.967,0,0,1,.3.731.97.97,0,0,1-.3.738,1.267,1.267,0,0,1-1.606,0A.97.97,0,0,1,90.256,3.689Zm6.494,6.9L98.124,5.6h2.064l-2.5,7.4H95.807l-2.5-7.4h2.064ZM103.142,13H101.16V5.6h1.982Zm-2.1-9.311a.973.973,0,0,1,.3-.731,1.281,1.281,0,0,1,1.617,0,.967.967,0,0,1,.3.731.97.97,0,0,1-.3.738,1.267,1.267,0,0,1-1.606,0A.97.97,0,0,1,101.043,3.689Zm7.731,7.267a.637.637,0,0,0-.359-.571,4.077,4.077,0,0,0-1.152-.373q-2.639-.554-2.639-2.242a2.032,2.032,0,0,1,.817-1.644,3.3,3.3,0,0,1,2.136-.66,3.547,3.547,0,0,1,2.252.663,2.09,2.09,0,0,1,.844,1.723H108.7a.956.956,0,0,0-.273-.7,1.157,1.157,0,0,0-.854-.277,1.182,1.182,0,0,0-.772.226.712.712,0,0,0-.273.574.609.609,0,0,0,.311.53,3.2,3.2,0,0,0,1.049.349,8.571,8.571,0,0,1,1.244.332,2.044,2.044,0,0,1,1.565,1.989,1.929,1.929,0,0,1-.868,1.637,3.745,3.745,0,0,1-2.242.625,3.912,3.912,0,0,1-1.651-.332A2.77,2.77,0,0,1,104.8,11.9a2.113,2.113,0,0,1-.41-1.248h1.873a1.031,1.031,0,0,0,.39.807,1.546,1.546,0,0,0,.971.28,1.43,1.43,0,0,0,.858-.215A.67.67,0,0,0,108.775,10.956ZM114.052,13H112.07V5.6h1.982Zm-2.1-9.311a.973.973,0,0,1,.3-.731,1.281,1.281,0,0,1,1.617,0,.967.967,0,0,1,.3.731.97.97,0,0,1-.3.738,1.267,1.267,0,0,1-1.606,0A.97.97,0,0,1,111.953,3.689Zm3.418,5.544a4.387,4.387,0,0,1,.424-1.962,3.1,3.1,0,0,1,1.22-1.333,3.56,3.56,0,0,1,1.849-.472,3.368,3.368,0,0,1,2.444.916,3.676,3.676,0,0,1,1.056,2.488l.014.506a3.866,3.866,0,0,1-.95,2.731,3.683,3.683,0,0,1-5.1,0,3.934,3.934,0,0,1-.954-2.789Zm1.976.14a2.765,2.765,0,0,0,.4,1.612,1.424,1.424,0,0,0,2.256.007,3.025,3.025,0,0,0,.4-1.763,2.737,2.737,0,0,0-.4-1.6,1.311,1.311,0,0,0-1.135-.568,1.29,1.29,0,0,0-1.121.565A3.076,3.076,0,0,0,117.347,9.374Zm8.066-3.77.062.854a2.582,2.582,0,0,1,2.126-.991,2.146,2.146,0,0,1,1.75.69,3.221,3.221,0,0,1,.588,2.064V13h-1.976V8.259a1.287,1.287,0,0,0-.273-.915,1.222,1.222,0,0,0-.909-.284,1.359,1.359,0,0,0-1.251.713V13h-1.976V5.6ZM135.722,13a2.194,2.194,0,0,1-.2-.663,2.39,2.39,0,0,1-1.866.8,2.626,2.626,0,0,1-1.8-.629,2.023,2.023,0,0,1-.714-1.586,2.09,2.09,0,0,1,.872-1.8,4.3,4.3,0,0,1,2.519-.636h.909V8.058a1.219,1.219,0,0,0-.263-.82,1.035,1.035,0,0,0-.831-.308,1.177,1.177,0,0,0-.783.239.813.813,0,0,0-.284.656h-1.976a1.984,1.984,0,0,1,.4-1.189,2.621,2.621,0,0,1,1.121-.858,4.086,4.086,0,0,1,1.627-.311,3.228,3.228,0,0,1,2.17.687,2.4,2.4,0,0,1,.8,1.931v3.206a3.536,3.536,0,0,0,.294,1.593V13Zm-1.634-1.374a1.7,1.7,0,0,0,.807-.195,1.28,1.28,0,0,0,.547-.523V9.637H134.7q-1.483,0-1.579,1.025l-.007.116a.791.791,0,0,0,.26.608A1.009,1.009,0,0,0,134.088,11.626ZM141.027,13h-1.982V2.5h1.982ZM152.8,9.37a4.436,4.436,0,0,1-.776,2.738,2.488,2.488,0,0,1-2.1,1.029,2.3,2.3,0,0,1-1.812-.779v3.486H146.14V5.6h1.832l.068.725a2.322,2.322,0,0,1,1.873-.861,2.5,2.5,0,0,1,2.126,1.012,4.556,4.556,0,0,1,.759,2.789Zm-1.976-.151a2.927,2.927,0,0,0-.366-1.6,1.19,1.19,0,0,0-1.063-.562,1.293,1.293,0,0,0-1.278.713V10.81a1.315,1.315,0,0,0,1.292.734Q150.823,11.544,150.823,9.22Zm2.892.014a4.387,4.387,0,0,1,.424-1.962,3.1,3.1,0,0,1,1.22-1.333,3.56,3.56,0,0,1,1.849-.472,3.368,3.368,0,0,1,2.444.916,3.676,3.676,0,0,1,1.056,2.488l.014.506a3.866,3.866,0,0,1-.95,2.731,3.683,3.683,0,0,1-5.1,0,3.934,3.934,0,0,1-.954-2.789Zm1.976.14a2.765,2.765,0,0,0,.4,1.612,1.424,1.424,0,0,0,2.256.007,3.025,3.025,0,0,0,.4-1.763,2.737,2.737,0,0,0-.4-1.6,1.311,1.311,0,0,0-1.135-.568,1.29,1.29,0,0,0-1.121.565A3.076,3.076,0,0,0,155.69,9.374Zm10.4-1.918a5.367,5.367,0,0,0-.711-.055,1.447,1.447,0,0,0-1.47.759V13h-1.976V5.6H163.8l.055.882a1.831,1.831,0,0,1,1.647-1.019,2.07,2.07,0,0,1,.615.089ZM69.058,23.37a4.436,4.436,0,0,1-.776,2.738,2.488,2.488,0,0,1-2.1,1.029,2.3,2.3,0,0,1-1.812-.779v3.486H62.4V19.6h1.832l.068.725a2.322,2.322,0,0,1,1.873-.861A2.5,2.5,0,0,1,68.3,20.479a4.556,4.556,0,0,1,.759,2.789Zm-1.976-.151a2.927,2.927,0,0,0-.366-1.6,1.19,1.19,0,0,0-1.063-.562,1.293,1.293,0,0,0-1.278.713V24.81a1.315,1.315,0,0,0,1.292.734Q67.082,25.544,67.082,23.22Zm7.355-1.763a5.367,5.367,0,0,0-.711-.055,1.447,1.447,0,0,0-1.47.759V27H70.282V19.6h1.866l.055.882a1.831,1.831,0,0,1,1.647-1.019,2.07,2.07,0,0,1,.615.089Zm.4,1.777a4.387,4.387,0,0,1,.424-1.962,3.1,3.1,0,0,1,1.22-1.333,3.56,3.56,0,0,1,1.849-.472,3.368,3.368,0,0,1,2.444.916,3.676,3.676,0,0,1,1.056,2.488l.014.506a3.866,3.866,0,0,1-.95,2.731,3.683,3.683,0,0,1-5.1,0,3.934,3.934,0,0,1-.954-2.789Zm1.976.14a2.765,2.765,0,0,0,.4,1.612,1.424,1.424,0,0,0,2.256.007,3.025,3.025,0,0,0,.4-1.763,2.737,2.737,0,0,0-.4-1.6,1.311,1.311,0,0,0-1.135-.568,1.29,1.29,0,0,0-1.121.565A3.076,3.076,0,0,0,76.81,23.374Zm5.94-.127a4.457,4.457,0,0,1,.776-2.755,2.517,2.517,0,0,1,2.123-1.025,2.265,2.265,0,0,1,1.784.807V16.5h1.982V27H87.631l-.1-.786a2.325,2.325,0,0,1-1.9.923,2.511,2.511,0,0,1-2.1-1.029A4.6,4.6,0,0,1,82.75,23.247Zm1.976.141a2.936,2.936,0,0,0,.362,1.6,1.179,1.179,0,0,0,1.053.556,1.321,1.321,0,0,0,1.292-.776V21.836a1.3,1.3,0,0,0-1.278-.776Q84.726,21.06,84.726,23.388Zm10.65,2.86a2.477,2.477,0,0,1-2.023.889,2.337,2.337,0,0,1-1.815-.684,2.918,2.918,0,0,1-.639-2V19.6h1.976v4.784q0,1.157,1.053,1.157a1.426,1.426,0,0,0,1.381-.7V19.6H97.29V27H95.431Zm6.48-.7a1.3,1.3,0,0,0,.889-.3,1.054,1.054,0,0,0,.355-.8h1.853a2.534,2.534,0,0,1-.41,1.377,2.706,2.706,0,0,1-1.1.971,3.455,3.455,0,0,1-1.548.345,3.211,3.211,0,0,1-2.5-1.008,3.99,3.99,0,0,1-.916-2.786v-.13a3.944,3.944,0,0,1,.909-2.728,3.174,3.174,0,0,1,2.5-1.019,3.111,3.111,0,0,1,2.225.79,2.8,2.8,0,0,1,.851,2.1H103.1a1.358,1.358,0,0,0-.355-.938,1.321,1.321,0,0,0-1.945.142,2.916,2.916,0,0,0-.352,1.633V23.4a2.953,2.953,0,0,0,.349,1.643A1.2,1.2,0,0,0,101.857,25.544Zm6.59-7.759V19.6h1.265v1.449h-1.265v3.691a.881.881,0,0,0,.157.588.79.79,0,0,0,.6.178,3.151,3.151,0,0,0,.581-.048v1.5a4.067,4.067,0,0,1-1.2.178,1.886,1.886,0,0,1-2.119-2.1V21.053h-1.08V19.6h1.08V17.785Zm1.853,5.448a4.387,4.387,0,0,1,.424-1.962,3.1,3.1,0,0,1,1.22-1.333,3.56,3.56,0,0,1,1.849-.472,3.368,3.368,0,0,1,2.444.916,3.676,3.676,0,0,1,1.056,2.488l.014.506a3.866,3.866,0,0,1-.95,2.731,3.683,3.683,0,0,1-5.1,0,3.934,3.934,0,0,1-.954-2.789Zm1.976.14a2.765,2.765,0,0,0,.4,1.612,1.424,1.424,0,0,0,2.256.007,3.025,3.025,0,0,0,.4-1.763,2.737,2.737,0,0,0-.4-1.6,1.311,1.311,0,0,0-1.135-.568,1.29,1.29,0,0,0-1.121.565A3.076,3.076,0,0,0,112.275,23.374Z" transform="translate(30.951 0)" fill="#12263f"/>
    </g>
  </g>
</svg>
