<svg xmlns="http://www.w3.org/2000/svg" width="95.898" height="99.857" viewBox="0 0 95.898 99.857">
  <g id="identificar" transform="translate(0)">
    <g id="Grupo_150303" data-name="Grupo 150303" transform="translate(48.286 50.28)">
      <path id="Trazado_203773" data-name="Trazado 203773" d="M277.065,266.716l-10.7,11.145a1.84,1.84,0,0,1-2.676,0l-5.887-6.13L271.179,257.8l5.887,6.13A2.028,2.028,0,0,1,277.065,266.716Z" transform="translate(-257.8 -257.8)" fill="#3d46c2"/>
    </g>
    <g id="Grupo_150304" data-name="Grupo 150304" transform="translate(60.576 63.077)">
      <path id="Trazado_203774" data-name="Trazado 203774" d="M357.331,344.8v13.931H343.952l-19.985-20.81a2.028,2.028,0,0,1,0-2.786l10.7-11.145a1.839,1.839,0,0,1,2.676,0Z" transform="translate(-323.413 -323.413)" fill="#3d46c2"/>
    </g>
    <g id="Grupo_150306" data-name="Grupo 150306" transform="translate(57.906 60.311)">
      <path id="Trazado_203776" data-name="Trazado 203776" d="M0,0,12.359-.25l-.125,6.18L-.125,6.18Z" transform="translate(0 8.915) rotate(-45)" fill="#5a5a5a"/>
    </g>
    <g id="Grupo_150313" data-name="Grupo 150313" transform="translate(1.405 1.463)">
      <g id="Grupo_150307" data-name="Grupo 150307">
        <ellipse id="Elipse_5655" data-name="Elipse 5655" cx="32.165" cy="33.493" rx="32.165" ry="33.493" fill="#3d46c2"/>
      </g>
      <g id="Grupo_150309" data-name="Grupo 150309" transform="translate(6.433 6.699)">
        <ellipse id="Elipse_5656" data-name="Elipse 5656" cx="25.732" cy="26.794" rx="25.732" ry="26.794" fill="#f2fbff"/>
      </g>
      <g id="Grupo_150312" data-name="Grupo 150312" transform="translate(14.808 14.579)">
        <g id="Grupo_150310" data-name="Grupo 150310" transform="translate(0 0)">
          <path id="Trazado_203778" data-name="Trazado 203778" d="M87.014,108.007l14.325-24.254a2.966,2.966,0,0,1,5.157,0l14.325,24.254a3.156,3.156,0,0,1-2.579,4.8H89.592A3.157,3.157,0,0,1,87.014,108.007Z" transform="translate(-86.56 -82.252)" fill="#dce736"/>
        </g>
      </g>
    </g>
    <g id="Grupo_150314" data-name="Grupo 150314" transform="translate(0 0)">
      <path id="Trazado_203780" data-name="Trazado 203780" d="M37.235,71.686A1.486,1.486,0,0,0,36.49,73.6a27.118,27.118,0,0,0,25,17.259c14.963,0,27.136-12.676,27.136-28.257S76.449,34.35,61.486,34.35,34.35,47.026,34.35,62.607a29.589,29.589,0,0,0,.283,4.076,1.415,1.415,0,0,0,1.592,1.237,1.455,1.455,0,0,0,1.188-1.658,26.546,26.546,0,0,1-.253-3.655c0-13.968,10.913-25.331,24.327-25.331S85.813,48.639,85.813,62.607,74.9,87.938,61.486,87.938a24.313,24.313,0,0,1-22.41-15.476,1.385,1.385,0,0,0-1.842-.776Z" transform="translate(-27.916 -27.651)"/>
      <path id="Trazado_203781" data-name="Trazado 203781" d="M83.481,108.236H112.13A4.354,4.354,0,0,0,116,105.872a4.722,4.722,0,0,0-.093-4.67L101.581,76.949a4.342,4.342,0,0,0-7.551,0L79.706,101.2a4.722,4.722,0,0,0-.093,4.67A4.354,4.354,0,0,0,83.481,108.236Zm-1.382-5.5L96.423,78.482a1.589,1.589,0,0,1,2.764,0l14.325,24.254a1.715,1.715,0,0,1,.034,1.709,1.588,1.588,0,0,1-1.416.865H83.481a1.588,1.588,0,0,1-1.416-.865A1.716,1.716,0,0,1,82.1,102.736Z" transform="translate(-64.236 -60.173)"/>
      <path id="Trazado_203782" data-name="Trazado 203782" d="M173.07,201.721a1.479,1.479,0,1,0-1.419-1.478A1.449,1.449,0,0,0,173.07,201.721Z" transform="translate(-139.501 -160)"/>
      <path id="Trazado_203783" data-name="Trazado 203783" d="M173.245,131.915a1.435,1.435,0,0,0,1.4-1.463v-9.564a1.406,1.406,0,1,0-2.81,0v9.564A1.434,1.434,0,0,0,173.245,131.915Z" transform="translate(-139.654 -96.134)"/>
      <path id="Trazado_203784" data-name="Trazado 203784" d="M445.946,373.056l-12.319-12.827a1.366,1.366,0,0,0-1.987,0,1.506,1.506,0,0,0,0,2.069l12.319,12.827a1.366,1.366,0,0,0,1.987,0,1.506,1.506,0,0,0,0-2.069Z" transform="translate(-350.459 -289.627)"/>
      <path id="Trazado_203785" data-name="Trazado 203785" d="M62.123,76.55a.523.523,0,0,1,0-.716l10.7-11.146a.474.474,0,0,1,.688,0l3.032,3.158a1.366,1.366,0,0,0,1.987,0,1.506,1.506,0,0,0,0-2.069L75.5,62.619a3.205,3.205,0,0,0-4.661,0l-.078.081-2.295-2.39.078-.081a3.538,3.538,0,0,0,0-4.854l-4.836-5.036a36.033,36.033,0,0,0-7.32-41.021A1.366,1.366,0,0,0,54.4,9.4a1.506,1.506,0,0,0,.075,2.067,32.76,32.76,0,0,1,9.852,23.492c0,17.662-13.8,32.031-30.76,32.031S2.81,52.618,2.81,34.956,16.609,2.926,33.57,2.926A29.789,29.789,0,0,1,49.48,7.537a1.374,1.374,0,0,0,1.929-.493,1.5,1.5,0,0,0-.474-2.009A32.517,32.517,0,0,0,33.57,0C15.059,0,0,15.681,0,34.956S15.059,69.912,33.57,69.912a32.283,32.283,0,0,0,14.773-3.573l4.836,5.036a3.205,3.205,0,0,0,4.661,0l.078-.081,2.3,2.39-.077.081a3.535,3.535,0,0,0,0,4.854l19.985,20.81a1.366,1.366,0,0,0,1.987,0,1.506,1.506,0,0,0,0-2.069Zm-6.612-7.1a.474.474,0,0,1-.344-.148l-4.255-4.43A34.561,34.561,0,0,0,62.3,53.014l4.255,4.43a.522.522,0,0,1,0,.717l-10.7,11.146A.474.474,0,0,1,55.511,69.455Zm4.395-.229,6.576-6.847,2.3,2.39L62.2,71.616Z" transform="translate(0 0)"/>
    </g>
  </g>
</svg>
