<svg xmlns="http://www.w3.org/2000/svg" width="610" height="400" viewBox="0 0 610 400">
  <g id="Grupo_150362" data-name="Grupo 150362" transform="translate(-729 -1055.22)">
    <rect id="Rectángulo_41836" data-name="Rectángulo 41836" width="610" height="400" transform="translate(729 1055.22)" fill="#f3f9ff"/>
    <g id="Grupo_150361" data-name="Grupo 150361" transform="translate(-10694.241 6847.422)">
      <rect id="Rectángulo_40621" data-name="Rectángulo 40621" width="57.963" height="38.54" rx="4.588" transform="translate(11528.285 -5474.508)" fill="#d1d5fc" stroke="#3e4bbf" stroke-width="2"/>
      <rect id="Rectángulo_40621-2" data-name="Rectángulo 40621" width="57.963" height="38.54" rx="4.588" transform="translate(11745.78 -5474.508)" fill="#d1d5fc" stroke="#3e4bbf" stroke-width="2"/>
      <rect id="Rectángulo_40621-3" data-name="Rectángulo 40621" width="57.963" height="38.54" rx="4.588" transform="translate(11745.78 -5538.478)" fill="#d1d5fc" stroke="#3e4bbf" stroke-width="2"/>
      <rect id="Rectángulo_40621-4" data-name="Rectángulo 40621" width="57.963" height="38.54" rx="4.588" transform="translate(11670.845 -5601.533)" fill="#d1d5fc" stroke="#3e4bbf" stroke-width="2"/>
      <rect id="Rectángulo_40621-5" data-name="Rectángulo 40621" width="57.963" height="38.54" rx="4.588" transform="translate(11573.063 -5601.533)" fill="#d1d5fc" stroke="#3e4bbf" stroke-width="2"/>
      <rect id="Rectángulo_40621-6" data-name="Rectángulo 40621" width="57.963" height="38.54" rx="4.588" transform="translate(11752.177 -5628.948)" fill="#d1d5fc" stroke="#3e4bbf" stroke-width="2"/>
      <rect id="Rectángulo_40621-7" data-name="Rectángulo 40621" width="57.963" height="38.54" rx="4.588" transform="translate(11731.158 -5692.917)" fill="#d1d5fc" stroke="#3e4bbf" stroke-width="2"/>
      <rect id="Rectángulo_40621-8" data-name="Rectángulo 40621" width="57.963" height="38.54" rx="4.588" transform="translate(11641.863 -5692.917)" fill="#d1d5fc" stroke="#3e4bbf" stroke-width="2"/>
      <rect id="Rectángulo_40621-9" data-name="Rectángulo 40621" width="57.963" height="38.54" rx="4.588" transform="translate(11552.568 -5692.917)" fill="#d1d5fc" stroke="#3e4bbf" stroke-width="2"/>
      <rect id="Rectángulo_40621-10" data-name="Rectángulo 40621" width="57.963" height="38.54" rx="4.588" transform="translate(11842.647 -5628.948)" fill="#d1d5fc" stroke="#3e4bbf" stroke-width="2"/>
      <line id="Línea_511" data-name="Línea 511" x2="155.211" transform="translate(11586.248 -5455.238)" fill="none" stroke="#3e4bbf" stroke-miterlimit="10" stroke-width="1.835"/>
      <line id="Línea_528" data-name="Línea 528" x2="36.411" transform="translate(11631.026 -5582.262)" fill="none" stroke="#3e4bbf" stroke-miterlimit="10" stroke-width="1.835"/>
      <line id="Línea_529" data-name="Línea 529" x2="25.813" transform="translate(11611.469 -5673.646)" fill="none" stroke="#3e4bbf" stroke-miterlimit="10" stroke-width="1.835"/>
      <line id="Línea_533" data-name="Línea 533" y1="18.277" x2="22.846" transform="translate(11529.447 -5650.499)" fill="none" stroke="#3e4bbf" stroke-miterlimit="10" stroke-width="1.835"/>
      <line id="Línea_536" data-name="Línea 536" y1="48.967" x2="36.789" transform="translate(11616.941 -5650.499)" fill="none" stroke="#3e4bbf" stroke-miterlimit="10" stroke-width="1.835"/>
      <line id="Línea_537" data-name="Línea 537" y1="84.607" x2="31.057" transform="translate(11565.1 -5559.114)" fill="none" stroke="#3e4bbf" stroke-miterlimit="10" stroke-width="1.835"/>
      <line id="Línea_534" data-name="Línea 534" x2="42.951" y2="108.748" transform="translate(11506.602 -5587.444)" fill="none" stroke="#3e4bbf" stroke-miterlimit="10" stroke-width="1.835"/>
      <line id="Línea_530" data-name="Línea 530" x2="25.813" transform="translate(11700.242 -5673.646)" fill="none" stroke="#3e4bbf" stroke-miterlimit="10" stroke-width="1.835"/>
      <line id="Línea_538" data-name="Línea 538" x2="50.261" y2="29.243" transform="translate(11788.064 -5656.896)" fill="none" stroke="#3e4bbf" stroke-miterlimit="10" stroke-width="1.835"/>
      <line id="Línea_539" data-name="Línea 539" y1="47.52" x2="48.434" transform="translate(11796.29 -5585.616)" fill="none" stroke="#3e4bbf" stroke-miterlimit="10" stroke-width="1.835"/>
      <line id="Línea_540" data-name="Línea 540" y1="110.575" x2="127.024" transform="translate(11797.204 -5584.702)" fill="none" stroke="#3e4bbf" stroke-miterlimit="10" stroke-width="1.835"/>
      <line id="Línea_535" data-name="Línea 535" y1="5.329" x2="18.134" transform="translate(11728.809 -5597.496)" fill="none" stroke="#3e4bbf" stroke-miterlimit="10" stroke-width="1.835"/>
      <path id="Trazado_203915" data-name="Trazado 203915" d="M0,9.632,28.973,0" transform="translate(11731.136 -5567.736) rotate(59)" fill="none" stroke="#3e4bbf" stroke-width="1.835"/>
      <line id="Línea_531" data-name="Línea 531" x2="25.813" transform="translate(11810.14 -5609.678)" fill="none" stroke="#3e4bbf" stroke-miterlimit="10" stroke-width="1.835"/>
      <line id="Línea_532" data-name="Línea 532" x2="19.962" y2="0.302" transform="translate(11900.61 -5609.678)" fill="none" stroke="#3e4bbf" stroke-miterlimit="10" stroke-width="1.835"/>
      <rect id="Rectángulo_40599" data-name="Rectángulo 40599" width="68.004" height="43.96" rx="6.469" transform="translate(11465.241 -5632.444)" fill="#bae887" stroke="#77b43a" stroke-width="2"/>
      <rect id="Rectángulo_40599-2" data-name="Rectángulo 40599" width="68.004" height="43.96" rx="6.469" transform="translate(11923.979 -5632.444)" fill="#bae887" stroke="#77b43a" stroke-width="2"/>
      <path id="Trazado_158597" data-name="Trazado 158597" d="M845.99,128.226V117.4l5.415,5.415-5.415,5.415Z" transform="translate(10893.71 -5578.05)" fill="#3d46c2"/>
      <path id="Trazado_158597-2" data-name="Trazado 158597" d="M845.99,128.226V117.4l5.415,5.415-5.415,5.415Z" transform="translate(10818.739 -5705.074)" fill="#3d46c2"/>
      <path id="Trazado_158597-3" data-name="Trazado 158597" d="M845.99,128.226V117.4l5.415,5.415-5.415,5.415Z" transform="translate(10790.043 -5796.459)" fill="#3d46c2"/>
      <path id="Trazado_158597-4" data-name="Trazado 158597" d="M0,10.83V0L5.415,5.415,0,10.83Z" transform="matrix(0.819, -0.574, 0.574, 0.819, 11546.97, -5653.382)" fill="#3d46c2"/>
      <path id="Trazado_158597-5" data-name="Trazado 158597" d="M0,10.83V0L5.415,5.415,0,10.83Z" transform="matrix(0.616, -0.788, 0.788, 0.616, 11647.562, -5651.699)" fill="#3d46c2"/>
      <path id="Trazado_158597-6" data-name="Trazado 158597" d="M0,10.83V0L5.415,5.415,0,10.83Z" transform="matrix(0.358, -0.934, 0.934, 0.358, 11589.994, -5558.194)" fill="#3d46c2"/>
      <path id="Trazado_158597-7" data-name="Trazado 158597" d="M0,0V10.83L5.415,5.415,0,0Z" transform="matrix(0.391, 0.921, -0.921, 0.391, 11553.638, -5483.724)" fill="#3d46c2"/>
      <path id="Trazado_158597-8" data-name="Trazado 158597" d="M845.99,128.226V117.4l5.415,5.415-5.415,5.415Z" transform="translate(10878.817 -5796.459)" fill="#3d46c2"/>
      <path id="Trazado_158597-9" data-name="Trazado 158597" d="M0,10.83V0L5.415,5.415,0,10.83Z" transform="translate(11744.303 -5602.675) rotate(-14)" fill="#3d46c2"/>
      <path id="Trazado_158597-10" data-name="Trazado 158597" d="M0,10.83V0L5.415,5.415,0,10.83Z" transform="translate(11749.138 -5547.831) rotate(45)" fill="#3d46c2"/>
      <path id="Trazado_158597-11" data-name="Trazado 158597" d="M845.99,128.226V117.4l5.415,5.415-5.415,5.415Z" transform="translate(10989.628 -5732.489)" fill="#3d46c2"/>
      <path id="Trazado_158597-12" data-name="Trazado 158597" d="M0,10.83V0L5.415,5.415,0,10.83Z" transform="translate(11839.24 -5588.143) rotate(-48)" fill="#3d46c2"/>
      <path id="Trazado_158597-13" data-name="Trazado 158597" d="M0,10.83V0L5.415,5.415,0,10.83Z" transform="translate(11918.144 -5586.384) rotate(-48)" fill="#3d46c2"/>
      <path id="Trazado_158597-14" data-name="Trazado 158597" d="M0,10.83V0L5.415,5.415,0,10.83Z" transform="matrix(0.788, 0.616, -0.616, 0.788, 11840.439, -5632.975)" fill="#3d46c2"/>
      <path id="Trazado_158597-15" data-name="Trazado 158597" d="M845.99,128.226V117.4l5.415,5.415-5.415,5.415Z" transform="translate(11071.875 -5732.489)" fill="#3d46c2"/>
    </g>
    <path id="Trazado_206285" data-name="Trazado 206285" d="M117.749,19V4.781h4.375a6.644,6.644,0,0,1,3.354.845,5.89,5.89,0,0,1,2.31,2.4,7.41,7.41,0,0,1,.83,3.54v.654a7.431,7.431,0,0,1-.815,3.525,5.84,5.84,0,0,1-2.3,2.393,6.694,6.694,0,0,1-3.35.859Zm2.93-11.846v9.492h1.416a3.181,3.181,0,0,0,2.627-1.123,5.075,5.075,0,0,0,.928-3.213v-.752a5.156,5.156,0,0,0-.9-3.286,3.171,3.171,0,0,0-2.627-1.118ZM133.54,19h-2.832V8.434h2.832Zm-3-13.3a1.39,1.39,0,0,1,.425-1.045,1.831,1.831,0,0,1,2.31,0,1.382,1.382,0,0,1,.43,1.045,1.386,1.386,0,0,1-.435,1.055,1.81,1.81,0,0,1-2.295,0A1.386,1.386,0,0,1,130.542,5.7ZM141.987,19a3.134,3.134,0,0,1-.283-.947,3.415,3.415,0,0,1-2.666,1.143,3.752,3.752,0,0,1-2.573-.9,2.889,2.889,0,0,1-1.021-2.266,2.986,2.986,0,0,1,1.245-2.578,6.144,6.144,0,0,1,3.6-.908h1.3v-.605a1.741,1.741,0,0,0-.376-1.172,1.479,1.479,0,0,0-1.187-.439,1.682,1.682,0,0,0-1.118.342,1.161,1.161,0,0,0-.405.938h-2.822a2.835,2.835,0,0,1,.566-1.7,3.744,3.744,0,0,1,1.6-1.226,5.837,5.837,0,0,1,2.324-.444,4.611,4.611,0,0,1,3.1.981,3.433,3.433,0,0,1,1.147,2.759v4.58a5.052,5.052,0,0,0,.42,2.275V19Zm-2.334-1.963a2.431,2.431,0,0,0,1.152-.278,1.828,1.828,0,0,0,.781-.747V14.2h-1.055q-2.119,0-2.256,1.465l-.01.166a1.13,1.13,0,0,0,.371.869A1.441,1.441,0,0,0,139.653,17.037Zm6.523-3.4a6.193,6.193,0,0,1,1.157-3.916,3.75,3.75,0,0,1,3.12-1.484,3.289,3.289,0,0,1,2.705,1.191l.117-1h2.559V18.648a4.516,4.516,0,0,1-.63,2.412,4.045,4.045,0,0,1-1.772,1.563,6.231,6.231,0,0,1-2.676.537,5.794,5.794,0,0,1-2.266-.464,4.021,4.021,0,0,1-1.67-1.2l1.25-1.719a3.306,3.306,0,0,0,2.559,1.182,2.42,2.42,0,0,0,1.748-.6,2.253,2.253,0,0,0,.625-1.7v-.566a3.264,3.264,0,0,1-2.568,1.1,3.74,3.74,0,0,1-3.081-1.489,6.191,6.191,0,0,1-1.177-3.95Zm2.822.2a3.877,3.877,0,0,0,.576,2.261,1.831,1.831,0,0,0,1.582.819A1.958,1.958,0,0,0,153,15.949V11.485a1.954,1.954,0,0,0-1.826-.971,1.843,1.843,0,0,0-1.6.834A4.37,4.37,0,0,0,149,13.839ZM163.94,11.08A7.667,7.667,0,0,0,162.925,11a2.067,2.067,0,0,0-2.1,1.084V19H158V8.434h2.666l.078,1.26A2.615,2.615,0,0,1,163.1,8.238a2.957,2.957,0,0,1,.879.127ZM171.128,19a3.134,3.134,0,0,1-.283-.947,3.415,3.415,0,0,1-2.666,1.143,3.752,3.752,0,0,1-2.573-.9,2.889,2.889,0,0,1-1.021-2.266,2.986,2.986,0,0,1,1.245-2.578,6.144,6.144,0,0,1,3.6-.908h1.3v-.605a1.741,1.741,0,0,0-.376-1.172,1.479,1.479,0,0,0-1.187-.439,1.682,1.682,0,0,0-1.118.342,1.161,1.161,0,0,0-.405.938h-2.822a2.835,2.835,0,0,1,.566-1.7,3.744,3.744,0,0,1,1.6-1.226,5.837,5.837,0,0,1,2.324-.444,4.611,4.611,0,0,1,3.1.981,3.433,3.433,0,0,1,1.147,2.759v4.58a5.052,5.052,0,0,0,.42,2.275V19Zm-2.334-1.963a2.431,2.431,0,0,0,1.152-.278,1.828,1.828,0,0,0,.781-.747V14.2h-1.055q-2.119,0-2.256,1.465l-.01.166a1.13,1.13,0,0,0,.371.869A1.441,1.441,0,0,0,168.794,17.037Zm9.58-8.6.088,1.182A3.713,3.713,0,0,1,181.5,8.238a2.818,2.818,0,0,1,2.8,1.611,3.628,3.628,0,0,1,3.174-1.611,3.152,3.152,0,0,1,2.559,1,4.6,4.6,0,0,1,.84,3.013V19h-2.832V12.246a2.02,2.02,0,0,0-.352-1.316,1.556,1.556,0,0,0-1.24-.416,1.762,1.762,0,0,0-1.758,1.214L184.7,19H181.88V12.256a2,2,0,0,0-.361-1.331,1.571,1.571,0,0,0-1.23-.411,1.828,1.828,0,0,0-1.738,1V19h-2.822V8.434ZM199.165,19a3.134,3.134,0,0,1-.283-.947,3.415,3.415,0,0,1-2.666,1.143,3.752,3.752,0,0,1-2.573-.9,2.889,2.889,0,0,1-1.021-2.266,2.986,2.986,0,0,1,1.245-2.578,6.144,6.144,0,0,1,3.6-.908h1.3v-.605a1.741,1.741,0,0,0-.376-1.172,1.479,1.479,0,0,0-1.187-.439,1.682,1.682,0,0,0-1.118.342,1.161,1.161,0,0,0-.405.938h-2.822a2.835,2.835,0,0,1,.566-1.7,3.744,3.744,0,0,1,1.6-1.226,5.837,5.837,0,0,1,2.324-.444,4.611,4.611,0,0,1,3.1.981,3.433,3.433,0,0,1,1.147,2.759v4.58a5.052,5.052,0,0,0,.42,2.275V19Zm-2.334-1.963a2.431,2.431,0,0,0,1.152-.278,1.828,1.828,0,0,0,.781-.747V14.2H197.71q-2.119,0-2.256,1.465l-.01.166a1.13,1.13,0,0,0,.371.869A1.441,1.441,0,0,0,196.831,17.037Zm11.475-3.4A6.368,6.368,0,0,1,209.414,9.7a3.6,3.6,0,0,1,3.032-1.465A3.236,3.236,0,0,1,215,9.391V4h2.832V19h-2.549l-.137-1.123a3.321,3.321,0,0,1-2.715,1.318,3.587,3.587,0,0,1-2.993-1.47A6.573,6.573,0,0,1,208.306,13.639Zm2.822.2a4.194,4.194,0,0,0,.518,2.286,1.685,1.685,0,0,0,1.5.795A1.888,1.888,0,0,0,215,15.811V11.622a1.861,1.861,0,0,0-1.826-1.109Q211.128,10.514,211.128,13.839Zm13.75,5.356a5.187,5.187,0,0,1-3.784-1.426,5.068,5.068,0,0,1-1.46-3.8V13.7a6.383,6.383,0,0,1,.615-2.847,4.515,4.515,0,0,1,1.743-1.934,4.893,4.893,0,0,1,2.573-.679,4.385,4.385,0,0,1,3.413,1.367,5.555,5.555,0,0,1,1.245,3.877v1.152H222.5a2.622,2.622,0,0,0,.825,1.66,2.5,2.5,0,0,0,1.743.625,3.046,3.046,0,0,0,2.549-1.182L229,17.291a4.237,4.237,0,0,1-1.719,1.4A5.639,5.639,0,0,1,224.878,19.2Zm-.322-8.682a1.764,1.764,0,0,0-1.362.569,2.946,2.946,0,0,0-.669,1.628h3.926v-.226a2.1,2.1,0,0,0-.508-1.457A1.819,1.819,0,0,0,224.556,10.514Zm14.365,3.477V19h-2.93V4.781h5.547a6.418,6.418,0,0,1,2.817.586,4.318,4.318,0,0,1,1.87,1.665,4.643,4.643,0,0,1,.654,2.456,4.083,4.083,0,0,1-1.431,3.3,5.959,5.959,0,0,1-3.96,1.206Zm0-2.373h2.617a2.573,2.573,0,0,0,1.772-.547,1.989,1.989,0,0,0,.61-1.562,2.345,2.345,0,0,0-.615-1.689,2.3,2.3,0,0,0-1.7-.664h-2.686Zm18.525,1.2h-5.625v3.828h6.6V19h-9.531V4.781H258.4V7.154h-6.582v3.389h5.625Zm7.959.977h-2.334V19h-2.93V4.781h5.283A5.972,5.972,0,0,1,269.312,5.9a3.876,3.876,0,0,1,1.367,3.174,4.374,4.374,0,0,1-.63,2.427,4.3,4.3,0,0,1-1.909,1.548l3.076,5.811V19h-3.145Zm-2.334-2.373h2.363a2.42,2.42,0,0,0,1.709-.562,2.007,2.007,0,0,0,.605-1.548,2.148,2.148,0,0,0-.571-1.582,2.374,2.374,0,0,0-1.753-.576h-2.354ZM283.12,7.154h-4.355V19h-2.93V7.154h-4.3V4.781H283.12Z" transform="translate(834 1086.845)" fill="#12263f"/>
  </g>
</svg>
