<svg xmlns="http://www.w3.org/2000/svg" width="120" height="120" viewBox="0 0 120 120">
  <g id="Grupo_150376" data-name="Grupo 150376" transform="translate(-876 -4266.52)">
    <circle id="Elipse_5640" data-name="Elipse 5640" cx="60" cy="60" r="60" transform="translate(876 4266.52)" fill="#fff"/>
    <g id="personas" transform="translate(892.018 4292.353)">
      <path id="Trazado_203976" data-name="Trazado 203976" d="M23.982,188.535A15.991,15.991,0,0,0,8,204.535v4.7a2.291,2.291,0,0,0,2.29,2.292H37.674a2.291,2.291,0,0,0,2.29-2.292v-4.7A15.991,15.991,0,0,0,23.982,188.535Zm0,0" transform="translate(-6.581 -154.689)" fill="#dce736"/>
      <path id="Trazado_203977" data-name="Trazado 203977" d="M31.093,206.361H3.709A3.714,3.714,0,0,1,0,202.65v-4.7a17.4,17.4,0,1,1,34.8,0v4.7A3.713,3.713,0,0,1,31.093,206.361ZM17.4,183.373A14.589,14.589,0,0,0,2.838,197.954v4.7a.873.873,0,0,0,.871.874H31.094a.873.873,0,0,0,.871-.874v-4.7A14.59,14.59,0,0,0,17.4,183.373Zm0,0" transform="translate(0 -148.108)"/>
      <path id="Trazado_203978" data-name="Trazado 203978" d="M66.146,72.039a8.786,8.786,0,1,0-8.785,8.8A8.791,8.791,0,0,0,66.146,72.039Zm0,0" transform="translate(-39.959 -51.618)" fill="#ffd4a2"/>
      <path id="Trazado_203979" data-name="Trazado 203979" d="M50.776,75.675a10.215,10.215,0,1,1,10.2-10.215A10.222,10.222,0,0,1,50.776,75.675Zm0-17.592a7.377,7.377,0,1,0,7.367,7.377A7.381,7.381,0,0,0,50.776,58.084Zm0,0" transform="translate(-33.375 -45.04)"/>
      <path id="Trazado_203980" data-name="Trazado 203980" d="M365.923,72.039a8.786,8.786,0,1,0-8.786,8.8A8.791,8.791,0,0,0,365.923,72.039Zm0,0" transform="translate(-286.569 -51.618)" fill="#ffd4a2"/>
      <path id="Trazado_203981" data-name="Trazado 203981" d="M350.556,75.675a10.215,10.215,0,1,1,10.206-10.215A10.221,10.221,0,0,1,350.556,75.675Zm0-17.592a7.377,7.377,0,1,0,7.368,7.377A7.38,7.38,0,0,0,350.556,58.084Zm0,0" transform="translate(-279.988 -45.04)"/>
      <path id="Trazado_203982" data-name="Trazado 203982" d="M323.759,182.406a15.991,15.991,0,0,0-15.982,16v4.7a2.291,2.291,0,0,0,2.29,2.293h27.384a2.292,2.292,0,0,0,2.29-2.293v-4.7A15.991,15.991,0,0,0,323.759,182.406Zm0,0" transform="translate(-253.191 -149.647)" fill="#f85316"/>
      <path id="Trazado_203983" data-name="Trazado 203983" d="M330.87,200.237H303.486a3.714,3.714,0,0,1-3.709-3.711v-4.7a17.4,17.4,0,1,1,34.8,0v4.7A3.713,3.713,0,0,1,330.87,200.237Zm-13.693-22.989a14.589,14.589,0,0,0-14.562,14.581v4.7a.873.873,0,0,0,.871.874h27.385a.873.873,0,0,0,.871-.874v-4.7A14.591,14.591,0,0,0,317.178,177.248Zm0,0" transform="translate(-246.61 -143.069)"/>
      <path id="Trazado_203984" data-name="Trazado 203984" d="M143.74,162.191a22.491,22.491,0,0,0-22.478,22.5v6.6a3.222,3.222,0,0,0,3.221,3.224H163a3.222,3.222,0,0,0,3.221-3.224v-6.6A22.49,22.49,0,0,0,143.74,162.191Zm0,0" transform="translate(-99.755 -133.017)" fill="#75b62f"/>
      <path id="Trazado_203985" data-name="Trazado 203985" d="M156.416,189.362H117.9a4.646,4.646,0,0,1-4.64-4.643v-6.6a23.9,23.9,0,1,1,47.794,0v6.6A4.646,4.646,0,0,1,156.416,189.362Zm-19.257-32.333A21.1,21.1,0,0,0,116.1,178.115v6.6a1.806,1.806,0,0,0,1.8,1.805h38.514a1.806,1.806,0,0,0,1.8-1.805v-6.6A21.1,21.1,0,0,0,137.159,157.029Zm0,0" transform="translate(-93.174 -126.436)"/>
      <path id="Trazado_203986" data-name="Trazado 203986" d="M202.671,20.206a11.695,11.695,0,1,0-11.7,11.709A11.7,11.7,0,0,0,202.671,20.206Zm0,0" transform="translate(-147.484 -6.581)" fill="#ffd4a2"/>
      <path id="Trazado_203987" data-name="Trazado 203987" d="M184.395,26.752a13.128,13.128,0,1,1,13.114-13.127A13.136,13.136,0,0,1,184.395,26.752Zm0-23.418a10.29,10.29,0,1,0,10.276,10.291A10.3,10.3,0,0,0,184.395,3.334Zm0,0" transform="translate(-140.903)"/>
    </g>
  </g>
</svg>
