<svg xmlns="http://www.w3.org/2000/svg" width="120" height="120" viewBox="0 0 120 120">
  <g id="Grupo_150377" data-name="Grupo 150377" transform="translate(-1148 -4266.52)">
    <circle id="Elipse_5642" data-name="Elipse 5642" cx="60" cy="60" r="60" transform="translate(1148 4266.52)" fill="#fff"/>
    <g id="XMLID_1156_" transform="translate(1170.512 4289.032)">
      <path id="XMLID_1446_" d="M75.531,50H13a3,3,0,0,0-3,3v54.329a3,3,0,0,0,3,3H75.531a3,3,0,0,0,3-3V53A3,3,0,0,0,75.531,50Z" transform="translate(-8.536 -42.678)" fill="#fff"/>
      <path id="XMLID_1445_" d="M24.5,50H13a3,3,0,0,0-3,3v54.329a3,3,0,0,0,3,3H75.531a3,3,0,0,0,3-3V53a3,3,0,0,0-3-3h-11.5" transform="translate(-8.536 -42.678)" fill="#fff"/>
      <path id="XMLID_1410_" d="M75.531,50H13a3,3,0,0,0-3,3v54.329a3,3,0,0,0,3,3H75.531a3,3,0,0,0,3-3V53A3,3,0,0,0,75.531,50Z" transform="translate(-8.536 -42.678)" fill="#fff"/>
      <rect id="XMLID_1498_" width="54.605" height="34.244" transform="translate(8.798 26.382)" fill="#a6abf0"/>
      <rect id="XMLID_3609_" width="10.895" height="11.276" transform="translate(19.388 37.635)" fill="#f85316"/>
      <path id="XMLID_2244_" d="M75.531,50H13a3,3,0,0,0-3,3v8.713H78.533V53A3,3,0,0,0,75.531,50Z" transform="translate(-8.536 -42.678)" fill="#75b62f"/>
      <g id="XMLID_2241_" transform="translate(16.548 1.464)">
        <path id="XMLID_2243_" d="M115.929,21.715h0A2.929,2.929,0,0,1,113,18.786V12.929A2.929,2.929,0,0,1,115.929,10h0a2.929,2.929,0,0,1,2.929,2.929v5.858A2.929,2.929,0,0,1,115.929,21.715Z" transform="translate(-113 -10)" fill="#72d8ff"/>
        <path id="XMLID_2242_" d="M337.929,21.715h0a2.929,2.929,0,0,0,2.929-2.929V12.929A2.929,2.929,0,0,0,337.929,10h0A2.929,2.929,0,0,0,335,12.929v5.858A2.929,2.929,0,0,0,337.929,21.715Z" transform="translate(-302.491 -10)" fill="#72d8ff"/>
      </g>
      <path id="XMLID_1443_" d="M12.494,0A12.494,12.494,0,1,1,0,12.494,12.494,12.494,0,0,1,12.494,0Z" transform="translate(48.594 48.594)" fill="#f85316"/>
      <g id="XMLID_416_">
        <path id="XMLID_419_" d="M71.462,52.035V10.324A4.471,4.471,0,0,0,67,5.858H56.379V4.393a4.393,4.393,0,0,0-8.786,0V5.858H23.869V4.393a4.393,4.393,0,0,0-8.786,0V5.858H4.466A4.471,4.471,0,0,0,0,10.324V64.653a4.471,4.471,0,0,0,4.466,4.466h19.96a1.464,1.464,0,0,0,0-2.929H4.466a1.539,1.539,0,0,1-1.538-1.538V10.324A1.539,1.539,0,0,1,4.466,8.786H15.083v1.464a4.393,4.393,0,1,0,8.786,0V8.786H47.593v1.464a4.393,4.393,0,0,0,8.786,0V8.786H67a1.539,1.539,0,0,1,1.538,1.538v7.249H13.179a1.464,1.464,0,0,0,0,2.929H68.533V49.56a13.689,13.689,0,0,0-4.1-1.733V26.066A1.464,1.464,0,0,0,62.969,24.6H8.493a1.464,1.464,0,0,0-1.464,1.464v34.56A1.464,1.464,0,0,0,8.493,62.09H47.475a13.662,13.662,0,0,0,.9,4.1H36.141a1.464,1.464,0,1,0,0,2.929h13.81A13.76,13.76,0,1,0,71.462,52.035ZM20.941,10.251a1.464,1.464,0,0,1-2.929,0V4.393a1.464,1.464,0,0,1,2.929,0Zm32.509,0a1.464,1.464,0,0,1-2.929,0V4.393a1.464,1.464,0,0,1,2.929,0Zm7.761,37.2a13.822,13.822,0,0,0-2,.146H53.538V39.1H61.5V47.45C61.407,47.448,61.309,47.446,61.211,47.446ZM47.6,59.161H42.643v-8.64h7.966v1.92A13.713,13.713,0,0,0,47.6,59.161ZM9.958,39.1h7.966v8.493H9.958Zm10.9,0h7.966v8.493H20.853Zm21.79,0h7.966v8.493H42.643Zm-2.929,8.493H31.748V39.1h7.966ZM42.643,36.17V27.53h7.966v8.64Zm-2.929,0H31.748V27.53h7.966Zm-10.9,0H20.853V27.53h7.966Zm0,14.351v8.64H20.853v-8.64Zm2.929,0h7.966v8.64H31.748ZM61.5,36.17H53.538V27.53H61.5Zm-43.58-8.64v8.64H9.958V27.53ZM9.958,50.521h7.966v8.64H9.958ZM61.211,72.048A10.836,10.836,0,1,1,72.048,61.211,10.849,10.849,0,0,1,61.211,72.048Z"/>
        <path id="XMLID_1115_" d="M394.211,391.262l-4.529,4.529-2.015-2.015a1.464,1.464,0,0,0-2.071,2.071l3.051,3.051a1.464,1.464,0,0,0,2.071,0l5.565-5.565a1.464,1.464,0,1,0-2.071-2.071Z" transform="translate(-328.763 -333.6)"/>
        <path id="XMLID_1116_" d="M198.264,452a1.465,1.465,0,1,0,1.035.429A1.475,1.475,0,0,0,198.264,452Z" transform="translate(-167.981 -385.81)"/>
        <path id="XMLID_1120_" d="M42.5,122.5a1.463,1.463,0,1,0-1.035.429A1.475,1.475,0,0,0,42.5,122.5Z" transform="translate(-34.142 -102.427)"/>
      </g>
    </g>
  </g>
</svg>
