<svg xmlns="http://www.w3.org/2000/svg" width="100" height="100" viewBox="0 0 100 100">
  <g id="produccion" transform="translate(-1 -1)">
    <path id="Trazado_203813" data-name="Trazado 203813" d="M56.839,42.871v-12.9L39.1,42.871v-12.9l-17.742,12.9V9H2V79.968H74.581v-50Z" transform="translate(0.613 4.903)" fill="#e4eb79"/>
    <path id="Trazado_203814" data-name="Trazado 203814" d="M80.387,59.419V52.968H75.258a19.238,19.238,0,0,0-3.3-7.977l3.624-3.624L71.021,36.8,67.4,40.429a19.22,19.22,0,0,0-7.977-3.3V32H52.968v5.129a19.238,19.238,0,0,0-7.977,3.3L41.366,36.8,36.8,41.366l3.624,3.624a19.22,19.22,0,0,0-3.3,7.977H32v6.452h5.129a19.238,19.238,0,0,0,3.3,7.977L36.8,71.021l4.561,4.561,3.624-3.624a19.232,19.232,0,0,0,7.976,3.3v5.129h6.452V75.258a19.223,19.223,0,0,0,7.976-3.3l3.624,3.624,4.561-4.561L71.955,67.4a19.22,19.22,0,0,0,3.3-7.977Z" transform="translate(19 19)" fill="#75b62f"/>
    <circle id="Elipse_5658" data-name="Elipse 5658" cx="13" cy="13" r="13" transform="translate(62 62)" fill="#dce736"/>
    <path id="Trazado_203816" data-name="Trazado 203816" d="M2,9H21.355v8.065H2Z" transform="translate(0.613 4.903)" fill="#f85316"/>
    <path id="Trazado_203818" data-name="Trazado 203818" d="M16,36h6.452v6.452H16Z" transform="translate(9.194 21.452)" fill="#3d46c2"/>
    <path id="Trazado_203819" data-name="Trazado 203819" d="M26,36h6.452v6.452H26Z" transform="translate(15.323 21.452)" fill="#3d46c2"/>
    <path id="Trazado_203820" data-name="Trazado 203820" d="M49.484,49.065h-1.29a.969.969,0,0,1-.968-.968v-1.29a.968.968,0,0,1,.968-.968h1.29a.969.969,0,0,1,.968.968h3.226a4.192,4.192,0,0,0-3.226-4.069V41H47.226v1.737A4.194,4.194,0,0,0,44,46.806V48.1a4.2,4.2,0,0,0,4.194,4.194h1.29a.969.969,0,0,1,.968.968v1.29a.969.969,0,0,1-.968.968h-1.29a.969.969,0,0,1-.968-.968H44a4.193,4.193,0,0,0,3.226,4.069v1.737h3.226V58.618a4.194,4.194,0,0,0,3.226-4.069v-1.29A4.2,4.2,0,0,0,49.484,49.065Z" transform="translate(26.355 24.516)"/>
    <path id="Trazado_203821" data-name="Trazado 203821" d="M99.387,66.065H95.579a20.621,20.621,0,0,0-2.547-6.155l2.69-2.692a1.611,1.611,0,0,0,0-2.281L91.16,50.374a1.611,1.611,0,0,0-2.281,0l-2.692,2.69a20.638,20.638,0,0,0-6.155-2.547V46.71A1.613,1.613,0,0,0,78.419,45.1H76.806V30.581a1.612,1.612,0,0,0-2.561-1.3L59.065,40.316V30.581a1.612,1.612,0,0,0-2.561-1.3L41.323,40.316V30.581a1.612,1.612,0,0,0-2.561-1.3L23.581,40.316V9.613A1.613,1.613,0,0,0,21.968,8H2.613A1.613,1.613,0,0,0,1,9.613V80.581a1.613,1.613,0,0,0,1.613,1.613H57.06l-2.4,2.4a1.611,1.611,0,0,0,0,2.281l4.563,4.563a1.611,1.611,0,0,0,2.281,0l2.692-2.69a20.638,20.638,0,0,0,6.155,2.547V95.1a1.613,1.613,0,0,0,1.613,1.613h6.452A1.614,1.614,0,0,0,80.032,95.1V91.289a20.621,20.621,0,0,0,6.155-2.547l2.692,2.69a1.611,1.611,0,0,0,2.281,0l4.563-4.563a1.611,1.611,0,0,0,0-2.281L93.032,81.9a20.638,20.638,0,0,0,2.547-6.155h3.808A1.614,1.614,0,0,0,101,74.129V67.677A1.613,1.613,0,0,0,99.387,66.065ZM20.355,11.226v4.839H4.226V11.226ZM4.226,19.29H20.355V43.484a1.612,1.612,0,0,0,2.561,1.3L38.1,33.748v9.735a1.612,1.612,0,0,0,2.561,1.3L55.839,33.748v9.735a1.612,1.612,0,0,0,2.561,1.3L73.581,33.748V45.1H71.968a1.613,1.613,0,0,0-1.613,1.613v3.808A20.621,20.621,0,0,0,64.2,53.065l-2.692-2.69a1.611,1.611,0,0,0-2.281,0l-4.563,4.563a1.611,1.611,0,0,0,0,2.281l2.69,2.692a20.638,20.638,0,0,0-2.547,6.155H51a1.613,1.613,0,0,0-1.613,1.613v6.452A1.613,1.613,0,0,0,51,75.742h3.808a20.857,20.857,0,0,0,1.044,3.226H4.226ZM97.774,72.516H94.258a1.614,1.614,0,0,0-1.59,1.345,17.482,17.482,0,0,1-3.024,7.308,1.613,1.613,0,0,0,.173,2.076L92.3,85.729l-2.282,2.282-2.484-2.484a1.613,1.613,0,0,0-2.076-.173,17.524,17.524,0,0,1-7.308,3.024,1.611,1.611,0,0,0-1.344,1.589v3.516H73.581V89.968a1.614,1.614,0,0,0-1.345-1.59,17.482,17.482,0,0,1-7.308-3.024,1.613,1.613,0,0,0-2.076.173L60.368,88.01l-2.282-2.282,2.484-2.484a1.611,1.611,0,0,0,.173-2.076,17.524,17.524,0,0,1-3.024-7.308,1.611,1.611,0,0,0-1.589-1.344H52.613V69.29h3.516a1.614,1.614,0,0,0,1.59-1.345,17.481,17.481,0,0,1,3.024-7.308,1.613,1.613,0,0,0-.173-2.076l-2.484-2.484L60.369,53.8l2.484,2.484a1.608,1.608,0,0,0,2.076.173,17.524,17.524,0,0,1,7.308-3.024,1.611,1.611,0,0,0,1.344-1.589V48.323h3.226v3.516a1.614,1.614,0,0,0,1.345,1.59,17.481,17.481,0,0,1,7.308,3.024,1.609,1.609,0,0,0,2.076-.173L90.019,53.8,92.3,56.079l-2.484,2.484a1.611,1.611,0,0,0-.173,2.076,17.524,17.524,0,0,1,3.024,7.308,1.611,1.611,0,0,0,1.589,1.344h3.516Z" transform="translate(0 4.29)"/>
    <path id="Trazado_203822" data-name="Trazado 203822" d="M52.516,38A14.516,14.516,0,1,0,67.032,52.516,14.534,14.534,0,0,0,52.516,38Zm0,25.806a11.29,11.29,0,1,1,11.29-11.29A11.3,11.3,0,0,1,52.516,63.806Z" transform="translate(22.677 22.677)"/>
    <path id="Trazado_203823" data-name="Trazado 203823" d="M9.226,5.839a1.616,1.616,0,0,1,1.613-1.613h11.29a1.616,1.616,0,0,1,1.613,1.613,4.845,4.845,0,0,0,4.839,4.839H49.548V7.452H28.581a1.616,1.616,0,0,1-1.613-1.613A4.845,4.845,0,0,0,22.129,1H10.839A4.845,4.845,0,0,0,6,5.839V9.065H9.226Z" transform="translate(3.065)"/>
    <path id="Trazado_203824" data-name="Trazado 203824" d="M35,5h3.226V8.226H35Z" transform="translate(20.839 2.452)"/>
    <path id="Trazado_203825" data-name="Trazado 203825" d="M23.065,35H16.613A1.613,1.613,0,0,0,15,36.613v6.452a1.613,1.613,0,0,0,1.613,1.613h6.452a1.613,1.613,0,0,0,1.613-1.613V36.613A1.613,1.613,0,0,0,23.065,35Zm-1.613,6.452H18.226V38.226h3.226Z" transform="translate(8.581 20.839)"/>
    <path id="Trazado_203826" data-name="Trazado 203826" d="M34.677,36.613A1.613,1.613,0,0,0,33.065,35H26.613A1.613,1.613,0,0,0,25,36.613v6.452a1.613,1.613,0,0,0,1.613,1.613h6.452a1.613,1.613,0,0,0,1.613-1.613Zm-3.226,4.839H28.226V38.226h3.226Z" transform="translate(14.71 20.839)"/>
  </g>
</svg>
