<svg xmlns="http://www.w3.org/2000/svg" width="100" height="100" viewBox="0 0 100 100">
  <g id="objetivos" transform="translate(0)">
    <g id="Grupo_150332" data-name="Grupo 150332" transform="translate(1.465 1.465)">
      <g id="Grupo_150328" data-name="Grupo 150328">
        <g id="Grupo_150320" data-name="Grupo 150320" transform="translate(4.594 4.594)">
          <g id="Grupo_150315" data-name="Grupo 150315" transform="translate(3.248 3.248)">
            <path id="Trazado_203786" data-name="Trazado 203786" d="M88.344,129.037a40.693,40.693,0,1,1,40.693-40.693A40.739,40.739,0,0,1,88.344,129.037Zm0-71.768a31.075,31.075,0,1,0,31.075,31.075A31.11,31.11,0,0,0,88.344,57.27Z" transform="translate(-47.651 -47.651)" fill="#f85316"/>
          </g>
          <g id="Grupo_150318" data-name="Grupo 150318" transform="translate(0 0.001)">
            <path id="Trazado_203790" data-name="Trazado 203790" d="M74.964,118.9A43.941,43.941,0,1,1,118.9,74.964,43.991,43.991,0,0,1,74.964,118.9Zm0-82.666a38.725,38.725,0,1,0,38.725,38.725A38.769,38.769,0,0,0,74.964,36.239Z" transform="translate(-31.023 -31.023)" fill="#3d46c2"/>
          </g>
        </g>
        <g id="Grupo_150327" data-name="Grupo 150327">
          <g id="Grupo_150323" data-name="Grupo 150323" transform="translate(45.824)">
            <g id="Grupo_150321" data-name="Grupo 150321">
              <path id="Trazado_203794" data-name="Trazado 203794" d="M247.542,9.453V25.078q-1.342-.117-2.711-.117t-2.711.117V9.453A1.953,1.953,0,0,1,244.073,7.5h1.516A1.953,1.953,0,0,1,247.542,9.453Z" transform="translate(-242.12 -7.5)" fill="#75b62f"/>
            </g>
            <g id="Grupo_150322" data-name="Grupo 150322" transform="translate(0 79.492)">
              <path id="Trazado_203795" data-name="Trazado 203795" d="M247.542,414.5v15.625a1.953,1.953,0,0,1-1.953,1.953h-1.516a1.953,1.953,0,0,1-1.953-1.953V414.5q1.342.117,2.711.117T247.542,414.5Z" transform="translate(-242.12 -414.5)" fill="#75b62f"/>
            </g>
          </g>
          <g id="Grupo_150326" data-name="Grupo 150326" transform="translate(0 45.823)">
            <g id="Grupo_150324" data-name="Grupo 150324" transform="translate(71.343)">
              <path id="Trazado_203796" data-name="Trazado 203796" d="M372.775,245.586v-1.518a1.953,1.953,0,0,1,1.953-1.953h21.821a1.953,1.953,0,0,1,1.953,1.953v1.518a1.953,1.953,0,0,1-1.953,1.953H374.728A1.953,1.953,0,0,1,372.775,245.586Z" transform="translate(-372.775 -242.115)" fill="#75b62f"/>
            </g>
            <g id="Grupo_150325" data-name="Grupo 150325">
              <path id="Trazado_203797" data-name="Trazado 203797" d="M7.5,245.586v-1.518a1.953,1.953,0,0,1,1.953-1.953H31.274a1.953,1.953,0,0,1,1.953,1.953v1.518a1.953,1.953,0,0,1-1.953,1.953H9.453A1.953,1.953,0,0,1,7.5,245.586Z" transform="translate(-7.5 -242.115)" fill="#75b62f"/>
            </g>
          </g>
        </g>
      </g>
      <g id="Grupo_150331" data-name="Grupo 150331" transform="translate(31.342 31.342)">
        <g id="Grupo_150329" data-name="Grupo 150329">
          <circle id="Elipse_5657" data-name="Elipse 5657" cx="17.193" cy="17.193" r="17.193" fill="#dce736"/>
        </g>
        <g id="Grupo_150330" data-name="Grupo 150330" transform="translate(6.167 8.685)">
          <path id="Trazado_203799" data-name="Trazado 203799" d="M205.973,229.36l-6.17-6.17a.884.884,0,0,1,0-1.251l2.548-2.548a.884.884,0,0,1,1.251,0l3.622,3.622L217.538,212.7a.884.884,0,0,1,1.251,0l2.548,2.548a.884.884,0,0,1,0,1.251L208.475,229.36A1.769,1.769,0,0,1,205.973,229.36Z" transform="translate(-199.544 -212.44)" fill="#f85316"/>
        </g>
      </g>
    </g>
    <g id="Grupo_150333" data-name="Grupo 150333" transform="translate(0 0)">
      <path id="Trazado_203800" data-name="Trazado 203800" d="M96.582,45.823h-1.37A45.473,45.473,0,0,0,54.176,4.787V3.418A3.422,3.422,0,0,0,50.758,0H49.242a3.422,3.422,0,0,0-3.418,3.418V4.785A45.507,45.507,0,0,0,8.137,32.419a1.465,1.465,0,1,0,2.7,1.138A42.574,42.574,0,0,1,45.824,7.729v2.3a40.259,40.259,0,0,0-35.8,35.8H7.731a42.5,42.5,0,0,1,.978-5.792,1.465,1.465,0,1,0-2.848-.688,45.442,45.442,0,0,0-1.074,6.479H3.418A3.422,3.422,0,0,0,0,49.241v1.518a3.422,3.422,0,0,0,3.418,3.418H4.787A45.473,45.473,0,0,0,45.824,95.212v1.37A3.422,3.422,0,0,0,49.242,100h1.516a3.422,3.422,0,0,0,3.418-3.418V95.214A45.478,45.478,0,0,0,95.214,54.177h1.368A3.422,3.422,0,0,0,100,50.759V49.241a3.422,3.422,0,0,0-3.418-3.418ZM79.973,19.933a42.459,42.459,0,0,1,12.3,25.891h-2.3a40.252,40.252,0,0,0-35.8-35.8v-2.3a42.46,42.46,0,0,1,25.8,12.2Zm2.3,25.891a32.508,32.508,0,0,0-5.488-14.281,1.465,1.465,0,1,0-2.41,1.666,29.569,29.569,0,0,1,4.94,12.616H74.761a3.422,3.422,0,0,0-3.418,3.418v1.518a3.422,3.422,0,0,0,3.418,3.418h4.554a29.614,29.614,0,0,1-58.629,0h4.554a3.422,3.422,0,0,0,3.418-3.418V49.241a3.422,3.422,0,0,0-3.418-3.418H20.685A29.593,29.593,0,0,1,69.917,28.109a1.465,1.465,0,1,0,1.973-2.166,32.451,32.451,0,0,0-17.713-8.212V12.973a37.33,37.33,0,0,1,32.851,32.85ZM54.176,82.269a32.593,32.593,0,0,0,28.1-28.092h4.754a37.325,37.325,0,0,1-32.85,32.849Zm-8.352,4.757A37.325,37.325,0,0,1,12.975,54.177h4.754a32.593,32.593,0,0,0,28.1,28.092v4.756Zm3.418-84.1h1.516a.489.489,0,0,1,.488.488V17.486c-.414-.016-.83-.026-1.246-.026s-.832.01-1.246.026V3.418a.489.489,0,0,1,.488-.488ZM23.635,23.7A37.272,37.272,0,0,1,45.824,12.974v4.757a32.593,32.593,0,0,0-28.1,28.092H12.975A37.27,37.27,0,0,1,23.635,23.7ZM2.93,50.759V49.241a.489.489,0,0,1,.488-.488H25.239a.489.489,0,0,1,.488.488v1.518a.489.489,0,0,1-.488.488H3.418A.489.489,0,0,1,2.93,50.759Zm16.893,29.1A42.443,42.443,0,0,1,7.731,54.177h2.3a40.261,40.261,0,0,0,35.8,35.8v2.3a42.446,42.446,0,0,1-26-12.409ZM50.758,97.07H49.242a.489.489,0,0,1-.488-.488V82.514c.414.016.83.026,1.246.026s.832-.01,1.246-.026V96.582A.489.489,0,0,1,50.758,97.07ZM80.084,79.957A42.441,42.441,0,0,1,54.176,92.271v-2.3a40.26,40.26,0,0,0,35.8-35.8h2.3a42.441,42.441,0,0,1-12.186,25.78Zm16.986-29.2a.489.489,0,0,1-.488.488H74.761a.489.489,0,0,1-.488-.488V49.241a.489.489,0,0,1,.488-.488H96.582a.489.489,0,0,1,.488.488Z" transform="translate(0 0)"/>
      <path id="Trazado_203801" data-name="Trazado 203801" d="M179.129,160.473a18.659,18.659,0,0,0-4.074,36.867,1.465,1.465,0,0,0,.637-2.859,15.728,15.728,0,1,1,6.487.081,1.465,1.465,0,1,0,.565,2.875,18.659,18.659,0,0,0-3.614-36.964Z" transform="translate(-129.129 -129.131)"/>
      <path id="Trazado_203802" data-name="Trazado 203802" d="M216.343,211.5a2.353,2.353,0,0,0,0-3.322l-2.548-2.548a2.353,2.353,0,0,0-3.323,0l-9.278,9.278-2.586-2.586a2.353,2.353,0,0,0-3.323,0l-2.548,2.548a2.352,2.352,0,0,0,0,3.322l6.17,6.17h0a3.238,3.238,0,0,0,4.574,0Zm-15.364,10.79-5.759-5.76,1.728-1.728,3.211,3.212a1.465,1.465,0,0,0,2.072,0l9.9-9.9,1.728,1.728-12.452,12.452A.3.3,0,0,1,200.979,222.294Z" transform="translate(-154.54 -164.917)"/>
      <path id="Trazado_203803" data-name="Trazado 203803" d="M140.732,308.039a1.465,1.465,0,0,0-2-.536l-2.1,1.211a1.465,1.465,0,1,0,1.465,2.537l2.1-1.211A1.465,1.465,0,0,0,140.732,308.039Z" transform="translate(-109.357 -247.286)"/>
      <path id="Trazado_203804" data-name="Trazado 203804" d="M353.187,183.687l-2.1,1.211a1.465,1.465,0,1,0,1.465,2.537l2.1-1.211a1.465,1.465,0,1,0-1.465-2.537Z" transform="translate(-281.927 -147.652)"/>
      <path id="Trazado_203805" data-name="Trazado 203805" d="M158.7,332.1l-1.713,1.713a1.465,1.465,0,0,0,2.072,2.072l1.713-1.713A1.465,1.465,0,1,0,158.7,332.1Z" transform="translate(-125.984 -266.888)"/>
      <path id="Trazado_203806" data-name="Trazado 203806" d="M333.131,161.207a1.461,1.461,0,0,0,1.036-.429l1.713-1.713a1.465,1.465,0,1,0-2.072-2.072l-1.713,1.713a1.465,1.465,0,0,0,1.036,2.5Z" transform="translate(-266.888 -125.985)"/>
      <path id="Trazado_203807" data-name="Trazado 203807" d="M186.9,350.551a1.465,1.465,0,0,0-2,.536l-1.211,2.1a1.465,1.465,0,1,0,2.537,1.465l1.211-2.1A1.465,1.465,0,0,0,186.9,350.551Z" transform="translate(-147.652 -281.926)"/>
      <path id="Trazado_203808" data-name="Trazado 203808" d="M308.038,140.732a1.464,1.464,0,0,0,2-.536l1.211-2.1a1.465,1.465,0,1,0-2.537-1.465l-1.211,2.1A1.465,1.465,0,0,0,308.038,140.732Z" transform="translate(-247.285 -109.357)"/>
      <path id="Trazado_203809" data-name="Trazado 203809" d="M217.318,362.154a1.464,1.464,0,0,0-1.794,1.036l-.627,2.34a1.465,1.465,0,1,0,2.83.758l.627-2.34A1.465,1.465,0,0,0,217.318,362.154Z" transform="translate(-172.884 -291.38)"/>
      <path id="Trazado_203810" data-name="Trazado 203810" d="M280.024,128.13a1.463,1.463,0,0,0,1.794-1.036l.627-2.34a1.465,1.465,0,1,0-2.83-.758l-.627,2.34A1.465,1.465,0,0,0,280.024,128.13Z" transform="translate(-224.458 -98.903)"/>
      <path id="Trazado_203811" data-name="Trazado 203811" d="M249.965,366.114a1.465,1.465,0,0,0-1.465,1.465V370a1.465,1.465,0,0,0,2.93,0v-2.423A1.465,1.465,0,0,0,249.965,366.114Z" transform="translate(-199.965 -294.607)"/>
      <path id="Trazado_203812" data-name="Trazado 203812" d="M249.965,123.834a1.465,1.465,0,0,0,1.465-1.465v-2.423a1.465,1.465,0,1,0-2.93,0v2.423A1.465,1.465,0,0,0,249.965,123.834Z" transform="translate(-199.965 -95.341)"/>
    </g>
  </g>
</svg>
