<svg xmlns="http://www.w3.org/2000/svg" width="120" height="120" viewBox="0 0 120 120">
  <g id="Grupo_150378" data-name="Grupo 150378" transform="translate(-646 -139.52)">
    <circle id="Elipse_5645" data-name="Elipse 5645" cx="60" cy="60" r="60" transform="translate(646 139.52)" fill="#fff"/>
    <g id="Business_Execution" data-name="Business Execution" transform="translate(660.701 152.394)">
      <path id="Trazado_203932" data-name="Trazado 203932" d="M62.055,45.516a3.642,3.642,0,0,0-2.934-3.736c-4.729-.331-14.84,0-14.84,0a10.07,10.07,0,0,1-2.981-.451L30.373,37.943a10.066,10.066,0,0,0-5.086-.229C19.815,38.885,7.438,41.536,6.46,41.78L11,61.882l8.965-2.561a4.864,4.864,0,0,1,2.377-.075l25.663,5.62a4.834,4.834,0,0,0,3.533-.584L83.693,44.093c2.881-1.74-.3-2.969-2.935-5.067a4.864,4.864,0,0,0-5.051-.622Z" transform="translate(1.016 16.04)" fill="#ffd4a2"/>
      <path id="Trazado_203934" data-name="Trazado 203934" d="M61.328,28.033a10.837,10.837,0,0,1-1.184,2.813l1.462,2.436a.55.55,0,0,1-.083.671l-2.114,2.114a.55.55,0,0,1-.671.083l-2.462-1.477a10.831,10.831,0,0,1-2.824,1.154l-.69,2.756a.55.55,0,0,1-.533.416H49.239a.55.55,0,0,1-.533-.416l-.7-2.784A10.833,10.833,0,0,1,45.2,34.616L42.76,36.078A.55.55,0,0,1,42.089,36l-2.114-2.114a.55.55,0,0,1-.083-.671l1.476-2.462a10.83,10.83,0,0,1-1.153-2.824l-2.755-.689a.55.55,0,0,1-.416-.533V23.711a.55.55,0,0,1,.416-.533l2.784-.7a10.836,10.836,0,0,1,1.183-2.812l-1.462-2.436a.55.55,0,0,1,.083-.672l2.114-2.114a.55.55,0,0,1,.671-.083L45.3,15.841a10.832,10.832,0,0,1,2.825-1.154l.69-2.756a.55.55,0,0,1,.533-.416h2.989a.55.55,0,0,1,.533.416l.7,2.784A10.835,10.835,0,0,1,56.374,15.9l2.436-1.462a.55.55,0,0,1,.671.083L61.6,16.634a.55.55,0,0,1,.083.671L60.2,19.767a10.832,10.832,0,0,1,1.154,2.825l2.756.689a.55.55,0,0,1,.416.533V26.8a.55.55,0,0,1-.416.533Z" transform="translate(17.357 2.161)" fill="#75b62f"/>
      <path id="Trazado_203941" data-name="Trazado 203941" d="M43.465,24.682a14.833,14.833,0,0,1,.013,4.178l3.145,2.288a.752.752,0,0,1,.255.89l-1.533,3.794a.752.752,0,0,1-.8.463l-3.892-.544a14.827,14.827,0,0,1-2.942,2.964l.6,3.841a.752.752,0,0,1-.449.81l-3.767,1.6a.752.752,0,0,1-.895-.239l-2.367-3.135a14.829,14.829,0,0,1-4.176.013l-2.288,3.145a.752.752,0,0,1-.89.255l-3.794-1.533a.752.752,0,0,1-.463-.8l.544-3.892A14.826,14.826,0,0,1,16.8,35.835l-3.841.605a.752.752,0,0,1-.81-.449l-1.6-3.767a.752.752,0,0,1,.239-.895l3.135-2.367a14.832,14.832,0,0,1-.013-4.177L10.77,22.5a.752.752,0,0,1-.255-.89l1.533-3.794a.752.752,0,0,1,.8-.463l3.892.544a14.828,14.828,0,0,1,2.942-2.964l-.605-3.841a.752.752,0,0,1,.449-.81l3.767-1.6a.752.752,0,0,1,.895.239l2.367,3.135a14.832,14.832,0,0,1,4.176-.013L33.021,8.9a.752.752,0,0,1,.89-.255l3.794,1.533a.752.752,0,0,1,.463.8l-.544,3.892a14.827,14.827,0,0,1,2.964,2.942L44.43,17.2a.752.752,0,0,1,.81.449l1.6,3.767a.752.752,0,0,1-.239.895Z" transform="translate(3.153 0.595)" fill="#75b62f"/>
      <path id="Trazado_203989" data-name="Trazado 203989" d="M9.235,0A9.235,9.235,0,1,1,0,9.235,9.235,9.235,0,0,1,9.235,0Z" transform="translate(19.466 31.615) rotate(-63.691)" fill="#dce736"/>
      <path id="Trazado_203988" data-name="Trazado 203988" d="M5.37,0A5.37,5.37,0,1,1,0,5.37,5.37,5.37,0,0,1,5.37,0Z" transform="translate(60.539 27.419) rotate(-45)" fill="#dce736"/>
      <rect id="Rectángulo_41911" data-name="Rectángulo 41911" width="25.209" height="6.676" rx="0.2" transform="translate(12.471 54.373) rotate(75.227)" fill="#3d46c2"/>
      <path id="Trazado_203958" data-name="Trazado 203958" d="M16.252,28.344a10.651,10.651,0,1,1,13.965,5.642A10.651,10.651,0,0,1,16.252,28.344ZM23.093,17.2a7.582,7.582,0,1,0,9.941,4.016A7.582,7.582,0,0,0,23.093,17.2Z" transform="translate(5.794 3.235)"/>
      <path id="Trazado_203959" data-name="Trazado 203959" d="M24.313,47.364a31.51,31.51,0,0,1-4.691-1.716,2.29,2.29,0,0,1-1.413-2.443l.429-3.06a16.47,16.47,0,0,1-1.991-1.975l-3,.472a2.286,2.286,0,0,1-2.466-1.369l-1.617-3.8a2.291,2.291,0,0,1,.733-2.729l2.462-1.859a16.535,16.535,0,0,1-.009-2.8l-2.456-1.787a2.291,2.291,0,0,1-.779-2.714l1.549-3.831a2.281,2.281,0,0,1,2.444-1.414l3.06.428a16.509,16.509,0,0,1,1.973-1.991l-.472-3A2.288,2.288,0,0,1,19.434,9.3l3.8-1.614a2.292,2.292,0,0,1,2.728.731l1.859,2.463a16.6,16.6,0,0,1,2.8-.01l1.787-2.456a2.293,2.293,0,0,1,2.715-.777l3.831,1.547a2.29,2.29,0,0,1,1.411,2.443l-.427,3.06a16.466,16.466,0,0,1,1.991,1.974l3-.472a2.294,2.294,0,0,1,2.468,1.369l1.615,3.8a2.294,2.294,0,0,1-.728,2.726l-2.466,1.861a16.549,16.549,0,0,1,.01,2.806l2.456,1.787a2.29,2.29,0,0,1,.778,2.713l-1.549,3.832A2.307,2.307,0,0,1,45.077,38.5l-3.057-.427a16.521,16.521,0,0,1-1.975,1.991l.473,3a2.293,2.293,0,0,1-1.369,2.469l-3.8,1.614a2.287,2.287,0,0,1-2.728-.731l-1.859-2.463a16.6,16.6,0,0,1-2.8.01l-1.787,2.456a2.292,2.292,0,0,1-1.853.945Zm-2.982-4.335,2.709,1.1L26,41.438a1.542,1.542,0,0,1,1.452-.617,13.429,13.429,0,0,0,3.785-.012,1.548,1.548,0,0,1,1.444.594L34.7,44.086l2.691-1.142-.518-3.281a1.536,1.536,0,0,1,.592-1.463,13.436,13.436,0,0,0,2.666-2.686,1.514,1.514,0,0,1,1.443-.6l3.329.465L46,32.669l-2.687-1.955a1.534,1.534,0,0,1-.616-1.451,13.461,13.461,0,0,0-.012-3.786,1.536,1.536,0,0,1,.593-1.447l2.683-2.024-1.142-2.69-3.281.517a1.532,1.532,0,0,1-1.462-.59,13.431,13.431,0,0,0-2.685-2.666,1.532,1.532,0,0,1-.6-1.442l.464-3.331L34.544,10.71,32.588,13.4a1.536,1.536,0,0,1-1.452.617,13.4,13.4,0,0,0-3.785.012,1.541,1.541,0,0,1-1.444-.594l-2.026-2.683-2.69,1.141.517,3.281a1.535,1.535,0,0,1-.59,1.461,13.5,13.5,0,0,0-2.666,2.687,1.528,1.528,0,0,1-1.443.6l-3.331-.465-1.094,2.71L15.27,24.12a1.532,1.532,0,0,1,.617,1.451,13.523,13.523,0,0,0,.012,3.786,1.533,1.533,0,0,1-.593,1.444l-2.683,2.027,1.143,2.689L17.046,35a1.533,1.533,0,0,1,1.461.589,13.473,13.473,0,0,0,2.688,2.667,1.533,1.533,0,0,1,.6,1.443Z" transform="translate(2.558)"/>
      <path id="Trazado_203960" data-name="Trazado 203960" d="M48.526,30.253A7.255,7.255,0,1,1,55.781,23a7.255,7.255,0,0,1-7.255,7.255Zm0-11.441A4.186,4.186,0,1,0,52.713,23a4.186,4.186,0,0,0-4.186-4.186Z" transform="translate(19.616 4.419)"/>
      <path id="Trazado_203961" data-name="Trazado 203961" d="M52.751,41.033H49.767a2.075,2.075,0,0,1-2.021-1.584l-.484-1.929a12.3,12.3,0,0,1-1.494-.628L44.09,37.9a2.077,2.077,0,0,1-2.547-.315l-2.107-2.107a2.082,2.082,0,0,1-.316-2.542l1.029-1.716a12.1,12.1,0,0,1-.613-1.5l-1.9-.475a2.077,2.077,0,0,1-1.576-2.021V24.239a2.078,2.078,0,0,1,1.579-2.021l1.934-.484a12.5,12.5,0,0,1,.628-1.495L39.2,18.562a2.083,2.083,0,0,1,.313-2.545l2.11-2.11a2.081,2.081,0,0,1,2.546-.313l1.711,1.026a12.522,12.522,0,0,1,1.5-.613l.475-1.9a2.081,2.081,0,0,1,2.021-1.578h2.983a2.075,2.075,0,0,1,2.021,1.585l.484,1.929a12.342,12.342,0,0,1,1.494.628l1.678-1.006a2.074,2.074,0,0,1,2.549.318l2.105,2.105a2.082,2.082,0,0,1,.316,2.542l-1.029,1.715a12.161,12.161,0,0,1,.613,1.5l1.9.475a2.077,2.077,0,0,1,1.576,2.021v2.984a2.078,2.078,0,0,1-1.579,2.021l-1.933.483a12.281,12.281,0,0,1-.629,1.5L63.426,33a2.085,2.085,0,0,1-.313,2.545L61,37.658a2.083,2.083,0,0,1-2.538.318l-1.72-1.031a12.4,12.4,0,0,1-1.5.613l-.475,1.9a2.081,2.081,0,0,1-2.021,1.578Zm-2.213-3.069h1.444l.5-2A1.532,1.532,0,0,1,53.6,34.845a9.269,9.269,0,0,0,2.418-.988,1.532,1.532,0,0,1,1.564.009l1.8,1.079L60.4,33.922,59.336,32.15a1.531,1.531,0,0,1,0-1.579,9.281,9.281,0,0,0,1.014-2.409,1.533,1.533,0,0,1,1.11-1.1l2.032-.508V25.111l-2-.5A1.536,1.536,0,0,1,60.373,23.5a9.288,9.288,0,0,0-.987-2.419,1.534,1.534,0,0,1,.009-1.563l1.077-1.8L59.45,16.694l-1.771,1.062a1.533,1.533,0,0,1-1.578,0,9.276,9.276,0,0,0-2.408-1.013,1.535,1.535,0,0,1-1.1-1.111L52.084,13.6H50.639l-.5,2a1.532,1.532,0,0,1-1.113,1.116,9.269,9.269,0,0,0-2.418.988,1.532,1.532,0,0,1-1.564-.009l-1.8-1.078-1.022,1.022,1.064,1.772a1.531,1.531,0,0,1,0,1.579A9.291,9.291,0,0,0,42.273,23.4a1.533,1.533,0,0,1-1.11,1.1l-2.033.509v1.445l2,.5a1.536,1.536,0,0,1,1.115,1.115,9.325,9.325,0,0,0,.987,2.42,1.533,1.533,0,0,1-.009,1.563l-1.077,1.8,1.022,1.022,1.771-1.062a1.533,1.533,0,0,1,1.578,0,9.268,9.268,0,0,0,2.408,1.013,1.535,1.535,0,0,1,1.1,1.111Z" transform="translate(16.832 1.635)"/>
      <path id="Trazado_203962" data-name="Trazado 203962" d="M83.806,38.007a6.934,6.934,0,0,0-7.073-.8L63.4,43.936a4.869,4.869,0,0,0-3.963-3.228c-4.753-.339-14.583-.019-14.947,0-1.7,0-1.5-.063-13.454-3.767-3.617-1.123-5.114-.435-16.938,2.111a1.843,1.843,0,0,0-2.316-1.561L5.925,39.02a1.844,1.844,0,0,0-1.3,2.255l6.26,23.782a1.831,1.831,0,0,0,2.255,1.32L19,64.827a1.839,1.839,0,0,0,1.3-2.255l-.322-1.243c.8-.076,27.216,5.633,28,5.8a6.845,6.845,0,0,0,4.925-.8L86.721,45.74c5.38-3.124-1.378-6.538-2.915-7.733ZM13.339,62.351,8.085,42.419a.767.767,0,0,1,.55-.938l2.012-.521a.767.767,0,0,1,.934.548c5.353,20.367,5.24,19.922,5.24,19.922a.767.767,0,0,1-.546.938l-2,.528A.767.767,0,0,1,13.339,62.351Zm70.988-18.8c-5.462,3.421-33.11,20.115-33.11,20.115a3.591,3.591,0,0,1-2.547.4C19.453,57.868,20.9,58,19.166,58.26L14.885,42.027l0-.009C26.8,39.449,27.463,39.04,30.131,39.867c11.943,3.7,12.069,3.9,14.4,3.9h.008c.1,0,10.019-.457,14.58-.009,2.207.216,2.071,4.43-.246,5.13-4.363,1.319-16.6.727-21.16.433a1.534,1.534,0,1,0-.2,3.063C57.267,53.639,62.469,52,63.7,47.3c.141-.036,14.315-7.219,14.445-7.285a3.6,3.6,0,0,1,3.652.445c.831.639,1.717,1.2,2.562,1.8a.767.767,0,0,1-.031,1.289Z" transform="translate(0 15.464)"/>
    </g>
  </g>
</svg>
