<svg xmlns="http://www.w3.org/2000/svg" width="120" height="120" viewBox="0 0 120 120">
  <g id="Grupo_150383" data-name="Grupo 150383" transform="translate(-320 -1322.91)">
    <g id="Elipse_5629" data-name="Elipse 5629" transform="translate(320 1322.91)" fill="#fff" stroke="#77b43a" stroke-width="4">
      <circle cx="60" cy="60" r="60" stroke="none"/>
      <circle cx="60" cy="60" r="58" fill="none"/>
    </g>
    <g id="layer1" transform="translate(338.561 1339.458)">
      <path id="path4919" d="M18.5,39.465V20.373a4.081,4.081,0,0,1,4.091-4.091H29.41v5.455l10.909-9.546L29.41,2.646V8.1H19.864a9.524,9.524,0,0,0-9.546,9.545V34.009Z" transform="translate(40.666 8.793)" fill="#f85316"/>
      <path id="path4904" d="M22.612,39.465V20.373a4.081,4.081,0,0,0-4.091-4.091H11.7v5.455L.794,12.192,11.7,2.646V8.1h9.546a9.524,9.524,0,0,1,9.546,9.545V34.009Z" transform="translate(0.645 8.794)" fill="#f85316"/>
      <path id="path4891" d="M12.179,19.887l-.11-8.181H6.615L16.16.794l9.546,10.912H20.251l.019,8.181Z" transform="translate(25.279 1.099)" fill="#3d46c2"/>
      <path id="path4874" d="M7.991,10.595a10.962,10.962,0,0,0-7.2,10.342v1.832a5.463,5.463,0,0,0,5.455,5.495H17.158a5.461,5.461,0,0,0,5.452-5.495V20.937a10.96,10.96,0,0,0-7.194-10.342Z" transform="translate(1.1 41.812)" fill="#75b62f"/>
      <path id="path4859" d="M19.1,10.595a10.962,10.962,0,0,0-7.2,10.342v1.832a5.463,5.463,0,0,0,5.455,5.495H28.27a5.461,5.461,0,0,0,5.452-5.495V20.937a10.96,10.96,0,0,0-7.194-10.342Z" transform="translate(47.26 41.812)" fill="#75b62f"/>
      <path id="path4813" d="M36.127,34.392,15.519,29.1a4.218,4.218,0,0,0-2.173,8.151l24.3,6.543c3.648.71,5.3-1.22,5.3-3.943V27.57A19.05,19.05,0,0,0,29.9,9.449H17.806A19.05,19.05,0,0,0,4.763,27.57V39.846c0,2.724,1.651,4.653,5.3,3.943l24.3-6.543A4.218,4.218,0,0,0,32.189,29.1l-20.608,5.3Z" transform="translate(17.585 37.052)" fill="#dce736"/>
      <g id="Grupo_150382" data-name="Grupo 150382" transform="translate(7.346 29.168)">
        <path id="ellipse4779" d="M25.706,15.632A9.546,9.546,0,1,1,16.16,6.086a9.546,9.546,0,0,1,9.546,9.546Z" transform="translate(17.933 -6.086)" fill="#ffd1b5"/>
        <path id="circle4781" d="M23.874,14.186a5.455,5.455,0,1,1-5.455-5.455A5.455,5.455,0,0,1,23.874,14.186Z" transform="translate(44.311 4.903)" fill="#ffd1b5"/>
        <path id="circle4783" d="M12.761,14.186A5.455,5.455,0,1,1,7.306,8.731,5.455,5.455,0,0,1,12.761,14.186Z" transform="translate(-1.852 4.903)" fill="#ffd1b5"/>
      </g>
      <path id="path4876" d="M14.048,11.333a11,11,0,0,0-2.141,6.536V19.7A5.458,5.458,0,0,0,16,25v-5.26A19.063,19.063,0,0,0,14.048,11.333Z" transform="translate(47.26 44.88)" fill="#c4dcf0"/>
      <path id="Ic_08" d="M41.439.529a1.362,1.362,0,0,0-1.025.463L30.871,11.9A1.365,1.365,0,0,0,31.9,14.172H36l.091,6.835a1.365,1.365,0,1,0,2.73-.04l-.112-8.174a1.366,1.366,0,0,0-1.358-1.35H34.906l6.533-7.468,6.533,7.468H45.527a1.363,1.363,0,0,0-1.358,1.369l.021,8.174a1.364,1.364,0,1,0,2.727,0L46.9,14.172h4.086A1.365,1.365,0,0,0,52.01,11.9L42.467.993A1.367,1.367,0,0,0,41.439.529ZM12.8,10.075a1.364,1.364,0,0,0-.89.341L1,19.959a1.364,1.364,0,0,0,0,2.054l10.912,9.543a1.365,1.365,0,0,0,2.267-1.028V26.442h5.444a2.69,2.69,0,0,1,2.725,2.727V48.256a1.365,1.365,0,1,0,2.73,0V29.17a5.473,5.473,0,0,0-5.455-5.455H12.8a1.363,1.363,0,0,0-1.358,1.358v2.456L3.976,20.985l7.468-6.542V16.9A1.363,1.363,0,0,0,12.8,18.257h9.54a8.139,8.139,0,0,1,8.185,8.185V38.713a10.87,10.87,0,0,0,2.693,7.165,20.467,20.467,0,0,0-10.254,9.938,12.276,12.276,0,0,0-4.376-3.969,6.813,6.813,0,1,0-11.575,0A12.362,12.362,0,0,0,.532,62.754v1.83A6.849,6.849,0,0,0,7.348,71.44H18.259a6.772,6.772,0,0,0,2.725-.567V76.9A5.505,5.505,0,0,0,22.747,81.2a6.035,6.035,0,0,0,5.21.967l13.474-3.625,13.493,3.625a6.067,6.067,0,0,0,5.2-.967,5.456,5.456,0,0,0,1.771-4.278V70.872a6.805,6.805,0,0,0,2.727.567H75.533a6.847,6.847,0,0,0,6.813-6.856v-1.83a12.36,12.36,0,0,0-6.483-10.907,6.823,6.823,0,1,0-11.58,0,12.275,12.275,0,0,0-4.371,3.966,20.468,20.468,0,0,0-10.254-9.938,10.866,10.866,0,0,0,2.693-7.165V26.442a8.13,8.13,0,0,1,8.174-8.185h9.551A1.363,1.363,0,0,0,71.434,16.9V14.443l7.471,6.542-7.471,6.544V25.073a1.363,1.363,0,0,0-1.358-1.358H63.25a5.461,5.461,0,0,0-5.441,5.455V46.9a1.358,1.358,0,1,0,2.717,0V29.17a2.69,2.69,0,0,1,2.725-2.727h5.457v4.086a1.363,1.363,0,0,0,2.264,1.028l10.912-9.543a1.364,1.364,0,0,0,0-2.054L70.971,10.416a1.363,1.363,0,0,0-2.264,1.025V15.53H60.525a10.911,10.911,0,0,0-10.9,10.912s0,2.658,0,5.066a10.885,10.885,0,0,0-16.369,0V26.442A10.918,10.918,0,0,0,22.345,15.53H14.174V11.442A1.367,1.367,0,0,0,12.8,10.075ZM41.442,30.528a8.185,8.185,0,1,1-8.185,8.185A8.2,8.2,0,0,1,41.442,30.528ZM12.752,44.171a4.091,4.091,0,1,1-4.032,4.086A4.094,4.094,0,0,1,12.752,44.171Zm57.276,0a4.091,4.091,0,1,1-4.046,4.086A4.1,4.1,0,0,1,70.028,44.171ZM35.55,47.889a10.869,10.869,0,0,0,11.783,0A17.678,17.678,0,0,1,59.167,64.626v12.3a2.728,2.728,0,0,1-.8,2.195c-.487.41-1.317.682-2.866.384l-8.816-2.373L52.3,75.619a5.613,5.613,0,0,0,3.944-6.845,5.512,5.512,0,0,0-2.536-3.335v-.812a1.364,1.364,0,1,0-2.727.013,6.216,6.216,0,0,0-1.55.186L31.9,69.333V64.626a1.364,1.364,0,0,0-2.727,0v5.407l-.341.088a1.366,1.366,0,0,0,.674,2.648l20.615-5.3A2.852,2.852,0,1,1,51.6,72.982L27.384,79.5c-1.554.3-2.384.028-2.871-.384a2.782,2.782,0,0,1-.794-2.224V64.626A17.676,17.676,0,0,1,35.55,47.889ZM16.611,53.911a9.585,9.585,0,0,1,5.09,5.332,20.572,20.572,0,0,0-.714,5.383v3.039a4.021,4.021,0,0,1-2.727,1.047H7.35a4.066,4.066,0,0,1-4.086-4.128v-1.83A9.588,9.588,0,0,1,9,53.914a6.764,6.764,0,0,0,7.607,0Zm49.662,0a6.766,6.766,0,0,0,7.6.005,9.6,9.6,0,0,1,5.745,8.838v1.83a4.066,4.066,0,0,1-4.086,4.128H64.624a4.026,4.026,0,0,1-2.73-1.047V64.624a20.539,20.539,0,0,0-.711-5.38,9.589,9.589,0,0,1,5.09-5.332ZM46.894,56.439a1.364,1.364,0,1,0,0,2.727h4.091a1.364,1.364,0,1,0,0-2.727Z" transform="translate(0 0)"/>
    </g>
  </g>
</svg>
