<svg xmlns="http://www.w3.org/2000/svg" width="120" height="120" viewBox="0 0 120 120">
  <g id="Grupo_150455" data-name="Grupo 150455" transform="translate(-320 -751)">
    <g id="Elipse_5609" data-name="Elipse 5609" transform="translate(320 751)" fill="#fff" stroke="#77b43a" stroke-width="4">
      <circle cx="60" cy="60" r="60" stroke="none"/>
      <circle cx="60" cy="60" r="58" fill="none"/>
    </g>
    <g id="marcador-de-decision" transform="translate(338.418 764.127)">
      <g id="Grupo_150453" data-name="Grupo 150453" transform="translate(1.592 1.207)">
        <g id="Grupo_150448" data-name="Grupo 150448" transform="translate(35.995 19.847)">
          <path id="Trazado_204290" data-name="Trazado 204290" d="M265.087,137.221v-6.388l10.459,10.383L265.087,151.6V145.21H262.32a22.769,22.769,0,0,0-22.769,22.769h-7.989a30.758,30.758,0,0,1,30.758-30.758h2.767Z" transform="translate(-231.562 -130.833)" fill="#f85316"/>
        </g>
        <g id="Grupo_150450" data-name="Grupo 150450" transform="translate(0 19.847)">
          <path id="Trazado_204292" data-name="Trazado 204292" d="M18.344,137.221v-6.388L7.885,141.216,18.344,151.6V145.21H21.11A22.769,22.769,0,0,1,43.88,167.979h7.989a30.758,30.758,0,0,0-30.758-30.758H18.344Z" transform="translate(-7.885 -130.833)" fill="#dce736"/>
        </g>
        <path id="Trazado_204294" data-name="Trazado 204294" d="M212.631,17.959,202.249,7.5,191.866,17.959h6.388v62.2h7.989v-62.2Z" transform="translate(-162.259 -7.5)" fill="#75b62f"/>
        <g id="Grupo_150452" data-name="Grupo 150452" transform="translate(22.958 62.948)">
          <path id="Trazado_204296" data-name="Trazado 204296" d="M150.552,415.7a17.031,17.031,0,1,1,34.062,0Z" transform="translate(-150.552 -398.667)" fill="#3d46c2"/>
        </g>
      </g>
      <g id="Grupo_150454" data-name="Grupo 150454" transform="translate(0.385 0)">
        <path id="Trazado_204298" data-name="Trazado 204298" d="M82.421,30.58,71.962,20.2a1.216,1.216,0,0,0-2.057.857v5.181c-8.555-.062-16.724,2.53-23.122,8.37V12.872h5.181a1.216,1.216,0,0,0,.856-2.057L42.438.356a1.207,1.207,0,0,0-1.713,0L30.342,10.815a1.216,1.216,0,0,0,.856,2.057H36.38V34.6a31.93,31.93,0,0,0-6.7-4.706,1.207,1.207,0,0,0-1.124,2.136,29.554,29.554,0,0,1,7.82,5.961v9.728c-4.718-9.668-14.1-13.5-24.329-13.5a1.207,1.207,0,0,0-1.207,1.207V38.92L3.305,31.436l7.539-7.484v3.489a1.207,1.207,0,0,0,1.207,1.207,39.058,39.058,0,0,1,10.892,1.131,1.207,1.207,0,0,0,.662-2.321,36.12,36.12,0,0,0-10.347-1.223V21.054A1.216,1.216,0,0,0,11.2,20.2L.742,30.58a1.207,1.207,0,0,0,0,1.713L11.2,42.675a1.216,1.216,0,0,0,2.057-.857V36.638c12.4-.149,23,8.734,23.122,21.575V63.7A18.271,18.271,0,0,0,23.344,81.185a1.207,1.207,0,0,0,2.414,0C25.593,68.7,40.189,60.947,50.428,68.063a1.207,1.207,0,0,0,1.351-2,18.139,18.139,0,0,0-5-2.363V58.2c0-12.833,10.827-21.711,23.122-21.562v5.181a1.216,1.216,0,0,0,2.057.857L82.421,32.293a1.207,1.207,0,0,0,0-1.713ZM45.576,10.458a1.207,1.207,0,0,0-1.207,1.207V37.4a1.216,1.216,0,0,0,0,.263v25.5a18.386,18.386,0,0,0-5.575,0V11.665a1.207,1.207,0,0,0-1.207-1.207H34.1L41.582,2.92l7.484,7.539ZM72.319,38.92V35.431a1.207,1.207,0,0,0-1.207-1.207c-10.226,0-19.61,3.825-24.329,13.5V37.992c6.517-6.949,15.083-9.344,24.329-9.344a1.207,1.207,0,0,0,1.207-1.207V23.952l7.539,7.484Z" transform="translate(-0.385 0)"/>
        <path id="Trazado_204299" data-name="Trazado 204299" d="M90.533,403.9a1.207,1.207,0,0,0-1.657.411c-.345.572-.674,1.163-.98,1.757a1.207,1.207,0,0,0,.52,1.625,1.224,1.224,0,0,0,1.626-.521c.281-.546.585-1.09.9-1.616A1.207,1.207,0,0,0,90.533,403.9Z" transform="translate(-73.702 -338.757)"/>
        <path id="Trazado_204300" data-name="Trazado 204300" d="M74.891,442.9a1.207,1.207,0,0,0-1.512.791c-.2.637-.379,1.289-.536,1.938a1.207,1.207,0,0,0,.89,1.456,1.284,1.284,0,0,0,1.456-.89c.144-.6.31-1.2.493-1.783A1.207,1.207,0,0,0,74.891,442.9Z" transform="translate(-61.155 -371.582)"/>
        <path id="Trazado_204301" data-name="Trazado 204301" d="M113.437,370.2c-.468.475-.927.972-1.364,1.477a1.207,1.207,0,1,0,1.827,1.578c.4-.465.824-.923,1.256-1.36a1.207,1.207,0,0,0-1.718-1.7Z" transform="translate(-93.854 -310.329)"/>
        <path id="Trazado_204302" data-name="Trazado 204302" d="M182.215,327.993a1.206,1.206,0,0,0,.452-.088c.569-.23,1.153-.444,1.736-.635a1.207,1.207,0,0,0-.754-2.293c-.633.208-1.268.441-1.887.691a1.207,1.207,0,0,0,.453,2.326Z" transform="translate(-151.941 -272.63)"/>
        <path id="Trazado_204303" data-name="Trazado 204303" d="M144.654,346.551a1.2,1.2,0,0,0,.7-.226c.5-.358,1.017-.7,1.538-1.028a1.207,1.207,0,0,0-1.274-2.05c-.567.352-1.129.728-1.671,1.117a1.207,1.207,0,0,0,.7,2.188Z" transform="translate(-120.425 -287.858)"/>
        <path id="Trazado_204304" data-name="Trazado 204304" d="M69.123,485.015a1.207,1.207,0,0,0-1.283,1.126c-.043.665-.065,1.34-.065,2.008a1.207,1.207,0,1,0,2.414,0c0-.615.02-1.238.06-1.85A1.207,1.207,0,0,0,69.123,485.015Z" transform="translate(-56.93 -406.963)"/>
        <path id="Trazado_204305" data-name="Trazado 204305" d="M309,326.437c-.619-.25-1.254-.483-1.887-.691a1.207,1.207,0,0,0-.754,2.293c.583.191,1.166.405,1.736.635a1.265,1.265,0,0,0,1.572-.666A1.207,1.207,0,0,0,309,326.437Z" transform="translate(-256.431 -273.275)"/>
        <path id="Trazado_204306" data-name="Trazado 204306" d="M407.38,406.836c-.306-.594-.635-1.185-.98-1.757a1.207,1.207,0,1,0-2.068,1.245c.317.526.62,1.07.9,1.616a1.224,1.224,0,0,0,1.626.521A1.207,1.207,0,0,0,407.38,406.836Z" transform="translate(-339.183 -339.402)"/>
        <path id="Trazado_204307" data-name="Trazado 204307" d="M430.732,485.784a1.207,1.207,0,0,0-1.126,1.283c.04.613.06,1.235.06,1.85a1.207,1.207,0,0,0,2.414,0c0-.668-.022-1.343-.065-2.008A1.207,1.207,0,0,0,430.732,485.784Z" transform="translate(-360.533 -407.608)"/>
        <path id="Trazado_204308" data-name="Trazado 204308" d="M423.764,447.857a1.207,1.207,0,0,0,.89-1.456c-.157-.649-.337-1.3-.536-1.938a1.207,1.207,0,0,0-2.3.721c.183.586.349,1.186.493,1.783A1.284,1.284,0,0,0,423.764,447.857Z" transform="translate(-353.951 -372.228)"/>
        <path id="Trazado_204309" data-name="Trazado 204309" d="M379.918,370.974a1.207,1.207,0,1,0-1.718,1.7c.431.437.854.895,1.255,1.36a1.207,1.207,0,0,0,1.827-1.578C380.845,371.946,380.387,371.449,379.918,370.974Z" transform="translate(-317.109 -310.974)"/>
        <path id="Trazado_204310" data-name="Trazado 204310" d="M346.458,347.094a1.207,1.207,0,1,0,1.407-1.962c-.542-.389-1.1-.765-1.671-1.117a1.207,1.207,0,1,0-1.274,2.05C345.442,346.39,345.959,346.736,346.458,347.094Z" transform="translate(-288.998 -288.503)"/>
        <path id="Trazado_204311" data-name="Trazado 204311" d="M336.211,436.667a1.207,1.207,0,0,0-.3,1.681,15.725,15.725,0,0,1,2.843,9.053,1.207,1.207,0,0,0,2.414,0,18.127,18.127,0,0,0-3.279-10.435A1.207,1.207,0,0,0,336.211,436.667Z" transform="translate(-281.736 -366.215)"/>
      </g>
    </g>
  </g>
</svg>
