<svg xmlns="http://www.w3.org/2000/svg" width="610" height="400" viewBox="0 0 610 400">
  <g id="Grupo_150360" data-name="Grupo 150360" transform="translate(-725 -1794.571)">
    <rect id="Rectángulo_41834" data-name="Rectángulo 41834" width="610" height="400" transform="translate(725 1794.571)" fill="#f3f9ff"/>
    <path id="Trazado_206286" data-name="Trazado 206286" d="M131.279,19h-2.93V12.906h-5.713V19h-2.93V4.781h2.93v5.762h5.713V4.781h2.93Zm5.352,0H133.8V8.434h2.832Zm-3-13.3a1.39,1.39,0,0,1,.425-1.045,1.831,1.831,0,0,1,2.31,0A1.382,1.382,0,0,1,136.8,5.7a1.386,1.386,0,0,1-.435,1.055,1.81,1.81,0,0,1-2.295,0A1.386,1.386,0,0,1,133.633,5.7Zm8.7.137v2.6h1.807V10.5h-1.807v5.273a1.259,1.259,0,0,0,.225.84,1.128,1.128,0,0,0,.859.254,4.5,4.5,0,0,0,.83-.068v2.139a5.81,5.81,0,0,1-1.709.254q-2.969,0-3.027-3V10.5h-1.543V8.434h1.543v-2.6Zm2.646,7.783a6.267,6.267,0,0,1,.605-2.8,4.432,4.432,0,0,1,1.743-1.9,5.086,5.086,0,0,1,2.642-.674,4.812,4.812,0,0,1,3.491,1.309,5.252,5.252,0,0,1,1.509,3.555l.02.723a5.523,5.523,0,0,1-1.357,3.9,5.261,5.261,0,0,1-7.29,0,5.62,5.62,0,0,1-1.362-3.984Zm2.822.2a3.95,3.95,0,0,0,.566,2.3,2.035,2.035,0,0,0,3.223.01,4.322,4.322,0,0,0,.576-2.518,3.91,3.91,0,0,0-.576-2.289,1.873,1.873,0,0,0-1.621-.812,1.842,1.842,0,0,0-1.6.807A4.395,4.395,0,0,0,147.8,13.819Zm14.648,2.261a.909.909,0,0,0-.513-.815,5.824,5.824,0,0,0-1.646-.532q-3.77-.791-3.77-3.2a2.9,2.9,0,0,1,1.167-2.349,4.708,4.708,0,0,1,3.052-.942,5.067,5.067,0,0,1,3.218.947,2.985,2.985,0,0,1,1.206,2.461h-2.822a1.366,1.366,0,0,0-.391-1,1.653,1.653,0,0,0-1.221-.4,1.689,1.689,0,0,0-1.1.322,1.017,1.017,0,0,0-.391.82.87.87,0,0,0,.444.757,4.571,4.571,0,0,0,1.5.5,12.244,12.244,0,0,1,1.777.474,2.92,2.92,0,0,1,2.236,2.842,2.756,2.756,0,0,1-1.24,2.339,5.35,5.35,0,0,1-3.2.894,5.588,5.588,0,0,1-2.358-.474,3.957,3.957,0,0,1-1.616-1.3,3.018,3.018,0,0,1-.586-1.782h2.676a1.473,1.473,0,0,0,.557,1.152,2.208,2.208,0,0,0,1.387.4,2.044,2.044,0,0,0,1.226-.308A.957.957,0,0,0,162.451,16.08Zm9.1-2.441A6.368,6.368,0,0,1,172.661,9.7a3.6,3.6,0,0,1,3.032-1.465,3.236,3.236,0,0,1,2.549,1.152V4h2.832V19h-2.549l-.137-1.123a3.321,3.321,0,0,1-2.715,1.318,3.587,3.587,0,0,1-2.993-1.47A6.573,6.573,0,0,1,171.553,13.639Zm2.822.2a4.194,4.194,0,0,0,.518,2.286,1.685,1.685,0,0,0,1.5.795,1.888,1.888,0,0,0,1.846-1.109V11.622a1.861,1.861,0,0,0-1.826-1.109Q174.375,10.514,174.375,13.839Zm13.75,5.356a5.187,5.187,0,0,1-3.784-1.426,5.068,5.068,0,0,1-1.46-3.8V13.7a6.383,6.383,0,0,1,.615-2.847,4.515,4.515,0,0,1,1.743-1.934,4.893,4.893,0,0,1,2.573-.679,4.385,4.385,0,0,1,3.413,1.367,5.555,5.555,0,0,1,1.245,3.877v1.152h-6.729a2.622,2.622,0,0,0,.825,1.66,2.5,2.5,0,0,0,1.743.625,3.046,3.046,0,0,0,2.549-1.182l1.387,1.553a4.237,4.237,0,0,1-1.719,1.4A5.639,5.639,0,0,1,188.125,19.2Zm-.322-8.682a1.764,1.764,0,0,0-1.362.569,2.946,2.946,0,0,0-.669,1.628H189.7v-.226a2.1,2.1,0,0,0-.508-1.457A1.819,1.819,0,0,0,187.8,10.514ZM197.051,19h-2.832V4h2.832Zm16.816-5.186a6.337,6.337,0,0,1-1.108,3.911,3.554,3.554,0,0,1-2.993,1.47,3.292,3.292,0,0,1-2.588-1.113v4.98h-2.822V8.434h2.617l.1,1.035a3.317,3.317,0,0,1,2.676-1.23,3.578,3.578,0,0,1,3.037,1.445,6.509,6.509,0,0,1,1.084,3.984Zm-2.822-.215a4.182,4.182,0,0,0-.522-2.282,1.7,1.7,0,0,0-1.519-.8,1.847,1.847,0,0,0-1.826,1.019v4.339a1.879,1.879,0,0,0,1.846,1.048Q211.045,16.92,211.045,13.6Zm10.508-2.519A7.667,7.667,0,0,0,220.537,11a2.067,2.067,0,0,0-2.1,1.084V19h-2.822V8.434h2.666l.078,1.26a2.615,2.615,0,0,1,2.354-1.455,2.957,2.957,0,0,1,.879.127Zm.566,2.539a6.267,6.267,0,0,1,.605-2.8,4.432,4.432,0,0,1,1.743-1.9,5.086,5.086,0,0,1,2.642-.674A4.812,4.812,0,0,1,230.6,9.547a5.252,5.252,0,0,1,1.509,3.555l.02.723a5.523,5.523,0,0,1-1.357,3.9,5.261,5.261,0,0,1-7.29,0,5.62,5.62,0,0,1-1.362-3.984Zm2.822.2a3.95,3.95,0,0,0,.566,2.3,2.035,2.035,0,0,0,3.223.01,4.322,4.322,0,0,0,.576-2.518,3.91,3.91,0,0,0-.576-2.289,1.873,1.873,0,0,0-1.621-.812,1.842,1.842,0,0,0-1.6.807A4.395,4.395,0,0,0,224.941,13.819Zm12.725,1.186,1.953-6.572h3.027L238.4,20.641l-.234.557a3.221,3.221,0,0,1-3.125,2.07,4.441,4.441,0,0,1-1.25-.186V20.943l.43.01a2.322,2.322,0,0,0,1.2-.244,1.6,1.6,0,0,0,.62-.811l.332-.869-3.7-10.6H235.7ZM248.5,19.2a5.187,5.187,0,0,1-3.784-1.426,5.068,5.068,0,0,1-1.46-3.8V13.7a6.383,6.383,0,0,1,.615-2.847,4.515,4.515,0,0,1,1.743-1.934,4.893,4.893,0,0,1,2.573-.679A4.385,4.385,0,0,1,251.6,9.605a5.555,5.555,0,0,1,1.245,3.877v1.152h-6.729a2.622,2.622,0,0,0,.825,1.66,2.5,2.5,0,0,0,1.743.625,3.046,3.046,0,0,0,2.549-1.182l1.387,1.553a4.237,4.237,0,0,1-1.719,1.4A5.639,5.639,0,0,1,248.5,19.2Zm-.322-8.682a1.764,1.764,0,0,0-1.362.569,2.946,2.946,0,0,0-.669,1.628h3.926v-.226a2.1,2.1,0,0,0-.508-1.457A1.819,1.819,0,0,0,248.174,10.514Zm10.664,6.406a1.851,1.851,0,0,0,1.27-.43,1.506,1.506,0,0,0,.508-1.143h2.646a3.62,3.62,0,0,1-.586,1.968A3.866,3.866,0,0,1,261.1,18.7a4.936,4.936,0,0,1-2.212.493,4.587,4.587,0,0,1-3.574-1.44A5.7,5.7,0,0,1,254,13.775V13.59a5.635,5.635,0,0,1,1.3-3.9,4.534,4.534,0,0,1,3.564-1.455,4.444,4.444,0,0,1,3.179,1.128,3.994,3.994,0,0,1,1.216,3h-2.646a1.939,1.939,0,0,0-.508-1.34,1.887,1.887,0,0,0-2.778.2,4.166,4.166,0,0,0-.5,2.333v.293a4.219,4.219,0,0,0,.5,2.347A1.721,1.721,0,0,0,258.838,16.92Zm9.414-11.084v2.6h1.807V10.5h-1.807v5.273a1.259,1.259,0,0,0,.225.84,1.128,1.128,0,0,0,.859.254,4.5,4.5,0,0,0,.83-.068v2.139a5.81,5.81,0,0,1-1.709.254q-2.969,0-3.027-3V10.5h-1.543V8.434h1.543v-2.6Zm2.646,7.783a6.266,6.266,0,0,1,.605-2.8,4.432,4.432,0,0,1,1.743-1.9,5.086,5.086,0,0,1,2.642-.674,4.812,4.812,0,0,1,3.491,1.309,5.252,5.252,0,0,1,1.509,3.555l.02.723a5.523,5.523,0,0,1-1.357,3.9,5.261,5.261,0,0,1-7.29,0,5.62,5.62,0,0,1-1.362-3.984Zm2.822.2a3.95,3.95,0,0,0,.566,2.3,2.035,2.035,0,0,0,3.223.01,4.322,4.322,0,0,0,.576-2.518,3.91,3.91,0,0,0-.576-2.289,1.873,1.873,0,0,0-1.621-.812,1.842,1.842,0,0,0-1.6.807A4.395,4.395,0,0,0,273.721,13.819Z" transform="translate(830 1825.845)" fill="#12263f"/>
    <g id="Grupo_150359" data-name="Grupo 150359" transform="translate(0 15)">
      <g id="Trazado_203912" data-name="Trazado 203912" transform="translate(1239.076 2059.043)" fill="#f9f69d">
        <path d="M 55.40549087524414 62.91369247436523 L 9.887811660766602 62.91369247436523 L -7.922525405883789 31.33901214599609 L 9.876484870910645 1.000003695487976 L 55.41660308837891 1.000003695487976 L 72.00454711914062 31.3384895324707 L 55.40549087524414 62.91369247436523 Z" stroke="none"/>
        <path d="M 10.44921112060547 2 L -6.768890380859375 31.34881973266602 L 10.47186279296875 61.9136962890625 L 54.80142211914062 61.9136962890625 L 70.86990356445312 31.34778594970703 L 54.82364273071289 2 L 10.44921112060547 2 M 9.30377197265625 0 L 56.00954818725586 0 L 73.13918304443359 31.3292236328125 L 56.00954818725586 63.9136962890625 L 9.30377197265625 63.9136962890625 L -9.076179504394531 31.3292236328125 L 9.30377197265625 0 Z" stroke="none" fill="#dbe636"/>
      </g>
      <line id="Línea_520" data-name="Línea 520" x2="407.335" transform="translate(841.56 2005.273)" fill="none" stroke="#3e4bbf" stroke-width="2"/>
      <g id="Trazado_203905" data-name="Trazado 203905" transform="translate(765.041 1988.903)" fill="#d1d5fc">
        <path d="M 63.53470611572266 31.73904037475586 L 1.000000238418579 31.73904037475586 L 1.000000238418579 0.9999960660934448 L 63.48357391357422 0.9999960660934448 L 75.29030609130859 17.7094841003418 L 63.53470611572266 31.73904037475586 Z" stroke="none"/>
        <path d="M 1.999992370605469 2 L 1.999992370605469 30.73903656005859 L 63.06797790527344 30.73903656005859 L 74.02916717529297 17.65755271911621 L 62.96571350097656 2 L 1.999992370605469 2 M -7.62939453125e-06 0 L 64.00142669677734 0 L 76.55143737792969 17.76140022277832 L 64.00142669677734 32.73903656005859 L -7.62939453125e-06 32.73903656005859 L -7.62939453125e-06 0 Z" stroke="none" fill="#3e4bbf"/>
      </g>
      <g id="Trazado_203906" data-name="Trazado 203906" transform="translate(873.223 1988.903)" fill="#d1d5fc">
        <path d="M 62.70626831054688 31.73904037475586 L 10.44584178924561 31.73904037475586 L -2.175443887710571 17.70718574523926 L 10.49692058563232 0.9999960660934448 L 62.65513610839844 0.9999960660934448 L 74.46186828613281 17.7094841003418 L 62.70626831054688 31.73904037475586 Z" stroke="none"/>
        <path d="M 10.99355316162109 2 L -0.8791961669921875 17.65296936035156 L 10.89138031005859 30.73903656005859 L 62.23954010009766 30.73903656005859 L 73.20073699951172 17.65755271911621 L 62.13727951049805 2 L 10.99355316162109 2 M 10.00030899047852 0 L 63.17299270629883 0 L 75.72300720214844 17.76140022277832 L 63.17299270629883 32.73903656005859 L 10.00030899047852 32.73903656005859 L -3.4716796875 17.76140022277832 L 10.00030899047852 0 Z" stroke="none" fill="#3e4bbf"/>
      </g>
      <g id="Trazado_203908" data-name="Trazado 203908" transform="translate(1040.749 1988.903)" fill="#d1d5fc">
        <path d="M 62.70626831054688 31.73904037475586 L 10.44584178924561 31.73904037475586 L -2.175443887710571 17.70718574523926 L 10.49692058563232 0.9999960660934448 L 62.65513610839844 0.9999960660934448 L 74.46186828613281 17.7094841003418 L 62.70626831054688 31.73904037475586 Z" stroke="none"/>
        <path d="M 10.99355316162109 2 L -0.8791961669921875 17.65296936035156 L 10.89138031005859 30.73903656005859 L 62.23954010009766 30.73903656005859 L 73.20073699951172 17.65755271911621 L 62.13727951049805 2 L 10.99355316162109 2 M 10.00030899047852 0 L 63.17299270629883 0 L 75.72300720214844 17.76140022277832 L 63.17299270629883 32.73903656005859 L 10.00030899047852 32.73903656005859 L -3.4716796875 17.76140022277832 L 10.00030899047852 0 Z" stroke="none" fill="#3e4bbf"/>
      </g>
      <g id="Trazado_203909" data-name="Trazado 203909" transform="translate(1146.579 1988.903)" fill="#d1d5fc">
        <path d="M 62.70626831054688 31.73904037475586 L 10.44584178924561 31.73904037475586 L -2.175443887710571 17.70718574523926 L 10.49692058563232 0.9999960660934448 L 62.65513610839844 0.9999960660934448 L 74.46186828613281 17.7094841003418 L 62.70626831054688 31.73904037475586 Z" stroke="none"/>
        <path d="M 10.99355316162109 2 L -0.8791961669921875 17.65296936035156 L 10.89138031005859 30.73903656005859 L 62.23954010009766 30.73903656005859 L 73.20073699951172 17.65755271911621 L 62.13727951049805 2 L 10.99355316162109 2 M 10.00030899047852 0 L 63.17299270629883 0 L 75.72300720214844 17.76140022277832 L 63.17299270629883 32.73903656005859 L 10.00030899047852 32.73903656005859 L -3.4716796875 17.76140022277832 L 10.00030899047852 0 Z" stroke="none" fill="#3e4bbf"/>
      </g>
      <g id="Trazado_203907" data-name="Trazado 203907" transform="translate(966.472 1995.404)" fill="#bae887">
        <path d="M 46.82931137084961 18.73770141601562 L 7.1554274559021 18.73770141601562 L -2.028633117675781 10.64658546447754 L 7.204854011535645 1.000001668930054 L 46.77901840209961 1.000001668930054 L 55.26287078857422 10.64913082122803 L 46.82931137084961 18.73770141601562 Z" stroke="none"/>
        <path d="M 7.631935119628906 2.000001907348633 L -0.5855865478515625 10.58516979217529 L 7.533103942871094 17.73770141601562 L 46.42726898193359 17.73770141601562 L 53.87955093383789 10.59027004241943 L 46.32668304443359 2.000001907348633 L 7.631935119628906 2.000001907348633 M 6.777763366699219 1.9073486328125e-06 L 47.23134231567383 1.9073486328125e-06 L 56.64618301391602 10.70799160003662 L 47.23134231567383 19.73770141601562 L 6.777763366699219 19.73770141601562 L -3.4716796875 10.70799160003662 L 6.777763366699219 1.9073486328125e-06 Z" stroke="none" fill="#77b43a"/>
      </g>
      <g id="Trazado_203910" data-name="Trazado 203910" transform="translate(1239.469 1995.404)" fill="#bae887">
        <path d="M 52.80729675292969 18.73770141601562 L 7.392261028289795 18.73770141601562 L -2.010753154754639 10.64589691162109 L 7.441386699676514 1.000001668930054 L 52.80729675292969 1.000001668930054 L 52.80729675292969 18.73770141601562 Z" stroke="none"/>
        <path d="M 7.861545562744141 2.000001907348633 L -0.5498313903808594 10.58380889892578 L 7.763282775878906 17.73770141601562 L 51.80729675292969 17.73770141601562 L 51.80729675292969 2.000001907348633 L 7.861545562744141 2.000001907348633 M 7.021209716796875 1.9073486328125e-06 L 53.80729675292969 1.9073486328125e-06 L 53.80729675292969 19.73770141601562 L 7.021209716796875 19.73770141601562 L -3.4716796875 10.70799160003662 L 7.021209716796875 1.9073486328125e-06 Z" stroke="none" fill="#77b43a"/>
      </g>
      <line id="Línea_521" data-name="Línea 521" y1="22.841" transform="translate(800.174 1966.443)" fill="none" stroke="#3e4bbf" stroke-width="2"/>
      <line id="Línea_527" data-name="Línea 527" y1="22.841" transform="translate(1182.88 1966.443)" fill="none" stroke="#3e4bbf" stroke-width="2"/>
      <line id="Línea_522" data-name="Línea 522" y1="26.648" transform="translate(909.349 2021.643)" fill="none" stroke="#3e4bbf" stroke-width="2"/>
      <line id="Línea_523" data-name="Línea 523" y1="26.648" transform="translate(1076.874 2021.643)" fill="none" stroke="#3e4bbf" stroke-width="2"/>
      <line id="Línea_526" data-name="Línea 526" y1="26.648" transform="translate(993.059 1968.756)" fill="none" stroke="#3e4bbf" stroke-width="2"/>
      <path id="Trazado_203913" data-name="Trazado 203913" d="M0,34.348V0" transform="translate(1271.107 2015.142)" fill="none" stroke="#3e4bbf" stroke-width="2"/>
      <path id="Trazado_158597" data-name="Trazado 158597" d="M754.067,241.571h-9.023l4.511-4.511Z" transform="translate(243.502 1727.185)" fill="#3d46c2"/>
      <path id="Trazado_158597-2" data-name="Trazado 158597" d="M754.067,241.571h-9.023l4.511-4.511Z" transform="translate(50.443 1727.185)" fill="#3d46c2"/>
      <path id="Trazado_158597-3" data-name="Trazado 158597" d="M754.067,241.571h-9.023l4.511-4.511Z" transform="translate(433.149 1727.185)" fill="#3d46c2"/>
      <path id="Trazado_158597-4" data-name="Trazado 158597" d="M9.023,4.511H0L4.511,0Z" transform="translate(913.86 2051.746) rotate(180)" fill="#3d46c2"/>
      <path id="Trazado_158597-5" data-name="Trazado 158597" d="M9.023,4.511H0L4.511,0Z" transform="translate(1081.387 2051.746) rotate(180)" fill="#3d46c2"/>
      <path id="Trazado_158597-6" data-name="Trazado 158597" d="M9.023,4.511H0L4.511,0Z" transform="translate(1275.62 2051.746) rotate(180)" fill="#3d46c2"/>
      <g id="Trazado_203914" data-name="Trazado 203914" transform="translate(961.027 1889.728)" fill="#f9f69d">
        <path d="M 55.40549087524414 62.91369247436523 L 9.887811660766602 62.91369247436523 L -7.922525405883789 31.33901214599609 L 9.876484870910645 1.000003695487976 L 55.41660308837891 1.000003695487976 L 72.00454711914062 31.3384895324707 L 55.40549087524414 62.91369247436523 Z" stroke="none"/>
        <path d="M 10.44921112060547 2 L -6.768890380859375 31.34881973266602 L 10.47186279296875 61.9136962890625 L 54.80142211914062 61.9136962890625 L 70.86990356445312 31.34778594970703 L 54.82364273071289 2 L 10.44921112060547 2 M 9.30377197265625 0 L 56.00954818725586 0 L 73.13918304443359 31.3292236328125 L 56.00954818725586 63.9136962890625 L 9.30377197265625 63.9136962890625 L -9.076179504394531 31.3292236328125 L 9.30377197265625 0 Z" stroke="none" fill="#dbe636"/>
      </g>
      <path id="Trazado_206287" data-name="Trazado 206287" d="M-50.784-2.5V0h-1.465V-7.109h2.773a3.209,3.209,0,0,1,1.409.293,2.159,2.159,0,0,1,.935.833A2.321,2.321,0,0,1-46.8-4.756a2.041,2.041,0,0,1-.715,1.648,2.979,2.979,0,0,1-1.98.6Zm0-1.187h1.309a1.287,1.287,0,0,0,.886-.273,1,1,0,0,0,.305-.781,1.173,1.173,0,0,0-.308-.845,1.149,1.149,0,0,0-.85-.332h-1.343ZM-44.4,0h-1.416V-7.5H-44.4Zm4.224,0a1.567,1.567,0,0,1-.142-.474A1.707,1.707,0,0,1-41.653.1a1.876,1.876,0,0,1-1.287-.449,1.445,1.445,0,0,1-.51-1.133,1.493,1.493,0,0,1,.623-1.289,3.072,3.072,0,0,1,1.8-.454h.649v-.3a.871.871,0,0,0-.188-.586.74.74,0,0,0-.593-.22.841.841,0,0,0-.559.171.581.581,0,0,0-.2.469h-1.411a1.418,1.418,0,0,1,.283-.85,1.872,1.872,0,0,1,.8-.613,2.918,2.918,0,0,1,1.162-.222,2.306,2.306,0,0,1,1.55.491,1.717,1.717,0,0,1,.574,1.379v2.29a2.526,2.526,0,0,0,.21,1.138V0Zm-1.167-.981a1.215,1.215,0,0,0,.576-.139.914.914,0,0,0,.391-.374V-2.4h-.527q-1.06,0-1.128.732l0,.083a.565.565,0,0,0,.186.435A.721.721,0,0,0-41.345-.981Zm4.766-4.3.044.61a1.845,1.845,0,0,1,1.519-.708,1.533,1.533,0,0,1,1.25.493,2.3,2.3,0,0,1,.42,1.475V0h-1.411V-3.387a.919.919,0,0,0-.2-.653.873.873,0,0,0-.649-.2.97.97,0,0,0-.894.509V0h-1.411V-5.283ZM-30.789,0H-32.2V-5.283h1.416Zm-1.5-6.65a.7.7,0,0,1,.212-.522.8.8,0,0,1,.579-.205.8.8,0,0,1,.576.205.691.691,0,0,1,.215.522.693.693,0,0,1-.217.527.8.8,0,0,1-.574.205.8.8,0,0,1-.574-.205A.693.693,0,0,1-32.288-6.65Zm3,6.65V-4.248h-.786V-5.283h.786v-.244a1.981,1.981,0,0,1,.613-1.536,2.465,2.465,0,0,1,1.7-.54,5.644,5.644,0,0,1,1.6.288l-.205,1.167a6.249,6.249,0,0,0-.742-.183,3.647,3.647,0,0,0-.566-.042q-.986,0-.986.874v.215h1.04v1.035h-1.04V0Zm4.575,0h-1.416V-5.283h1.416Zm3.364-1.04a.926.926,0,0,0,.635-.215.753.753,0,0,0,.254-.571h1.323a1.81,1.81,0,0,1-.293.984,1.933,1.933,0,0,1-.789.693A2.468,2.468,0,0,1-21.321.1a2.294,2.294,0,0,1-1.787-.72,2.85,2.85,0,0,1-.654-1.99v-.093a2.817,2.817,0,0,1,.649-1.948,2.267,2.267,0,0,1,1.782-.728,2.222,2.222,0,0,1,1.589.564,2,2,0,0,1,.608,1.5h-1.323a.97.97,0,0,0-.254-.67.847.847,0,0,0-.645-.258.85.85,0,0,0-.745.359,2.083,2.083,0,0,0-.251,1.166v.147A2.109,2.109,0,0,0-22.1-1.4.861.861,0,0,0-21.345-1.04ZM-15.266,0a1.567,1.567,0,0,1-.142-.474A1.707,1.707,0,0,1-16.741.1a1.876,1.876,0,0,1-1.287-.449,1.445,1.445,0,0,1-.51-1.133,1.493,1.493,0,0,1,.623-1.289,3.072,3.072,0,0,1,1.8-.454h.649v-.3a.871.871,0,0,0-.188-.586.74.74,0,0,0-.593-.22.841.841,0,0,0-.559.171.581.581,0,0,0-.2.469H-18.42a1.417,1.417,0,0,1,.283-.85,1.872,1.872,0,0,1,.8-.613,2.918,2.918,0,0,1,1.162-.222,2.306,2.306,0,0,1,1.55.491,1.717,1.717,0,0,1,.574,1.379v2.29a2.526,2.526,0,0,0,.21,1.138V0Zm-1.167-.981a1.215,1.215,0,0,0,.576-.139.914.914,0,0,0,.391-.374V-2.4h-.527q-1.06,0-1.128.732l0,.083a.565.565,0,0,0,.186.435A.721.721,0,0,0-16.433-.981Zm5.664-.059a.926.926,0,0,0,.635-.215.753.753,0,0,0,.254-.571h1.323a1.81,1.81,0,0,1-.293.984,1.933,1.933,0,0,1-.789.693A2.468,2.468,0,0,1-10.745.1a2.294,2.294,0,0,1-1.787-.72,2.85,2.85,0,0,1-.654-1.99v-.093a2.817,2.817,0,0,1,.649-1.948,2.267,2.267,0,0,1,1.782-.728,2.222,2.222,0,0,1,1.589.564,2,2,0,0,1,.608,1.5H-9.88a.97.97,0,0,0-.254-.67.847.847,0,0,0-.645-.258.85.85,0,0,0-.745.359,2.083,2.083,0,0,0-.251,1.166v.147A2.109,2.109,0,0,0-11.526-1.4.861.861,0,0,0-10.769-1.04ZM-6.262,0H-7.678V-5.283h1.416Zm-1.5-6.65a.7.7,0,0,1,.212-.522.8.8,0,0,1,.579-.205.8.8,0,0,1,.576.205.691.691,0,0,1,.215.522.693.693,0,0,1-.217.527.8.8,0,0,1-.574.205.8.8,0,0,1-.574-.205A.693.693,0,0,1-7.761-6.65ZM-5.32-2.69a3.133,3.133,0,0,1,.3-1.4,2.216,2.216,0,0,1,.872-.952,2.543,2.543,0,0,1,1.321-.337,2.406,2.406,0,0,1,1.746.654A2.626,2.626,0,0,1-.325-2.949l.01.361A2.761,2.761,0,0,1-.994-.637,2.359,2.359,0,0,1-2.815.1,2.371,2.371,0,0,1-4.639-.635,2.81,2.81,0,0,1-5.32-2.627Zm1.411.1a1.975,1.975,0,0,0,.283,1.152.934.934,0,0,0,.811.4.936.936,0,0,0,.8-.394,2.161,2.161,0,0,0,.288-1.259,1.955,1.955,0,0,0-.288-1.144.936.936,0,0,0-.811-.406.921.921,0,0,0-.8.4A2.2,2.2,0,0,0-3.909-2.59ZM-2.546-7.5h1.538L-2.361-5.986H-3.508Zm4.4,2.217.044.61a1.845,1.845,0,0,1,1.519-.708,1.533,1.533,0,0,1,1.25.493,2.3,2.3,0,0,1,.42,1.475V0H3.674V-3.387a.919.919,0,0,0-.2-.653.873.873,0,0,0-.649-.2.97.97,0,0,0-.894.509V0H.525V-5.283ZM8.987,0V-4.248H8.2V-5.283h.786v-.244A1.981,1.981,0,0,1,9.6-7.063a2.465,2.465,0,0,1,1.7-.54,5.644,5.644,0,0,1,1.6.288L12.7-6.147a6.249,6.249,0,0,0-.742-.183,3.647,3.647,0,0,0-.566-.042q-.986,0-.986.874v.215h1.04v1.035H10.4V0Zm4.575,0H12.146V-5.283h1.416Zm2.466-5.283.044.61a1.845,1.845,0,0,1,1.519-.708,1.533,1.533,0,0,1,1.25.493,2.3,2.3,0,0,1,.42,1.475V0H17.849V-3.387a.919.919,0,0,0-.2-.653.873.873,0,0,0-.649-.2.97.97,0,0,0-.894.509V0H14.7V-5.283ZM23.391,0a1.567,1.567,0,0,1-.142-.474A1.707,1.707,0,0,1,21.917.1,1.876,1.876,0,0,1,20.63-.352a1.445,1.445,0,0,1-.51-1.133,1.493,1.493,0,0,1,.623-1.289,3.072,3.072,0,0,1,1.8-.454h.649v-.3A.871.871,0,0,0,23-4.116a.74.74,0,0,0-.593-.22.841.841,0,0,0-.559.171.581.581,0,0,0-.2.469H20.237a1.417,1.417,0,0,1,.283-.85,1.872,1.872,0,0,1,.8-.613,2.918,2.918,0,0,1,1.162-.222,2.306,2.306,0,0,1,1.55.491,1.717,1.717,0,0,1,.574,1.379v2.29a2.526,2.526,0,0,0,.21,1.138V0ZM22.224-.981a1.215,1.215,0,0,0,.576-.139.914.914,0,0,0,.391-.374V-2.4h-.527q-1.06,0-1.128.732l0,.083a.565.565,0,0,0,.186.435A.721.721,0,0,0,22.224-.981Zm4.766-4.3.044.61a1.845,1.845,0,0,1,1.519-.708,1.533,1.533,0,0,1,1.25.493,2.3,2.3,0,0,1,.42,1.475V0H28.811V-3.387a.919.919,0,0,0-.2-.653.873.873,0,0,0-.649-.2.97.97,0,0,0-.894.509V0H25.662V-5.283Zm6.5,4.243a.926.926,0,0,0,.635-.215.753.753,0,0,0,.254-.571H35.7a1.81,1.81,0,0,1-.293.984,1.933,1.933,0,0,1-.789.693A2.468,2.468,0,0,1,33.513.1a2.294,2.294,0,0,1-1.787-.72,2.85,2.85,0,0,1-.654-1.99v-.093a2.817,2.817,0,0,1,.649-1.948A2.267,2.267,0,0,1,33.5-5.381a2.222,2.222,0,0,1,1.589.564,2,2,0,0,1,.608,1.5H34.377a.97.97,0,0,0-.254-.67.847.847,0,0,0-.645-.258.85.85,0,0,0-.745.359,2.083,2.083,0,0,0-.251,1.166v.147A2.109,2.109,0,0,0,32.732-1.4.861.861,0,0,0,33.489-1.04ZM38,0H36.58V-5.283H38ZM36.5-6.65a.7.7,0,0,1,.212-.522.8.8,0,0,1,.579-.205.8.8,0,0,1,.576.205.691.691,0,0,1,.215.522.693.693,0,0,1-.217.527.8.8,0,0,1-.574.205.8.8,0,0,1-.574-.205A.693.693,0,0,1,36.5-6.65ZM41.589.1A2.594,2.594,0,0,1,39.7-.615a2.534,2.534,0,0,1-.73-1.9v-.137a3.192,3.192,0,0,1,.308-1.423,2.258,2.258,0,0,1,.872-.967,2.446,2.446,0,0,1,1.287-.339A2.193,2.193,0,0,1,43.14-4.7a2.778,2.778,0,0,1,.623,1.938v.576H40.4a1.311,1.311,0,0,0,.413.83,1.247,1.247,0,0,0,.872.313,1.523,1.523,0,0,0,1.274-.591l.693.776a2.118,2.118,0,0,1-.859.7A2.819,2.819,0,0,1,41.589.1Zm-.161-4.341a.882.882,0,0,0-.681.284,1.473,1.473,0,0,0-.334.814h1.963v-.113a1.051,1.051,0,0,0-.254-.728A.91.91,0,0,0,41.428-4.243Zm6.1.283A3.834,3.834,0,0,0,47.024-4a1.034,1.034,0,0,0-1.05.542V0H44.563V-5.283H45.9l.039.63a1.308,1.308,0,0,1,1.177-.728,1.479,1.479,0,0,1,.439.063ZM51.125,0a1.567,1.567,0,0,1-.142-.474A1.707,1.707,0,0,1,49.651.1a1.876,1.876,0,0,1-1.287-.449,1.445,1.445,0,0,1-.51-1.133,1.493,1.493,0,0,1,.623-1.289,3.072,3.072,0,0,1,1.8-.454h.649v-.3a.871.871,0,0,0-.188-.586.74.74,0,0,0-.593-.22.841.841,0,0,0-.559.171.581.581,0,0,0-.2.469H47.971a1.418,1.418,0,0,1,.283-.85,1.872,1.872,0,0,1,.8-.613,2.918,2.918,0,0,1,1.162-.222,2.306,2.306,0,0,1,1.55.491,1.717,1.717,0,0,1,.574,1.379v2.29a2.526,2.526,0,0,0,.21,1.138V0ZM49.958-.981a1.215,1.215,0,0,0,.576-.139.914.914,0,0,0,.391-.374V-2.4H50.4q-1.06,0-1.128.732l0,.083a.565.565,0,0,0,.186.435A.721.721,0,0,0,49.958-.981ZM-14.3,8.909h-2.812v1.914h3.3V12h-4.766V4.891h4.756V6.077h-3.291V7.771H-14.3Zm2.578-2.192.044.591a1.857,1.857,0,0,1,1.519-.688,1.409,1.409,0,0,1,1.4.806,1.814,1.814,0,0,1,1.587-.806,1.576,1.576,0,0,1,1.279.5,2.3,2.3,0,0,1,.42,1.506V12H-6.885V8.623a1.01,1.01,0,0,0-.176-.658.778.778,0,0,0-.62-.208.881.881,0,0,0-.879.607l0,3.636H-9.966V8.628a1,1,0,0,0-.181-.666.786.786,0,0,0-.615-.206.914.914,0,0,0-.869.5V12h-1.411V6.717ZM.371,9.407a3.169,3.169,0,0,1-.554,1.956,1.777,1.777,0,0,1-1.5.735,1.646,1.646,0,0,1-1.294-.557v2.49H-4.385V6.717h1.309l.049.518a1.659,1.659,0,0,1,1.338-.615,1.789,1.789,0,0,1,1.519.723A3.254,3.254,0,0,1,.371,9.334ZM-1.04,9.3A2.091,2.091,0,0,0-1.3,8.158a.85.85,0,0,0-.759-.4.924.924,0,0,0-.913.509v2.17a.939.939,0,0,0,.923.524Q-1.04,10.96-1.04,9.3ZM2.734,12H1.318V6.717H2.734Zm-1.5-6.65a.7.7,0,0,1,.212-.522.8.8,0,0,1,.579-.205.8.8,0,0,1,.576.205.746.746,0,0,1,0,1.05.8.8,0,0,1-.574.205.8.8,0,0,1-.574-.205A.693.693,0,0,1,1.235,5.35ZM6.328,12.1a2.594,2.594,0,0,1-1.892-.713,2.534,2.534,0,0,1-.73-1.9V9.349a3.192,3.192,0,0,1,.308-1.423,2.258,2.258,0,0,1,.872-.967,2.446,2.446,0,0,1,1.287-.339A2.193,2.193,0,0,1,7.878,7.3,2.778,2.778,0,0,1,8.5,9.241v.576H5.137a1.311,1.311,0,0,0,.413.83,1.247,1.247,0,0,0,.872.313A1.523,1.523,0,0,0,7.7,10.369l.693.776a2.118,2.118,0,0,1-.859.7A2.819,2.819,0,0,1,6.328,12.1ZM6.167,7.757a.882.882,0,0,0-.681.284,1.473,1.473,0,0,0-.334.814H7.114V8.743a1.051,1.051,0,0,0-.254-.728A.91.91,0,0,0,6.167,7.757Zm4.756,3.105h2.583V12H9.121v-.859l2.485-3.286H9.194V6.717h4.233v.831ZM17.451,12a1.567,1.567,0,0,1-.142-.474,1.707,1.707,0,0,1-1.333.571,1.876,1.876,0,0,1-1.287-.449,1.445,1.445,0,0,1-.51-1.133A1.493,1.493,0,0,1,14.8,9.227a3.072,3.072,0,0,1,1.8-.454h.649v-.3a.871.871,0,0,0-.188-.586.74.74,0,0,0-.593-.22.841.841,0,0,0-.559.171.581.581,0,0,0-.2.469H14.3a1.417,1.417,0,0,1,.283-.85,1.872,1.872,0,0,1,.8-.613,2.918,2.918,0,0,1,1.162-.222,2.306,2.306,0,0,1,1.55.491,1.717,1.717,0,0,1,.574,1.379v2.29a2.526,2.526,0,0,0,.21,1.138V12Zm-1.167-.981a1.215,1.215,0,0,0,.576-.139.914.914,0,0,0,.391-.374V9.6h-.527q-1.06,0-1.128.732l0,.083a.565.565,0,0,0,.186.435A.721.721,0,0,0,16.284,11.019Z" transform="translate(800 1940)" fill="#12263f"/>
      <path id="Trazado_206288" data-name="Trazado 206288" d="M.071-5.786H-2.063V0H-3.777V-5.786H-5.872V-7.109H.071ZM4.338,0H2.688V-5.254L1.067-4.78V-6.03l3.12-1.079h.151ZM-7.642,12h-4.873v-.967l2.3-2.451a5.674,5.674,0,0,0,.7-.9,1.451,1.451,0,0,0,.227-.732A1.086,1.086,0,0,0-9.526,6.2a.864.864,0,0,0-.684-.271.931.931,0,0,0-.754.33,1.306,1.306,0,0,0-.276.867h-1.416a2.331,2.331,0,0,1,.31-1.187A2.185,2.185,0,0,1-11.47,5.1a2.664,2.664,0,0,1,1.284-.305,2.522,2.522,0,0,1,1.707.527A1.866,1.866,0,0,1-7.871,6.81a2.39,2.39,0,0,1-.273,1.074,5.97,5.97,0,0,1-.937,1.274l-1.616,1.7h3.057ZM-.786,8.606a4.292,4.292,0,0,1-.371,1.841,2.8,2.8,0,0,1-1.062,1.221A2.938,2.938,0,0,1-3.8,12.1a2.958,2.958,0,0,1-1.577-.425,2.822,2.822,0,0,1-1.074-1.213,4.169,4.169,0,0,1-.386-1.814V8.294a4.269,4.269,0,0,1,.378-1.848A2.818,2.818,0,0,1-5.393,5.22a2.941,2.941,0,0,1,1.58-.427,2.941,2.941,0,0,1,1.58.427A2.818,2.818,0,0,1-1.165,6.446,4.257,4.257,0,0,1-.786,8.289Zm-1.484-.322a2.992,2.992,0,0,0-.4-1.7A1.3,1.3,0,0,0-3.813,6a1.305,1.305,0,0,0-1.138.574A2.958,2.958,0,0,0-5.356,8.26v.347a3.029,3.029,0,0,0,.4,1.689,1.3,1.3,0,0,0,1.152.6,1.29,1.29,0,0,0,1.133-.579,3.012,3.012,0,0,0,.4-1.687Zm6.46,2.251H1.621L1.133,12H-.425L2.222,4.891H3.579L6.24,12H4.683ZM2.017,9.349H3.794L2.9,6.688Zm8.9,1.187H8.35L7.861,12H6.3L8.95,4.891h1.357L12.969,12H11.411ZM8.745,9.349h1.777L9.629,6.688Z" transform="translate(800 2002)" fill="#12263f"/>
      <path id="Trazado_206289" data-name="Trazado 206289" d="M.071-5.786H-2.063V0H-3.777V-5.786H-5.872V-7.109H.071ZM5.652,0H.691V-1.074l2.285-2.4A2.727,2.727,0,0,0,3.821-5a1.063,1.063,0,0,0-.2-.7.715.715,0,0,0-.581-.239.724.724,0,0,0-.61.32,1.314,1.314,0,0,0-.234.8H.544A2.335,2.335,0,0,1,.872-6.033,2.294,2.294,0,0,1,1.78-6.9a2.7,2.7,0,0,1,1.3-.312,2.654,2.654,0,0,1,1.775.532,1.9,1.9,0,0,1,.623,1.528,2.219,2.219,0,0,1-.156.818,3.587,3.587,0,0,1-.486.835A12.238,12.238,0,0,1,3.772-2.329L2.854-1.27h2.8ZM-7.068,12h-4.873v-.967l2.3-2.451a5.674,5.674,0,0,0,.7-.9,1.451,1.451,0,0,0,.227-.732A1.086,1.086,0,0,0-8.953,6.2a.864.864,0,0,0-.684-.271.931.931,0,0,0-.754.33,1.306,1.306,0,0,0-.276.867h-1.416a2.331,2.331,0,0,1,.31-1.187A2.185,2.185,0,0,1-10.9,5.1a2.664,2.664,0,0,1,1.284-.305,2.522,2.522,0,0,1,1.707.527A1.866,1.866,0,0,1-7.3,6.81a2.39,2.39,0,0,1-.273,1.074,5.97,5.97,0,0,1-.937,1.274l-1.616,1.7h3.057Zm.7-2.69a3.133,3.133,0,0,1,.3-1.4,2.216,2.216,0,0,1,.872-.952A2.543,2.543,0,0,1-3.87,6.619a2.406,2.406,0,0,1,1.746.654A2.626,2.626,0,0,1-1.37,9.051l.01.361a2.761,2.761,0,0,1-.679,1.951A2.359,2.359,0,0,1-3.86,12.1a2.371,2.371,0,0,1-1.824-.732,2.81,2.81,0,0,1-.681-1.992Zm1.411.1a1.975,1.975,0,0,0,.283,1.152.934.934,0,0,0,.811.4.936.936,0,0,0,.8-.394,2.161,2.161,0,0,0,.288-1.259,1.955,1.955,0,0,0-.288-1.144.936.936,0,0,0-.811-.406.921.921,0,0,0-.8.4A2.2,2.2,0,0,0-4.954,9.41Zm8.569,1.125H1.047L.559,12H-1L1.648,4.891H3.005L5.667,12H4.109ZM1.443,9.349H3.22L2.327,6.688Zm8.9,1.187H7.776L7.288,12H5.73L8.376,4.891H9.734L12.4,12H10.837ZM8.171,9.349H9.949L9.055,6.688Z" transform="translate(908 2002)" fill="#12263f"/>
      <path id="Trazado_206293" data-name="Trazado 206293" d="M.071-5.786H-2.063V0H-3.777V-5.786H-5.872V-7.109H.071ZM2.195-4.243h.776a.807.807,0,0,0,.923-.9.781.781,0,0,0-.22-.574.833.833,0,0,0-.62-.222.892.892,0,0,0-.569.19.581.581,0,0,0-.242.474H.6a1.684,1.684,0,0,1,.313-1,2.064,2.064,0,0,1,.867-.686A2.963,2.963,0,0,1,3-7.212a2.912,2.912,0,0,1,1.865.542A1.8,1.8,0,0,1,5.54-5.181a1.5,1.5,0,0,1-.281.867,2,2,0,0,1-.818.662,1.911,1.911,0,0,1,.889.623A1.64,1.64,0,0,1,5.652-2,1.834,1.834,0,0,1,4.919-.474,3.04,3.04,0,0,1,3,.1,3.153,3.153,0,0,1,1.7-.168,2.031,2.031,0,0,1,.793-.906,1.917,1.917,0,0,1,.486-1.978H2.141a.741.741,0,0,0,.264.566.931.931,0,0,0,.649.239.975.975,0,0,0,.693-.242.808.808,0,0,0,.259-.618.944.944,0,0,0-.269-.762A1.123,1.123,0,0,0,3-3.018h-.8ZM-7.068,12h-4.873v-.967l2.3-2.451a5.674,5.674,0,0,0,.7-.9,1.451,1.451,0,0,0,.227-.732A1.086,1.086,0,0,0-8.953,6.2a.864.864,0,0,0-.684-.271.931.931,0,0,0-.754.33,1.306,1.306,0,0,0-.276.867h-1.416a2.331,2.331,0,0,1,.31-1.187A2.185,2.185,0,0,1-10.9,5.1a2.664,2.664,0,0,1,1.284-.305,2.522,2.522,0,0,1,1.707.527A1.866,1.866,0,0,1-7.3,6.81a2.39,2.39,0,0,1-.273,1.074,5.97,5.97,0,0,1-.937,1.274l-1.616,1.7h3.057Zm.7-2.69a3.133,3.133,0,0,1,.3-1.4,2.216,2.216,0,0,1,.872-.952A2.543,2.543,0,0,1-3.87,6.619a2.406,2.406,0,0,1,1.746.654A2.626,2.626,0,0,1-1.37,9.051l.01.361a2.761,2.761,0,0,1-.679,1.951A2.359,2.359,0,0,1-3.86,12.1a2.371,2.371,0,0,1-1.824-.732,2.81,2.81,0,0,1-.681-1.992Zm1.411.1a1.975,1.975,0,0,0,.283,1.152.934.934,0,0,0,.811.4.936.936,0,0,0,.8-.394,2.161,2.161,0,0,0,.288-1.259,1.955,1.955,0,0,0-.288-1.144.936.936,0,0,0-.811-.406.921.921,0,0,0-.8.4A2.2,2.2,0,0,0-4.954,9.41Zm8.569,1.125H1.047L.559,12H-1L1.648,4.891H3.005L5.667,12H4.109ZM1.443,9.349H3.22L2.327,6.688Zm8.9,1.187H7.776L7.288,12H5.73L8.376,4.891H9.734L12.4,12H10.837ZM8.171,9.349H9.949L9.055,6.688Z" transform="translate(1077 2002)" fill="#12263f"/>
      <path id="Trazado_206295" data-name="Trazado 206295" d="M.071-5.786H-2.063V0H-3.777V-5.786H-5.872V-7.109H.071ZM5.037-2.778h.723v1.27H5.037V0H3.391V-1.509H.642l-.1-1.006,2.847-4.58v-.015H5.037Zm-2.925,0H3.391V-4.966l-.1.166ZM-7.068,12h-4.873v-.967l2.3-2.451a5.674,5.674,0,0,0,.7-.9,1.451,1.451,0,0,0,.227-.732A1.086,1.086,0,0,0-8.953,6.2a.864.864,0,0,0-.684-.271.931.931,0,0,0-.754.33,1.306,1.306,0,0,0-.276.867h-1.416a2.331,2.331,0,0,1,.31-1.187A2.185,2.185,0,0,1-10.9,5.1a2.664,2.664,0,0,1,1.284-.305,2.522,2.522,0,0,1,1.707.527A1.866,1.866,0,0,1-7.3,6.81a2.39,2.39,0,0,1-.273,1.074,5.97,5.97,0,0,1-.937,1.274l-1.616,1.7h3.057Zm.7-2.69a3.133,3.133,0,0,1,.3-1.4,2.216,2.216,0,0,1,.872-.952A2.543,2.543,0,0,1-3.87,6.619a2.406,2.406,0,0,1,1.746.654A2.626,2.626,0,0,1-1.37,9.051l.01.361a2.761,2.761,0,0,1-.679,1.951A2.359,2.359,0,0,1-3.86,12.1a2.371,2.371,0,0,1-1.824-.732,2.81,2.81,0,0,1-.681-1.992Zm1.411.1a1.975,1.975,0,0,0,.283,1.152.934.934,0,0,0,.811.4.936.936,0,0,0,.8-.394,2.161,2.161,0,0,0,.288-1.259,1.955,1.955,0,0,0-.288-1.144.936.936,0,0,0-.811-.406.921.921,0,0,0-.8.4A2.2,2.2,0,0,0-4.954,9.41Zm8.569,1.125H1.047L.559,12H-1L1.648,4.891H3.005L5.667,12H4.109ZM1.443,9.349H3.22L2.327,6.688Zm8.9,1.187H7.776L7.288,12H5.73L8.376,4.891H9.734L12.4,12H10.837ZM8.171,9.349H9.949L9.055,6.688Z" transform="translate(1183 2002)" fill="#12263f"/>
      <path id="Trazado_206291" data-name="Trazado 206291" d="M-15.293,0h-4.961V-1.074l2.285-2.4A2.727,2.727,0,0,0-17.124-5a1.063,1.063,0,0,0-.2-.7.715.715,0,0,0-.581-.239.724.724,0,0,0-.61.32,1.314,1.314,0,0,0-.234.8H-20.4a2.335,2.335,0,0,1,.327-1.208,2.294,2.294,0,0,1,.908-.867,2.7,2.7,0,0,1,1.3-.312,2.654,2.654,0,0,1,1.775.532,1.9,1.9,0,0,1,.623,1.528,2.219,2.219,0,0,1-.156.818,3.587,3.587,0,0,1-.486.835,12.238,12.238,0,0,1-1.062,1.169l-.918,1.06h2.8Zm5.767-2.905a3.4,3.4,0,0,1-.647,2.222A2.236,2.236,0,0,1-12,.1a2.248,2.248,0,0,1-1.836-.786,3.389,3.389,0,0,1-.649-2.217V-4.2a3.4,3.4,0,0,1,.647-2.222,2.241,2.241,0,0,1,1.829-.781,2.242,2.242,0,0,1,1.831.786A3.4,3.4,0,0,1-9.526-4.2Zm-1.646-1.509a2.536,2.536,0,0,0-.2-1.145.669.669,0,0,0-.635-.378.653.653,0,0,0-.618.352,2.389,2.389,0,0,0-.208,1.064v1.816a2.555,2.555,0,0,0,.2,1.165A.672.672,0,0,0-12-1.172a.663.663,0,0,0,.62-.359,2.439,2.439,0,0,0,.205-1.125Zm7.437,1.509A3.4,3.4,0,0,1-4.382-.684,2.236,2.236,0,0,1-6.206.1,2.248,2.248,0,0,1-8.042-.688a3.389,3.389,0,0,1-.649-2.217V-4.2a3.4,3.4,0,0,1,.647-2.222,2.241,2.241,0,0,1,1.829-.781,2.242,2.242,0,0,1,1.831.786A3.4,3.4,0,0,1-3.735-4.2ZM-5.381-4.414a2.536,2.536,0,0,0-.2-1.145.669.669,0,0,0-.635-.378.653.653,0,0,0-.618.352,2.389,2.389,0,0,0-.208,1.064v1.816a2.555,2.555,0,0,0,.2,1.165.672.672,0,0,0,.635.369.663.663,0,0,0,.62-.359,2.439,2.439,0,0,0,.205-1.125ZM2.4-1.484a.38.38,0,0,0-.22-.337,3.342,3.342,0,0,0-.835-.264A3.807,3.807,0,0,1,.332-2.444a1.7,1.7,0,0,1-.61-.54,1.288,1.288,0,0,1-.21-.728,1.46,1.46,0,0,1,.6-1.2,2.474,2.474,0,0,1,1.572-.471,2.741,2.741,0,0,1,1.68.474A1.481,1.481,0,0,1,4-3.662H2.349q0-.635-.669-.635a.663.663,0,0,0-.435.144.446.446,0,0,0-.176.359.409.409,0,0,0,.215.356,2.03,2.03,0,0,0,.686.225A5.928,5.928,0,0,1,2.8-3a1.5,1.5,0,0,1,1.191,1.47A1.384,1.384,0,0,1,3.347-.356,2.816,2.816,0,0,1,1.685.1,2.873,2.873,0,0,1,.474-.146a2.025,2.025,0,0,1-.83-.664,1.5,1.5,0,0,1-.3-.884H.884a.636.636,0,0,0,.244.535,1,1,0,0,0,.6.168.79.79,0,0,0,.505-.137A.437.437,0,0,0,2.4-1.484Zm5.5.913A1.7,1.7,0,0,1,6.494.1,1.664,1.664,0,0,1,5.178-.408,2.125,2.125,0,0,1,4.731-1.86V-5.283H6.377v3.433a.591.591,0,0,0,.659.679.86.86,0,0,0,.806-.405V-5.283H9.5V0H7.954ZM15.3-2.6a3.22,3.22,0,0,1-.537,2,1.8,1.8,0,0,1-1.514.7,1.561,1.561,0,0,1-1.3-.64L11.885,0H10.41V-7.5h1.646v2.642a1.506,1.506,0,0,1,1.187-.522,1.8,1.8,0,0,1,1.523.708A3.237,3.237,0,0,1,15.3-2.681Zm-1.65-.1a2.148,2.148,0,0,0-.2-1.085.683.683,0,0,0-.623-.324.788.788,0,0,0-.771.424v2.1a.792.792,0,0,0,.781.419.7.7,0,0,0,.737-.565A4.061,4.061,0,0,0,13.652-2.7Zm5.142,1.218a.38.38,0,0,0-.22-.337,3.342,3.342,0,0,0-.835-.264,3.807,3.807,0,0,1-1.016-.359,1.7,1.7,0,0,1-.61-.54,1.288,1.288,0,0,1-.21-.728,1.46,1.46,0,0,1,.6-1.2,2.474,2.474,0,0,1,1.572-.471,2.741,2.741,0,0,1,1.68.474,1.481,1.481,0,0,1,.635,1.245H18.74q0-.635-.669-.635a.663.663,0,0,0-.435.144.446.446,0,0,0-.176.359.409.409,0,0,0,.215.356,2.03,2.03,0,0,0,.686.225,5.928,5.928,0,0,1,.828.21,1.5,1.5,0,0,1,1.191,1.47,1.384,1.384,0,0,1-.642,1.177A2.816,2.816,0,0,1,18.076.1a2.873,2.873,0,0,1-1.211-.244,2.025,2.025,0,0,1-.83-.664,1.5,1.5,0,0,1-.3-.884h1.538a.636.636,0,0,0,.244.535,1,1,0,0,0,.6.168.79.79,0,0,0,.505-.137A.437.437,0,0,0,18.794-1.484Z" transform="translate(993 2009)" fill="#12263f"/>
      <path id="Trazado_206297" data-name="Trazado 206297" d="M-20.156-3.473l.435-3.637h4.155v1.27h-2.817l-.161,1.422a1.941,1.941,0,0,1,.461-.181,2.105,2.105,0,0,1,.559-.078A2.086,2.086,0,0,1-15.9-4.05a2.527,2.527,0,0,1,.569,1.76,2.523,2.523,0,0,1-.305,1.238,2.1,2.1,0,0,1-.857.852,2.705,2.705,0,0,1-1.3.3,2.911,2.911,0,0,1-1.255-.276,2.251,2.251,0,0,1-.918-.756,1.838,1.838,0,0,1-.327-1.086h1.65a.933.933,0,0,0,.249.619.79.79,0,0,0,.591.229q.83,0,.83-1.228,0-1.135-1.016-1.135a1.013,1.013,0,0,0-.859.37Zm10.63.567a3.4,3.4,0,0,1-.647,2.222A2.236,2.236,0,0,1-12,.1a2.248,2.248,0,0,1-1.836-.786,3.389,3.389,0,0,1-.649-2.217V-4.2a3.4,3.4,0,0,1,.647-2.222,2.241,2.241,0,0,1,1.829-.781,2.242,2.242,0,0,1,1.831.786A3.4,3.4,0,0,1-9.526-4.2Zm-1.646-1.509a2.536,2.536,0,0,0-.2-1.145.669.669,0,0,0-.635-.378.653.653,0,0,0-.618.352,2.389,2.389,0,0,0-.208,1.064v1.816a2.555,2.555,0,0,0,.2,1.165A.672.672,0,0,0-12-1.172a.663.663,0,0,0,.62-.359,2.439,2.439,0,0,0,.205-1.125Zm7.437,1.509A3.4,3.4,0,0,1-4.382-.684,2.236,2.236,0,0,1-6.206.1,2.248,2.248,0,0,1-8.042-.688a3.389,3.389,0,0,1-.649-2.217V-4.2a3.4,3.4,0,0,1,.647-2.222,2.241,2.241,0,0,1,1.829-.781,2.242,2.242,0,0,1,1.831.786A3.4,3.4,0,0,1-3.735-4.2ZM-5.381-4.414a2.536,2.536,0,0,0-.2-1.145.669.669,0,0,0-.635-.378.653.653,0,0,0-.618.352,2.389,2.389,0,0,0-.208,1.064v1.816a2.555,2.555,0,0,0,.2,1.165.672.672,0,0,0,.635.369.663.663,0,0,0,.62-.359,2.439,2.439,0,0,0,.205-1.125ZM2.4-1.484a.38.38,0,0,0-.22-.337,3.342,3.342,0,0,0-.835-.264A3.807,3.807,0,0,1,.332-2.444a1.7,1.7,0,0,1-.61-.54,1.288,1.288,0,0,1-.21-.728,1.46,1.46,0,0,1,.6-1.2,2.474,2.474,0,0,1,1.572-.471,2.741,2.741,0,0,1,1.68.474A1.481,1.481,0,0,1,4-3.662H2.349q0-.635-.669-.635a.663.663,0,0,0-.435.144.446.446,0,0,0-.176.359.409.409,0,0,0,.215.356,2.03,2.03,0,0,0,.686.225A5.928,5.928,0,0,1,2.8-3a1.5,1.5,0,0,1,1.191,1.47A1.384,1.384,0,0,1,3.347-.356,2.816,2.816,0,0,1,1.685.1,2.873,2.873,0,0,1,.474-.146a2.025,2.025,0,0,1-.83-.664,1.5,1.5,0,0,1-.3-.884H.884a.636.636,0,0,0,.244.535,1,1,0,0,0,.6.168.79.79,0,0,0,.505-.137A.437.437,0,0,0,2.4-1.484Zm5.5.913A1.7,1.7,0,0,1,6.494.1,1.664,1.664,0,0,1,5.178-.408,2.125,2.125,0,0,1,4.731-1.86V-5.283H6.377v3.433a.591.591,0,0,0,.659.679.86.86,0,0,0,.806-.405V-5.283H9.5V0H7.954ZM15.3-2.6a3.22,3.22,0,0,1-.537,2,1.8,1.8,0,0,1-1.514.7,1.561,1.561,0,0,1-1.3-.64L11.885,0H10.41V-7.5h1.646v2.642a1.506,1.506,0,0,1,1.187-.522,1.8,1.8,0,0,1,1.523.708A3.237,3.237,0,0,1,15.3-2.681Zm-1.65-.1a2.148,2.148,0,0,0-.2-1.085.683.683,0,0,0-.623-.324.788.788,0,0,0-.771.424v2.1a.792.792,0,0,0,.781.419.7.7,0,0,0,.737-.565A4.061,4.061,0,0,0,13.652-2.7Zm5.142,1.218a.38.38,0,0,0-.22-.337,3.342,3.342,0,0,0-.835-.264,3.807,3.807,0,0,1-1.016-.359,1.7,1.7,0,0,1-.61-.54,1.288,1.288,0,0,1-.21-.728,1.46,1.46,0,0,1,.6-1.2,2.474,2.474,0,0,1,1.572-.471,2.741,2.741,0,0,1,1.68.474,1.481,1.481,0,0,1,.635,1.245H18.74q0-.635-.669-.635a.663.663,0,0,0-.435.144.446.446,0,0,0-.176.359.409.409,0,0,0,.215.356,2.03,2.03,0,0,0,.686.225,5.928,5.928,0,0,1,.828.21,1.5,1.5,0,0,1,1.191,1.47,1.384,1.384,0,0,1-.642,1.177A2.816,2.816,0,0,1,18.076.1a2.873,2.873,0,0,1-1.211-.244,2.025,2.025,0,0,1-.83-.664,1.5,1.5,0,0,1-.3-.884h1.538a.636.636,0,0,0,.244.535,1,1,0,0,0,.6.168.79.79,0,0,0,.505-.137A.437.437,0,0,0,18.794-1.484Z" transform="translate(1270 2009)" fill="#12263f"/>
      <path id="Trazado_206296" data-name="Trazado 206296" d="M-34.917-7.109l1.826,5.156,1.816-5.156h1.924V0h-1.47V-1.943l.146-3.354L-32.593,0H-33.6l-1.914-5.293.146,3.35V0h-1.465V-7.109Zm9.473,5.347,1.611-5.347H-22.2L-24.678,0h-1.528l-2.466-7.109h1.626Zm9.429-.605a2.516,2.516,0,0,1-.847,1.807A2.975,2.975,0,0,1-18.877.1a2.675,2.675,0,0,1-2.151-.92,3.774,3.774,0,0,1-.784-2.527v-.435a4.262,4.262,0,0,1,.361-1.807,2.708,2.708,0,0,1,1.033-1.2,2.893,2.893,0,0,1,1.56-.417,2.9,2.9,0,0,1,1.982.659A2.7,2.7,0,0,1-16.006-4.7h-1.465a1.485,1.485,0,0,0-.383-1,1.419,1.419,0,0,0-1-.31,1.245,1.245,0,0,0-1.1.525,2.942,2.942,0,0,0-.374,1.628v.537a3.148,3.148,0,0,0,.349,1.685,1.222,1.222,0,0,0,1.1.532,1.446,1.446,0,0,0,1.013-.31,1.4,1.4,0,0,0,.383-.959Zm6.221.908a.455.455,0,0,0-.256-.408,2.912,2.912,0,0,0-.823-.266q-1.885-.4-1.885-1.6a1.452,1.452,0,0,1,.583-1.174,2.354,2.354,0,0,1,1.526-.471,2.533,2.533,0,0,1,1.609.474,1.493,1.493,0,0,1,.6,1.23H-9.849a.683.683,0,0,0-.2-.5.827.827,0,0,0-.61-.2.845.845,0,0,0-.552.161.509.509,0,0,0-.2.41.435.435,0,0,0,.222.378,2.286,2.286,0,0,0,.75.249,6.122,6.122,0,0,1,.889.237A1.46,1.46,0,0,1-8.423-1.519a1.378,1.378,0,0,1-.62,1.169,2.675,2.675,0,0,1-1.6.447,2.794,2.794,0,0,1-1.179-.237,1.979,1.979,0,0,1-.808-.649,1.509,1.509,0,0,1-.293-.891h1.338a.737.737,0,0,0,.278.576,1.1,1.1,0,0,0,.693.2A1.022,1.022,0,0,0-10-1.057.479.479,0,0,0-9.795-1.46ZM-5.083.1A2.594,2.594,0,0,1-6.975-.615a2.534,2.534,0,0,1-.73-1.9v-.137A3.192,3.192,0,0,1-7.4-4.075a2.258,2.258,0,0,1,.872-.967,2.446,2.446,0,0,1,1.287-.339A2.193,2.193,0,0,1-3.533-4.7,2.778,2.778,0,0,1-2.91-2.759v.576H-6.274a1.311,1.311,0,0,0,.413.83,1.247,1.247,0,0,0,.872.313,1.523,1.523,0,0,0,1.274-.591l.693.776a2.118,2.118,0,0,1-.859.7A2.819,2.819,0,0,1-5.083.1Zm-.161-4.341a.882.882,0,0,0-.681.284,1.473,1.473,0,0,0-.334.814H-4.3v-.113a1.051,1.051,0,0,0-.254-.728A.91.91,0,0,0-5.244-4.243ZM1.87,0H.454V-5.283H1.87ZM.371-6.65a.7.7,0,0,1,.212-.522.8.8,0,0,1,.579-.205.8.8,0,0,1,.576.205.691.691,0,0,1,.215.522.693.693,0,0,1-.217.527.8.8,0,0,1-.574.205.8.8,0,0,1-.574-.205A.693.693,0,0,1,.371-6.65Zm3.96,1.367.044.61a1.845,1.845,0,0,1,1.519-.708,1.533,1.533,0,0,1,1.25.493,2.3,2.3,0,0,1,.42,1.475V0H6.152V-3.387a.919.919,0,0,0-.2-.653.873.873,0,0,0-.649-.2.97.97,0,0,0-.894.509V0H3V-5.283ZM10.122,0H8.706V-5.283h1.416Zm-1.5-6.65a.7.7,0,0,1,.212-.522.8.8,0,0,1,.579-.205.8.8,0,0,1,.576.205.691.691,0,0,1,.215.522.693.693,0,0,1-.217.527.8.8,0,0,1-.574.205.8.8,0,0,1-.574-.205A.693.693,0,0,1,8.623-6.65Zm4.858,5.61a.926.926,0,0,0,.635-.215.753.753,0,0,0,.254-.571h1.323a1.81,1.81,0,0,1-.293.984,1.933,1.933,0,0,1-.789.693A2.468,2.468,0,0,1,13.506.1a2.294,2.294,0,0,1-1.787-.72,2.85,2.85,0,0,1-.654-1.99v-.093a2.817,2.817,0,0,1,.649-1.948A2.267,2.267,0,0,1,13.5-5.381a2.222,2.222,0,0,1,1.589.564,2,2,0,0,1,.608,1.5H14.37a.97.97,0,0,0-.254-.67.847.847,0,0,0-.645-.258.85.85,0,0,0-.745.359,2.083,2.083,0,0,0-.251,1.166v.147A2.109,2.109,0,0,0,12.725-1.4.861.861,0,0,0,13.481-1.04ZM17.988,0H16.572V-5.283h1.416Zm-1.5-6.65a.7.7,0,0,1,.212-.522.8.8,0,0,1,.579-.205.8.8,0,0,1,.576.205.691.691,0,0,1,.215.522.693.693,0,0,1-.217.527.8.8,0,0,1-.574.205.8.8,0,0,1-.574-.205A.693.693,0,0,1,16.489-6.65ZM22.212,0a1.567,1.567,0,0,1-.142-.474A1.707,1.707,0,0,1,20.737.1a1.876,1.876,0,0,1-1.287-.449,1.445,1.445,0,0,1-.51-1.133,1.493,1.493,0,0,1,.623-1.289,3.072,3.072,0,0,1,1.8-.454h.649v-.3a.871.871,0,0,0-.188-.586.74.74,0,0,0-.593-.22.841.841,0,0,0-.559.171.581.581,0,0,0-.2.469H19.058a1.417,1.417,0,0,1,.283-.85,1.872,1.872,0,0,1,.8-.613A2.918,2.918,0,0,1,21.3-5.381a2.306,2.306,0,0,1,1.55.491,1.717,1.717,0,0,1,.574,1.379v2.29a2.526,2.526,0,0,0,.21,1.138V0ZM21.045-.981a1.215,1.215,0,0,0,.576-.139.914.914,0,0,0,.391-.374V-2.4h-.527q-1.06,0-1.128.732l0,.083a.565.565,0,0,0,.186.435A.721.721,0,0,0,21.045-.981ZM29.434.1a2.594,2.594,0,0,1-1.892-.713,2.534,2.534,0,0,1-.73-1.9v-.137a3.192,3.192,0,0,1,.308-1.423,2.258,2.258,0,0,1,.872-.967,2.446,2.446,0,0,1,1.287-.339,2.193,2.193,0,0,1,1.707.684,2.778,2.778,0,0,1,.623,1.938v.576H28.242a1.311,1.311,0,0,0,.413.83,1.247,1.247,0,0,0,.872.313A1.523,1.523,0,0,0,30.8-1.631l.693.776a2.118,2.118,0,0,1-.859.7A2.819,2.819,0,0,1,29.434.1Zm-.161-4.341a.882.882,0,0,0-.681.284,1.473,1.473,0,0,0-.334.814H30.22v-.113a1.051,1.051,0,0,0-.254-.728A.91.91,0,0,0,29.272-4.243Zm4.434-1.04.044.61a1.845,1.845,0,0,1,1.519-.708,1.533,1.533,0,0,1,1.25.493,2.3,2.3,0,0,1,.42,1.475V0H35.527V-3.387a.919.919,0,0,0-.2-.653.873.873,0,0,0-.649-.2.97.97,0,0,0-.894.509V0H32.378V-5.283Zm-75.659,10.7v1.3h.9V7.752h-.9v2.637a.63.63,0,0,0,.112.42.564.564,0,0,0,.43.127A2.25,2.25,0,0,0-41,10.9v1.069a2.9,2.9,0,0,1-.854.127,1.347,1.347,0,0,1-1.514-1.5V7.752h-.771V6.717h.771v-1.3ZM-40.63,9.31a3.133,3.133,0,0,1,.3-1.4,2.216,2.216,0,0,1,.872-.952,2.543,2.543,0,0,1,1.321-.337,2.406,2.406,0,0,1,1.746.654,2.626,2.626,0,0,1,.754,1.777l.01.361a2.761,2.761,0,0,1-.679,1.951,2.359,2.359,0,0,1-1.821.735,2.371,2.371,0,0,1-1.824-.732,2.81,2.81,0,0,1-.681-1.992Zm1.411.1a1.975,1.975,0,0,0,.283,1.152.934.934,0,0,0,.811.4.936.936,0,0,0,.8-.394,2.161,2.161,0,0,0,.288-1.259,1.955,1.955,0,0,0-.288-1.144.936.936,0,0,0-.811-.406.921.921,0,0,0-.8.4A2.2,2.2,0,0,0-39.219,9.41Zm4.243-.09a3.184,3.184,0,0,1,.554-1.968,1.8,1.8,0,0,1,1.516-.732,1.618,1.618,0,0,1,1.274.576V4.5h1.416V12h-1.274l-.068-.562a1.661,1.661,0,0,1-1.357.659,1.793,1.793,0,0,1-1.5-.735A3.286,3.286,0,0,1-34.976,9.319Zm1.411.1a2.1,2.1,0,0,0,.259,1.143.842.842,0,0,0,.752.4.944.944,0,0,0,.923-.554V8.311a.93.93,0,0,0-.913-.554Q-33.564,7.757-33.564,9.42Zm4.224-.11a3.133,3.133,0,0,1,.3-1.4,2.216,2.216,0,0,1,.872-.952,2.543,2.543,0,0,1,1.321-.337,2.406,2.406,0,0,1,1.746.654,2.626,2.626,0,0,1,.754,1.777l.01.361a2.761,2.761,0,0,1-.679,1.951,2.359,2.359,0,0,1-1.821.735,2.371,2.371,0,0,1-1.824-.732,2.81,2.81,0,0,1-.681-1.992Zm1.411.1a1.975,1.975,0,0,0,.283,1.152.934.934,0,0,0,.811.4.936.936,0,0,0,.8-.394,2.161,2.161,0,0,0,.288-1.259,1.955,1.955,0,0,0-.288-1.144.936.936,0,0,0-.811-.406.921.921,0,0,0-.8.4A2.2,2.2,0,0,0-27.93,9.41Zm7.324,1.13a.455.455,0,0,0-.256-.408,2.912,2.912,0,0,0-.823-.266q-1.885-.4-1.885-1.6a1.452,1.452,0,0,1,.583-1.174,2.354,2.354,0,0,1,1.526-.471,2.533,2.533,0,0,1,1.609.474,1.493,1.493,0,0,1,.6,1.23h-1.411a.683.683,0,0,0-.2-.5.827.827,0,0,0-.61-.2.845.845,0,0,0-.552.161.509.509,0,0,0-.2.41.435.435,0,0,0,.222.378,2.286,2.286,0,0,0,.75.249,6.122,6.122,0,0,1,.889.237,1.46,1.46,0,0,1,1.118,1.421,1.378,1.378,0,0,1-.62,1.169,2.675,2.675,0,0,1-1.6.447,2.794,2.794,0,0,1-1.179-.237,1.979,1.979,0,0,1-.808-.649,1.509,1.509,0,0,1-.293-.891H-22.4a.737.737,0,0,0,.278.576,1.1,1.1,0,0,0,.693.2,1.022,1.022,0,0,0,.613-.154A.479.479,0,0,0-20.605,10.54Zm6.26,1.46h-1.416V4.5h1.416Zm.942-2.69a3.133,3.133,0,0,1,.3-1.4,2.216,2.216,0,0,1,.872-.952,2.543,2.543,0,0,1,1.321-.337,2.406,2.406,0,0,1,1.746.654,2.626,2.626,0,0,1,.754,1.777l.01.361a2.761,2.761,0,0,1-.679,1.951A2.359,2.359,0,0,1-10.9,12.1a2.371,2.371,0,0,1-1.824-.732A2.81,2.81,0,0,1-13.4,9.373Zm1.411.1a1.975,1.975,0,0,0,.283,1.152.934.934,0,0,0,.811.4.936.936,0,0,0,.8-.394A2.161,2.161,0,0,0-9.81,9.307,1.955,1.955,0,0,0-10.1,8.163a.936.936,0,0,0-.811-.406.921.921,0,0,0-.8.4A2.2,2.2,0,0,0-11.992,9.41Zm7.324,1.13a.455.455,0,0,0-.256-.408,2.912,2.912,0,0,0-.823-.266q-1.885-.4-1.885-1.6A1.452,1.452,0,0,1-7.048,7.09a2.354,2.354,0,0,1,1.526-.471,2.533,2.533,0,0,1,1.609.474,1.493,1.493,0,0,1,.6,1.23H-4.722a.683.683,0,0,0-.2-.5.827.827,0,0,0-.61-.2.845.845,0,0,0-.552.161.509.509,0,0,0-.2.41.435.435,0,0,0,.222.378,2.286,2.286,0,0,0,.75.249,6.122,6.122,0,0,1,.889.237A1.46,1.46,0,0,1-3.3,10.481a1.378,1.378,0,0,1-.62,1.169,2.675,2.675,0,0,1-1.6.447A2.794,2.794,0,0,1-6.7,11.861a1.979,1.979,0,0,1-.808-.649A1.509,1.509,0,0,1-7.8,10.32H-6.46a.737.737,0,0,0,.278.576,1.1,1.1,0,0,0,.693.2,1.022,1.022,0,0,0,.613-.154A.479.479,0,0,0-4.668,10.54ZM1.426,6.717l.044.591a1.857,1.857,0,0,1,1.519-.688,1.409,1.409,0,0,1,1.4.806,1.814,1.814,0,0,1,1.587-.806,1.576,1.576,0,0,1,1.279.5,2.3,2.3,0,0,1,.42,1.506V12H6.26V8.623a1.01,1.01,0,0,0-.176-.658.778.778,0,0,0-.62-.208.881.881,0,0,0-.879.607L4.59,12H3.179V8.628A1,1,0,0,0,3,7.962a.786.786,0,0,0-.615-.206.914.914,0,0,0-.869.5V12H.1V6.717ZM11.191,12.1A2.594,2.594,0,0,1,9.3,11.385a2.534,2.534,0,0,1-.73-1.9V9.349a3.192,3.192,0,0,1,.308-1.423,2.258,2.258,0,0,1,.872-.967,2.446,2.446,0,0,1,1.287-.339,2.193,2.193,0,0,1,1.707.684,2.778,2.778,0,0,1,.623,1.938v.576H10a1.311,1.311,0,0,0,.413.83,1.247,1.247,0,0,0,.872.313,1.523,1.523,0,0,0,1.274-.591l.693.776a2.118,2.118,0,0,1-.859.7A2.819,2.819,0,0,1,11.191,12.1ZM11.03,7.757a.882.882,0,0,0-.681.284,1.473,1.473,0,0,0-.334.814h1.963V8.743a1.051,1.051,0,0,0-.254-.728A.91.91,0,0,0,11.03,7.757Zm6.1.283A3.834,3.834,0,0,0,16.626,8a1.034,1.034,0,0,0-1.05.542V12H14.165V6.717H15.5l.039.63a1.308,1.308,0,0,1,1.177-.728,1.479,1.479,0,0,1,.439.063Zm2.783,2.92a.926.926,0,0,0,.635-.215.753.753,0,0,0,.254-.571h1.323a1.81,1.81,0,0,1-.293.984,1.933,1.933,0,0,1-.789.693,2.468,2.468,0,0,1-1.106.247,2.294,2.294,0,0,1-1.787-.72,2.85,2.85,0,0,1-.654-1.99V9.295a2.817,2.817,0,0,1,.649-1.948,2.267,2.267,0,0,1,1.782-.728,2.222,2.222,0,0,1,1.589.564,2,2,0,0,1,.608,1.5H20.806a.97.97,0,0,0-.254-.67.944.944,0,0,0-1.389.1,2.083,2.083,0,0,0-.251,1.166v.147A2.109,2.109,0,0,0,19.16,10.6.861.861,0,0,0,19.917,10.96ZM26,12a1.567,1.567,0,0,1-.142-.474,1.707,1.707,0,0,1-1.333.571,1.876,1.876,0,0,1-1.287-.449,1.445,1.445,0,0,1-.51-1.133,1.493,1.493,0,0,1,.623-1.289,3.072,3.072,0,0,1,1.8-.454H25.8v-.3a.871.871,0,0,0-.188-.586.74.74,0,0,0-.593-.22.841.841,0,0,0-.559.171.581.581,0,0,0-.2.469H22.842a1.417,1.417,0,0,1,.283-.85,1.872,1.872,0,0,1,.8-.613,2.918,2.918,0,0,1,1.162-.222,2.306,2.306,0,0,1,1.55.491,1.717,1.717,0,0,1,.574,1.379v2.29a2.526,2.526,0,0,0,.21,1.138V12Zm-1.167-.981a1.215,1.215,0,0,0,.576-.139.914.914,0,0,0,.391-.374V9.6h-.527q-1.06,0-1.128.732l0,.083a.565.565,0,0,0,.186.435A.721.721,0,0,0,24.829,11.019Zm3.247-1.7a3.184,3.184,0,0,1,.554-1.968,1.8,1.8,0,0,1,1.516-.732,1.618,1.618,0,0,1,1.274.576V4.5h1.416V12H31.563l-.068-.562a1.661,1.661,0,0,1-1.357.659,1.793,1.793,0,0,1-1.5-.735A3.286,3.286,0,0,1,28.076,9.319Zm1.411.1a2.1,2.1,0,0,0,.259,1.143.842.842,0,0,0,.752.4.944.944,0,0,0,.923-.554V8.311a.93.93,0,0,0-.913-.554Q29.487,7.757,29.487,9.42Zm4.224-.11a3.133,3.133,0,0,1,.3-1.4,2.216,2.216,0,0,1,.872-.952,2.543,2.543,0,0,1,1.321-.337,2.406,2.406,0,0,1,1.746.654,2.626,2.626,0,0,1,.754,1.777l.01.361a2.761,2.761,0,0,1-.679,1.951,2.631,2.631,0,0,1-3.645,0,2.81,2.81,0,0,1-.681-1.992Zm1.411.1a1.975,1.975,0,0,0,.283,1.152,1.017,1.017,0,0,0,1.611,0A2.161,2.161,0,0,0,37.3,9.307a1.955,1.955,0,0,0-.288-1.144.936.936,0,0,0-.811-.406.921.921,0,0,0-.8.4A2.2,2.2,0,0,0,35.122,9.41Zm7.324,1.13a.455.455,0,0,0-.256-.408,2.912,2.912,0,0,0-.823-.266q-1.885-.4-1.885-1.6a1.452,1.452,0,0,1,.583-1.174,2.354,2.354,0,0,1,1.526-.471,2.533,2.533,0,0,1,1.609.474,1.493,1.493,0,0,1,.6,1.23H42.393a.683.683,0,0,0-.2-.5.827.827,0,0,0-.61-.2.845.845,0,0,0-.552.161.509.509,0,0,0-.2.41.435.435,0,0,0,.222.378,2.286,2.286,0,0,0,.75.249,6.122,6.122,0,0,1,.889.237,1.46,1.46,0,0,1,1.118,1.421,1.378,1.378,0,0,1-.62,1.169,2.675,2.675,0,0,1-1.6.447,2.794,2.794,0,0,1-1.179-.237,1.978,1.978,0,0,1-.808-.649,1.509,1.509,0,0,1-.293-.891h1.338a.737.737,0,0,0,.278.576,1.1,1.1,0,0,0,.693.2,1.022,1.022,0,0,0,.613-.154A.479.479,0,0,0,42.446,10.54Z" transform="translate(1183 1940)" fill="#12263f"/>
      <path id="Trazado_206298" data-name="Trazado 206298" d="M-5.959-2.905H-8.772V0h-1.465V-7.109h4.629v1.187H-8.772v1.836h2.813ZM-3.362,0H-4.778V-5.283h1.416Zm-1.5-6.65a.7.7,0,0,1,.212-.522.8.8,0,0,1,.579-.205.8.8,0,0,1,.576.205.691.691,0,0,1,.215.522.693.693,0,0,1-.217.527.8.8,0,0,1-.574.205.8.8,0,0,1-.574-.205A.693.693,0,0,1-4.861-6.65ZM-.9-5.283l.044.61A1.845,1.845,0,0,1,.662-5.381a1.533,1.533,0,0,1,1.25.493,2.3,2.3,0,0,1,.42,1.475V0H.92V-3.387a.919.919,0,0,0-.2-.653.873.873,0,0,0-.649-.2.97.97,0,0,0-.894.509V0H-2.229V-5.283ZM6.462,0a1.567,1.567,0,0,1-.142-.474A1.707,1.707,0,0,1,4.988.1,1.876,1.876,0,0,1,3.7-.352a1.445,1.445,0,0,1-.51-1.133,1.493,1.493,0,0,1,.623-1.289,3.072,3.072,0,0,1,1.8-.454h.649v-.3a.871.871,0,0,0-.188-.586.74.74,0,0,0-.593-.22.841.841,0,0,0-.559.171.581.581,0,0,0-.2.469H3.308a1.417,1.417,0,0,1,.283-.85,1.872,1.872,0,0,1,.8-.613,2.918,2.918,0,0,1,1.162-.222A2.306,2.306,0,0,1,7.1-4.89a1.717,1.717,0,0,1,.574,1.379v2.29a2.526,2.526,0,0,0,.21,1.138V0ZM5.3-.981a1.215,1.215,0,0,0,.576-.139.914.914,0,0,0,.391-.374V-2.4H5.735q-1.06,0-1.128.732l0,.083a.565.565,0,0,0,.186.435A.721.721,0,0,0,5.3-.981ZM10.251,0H8.835V-7.5h1.416ZM-24.6,10.54a.455.455,0,0,0-.256-.408,2.912,2.912,0,0,0-.823-.266q-1.885-.4-1.885-1.6a1.452,1.452,0,0,1,.583-1.174,2.354,2.354,0,0,1,1.526-.471,2.533,2.533,0,0,1,1.609.474,1.493,1.493,0,0,1,.6,1.23h-1.411a.683.683,0,0,0-.2-.5.827.827,0,0,0-.61-.2.845.845,0,0,0-.552.161.509.509,0,0,0-.2.41.435.435,0,0,0,.222.378,2.286,2.286,0,0,0,.75.249,6.122,6.122,0,0,1,.889.237,1.46,1.46,0,0,1,1.118,1.421,1.378,1.378,0,0,1-.62,1.169,2.675,2.675,0,0,1-1.6.447,2.794,2.794,0,0,1-1.179-.237,1.979,1.979,0,0,1-.808-.649,1.509,1.509,0,0,1-.293-.891h1.338a.737.737,0,0,0,.278.576,1.1,1.1,0,0,0,.693.2,1.022,1.022,0,0,0,.613-.154A.479.479,0,0,0-24.6,10.54Zm5.444.923A1.77,1.77,0,0,1-20.6,12.1a1.669,1.669,0,0,1-1.3-.488,2.084,2.084,0,0,1-.457-1.431V6.717h1.411v3.417q0,.826.752.826a1.019,1.019,0,0,0,.986-.5V6.717h1.416V12h-1.328Zm5.293-.923a.455.455,0,0,0-.256-.408,2.912,2.912,0,0,0-.823-.266q-1.885-.4-1.885-1.6a1.452,1.452,0,0,1,.583-1.174,2.354,2.354,0,0,1,1.526-.471,2.533,2.533,0,0,1,1.609.474,1.493,1.493,0,0,1,.6,1.23h-1.411a.683.683,0,0,0-.2-.5.827.827,0,0,0-.61-.2.845.845,0,0,0-.552.161.509.509,0,0,0-.2.41.435.435,0,0,0,.222.378,2.286,2.286,0,0,0,.75.249,6.122,6.122,0,0,1,.889.237,1.46,1.46,0,0,1,1.118,1.421,1.378,1.378,0,0,1-.62,1.169,2.675,2.675,0,0,1-1.6.447,2.794,2.794,0,0,1-1.179-.237,1.979,1.979,0,0,1-.808-.649,1.509,1.509,0,0,1-.293-.891h1.338a.737.737,0,0,0,.278.576,1.1,1.1,0,0,0,.693.2,1.022,1.022,0,0,0,.613-.154A.479.479,0,0,0-13.865,10.54Zm4.478.42a.926.926,0,0,0,.635-.215.753.753,0,0,0,.254-.571h1.323a1.81,1.81,0,0,1-.293.984,1.933,1.933,0,0,1-.789.693,2.468,2.468,0,0,1-1.106.247,2.294,2.294,0,0,1-1.787-.72,2.85,2.85,0,0,1-.654-1.99V9.295a2.817,2.817,0,0,1,.649-1.948,2.267,2.267,0,0,1,1.782-.728,2.222,2.222,0,0,1,1.589.564,2,2,0,0,1,.608,1.5H-8.5a.97.97,0,0,0-.254-.67A.847.847,0,0,0-9.4,7.757a.85.85,0,0,0-.745.359,2.083,2.083,0,0,0-.251,1.166v.147a2.109,2.109,0,0,0,.249,1.174A.861.861,0,0,0-9.387,10.96ZM-3.4,8.04A3.834,3.834,0,0,0-3.909,8a1.034,1.034,0,0,0-1.05.542V12H-6.37V6.717h1.333l.039.63a1.308,1.308,0,0,1,1.177-.728,1.479,1.479,0,0,1,.439.063ZM-1.233,12H-2.649V6.717h1.416Zm-1.5-6.65a.7.7,0,0,1,.212-.522.8.8,0,0,1,.579-.205.8.8,0,0,1,.576.205.691.691,0,0,1,.215.522.693.693,0,0,1-.217.527.8.8,0,0,1-.574.205.8.8,0,0,1-.574-.205A.693.693,0,0,1-2.732,5.35ZM4.685,9.407a3.169,3.169,0,0,1-.554,1.956,1.777,1.777,0,0,1-1.5.735,1.646,1.646,0,0,1-1.294-.557v2.49H-.071V6.717H1.238l.049.518a1.659,1.659,0,0,1,1.338-.615,1.789,1.789,0,0,1,1.519.723,3.254,3.254,0,0,1,.542,1.992ZM3.274,9.3a2.091,2.091,0,0,0-.261-1.141.85.85,0,0,0-.759-.4.924.924,0,0,0-.913.509v2.17a.939.939,0,0,0,.923.524Q3.274,10.96,3.274,9.3ZM7.249,5.418v1.3h.9V7.752h-.9v2.637a.63.63,0,0,0,.112.42.564.564,0,0,0,.43.127,2.25,2.25,0,0,0,.415-.034v1.069a2.905,2.905,0,0,1-.854.127,1.347,1.347,0,0,1-1.514-1.5V7.752H5.066V6.717h.771v-1.3ZM8.572,9.31a3.133,3.133,0,0,1,.3-1.4,2.216,2.216,0,0,1,.872-.952,2.543,2.543,0,0,1,1.321-.337,2.406,2.406,0,0,1,1.746.654,2.626,2.626,0,0,1,.754,1.777l.01.361a2.761,2.761,0,0,1-.679,1.951,2.359,2.359,0,0,1-1.821.735,2.371,2.371,0,0,1-1.824-.732,2.81,2.81,0,0,1-.681-1.992Zm1.411.1a1.975,1.975,0,0,0,.283,1.152,1.017,1.017,0,0,0,1.611,0,2.161,2.161,0,0,0,.288-1.259,1.955,1.955,0,0,0-.288-1.144.936.936,0,0,0-.811-.406.921.921,0,0,0-.8.4A2.2,2.2,0,0,0,9.983,9.41Zm7.432-1.37A3.834,3.834,0,0,0,16.907,8a1.034,1.034,0,0,0-1.05.542V12H14.446V6.717h1.333l.039.63a1.308,1.308,0,0,1,1.177-.728,1.479,1.479,0,0,1,.439.063ZM20.432,12.1a2.594,2.594,0,0,1-1.892-.713,2.534,2.534,0,0,1-.73-1.9V9.349a3.192,3.192,0,0,1,.308-1.423,2.258,2.258,0,0,1,.872-.967,2.446,2.446,0,0,1,1.287-.339,2.193,2.193,0,0,1,1.707.684A2.778,2.778,0,0,1,22.6,9.241v.576H19.241a1.311,1.311,0,0,0,.413.83,1.247,1.247,0,0,0,.872.313,1.523,1.523,0,0,0,1.274-.591l.693.776a2.118,2.118,0,0,1-.859.7A2.819,2.819,0,0,1,20.432,12.1Zm-.161-4.341a.882.882,0,0,0-.681.284,1.473,1.473,0,0,0-.334.814h1.963V8.743a1.051,1.051,0,0,0-.254-.728A.91.91,0,0,0,20.271,7.757Zm6,2.783a.455.455,0,0,0-.256-.408,2.912,2.912,0,0,0-.823-.266q-1.885-.4-1.885-1.6a1.452,1.452,0,0,1,.583-1.174,2.354,2.354,0,0,1,1.526-.471,2.533,2.533,0,0,1,1.609.474,1.493,1.493,0,0,1,.6,1.23H26.213a.683.683,0,0,0-.2-.5.827.827,0,0,0-.61-.2.845.845,0,0,0-.552.161.509.509,0,0,0-.2.41.435.435,0,0,0,.222.378,2.286,2.286,0,0,0,.75.249,6.122,6.122,0,0,1,.889.237,1.46,1.46,0,0,1,1.118,1.421,1.378,1.378,0,0,1-.62,1.169,2.675,2.675,0,0,1-1.6.447,2.794,2.794,0,0,1-1.179-.237,1.979,1.979,0,0,1-.808-.649,1.509,1.509,0,0,1-.293-.891h1.338a.737.737,0,0,0,.278.576,1.1,1.1,0,0,0,.693.2,1.022,1.022,0,0,0,.613-.154A.479.479,0,0,0,26.267,10.54Z" transform="translate(1271 2086.829)" fill="#12263f"/>
      <path id="Trazado_206292" data-name="Trazado 206292" d="M-11.331,0H-12.8V-7.109h1.465Zm2.563-5.283.044.61A1.845,1.845,0,0,1-7.2-5.381a1.533,1.533,0,0,1,1.25.493,2.3,2.3,0,0,1,.42,1.475V0H-6.946V-3.387a.919.919,0,0,0-.2-.653.873.873,0,0,0-.649-.2.97.97,0,0,0-.894.509V0H-10.1V-5.283ZM-2.976,0H-4.392V-5.283h1.416Zm-1.5-6.65a.7.7,0,0,1,.212-.522.8.8,0,0,1,.579-.205.8.8,0,0,1,.576.205.691.691,0,0,1,.215.522.693.693,0,0,1-.217.527.8.8,0,0,1-.574.205.8.8,0,0,1-.574-.205A.693.693,0,0,1-4.475-6.65ZM.383-1.04a.926.926,0,0,0,.635-.215.753.753,0,0,0,.254-.571H2.6A1.81,1.81,0,0,1,2.3-.842a1.933,1.933,0,0,1-.789.693A2.468,2.468,0,0,1,.408.1a2.294,2.294,0,0,1-1.787-.72,2.85,2.85,0,0,1-.654-1.99v-.093a2.817,2.817,0,0,1,.649-1.948A2.267,2.267,0,0,1,.4-5.381a2.222,2.222,0,0,1,1.589.564,2,2,0,0,1,.608,1.5H1.272a.97.97,0,0,0-.254-.67.847.847,0,0,0-.645-.258.85.85,0,0,0-.745.359A2.083,2.083,0,0,0-.623-2.717v.147A2.109,2.109,0,0,0-.374-1.4.861.861,0,0,0,.383-1.04ZM4.89,0H3.474V-5.283H4.89Zm-1.5-6.65A.7.7,0,0,1,3.6-7.173a.8.8,0,0,1,.579-.205.8.8,0,0,1,.576.205.691.691,0,0,1,.215.522.693.693,0,0,1-.217.527.8.8,0,0,1-.574.205.8.8,0,0,1-.574-.205A.693.693,0,0,1,3.391-6.65ZM9.114,0a1.567,1.567,0,0,1-.142-.474A1.707,1.707,0,0,1,7.639.1,1.876,1.876,0,0,1,6.353-.352a1.445,1.445,0,0,1-.51-1.133,1.493,1.493,0,0,1,.623-1.289,3.072,3.072,0,0,1,1.8-.454h.649v-.3a.871.871,0,0,0-.188-.586.74.74,0,0,0-.593-.22.841.841,0,0,0-.559.171.581.581,0,0,0-.2.469H5.959a1.417,1.417,0,0,1,.283-.85,1.872,1.872,0,0,1,.8-.613,2.918,2.918,0,0,1,1.162-.222,2.306,2.306,0,0,1,1.55.491,1.717,1.717,0,0,1,.574,1.379v2.29a2.526,2.526,0,0,0,.21,1.138V0ZM7.947-.981a1.215,1.215,0,0,0,.576-.139.914.914,0,0,0,.391-.374V-2.4H8.386q-1.06,0-1.128.732l0,.083a.565.565,0,0,0,.186.435A.721.721,0,0,0,7.947-.981ZM12.9,0H11.487V-7.5H12.9ZM-24.6,10.54a.455.455,0,0,0-.256-.408,2.912,2.912,0,0,0-.823-.266q-1.885-.4-1.885-1.6a1.452,1.452,0,0,1,.583-1.174,2.354,2.354,0,0,1,1.526-.471,2.533,2.533,0,0,1,1.609.474,1.493,1.493,0,0,1,.6,1.23h-1.411a.683.683,0,0,0-.2-.5.827.827,0,0,0-.61-.2.845.845,0,0,0-.552.161.509.509,0,0,0-.2.41.435.435,0,0,0,.222.378,2.286,2.286,0,0,0,.75.249,6.122,6.122,0,0,1,.889.237,1.46,1.46,0,0,1,1.118,1.421,1.378,1.378,0,0,1-.62,1.169,2.675,2.675,0,0,1-1.6.447,2.794,2.794,0,0,1-1.179-.237,1.979,1.979,0,0,1-.808-.649,1.509,1.509,0,0,1-.293-.891h1.338a.737.737,0,0,0,.278.576,1.1,1.1,0,0,0,.693.2,1.022,1.022,0,0,0,.613-.154A.479.479,0,0,0-24.6,10.54Zm5.444.923A1.77,1.77,0,0,1-20.6,12.1a1.669,1.669,0,0,1-1.3-.488,2.084,2.084,0,0,1-.457-1.431V6.717h1.411v3.417q0,.826.752.826a1.019,1.019,0,0,0,.986-.5V6.717h1.416V12h-1.328Zm5.293-.923a.455.455,0,0,0-.256-.408,2.912,2.912,0,0,0-.823-.266q-1.885-.4-1.885-1.6a1.452,1.452,0,0,1,.583-1.174,2.354,2.354,0,0,1,1.526-.471,2.533,2.533,0,0,1,1.609.474,1.493,1.493,0,0,1,.6,1.23h-1.411a.683.683,0,0,0-.2-.5.827.827,0,0,0-.61-.2.845.845,0,0,0-.552.161.509.509,0,0,0-.2.41.435.435,0,0,0,.222.378,2.286,2.286,0,0,0,.75.249,6.122,6.122,0,0,1,.889.237,1.46,1.46,0,0,1,1.118,1.421,1.378,1.378,0,0,1-.62,1.169,2.675,2.675,0,0,1-1.6.447,2.794,2.794,0,0,1-1.179-.237,1.979,1.979,0,0,1-.808-.649,1.509,1.509,0,0,1-.293-.891h1.338a.737.737,0,0,0,.278.576,1.1,1.1,0,0,0,.693.2,1.022,1.022,0,0,0,.613-.154A.479.479,0,0,0-13.865,10.54Zm4.478.42a.926.926,0,0,0,.635-.215.753.753,0,0,0,.254-.571h1.323a1.81,1.81,0,0,1-.293.984,1.933,1.933,0,0,1-.789.693,2.468,2.468,0,0,1-1.106.247,2.294,2.294,0,0,1-1.787-.72,2.85,2.85,0,0,1-.654-1.99V9.295a2.817,2.817,0,0,1,.649-1.948,2.267,2.267,0,0,1,1.782-.728,2.222,2.222,0,0,1,1.589.564,2,2,0,0,1,.608,1.5H-8.5a.97.97,0,0,0-.254-.67A.847.847,0,0,0-9.4,7.757a.85.85,0,0,0-.745.359,2.083,2.083,0,0,0-.251,1.166v.147a2.109,2.109,0,0,0,.249,1.174A.861.861,0,0,0-9.387,10.96ZM-3.4,8.04A3.834,3.834,0,0,0-3.909,8a1.034,1.034,0,0,0-1.05.542V12H-6.37V6.717h1.333l.039.63a1.308,1.308,0,0,1,1.177-.728,1.479,1.479,0,0,1,.439.063ZM-1.233,12H-2.649V6.717h1.416Zm-1.5-6.65a.7.7,0,0,1,.212-.522.8.8,0,0,1,.579-.205.8.8,0,0,1,.576.205.691.691,0,0,1,.215.522.693.693,0,0,1-.217.527.8.8,0,0,1-.574.205.8.8,0,0,1-.574-.205A.693.693,0,0,1-2.732,5.35ZM4.685,9.407a3.169,3.169,0,0,1-.554,1.956,1.777,1.777,0,0,1-1.5.735,1.646,1.646,0,0,1-1.294-.557v2.49H-.071V6.717H1.238l.049.518a1.659,1.659,0,0,1,1.338-.615,1.789,1.789,0,0,1,1.519.723,3.254,3.254,0,0,1,.542,1.992ZM3.274,9.3a2.091,2.091,0,0,0-.261-1.141.85.85,0,0,0-.759-.4.924.924,0,0,0-.913.509v2.17a.939.939,0,0,0,.923.524Q3.274,10.96,3.274,9.3ZM7.249,5.418v1.3h.9V7.752h-.9v2.637a.63.63,0,0,0,.112.42.564.564,0,0,0,.43.127,2.25,2.25,0,0,0,.415-.034v1.069a2.905,2.905,0,0,1-.854.127,1.347,1.347,0,0,1-1.514-1.5V7.752H5.066V6.717h.771v-1.3ZM8.572,9.31a3.133,3.133,0,0,1,.3-1.4,2.216,2.216,0,0,1,.872-.952,2.543,2.543,0,0,1,1.321-.337,2.406,2.406,0,0,1,1.746.654,2.626,2.626,0,0,1,.754,1.777l.01.361a2.761,2.761,0,0,1-.679,1.951,2.359,2.359,0,0,1-1.821.735,2.371,2.371,0,0,1-1.824-.732,2.81,2.81,0,0,1-.681-1.992Zm1.411.1a1.975,1.975,0,0,0,.283,1.152,1.017,1.017,0,0,0,1.611,0,2.161,2.161,0,0,0,.288-1.259,1.955,1.955,0,0,0-.288-1.144.936.936,0,0,0-.811-.406.921.921,0,0,0-.8.4A2.2,2.2,0,0,0,9.983,9.41Zm7.432-1.37A3.834,3.834,0,0,0,16.907,8a1.034,1.034,0,0,0-1.05.542V12H14.446V6.717h1.333l.039.63a1.308,1.308,0,0,1,1.177-.728,1.479,1.479,0,0,1,.439.063ZM20.432,12.1a2.594,2.594,0,0,1-1.892-.713,2.534,2.534,0,0,1-.73-1.9V9.349a3.192,3.192,0,0,1,.308-1.423,2.258,2.258,0,0,1,.872-.967,2.446,2.446,0,0,1,1.287-.339,2.193,2.193,0,0,1,1.707.684A2.778,2.778,0,0,1,22.6,9.241v.576H19.241a1.311,1.311,0,0,0,.413.83,1.247,1.247,0,0,0,.872.313,1.523,1.523,0,0,0,1.274-.591l.693.776a2.118,2.118,0,0,1-.859.7A2.819,2.819,0,0,1,20.432,12.1Zm-.161-4.341a.882.882,0,0,0-.681.284,1.473,1.473,0,0,0-.334.814h1.963V8.743a1.051,1.051,0,0,0-.254-.728A.91.91,0,0,0,20.271,7.757Zm6,2.783a.455.455,0,0,0-.256-.408,2.912,2.912,0,0,0-.823-.266q-1.885-.4-1.885-1.6a1.452,1.452,0,0,1,.583-1.174,2.354,2.354,0,0,1,1.526-.471,2.533,2.533,0,0,1,1.609.474,1.493,1.493,0,0,1,.6,1.23H26.213a.683.683,0,0,0-.2-.5.827.827,0,0,0-.61-.2.845.845,0,0,0-.552.161.509.509,0,0,0-.2.41.435.435,0,0,0,.222.378,2.286,2.286,0,0,0,.75.249,6.122,6.122,0,0,1,.889.237,1.46,1.46,0,0,1,1.118,1.421,1.378,1.378,0,0,1-.62,1.169,2.675,2.675,0,0,1-1.6.447,2.794,2.794,0,0,1-1.179-.237,1.979,1.979,0,0,1-.808-.649,1.509,1.509,0,0,1-.293-.891h1.338a.737.737,0,0,0,.278.576,1.1,1.1,0,0,0,.693.2,1.022,1.022,0,0,0,.613-.154A.479.479,0,0,0,26.267,10.54Z" transform="translate(992 1917)" fill="#12263f"/>
      <path id="Trazado_206290" data-name="Trazado 206290" d="M-50.95-1.865a.752.752,0,0,0-.293-.637A3.843,3.843,0,0,0-52.3-2.971,7.477,7.477,0,0,1-53.5-3.457,1.971,1.971,0,0,1-54.714-5.22a1.717,1.717,0,0,1,.325-1.028,2.118,2.118,0,0,1,.933-.706,3.51,3.51,0,0,1,1.365-.254,3.2,3.2,0,0,1,1.357.276,2.161,2.161,0,0,1,.925.779,2.038,2.038,0,0,1,.33,1.143h-1.465a.959.959,0,0,0-.308-.759,1.265,1.265,0,0,0-.864-.271,1.351,1.351,0,0,0-.835.227.716.716,0,0,0-.3.6.686.686,0,0,0,.349.581,3.944,3.944,0,0,0,1.028.439,4.441,4.441,0,0,1,1.821.933,1.857,1.857,0,0,1,.571,1.387,1.711,1.711,0,0,1-.7,1.448A3.057,3.057,0,0,1-52.058.1a3.63,3.63,0,0,1-1.494-.3,2.364,2.364,0,0,1-1.028-.823,2.107,2.107,0,0,1-.354-1.211h1.47q0,1.177,1.406,1.177a1.368,1.368,0,0,0,.815-.212A.691.691,0,0,0-50.95-1.865ZM-46.15.1a2.594,2.594,0,0,1-1.892-.713,2.534,2.534,0,0,1-.73-1.9v-.137a3.192,3.192,0,0,1,.308-1.423,2.258,2.258,0,0,1,.872-.967,2.446,2.446,0,0,1,1.287-.339A2.193,2.193,0,0,1-44.6-4.7a2.778,2.778,0,0,1,.623,1.938v.576h-3.364a1.311,1.311,0,0,0,.413.83,1.247,1.247,0,0,0,.872.313,1.523,1.523,0,0,0,1.274-.591l.693.776a2.118,2.118,0,0,1-.859.7A2.819,2.819,0,0,1-46.15.1Zm-.161-4.341a.882.882,0,0,0-.681.284,1.473,1.473,0,0,0-.334.814h1.963v-.113a1.051,1.051,0,0,0-.254-.728A.91.91,0,0,0-46.311-4.243ZM-37.625,0a1.567,1.567,0,0,1-.142-.474A1.707,1.707,0,0,1-39.1.1a1.876,1.876,0,0,1-1.287-.449,1.445,1.445,0,0,1-.51-1.133,1.493,1.493,0,0,1,.623-1.289,3.072,3.072,0,0,1,1.8-.454h.649v-.3a.871.871,0,0,0-.188-.586.74.74,0,0,0-.593-.22.841.841,0,0,0-.559.171.581.581,0,0,0-.2.469h-1.411a1.418,1.418,0,0,1,.283-.85,1.872,1.872,0,0,1,.8-.613,2.918,2.918,0,0,1,1.162-.222,2.306,2.306,0,0,1,1.55.491,1.717,1.717,0,0,1,.574,1.379v2.29A2.526,2.526,0,0,0-36.2-.083V0Zm-1.167-.981a1.215,1.215,0,0,0,.576-.139.914.914,0,0,0,.391-.374V-2.4h-.527q-1.06,0-1.128.732l0,.083a.565.565,0,0,0,.186.435A.721.721,0,0,0-38.792-.981Zm8.228-1.611a3.2,3.2,0,0,1-.542,1.98A1.8,1.8,0,0,1-32.62.1a1.649,1.649,0,0,1-1.372-.659L-34.055,0h-1.27V-7.5h1.411v2.69a1.607,1.607,0,0,1,1.284-.571,1.81,1.81,0,0,1,1.516.71,3.2,3.2,0,0,1,.549,2ZM-31.975-2.7a2.113,2.113,0,0,0-.254-1.173.858.858,0,0,0-.757-.37.931.931,0,0,0-.928.553V-1.6a.943.943,0,0,0,.938.558.872.872,0,0,0,.9-.676A3.5,3.5,0,0,0-31.975-2.7Zm5.249-1.26A3.834,3.834,0,0,0-27.234-4a1.034,1.034,0,0,0-1.05.542V0h-1.411V-5.283h1.333l.039.63a1.308,1.308,0,0,1,1.177-.728,1.479,1.479,0,0,1,.439.063ZM-24.558,0h-1.416V-5.283h1.416Zm-1.5-6.65a.7.7,0,0,1,.212-.522.8.8,0,0,1,.579-.205.8.8,0,0,1,.576.205.691.691,0,0,1,.215.522.693.693,0,0,1-.217.527.8.8,0,0,1-.574.205.8.8,0,0,1-.574-.205A.693.693,0,0,1-26.057-6.65Zm5.63,2.69A3.834,3.834,0,0,0-20.935-4a1.034,1.034,0,0,0-1.05.542V0H-23.4V-5.283h1.333l.039.63a1.308,1.308,0,0,1,1.177-.728,1.479,1.479,0,0,1,.439.063ZM-16.833,0a1.567,1.567,0,0,1-.142-.474A1.707,1.707,0,0,1-18.308.1a1.876,1.876,0,0,1-1.287-.449,1.445,1.445,0,0,1-.51-1.133,1.493,1.493,0,0,1,.623-1.289,3.072,3.072,0,0,1,1.8-.454h.649v-.3a.871.871,0,0,0-.188-.586.74.74,0,0,0-.593-.22.841.841,0,0,0-.559.171.581.581,0,0,0-.2.469h-1.411a1.417,1.417,0,0,1,.283-.85,1.872,1.872,0,0,1,.8-.613,2.918,2.918,0,0,1,1.162-.222,2.306,2.306,0,0,1,1.55.491,1.717,1.717,0,0,1,.574,1.379v2.29a2.526,2.526,0,0,0,.21,1.138V0ZM-18-.981a1.215,1.215,0,0,0,.576-.139.914.914,0,0,0,.391-.374V-2.4h-.527q-1.06,0-1.128.732l0,.083a.565.565,0,0,0,.186.435A.721.721,0,0,0-18-.981Zm.537-6.519h1.538l-1.353,1.514h-1.147ZM-9.612.1A2.594,2.594,0,0,1-11.5-.615a2.534,2.534,0,0,1-.73-1.9v-.137a3.192,3.192,0,0,1,.308-1.423,2.258,2.258,0,0,1,.872-.967,2.446,2.446,0,0,1,1.287-.339A2.193,2.193,0,0,1-8.062-4.7a2.778,2.778,0,0,1,.623,1.938v.576H-10.8a1.311,1.311,0,0,0,.413.83,1.247,1.247,0,0,0,.872.313,1.523,1.523,0,0,0,1.274-.591l.693.776a2.118,2.118,0,0,1-.859.7A2.819,2.819,0,0,1-9.612.1Zm-.161-4.341a.882.882,0,0,0-.681.284,1.473,1.473,0,0,0-.334.814h1.963v-.113a1.051,1.051,0,0,0-.254-.728A.91.91,0,0,0-9.773-4.243ZM-5.149,0H-6.565V-7.5h1.416ZM1.472-3.96A3.834,3.834,0,0,0,.964-4a1.034,1.034,0,0,0-1.05.542V0H-1.5V-5.283H-.164l.039.63a1.308,1.308,0,0,1,1.177-.728,1.479,1.479,0,0,1,.439.063ZM4.49.1A2.594,2.594,0,0,1,2.6-.615a2.534,2.534,0,0,1-.73-1.9v-.137a3.192,3.192,0,0,1,.308-1.423,2.258,2.258,0,0,1,.872-.967,2.446,2.446,0,0,1,1.287-.339A2.193,2.193,0,0,1,6.04-4.7a2.778,2.778,0,0,1,.623,1.938v.576H3.3a1.311,1.311,0,0,0,.413.83,1.247,1.247,0,0,0,.872.313,1.523,1.523,0,0,0,1.274-.591l.693.776a2.118,2.118,0,0,1-.859.7A2.819,2.819,0,0,1,4.49.1ZM4.329-4.243a.882.882,0,0,0-.681.284,1.473,1.473,0,0,0-.334.814H5.276v-.113a1.051,1.051,0,0,0-.254-.728A.91.91,0,0,0,4.329-4.243Zm2.93,1.563a3.1,3.1,0,0,1,.579-1.958A1.875,1.875,0,0,1,9.4-5.381a1.644,1.644,0,0,1,1.353.6l.059-.5h1.279V-.176a2.258,2.258,0,0,1-.315,1.206,2.023,2.023,0,0,1-.886.781,3.116,3.116,0,0,1-1.338.269,2.9,2.9,0,0,1-1.133-.232,2.011,2.011,0,0,1-.835-.6L8.206.391A1.653,1.653,0,0,0,9.485.981a1.21,1.21,0,0,0,.874-.3,1.126,1.126,0,0,0,.313-.852V-.454A1.632,1.632,0,0,1,9.387.1,1.87,1.87,0,0,1,7.847-.647a3.1,3.1,0,0,1-.588-1.975Zm1.411.1A1.938,1.938,0,0,0,8.958-1.45a.916.916,0,0,0,.791.41.979.979,0,0,0,.923-.486V-3.758a.977.977,0,0,0-.913-.486.921.921,0,0,0-.8.417A2.185,2.185,0,0,0,8.669-2.58ZM14.661,0H13.245V-5.283h1.416Zm-1.5-6.65a.7.7,0,0,1,.212-.522.8.8,0,0,1,.579-.205.8.8,0,0,1,.576.205.691.691,0,0,1,.215.522.693.693,0,0,1-.217.527.8.8,0,0,1-.574.205.8.8,0,0,1-.574-.205A.693.693,0,0,1,13.162-6.65Zm5.522,5.19a.455.455,0,0,0-.256-.408,2.912,2.912,0,0,0-.823-.266q-1.885-.4-1.885-1.6A1.452,1.452,0,0,1,16.3-4.91a2.354,2.354,0,0,1,1.526-.471,2.533,2.533,0,0,1,1.609.474,1.493,1.493,0,0,1,.6,1.23H18.63a.683.683,0,0,0-.2-.5.827.827,0,0,0-.61-.2.845.845,0,0,0-.552.161.509.509,0,0,0-.2.41.435.435,0,0,0,.222.378,2.286,2.286,0,0,0,.75.249,6.122,6.122,0,0,1,.889.237,1.46,1.46,0,0,1,1.118,1.421,1.378,1.378,0,0,1-.62,1.169,2.675,2.675,0,0,1-1.6.447,2.794,2.794,0,0,1-1.179-.237,1.979,1.979,0,0,1-.808-.649,1.509,1.509,0,0,1-.293-.891h1.338a.737.737,0,0,0,.278.576,1.1,1.1,0,0,0,.693.2,1.022,1.022,0,0,0,.613-.154A.479.479,0,0,0,18.684-1.46Zm3.97-5.122v1.3h.9v1.035h-.9v2.637a.63.63,0,0,0,.112.42.564.564,0,0,0,.43.127,2.25,2.25,0,0,0,.415-.034V-.029A2.905,2.905,0,0,1,22.756.1a1.347,1.347,0,0,1-1.514-1.5V-4.248h-.771V-5.283h.771v-1.3ZM27.312-3.96A3.834,3.834,0,0,0,26.8-4a1.034,1.034,0,0,0-1.05.542V0H24.343V-5.283h1.333l.039.63a1.308,1.308,0,0,1,1.177-.728,1.479,1.479,0,0,1,.439.063ZM27.6-2.69a3.133,3.133,0,0,1,.3-1.4,2.216,2.216,0,0,1,.872-.952,2.543,2.543,0,0,1,1.321-.337,2.406,2.406,0,0,1,1.746.654,2.626,2.626,0,0,1,.754,1.777l.01.361a2.761,2.761,0,0,1-.679,1.951A2.359,2.359,0,0,1,30.1.1a2.371,2.371,0,0,1-1.824-.732A2.81,2.81,0,0,1,27.6-2.627Zm1.411.1a1.975,1.975,0,0,0,.283,1.152.934.934,0,0,0,.811.4.936.936,0,0,0,.8-.394,2.161,2.161,0,0,0,.288-1.259A1.955,1.955,0,0,0,30.9-3.837a.936.936,0,0,0-.811-.406.921.921,0,0,0-.8.4A2.2,2.2,0,0,0,29.006-2.59Zm11.709,0a3.169,3.169,0,0,1-.554,1.956,1.777,1.777,0,0,1-1.5.735,1.646,1.646,0,0,1-1.294-.557v2.49H35.959V-5.283h1.309l.049.518a1.659,1.659,0,0,1,1.338-.615,1.789,1.789,0,0,1,1.519.723,3.254,3.254,0,0,1,.542,1.992ZM39.3-2.7a2.091,2.091,0,0,0-.261-1.141.85.85,0,0,0-.759-.4.924.924,0,0,0-.913.509v2.17a.939.939,0,0,0,.923.524Q39.3-1.04,39.3-2.7ZM44.651,0a1.567,1.567,0,0,1-.142-.474A1.707,1.707,0,0,1,43.176.1,1.876,1.876,0,0,1,41.89-.352a1.445,1.445,0,0,1-.51-1.133A1.493,1.493,0,0,1,42-2.773a3.072,3.072,0,0,1,1.8-.454h.649v-.3a.871.871,0,0,0-.188-.586.74.74,0,0,0-.593-.22.841.841,0,0,0-.559.171.581.581,0,0,0-.2.469H41.5a1.418,1.418,0,0,1,.283-.85,1.872,1.872,0,0,1,.8-.613,2.918,2.918,0,0,1,1.162-.222,2.306,2.306,0,0,1,1.55.491,1.717,1.717,0,0,1,.574,1.379v2.29a2.526,2.526,0,0,0,.21,1.138V0ZM43.484-.981a1.215,1.215,0,0,0,.576-.139.914.914,0,0,0,.391-.374V-2.4h-.527q-1.06,0-1.128.732l0,.083a.565.565,0,0,0,.186.435A.721.721,0,0,0,43.484-.981ZM49.919-3.96A3.834,3.834,0,0,0,49.412-4a1.034,1.034,0,0,0-1.05.542V0H46.951V-5.283h1.333l.039.63A1.308,1.308,0,0,1,49.5-5.381a1.479,1.479,0,0,1,.439.063ZM53.513,0a1.567,1.567,0,0,1-.142-.474A1.707,1.707,0,0,1,52.039.1a1.876,1.876,0,0,1-1.287-.449,1.445,1.445,0,0,1-.51-1.133,1.493,1.493,0,0,1,.623-1.289,3.072,3.072,0,0,1,1.8-.454h.649v-.3a.871.871,0,0,0-.188-.586.74.74,0,0,0-.593-.22.841.841,0,0,0-.559.171.581.581,0,0,0-.2.469H50.359a1.418,1.418,0,0,1,.283-.85,1.872,1.872,0,0,1,.8-.613A2.918,2.918,0,0,1,52.6-5.381a2.306,2.306,0,0,1,1.55.491,1.717,1.717,0,0,1,.574,1.379v2.29a2.526,2.526,0,0,0,.21,1.138V0ZM52.346-.981a1.215,1.215,0,0,0,.576-.139.914.914,0,0,0,.391-.374V-2.4h-.527q-1.06,0-1.128.732l0,.083a.565.565,0,0,0,.186.435A.721.721,0,0,0,52.346-.981ZM-36.118,12h-1.416V4.5h1.416Zm4.224,0a1.567,1.567,0,0,1-.142-.474,1.707,1.707,0,0,1-1.333.571,1.876,1.876,0,0,1-1.287-.449,1.445,1.445,0,0,1-.51-1.133,1.493,1.493,0,0,1,.623-1.289,3.072,3.072,0,0,1,1.8-.454h.649v-.3a.871.871,0,0,0-.188-.586.74.74,0,0,0-.593-.22.841.841,0,0,0-.559.171.581.581,0,0,0-.2.469h-1.411a1.418,1.418,0,0,1,.283-.85,1.872,1.872,0,0,1,.8-.613A2.918,2.918,0,0,1-32.8,6.619a2.306,2.306,0,0,1,1.55.491,1.717,1.717,0,0,1,.574,1.379v2.29a2.526,2.526,0,0,0,.21,1.138V12Zm-1.167-.981a1.215,1.215,0,0,0,.576-.139.914.914,0,0,0,.391-.374V9.6h-.527q-1.06,0-1.128.732l0,.083a.565.565,0,0,0,.186.435A.721.721,0,0,0-33.062,11.019Zm10.718-1.611a3.2,3.2,0,0,1-.542,1.98,1.8,1.8,0,0,1-1.514.71,1.65,1.65,0,0,1-1.372-.659l-.063.562H-27.1V4.5h1.411V7.19a1.607,1.607,0,0,1,1.284-.571,1.81,1.81,0,0,1,1.516.71,3.2,3.2,0,0,1,.549,2ZM-23.755,9.3a2.113,2.113,0,0,0-.254-1.173.858.858,0,0,0-.757-.37.931.931,0,0,0-.928.553V10.4a.943.943,0,0,0,.938.558.872.872,0,0,0,.9-.676A3.5,3.5,0,0,0-23.755,9.3Zm4.712,2.8a2.594,2.594,0,0,1-1.892-.713,2.534,2.534,0,0,1-.73-1.9V9.349a3.192,3.192,0,0,1,.308-1.423,2.258,2.258,0,0,1,.872-.967A2.446,2.446,0,0,1-19.2,6.619a2.193,2.193,0,0,1,1.707.684,2.778,2.778,0,0,1,.623,1.938v.576h-3.364a1.311,1.311,0,0,0,.413.83,1.247,1.247,0,0,0,.872.313,1.523,1.523,0,0,0,1.274-.591l.693.776a2.118,2.118,0,0,1-.859.7A2.819,2.819,0,0,1-19.043,12.1ZM-19.2,7.757a.882.882,0,0,0-.681.284,1.473,1.473,0,0,0-.334.814h1.963V8.743a1.051,1.051,0,0,0-.254-.728A.91.91,0,0,0-19.2,7.757Zm4.824-2.339v1.3h.9V7.752h-.9v2.637a.63.63,0,0,0,.112.42.564.564,0,0,0,.43.127,2.25,2.25,0,0,0,.415-.034v1.069a2.9,2.9,0,0,1-.854.127,1.347,1.347,0,0,1-1.514-1.5V7.752h-.771V6.717h.771v-1.3ZM-9.629,12a1.567,1.567,0,0,1-.142-.474A1.707,1.707,0,0,1-11.1,12.1a1.876,1.876,0,0,1-1.287-.449,1.445,1.445,0,0,1-.51-1.133,1.493,1.493,0,0,1,.623-1.289,3.072,3.072,0,0,1,1.8-.454h.649v-.3a.871.871,0,0,0-.188-.586.74.74,0,0,0-.593-.22.841.841,0,0,0-.559.171.581.581,0,0,0-.2.469h-1.411a1.417,1.417,0,0,1,.283-.85,1.872,1.872,0,0,1,.8-.613,2.918,2.918,0,0,1,1.162-.222,2.306,2.306,0,0,1,1.55.491,1.717,1.717,0,0,1,.574,1.379v2.29a2.526,2.526,0,0,0,.21,1.138V12Zm-1.167-.981a1.215,1.215,0,0,0,.576-.139.914.914,0,0,0,.391-.374V9.6h-.527q-1.06,0-1.128.732l0,.083a.565.565,0,0,0,.186.435A.721.721,0,0,0-10.8,11.019ZM-1.777,12a1.567,1.567,0,0,1-.142-.474,1.707,1.707,0,0,1-1.333.571,1.876,1.876,0,0,1-1.287-.449,1.445,1.445,0,0,1-.51-1.133,1.493,1.493,0,0,1,.623-1.289,3.072,3.072,0,0,1,1.8-.454h.649v-.3a.871.871,0,0,0-.188-.586.74.74,0,0,0-.593-.22.841.841,0,0,0-.559.171.581.581,0,0,0-.2.469H-4.932a1.417,1.417,0,0,1,.283-.85,1.872,1.872,0,0,1,.8-.613,2.918,2.918,0,0,1,1.162-.222,2.306,2.306,0,0,1,1.55.491A1.717,1.717,0,0,1-.562,8.489v2.29a2.526,2.526,0,0,0,.21,1.138V12Zm-1.167-.981a1.215,1.215,0,0,0,.576-.139.914.914,0,0,0,.391-.374V9.6H-2.5q-1.06,0-1.128.732l0,.083a.565.565,0,0,0,.186.435A.721.721,0,0,0-2.944,11.019ZM2.012,12H.6V4.5H2.012ZM10.42,9.407a3.169,3.169,0,0,1-.554,1.956,1.777,1.777,0,0,1-1.5.735,1.646,1.646,0,0,1-1.294-.557v2.49H5.664V6.717H6.973l.049.518a1.659,1.659,0,0,1,1.338-.615,1.789,1.789,0,0,1,1.519.723,3.254,3.254,0,0,1,.542,1.992ZM9.009,9.3a2.091,2.091,0,0,0-.261-1.141.85.85,0,0,0-.759-.4.924.924,0,0,0-.913.509v2.17A.939.939,0,0,0,8,10.96Q9.009,10.96,9.009,9.3Zm5.449,2.163a1.77,1.77,0,0,1-1.445.635,1.669,1.669,0,0,1-1.3-.488,2.084,2.084,0,0,1-.457-1.431V6.717h1.411v3.417q0,.826.752.826a1.019,1.019,0,0,0,.986-.5V6.717h1.416V12H14.5ZM13.828,4.5h1.538L14.014,6.014H12.866ZM21.65,9.407a3.2,3.2,0,0,1-.542,1.98,1.8,1.8,0,0,1-1.514.71,1.65,1.65,0,0,1-1.372-.659L18.159,12H16.89V4.5H18.3V7.19a1.607,1.607,0,0,1,1.284-.571,1.81,1.81,0,0,1,1.516.71,3.2,3.2,0,0,1,.549,2ZM20.239,9.3a2.113,2.113,0,0,0-.254-1.173.858.858,0,0,0-.757-.37.931.931,0,0,0-.928.553V10.4a.943.943,0,0,0,.938.558.872.872,0,0,0,.9-.676A3.5,3.5,0,0,0,20.239,9.3Zm3.77,2.7H22.593V4.5h1.416Zm2.651,0H25.244V6.717H26.66Zm-1.5-6.65a.7.7,0,0,1,.212-.522.915.915,0,0,1,1.155,0,.746.746,0,0,1,0,1.05.905.905,0,0,1-1.147,0A.693.693,0,0,1,25.161,5.35Zm4.858,5.61a.926.926,0,0,0,.635-.215.753.753,0,0,0,.254-.571h1.323a1.81,1.81,0,0,1-.293.984,1.933,1.933,0,0,1-.789.693,2.468,2.468,0,0,1-1.106.247,2.294,2.294,0,0,1-1.787-.72,2.85,2.85,0,0,1-.654-1.99V9.295a2.817,2.817,0,0,1,.649-1.948,2.267,2.267,0,0,1,1.782-.728,2.222,2.222,0,0,1,1.589.564,2,2,0,0,1,.608,1.5H30.908a.97.97,0,0,0-.254-.67.944.944,0,0,0-1.389.1,2.083,2.083,0,0,0-.251,1.166v.147a2.109,2.109,0,0,0,.249,1.174A.861.861,0,0,0,30.02,10.96Zm2.8-1.65a3.133,3.133,0,0,1,.3-1.4,2.216,2.216,0,0,1,.872-.952,2.543,2.543,0,0,1,1.321-.337,2.406,2.406,0,0,1,1.746.654,2.626,2.626,0,0,1,.754,1.777l.01.361a2.761,2.761,0,0,1-.679,1.951,2.631,2.631,0,0,1-3.645,0,2.81,2.81,0,0,1-.681-1.992Zm1.411.1a1.975,1.975,0,0,0,.283,1.152,1.017,1.017,0,0,0,1.611,0,2.161,2.161,0,0,0,.288-1.259,1.955,1.955,0,0,0-.288-1.144.936.936,0,0,0-.811-.406.921.921,0,0,0-.8.4A2.2,2.2,0,0,0,34.229,9.41Z" transform="translate(908 2077)" fill="#12263f"/>
      <path id="Trazado_206294" data-name="Trazado 206294" d="M-41.5-2.368a2.516,2.516,0,0,1-.847,1.807A2.975,2.975,0,0,1-44.36.1a2.675,2.675,0,0,1-2.151-.92,3.774,3.774,0,0,1-.784-2.527v-.435a4.262,4.262,0,0,1,.361-1.807A2.708,2.708,0,0,1-45.9-6.79a2.893,2.893,0,0,1,1.56-.417,2.9,2.9,0,0,1,1.982.659A2.7,2.7,0,0,1-41.489-4.7h-1.465a1.485,1.485,0,0,0-.383-1,1.419,1.419,0,0,0-1-.31,1.245,1.245,0,0,0-1.1.525,2.942,2.942,0,0,0-.374,1.628v.537a3.149,3.149,0,0,0,.349,1.685,1.222,1.222,0,0,0,1.1.532,1.446,1.446,0,0,0,1.013-.31,1.4,1.4,0,0,0,.383-.959ZM-37.568,0a1.567,1.567,0,0,1-.142-.474A1.707,1.707,0,0,1-39.043.1,1.876,1.876,0,0,1-40.33-.352a1.445,1.445,0,0,1-.51-1.133,1.493,1.493,0,0,1,.623-1.289,3.072,3.072,0,0,1,1.8-.454h.649v-.3a.871.871,0,0,0-.188-.586.74.74,0,0,0-.593-.22.841.841,0,0,0-.559.171.581.581,0,0,0-.2.469h-1.411a1.418,1.418,0,0,1,.283-.85,1.872,1.872,0,0,1,.8-.613,2.918,2.918,0,0,1,1.162-.222,2.306,2.306,0,0,1,1.55.491,1.717,1.717,0,0,1,.574,1.379v2.29a2.526,2.526,0,0,0,.21,1.138V0Zm-1.167-.981a1.215,1.215,0,0,0,.576-.139.914.914,0,0,0,.391-.374V-2.4H-38.3q-1.06,0-1.128.732l0,.083a.565.565,0,0,0,.186.435A.721.721,0,0,0-38.735-.981Zm4.79-4.3.044.591a1.857,1.857,0,0,1,1.519-.688,1.409,1.409,0,0,1,1.4.806,1.814,1.814,0,0,1,1.587-.806,1.576,1.576,0,0,1,1.279.5,2.3,2.3,0,0,1,.42,1.506V0h-1.416V-3.377a1.01,1.01,0,0,0-.176-.658.778.778,0,0,0-.62-.208.881.881,0,0,0-.879.607l0,3.636h-1.411V-3.372a1,1,0,0,0-.181-.666.786.786,0,0,0-.615-.206.914.914,0,0,0-.869.5V0h-1.411V-5.283Zm12.09,2.69A3.169,3.169,0,0,1-22.41-.637a1.777,1.777,0,0,1-1.5.735A1.646,1.646,0,0,1-25.2-.459v2.49h-1.411V-5.283H-25.3l.049.518a1.659,1.659,0,0,1,1.338-.615,1.789,1.789,0,0,1,1.519.723,3.254,3.254,0,0,1,.542,1.992ZM-23.267-2.7a2.091,2.091,0,0,0-.261-1.141.85.85,0,0,0-.759-.4.924.924,0,0,0-.913.509v2.17a.939.939,0,0,0,.923.524Q-23.267-1.04-23.267-2.7ZM-17.92,0a1.567,1.567,0,0,1-.142-.474A1.707,1.707,0,0,1-19.395.1a1.876,1.876,0,0,1-1.287-.449,1.445,1.445,0,0,1-.51-1.133,1.493,1.493,0,0,1,.623-1.289,3.072,3.072,0,0,1,1.8-.454h.649v-.3a.871.871,0,0,0-.188-.586.74.74,0,0,0-.593-.22.841.841,0,0,0-.559.171.581.581,0,0,0-.2.469h-1.411a1.417,1.417,0,0,1,.283-.85,1.872,1.872,0,0,1,.8-.613,2.918,2.918,0,0,1,1.162-.222,2.306,2.306,0,0,1,1.55.491A1.717,1.717,0,0,1-16.7-3.511v2.29a2.526,2.526,0,0,0,.21,1.138V0Zm-1.167-.981a1.215,1.215,0,0,0,.576-.139.914.914,0,0,0,.391-.374V-2.4h-.527q-1.06,0-1.128.732l0,.083a.565.565,0,0,0,.186.435A.721.721,0,0,0-19.087-.981Zm4.766-4.3.044.61a1.845,1.845,0,0,1,1.519-.708,1.533,1.533,0,0,1,1.25.493,2.3,2.3,0,0,1,.42,1.475V0H-12.5V-3.387a.919.919,0,0,0-.2-.653.873.873,0,0,0-.649-.2.97.97,0,0,0-.894.509V0h-1.411V-5.283Zm2.8-2.153a1.367,1.367,0,0,1-.322.925,1,1,0,0,1-.786.374,1.192,1.192,0,0,1-.33-.042,2.212,2.212,0,0,1-.4-.178,2.147,2.147,0,0,0-.366-.168.9.9,0,0,0-.244-.032.392.392,0,0,0-.291.122.475.475,0,0,0-.12.347l-.82-.049a1.387,1.387,0,0,1,.32-.923.986.986,0,0,1,.784-.381,1.009,1.009,0,0,1,.276.037,3.038,3.038,0,0,1,.422.178,2.745,2.745,0,0,0,.405.171.925.925,0,0,0,.234.029.412.412,0,0,0,.3-.12.455.455,0,0,0,.125-.344ZM-6.958,0A1.567,1.567,0,0,1-7.1-.474,1.707,1.707,0,0,1-8.433.1,1.876,1.876,0,0,1-9.719-.352a1.445,1.445,0,0,1-.51-1.133,1.493,1.493,0,0,1,.623-1.289,3.072,3.072,0,0,1,1.8-.454h.649v-.3a.871.871,0,0,0-.188-.586.74.74,0,0,0-.593-.22.841.841,0,0,0-.559.171.581.581,0,0,0-.2.469h-1.411a1.417,1.417,0,0,1,.283-.85,1.872,1.872,0,0,1,.8-.613,2.918,2.918,0,0,1,1.162-.222,2.306,2.306,0,0,1,1.55.491,1.717,1.717,0,0,1,.574,1.379v2.29a2.526,2.526,0,0,0,.21,1.138V0ZM-8.125-.981a1.215,1.215,0,0,0,.576-.139.914.914,0,0,0,.391-.374V-2.4h-.527q-1.06,0-1.128.732l0,.083a.565.565,0,0,0,.186.435A.721.721,0,0,0-8.125-.981ZM2.588-2.593A3.169,3.169,0,0,1,2.034-.637,1.777,1.777,0,0,1,.537.1,1.646,1.646,0,0,1-.757-.459v2.49H-2.168V-5.283H-.859l.049.518A1.659,1.659,0,0,1,.527-5.381a1.789,1.789,0,0,1,1.519.723,3.254,3.254,0,0,1,.542,1.992ZM1.177-2.7A2.091,2.091,0,0,0,.916-3.842a.85.85,0,0,0-.759-.4.924.924,0,0,0-.913.509v2.17a.939.939,0,0,0,.923.524Q1.177-1.04,1.177-2.7ZM6.626-.537A1.77,1.77,0,0,1,5.181.1a1.669,1.669,0,0,1-1.3-.488,2.084,2.084,0,0,1-.457-1.431V-5.283H4.839v3.417q0,.826.752.826a1.019,1.019,0,0,0,.986-.5V-5.283H7.993V0H6.665Zm7.192-2.056a3.2,3.2,0,0,1-.542,1.98A1.8,1.8,0,0,1,11.763.1a1.649,1.649,0,0,1-1.372-.659L10.327,0H9.058V-7.5h1.411v2.69a1.607,1.607,0,0,1,1.284-.571,1.81,1.81,0,0,1,1.516.71,3.2,3.2,0,0,1,.549,2ZM12.407-2.7a2.113,2.113,0,0,0-.254-1.173.858.858,0,0,0-.757-.37.931.931,0,0,0-.928.553V-1.6a.943.943,0,0,0,.938.558.872.872,0,0,0,.9-.676A3.5,3.5,0,0,0,12.407-2.7ZM16.177,0H14.761V-7.5h1.416Zm2.651,0H17.412V-5.283h1.416Zm-1.5-6.65a.7.7,0,0,1,.212-.522.8.8,0,0,1,.579-.205.8.8,0,0,1,.576.205.691.691,0,0,1,.215.522.693.693,0,0,1-.217.527.8.8,0,0,1-.574.205.8.8,0,0,1-.574-.205A.693.693,0,0,1,17.329-6.65Zm4.858,5.61a.926.926,0,0,0,.635-.215.753.753,0,0,0,.254-.571H24.4a1.81,1.81,0,0,1-.293.984,1.933,1.933,0,0,1-.789.693A2.468,2.468,0,0,1,22.212.1a2.294,2.294,0,0,1-1.787-.72,2.85,2.85,0,0,1-.654-1.99v-.093a2.817,2.817,0,0,1,.649-1.948A2.267,2.267,0,0,1,22.2-5.381a2.222,2.222,0,0,1,1.589.564,2,2,0,0,1,.608,1.5H23.076a.97.97,0,0,0-.254-.67.847.847,0,0,0-.645-.258.85.85,0,0,0-.745.359,2.083,2.083,0,0,0-.251,1.166v.147A2.109,2.109,0,0,0,21.431-1.4.861.861,0,0,0,22.188-1.04ZM26.694,0H25.278V-5.283h1.416ZM25.2-6.65a.7.7,0,0,1,.212-.522.8.8,0,0,1,.579-.205.8.8,0,0,1,.576.205.691.691,0,0,1,.215.522.693.693,0,0,1-.217.527.8.8,0,0,1-.574.205.8.8,0,0,1-.574-.205A.693.693,0,0,1,25.2-6.65Zm4.351.068v1.3h.9v1.035h-.9v2.637a.63.63,0,0,0,.112.42.564.564,0,0,0,.43.127A2.25,2.25,0,0,0,30.5-1.1V-.029A2.905,2.905,0,0,1,29.648.1a1.347,1.347,0,0,1-1.514-1.5V-4.248h-.771V-5.283h.771v-1.3ZM34.3,0a1.567,1.567,0,0,1-.142-.474A1.707,1.707,0,0,1,32.822.1a1.876,1.876,0,0,1-1.287-.449,1.445,1.445,0,0,1-.51-1.133,1.493,1.493,0,0,1,.623-1.289,3.072,3.072,0,0,1,1.8-.454H34.1v-.3a.871.871,0,0,0-.188-.586.74.74,0,0,0-.593-.22.841.841,0,0,0-.559.171.581.581,0,0,0-.2.469H31.143a1.417,1.417,0,0,1,.283-.85,1.872,1.872,0,0,1,.8-.613,2.918,2.918,0,0,1,1.162-.222,2.306,2.306,0,0,1,1.55.491,1.717,1.717,0,0,1,.574,1.379v2.29a2.526,2.526,0,0,0,.21,1.138V0ZM33.13-.981a1.215,1.215,0,0,0,.576-.139.914.914,0,0,0,.391-.374V-2.4h-.527q-1.06,0-1.128.732l0,.083a.565.565,0,0,0,.186.435A.721.721,0,0,0,33.13-.981ZM39.565-3.96A3.834,3.834,0,0,0,39.058-4a1.034,1.034,0,0,0-1.05.542V0H36.6V-5.283H37.93l.039.63a1.308,1.308,0,0,1,1.177-.728,1.479,1.479,0,0,1,.439.063ZM41.733,0H40.317V-5.283h1.416Zm-1.5-6.65a.7.7,0,0,1,.212-.522.8.8,0,0,1,.579-.205.8.8,0,0,1,.576.205.691.691,0,0,1,.215.522.693.693,0,0,1-.217.527.8.8,0,0,1-.574.205.8.8,0,0,1-.574-.205A.693.693,0,0,1,40.234-6.65ZM45.957,0a1.567,1.567,0,0,1-.142-.474A1.707,1.707,0,0,1,44.482.1,1.876,1.876,0,0,1,43.2-.352a1.445,1.445,0,0,1-.51-1.133,1.493,1.493,0,0,1,.623-1.289,3.072,3.072,0,0,1,1.8-.454h.649v-.3a.871.871,0,0,0-.188-.586.74.74,0,0,0-.593-.22.841.841,0,0,0-.559.171.581.581,0,0,0-.2.469H42.8a1.418,1.418,0,0,1,.283-.85,1.872,1.872,0,0,1,.8-.613,2.918,2.918,0,0,1,1.162-.222,2.306,2.306,0,0,1,1.55.491,1.717,1.717,0,0,1,.574,1.379v2.29a2.526,2.526,0,0,0,.21,1.138V0ZM44.79-.981a1.215,1.215,0,0,0,.576-.139.914.914,0,0,0,.391-.374V-2.4h-.527q-1.06,0-1.128.732l0,.083a.565.565,0,0,0,.186.435A.721.721,0,0,0,44.79-.981ZM-19.077,10.96a.926.926,0,0,0,.635-.215.753.753,0,0,0,.254-.571h1.323a1.81,1.81,0,0,1-.293.984,1.933,1.933,0,0,1-.789.693,2.468,2.468,0,0,1-1.106.247,2.294,2.294,0,0,1-1.787-.72,2.85,2.85,0,0,1-.654-1.99V9.295a2.817,2.817,0,0,1,.649-1.948,2.267,2.267,0,0,1,1.782-.728,2.222,2.222,0,0,1,1.589.564,2,2,0,0,1,.608,1.5h-1.323a.97.97,0,0,0-.254-.67.847.847,0,0,0-.645-.258.85.85,0,0,0-.745.359,2.083,2.083,0,0,0-.251,1.166v.147a2.109,2.109,0,0,0,.249,1.174A.861.861,0,0,0-19.077,10.96Zm2.8-1.65a3.133,3.133,0,0,1,.3-1.4,2.216,2.216,0,0,1,.872-.952,2.543,2.543,0,0,1,1.321-.337,2.406,2.406,0,0,1,1.746.654,2.626,2.626,0,0,1,.754,1.777l.01.361a2.761,2.761,0,0,1-.679,1.951,2.359,2.359,0,0,1-1.821.735,2.371,2.371,0,0,1-1.824-.732,2.81,2.81,0,0,1-.681-1.992Zm1.411.1a1.975,1.975,0,0,0,.283,1.152.934.934,0,0,0,.811.4.936.936,0,0,0,.8-.394,2.161,2.161,0,0,0,.288-1.259,1.955,1.955,0,0,0-.288-1.144.936.936,0,0,0-.811-.406.921.921,0,0,0-.8.4A2.2,2.2,0,0,0-14.868,9.41Zm5.786-2.693.044.591A1.857,1.857,0,0,1-7.52,6.619a1.409,1.409,0,0,1,1.4.806,1.814,1.814,0,0,1,1.587-.806,1.576,1.576,0,0,1,1.279.5,2.3,2.3,0,0,1,.42,1.506V12H-4.248V8.623a1.01,1.01,0,0,0-.176-.658.778.778,0,0,0-.62-.208.881.881,0,0,0-.879.607l0,3.636H-7.329V8.628a1,1,0,0,0-.181-.666.786.786,0,0,0-.615-.206.914.914,0,0,0-.869.5V12h-1.411V6.717ZM-.259,12H-1.675V6.717H-.259Zm-1.5-6.65a.7.7,0,0,1,.212-.522.8.8,0,0,1,.579-.205.8.8,0,0,1,.576.205.691.691,0,0,1,.215.522.693.693,0,0,1-.217.527.8.8,0,0,1-.574.205.8.8,0,0,1-.574-.205A.693.693,0,0,1-1.758,5.35ZM3.335,12.1a2.594,2.594,0,0,1-1.892-.713,2.534,2.534,0,0,1-.73-1.9V9.349a3.192,3.192,0,0,1,.308-1.423,2.258,2.258,0,0,1,.872-.967,2.446,2.446,0,0,1,1.287-.339A2.193,2.193,0,0,1,4.885,7.3a2.778,2.778,0,0,1,.623,1.938v.576H2.144a1.311,1.311,0,0,0,.413.83,1.247,1.247,0,0,0,.872.313A1.523,1.523,0,0,0,4.7,10.369l.693.776a2.118,2.118,0,0,1-.859.7A2.819,2.819,0,0,1,3.335,12.1ZM3.174,7.757a.882.882,0,0,0-.681.284,1.473,1.473,0,0,0-.334.814H4.121V8.743a1.051,1.051,0,0,0-.254-.728A.91.91,0,0,0,3.174,7.757Zm4.434-1.04.044.61A1.845,1.845,0,0,1,9.17,6.619a1.533,1.533,0,0,1,1.25.493,2.3,2.3,0,0,1,.42,1.475V12H9.429V8.613a.919.919,0,0,0-.2-.653.873.873,0,0,0-.649-.2.97.97,0,0,0-.894.509V12H6.279V6.717Zm5.923,4.146h2.583V12H11.729v-.859l2.485-3.286H11.8V6.717h4.233v.831ZM20.059,12a1.567,1.567,0,0,1-.142-.474,1.707,1.707,0,0,1-1.333.571,1.876,1.876,0,0,1-1.287-.449,1.445,1.445,0,0,1-.51-1.133,1.493,1.493,0,0,1,.623-1.289,3.072,3.072,0,0,1,1.8-.454h.649v-.3a.871.871,0,0,0-.188-.586.74.74,0,0,0-.593-.22.841.841,0,0,0-.559.171.581.581,0,0,0-.2.469H16.9a1.417,1.417,0,0,1,.283-.85,1.872,1.872,0,0,1,.8-.613,2.918,2.918,0,0,1,1.162-.222,2.306,2.306,0,0,1,1.55.491,1.717,1.717,0,0,1,.574,1.379v2.29a2.526,2.526,0,0,0,.21,1.138V12Zm-1.167-.981a1.215,1.215,0,0,0,.576-.139.914.914,0,0,0,.391-.374V9.6h-.527q-1.06,0-1.128.732l0,.083a.565.565,0,0,0,.186.435A.721.721,0,0,0,18.892,11.019Z" transform="translate(1076 2077)" fill="#12263f"/>
    </g>
  </g>
</svg>
