<svg xmlns="http://www.w3.org/2000/svg" width="120" height="120" viewBox="0 0 120 120">
  <g id="Grupo_150380" data-name="Grupo 150380" transform="translate(-918 -139.52)">
    <circle id="Elipse_5643" data-name="Elipse 5643" cx="60" cy="60" r="60" transform="translate(918 139.52)" fill="#fff"/>
    <g id="_x38_59-Interface_x2C__Tick_x2C__User" transform="translate(900.566 131.794)">
      <path id="Trazado_203990" data-name="Trazado 203990" d="M461.7,120a1.7,1.7,0,1,1-1.7,1.7A1.7,1.7,0,0,1,461.7,120Z" transform="translate(-348.536 -74.686)"/>
      <path id="Trazado_203991" data-name="Trazado 203991" d="M461.7,380a1.7,1.7,0,1,1-1.7,1.7A1.7,1.7,0,0,1,461.7,380Z" transform="translate(-348.536 -290.447)"/>
      <path id="Trazado_203992" data-name="Trazado 203992" d="M403.4,440a3.4,3.4,0,1,1-3.4,3.4A3.4,3.4,0,0,1,403.4,440Z" transform="translate(-298.745 -340.237)" fill="#f85316"/>
      <path id="Trazado_203993" data-name="Trazado 203993" d="M391.7,30a1.7,1.7,0,1,1-1.7,1.7A1.7,1.7,0,0,1,391.7,30Z" transform="translate(-290.447)"/>
      <path id="Trazado_203994" data-name="Trazado 203994" d="M94.031,60a34.031,34.031,0,1,0,34.031,34.031A34.03,34.03,0,0,0,94.031,60Z" transform="translate(-16.597 -24.895)" fill="#dce736"/>
      <path id="Trazado_203995" data-name="Trazado 203995" d="M135.523,161.046a25.523,25.523,0,1,1,25.523-25.523A25.523,25.523,0,0,1,135.523,161.046Z" transform="translate(-58.089 -66.388)" fill="#fff"/>
      <path id="Trazado_203996" data-name="Trazado 203996" d="M206.263,207.857a3.4,3.4,0,0,1,0,4.812L194.232,224.7l-4.812,4.812-4.814-4.812L181,221.092a3.4,3.4,0,0,1,4.812-4.812l3.611,3.609,12.031-12.031a3.4,3.4,0,0,1,4.812,0Z" transform="translate(-116.179 -146.767)" fill="#75b62f"/>
      <path id="Trazado_203997" data-name="Trazado 203997" d="M101.7,460a1.7,1.7,0,1,1-1.7,1.7A1.7,1.7,0,0,1,101.7,460Z" transform="translate(-49.791 -356.834)"/>
      <path id="Trazado_203998" data-name="Trazado 203998" d="M64.254,50A4.254,4.254,0,1,1,60,54.254,4.253,4.253,0,0,1,64.254,50Z" transform="translate(-16.597 -16.597)" fill="#f85316"/>
      <path id="Trazado_203999" data-name="Trazado 203999" d="M41.7,130a1.7,1.7,0,1,1-1.7,1.7A1.7,1.7,0,0,1,41.7,130Z" transform="translate(0 -82.985)"/>
      <path id="Trazado_204000" data-name="Trazado 204000" d="M41.7,380a1.7,1.7,0,1,1-1.7,1.7A1.7,1.7,0,0,1,41.7,380Z" transform="translate(0 -290.447)"/>
      <path id="Trazado_204001" data-name="Trazado 204001" d="M85.732,121.464a35.732,35.732,0,1,1,35.732-35.732A35.773,35.773,0,0,1,85.732,121.464Zm0-68.061a32.329,32.329,0,1,0,32.329,32.329A32.365,32.365,0,0,0,85.732,53.4Z" transform="translate(-8.298 -16.597)"/>
      <path id="Trazado_204002" data-name="Trazado 204002" d="M127.224,154.449a27.224,27.224,0,1,1,27.224-27.224A27.255,27.255,0,0,1,127.224,154.449Zm0-51.046a23.821,23.821,0,1,0,23.821,23.821A23.848,23.848,0,0,0,127.224,103.4Z" transform="translate(-49.791 -58.089)"/>
      <path id="Trazado_204003" data-name="Trazado 204003" d="M251.7,278.926a1.7,1.7,0,0,1-1.7-1.7v-6.806a1.7,1.7,0,0,1,1.7-1.7A17.034,17.034,0,0,0,268.717,251.7a1.7,1.7,0,1,1,3.4,0A20.447,20.447,0,0,1,253.4,272.05v5.175A1.7,1.7,0,0,1,251.7,278.926Z" transform="translate(-174.268 -182.566)"/>
      <path id="Trazado_204004" data-name="Trazado 204004" d="M141.7,128.926a1.7,1.7,0,0,1-1.7-1.7,20.447,20.447,0,0,1,18.717-20.348V101.7a1.7,1.7,0,1,1,3.4,0v6.806a1.7,1.7,0,0,1-1.7,1.7A17.035,17.035,0,0,0,143.4,127.224,1.7,1.7,0,0,1,141.7,128.926Z" transform="translate(-82.985 -58.089)"/>
      <path id="Trazado_204005" data-name="Trazado 204005" d="M55.955,51.911a5.955,5.955,0,1,1,5.955-5.955A5.962,5.962,0,0,1,55.955,51.911Zm0-8.508a2.552,2.552,0,1,0,2.552,2.552A2.555,2.555,0,0,0,55.955,43.4Z" transform="translate(-8.298 -8.298)"/>
      <path id="Trazado_204006" data-name="Trazado 204006" d="M395.1,440.209a5.1,5.1,0,1,1,5.1-5.1A5.11,5.11,0,0,1,395.1,440.209Zm0-6.806a1.7,1.7,0,1,0,1.7,1.7A1.7,1.7,0,0,0,395.1,433.4Z" transform="translate(-290.447 -331.939)"/>
      <path id="Trazado_204007" data-name="Trazado 204007" d="M181.121,222.918a1.7,1.7,0,0,1-1.2-.5L171.5,214a5.1,5.1,0,0,1,7.219-7.218l2.407,2.406,10.829-10.829a5.1,5.1,0,1,1,7.218,7.218L182.324,222.42A1.7,1.7,0,0,1,181.121,222.918ZM175.1,208.687a1.7,1.7,0,0,0-1.2,2.9l7.219,7.22,15.64-15.642a1.7,1.7,0,1,0-2.407-2.4l-12.03,12.03a1.7,1.7,0,0,1-2.406,0l-3.611-3.609a1.69,1.69,0,0,0-1.2-.5Z" transform="translate(-107.88 -138.469)"/>
    </g>
  </g>
</svg>
