<svg xmlns="http://www.w3.org/2000/svg" width="290.339" height="332.366" viewBox="0 0 290.339 332.366">
  <g id="Grupo_150844" data-name="Grupo 150844" transform="translate(-939.661 -1243.771)">
    <path id="Trazado_205872" data-name="Trazado 205872" d="M12.818,0H71.78A12.818,12.818,0,0,1,84.6,12.818V87.779A12.818,12.818,0,0,1,71.78,100.6H12.818A12.818,12.818,0,0,1,0,87.779V12.818A12.818,12.818,0,0,1,12.818,0Z" transform="translate(939.799 1282.829)" fill="#f85316"/>
    <g id="Grupo_150817" data-name="Grupo 150817" transform="translate(948.361 1243.771)">
      <ellipse id="Elipse_5797" data-name="Elipse 5797" cx="30.703" cy="30.703" rx="30.703" ry="30.703" transform="translate(3.034 3.034)" fill="#fff"/>
      <g id="Grupo_150816" data-name="Grupo 150816" transform="translate(0)">
        <path id="Trazado_205781" data-name="Trazado 205781" d="M1372.174,2538.488a33.737,33.737,0,1,1,33.736-33.737A33.775,33.775,0,0,1,1372.174,2538.488Zm0-61.405a27.668,27.668,0,1,0,27.669,27.668A27.7,27.7,0,0,0,1372.174,2477.083Z" transform="translate(-1338.437 -2471.015)" fill="#f85316"/>
      </g>
    </g>
    <path id="Trazado_205875" data-name="Trazado 205875" d="M12.818,0H71.78A12.818,12.818,0,0,1,84.6,12.818V87.779A12.818,12.818,0,0,1,71.78,100.6H12.818A12.818,12.818,0,0,1,0,87.779V12.818A12.818,12.818,0,0,1,12.818,0Z" transform="translate(939.799 1454.592)" fill="#f85316"/>
    <g id="Grupo_150819" data-name="Grupo 150819" transform="translate(948.361 1415.533)">
      <ellipse id="Elipse_5798" data-name="Elipse 5798" cx="30.703" cy="30.703" rx="30.703" ry="30.703" transform="translate(3.034 3.034)" fill="#fff"/>
      <g id="Grupo_150818" data-name="Grupo 150818">
        <path id="Trazado_205782" data-name="Trazado 205782" d="M4133.917,2538.488a33.737,33.737,0,1,1,33.735-33.737A33.775,33.775,0,0,1,4133.917,2538.488Zm0-61.405a27.668,27.668,0,1,0,27.669,27.668A27.7,27.7,0,0,0,4133.917,2477.083Z" transform="translate(-4100.179 -2471.015)" fill="#f85316"/>
      </g>
    </g>
    <path id="Trazado_205874" data-name="Trazado 205874" d="M12.818,0H71.78A12.818,12.818,0,0,1,84.6,12.818V87.779A12.818,12.818,0,0,1,71.78,100.6H12.818A12.818,12.818,0,0,1,0,87.779V12.818A12.818,12.818,0,0,1,12.818,0Z" transform="translate(1145.402 1282.829)" fill="#75b62f"/>
    <g id="Grupo_150820" data-name="Grupo 150820" transform="translate(1153.964 1243.771)">
      <ellipse id="Elipse_5799" data-name="Elipse 5799" cx="30.703" cy="30.703" rx="30.703" ry="30.703" transform="translate(3.034 3.034)" fill="#fff"/>
      <path id="Trazado_205783" data-name="Trazado 205783" d="M3213.334,2538.488a33.737,33.737,0,1,1,33.737-33.737A33.775,33.775,0,0,1,3213.334,2538.488Zm0-61.405A27.668,27.668,0,1,0,3241,2504.751,27.7,27.7,0,0,0,3213.334,2477.083Z" transform="translate(-3179.598 -2471.015)" fill="#75b62f"/>
    </g>
    <path id="Trazado_205873" data-name="Trazado 205873" d="M12.818,0H71.78A12.818,12.818,0,0,1,84.6,12.818V87.779A12.818,12.818,0,0,1,71.78,100.6H12.818A12.818,12.818,0,0,1,0,87.779V12.818A12.818,12.818,0,0,1,12.818,0Z" transform="translate(1042.6 1282.834)" fill="#3d46c2"/>
    <g id="Grupo_150822" data-name="Grupo 150822" transform="translate(1051.163 1243.771)">
      <ellipse id="Elipse_5800" data-name="Elipse 5800" cx="30.703" cy="30.703" rx="30.703" ry="30.703" transform="translate(3.034 3.034)" fill="#fff"/>
      <g id="Grupo_150821" data-name="Grupo 150821" transform="translate(0)">
        <path id="Trazado_205784" data-name="Trazado 205784" d="M2292.754,2538.488a33.737,33.737,0,1,1,33.736-33.737A33.775,33.775,0,0,1,2292.754,2538.488Zm0-61.405a27.668,27.668,0,1,0,27.668,27.668A27.7,27.7,0,0,0,2292.754,2477.083Z" transform="translate(-2259.017 -2471.015)" fill="#3d46c2"/>
      </g>
    </g>
    <path id="Trazado_205877" data-name="Trazado 205877" d="M12.818,0H71.78A12.818,12.818,0,0,1,84.6,12.818V87.779A12.818,12.818,0,0,1,71.78,100.6H12.818A12.818,12.818,0,0,1,0,87.779V12.818A12.818,12.818,0,0,1,12.818,0Z" transform="translate(1145.402 1454.592)" fill="#75b62f"/>
    <g id="Grupo_150824" data-name="Grupo 150824" transform="translate(1153.964 1415.533)">
      <ellipse id="Elipse_5801" data-name="Elipse 5801" cx="30.703" cy="30.703" rx="30.703" ry="30.703" transform="translate(3.034 3.034)" fill="#fff"/>
      <g id="Grupo_150823" data-name="Grupo 150823">
        <path id="Trazado_205785" data-name="Trazado 205785" d="M5975.075,2538.488a33.737,33.737,0,1,1,33.737-33.737A33.776,33.776,0,0,1,5975.075,2538.488Zm0-61.405a27.668,27.668,0,1,0,27.669,27.668A27.7,27.7,0,0,0,5975.075,2477.083Z" transform="translate(-5941.338 -2471.015)" fill="#75b62f"/>
      </g>
    </g>
    <path id="Trazado_205876" data-name="Trazado 205876" d="M12.818,0H71.78A12.818,12.818,0,0,1,84.6,12.818V87.779A12.818,12.818,0,0,1,71.78,100.6H12.818A12.818,12.818,0,0,1,0,87.779V12.818A12.818,12.818,0,0,1,12.818,0Z" transform="translate(1042.6 1454.592)" fill="#3d46c2"/>
    <g id="Grupo_150826" data-name="Grupo 150826" transform="translate(1051.163 1415.533)">
      <ellipse id="Elipse_5802" data-name="Elipse 5802" cx="30.703" cy="30.703" rx="30.703" ry="30.703" transform="translate(3.034 3.034)" fill="#fff"/>
      <g id="Grupo_150825" data-name="Grupo 150825" transform="translate(0)">
        <path id="Trazado_205786" data-name="Trazado 205786" d="M5054.493,2538.488a33.737,33.737,0,1,1,33.737-33.737A33.775,33.775,0,0,1,5054.493,2538.488Zm0-61.405a27.668,27.668,0,1,0,27.669,27.668A27.7,27.7,0,0,0,5054.493,2477.083Z" transform="translate(-5020.757 -2471.015)" fill="#3d46c2"/>
      </g>
    </g>
    <g id="Grupo_150833" data-name="Grupo 150833" transform="translate(971.721 1260.504)">
      <path id="Trazado_205841" data-name="Trazado 205841" d="M1556.71,2620.858q6.771,0,10.4,2.381t3.626,7.8q0,5.462-3.67,7.886t-10.485,2.424h-2.14v10.136h-6.816v-29.838a38.626,38.626,0,0,1,4.718-.614Q1554.831,2620.862,1556.71,2620.858Zm.436,5.81c-.5,0-.982.018-1.464.046s-.9.057-1.244.085v8.738h2.14a11.582,11.582,0,0,0,5.33-.962,3.692,3.692,0,0,0,1.791-3.581,4.3,4.3,0,0,0-.458-2.1,3.478,3.478,0,0,0-1.311-1.331,5.873,5.873,0,0,0-2.075-.7A17.14,17.14,0,0,0,1557.146,2626.668Z" transform="translate(-1547.622 -2620.858)" fill="#f85316"/>
    </g>
    <g id="Grupo_150834" data-name="Grupo 150834" transform="translate(1074.174 1260.854)">
      <path id="Trazado_205842" data-name="Trazado 205842" d="M2465.079,2654.279V2624h20.446v5.721h-13.631v5.941H2484v5.594h-12.1v7.293h14.636v5.725Z" transform="translate(-2465.079 -2624.004)" fill="#3d46c2"/>
    </g>
    <path id="Trazado_205843" data-name="Trazado 205843" d="M3393.058,2643.517a9.657,9.657,0,0,0,2.38-.241,4.389,4.389,0,0,0,1.508-.653,2.2,2.2,0,0,0,.787-.983,3.524,3.524,0,0,0,.218-1.267,2.932,2.932,0,0,0-1.4-2.47,20.185,20.185,0,0,0-4.806-2.119q-1.486-.522-2.971-1.2a10.926,10.926,0,0,1-2.665-1.7,8.173,8.173,0,0,1-1.922-2.492,7.8,7.8,0,0,1-.742-3.56,8.818,8.818,0,0,1,.786-3.78,8.069,8.069,0,0,1,2.229-2.861,10.158,10.158,0,0,1,3.495-1.813,15.672,15.672,0,0,1,4.631-.632,18.429,18.429,0,0,1,8.957,2.1l-1.966,5.373a18.922,18.922,0,0,0-2.818-1.161,12.259,12.259,0,0,0-3.736-.5,6.857,6.857,0,0,0-3.517.678,2.282,2.282,0,0,0-1.071,2.073,2.393,2.393,0,0,0,.394,1.4,3.788,3.788,0,0,0,1.114,1.026,9.382,9.382,0,0,0,1.66.831q.939.373,2.075.766,2.359.873,4.107,1.725a11,11,0,0,1,2.9,1.988,7.243,7.243,0,0,1,1.727,2.665,10.737,10.737,0,0,1,.567,3.713,7.89,7.89,0,0,1-2.971,6.577q-2.971,2.337-8.956,2.335a24.917,24.917,0,0,1-3.627-.238,23.608,23.608,0,0,1-2.861-.593,15.967,15.967,0,0,1-3.648-1.484l1.922-5.416a16.49,16.49,0,0,0,8.214,1.92Z" transform="translate(-2206.252 -1357.587)" fill="#75b62f"/>
    <g id="Grupo_150835" data-name="Grupo 150835" transform="translate(969.559 1432.617)">
      <path id="Trazado_205844" data-name="Trazado 205844" d="M4315.08,2624v5.81h-9.13v24.465h-6.816v-24.465H4290V2624Z" transform="translate(-4290.003 -2624.004)" fill="#f85316"/>
    </g>
    <g id="Grupo_150836" data-name="Grupo 150836" transform="translate(1074.174 1432.617)">
      <path id="Trazado_205845" data-name="Trazado 205845" d="M5226.819,2654.279V2624h20.445v5.721h-13.63v5.941h12.1v5.594h-12.1v7.293h14.636v5.725Z" transform="translate(-5226.819 -2624.004)" fill="#3d46c2"/>
    </g>
    <g id="Grupo_150837" data-name="Grupo 150837" transform="translate(1178.216 1432.617)">
      <path id="Trazado_205846" data-name="Trazado 205846" d="M6178.736,2648.426v5.853h-20.229V2624h6.816v24.422Z" transform="translate(-6158.507 -2624.004)" fill="#75b62f"/>
    </g>
    <g id="Grupo_150838" data-name="Grupo 150838" transform="translate(961.987 1315.441)">
      <path id="Trazado_205847" data-name="Trazado 205847" d="M1680.943,3137.746a8.04,8.04,0,0,0-6.938,12.121l-1.48,3.228a.844.844,0,0,0,1.12,1.119l3.228-1.48a8.048,8.048,0,1,0,4.07-14.988Zm-4.177,9.463a1.414,1.414,0,1,1,1.414-1.414A1.413,1.413,0,0,1,1676.766,3147.209Zm4.178,0a1.414,1.414,0,1,1,1.413-1.414A1.414,1.414,0,0,1,1680.945,3147.209Zm4.178,0a1.414,1.414,0,1,1,1.413-1.414A1.413,1.413,0,0,1,1685.122,3147.209Z" transform="translate(-1648.772 -3134.962)" fill="#fff"/>
      <path id="Trazado_205848" data-name="Trazado 205848" d="M1537.373,3350.77a2.108,2.108,0,0,0,1.287-3.778l-3.115-2.4s-2.16-4.5-2.709-5.605a4.16,4.16,0,0,0-7.679.242l-2.275,5.446a8.121,8.121,0,0,0-.338,4.061,18.591,18.591,0,0,1,.708,3.187l1.389,14.334a1.968,1.968,0,0,0,3.927,0l.988-15.743a3.176,3.176,0,0,1,.241-1.032l1.586-3.8.594,1.209a2.105,2.105,0,0,0,.606.742l3.506,2.7A2.107,2.107,0,0,0,1537.373,3350.77Z" transform="translate(-1515.495 -3311.557)" fill="#fff"/>
      <path id="Trazado_205849" data-name="Trazado 205849" d="M1585.056,3268.3c.011,0,.022,0,.033,0s.022,0,.033,0a4.251,4.251,0,1,0-.066,0Z" transform="translate(-1567.395 -3243.446)" fill="#fff"/>
      <path id="Trazado_205850" data-name="Trazado 205850" d="M1636.789,3340.972h-1.441l-1.275-4.554a5.045,5.045,0,0,0-2.81-3.27l-.616-.282a1.807,1.807,0,1,0-1.807,1.806,1.781,1.781,0,0,0,1.2-.47l.627.282a3.565,3.565,0,0,1,1.995,2.319l1.233,4.418-3.74,1.17a3.641,3.641,0,0,1,.23.9,3.9,3.9,0,0,1-.773,2.862,3.884,3.884,0,0,1-5.453.721l-1.389-1.076v4.659a1.045,1.045,0,0,0,1.045,1.044h4.732v10.686a1.045,1.045,0,0,0,1.044,1.045h7.208a1.045,1.045,0,0,0,1.045-1.045v-20.16A1.058,1.058,0,0,0,1636.789,3340.972Z" transform="translate(-1604.646 -3306.688)" fill="#fff"/>
      <path id="Trazado_205851" data-name="Trazado 205851" d="M1473.683,3127.193a1.257,1.257,0,0,0,.959-1.214v-8.745a1.272,1.272,0,0,0-.168-.654,1.253,1.253,0,0,0-1.381-.58,9.06,9.06,0,0,1-5.193-.433,12.968,12.968,0,0,0-4.946-.708v-.721a1.3,1.3,0,0,0-1.181-1.317,1.249,1.249,0,0,0-1.315,1.247v54.048a1.248,1.248,0,1,0,2.5,0v-41.984a10.208,10.208,0,0,1,4.246.6,14.272,14.272,0,0,0,4.149.752A9.67,9.67,0,0,0,1473.683,3127.193Z" transform="translate(-1460.457 -3112.819)" fill="#fff"/>
    </g>
    <g id="Grupo_150839" data-name="Grupo 150839" transform="translate(1159.45 1490.37)">
      <path id="Trazado_205852" data-name="Trazado 205852" d="M6038.885,3152.315a1.7,1.7,0,0,0-1.373-.946l-12.58.071a6.574,6.574,0,0,0-2.966-3.574v-3.436a3.256,3.256,0,1,0-6.512,0v3.436a6.574,6.574,0,0,0-2.968,3.574l-12.559-.072a1.717,1.717,0,0,0-1.395.946l-7.847,15.556a2.087,2.087,0,0,0-.158,1.474,9.9,9.9,0,0,0,18.994,0,2.081,2.081,0,0,0-.157-1.473l-6.1-12.081,9.246.048a6.569,6.569,0,0,0,2.938,3.483v19.663a7.6,7.6,0,0,1-6.8,7.565l-6.042.646a1.318,1.318,0,0,0-1.173,1.307v1.574a1.313,1.313,0,0,0,1.313,1.311h31.911a1.311,1.311,0,0,0,1.31-1.311V3188.5a1.318,1.318,0,0,0-1.168-1.307l-6.046-.646a7.6,7.6,0,0,1-6.8-7.565v-19.663a6.574,6.574,0,0,0,2.938-3.483l9.246-.048-6.095,12.081a2.075,2.075,0,0,0-.158,1.473,9.9,9.9,0,0,0,18.993,0,2.09,2.09,0,0,0-.156-1.474Zm-33.783,14.914H5994.95l5.075-10.059Zm27.216,0,5.076-10.061,5.076,10.061Z" transform="translate(-5990.459 -3141.174)" fill="#fff"/>
    </g>
    <g id="Grupo_150840" data-name="Grupo 150840" transform="translate(1058.019 1489.846)">
      <path id="Trazado_205853" data-name="Trazado 205853" d="M5163.315,3136.476a23.7,23.7,0,0,0-23.653,22.247,33.158,33.158,0,0,0,8.6,2.625c.251.051.5.1.77.168l.853.118a1.887,1.887,0,0,0,.686-.018l2.659-.6a1.152,1.152,0,0,0,.251-.085l1.756-.853a1.155,1.155,0,0,0,.619-.885l.736-5.237a1.169,1.169,0,0,0-.72-1.22l-.886-.334a1.176,1.176,0,0,1-.77-1.038,1.146,1.146,0,0,1,1.037-1.187l1.322-.118a1.156,1.156,0,0,0,1.036-1.2l-.083-1.605-.184-3.145a1.139,1.139,0,0,0-.752-1.021l-.7-.25a18.892,18.892,0,0,1,7.427-1.522,18.081,18.081,0,0,1,4.182.485l.134,2.794v.083l-.368,3.463a.528.528,0,0,0,.083.352l.4.568a.505.505,0,0,0,.754.083l1.053-.953a.523.523,0,0,1,.836.25l.034.168a.543.543,0,0,0,.469.367l1.2.033a.437.437,0,0,0,.2-.033l1.02-.4a.516.516,0,0,1,.668.636l-.585,1.774a.462.462,0,0,1-.451.352l-1.371.048c-.051,0-.1-.016-.168-.016l-1.69-.5a.524.524,0,0,0-.351.033l-.77.353a.615.615,0,0,1-.418,0l-1.07-.485a.453.453,0,0,0-.436.032l-1.338.936a.466.466,0,0,0-.185.4l.2,1.573a.493.493,0,0,1-.285.518l-.986.469a.507.507,0,0,0-.134.82l.7.668a.491.491,0,0,0,.452.134l1.3-.3a.426.426,0,0,1,.317.033l.586.251a7.634,7.634,0,0,1,.953.7.494.494,0,0,0,.719-.083.55.55,0,0,1,.369-.234l1.02-.117a.4.4,0,0,0,.268-.118l.1-.1a.515.515,0,0,1,.82.2l.518,1.389a.485.485,0,0,1,.067.132l.568.72a.5.5,0,0,1-.05.686l-1.405,1.3a.494.494,0,0,1-.686,0l-1.354-1.237a.927.927,0,0,1-.135-.1l-1.906-.8a.46.46,0,0,0-.15-.034l-2.51-.233a.756.756,0,0,0-.184.017l-2.091.6a2.059,2.059,0,0,0-1.388,1.337l-.518,1.555a2.164,2.164,0,0,0,.1,1.522l.786,1.706a2.076,2.076,0,0,0,1.689,1.189l1.874.183a.483.483,0,0,1,.217.066l1.053.62a.473.473,0,0,1,.251.385l.15,1.907a5.22,5.22,0,0,0,.553,1.889l.9,1.724a1.882,1.882,0,0,0,.167.2l1.522,1.1a.574.574,0,0,0,.82-.132l.485-.67c.051-.083.084-.15.134-.233l1.087-2.728a.49.49,0,0,0,.034-.132l.384-3.965a.718.718,0,0,0,.034-.168l.786-1.639a.492.492,0,0,1,.519-.284l2.727.351a.493.493,0,0,0,.418-.15l.518-.536a.489.489,0,0,0,.051-.653l-1.272-1.706a.5.5,0,0,1,.285-.786l.5-.118c.067-.016.853-.066,1.088-.083.034,0,.05.017.083.017l1.188.2c.352.067.535.3.5.569l-.318,3.428a.493.493,0,0,0,.034.218l.921,2.46a18.867,18.867,0,0,1-17.3,11.375c-.4,0-.8-.017-1.188-.051a32.983,32.983,0,0,1,2.777,3.4,5.811,5.811,0,0,1,.737,1.389,23.693,23.693,0,0,0-2.325-47.271Z" transform="translate(-5133.24 -3136.476)" fill="#fff"/>
      <path id="Trazado_205854" data-name="Trazado 205854" d="M5095.177,3367.808a25.329,25.329,0,0,1,11.5,2.566h0a.7.7,0,0,0,.992-.526,6.721,6.721,0,0,0-.258-3.107c-1.528-4.6-5.927-5.528-11.021-6.6-3.509-.738-7.485-1.575-11.006-3.8a2.107,2.107,0,0,0-3.193,2.155c1.17,6.578,4.756,18.327,10.774,20.635,3.237,1.243,6.962.479,10.072-2.044a31.154,31.154,0,0,1,4.347,4.769,2.071,2.071,0,0,0,1.881.893,2,2,0,0,0,1.425-3.146C5106.046,3373.051,5099.129,3369.444,5095.177,3367.808Z" transform="translate(-5082.152 -3331.499)" fill="#fff"/>
    </g>
    <g id="Grupo_150841" data-name="Grupo 150841" transform="translate(1161.454 1317.038)">
      <path id="Trazado_205855" data-name="Trazado 205855" d="M3267.572,3151.691a1.813,1.813,0,0,1-.015-.282,20.955,20.955,0,1,1,41.911,0,1.63,1.63,0,0,1-.015.267,8.825,8.825,0,0,1,3.168,2.635,23.446,23.446,0,0,0,.178-2.9,24.286,24.286,0,1,0-48.572,0,23.78,23.78,0,0,0,.177,2.917A8.561,8.561,0,0,1,3267.572,3151.691Z" transform="translate(-3262.266 -3127.116)" fill="#fff"/>
      <path id="Trazado_205856" data-name="Trazado 205856" d="M3279.732,3374.19a5.534,5.534,0,1,0,5.534-5.534A5.533,5.533,0,0,0,3279.732,3374.19Z" transform="translate(-3276.04 -3341.684)" fill="#fff"/>
      <path id="Trazado_205857" data-name="Trazado 205857" d="M3260.641,3480.806a8.431,8.431,0,0,1-9.489,0,8.756,8.756,0,0,0-4.481,7.635v1.138a2.233,2.233,0,0,0,2.233,2.233h11.879v-.525a11.578,11.578,0,0,1,2.89-7.662A8.822,8.822,0,0,0,3260.641,3480.806Z" transform="translate(-3246.671 -3441.308)" fill="#fff"/>
      <path id="Trazado_205858" data-name="Trazado 205858" d="M3590.155,3368.657a5.533,5.533,0,1,0,5.534,5.534A5.534,5.534,0,0,0,3590.155,3368.657Z" transform="translate(-3546.881 -3341.684)" fill="#fff"/>
      <path id="Trazado_205859" data-name="Trazado 205859" d="M3577.136,3480.8a8.43,8.43,0,0,1-9.491,0,8.757,8.757,0,0,0-3.021,2.806,11.592,11.592,0,0,1,2.89,7.676v.525h11.864a2.223,2.223,0,0,0,2.233-2.233v-1.138A8.75,8.75,0,0,0,3577.136,3480.8Z" transform="translate(-3529.118 -3441.3)" fill="#fff"/>
      <path id="Trazado_205860" data-name="Trazado 205860" d="M3432.177,3399.64a5.534,5.534,0,1,0,5.534-5.534A5.534,5.534,0,0,0,3432.177,3399.64Z" transform="translate(-3411.462 -3364.292)" fill="#fff"/>
      <path id="Trazado_205861" data-name="Trazado 205861" d="M3413.119,3506.253a8.427,8.427,0,0,1-9.49,0,8.746,8.746,0,0,0-4.476,7.633v1.144a2.236,2.236,0,0,0,2.236,2.236h13.971a2.236,2.236,0,0,0,2.236-2.236v-1.144A8.745,8.745,0,0,0,3413.119,3506.253Z" transform="translate(-3382.125 -3463.914)" fill="#fff"/>
      <path id="Trazado_205862" data-name="Trazado 205862" d="M3408.826,3224.248v-7.1a3.031,3.031,0,0,0-3.031-3.031H3390.9a3.032,3.032,0,0,0-3.032,3.031v7.1a3.032,3.032,0,0,0,3.032,3.031h4.452l1.917,3.417a1.236,1.236,0,0,0,2.156,0l1.917-3.417h4.452A3.031,3.031,0,0,0,3408.826,3224.248ZM3398.347,3219a1.7,1.7,0,1,1-1.7,1.7A1.7,1.7,0,0,1,3398.347,3219Zm-5.758,3.395a1.7,1.7,0,1,1,1.7-1.7A1.7,1.7,0,0,1,3392.589,3222.4Zm11.518,0a1.7,1.7,0,1,1,1.7-1.7A1.7,1.7,0,0,1,3404.107,3222.4Z" transform="translate(-3372.101 -3204.402)" fill="#fff"/>
    </g>
    <g id="Grupo_150842" data-name="Grupo 150842" transform="translate(956.853 1491.608)">
      <path id="Trazado_205863" data-name="Trazado 205863" d="M4222.781,3285.215a3.933,3.933,0,0,0-3.632,2.437h-8.308l-3.223-5.274,3.166-5.1h8.364a3.93,3.93,0,1,0,0-2.987h-9.2a1.5,1.5,0,0,0-1.269.7l-3.651,5.878H4197.9l-3.651-5.878a1.492,1.492,0,0,0-1.267-.7h-9.2a3.929,3.929,0,1,0,0,2.987h8.365l3.166,5.1-3.224,5.274h-8.308a3.93,3.93,0,1,0,0,2.987h9.146a1.5,1.5,0,0,0,1.274-.715l3.7-6.06h7.122l3.7,6.06a1.493,1.493,0,0,0,1.274.715h9.146a3.929,3.929,0,1,0,3.632-5.424Z" transform="translate(-4176.222 -3258.502)" fill="#fff"/>
      <path id="Trazado_205864" data-name="Trazado 205864" d="M4220.463,3160.026a3.933,3.933,0,0,0,4.478-2.347h3.769l3.652,5.878a1.5,1.5,0,0,0,1.268.7h2.906v7.395a.378.378,0,0,0,.378.378h2.23a.378.378,0,0,0,.378-.378v-7.395h2.9a1.5,1.5,0,0,0,1.269-.7l3.651-5.878h3.769a3.93,3.93,0,1,0,0-2.987h-4.6a1.5,1.5,0,0,0-1.269.7l-3.651,5.878h-7.137l-3.651-5.878a1.494,1.494,0,0,0-1.268-.7h-4.6a3.93,3.93,0,1,0-4.478,5.334Z" transform="translate(-4212.784 -3152.256)" fill="#fff"/>
      <path id="Trazado_205865" data-name="Trazado 205865" d="M4255.6,3414.634a3.936,3.936,0,0,0-4.488,2.345h-3.769l-3.651-5.877a1.5,1.5,0,0,0-1.269-.7h-2.9V3403a.379.379,0,0,0-.378-.378h-2.23a.378.378,0,0,0-.378.378v7.4h-2.906a1.5,1.5,0,0,0-1.268.7l-3.652,5.877h-3.769a3.928,3.928,0,1,0,0,2.988h4.6a1.493,1.493,0,0,0,1.268-.705l3.651-5.877h7.137l3.651,5.877a1.5,1.5,0,0,0,1.269.705h4.6a3.929,3.929,0,1,0,4.486-5.333Z" transform="translate(-4212.784 -3374.664)" fill="#fff"/>
    </g>
    <g id="Grupo_150843" data-name="Grupo 150843" transform="translate(1055.729 1321.061)">
      <path id="Trazado_205866" data-name="Trazado 205866" d="M2555.561,3168.04h-29.446a1.93,1.93,0,0,0-1.924,1.925v5.043c1.321-.219,2.63-.449,3.848-.667v-2.45h25.6v20.926h-25.6V3184.1c-1.116.206-2.45.424-3.848.655v9.982a1.93,1.93,0,0,0,1.924,1.925h29.446a1.932,1.932,0,0,0,1.925-1.925v-24.777A1.932,1.932,0,0,0,2555.561,3168.04Z" transform="translate(-2499.145 -3167.493)" fill="#fff"/>
      <path id="Trazado_205867" data-name="Trazado 205867" d="M2380.686,3173.414a5.135,5.135,0,1,0-5.134-5.136A5.136,5.136,0,0,0,2380.686,3173.414Z" transform="translate(-2367.105 -3163.144)" fill="#fff"/>
      <path id="Trazado_205868" data-name="Trazado 205868" d="M2318.959,3250.712c5.024-.708,11.385-1.852,12.389-2.034a2.309,2.309,0,1,0-.822-4.544c-3.88.7-14.506,2.526-17.039,2.526-8.935,0-13.023,5.958-13.191,6.212a2.308,2.308,0,0,0,.04,2.626l4.046,5.667a2.3,2.3,0,0,0,3.558.242l-.013,1.608-1.427,17.135a2.567,2.567,0,0,0,5.115.427l1.372-16.477h1l1.372,16.477a2.565,2.565,0,0,0,2.554,2.352c.072,0,.143,0,.215-.008a2.565,2.565,0,0,0,2.344-2.771l-1.427-17.135Zm-11,7.515-2.8-3.914a11.239,11.239,0,0,1,2.836-1.87Zm6.924-.25-1.207,1.332a.259.259,0,0,1-.384,0l-1.208-1.332a.26.26,0,0,1-.065-.208l1-7.279h-.47a.259.259,0,0,1-.26-.259v-1.5a.26.26,0,0,1,.26-.26h1.881a.26.26,0,0,1,.259.26v1.5a.259.259,0,0,1-.259.259h-.472l.994,7.279A.256.256,0,0,1,2314.886,3257.977Z" transform="translate(-2299.905 -3235.054)" fill="#fff"/>
      <path id="Trazado_205869" data-name="Trazado 205869" d="M2595.793,3311.319a.77.77,0,0,0,.769.769h2.678a.769.769,0,0,0,.769-.769v-3.809a.768.768,0,0,0-.769-.769h-2.678a.769.769,0,0,0-.769.769Z" transform="translate(-2562.751 -3290.706)" fill="#fff"/>
      <path id="Trazado_205870" data-name="Trazado 205870" d="M2657.827,3281.471a.771.771,0,0,0,.771-.769v-7.657a.769.769,0,0,0-.771-.769h-2.679a.769.769,0,0,0-.769.769v7.657a.77.77,0,0,0,.769.769Z" transform="translate(-2614.795 -3260.089)" fill="#fff"/>
      <path id="Trazado_205871" data-name="Trazado 205871" d="M2716.424,3250.845a.77.77,0,0,0,.769-.769V3238.57a.77.77,0,0,0-.769-.769h-2.678a.769.769,0,0,0-.769.769v11.507a.769.769,0,0,0,.769.769Z" transform="translate(-2666.849 -3229.464)" fill="#fff"/>
    </g>
    <path id="Trazado_206370" data-name="Trazado 206370" d="M-21.031-3.507V0h-2.051V-9.953H-19.2a4.492,4.492,0,0,1,1.972.41,3.022,3.022,0,0,1,1.309,1.166,3.25,3.25,0,0,1,.458,1.719,2.858,2.858,0,0,1-1,2.307,4.171,4.171,0,0,1-2.772.844Zm0-1.661H-19.2a1.8,1.8,0,0,0,1.241-.383,1.392,1.392,0,0,0,.427-1.094,1.642,1.642,0,0,0-.431-1.183,1.609,1.609,0,0,0-1.189-.465h-1.88Zm6.453,1.4a4.387,4.387,0,0,1,.424-1.962,3.1,3.1,0,0,1,1.22-1.333,3.56,3.56,0,0,1,1.849-.472,3.368,3.368,0,0,1,2.444.916A3.676,3.676,0,0,1-7.584-4.129l.014.506a3.866,3.866,0,0,1-.95,2.731A3.3,3.3,0,0,1-11.071.137,3.319,3.319,0,0,1-13.624-.889a3.934,3.934,0,0,1-.954-2.789Zm1.976.14a2.765,2.765,0,0,0,.4,1.612,1.308,1.308,0,0,0,1.135.558A1.311,1.311,0,0,0-9.95-2.007a3.025,3.025,0,0,0,.4-1.763,2.737,2.737,0,0,0-.4-1.6,1.311,1.311,0,0,0-1.135-.568,1.29,1.29,0,0,0-1.121.565A3.076,3.076,0,0,0-12.6-3.626ZM-4.269,0H-6.251V-10.5h1.982ZM-.557,0H-2.54V-7.4H-.557Zm-2.1-9.311a.973.973,0,0,1,.3-.731,1.117,1.117,0,0,1,.81-.287,1.12,1.12,0,0,1,.807.287.967.967,0,0,1,.3.731.97.97,0,0,1-.3.738,1.122,1.122,0,0,1-.8.287,1.122,1.122,0,0,1-.8-.287A.97.97,0,0,1-2.656-9.311Zm6.091.1V-7.4H4.7v1.449H3.435v3.691a.881.881,0,0,0,.157.588.79.79,0,0,0,.6.178,3.151,3.151,0,0,0,.581-.048v1.5a4.067,4.067,0,0,1-1.2.178,1.886,1.886,0,0,1-2.119-2.1V-5.947H.379V-7.4h1.08V-9.215ZM7.885,0H5.9V-7.4H7.885Zm-2.1-9.311a.973.973,0,0,1,.3-.731,1.117,1.117,0,0,1,.81-.287,1.12,1.12,0,0,1,.807.287.967.967,0,0,1,.3.731.97.97,0,0,1-.3.738,1.122,1.122,0,0,1-.8.287,1.122,1.122,0,0,1-.8-.287A.97.97,0,0,1,5.787-9.311Zm6.8,7.854a1.3,1.3,0,0,0,.889-.3,1.054,1.054,0,0,0,.355-.8h1.853a2.534,2.534,0,0,1-.41,1.377,2.706,2.706,0,0,1-1.1.971,3.455,3.455,0,0,1-1.548.345,3.211,3.211,0,0,1-2.5-1.008A3.99,3.99,0,0,1,9.2-3.657v-.13a3.944,3.944,0,0,1,.909-2.728,3.174,3.174,0,0,1,2.5-1.019,3.111,3.111,0,0,1,2.225.79,2.8,2.8,0,0,1,.851,2.1H13.833a1.358,1.358,0,0,0-.355-.938,1.185,1.185,0,0,0-.9-.361,1.19,1.19,0,0,0-1.042.5A2.916,2.916,0,0,0,11.18-3.8V-3.6a2.953,2.953,0,0,0,.349,1.643A1.2,1.2,0,0,0,12.588-1.456Zm3.917-2.311a4.387,4.387,0,0,1,.424-1.962,3.1,3.1,0,0,1,1.22-1.333A3.56,3.56,0,0,1,20-7.533a3.368,3.368,0,0,1,2.444.916A3.676,3.676,0,0,1,23.5-4.129l.014.506a3.866,3.866,0,0,1-.95,2.731A3.3,3.3,0,0,1,20.012.137,3.319,3.319,0,0,1,17.459-.889a3.934,3.934,0,0,1-.954-2.789Zm1.976.14a2.765,2.765,0,0,0,.4,1.612,1.308,1.308,0,0,0,1.135.558,1.311,1.311,0,0,0,1.121-.551,3.025,3.025,0,0,0,.4-1.763,2.737,2.737,0,0,0-.4-1.6A1.311,1.311,0,0,0,20-5.94a1.29,1.29,0,0,0-1.121.565A3.076,3.076,0,0,0,18.481-3.626Z" transform="translate(978 1400.962)" fill="#12263f"/>
    <path id="Trazado_206375" data-name="Trazado 206375" d="M-30.232-8.292h-3.049V0h-2.051V-8.292h-3.008V-9.953h8.107ZM-26.4.137a3.631,3.631,0,0,1-2.649-1,3.548,3.548,0,0,1-1.022-2.659v-.191A4.468,4.468,0,0,1-29.637-5.7a3.161,3.161,0,0,1,1.22-1.354,3.425,3.425,0,0,1,1.8-.475,3.07,3.07,0,0,1,2.389.957,3.889,3.889,0,0,1,.872,2.714v.807h-4.71a1.835,1.835,0,0,0,.578,1.162,1.746,1.746,0,0,0,1.22.438,2.132,2.132,0,0,0,1.784-.827l.971,1.087a2.966,2.966,0,0,1-1.2.981A3.947,3.947,0,0,1-26.4.137Zm-.226-6.077a1.234,1.234,0,0,0-.954.4,2.062,2.062,0,0,0-.468,1.14H-25.3V-4.56a1.471,1.471,0,0,0-.355-1.02A1.274,1.274,0,0,0-26.623-5.94Zm7.465,4.484a1.3,1.3,0,0,0,.889-.3,1.054,1.054,0,0,0,.355-.8h1.853a2.534,2.534,0,0,1-.41,1.377,2.706,2.706,0,0,1-1.1.971,3.455,3.455,0,0,1-1.548.345,3.211,3.211,0,0,1-2.5-1.008,3.99,3.99,0,0,1-.916-2.786v-.13a3.944,3.944,0,0,1,.909-2.728,3.174,3.174,0,0,1,2.5-1.019,3.111,3.111,0,0,1,2.225.79,2.8,2.8,0,0,1,.851,2.1h-1.853a1.358,1.358,0,0,0-.355-.938,1.185,1.185,0,0,0-.9-.361,1.19,1.19,0,0,0-1.042.5A2.916,2.916,0,0,0-20.566-3.8V-3.6a2.953,2.953,0,0,0,.349,1.643A1.2,1.2,0,0,0-19.158-1.456Zm6.043-5.94.062.854a2.582,2.582,0,0,1,2.126-.991,2.146,2.146,0,0,1,1.75.69,3.221,3.221,0,0,1,.588,2.064V0h-1.976V-4.741a1.287,1.287,0,0,0-.273-.915,1.222,1.222,0,0,0-.909-.284A1.359,1.359,0,0,0-13-5.228V0h-1.976V-7.4ZM-7.4-3.767a4.387,4.387,0,0,1,.424-1.962,3.1,3.1,0,0,1,1.22-1.333,3.56,3.56,0,0,1,1.849-.472,3.368,3.368,0,0,1,2.444.916A3.676,3.676,0,0,1-.407-4.129l.014.506a3.866,3.866,0,0,1-.95,2.731A3.3,3.3,0,0,1-3.893.137,3.319,3.319,0,0,1-6.446-.889,3.934,3.934,0,0,1-7.4-3.678Zm1.976.14a2.765,2.765,0,0,0,.4,1.612,1.308,1.308,0,0,0,1.135.558,1.311,1.311,0,0,0,1.121-.551,3.025,3.025,0,0,0,.4-1.763,2.737,2.737,0,0,0-.4-1.6A1.311,1.311,0,0,0-3.907-5.94a1.29,1.29,0,0,0-1.121.565A3.076,3.076,0,0,0-5.424-3.626ZM2.909,0H.926V-10.5H2.909ZM4.228-3.767a4.387,4.387,0,0,1,.424-1.962,3.1,3.1,0,0,1,1.22-1.333,3.56,3.56,0,0,1,1.849-.472,3.368,3.368,0,0,1,2.444.916,3.676,3.676,0,0,1,1.056,2.488l.014.506a3.866,3.866,0,0,1-.95,2.731A3.3,3.3,0,0,1,7.735.137,3.319,3.319,0,0,1,5.182-.889a3.934,3.934,0,0,1-.954-2.789Zm1.976.14a2.765,2.765,0,0,0,.4,1.612,1.308,1.308,0,0,0,1.135.558,1.311,1.311,0,0,0,1.121-.551,3.025,3.025,0,0,0,.4-1.763,2.737,2.737,0,0,0-.4-1.6A1.311,1.311,0,0,0,7.721-5.94,1.29,1.29,0,0,0,6.6-5.376,3.076,3.076,0,0,0,6.2-3.626ZM8.111-10.5h2.153L8.371-8.381H6.764Zm4.054,6.747a4.335,4.335,0,0,1,.81-2.741,2.625,2.625,0,0,1,2.184-1.039,2.3,2.3,0,0,1,1.894.834l.082-.7h1.791v7.15a3.161,3.161,0,0,1-.441,1.688,2.832,2.832,0,0,1-1.241,1.094,4.362,4.362,0,0,1-1.873.376,4.056,4.056,0,0,1-1.586-.325,2.815,2.815,0,0,1-1.169-.837l.875-1.2a2.314,2.314,0,0,0,1.791.827,1.694,1.694,0,0,0,1.224-.42,1.577,1.577,0,0,0,.438-1.193v-.4a2.285,2.285,0,0,1-1.8.772A2.618,2.618,0,0,1,12.988-.906a4.334,4.334,0,0,1-.824-2.765Zm1.976.141a2.714,2.714,0,0,0,.4,1.583,1.282,1.282,0,0,0,1.107.573,1.371,1.371,0,0,0,1.292-.68V-5.261a1.368,1.368,0,0,0-1.278-.68,1.29,1.29,0,0,0-1.118.584A3.059,3.059,0,0,0,14.14-3.612ZM22.528,0H20.545V-7.4h1.982Zm-2.1-9.311a.973.973,0,0,1,.3-.731,1.117,1.117,0,0,1,.81-.287,1.12,1.12,0,0,1,.807.287.967.967,0,0,1,.3.731.97.97,0,0,1-.3.738,1.122,1.122,0,0,1-.8.287,1.122,1.122,0,0,1-.8-.287A.97.97,0,0,1,20.429-9.311Zm6.8,7.854a1.3,1.3,0,0,0,.889-.3,1.054,1.054,0,0,0,.355-.8h1.853a2.534,2.534,0,0,1-.41,1.377,2.706,2.706,0,0,1-1.1.971,3.455,3.455,0,0,1-1.548.345,3.211,3.211,0,0,1-2.5-1.008,3.99,3.99,0,0,1-.916-2.786v-.13a3.944,3.944,0,0,1,.909-2.728,3.174,3.174,0,0,1,2.5-1.019,3.111,3.111,0,0,1,2.225.79,2.8,2.8,0,0,1,.851,2.1H28.475a1.358,1.358,0,0,0-.355-.938,1.185,1.185,0,0,0-.9-.361,1.19,1.19,0,0,0-1.042.5A2.916,2.916,0,0,0,25.823-3.8V-3.6a2.953,2.953,0,0,0,.349,1.643A1.2,1.2,0,0,0,27.231-1.456Zm3.917-2.311a4.387,4.387,0,0,1,.424-1.962,3.1,3.1,0,0,1,1.22-1.333,3.56,3.56,0,0,1,1.849-.472,3.368,3.368,0,0,1,2.444.916,3.676,3.676,0,0,1,1.056,2.488l.014.506A3.866,3.866,0,0,1,37.2-.892,3.3,3.3,0,0,1,34.655.137,3.319,3.319,0,0,1,32.1-.889a3.934,3.934,0,0,1-.954-2.789Zm1.976.14a2.765,2.765,0,0,0,.4,1.612,1.308,1.308,0,0,0,1.135.558,1.311,1.311,0,0,0,1.121-.551,3.025,3.025,0,0,0,.4-1.763,2.737,2.737,0,0,0-.4-1.6,1.311,1.311,0,0,0-1.135-.568,1.29,1.29,0,0,0-1.121.565A3.076,3.076,0,0,0,33.124-3.626Z" transform="translate(978 1573.225)" fill="#12263f"/>
    <path id="Trazado_206374" data-name="Trazado 206374" d="M-25.573-2.051h-3.6L-29.853,0h-2.181l3.705-9.953h1.9L-22.7,0h-2.181Zm-3.042-1.661h2.488l-1.251-3.726ZM-20.378-7.4l.062.827a2.6,2.6,0,0,1,2.126-.964,1.973,1.973,0,0,1,1.962,1.128,2.54,2.54,0,0,1,2.222-1.128,2.206,2.206,0,0,1,1.791.7,3.221,3.221,0,0,1,.588,2.109V0H-13.61V-4.728a1.414,1.414,0,0,0-.246-.922,1.089,1.089,0,0,0-.868-.291,1.233,1.233,0,0,0-1.23.85L-15.948,0h-1.976V-4.721a1.4,1.4,0,0,0-.253-.932,1.1,1.1,0,0,0-.861-.288,1.28,1.28,0,0,0-1.217.7V0H-22.23V-7.4ZM-3.445-3.63A4.479,4.479,0,0,1-4.2-.858,2.513,2.513,0,0,1-6.323.137,2.309,2.309,0,0,1-8.244-.786L-8.333,0H-10.11V-10.5h1.976v3.767a2.25,2.25,0,0,1,1.8-.8,2.534,2.534,0,0,1,2.123.995,4.485,4.485,0,0,1,.769,2.8ZM-5.421-3.78a2.959,2.959,0,0,0-.355-1.642,1.2,1.2,0,0,0-1.06-.518,1.3,1.3,0,0,0-1.3.775v2.928a1.32,1.32,0,0,0,1.313.782A1.22,1.22,0,0,0-5.564-2.4,4.9,4.9,0,0,0-5.421-3.78ZM-.144,0H-2.126V-7.4H-.144Zm-2.1-9.311a.973.973,0,0,1,.3-.731,1.117,1.117,0,0,1,.81-.287,1.12,1.12,0,0,1,.807.287.967.967,0,0,1,.3.731.97.97,0,0,1-.3.738,1.122,1.122,0,0,1-.8.287,1.122,1.122,0,0,1-.8-.287A.97.97,0,0,1-2.242-9.311ZM4.888.137a3.631,3.631,0,0,1-2.649-1A3.548,3.548,0,0,1,1.217-3.521v-.191A4.468,4.468,0,0,1,1.647-5.7a3.161,3.161,0,0,1,1.22-1.354,3.425,3.425,0,0,1,1.8-.475,3.07,3.07,0,0,1,2.389.957A3.889,3.889,0,0,1,7.93-3.862v.807H3.22A1.835,1.835,0,0,0,3.8-1.894a1.746,1.746,0,0,0,1.22.438A2.132,2.132,0,0,0,6.8-2.283L7.772-1.2a2.966,2.966,0,0,1-1.2.981A3.947,3.947,0,0,1,4.888.137ZM4.662-5.94a1.234,1.234,0,0,0-.954.4A2.062,2.062,0,0,0,3.24-4.4H5.988V-4.56a1.471,1.471,0,0,0-.355-1.02A1.274,1.274,0,0,0,4.662-5.94ZM10.869-7.4l.062.854a2.582,2.582,0,0,1,2.126-.991,2.146,2.146,0,0,1,1.75.69,3.221,3.221,0,0,1,.588,2.064V0H13.419V-4.741a1.287,1.287,0,0,0-.273-.915,1.222,1.222,0,0,0-.909-.284,1.359,1.359,0,0,0-1.251.713V0H9.01V-7.4Zm8.388-1.818V-7.4h1.265v1.449H19.257v3.691a.881.881,0,0,0,.157.588.79.79,0,0,0,.6.178,3.151,3.151,0,0,0,.581-.048v1.5a4.067,4.067,0,0,1-1.2.178,1.886,1.886,0,0,1-2.119-2.1V-5.947H16.2V-7.4h1.08V-9.215ZM25.908,0a2.194,2.194,0,0,1-.2-.663,2.39,2.39,0,0,1-1.866.8,2.626,2.626,0,0,1-1.8-.629,2.023,2.023,0,0,1-.714-1.586,2.09,2.09,0,0,1,.872-1.8,4.3,4.3,0,0,1,2.519-.636h.909v-.424a1.219,1.219,0,0,0-.263-.82,1.035,1.035,0,0,0-.831-.308,1.177,1.177,0,0,0-.783.239.813.813,0,0,0-.284.656H21.492a1.984,1.984,0,0,1,.4-1.189,2.621,2.621,0,0,1,1.121-.858,4.086,4.086,0,0,1,1.627-.311,3.228,3.228,0,0,1,2.17.687,2.4,2.4,0,0,1,.8,1.931v3.206A3.536,3.536,0,0,0,27.9-.116V0ZM24.274-1.374a1.7,1.7,0,0,0,.807-.195,1.28,1.28,0,0,0,.547-.523V-3.363H24.89q-1.483,0-1.579,1.025l-.007.116a.791.791,0,0,0,.26.608A1.009,1.009,0,0,0,24.274-1.374ZM31.213,0H29.23V-10.5h1.982Z" transform="translate(1083.163 1573.225)" fill="#12263f"/>
    <path id="Trazado_206373" data-name="Trazado 206373" d="M-14.239-1.647h4.354V0H-16.29V-9.953h2.051Zm8.8,1.784a3.631,3.631,0,0,1-2.649-1A3.548,3.548,0,0,1-9.105-3.521v-.191A4.468,4.468,0,0,1-8.675-5.7a3.161,3.161,0,0,1,1.22-1.354,3.425,3.425,0,0,1,1.8-.475,3.07,3.07,0,0,1,2.389.957,3.889,3.889,0,0,1,.872,2.714v.807H-7.1a1.835,1.835,0,0,0,.578,1.162,1.746,1.746,0,0,0,1.22.438,2.132,2.132,0,0,0,1.784-.827L-2.55-1.2a2.966,2.966,0,0,1-1.2.981A3.947,3.947,0,0,1-5.435.137ZM-5.66-5.94a1.234,1.234,0,0,0-.954.4A2.062,2.062,0,0,0-7.082-4.4h2.748V-4.56a1.471,1.471,0,0,0-.355-1.02A1.274,1.274,0,0,0-5.66-5.94Zm4.1,2.188a4.335,4.335,0,0,1,.81-2.741A2.625,2.625,0,0,1,1.436-7.533,2.3,2.3,0,0,1,3.329-6.7l.082-.7H5.2v7.15a3.161,3.161,0,0,1-.441,1.688A2.832,2.832,0,0,1,3.521,2.536a4.362,4.362,0,0,1-1.873.376A4.056,4.056,0,0,1,.062,2.587,2.815,2.815,0,0,1-1.107,1.75l.875-1.2a2.314,2.314,0,0,0,1.791.827A1.694,1.694,0,0,0,2.782.954,1.577,1.577,0,0,0,3.22-.239v-.4a2.285,2.285,0,0,1-1.8.772A2.618,2.618,0,0,1-.735-.906a4.334,4.334,0,0,1-.824-2.765Zm1.976.141a2.714,2.714,0,0,0,.4,1.583,1.282,1.282,0,0,0,1.107.573,1.371,1.371,0,0,0,1.292-.68V-5.261a1.368,1.368,0,0,0-1.278-.68,1.29,1.29,0,0,0-1.118.584A3.059,3.059,0,0,0,.417-3.612ZM11.006,0a2.194,2.194,0,0,1-.2-.663,2.39,2.39,0,0,1-1.866.8,2.626,2.626,0,0,1-1.8-.629,2.023,2.023,0,0,1-.714-1.586,2.09,2.09,0,0,1,.872-1.8,4.3,4.3,0,0,1,2.519-.636h.909v-.424a1.219,1.219,0,0,0-.263-.82,1.035,1.035,0,0,0-.831-.308,1.177,1.177,0,0,0-.783.239.813.813,0,0,0-.284.656H6.59a1.984,1.984,0,0,1,.4-1.189,2.621,2.621,0,0,1,1.121-.858,4.086,4.086,0,0,1,1.627-.311,3.228,3.228,0,0,1,2.17.687,2.4,2.4,0,0,1,.8,1.931v3.206A3.536,3.536,0,0,0,13-.116V0ZM9.372-1.374a1.7,1.7,0,0,0,.807-.195,1.28,1.28,0,0,0,.547-.523V-3.363H9.987q-1.483,0-1.579,1.025L8.4-2.222a.791.791,0,0,0,.26.608A1.009,1.009,0,0,0,9.372-1.374ZM16.311,0H14.328V-10.5h1.982Z" transform="translate(1183.951 1573.225)" fill="#12263f"/>
    <path id="Trazado_206371" data-name="Trazado 206371" d="M-28.007-4.327h-3.937v2.68h4.621V0H-34V-9.953h6.658v1.661h-4.607V-5.92h3.938Zm4.7,2.871a1.3,1.3,0,0,0,.889-.3,1.054,1.054,0,0,0,.355-.8h1.853a2.534,2.534,0,0,1-.41,1.377,2.706,2.706,0,0,1-1.1.971A3.455,3.455,0,0,1-23.27.137a3.211,3.211,0,0,1-2.5-1.008,3.99,3.99,0,0,1-.916-2.786v-.13a3.944,3.944,0,0,1,.909-2.728,3.174,3.174,0,0,1,2.5-1.019,3.111,3.111,0,0,1,2.225.79,2.8,2.8,0,0,1,.851,2.1H-22.06a1.358,1.358,0,0,0-.355-.938,1.185,1.185,0,0,0-.9-.361,1.19,1.19,0,0,0-1.042.5A2.916,2.916,0,0,0-24.712-3.8V-3.6a2.953,2.953,0,0,0,.349,1.643A1.2,1.2,0,0,0-23.3-1.456Zm3.917-2.311a4.387,4.387,0,0,1,.424-1.962,3.1,3.1,0,0,1,1.22-1.333,3.56,3.56,0,0,1,1.849-.472,3.368,3.368,0,0,1,2.444.916,3.676,3.676,0,0,1,1.056,2.488l.014.506a3.866,3.866,0,0,1-.95,2.731A3.3,3.3,0,0,1-15.88.137,3.319,3.319,0,0,1-18.433-.889a3.934,3.934,0,0,1-.954-2.789Zm1.976.14a2.765,2.765,0,0,0,.4,1.612,1.308,1.308,0,0,0,1.135.558,1.311,1.311,0,0,0,1.121-.551,3.025,3.025,0,0,0,.4-1.763,2.737,2.737,0,0,0-.4-1.6,1.311,1.311,0,0,0-1.135-.568,1.29,1.29,0,0,0-1.121.565A3.076,3.076,0,0,0-17.411-3.626ZM-9.345-7.4l.062.854a2.582,2.582,0,0,1,2.126-.991,2.146,2.146,0,0,1,1.75.69,3.221,3.221,0,0,1,.588,2.064V0H-6.795V-4.741a1.287,1.287,0,0,0-.273-.915,1.222,1.222,0,0,0-.909-.284,1.359,1.359,0,0,0-1.251.713V0H-11.2V-7.4Zm5.715,3.63a4.387,4.387,0,0,1,.424-1.962,3.1,3.1,0,0,1,1.22-1.333A3.56,3.56,0,0,1-.137-7.533a3.368,3.368,0,0,1,2.444.916A3.676,3.676,0,0,1,3.363-4.129l.014.506a3.866,3.866,0,0,1-.95,2.731A3.3,3.3,0,0,1-.123.137,3.319,3.319,0,0,1-2.676-.889,3.934,3.934,0,0,1-3.63-3.678Zm1.976.14a2.765,2.765,0,0,0,.4,1.612,1.308,1.308,0,0,0,1.135.558A1.311,1.311,0,0,0,1-2.007,3.025,3.025,0,0,0,1.4-3.77a2.737,2.737,0,0,0-.4-1.6A1.311,1.311,0,0,0-.137-5.94a1.29,1.29,0,0,0-1.121.565A3.076,3.076,0,0,0-1.654-3.626ZM.253-10.5H2.406L.513-8.381H-1.094ZM6.446-7.4l.062.827a2.6,2.6,0,0,1,2.126-.964A1.973,1.973,0,0,1,10.6-6.405a2.54,2.54,0,0,1,2.222-1.128,2.206,2.206,0,0,1,1.791.7A3.221,3.221,0,0,1,15.2-4.724V0H13.214V-4.728a1.414,1.414,0,0,0-.246-.922A1.089,1.089,0,0,0,12.1-5.94a1.233,1.233,0,0,0-1.23.85L10.876,0H8.9V-4.721a1.4,1.4,0,0,0-.253-.932,1.1,1.1,0,0,0-.861-.288,1.28,1.28,0,0,0-1.217.7V0H4.594V-7.4ZM18.8,0H16.816V-7.4H18.8ZM16.7-9.311a.973.973,0,0,1,.3-.731,1.117,1.117,0,0,1,.81-.287,1.12,1.12,0,0,1,.807.287.967.967,0,0,1,.3.731.97.97,0,0,1-.3.738,1.122,1.122,0,0,1-.8.287,1.122,1.122,0,0,1-.8-.287A.97.97,0,0,1,16.7-9.311Zm6.8,7.854a1.3,1.3,0,0,0,.889-.3,1.054,1.054,0,0,0,.355-.8H26.6a2.534,2.534,0,0,1-.41,1.377,2.706,2.706,0,0,1-1.1.971,3.455,3.455,0,0,1-1.548.345,3.211,3.211,0,0,1-2.5-1.008,3.99,3.99,0,0,1-.916-2.786v-.13a3.944,3.944,0,0,1,.909-2.728,3.174,3.174,0,0,1,2.5-1.019,3.111,3.111,0,0,1,2.225.79,2.8,2.8,0,0,1,.851,2.1H24.746a1.358,1.358,0,0,0-.355-.938,1.185,1.185,0,0,0-.9-.361,1.19,1.19,0,0,0-1.042.5A2.916,2.916,0,0,0,22.094-3.8V-3.6a2.953,2.953,0,0,0,.349,1.643A1.2,1.2,0,0,0,23.5-1.456Zm3.917-2.311a4.387,4.387,0,0,1,.424-1.962,3.1,3.1,0,0,1,1.22-1.333,3.56,3.56,0,0,1,1.849-.472,3.368,3.368,0,0,1,2.444.916,3.676,3.676,0,0,1,1.056,2.488l.014.506a3.866,3.866,0,0,1-.95,2.731A3.3,3.3,0,0,1,30.926.137,3.319,3.319,0,0,1,28.373-.889a3.934,3.934,0,0,1-.954-2.789Zm1.976.14a2.765,2.765,0,0,0,.4,1.612,1.308,1.308,0,0,0,1.135.558,1.311,1.311,0,0,0,1.121-.551,3.025,3.025,0,0,0,.4-1.763,2.737,2.737,0,0,0-.4-1.6,1.311,1.311,0,0,0-1.135-.568,1.29,1.29,0,0,0-1.121.565A3.076,3.076,0,0,0,29.395-3.626Z" transform="translate(1083.636 1400.962)" fill="#12263f"/>
    <path id="Trazado_206372" data-name="Trazado 206372" d="M-13.327-2.611a1.052,1.052,0,0,0-.41-.892,5.38,5.38,0,0,0-1.477-.656A10.467,10.467,0,0,1-16.9-4.84a2.759,2.759,0,0,1-1.7-2.468,2.4,2.4,0,0,1,.455-1.439,2.965,2.965,0,0,1,1.306-.988,4.914,4.914,0,0,1,1.911-.355,4.473,4.473,0,0,1,1.9.386,3.026,3.026,0,0,1,1.3,1.09,2.853,2.853,0,0,1,.461,1.6H-13.32a1.342,1.342,0,0,0-.431-1.063,1.77,1.77,0,0,0-1.21-.379,1.891,1.891,0,0,0-1.169.318,1,1,0,0,0-.417.837.96.96,0,0,0,.489.813,5.522,5.522,0,0,0,1.439.615,6.217,6.217,0,0,1,2.55,1.306,2.6,2.6,0,0,1,.8,1.941A2.4,2.4,0,0,1-12.247-.6a4.279,4.279,0,0,1-2.632.735,5.082,5.082,0,0,1-2.092-.42,3.31,3.31,0,0,1-1.439-1.152,2.95,2.95,0,0,1-.5-1.7h2.058q0,1.647,1.969,1.647a1.915,1.915,0,0,0,1.142-.3A.967.967,0,0,0-13.327-2.611Zm3.008-1.155A4.387,4.387,0,0,1-9.9-5.729a3.1,3.1,0,0,1,1.22-1.333,3.56,3.56,0,0,1,1.849-.472,3.368,3.368,0,0,1,2.444.916A3.676,3.676,0,0,1-3.326-4.129l.014.506a3.866,3.866,0,0,1-.95,2.731A3.3,3.3,0,0,1-6.812.137,3.319,3.319,0,0,1-9.365-.889a3.934,3.934,0,0,1-.954-2.789Zm1.976.14a2.765,2.765,0,0,0,.4,1.612,1.308,1.308,0,0,0,1.135.558,1.311,1.311,0,0,0,1.121-.551,3.025,3.025,0,0,0,.4-1.763,2.737,2.737,0,0,0-.4-1.6A1.311,1.311,0,0,0-6.826-5.94a1.29,1.29,0,0,0-1.121.565A3.076,3.076,0,0,0-8.343-3.626ZM.981-1.456a1.3,1.3,0,0,0,.889-.3,1.054,1.054,0,0,0,.355-.8H4.078a2.534,2.534,0,0,1-.41,1.377,2.706,2.706,0,0,1-1.1.971A3.455,3.455,0,0,1,1.015.137a3.211,3.211,0,0,1-2.5-1.008A3.99,3.99,0,0,1-2.4-3.657v-.13a3.944,3.944,0,0,1,.909-2.728A3.174,3.174,0,0,1,1-7.533a3.111,3.111,0,0,1,2.225.79,2.8,2.8,0,0,1,.851,2.1H2.225A1.358,1.358,0,0,0,1.87-5.58a1.185,1.185,0,0,0-.9-.361,1.19,1.19,0,0,0-1.042.5A2.916,2.916,0,0,0-.427-3.8V-3.6A2.953,2.953,0,0,0-.079-1.956,1.2,1.2,0,0,0,.981-1.456ZM7.291,0H5.308V-7.4H7.291Zm-2.1-9.311a.973.973,0,0,1,.3-.731,1.117,1.117,0,0,1,.81-.287,1.12,1.12,0,0,1,.807.287.967.967,0,0,1,.3.731.97.97,0,0,1-.3.738,1.122,1.122,0,0,1-.8.287,1.122,1.122,0,0,1-.8-.287A.97.97,0,0,1,5.192-9.311ZM13.2,0a2.194,2.194,0,0,1-.2-.663,2.39,2.39,0,0,1-1.866.8,2.626,2.626,0,0,1-1.8-.629,2.023,2.023,0,0,1-.714-1.586,2.09,2.09,0,0,1,.872-1.8,4.3,4.3,0,0,1,2.519-.636h.909v-.424a1.219,1.219,0,0,0-.263-.82,1.035,1.035,0,0,0-.831-.308,1.177,1.177,0,0,0-.783.239.813.813,0,0,0-.284.656H8.788a1.984,1.984,0,0,1,.4-1.189,2.621,2.621,0,0,1,1.121-.858,4.086,4.086,0,0,1,1.627-.311,3.228,3.228,0,0,1,2.17.687,2.4,2.4,0,0,1,.8,1.931v3.206A3.536,3.536,0,0,0,15.2-.116V0ZM11.57-1.374a1.7,1.7,0,0,0,.807-.195,1.28,1.28,0,0,0,.547-.523V-3.363h-.738q-1.483,0-1.579,1.025l-.007.116a.791.791,0,0,0,.26.608A1.009,1.009,0,0,0,11.57-1.374ZM18.508,0H16.526V-10.5h1.982Z" transform="translate(1186.438 1400.962)" fill="#12263f"/>
  </g>
</svg>
