<svg xmlns="http://www.w3.org/2000/svg" width="79.237" height="96.843" viewBox="0 0 79.237 96.843">
  <g id="localizacion" transform="translate(-46.542)">
    <g id="Grupo_150338" data-name="Grupo 150338" transform="translate(48.055 1.513)">
      <path id="Trazado_203858" data-name="Trazado 203858" d="M38.105,0C59.15,0,76.21,5.381,76.21,12.018S59.15,24.036,38.105,24.036,0,18.655,0,12.018,17.06,0,38.105,0Z" transform="translate(0 69.781)" fill="#dce736"/>
      <ellipse id="Elipse_5670" data-name="Elipse 5670" cx="17.209" cy="4.824" rx="17.209" ry="4.824" transform="translate(20.896 76.63)" fill="#abd641"/>
      <path id="Trazado_203854" data-name="Trazado 203854" d="M126.782,8a30.142,30.142,0,0,1,30.142,30.143c0,14.214-20.48,39.885-29.405,51.008a.946.946,0,0,1-1.474,0C116.734,77.526,96.64,51.977,96.64,38.142A30.143,30.143,0,0,1,126.782,8Z" transform="translate(-88.677 -8)" fill="#f85316" fill-rule="evenodd"/>
      <circle id="Elipse_5671" data-name="Elipse 5671" cx="15.794" cy="15.794" r="15.794" transform="translate(19.1 18.351) rotate(-13.3)" fill="#eceff1"/>
      <path id="Trazado_203856" data-name="Trazado 203856" d="M188.292,83.665a15.794,15.794,0,0,0,0,31.588,15.968,15.968,0,0,0,1.891-.113,15.795,15.795,0,0,1,0-31.362A15.886,15.886,0,0,0,188.292,83.665Z" transform="translate(-150.187 -69.353)" fill="#d1d1d6" fill-rule="evenodd"/>
    </g>
    <path id="Trazado_203857" data-name="Trazado 203857" d="M86.16,44.71A13.091,13.091,0,1,1,99.251,31.619,13.106,13.106,0,0,1,86.16,44.71Zm16.117-13.092A16.117,16.117,0,1,0,86.16,47.736,16.136,16.136,0,0,0,102.278,31.619Zm10.373,58.748c-7.055,2.225-16.462,3.45-26.49,3.45s-19.435-1.225-26.49-3.45c-6.325-2-10.1-4.631-10.1-7.055,0-3.856,9.919-8.631,26.568-10.078,1,1.332,1.985,2.609,2.924,3.819-4.553.569-11.621,2.072-11.621,5.915,0,5,11.768,6.336,18.722,6.336s18.722-1.333,18.722-6.336c0-3.838-7.055-5.345-11.6-5.913.947-1.213,1.932-2.489,2.94-3.818,16.628,1.452,26.534,6.221,26.534,10.074C122.753,85.735,118.976,88.372,112.651,90.367ZM84.98,84.531c-1.042-1.3-2.307-2.878-3.722-4.671-7.526.64-10.543,2.48-10.787,3.108.125.3,1.13,1.229,4.366,2.071A46.912,46.912,0,0,0,86.16,86.277a46.914,46.914,0,0,0,11.324-1.238c3.236-.842,4.241-1.773,4.366-2.071-.244-.628-3.258-2.467-10.777-3.106-1.209,1.522-2.317,2.9-3.286,4.11l-.446.559a1.516,1.516,0,0,1-2.361,0ZM57.531,31.656c0,13.2,19.75,38.414,28.629,49.507,4.452-5.551,11.364-14.252,17.315-23.356,7.507-11.486,11.315-20.285,11.315-26.151a28.629,28.629,0,1,0-57.259,0Zm59.116,42.812a71.482,71.482,0,0,0-18.3-4.065c9.242-12.465,19.47-28.357,19.47-38.747a31.655,31.655,0,1,0-63.311,0c0,6.4,4.027,15.8,11.967,27.943,2.434,3.724,5.029,7.391,7.545,10.8a71.54,71.54,0,0,0-18.333,4.063c-7.556,3.017-9.143,6.478-9.143,8.85,0,8.79,20.412,13.532,39.618,13.532s39.618-4.741,39.618-13.532C125.779,80.942,124.194,77.482,116.647,74.468Z" transform="translate(0)" fill-rule="evenodd"/>
  </g>
</svg>
