<svg xmlns="http://www.w3.org/2000/svg" width="94" height="94" viewBox="0 0 94 94">
  <g id="seleccionar" transform="translate(-1 -1)">
    <ellipse id="Elipse_5659" data-name="Elipse 5659" cx="13.5" cy="14" rx="13.5" ry="14" transform="translate(66 22)" fill="#75b62f"/>
    <ellipse id="Elipse_5660" data-name="Elipse 5660" cx="13.5" cy="14" rx="13.5" ry="14" transform="translate(3 22)" fill="#75b62f"/>
    <circle id="Elipse_5661" data-name="Elipse 5661" cx="15" cy="15" r="15" transform="translate(33 3)" fill="#75b62f"/>
    <path id="Trazado_203827" data-name="Trazado 203827" d="M19.617,28.5a10.635,10.635,0,0,1,3.821,3.957,13.65,13.65,0,0,1-18.557,0A10.635,10.635,0,0,1,19.617,28.5Z" transform="translate(2.003 13.419)" fill="#dce736"/>
    <path id="Trazado_203828" data-name="Trazado 203828" d="M61.617,28.5a10.635,10.635,0,0,1,3.821,3.957,13.65,13.65,0,0,1-18.557,0A10.634,10.634,0,0,1,61.617,28.5Z" transform="translate(23.68 13.419)" fill="#dce736"/>
    <path id="Trazado_203829" data-name="Trazado 203829" d="M42.1,16.3a10.619,10.619,0,0,1,3.715,5.776,15.132,15.132,0,0,1-7.247,3.745h-.045a3,3,0,0,0-.879-1.835A2.964,2.964,0,0,0,35.51,23.1a3.041,3.041,0,0,0-3.017,2.729A15.022,15.022,0,0,1,25.2,22.081,10.609,10.609,0,0,1,42.1,16.3Z" transform="translate(12.49 6.71)" fill="#f85316"/>
    <circle id="Elipse_5662" data-name="Elipse 5662" cx="6" cy="6" r="6" transform="translate(10 28)" fill="#f0d0b4"/>
    <circle id="Elipse_5663" data-name="Elipse 5663" cx="6" cy="6" r="6" transform="translate(42 9)" fill="#f0d0b4"/>
    <circle id="Elipse_5664" data-name="Elipse 5664" cx="6" cy="6" r="6" transform="translate(74 28)" fill="#f0d0b4"/>
    <path id="Trazado_203830" data-name="Trazado 203830" d="M55.323,58v6.065H25V58H55.323Z" transform="translate(12.387 29.419)" fill="#3d46c2"/>
    <g id="Grupo_150334" data-name="Grupo 150334" transform="translate(8.581 55.581)">
      <circle id="Elipse_5665" data-name="Elipse 5665" cx="3" cy="3" r="3" transform="translate(0.419 19.419)" fill="#f85316"/>
      <circle id="Elipse_5666" data-name="Elipse 5666" cx="3" cy="3" r="3" transform="translate(9.419 0.419)" fill="#f85316"/>
      <circle id="Elipse_5667" data-name="Elipse 5667" cx="3" cy="3" r="3" transform="translate(75.419 0.419)" fill="#f85316"/>
      <circle id="Elipse_5668" data-name="Elipse 5668" cx="3" cy="3" r="3" transform="translate(66.419 19.419)" fill="#f85316"/>
    </g>
    <path id="Trazado_203831" data-name="Trazado 203831" d="M53.355,44.258a3.041,3.041,0,0,1,3.032-3.032,3.054,3.054,0,0,1,3.032,3.032v19.71A9.085,9.085,0,0,1,57.6,69.426l-2.729,3.639v4.548H30.613V73.065L25.458,62.452a9.025,9.025,0,0,1-1.137-3.381l-1.046-8.4a8.265,8.265,0,0,0-1.319-3.548l-1.562-2.35A2.268,2.268,0,0,1,20,43.485a2.323,2.323,0,0,1,2.335-2.32,8.282,8.282,0,0,1,5.231,1.865,8.183,8.183,0,0,1,2.85,4.761l1.713,8.536h1.516l.879-1.759a6,6,0,0,0,.637-2.714V23.032a1.933,1.933,0,0,1,.015-.3A3.041,3.041,0,0,1,38.194,20a2.964,2.964,0,0,1,2.138.895,3,3,0,0,1,.879,1.835,1.933,1.933,0,0,1,.015.3V41.226a3.041,3.041,0,0,1,3.032-3.032,3.054,3.054,0,0,1,3.032,3.032,3.041,3.041,0,0,1,3.032-3.032,3.054,3.054,0,0,1,3.032,3.032Z" transform="translate(9.806 9.806)" fill="#f0d0b4"/>
    <path id="Trazado_203832" data-name="Trazado 203832" d="M11.065,55.989V36H8.032V55.989a4.548,4.548,0,1,0,3.032,0ZM9.548,61.774a1.516,1.516,0,1,1,1.516-1.516A1.517,1.517,0,0,1,9.548,61.774Z" transform="translate(2.065 18.065)"/>
    <path id="Trazado_203833" data-name="Trazado 203833" d="M15.548,36a4.537,4.537,0,0,0-1.516,8.818V64.806h3.032V44.818A4.537,4.537,0,0,0,15.548,36Zm0,6.065a1.516,1.516,0,1,1,1.516-1.516A1.517,1.517,0,0,1,15.548,42.065Z" transform="translate(5.161 18.065)"/>
    <path id="Trazado_203834" data-name="Trazado 203834" d="M55.065,55.989V36H52.032V55.989a4.548,4.548,0,1,0,3.032,0Zm-1.516,5.786a1.516,1.516,0,1,1,1.516-1.516A1.517,1.517,0,0,1,53.548,61.774Z" transform="translate(24.774 18.065)"/>
    <path id="Trazado_203835" data-name="Trazado 203835" d="M59.548,36a4.537,4.537,0,0,0-1.516,8.818V64.806h3.032V44.818A4.537,4.537,0,0,0,59.548,36Zm0,6.065a1.516,1.516,0,1,1,1.516-1.516A1.517,1.517,0,0,1,59.548,42.065Z" transform="translate(27.871 18.065)"/>
    <path id="Trazado_203836" data-name="Trazado 203836" d="M66.194,49.516a4.524,4.524,0,0,0-1.692.334,4.508,4.508,0,0,0-7.4-2.183,4.409,4.409,0,0,0-4.548-.9V33.717A16.733,16.733,0,0,0,64.48,20.134l6.41,3.527a14.884,14.884,0,1,0,3.081-1.768L64.63,16.754a16.655,16.655,0,0,0-33.261,0l-9.341,5.137a15.332,15.332,0,1,0,3.079,1.766l6.412-3.527A16.724,16.724,0,0,0,43.453,33.718V61.665a4.547,4.547,0,0,1-.464,2l-1.272-6.359a9.8,9.8,0,0,0-9.582-7.855,3.843,3.843,0,0,0-3.2,5.975l1.56,2.341a6.764,6.764,0,0,1,1.079,2.9l1.049,8.389A10.3,10.3,0,0,0,33.9,72.919L38.9,83.22V85.9H35.871V95H69.226V85.9H66.194V83.376l2.426-3.234a10.67,10.67,0,0,0,2.123-6.368V54.065a4.554,4.554,0,0,0-4.548-4.548Zm6.38-3.956a9.093,9.093,0,0,1,14.531,0,12.039,12.039,0,0,1-14.531,0ZM75.29,34.355A4.548,4.548,0,1,1,79.839,38.9,4.554,4.554,0,0,1,75.29,34.355Zm16.677,1.516a12.059,12.059,0,0,1-2.681,7.587A12.124,12.124,0,0,0,84.843,40a7.581,7.581,0,1,0-10.009,0,12.14,12.14,0,0,0-4.444,3.454,12.124,12.124,0,1,1,21.578-7.587ZM8.9,45.561a9.093,9.093,0,0,1,14.531,0,12.039,12.039,0,0,1-14.531,0Zm2.717-11.206A4.548,4.548,0,1,1,16.161,38.9,4.554,4.554,0,0,1,11.613,34.355ZM28.29,35.871a12.059,12.059,0,0,1-2.681,7.587A12.123,12.123,0,0,0,21.166,40a7.581,7.581,0,1,0-10.009,0,12.14,12.14,0,0,0-4.444,3.454A12.124,12.124,0,1,1,28.29,35.871ZM44,30.722a13.553,13.553,0,0,1-4.547-2.427,9.055,9.055,0,0,1,17.1,0A13.526,13.526,0,0,1,52,30.722a4.509,4.509,0,0,0-8,0Zm-.547-16.077A4.548,4.548,0,1,1,48,19.194,4.554,4.554,0,0,1,43.452,14.645Zm-9.1,3.032a13.645,13.645,0,1,1,24.5,8.236,12.075,12.075,0,0,0-5.828-5.635,7.581,7.581,0,1,0-10.049,0,12.074,12.074,0,0,0-5.83,5.637,13.609,13.609,0,0,1-2.791-8.237Zm31.839,74.29H38.9V88.935h27.29ZM67.71,73.774a7.623,7.623,0,0,1-1.516,4.548l-3.032,4.044V85.9H41.935V82.522L36.574,71.5a7.487,7.487,0,0,1-.94-2.818L34.585,60.3a9.793,9.793,0,0,0-1.565-4.207l-1.562-2.342a.811.811,0,0,1,.675-1.261A6.76,6.76,0,0,1,38.743,57.9l1.95,9.744h3.7l1.295-2.591a7.622,7.622,0,0,0,.8-3.389V32.839a1.516,1.516,0,0,1,3.032,0V57.1h3.032V51.032a1.516,1.516,0,0,1,3.032,0V57.1h3.032V51.032a1.516,1.516,0,1,1,3.032,0V57.1h3.032V54.065a1.516,1.516,0,0,1,3.032,0Z"/>
  </g>
</svg>
