<svg xmlns="http://www.w3.org/2000/svg" width="96" height="99.56" viewBox="0 0 96 99.56">
  <g id="incidente" transform="translate(-10.45 -6.09)">
    <g id="Grupo_150336" data-name="Grupo 150336" transform="translate(11.472 7.111)">
      <path id="Trazado_203842" data-name="Trazado 203842" d="M104.75,68.611l-5.37-3.1a40.925,40.925,0,0,0,0-16.313l5.37-3.1a4.318,4.318,0,0,0,1.58-5.9L97.984,25.744a4.311,4.311,0,0,0-5.892-1.576L86.71,27.275a40.167,40.167,0,0,0-14.124-8.167v-6.2A4.311,4.311,0,0,0,68.274,8.59H51.589a4.311,4.311,0,0,0-4.312,4.316v6.2a40.167,40.167,0,0,0-14.124,8.167l-5.382-3.107a4.311,4.311,0,0,0-5.892,1.576L13.533,40.2a4.318,4.318,0,0,0,1.58,5.9l5.37,3.1a40.924,40.924,0,0,0,0,16.313l-5.37,3.1a4.318,4.318,0,0,0-1.58,5.9l8.346,14.451a4.311,4.311,0,0,0,5.892,1.576l5.382-3.107a40.167,40.167,0,0,0,14.124,8.167v6.2a4.309,4.309,0,0,0,4.312,4.316H68.274a4.309,4.309,0,0,0,4.312-4.316v-6.2A40.167,40.167,0,0,0,86.71,87.427l5.382,3.107a4.311,4.311,0,0,0,5.892-1.576l8.346-14.451a4.318,4.318,0,0,0-1.58-5.9ZM59.932,86.99A29.637,29.637,0,1,1,89.564,57.349,29.634,29.634,0,0,1,59.932,86.99Z" transform="translate(-12.954 -8.59)" fill="#f85316"/>
    </g>
    <path id="Trazado_203843" data-name="Trazado 203843" d="M82.944,115.406a4.323,4.323,0,0,1-3.742-6.481L95.042,81.491a4.323,4.323,0,0,1,7.483,0l15.839,27.434a4.323,4.323,0,0,1-3.742,6.481Z" transform="translate(-40.333 -43.336)" fill="#dce736"/>
    <path id="Trazado_203844" data-name="Trazado 203844" d="M92.571,117.875l14.467-25.058,14.467,25.058Z" transform="translate(-48.588 -51.313)" fill="#fff"/>
    <g id="Grupo_150337" data-name="Grupo 150337" transform="translate(10.45 6.09)">
      <path id="Trazado_203845" data-name="Trazado 203845" d="M66.792,105.65H50.108a5.338,5.338,0,0,1-5.333-5.337V94.846A41.025,41.025,0,0,1,31.549,87.2L26.8,89.941a5.335,5.335,0,0,1-7.285-1.952l-2.283-3.953a1.016,1.016,0,0,1,.372-1.392A1.044,1.044,0,0,1,19,83.016l2.287,3.953a3.3,3.3,0,0,0,4.5,1.2l5.382-3.107a1.036,1.036,0,0,1,1.188.118,38.882,38.882,0,0,0,13.765,7.963,1.014,1.014,0,0,1,.7.968v6.2a3.3,3.3,0,0,0,3.291,3.3H66.792a3.3,3.3,0,0,0,3.292-3.3v-6.2a1.013,1.013,0,0,1,.7-.968,38.951,38.951,0,0,0,13.765-7.963,1.035,1.035,0,0,1,1.188-.118l5.382,3.107a3.293,3.293,0,0,0,4.5-1.2l8.346-14.451a3.292,3.292,0,0,0-1.2-4.5l-5.37-3.107a1.014,1.014,0,0,1-.49-1.086,39.914,39.914,0,0,0,0-15.9,1.023,1.023,0,0,1,.49-1.09l5.37-3.1a3.3,3.3,0,0,0,1.209-4.5l-8.35-14.451a3.293,3.293,0,0,0-4.5-1.2l-5.382,3.112a1.043,1.043,0,0,1-1.188-.122A39.009,39.009,0,0,0,70.786,18.6a1.017,1.017,0,0,1-.7-.968v-6.2a3.3,3.3,0,0,0-3.292-3.3H50.108a3.3,3.3,0,0,0-3.291,3.3v6.2a1.014,1.014,0,0,1-.7.968A38.947,38.947,0,0,0,32.349,26.56a1.044,1.044,0,0,1-1.188.122l-5.382-3.107a3.287,3.287,0,0,0-4.5,1.2l-8.35,14.451a3.3,3.3,0,0,0,1.209,4.5l5.369,3.1A1.03,1.03,0,0,1,20,47.92a39.915,39.915,0,0,0,0,15.9,1.024,1.024,0,0,1-.49,1.086l-5.369,3.1a3.3,3.3,0,0,0-1.209,4.5l1.98,3.426a1.023,1.023,0,0,1-.372,1.4,1.054,1.054,0,0,1-1.4-.376l-1.976-3.426a5.334,5.334,0,0,1,1.952-7.289l4.737-2.74a42.132,42.132,0,0,1,0-15.276l-4.737-2.74a5.334,5.334,0,0,1-1.952-7.289l8.342-14.451A5.339,5.339,0,0,1,26.8,21.8l4.749,2.744A41.1,41.1,0,0,1,44.775,16.9V11.427A5.346,5.346,0,0,1,50.108,6.09H66.793a5.346,5.346,0,0,1,5.333,5.337V16.9a41.1,41.1,0,0,1,13.226,7.648l4.749-2.74a5.329,5.329,0,0,1,7.285,1.948l8.346,14.451A5.341,5.341,0,0,1,103.78,45.5l-4.737,2.736a42.141,42.141,0,0,1,0,15.276l4.737,2.74a5.336,5.336,0,0,1,1.952,7.289L97.386,87.99A5.332,5.332,0,0,1,90.1,89.941L85.352,87.2a41.024,41.024,0,0,1-13.226,7.648v5.468a5.338,5.338,0,0,1-5.334,5.337ZM15.187,80.5a1.022,1.022,0,0,1,.376-1.392,1.043,1.043,0,0,1,1.392.372A1.021,1.021,0,1,1,15.187,80.5Z" transform="translate(-10.45 -6.09)"/>
    </g>
    <path id="Trazado_203847" data-name="Trazado 203847" d="M101.933,79.5a5.343,5.343,0,0,0-9.253,0L76.841,106.933a5.349,5.349,0,0,0,4.626,8.012h31.679a5.348,5.348,0,0,0,4.626-8.012L111.745,96.5a1.047,1.047,0,0,0-1.392-.376,1.025,1.025,0,0,0-.376,1.392v0L116,107.953a3.3,3.3,0,0,1-2.858,4.949H81.467a3.3,3.3,0,0,1-2.858-4.949L94.448,80.522a3.3,3.3,0,0,1,5.717,0l5.729,9.927a1.048,1.048,0,0,0,1.4.372,1.02,1.02,0,0,0,.371-1.392Z" transform="translate(-38.856 -41.855)"/>
    <path id="Trazado_203848" data-name="Trazado 203848" d="M155.229,117a1.02,1.02,0,0,0,.371-1.392,1.044,1.044,0,0,0-1.392-.376A1.021,1.021,0,1,0,155.229,117Z" transform="translate(-84.754 -64.5)"/>
    <path id="Trazado_203849" data-name="Trazado 203849" d="M104.673,90.828,90.205,115.887a1.022,1.022,0,0,0,.884,1.531h28.935a1.022,1.022,0,0,0,.884-1.531L106.441,90.828A1.021,1.021,0,0,0,104.673,90.828ZM92.857,115.376l12.7-22,12.7,22Z" transform="translate(-47.107 -49.835)"/>
    <path id="Trazado_203850" data-name="Trazado 203850" d="M126.522,135.75a1.021,1.021,0,0,0-1.021,1.021v.825a1.021,1.021,0,1,0,2.042,0v-.825A1.021,1.021,0,0,0,126.522,135.75Z" transform="translate(-68.072 -76.715)"/>
    <path id="Trazado_203851" data-name="Trazado 203851" d="M125.5,114.785v5.48a1.021,1.021,0,1,0,2.042,0v-5.48a1.021,1.021,0,1,0-2.042,0Z" transform="translate(-68.072 -63.705)"/>
    <path id="Trazado_203852" data-name="Trazado 203852" d="M114.238,83.584A30.659,30.659,0,0,0,64.728,59.41a1.026,1.026,0,0,0-.176,1.437,1.047,1.047,0,0,0,1.433.176,28.6,28.6,0,1,1-5.475,5.639,1.022,1.022,0,0,0-.216-1.429,1.051,1.051,0,0,0-1.429.22,30.656,30.656,0,1,0,55.373,18.13Z" transform="translate(-25.135 -27.714)"/>
    <path id="Trazado_203853" data-name="Trazado 203853" d="M73.723,75.271s0,0,0,0a1.019,1.019,0,1,0,1.441-.02A1.041,1.041,0,0,0,73.723,75.271Z" transform="translate(-37.263 -40.757)"/>
  </g>
</svg>
