<svg xmlns="http://www.w3.org/2000/svg" width="120" height="120" viewBox="0 0 120 120">
  <g id="Grupo_150384" data-name="Grupo 150384" transform="translate(-740 -1322.91)">
    <g id="Elipse_5630" data-name="Elipse 5630" transform="translate(740 1322.91)" fill="#fff" stroke="#77b43a" stroke-width="4">
      <circle cx="60" cy="60" r="60" stroke="none"/>
      <circle cx="60" cy="60" r="58" fill="none"/>
    </g>
    <g id="eficiencia" transform="translate(765.557 1345.636)">
      <path id="Trazado_204008" data-name="Trazado 204008" d="M33.261,43A17.26,17.26,0,0,0,16,60.261l6.473-1.079a10.788,10.788,0,0,1,21.576,0l6.473,1.079A17.26,17.26,0,0,0,33.261,43Z" transform="translate(1.182 3.231)" fill="#dce736"/>
      <path id="Trazado_204009" data-name="Trazado 204009" d="M28.7,43.537a17.26,17.26,0,0,0-10.263,7.554l5.628,2.11a10.788,10.788,0,0,1,6.549-4.559Z" transform="translate(1.374 3.273)" fill="#75b62f"/>
      <path id="Trazado_204010" data-name="Trazado 204010" d="M38.793,44.432,36.031,49.2v0a10.823,10.823,0,0,1,4.895,4.324l5.442-2.419a17.309,17.309,0,0,0-7.573-6.674Z" transform="translate(2.761 3.344)" fill="#75b62f"/>
      <path id="Trazado_204011" data-name="Trazado 204011" d="M63.122,57.144A28.983,28.983,0,0,0,61.886,52.5L65,50.7l-5.22-9.041-3.125,1.8a29.416,29.416,0,0,0-3.4-3.4l1.8-3.125-9.039-5.218-1.8,3.116a28.982,28.982,0,0,0-4.642-1.236V30H29.145v3.606A28.982,28.982,0,0,0,24.5,34.843l-1.8-3.117-9.041,5.22,1.8,3.125a29.416,29.416,0,0,0-3.4,3.4l-3.123-1.8L3.726,50.7l3.116,1.8a28.983,28.983,0,0,0-1.236,4.642H2v5.22h9.4a22.968,22.968,0,1,1,45.936,0h9.4v-5.22Z" transform="translate(0.079 2.207)" fill="#3d46c2"/>
      <path id="Trazado_204030" data-name="Trazado 204030" d="M8.5,0A8.5,8.5,0,1,1,0,8.5,8.5,8.5,0,0,1,8.5,0Z" transform="translate(48.443 3.364)" fill="#a7abdd"/>
      <ellipse id="Elipse_5681" data-name="Elipse 5681" cx="9" cy="8.5" rx="9" ry="8.5" transform="translate(25.443 3.364)" fill="#dce736"/>
      <circle id="Elipse_5682" data-name="Elipse 5682" cx="3.236" cy="3.236" r="3.236" transform="translate(31.271 7.081)" fill="#ffd4a2"/>
      <path id="Trazado_204012" data-name="Trazado 204012" d="M32.45,12.71a5.351,5.351,0,0,0-5.329,4.628l-.011.347A8.6,8.6,0,0,0,37.779,17.6v-.259A5.386,5.386,0,0,0,32.45,12.71Z" transform="translate(2.058 0.844)" fill="#f85316"/>
      <circle id="Elipse_5683" data-name="Elipse 5683" cx="8.5" cy="8.5" r="8.5" transform="translate(3.443 3.364)" fill="#dce736"/>
      <path id="Trazado_204013" data-name="Trazado 204013" d="M32.236,58A3.236,3.236,0,0,0,29,61.236h6.473A3.236,3.236,0,0,0,32.236,58Z" transform="translate(2.207 4.413)" fill="#f85316"/>
      <path id="Trazado_204014" data-name="Trazado 204014" d="M33.34,42A18.36,18.36,0,0,0,15,60.34,1.079,1.079,0,0,0,16.257,61.4l6.473-1.079a1.079,1.079,0,0,0,.9-1.064,9.709,9.709,0,1,1,19.419,0,1.078,1.078,0,0,0,.9,1.064L50.424,61.4a.98.98,0,0,0,.177.015,1.079,1.079,0,0,0,1.079-1.079A18.36,18.36,0,0,0,33.34,42ZM21.507,58.341l-4.3.717a16.071,16.071,0,0,1,2.34-7.173L23.09,53.3a11.792,11.792,0,0,0-1.583,5.039ZM24.383,51.5l-3.53-1.412a16.215,16.215,0,0,1,7.16-5.007l.9,3.173A11.911,11.911,0,0,0,24.383,51.5Zm6.6-3.863-.9-3.14a15.955,15.955,0,0,1,8.844.679l-1.713,2.89a11.672,11.672,0,0,0-6.236-.428ZM39.2,48.958l1.721-2.9a16.272,16.272,0,0,1,5.728,5.116L43,52.388a11.919,11.919,0,0,0-3.8-3.43Zm5.974,9.382a11.789,11.789,0,0,0-1.066-4.049l3.68-1.227a16.035,16.035,0,0,1,1.686,5.993Z" transform="translate(1.103 3.152)"/>
      <path id="Trazado_204015" data-name="Trazado 204015" d="M32.709,21.419A9.709,9.709,0,1,0,23,11.709,9.72,9.72,0,0,0,32.709,21.419Zm-4.129-3.394A4.259,4.259,0,0,1,29.713,15.9a4.3,4.3,0,0,1,7.233,2.061,7.524,7.524,0,0,1-8.366.068Zm2.036-7.707a2.158,2.158,0,1,1,2.158,2.158,2.16,2.16,0,0,1-2.158-2.158Zm2.093-6.16a7.539,7.539,0,0,1,5.952,12.183A6.484,6.484,0,0,0,35.882,13.3a4.317,4.317,0,1,0-6.231-.018,6.66,6.66,0,0,0-1.464,1.092,6.484,6.484,0,0,0-1.357,2.065,7.542,7.542,0,0,1,5.88-12.278Z" transform="translate(1.734 0)"/>
      <path id="Trazado_204016" data-name="Trazado 204016" d="M53.709,21.419A9.709,9.709,0,1,0,44,11.709,9.72,9.72,0,0,0,53.709,21.419ZM52.63,4.244v.993h2.158V4.244a7.557,7.557,0,0,1,6.387,6.387h-.993v2.158h.993a7.557,7.557,0,0,1-6.387,6.387v-.993H52.63v.993a7.557,7.557,0,0,1-6.387-6.387h.993V10.63h-.993A7.557,7.557,0,0,1,52.63,4.244Z" transform="translate(3.389 0)"/>
      <path id="Trazado_204017" data-name="Trazado 204017" d="M11.709,21.419A9.709,9.709,0,1,0,2,11.709,9.72,9.72,0,0,0,11.709,21.419Zm0-17.261a7.552,7.552,0,1,1-7.552,7.552A7.561,7.561,0,0,1,11.709,4.158Z" transform="translate(0.079 0)"/>
      <path id="Trazado_204018" data-name="Trazado 204018" d="M11.236,14.709a1.08,1.08,0,0,1-1.079-1.079H8a3.232,3.232,0,0,0,2.158,3.038v1.277h2.158V16.668a3.229,3.229,0,0,0-1.079-6.274,1.079,1.079,0,1,1,1.079-1.079h2.158a3.232,3.232,0,0,0-2.158-3.038V5H10.158V6.277a3.229,3.229,0,0,0,1.079,6.274,1.079,1.079,0,1,1,0,2.158Z" transform="translate(0.552 0.236)"/>
      <path id="Trazado_204019" data-name="Trazado 204019" d="M55.553,15.393l1.525-1.525-2.92-2.92V6H52v5.394a1.076,1.076,0,0,0,.316.763Z" transform="translate(4.019 0.315)"/>
      <path id="Trazado_204020" data-name="Trazado 204020" d="M66.807,56.144H64.089a30.4,30.4,0,0,0-.817-3.072l2.349-1.356a1.078,1.078,0,0,0,.395-1.474L60.8,41.2a1.078,1.078,0,0,0-1.474-.395l-2.357,1.361a30.638,30.638,0,0,0-2.246-2.246l1.361-2.357a1.079,1.079,0,0,0-.395-1.474l-9.041-5.22a1.078,1.078,0,0,0-1.474.395l-1.356,2.349a29.9,29.9,0,0,0-3.072-.817V30.079A1.079,1.079,0,0,0,39.662,29H29.222a1.079,1.079,0,0,0-1.079,1.079V32.8a30.172,30.172,0,0,0-3.072.817l-1.354-2.349a1.078,1.078,0,0,0-1.474-.395L13.2,36.091a1.077,1.077,0,0,0-.395,1.474l1.361,2.357a30.426,30.426,0,0,0-2.246,2.246L9.565,40.806a1.078,1.078,0,0,0-1.474.395L2.87,50.242a1.079,1.079,0,0,0,.4,1.475l2.349,1.356A30.248,30.248,0,0,0,4.8,56.145H2.079A1.079,1.079,0,0,0,1,57.224v5.219a1.079,1.079,0,0,0,1.079,1.079h9.4a1.079,1.079,0,0,0,1.079-1.079,21.889,21.889,0,1,1,43.778,0,1.079,1.079,0,0,0,1.079,1.079h9.4a1.079,1.079,0,0,0,1.079-1.079v-5.22a1.079,1.079,0,0,0-1.079-1.079Zm-1.079,5.22H58.466a24.047,24.047,0,0,0-48.046,0H3.158V58.3H5.685a1.079,1.079,0,0,0,1.062-.888,27.993,27.993,0,0,1,1.19-4.47,1.079,1.079,0,0,0-.476-1.3L5.28,50.386l4.142-7.172,2.19,1.264a1.079,1.079,0,0,0,1.363-.236,28.458,28.458,0,0,1,3.27-3.271,1.079,1.079,0,0,0,.236-1.361l-1.264-2.19,7.172-4.142,1.26,2.181a1.079,1.079,0,0,0,1.3.476,27.978,27.978,0,0,1,4.47-1.19,1.078,1.078,0,0,0,.887-1.062V31.158h8.283v2.528a1.079,1.079,0,0,0,.887,1.062,27.782,27.782,0,0,1,4.47,1.19,1.08,1.08,0,0,0,1.3-.476L46.5,33.28l7.172,4.142-1.264,2.19a1.079,1.079,0,0,0,.236,1.361,28.287,28.287,0,0,1,3.27,3.271,1.079,1.079,0,0,0,1.363.236l2.19-1.264,4.142,7.172-2.181,1.259a1.079,1.079,0,0,0-.476,1.3,27.993,27.993,0,0,1,1.19,4.47A1.079,1.079,0,0,0,63.2,58.3h2.525Z" transform="translate(0 2.128)"/>
      <path id="Trazado_204021" data-name="Trazado 204021" d="M31.236,51v6.626A4.31,4.31,0,0,0,28,61.788a1.079,1.079,0,0,0,1.079,1.079h6.473a1.079,1.079,0,0,0,1.079-1.079,4.31,4.31,0,0,0-3.236-4.162V51Zm2.946,9.709H30.447a2.157,2.157,0,0,1,3.736,0Z" transform="translate(2.128 3.862)"/>
      <path id="Trazado_204022" data-name="Trazado 204022" d="M52,22h2.158v2.158H52Z" transform="translate(4.019 1.576)"/>
      <path id="Trazado_204023" data-name="Trazado 204023" d="M52,26h2.158v2.158H52Z" transform="translate(4.019 1.891)"/>
      <path id="Trazado_204024" data-name="Trazado 204024" d="M52,30h2.158v2.158H52Z" transform="translate(4.019 2.207)"/>
      <path id="Trazado_204025" data-name="Trazado 204025" d="M31,22h2.158v2.158H31Z" transform="translate(2.364 1.576)"/>
      <path id="Trazado_204026" data-name="Trazado 204026" d="M31,26h2.158v2.158H31Z" transform="translate(2.364 1.891)"/>
      <path id="Trazado_204027" data-name="Trazado 204027" d="M10,22h2.158v2.158H10Z" transform="translate(0.709 1.576)"/>
      <path id="Trazado_204028" data-name="Trazado 204028" d="M10,26h2.158v2.158H10Z" transform="translate(0.709 1.891)"/>
      <path id="Trazado_204029" data-name="Trazado 204029" d="M10,30h2.158v2.158H10Z" transform="translate(0.709 2.207)"/>
    </g>
  </g>
</svg>
