<svg xmlns="http://www.w3.org/2000/svg" width="118.418" height="118.418" viewBox="0 0 118.418 118.418">
  <g id="layer2" transform="translate(-0.529 -0.529)">
    <path id="path6751" d="M109.341,5.821a5.908,5.908,0,0,1,5.921,5.921v65.13a5.908,5.908,0,0,1-5.921,5.921H7.7c-3.489,0-6.86-3.053-6.86-6.414C.832,50.6.794,31.478.794,5.821" transform="translate(1.712 34.181)" fill="#f3f9ff"/>
    <path id="path6755" d="M.794,11.863a7.895,7.895,0,0,1,15.789,0V75.02a5.908,5.908,0,0,1-5.921,5.921H7.7A6.893,6.893,0,0,0,.794,87.848Z" transform="translate(1.709 22.218)" fill="#dee4f0"/>
    <path id="path6759" d="M17.684,14.531a3.947,3.947,0,1,1-3.947-3.947A3.947,3.947,0,0,1,17.684,14.531Z" transform="translate(59.817 64.944)" fill="#ff5151"/>
    <path id="path6761" d="M51.336,24.477A23.684,23.684,0,1,1,27.652.794,23.684,23.684,0,0,1,51.336,24.477Z" transform="translate(22.218 1.709)" fill="#dce736"/>
    <path id="path6765" d="M14.509,12.414a3.947,3.947,0,1,1-3.947-3.947A3.947,3.947,0,0,1,14.509,12.414Z" transform="translate(39.308 51.272)" fill="#ff5151"/>
    <path id="path6767" d="M14.674,7.408h7.895a1.969,1.969,0,0,1,1.974,1.974V15.3a1.969,1.969,0,0,1-1.974,1.974H14.674A1.969,1.969,0,0,1,12.7,15.3V9.382a1.969,1.969,0,0,1,1.974-1.974Z" transform="translate(78.617 44.436)" fill="#75b62f"/>
    <path id="path6771" d="M13.494,2.618,33.23,12.486,13.494,20.381" transform="translate(83.744 13.492)" fill="#f85316"/>
    <g id="Grupo_150404" data-name="Grupo 150404" transform="translate(45.923 16.11)">
      <path id="path6773" d="M13.494,2.618V20.381l3.947-1.58V4.592Z" transform="translate(37.821 -2.618)" fill="#f85316"/>
      <path id="path6775" d="M12.457,10.614a3.939,3.939,0,1,0,5.15,4.472,3.921,3.921,0,0,1-5.15-4.472Z" transform="translate(13.894 49.034)" fill="#f85316"/>
      <path id="path6777" d="M9.282,8.5a3.939,3.939,0,1,0,5.15,4.472A3.921,3.921,0,0,1,9.282,8.5Z" transform="translate(-6.615 35.362)" fill="#f85316"/>
    </g>
    <path id="path6779" d="M24.213,26.187a25.465,25.465,0,0,0,2.9,11.846H20.273V34.085a9.872,9.872,0,0,0-19.744,0v75.977a8.867,8.867,0,0,0,8.889,8.885H111.053a7.891,7.891,0,0,0,7.895-7.895V45.927a7.877,7.877,0,0,0-7.895-7.895H99.207V35.207l18.5-7.4a1.974,1.974,0,0,0,.146-3.585L99.207,14.888v-.547a1.974,1.974,0,1,0-3.947,0V38.032H72.613a25.651,25.651,0,1,0-48.4-11.846Zm73-25.657a1.974,1.974,0,0,0-1.95,2V4.507a1.974,1.974,0,0,0,3.947,0V2.526A1.973,1.973,0,0,0,97.211.529ZM49.878,4.48A21.706,21.706,0,1,1,28.16,26.187,21.713,21.713,0,0,1,49.878,4.48Zm36.67,4.032,1.4,1.4a1.978,1.978,0,0,0,2.8-2.795l-1.4-1.4a1.879,1.879,0,0,0-1.378-.576,1.971,1.971,0,0,0-1.417,3.37Zm18.6-2.795-1.4,1.4a1.978,1.978,0,0,0,2.8,2.795l1.4-1.4a1.978,1.978,0,0,0-1.465-3.369,1.9,1.9,0,0,0-1.334.574ZM47.893,12.375V26.187a1.974,1.974,0,0,0,.586,1.4L54.392,33.5a1.973,1.973,0,0,0,2.8-2.783l-5.347-5.347V12.375a1.975,1.975,0,0,0-3.951,0ZM99.207,19.31l12.952,6.468L99.207,30.959ZM10.394,28.153a5.925,5.925,0,0,1,5.929,5.932V97.242a3.951,3.951,0,0,1-3.947,3.947H9.418a8.87,8.87,0,0,0-4.938,1.476V34.085A5.912,5.912,0,0,1,10.394,28.153Zm9.88,13.827h9.375a25.664,25.664,0,0,0,40.448,0H95.26v7.9H93.294a3.936,3.936,0,0,0-3.951,3.947v5.913a1.978,1.978,0,1,0,0,3.951h3.839l-15.6,11.453a5.908,5.908,0,0,0-7.972-.089L55.641,64.973a5.79,5.79,0,0,0,.151-1.284,5.923,5.923,0,1,0-11.846,0,5.738,5.738,0,0,0,.212,1.465L24.976,79.887A1.974,1.974,0,1,0,27.4,83.006l18.95-14.563a5.937,5.937,0,0,0,7.193-.108L67.706,78.546a6.465,6.465,0,0,0-.067.937,5.923,5.923,0,0,0,11.846,0,5.538,5.538,0,0,0-.06-.79l20.426-15h5.285a1.976,1.976,0,0,0,0-3.951V53.825a3.953,3.953,0,0,0-3.947-3.947H99.208v-7.9h11.846A3.925,3.925,0,0,1,115,45.927v65.126A3.934,3.934,0,0,1,111.054,115H9.419a4.932,4.932,0,1,1,0-9.864h2.957a7.9,7.9,0,0,0,7.9-7.895ZM69.6,53.81a1.984,1.984,0,0,0-1.4,3.381l1.569,1.561L68.2,60.321A1.973,1.973,0,0,0,71,63.1l1.561-1.561L74.132,63.1a1.968,1.968,0,1,0,2.783-2.783l-1.561-1.569,1.561-1.561A1.973,1.973,0,0,0,75.5,53.81a1.994,1.994,0,0,0-1.372.582l-1.569,1.569L71,54.392a1.924,1.924,0,0,0-1.4-.582Zm23.691.016h7.895v5.913H93.294ZM49.878,61.7a1.982,1.982,0,0,1,1.966,1.985,1.96,1.96,0,0,1-1.966,1.966,1.976,1.976,0,1,1,0-3.951ZM99.223,73.55a1.971,1.971,0,0,0-1.415,3.365l1.569,1.569L97.808,80.05a1.979,1.979,0,1,0,2.8,2.8l1.561-1.569,1.569,1.569a1.973,1.973,0,0,0,2.783-2.8l-1.55-1.565,1.565-1.569a1.972,1.972,0,0,0-1.457-3.365,1.921,1.921,0,0,0-1.341.582L102.168,75.7l-1.561-1.565a1.889,1.889,0,0,0-1.384-.582ZM73.55,77.5a1.976,1.976,0,1,1-1.966,1.985A1.98,1.98,0,0,1,73.55,77.5ZM36.035,85.381a1.973,1.973,0,0,0-1.079.335l-5.913,3.947a1.977,1.977,0,1,0,2.186,3.3l4.822-3.223,4.838,3.223a1.974,1.974,0,0,0,2.182,0l4.822-3.223,4.826,3.223a1.974,1.974,0,0,0,2.2,0l4.822-3.223,4.822,3.223a1.977,1.977,0,1,0,2.186-3.3l-5.913-3.947a1.974,1.974,0,0,0-2.186,0l-4.822,3.219-4.838-3.219a1.974,1.974,0,0,0-2.186,0l-4.822,3.219-4.838-3.219a1.973,1.973,0,0,0-1.106-.335Zm49.36,7.91a1.974,1.974,0,1,0,0,3.947h1.974a1.974,1.974,0,1,0,0-3.947Zm9.868,0a1.974,1.974,0,1,0,0,3.947h1.974a1.974,1.974,0,1,0,0-3.947Zm9.868,0a1.974,1.974,0,1,0,0,3.947h1.974a1.974,1.974,0,1,0,0-3.947Zm-69.1,1.97a1.973,1.973,0,0,0-1.079.335l-5.913,3.932a1.976,1.976,0,1,0,2.186,3.292L36.051,99.6l4.838,3.219a1.974,1.974,0,0,0,2.182,0L47.893,99.6l4.826,3.219a1.974,1.974,0,0,0,2.2,0L59.738,99.6l4.822,3.219a1.976,1.976,0,1,0,2.186-3.292L60.833,95.6a1.974,1.974,0,0,0-2.186,0l-4.822,3.2-4.838-3.2a1.974,1.974,0,0,0-2.186,0l-4.822,3.2-4.838-3.2A1.973,1.973,0,0,0,36.035,95.26Z" transform="translate(0 0)"/>
  </g>
</svg>
