<svg xmlns="http://www.w3.org/2000/svg" width="102" height="102" viewBox="0 0 102 102">
  <g id="gastos" transform="translate(-1 -1)">
    <path id="Trazado_203859" data-name="Trazado 203859" d="M10.226,67.806H2V10.226A8.226,8.226,0,0,1,10.226,2H20.1V18.452H10.226Z" transform="translate(0.645 0.645)" fill="#dee4f0"/>
    <path id="Trazado_203860" data-name="Trazado 203860" d="M76.1,2a8.226,8.226,0,1,1,0,16.452H7A8.226,8.226,0,1,0,7,2Z" transform="translate(3.871 0.645)" fill="#dee4f0"/>
    <path id="Trazado_203861" data-name="Trazado 203861" d="M7,12H76.1V94.258H7Z" transform="translate(3.871 7.097)" fill="#f3f9ff"/>
    <path id="Trazado_203863" data-name="Trazado 203863" d="M44.323,45.614a16.366,16.366,0,0,1-9.871,3.29V32.453H18A16.452,16.452,0,0,1,49.587,26" transform="translate(10.968 9.676)" fill="#f85316"/>
    <path id="Trazado_203864" data-name="Trazado 203864" d="M31.452,29V45.452A16.452,16.452,0,0,1,15,29Z" transform="translate(9.032 18.065)" fill="#75b62f"/>
    <path id="Trazado_203865" data-name="Trazado 203865" d="M36.828,17.568,28,31.44V47.892a16.366,16.366,0,0,0,9.871-3.29l5.265-19.61a16.534,16.534,0,0,0-6.308-7.423Z" transform="translate(17.419 10.689)" fill="#3d46c2"/>
    <path id="Trazado_203866" data-name="Trazado 203866" d="M29.563,16a16.416,16.416,0,0,0-3.986.507l3.986,15.945L38.391,18.58A16.373,16.373,0,0,0,29.563,16Z" transform="translate(15.856 9.677)" fill="#75b62f"/>
    <path id="Trazado_203867" data-name="Trazado 203867" d="M14.935,54.871a1.645,1.645,0,1,1,1.645-1.645h3.29a4.935,4.935,0,0,0-3.29-4.633V45H13.29v3.593a4.924,4.924,0,0,0,1.645,9.568,1.645,1.645,0,1,1-1.645,1.645H10a4.935,4.935,0,0,0,3.29,4.633v3.593h3.29V64.439a4.924,4.924,0,0,0-1.645-9.568Z" transform="translate(5.806 28.387)" fill="#8bc000"/>
    <path id="Trazado_203868" data-name="Trazado 203868" d="M26,45H39.161v3.29H26Z" transform="translate(16.129 28.387)" fill="#fff"/>
    <path id="Trazado_203869" data-name="Trazado 203869" d="M18,49H44.323v3.29H18Z" transform="translate(10.968 30.968)" fill="#fff"/>
    <path id="Trazado_203870" data-name="Trazado 203870" d="M18,53H31.161v3.29H18Z" transform="translate(10.968 33.548)" fill="#fff"/>
    <path id="Trazado_203871" data-name="Trazado 203871" d="M28,53h9.871v3.29H28Z" transform="translate(17.419 33.548)" fill="#fff"/>
    <path id="Trazado_203872" data-name="Trazado 203872" d="M20,57H44.677v3.29H20Z" transform="translate(12.258 36.129)" fill="#fff"/>
    <path id="Trazado_203873" data-name="Trazado 203873" d="M73.484,22h-32.9A6.581,6.581,0,0,0,34,28.581V81.226a6.581,6.581,0,0,0,6.581,6.581h32.9a6.581,6.581,0,0,0,6.581-6.581V28.581A6.581,6.581,0,0,0,73.484,22Z" transform="translate(21.29 13.548)" fill="#3d46c2"/>
    <g id="Grupo_150339" data-name="Grupo 150339" transform="translate(61.871 42.129)">
      <path id="Trazado_203875" data-name="Trazado 203875" d="M38,26H70.9V39.161H38Z" transform="translate(-38 -26)" fill="#d6dfef"/>
      <path id="Trazado_203876" data-name="Trazado 203876" d="M54,50h6.581V63.161H54Z" transform="translate(-27.677 -10.516)" fill="#d6dfef"/>
      <path id="Trazado_203877" data-name="Trazado 203877" d="M54,38h6.581V51.161H54Z" transform="translate(-27.677 -18.258)" fill="#d6dfef"/>
      <path id="Trazado_203878" data-name="Trazado 203878" d="M38,38h6.581v6.581H38Z" transform="translate(-38 -18.258)" fill="#d6dfef"/>
      <path id="Trazado_203879" data-name="Trazado 203879" d="M46,38h6.581v6.581H46Z" transform="translate(-32.839 -18.258)" fill="#d6dfef"/>
      <path id="Trazado_203880" data-name="Trazado 203880" d="M38,46h6.581v6.581H38Z" transform="translate(-38 -13.097)" fill="#d6dfef"/>
      <path id="Trazado_203881" data-name="Trazado 203881" d="M46,46h6.581v6.581H46Z" transform="translate(-32.839 -13.097)" fill="#d6dfef"/>
      <path id="Trazado_203882" data-name="Trazado 203882" d="M38,54h6.581v6.581H38Z" transform="translate(-38 -7.935)" fill="#d6dfef"/>
      <path id="Trazado_203883" data-name="Trazado 203883" d="M46,54h6.581v6.581H46Z" transform="translate(-32.839 -7.935)" fill="#d6dfef"/>
    </g>
    <path id="Trazado_203884" data-name="Trazado 203884" d="M39,26H70.258V37.516H39Z" transform="translate(24.516 16.129)" fill="#fff"/>
    <path id="Trazado_203885" data-name="Trazado 203885" d="M94.774,33.9H81.613V20.594A9.871,9.871,0,0,0,79.968,1h-69.1A9.881,9.881,0,0,0,1,10.871V68.452A1.645,1.645,0,0,0,2.645,70.1H9.226v31.258A1.645,1.645,0,0,0,10.871,103h83.9A8.236,8.236,0,0,0,103,94.774V42.129A8.236,8.236,0,0,0,94.774,33.9ZM18.222,4.29H79.968a6.581,6.581,0,1,1,0,13.161H18.222a9.851,9.851,0,0,0,0-13.161Zm-9,14.806v47.71H4.29V10.871a6.581,6.581,0,1,1,6.581,6.581A1.645,1.645,0,0,0,9.226,19.1Zm3.29,80.613V20.742H78.323V33.9H61.871c-.109,0-.211.028-.318.033a18.1,18.1,0,0,0-34.231,8.193,1.645,1.645,0,0,0,1.645,1.645H43.774V58.581a1.645,1.645,0,0,0,1.645,1.645,17.932,17.932,0,0,0,8.226-1.974V73.387H42.129v3.29H53.645v3.29H28.968v3.29H53.645v3.29H45.419v3.29h8.226v3.29H32.258v3.29H53.81a8.15,8.15,0,0,0,1.522,3.29ZM51.924,28.841l-5.837,9.175L43.455,27.469a14.361,14.361,0,0,1,8.474,1.372ZM43.312,40.484H30.7A14.841,14.841,0,0,1,40.257,28.26Zm10.333,1.645V54.4a14.6,14.6,0,0,1-6.581,2.443V42.609l7.627-11.985a14.8,14.8,0,0,1,3.56,4.157,8.209,8.209,0,0,0-4.606,7.347ZM99.71,94.774a4.935,4.935,0,0,1-4.935,4.935h-32.9a4.935,4.935,0,0,1-4.935-4.935V42.129a4.935,4.935,0,0,1,4.935-4.935h32.9a4.935,4.935,0,0,1,4.935,4.935Z"/>
    <path id="Trazado_203886" data-name="Trazado 203886" d="M71.548,25h-32.9A1.645,1.645,0,0,0,37,26.645V39.806a1.645,1.645,0,0,0,1.645,1.645h32.9a1.645,1.645,0,0,0,1.645-1.645V26.645A1.645,1.645,0,0,0,71.548,25ZM69.9,38.161H40.29V28.29H69.9Z" transform="translate(23.226 15.484)"/>
    <path id="Trazado_203887" data-name="Trazado 203887" d="M61.226,49H54.645A1.645,1.645,0,0,0,53,50.645V63.806a1.645,1.645,0,0,0,1.645,1.645h6.581a1.645,1.645,0,0,0,1.645-1.645V50.645A1.645,1.645,0,0,0,61.226,49ZM59.581,62.161H56.29V52.29h3.29Z" transform="translate(33.548 30.968)"/>
    <path id="Trazado_203888" data-name="Trazado 203888" d="M61.226,37H54.645A1.645,1.645,0,0,0,53,38.645V51.806a1.645,1.645,0,0,0,1.645,1.645h6.581a1.645,1.645,0,0,0,1.645-1.645V38.645A1.645,1.645,0,0,0,61.226,37ZM59.581,50.161H56.29V40.29h3.29Z" transform="translate(33.548 23.226)"/>
    <path id="Trazado_203889" data-name="Trazado 203889" d="M45.226,37H38.645A1.645,1.645,0,0,0,37,38.645v6.581a1.645,1.645,0,0,0,1.645,1.645h6.581a1.645,1.645,0,0,0,1.645-1.645V38.645A1.645,1.645,0,0,0,45.226,37Zm-1.645,6.581H40.29V40.29h3.29Z" transform="translate(23.226 23.226)"/>
    <path id="Trazado_203890" data-name="Trazado 203890" d="M53.226,37H46.645A1.645,1.645,0,0,0,45,38.645v6.581a1.645,1.645,0,0,0,1.645,1.645h6.581a1.645,1.645,0,0,0,1.645-1.645V38.645A1.645,1.645,0,0,0,53.226,37Zm-1.645,6.581H48.29V40.29h3.29Z" transform="translate(28.387 23.226)"/>
    <path id="Trazado_203891" data-name="Trazado 203891" d="M45.226,45H38.645A1.645,1.645,0,0,0,37,46.645v6.581a1.645,1.645,0,0,0,1.645,1.645h6.581a1.645,1.645,0,0,0,1.645-1.645V46.645A1.645,1.645,0,0,0,45.226,45Zm-1.645,6.581H40.29V48.29h3.29Z" transform="translate(23.226 28.387)"/>
    <path id="Trazado_203892" data-name="Trazado 203892" d="M53.226,45H46.645A1.645,1.645,0,0,0,45,46.645v6.581a1.645,1.645,0,0,0,1.645,1.645h6.581a1.645,1.645,0,0,0,1.645-1.645V46.645A1.645,1.645,0,0,0,53.226,45Zm-1.645,6.581H48.29V48.29h3.29Z" transform="translate(28.387 28.387)"/>
    <path id="Trazado_203893" data-name="Trazado 203893" d="M45.226,53H38.645A1.645,1.645,0,0,0,37,54.645v6.581a1.645,1.645,0,0,0,1.645,1.645h6.581a1.645,1.645,0,0,0,1.645-1.645V54.645A1.645,1.645,0,0,0,45.226,53Zm-1.645,6.581H40.29V56.29h3.29Z" transform="translate(23.226 33.548)"/>
    <path id="Trazado_203894" data-name="Trazado 203894" d="M53.226,53H46.645A1.645,1.645,0,0,0,45,54.645v6.581a1.645,1.645,0,0,0,1.645,1.645h6.581a1.645,1.645,0,0,0,1.645-1.645V54.645A1.645,1.645,0,0,0,53.226,53Zm-1.645,6.581H48.29V56.29h3.29Z" transform="translate(28.387 33.548)"/>
    <path id="Trazado_203895" data-name="Trazado 203895" d="M33.742,46.1V29.645A1.645,1.645,0,0,0,32.1,28H15.645A1.645,1.645,0,0,0,14,29.645a18.118,18.118,0,0,0,18.1,18.1A1.645,1.645,0,0,0,33.742,46.1Zm-3.29-1.737A14.836,14.836,0,0,1,17.381,31.29H30.452Z" transform="translate(8.387 17.419)"/>
    <path id="Trazado_203896" data-name="Trazado 203896" d="M14.935,51.581a1.645,1.645,0,0,1,1.645,1.645h3.29a4.935,4.935,0,0,0-3.29-4.633V45H13.29v3.593a4.924,4.924,0,0,0,1.645,9.568,1.645,1.645,0,1,1-1.645,1.645H10a4.935,4.935,0,0,0,3.29,4.633v3.593h3.29V64.439a4.924,4.924,0,0,0-1.645-9.568,1.645,1.645,0,0,1,0-3.29Z" transform="translate(5.806 28.387)"/>
    <path id="Trazado_203897" data-name="Trazado 203897" d="M18,53H31.161v3.29H18Z" transform="translate(10.968 33.548)"/>
  </g>
</svg>
