<svg xmlns="http://www.w3.org/2000/svg" width="100" height="99.998" viewBox="0 0 100 99.998">
  <g id="implementacion" transform="translate(-1.996 -2.001)">
    <g id="Grupo_150335" data-name="Grupo 150335" transform="translate(14.883 15.059)">
      <path id="Trazado_203837" data-name="Trazado 203837" d="M320.684,311.791a8.895,8.895,0,1,1-8.895,8.895A8.895,8.895,0,0,1,320.684,311.791ZM317.4,301v4.542a15.4,15.4,0,0,0-5.1,2.113l-3.212-3.212-4.646,4.646,3.212,3.212a15.4,15.4,0,0,0-2.113,5.1H301v6.57h4.542a15.407,15.407,0,0,0,2.113,5.1l-3.212,3.212,4.646,4.646,3.212-3.212a15.4,15.4,0,0,0,5.1,2.113v4.542h6.57v-4.542a15.4,15.4,0,0,0,5.1-2.113l3.212,3.212,4.646-4.645-3.212-3.212a15.409,15.409,0,0,0,2.113-5.1h4.542V317.4h-4.542a15.4,15.4,0,0,0-2.113-5.1l3.212-3.212-4.646-4.646-3.212,3.212a15.4,15.4,0,0,0-5.1-2.113V301H317.4Z" transform="translate(-255.028 -255.202)" fill="#3d46c2" fill-rule="evenodd"/>
      <path id="Trazado_203838" data-name="Trazado 203838" d="M89.02,68.337a21.557,21.557,0,0,1,11.018,40.085,4.267,4.267,0,0,0-2.134,3.755v5.256a2.969,2.969,0,0,1-2.963,2.963H83.1a2.969,2.969,0,0,1-2.963-2.963v-5.256A4.267,4.267,0,0,0,78,108.422,21.557,21.557,0,0,1,89.02,68.337Z" transform="translate(-67.465 -68.337)" fill="#dce736" fill-rule="evenodd"/>
      <path id="Trazado_203839" data-name="Trazado 203839" d="M158.727,320.349v3.619a4.381,4.381,0,0,1-4.371,4.371h-3.1a4.381,4.381,0,0,1-4.371-4.371V320.95Z" transform="translate(-131.251 -270.741)" fill="#292e33" fill-rule="evenodd"/>
      <path id="Trazado_203840" data-name="Trazado 203840" d="M149.6,306.747H131.832v2.165a2.969,2.969,0,0,0,2.963,2.963h11.842a2.969,2.969,0,0,0,2.963-2.963Z" transform="translate(-119.162 -259.817)" fill="#72818b" fill-rule="evenodd"/>
    </g>
    <path id="Trazado_203841" data-name="Trazado 203841" d="M98.451,79.029H95.685a1.776,1.776,0,0,1-1.735-1.4,13.542,13.542,0,0,0-1.874-4.512,1.777,1.777,0,0,1,.241-2.214l1.958-1.959-2.144-2.14-1.958,1.959a1.766,1.766,0,0,1-2.21.237,13.633,13.633,0,0,0-4.514-1.871,1.77,1.77,0,0,1-1.4-1.732V62.63H79.025V65.4a1.769,1.769,0,0,1-1.4,1.732A13.571,13.571,0,0,0,73.115,69a1.772,1.772,0,0,1-2.214-.237l-1.959-1.959-2.14,2.14,1.959,1.959A1.77,1.77,0,0,1,69,73.117a13.635,13.635,0,0,0-1.87,4.514,1.77,1.77,0,0,1-1.732,1.4h-2.77v3.027h2.77a1.77,1.77,0,0,1,1.732,1.4A13.623,13.623,0,0,0,69,87.968a1.769,1.769,0,0,1-.236,2.212L66.8,92.139l2.14,2.14L70.9,92.32a1.77,1.77,0,0,1,2.212-.237,13.6,13.6,0,0,0,4.514,1.871,1.773,1.773,0,0,1,1.4,1.732v2.77h3.027v-2.77a1.771,1.771,0,0,1,1.4-1.732,13.617,13.617,0,0,0,4.514-1.871,1.767,1.767,0,0,1,2.21.237l1.958,1.959,2.144-2.14L92.317,90.18a1.775,1.775,0,0,1-.241-2.212,13.412,13.412,0,0,0,1.874-4.514,1.776,1.776,0,0,1,1.735-1.4h2.766ZM34.888,70.9h3.1a2.6,2.6,0,0,0,2.53-2H32.36a2.6,2.6,0,0,0,2.528,2ZM29.322,58.9v1.321h2.857V44.965c-4.659-1.077-7.906-3.888-7.906-7.274a5.725,5.725,0,0,1,11.449,0v4.187c.47.019.96.019,1.431,0V37.691a5.725,5.725,0,0,1,11.451,0c0,3.386-3.246,6.2-7.907,7.274V60.226h2.858V58.9a6.016,6.016,0,0,1,3-5.278,19.79,19.79,0,1,0-20.23,0,6.013,6.013,0,0,1,3,5.278Zm7.831,1.321H35.722v-14.8c.238.008.476.014.716.014s.479-.005.715-.014ZM40.7,41.3V37.691a2.182,2.182,0,0,1,4.364,0C45.06,39.044,43.348,40.5,40.7,41.3Zm-8.518-3.606V41.3c-2.651-.793-4.362-2.253-4.362-3.606a2.181,2.181,0,0,1,4.362,0ZM42.362,65.356a1.2,1.2,0,0,0,1.193-1.193V63.77H29.322v.393a1.2,1.2,0,0,0,1.194,1.193ZM102,77.257v6.57a1.775,1.775,0,0,1-1.773,1.772H97.05a17.23,17.23,0,0,1-1.262,3.043l2.246,2.245a1.769,1.769,0,0,1,0,2.505l-4.649,4.646a1.761,1.761,0,0,1-1.253.518,1.793,1.793,0,0,1-1.253-.518l-2.242-2.246A17.139,17.139,0,0,1,85.6,97.055v3.173A1.772,1.772,0,0,1,83.824,102H77.253a1.772,1.772,0,0,1-1.772-1.772V97.055a17.058,17.058,0,0,1-3.041-1.262l-2.246,2.246a1.772,1.772,0,0,1-2.5,0l-4.646-4.646a1.772,1.772,0,0,1-.432-1.8H36.438a1.772,1.772,0,0,1-1.772-1.771V74.434a6.152,6.152,0,0,1-5.917-5.878,4.746,4.746,0,0,1-2.97-4.393V58.9a2.484,2.484,0,0,0-1.269-2.234,23.337,23.337,0,1,1,23.858,0A2.513,2.513,0,0,0,47.1,58.9v5.258a4.746,4.746,0,0,1-2.97,4.393,6.153,6.153,0,0,1-5.918,5.878V88.05H64.991a17.29,17.29,0,0,1-.965-2.451H60.853a1.772,1.772,0,0,1-1.772-1.772v-6.57a1.771,1.771,0,0,1,1.772-1.771h3.175a17.044,17.044,0,0,1,1.26-3.042L63.044,70.2a1.767,1.767,0,0,1,0-2.5l4.646-4.646a1.769,1.769,0,0,1,2.5,0l2.246,2.245a17.009,17.009,0,0,1,3.041-1.262V60.857a1.772,1.772,0,0,1,1.772-1.771h1.514V38.215H63.517a1.772,1.772,0,0,1,0-3.544H80.539a1.772,1.772,0,0,1,1.772,1.773V59.086h1.513A1.772,1.772,0,0,1,85.6,60.857v3.174a17.111,17.111,0,0,1,3.044,1.262l2.239-2.245a1.786,1.786,0,0,1,1.253-.52,1.754,1.754,0,0,1,1.253.52l4.649,4.646a1.762,1.762,0,0,1,0,2.5l-2.246,2.246a17.189,17.189,0,0,1,1.262,3.042h3.173A1.775,1.775,0,0,1,102,77.257ZM87.662,80.542a7.123,7.123,0,1,1-7.124-7.122A7.133,7.133,0,0,1,87.662,80.542Zm3.541,0A10.665,10.665,0,1,1,80.539,69.878,10.677,10.677,0,0,1,91.2,80.542Zm-79.1-32.1-4.842,2.8a1.772,1.772,0,0,0,1.771,3.069l4.843-2.8A1.772,1.772,0,0,0,12.1,48.446Zm-.971-12A1.771,1.771,0,0,0,9.36,34.671H3.768a1.772,1.772,0,0,0,0,3.544H9.36A1.771,1.771,0,0,0,11.131,36.443ZM58.356,49.1A1.768,1.768,0,0,0,59,51.515l4.842,2.8a1.772,1.772,0,0,0,1.772-3.069l-4.843-2.8a1.77,1.77,0,0,0-2.419.65Zm1.535-24.421a1.774,1.774,0,0,0,.883-.238l4.843-2.8a1.772,1.772,0,0,0-1.772-3.069L59,21.368a1.773,1.773,0,0,0,.888,3.307Zm-10.8-10.15a1.768,1.768,0,0,0,2.419-.648l2.8-4.842a1.772,1.772,0,1,0-3.069-1.772l-2.8,4.842A1.771,1.771,0,0,0,49.092,14.525Zm-27.728-.648a1.772,1.772,0,0,0,3.069-1.772l-2.8-4.842a1.772,1.772,0,1,0-3.069,1.772ZM7.26,21.641l4.842,2.8a1.772,1.772,0,0,0,1.772-3.07L9.031,18.573A1.772,1.772,0,1,0,7.26,21.641ZM34.667,9.365V3.773a1.772,1.772,0,0,1,3.543,0V9.365a1.772,1.772,0,0,1-3.543,0Z" transform="translate(0 0)" fill-rule="evenodd"/>
  </g>
</svg>
