<svg xmlns="http://www.w3.org/2000/svg" width="96.311" height="96.313" viewBox="0 0 96.311 96.313">
  <g id="certificado" transform="translate(-0.004)">
    <path id="Trazado_204046" data-name="Trazado 204046" d="M88.634,102.551H13.766A3.762,3.762,0,0,1,10,98.788V13.762A3.762,3.762,0,0,1,13.766,10H88.634A3.762,3.762,0,0,1,92.4,13.762V98.788A3.762,3.762,0,0,1,88.634,102.551Z" transform="translate(-8.119 -8.119)" fill="#75b62f"/>
    <rect id="Rectángulo_41912" data-name="Rectángulo 41912" width="64.336" height="74.492" transform="translate(10.913 10.91)" fill="#fff"/>
    <path id="Trazado_204047" data-name="Trazado 204047" d="M386.038,310.7v17.682l-6.02-5.988L374,328.377V310.7Z" transform="translate(-303.642 -252.25)" fill="#3d46c2"/>
    <path id="Trazado_204048" data-name="Trazado 204048" d="M329.99,119.252h0a3.591,3.591,0,0,1,5.129,1.374h0a3.591,3.591,0,0,0,3.357,1.938h0a3.591,3.591,0,0,1,3.754,3.754h0a3.591,3.591,0,0,0,1.938,3.357h0a3.591,3.591,0,0,1,1.374,5.129h0a3.591,3.591,0,0,0,0,3.877h0a3.591,3.591,0,0,1-1.374,5.129h0a3.591,3.591,0,0,0-1.938,3.357h0a3.591,3.591,0,0,1-3.754,3.754h0a3.591,3.591,0,0,0-3.357,1.938h0a3.591,3.591,0,0,1-5.129,1.374h0a3.591,3.591,0,0,0-3.877,0h0a3.591,3.591,0,0,1-5.129-1.374h0a3.591,3.591,0,0,0-3.357-1.938h0a3.591,3.591,0,0,1-3.754-3.754h0a3.591,3.591,0,0,0-1.938-3.357h0a3.591,3.591,0,0,1-1.374-5.129h0a3.591,3.591,0,0,0,0-3.877h0a3.591,3.591,0,0,1,1.374-5.129h0a3.591,3.591,0,0,0,1.938-3.357h0a3.591,3.591,0,0,1,3.754-3.754h0a3.591,3.591,0,0,0,3.357-1.938h0a3.591,3.591,0,0,1,5.129-1.374h0A3.592,3.592,0,0,0,329.99,119.252Z" transform="translate(-251.676 -96.358)" fill="#f85316"/>
    <path id="Trazado_204049" data-name="Trazado 204049" d="M84.278,83.521A1.881,1.881,0,0,0,82.4,85.4V90.67a1.883,1.883,0,0,1-1.881,1.881H5.647A1.883,1.883,0,0,1,3.766,90.67V5.643A1.883,1.883,0,0,1,5.647,3.762H80.516A1.883,1.883,0,0,1,82.4,5.643v9.97a1.881,1.881,0,0,0,3.762,0V5.643A5.65,5.65,0,0,0,80.516,0H5.647A5.65,5.65,0,0,0,0,5.643V90.67a5.65,5.65,0,0,0,5.643,5.643H80.516a5.65,5.65,0,0,0,5.643-5.643V85.4A1.881,1.881,0,0,0,84.278,83.521Z"/>
    <path id="Trazado_204050" data-name="Trazado 204050" d="M114.215,56.653a1.881,1.881,0,0,0,1.881-1.881V49.881A1.881,1.881,0,0,0,114.215,48H49.879A1.881,1.881,0,0,0,48,49.881V89.2a1.881,1.881,0,1,0,3.762,0V51.762h60.574v3.01A1.881,1.881,0,0,0,114.215,56.653Z" transform="translate(-38.966 -38.971)"/>
    <path id="Trazado_204051" data-name="Trazado 204051" d="M49.875,297.762a1.882,1.882,0,1,0-1.33-.551A1.892,1.892,0,0,0,49.875,297.762Z" transform="translate(-38.963 -238.695)"/>
    <path id="Trazado_204052" data-name="Trazado 204052" d="M51.76,334.381a1.881,1.881,0,0,0-3.762,0v20.974a1.881,1.881,0,0,0,1.881,1.881h64.336a1.881,1.881,0,0,0,1.881-1.881v-4.138a1.881,1.881,0,1,0-3.762,0v2.257H51.76Z" transform="translate(-38.966 -269.953)"/>
    <path id="Trazado_204053" data-name="Trazado 204053" d="M238.037,350.957l-3.718,3.718-2.311-2.311a3.746,3.746,0,0,0-5.292,0l-1.5,1.5a1.881,1.881,0,0,0,2.66,2.66l1.489-1.489,2.311,2.311a3.746,3.746,0,0,0,5.292,0l3.732-3.732a1.881,1.881,0,0,0-2.66-2.661Z" transform="translate(-182.397 -284.491)"/>
    <path id="Trazado_204054" data-name="Trazado 204054" d="M189.446,127.708a5.473,5.473,0,0,0-2.094-7.815,1.715,1.715,0,0,1-.923-1.6,5.472,5.472,0,0,0-5.721-5.721,1.709,1.709,0,0,1-1.6-.923,5.472,5.472,0,0,0-7.815-2.094h0a1.714,1.714,0,0,1-1.846,0,5.472,5.472,0,0,0-7.815,2.094,1.718,1.718,0,0,1-1.6.923,5.473,5.473,0,0,0-5.721,5.721,1.715,1.715,0,0,1-.923,1.6,5.461,5.461,0,0,0-2.907,5.6H117.66a1.881,1.881,0,0,0,0,3.762h33.786a1.693,1.693,0,0,1-.149.3,5.485,5.485,0,0,0-.679,4.37,5.4,5.4,0,0,0,.2.6H117.659a1.881,1.881,0,1,0,0,3.762H154.2a1.7,1.7,0,0,1,.112.685,5.473,5.473,0,0,0,5.721,5.721,1.713,1.713,0,0,1,1.6.923,5.46,5.46,0,0,0,.837,1.193v17.568a1.881,1.881,0,0,0,3.208,1.334l4.693-4.668,4.693,4.668a1.881,1.881,0,0,0,3.208-1.334V146.8a5.456,5.456,0,0,0,.837-1.193,1.717,1.717,0,0,1,1.6-.923,5.473,5.473,0,0,0,5.721-5.721,1.715,1.715,0,0,1,.923-1.6,5.473,5.473,0,0,0,2.094-7.815A1.714,1.714,0,0,1,189.446,127.708ZM171.7,157.051a1.881,1.881,0,0,0-2.653,0l-2.812,2.8V148.563a5.486,5.486,0,0,0,3.216-.858,1.714,1.714,0,0,1,1.846,0,5.483,5.483,0,0,0,2.957.865c.086,0,.172,0,.258-.008v11.287Zm14.581-25.467a1.71,1.71,0,0,1-.654,2.442,5.487,5.487,0,0,0-2.954,5.116,1.71,1.71,0,0,1-1.788,1.788,5.487,5.487,0,0,0-5.116,2.954,1.71,1.71,0,0,1-2.442.654,5.488,5.488,0,0,0-5.907,0,1.71,1.71,0,0,1-2.442-.654,5.485,5.485,0,0,0-5.116-2.954,1.71,1.71,0,0,1-1.788-1.788,5.485,5.485,0,0,0-1.489-4.006c-.029-.032-.059-.064-.091-.094a5.441,5.441,0,0,0-1.374-1.016,1.71,1.71,0,0,1-.654-2.442,5.487,5.487,0,0,0,0-5.907,1.71,1.71,0,0,1,.654-2.442,5.488,5.488,0,0,0,2.954-5.116,1.71,1.71,0,0,1,1.788-1.788,5.486,5.486,0,0,0,5.116-2.954,1.71,1.71,0,0,1,2.442-.654,5.486,5.486,0,0,0,5.907,0,1.71,1.71,0,0,1,2.442.654,5.487,5.487,0,0,0,5.116,2.954,1.71,1.71,0,0,1,1.788,1.788,5.487,5.487,0,0,0,2.954,5.116,1.71,1.71,0,0,1,.654,2.442A5.487,5.487,0,0,0,186.279,131.584Z" transform="translate(-93.996 -88.245)"/>
    <path id="Trazado_204055" data-name="Trazado 204055" d="M387.879,185.108l-6.244,6.244-2.486-2.486a1.881,1.881,0,1,0-2.66,2.66l3.816,3.816a1.881,1.881,0,0,0,2.66,0l7.574-7.574a1.881,1.881,0,1,0-2.66-2.66Z" transform="translate(-305.217 -149.84)"/>
    <path id="Trazado_204056" data-name="Trazado 204056" d="M108.766,119.881a1.882,1.882,0,1,0-.551,1.33A1.9,1.9,0,0,0,108.766,119.881Z" transform="translate(-85.248 -95.803)"/>
    <path id="Trazado_204057" data-name="Trazado 204057" d="M144.211,118a1.881,1.881,0,0,0,0,3.762h9.155a1.881,1.881,0,1,0,0-3.762Z" transform="translate(-115.553 -95.803)"/>
    <path id="Trazado_204058" data-name="Trazado 204058" d="M201.9,294H180.4a1.881,1.881,0,1,0,0,3.762H201.9a1.881,1.881,0,0,0,0-3.762Z" transform="translate(-144.932 -238.695)"/>
  </g>
</svg>
