<svg xmlns="http://www.w3.org/2000/svg" width="120" height="120" viewBox="0 0 120 120">
  <g id="Grupo_150396" data-name="Grupo 150396" transform="translate(-1160 -1322.91)">
    <g id="Elipse_5631" data-name="Elipse 5631" transform="translate(1160 1322.91)" fill="#fff" stroke="#77b43a" stroke-width="4">
      <circle cx="60" cy="60" r="60" stroke="none"/>
      <circle cx="60" cy="60" r="58" fill="none"/>
    </g>
    <g id="identificacion" transform="translate(1180.97 1339.643)">
      <g id="Grupo_150385" data-name="Grupo 150385" transform="translate(54.042 46.855)">
        <path id="Trazado_204031" data-name="Trazado 204031" d="M375.477,335.882a4.047,4.047,0,0,1-5.592-1.221l-15.162-23.2a1.633,1.633,0,0,1,.493-2.256l4.064-2.607a1.633,1.633,0,0,1,2.256.493l15.162,23.2A4.047,4.047,0,0,1,375.477,335.882Z" transform="translate(-354.465 -306.339)" fill="#f85316"/>
      </g>
      <g id="Grupo_150387" data-name="Grupo 150387" transform="translate(1.145 1.32)">
        <path id="Trazado_204033" data-name="Trazado 204033" d="M24.076,9.256,7.939,37.207a3.165,3.165,0,0,0,2.741,4.747H42.955A3.165,3.165,0,0,0,45.7,37.207L29.558,9.256a3.165,3.165,0,0,0-5.482,0Z" transform="translate(-7.51 -7.674)" fill="#dce736"/>
      </g>
      <g id="Grupo_150389" data-name="Grupo 150389" transform="translate(26.383 10.563)">
        <circle id="Elipse_5684" data-name="Elipse 5684" cx="17.175" cy="17.175" r="17.175" fill="#3d46c2"/>
      </g>
      <g id="Grupo_150391" data-name="Grupo 150391" transform="translate(31.67 15.85)">
        <circle id="Elipse_5685" data-name="Elipse 5685" cx="11.889" cy="11.889" r="11.889" fill="#f3f9ff"/>
      </g>
      <g id="Grupo_150393" data-name="Grupo 150393" transform="translate(56.618 51.24)">
        <path id="Trazado_204037" data-name="Trazado 204037" d="M381.063,339.437l-6.869,4.284-2.835-4.338,6.871-4.284Z" transform="translate(-371.358 -335.1)" fill="#dce736"/>
      </g>
      <g id="Grupo_150395" data-name="Grupo 150395" transform="translate(0 0.177)">
        <path id="Trazado_204039" data-name="Trazado 204039" d="M125.511,183.248a1.553,1.553,0,1,0-1.553-1.553A1.553,1.553,0,0,0,125.511,183.248Z" transform="translate(-105.059 -152.703)"/>
        <path id="Trazado_204040" data-name="Trazado 204040" d="M127.9,73.71a1.143,1.143,0,0,0,1.143-1.143V59.656a1.143,1.143,0,0,0-2.286,0V72.567A1.143,1.143,0,0,0,127.9,73.71Z" transform="translate(-107.435 -49.619)"/>
        <path id="Trazado_204041" data-name="Trazado 204041" d="M224.2,101.448a13.032,13.032,0,1,0-13.748,19.769,13.149,13.149,0,0,0,2.806.3A13.035,13.035,0,0,0,224.2,101.448Zm-.47,9.329a10.742,10.742,0,1,1-1.454-8.095,10.676,10.676,0,0,1,1.454,8.095Z" transform="translate(-169.674 -80.923)"/>
        <path id="Trazado_204042" data-name="Trazado 204042" d="M253.538,147.812h2.914a1.143,1.143,0,1,0,0-2.286h-2.914a1.143,1.143,0,0,0,0,2.286Z" transform="translate(-213.914 -123.366)"/>
        <path id="Trazado_204043" data-name="Trazado 204043" d="M261.408,173.456h-7.87a1.143,1.143,0,0,0,0,2.286h7.87a1.143,1.143,0,0,0,0-2.286Z" transform="translate(-213.914 -147.038)"/>
        <path id="Trazado_204044" data-name="Trazado 204044" d="M261.408,201.386h-7.87a1.143,1.143,0,0,0,0,2.286h7.87a1.143,1.143,0,0,0,0-2.286Z" transform="translate(-213.914 -170.709)"/>
        <path id="Trazado_204045" data-name="Trazado 204045" d="M77.232,70.181l-4.325-6.619a1.143,1.143,0,0,0-1.914,1.251l4.32,6.611a2.9,2.9,0,1,1-4.894,3.128L61.049,60.213l4.929-3.074,2.1,3.215A1.143,1.143,0,0,0,69.993,59.1L62.076,46.989a2.779,2.779,0,0,0-3.835-.837l-1.07.686-2.778-4.329A18.318,18.318,0,1,0,31.1,14.308L24.183,2.331A4.264,4.264,0,0,0,20.452.177h0a4.264,4.264,0,0,0-3.731,2.154L12.5,9.642a1.143,1.143,0,0,0,1.98,1.143L18.7,3.474a2.022,2.022,0,0,1,3.5,0l7.256,12.568a18.382,18.382,0,0,0-2.943,18.416H4.314a2.022,2.022,0,0,1-1.751-3.033L11.91,15.237a1.143,1.143,0,0,0-1.98-1.143L.584,30.282a4.308,4.308,0,0,0,3.731,6.462H27.607q.253.448.533.886a18.2,18.2,0,0,0,11.51,8,18.475,18.475,0,0,0,3.944.428,18.153,18.153,0,0,0,8.873-2.321l2.778,4.33-1.07.686a2.781,2.781,0,0,0-.832,3.843L68.5,75.795a5.155,5.155,0,0,0,3.261,2.268,5.236,5.236,0,0,0,1.117.121,5.191,5.191,0,0,0,4.353-8ZM52.216,41.232a16.032,16.032,0,1,1,7.006-10.074A16.051,16.051,0,0,1,52.216,41.232ZM55.263,51.36a.491.491,0,0,1,.148-.677l4.064-2.607a.493.493,0,0,1,.682.156l1.736,2.657-4.93,3.073Zm2.951,4.516,4.93-3.073,1.584,2.423L59.8,58.3Z" transform="translate(0 -0.177)"/>
      </g>
    </g>
  </g>
</svg>
