<svg xmlns="http://www.w3.org/2000/svg" width="147.313" height="147.313" viewBox="0 0 147.313 147.313">
  <g id="Grupo_150938" data-name="Grupo 150938" transform="translate(-726.344 -3427.344)">
    <circle id="Elipse_5826" data-name="Elipse 5826" cx="50.5" cy="50.5" r="50.5" transform="translate(750 3449)" fill="#fff"/>
    <g id="Grupo_150937" data-name="Grupo 150937" transform="translate(728.465 3429.465)">
      <path id="Trazado_206242" data-name="Trazado 206242" d="M50.583,0A50.583,50.583,0,1,1,0,50.583,50.583,50.583,0,0,1,50.583,0Z" transform="translate(0 71.535) rotate(-45)" fill="#fff" stroke="#3e4bbf" stroke-width="3"/>
      <path id="Trazado_205950" data-name="Trazado 205950" d="M745.557,186.494a50.662,50.662,0,0,1-30.33,21.755l14.32,14.32,8.518-17.525,17.525-8.518Z" transform="translate(-631.455 -87.624)" fill="#3d46c2" stroke="rgba(0,0,0,0)" stroke-width="1"/>
      <circle id="Elipse_5809" data-name="Elipse 5809" cx="47.305" cy="47.305" r="47.305" transform="matrix(0.23, -0.973, 0.973, 0.23, 14.627, 106.706)" fill="#fff" stroke="#3e4bbf" stroke-miterlimit="10" stroke-width="1"/>
      <g id="Grupo_150884" data-name="Grupo 150884" transform="translate(32.632 27.43)">
        <g id="Grupo_150883" data-name="Grupo 150883">
          <path id="Trazado_205951" data-name="Trazado 205951" d="M641.641,110.131l-1.407.335a3.03,3.03,0,0,1-1.324,1.818,2.713,2.713,0,0,1-1.4.4,3.036,3.036,0,0,1-2.57-1.447,2.722,2.722,0,0,1-.378-1.4,3.018,3.018,0,0,1,1.414-2.51,2.691,2.691,0,0,1,1.394-.4,3.075,3.075,0,0,1,2.522,1.369,2.684,2.684,0,0,1,.421,1.295l1.9-.472Zm-4.073,1.665a1.758,1.758,0,0,0,.965-.237,2.062,2.062,0,0,0,.971-1.725,1.756,1.756,0,0,0-.3-.948,2.536,2.536,0,0,0-1.9-1.068,1.744,1.744,0,0,0-.957.242,2.087,2.087,0,0,0-.971,1.725,1.735,1.735,0,0,0,.29.944,2.3,2.3,0,0,0,.826.746A2.325,2.325,0,0,0,637.569,111.8Z" transform="translate(-634.563 -85.93)" fill="#3d46c2" stroke="rgba(0,0,0,0)" stroke-width="1"/>
          <path id="Trazado_205952" data-name="Trazado 205952" d="M639.469,100.679l2.812,2.19a1.271,1.271,0,0,0,.961.325,1.513,1.513,0,0,0,1.146-1.473,1.266,1.266,0,0,0-.55-.851l-2.812-2.19.563-.723,2.8,2.18a2.135,2.135,0,0,1,.732.947,1.843,1.843,0,0,1,.069,1.063,2.581,2.581,0,0,1-.493,1.014,2.555,2.555,0,0,1-.86.723,1.807,1.807,0,0,1-1.04.184,2.188,2.188,0,0,1-1.092-.484l-2.8-2.18Z" transform="translate(-636.152 -82.647)" fill="#3d46c2" stroke="rgba(0,0,0,0)" stroke-width="1"/>
          <path id="Trazado_205953" data-name="Trazado 205953" d="M651.2,95.624l-1.68,1.631.507,1.1-.687.667-2.462-5.414.762-.74,5.339,2.623-.694.673Zm-.706-.358-2.463-1.232,1.152,2.5Z" transform="translate(-639.072 -80.786)" fill="#3d46c2" stroke="rgba(0,0,0,0)" stroke-width="1"/>
          <path id="Trazado_205954" data-name="Trazado 205954" d="M655.744,92.331l1.5-1.153.451.587-2.226,1.712-3.411-4.432.727-.56Z" transform="translate(-640.966 -79.182)" fill="#3d46c2" stroke="rgba(0,0,0,0)" stroke-width="1"/>
          <path id="Trazado_205955" data-name="Trazado 205955" d="M657.736,84.946l3.087,4.663-.765.507-3.088-4.663Z" transform="translate(-642.764 -77.886)" fill="#3d46c2" stroke="rgba(0,0,0,0)" stroke-width="1"/>
          <path id="Trazado_205956" data-name="Trazado 205956" d="M663.252,80.874l.36.656-1.305.716,2.329,4.248-.805.441L661.5,82.687l-1.313.72-.359-.656Z" transform="translate(-643.811 -76.396)" fill="#3d46c2" stroke="rgba(0,0,0,0)" stroke-width="1"/>
          <path id="Trazado_205957" data-name="Trazado 205957" d="M670.858,77.475l-.385,4,.758,1.881-.851.342-.758-1.88L666.566,79.2l.948-.382,2.227,2.061.176-3.029Z" transform="translate(-646.277 -75.151)" fill="#3d46c2" stroke="rgba(0,0,0,0)" stroke-width="1"/>
          <path id="Trazado_205958" data-name="Trazado 205958" d="M684.688,74.112l1,5.5-.9.164L684.1,76.01l-1,4.073-.626.113-2.369-3.463.683,3.769-.9.164-1-5.5.974-.176,2.713,3.966,1.143-4.664Z" transform="translate(-650.788 -73.921)" fill="#3d46c2" stroke="rgba(0,0,0,0)" stroke-width="1"/>
          <path id="Trazado_205959" data-name="Trazado 205959" d="M694.337,78.254,692,78.3l-.379,1.151-.957.02,1.887-5.641,1.063-.022,2.118,5.558-.965.02Zm-.273-.743-.962-2.579-.864,2.617Z" transform="translate(-655.095 -73.81)" fill="#3d46c2" stroke="rgba(0,0,0,0)" stroke-width="1"/>
          <path id="Trazado_205960" data-name="Trazado 205960" d="M704.292,80l-.911-.111-2.236-4.478-.5,4.146-.911-.11.676-5.56.91.111,2.237,4.471.5-4.138.91.111Z" transform="translate(-658.415 -73.838)" fill="#3d46c2" stroke="rgba(0,0,0,0)" stroke-width="1"/>
          <path id="Trazado_205961" data-name="Trazado 205961" d="M711.848,80.752l-2.261-.612-.687,1-.924-.25,3.4-4.883,1.025.278.471,5.929-.932-.252Zm-.053-.79-.2-2.746-1.564,2.27Z" transform="translate(-661.433 -74.613)" fill="#3d46c2" stroke="rgba(0,0,0,0)" stroke-width="1"/>
          <path id="Trazado_205962" data-name="Trazado 205962" d="M722.357,81.589a1.481,1.481,0,0,0-.3-.821,1.809,1.809,0,0,0-.732-.554,1.947,1.947,0,0,0-1.007-.17,1.745,1.745,0,0,0-.907.375,2.218,2.218,0,0,0-.652.874,2.242,2.242,0,0,0-.2,1.075,1.744,1.744,0,0,0,.336.926,1.953,1.953,0,0,0,.806.626,1.751,1.751,0,0,0,1.281.105,1.816,1.816,0,0,0,.979-.809l-1.923-.844.295-.671,2.822,1.239-.288.656a2.763,2.763,0,0,1-3.5,1.082,2.893,2.893,0,0,1-1.172-.915,2.738,2.738,0,0,1-.537-1.348,3.031,3.031,0,0,1,1.184-2.7,2.728,2.728,0,0,1,1.36-.515,3.053,3.053,0,0,1,2.741,1.284,2.5,2.5,0,0,1,.425,1.544Z" transform="translate(-664.97 -75.78)" fill="#3d46c2" stroke="rgba(0,0,0,0)" stroke-width="1"/>
          <path id="Trazado_205963" data-name="Trazado 205963" d="M728.627,83.733l-.851,1.4,1.652,1-.388.64-1.651-1-.888,1.466,1.858,1.126-.387.64-2.642-1.6,2.9-4.789,2.642,1.6-.387.64Z" transform="translate(-667.784 -77.034)" fill="#3d46c2" stroke="rgba(0,0,0,0)" stroke-width="1"/>
          <path id="Trazado_205964" data-name="Trazado 205964" d="M738.887,90.333l-3.544,4.327-.709-.581,2.427-2.963L733.315,93l-.492-.4,1.1-4.05L731.5,91.509l-.709-.581,3.544-4.327.765.628-1.26,4.636,4.292-2.154Z" transform="translate(-669.782 -78.492)" fill="#3d46c2" stroke="rgba(0,0,0,0)" stroke-width="1"/>
          <path id="Trazado_205965" data-name="Trazado 205965" d="M743.22,95.729l-1.208,1.111,1.307,1.421-.55.507-1.308-1.421-1.261,1.16,1.47,1.6-.55.507-2.092-2.274,4.122-3.792,2.092,2.274-.551.507Z" transform="translate(-672.799 -81.4)" fill="#3d46c2" stroke="rgba(0,0,0,0)" stroke-width="1"/>
          <path id="Trazado_205966" data-name="Trazado 205966" d="M746,107.119l-.532-.747,1.8-4.671-3.4,2.422-.532-.747,4.563-3.247.532.747-1.8,4.665,3.4-2.417.532.748Z" transform="translate(-674.377 -83.443)" fill="#3d46c2" stroke="rgba(0,0,0,0)" stroke-width="1"/>
          <path id="Trazado_205967" data-name="Trazado 205967" d="M755.306,111.475l-.661.351-.7-1.314-4.277,2.275-.431-.81,4.276-2.275-.7-1.322.661-.351Z" transform="translate(-676.536 -86.335)" fill="#3d46c2" stroke="rgba(0,0,0,0)" stroke-width="1"/>
        </g>
      </g>
      <g id="Grupo_150886" data-name="Grupo 150886" transform="translate(35.977 92.63)">
        <g id="Grupo_150885" data-name="Grupo 150885">
          <path id="Trazado_205968" data-name="Trazado 205968" d="M642.381,178.466a2.73,2.73,0,0,1,1.44.2,3.053,3.053,0,0,1,1.785,2.444,2.5,2.5,0,0,1-.371,1.558l-.671-.875a1.486,1.486,0,0,0,.156-.88,1.8,1.8,0,0,0-.372-.841,1.958,1.958,0,0,0-.8-.633,1.735,1.735,0,0,0-.982-.1,2.532,2.532,0,0,0-1.723,1.323,1.758,1.758,0,0,0-.157.978,1.928,1.928,0,0,0,.4.94,1.793,1.793,0,0,0,.716.576,1.48,1.48,0,0,0,.891.077l.671.874a2.474,2.474,0,0,1-1.6-.046,2.943,2.943,0,0,1-1.313-1,2.891,2.891,0,0,1-.586-1.366,2.721,2.721,0,0,1,.177-1.44,3.029,3.029,0,0,1,2.336-1.794Z" transform="translate(-639.839 -177.308)" fill="#3d46c2" stroke="rgba(0,0,0,0)" stroke-width="1"/>
          <path id="Trazado_205969" data-name="Trazado 205969" d="M649.266,185.759l-1.16,1.161,1.366,1.365-.529.529-1.367-1.364-1.211,1.213L647.9,190.2l-.529.53-2.187-2.183,3.957-3.964,2.187,2.183-.529.53Z" transform="translate(-641.797 -179.554)" fill="#3d46c2" stroke="rgba(0,0,0,0)" stroke-width="1"/>
          <path id="Trazado_205970" data-name="Trazado 205970" d="M652.873,195.315l.373-2.554-.55-.434-1.384,1.757-.72-.567,3.46-4.394,1.517,1.2a2.415,2.415,0,0,1,.717.851,1.556,1.556,0,0,1,.151.888,1.644,1.644,0,0,1-.349.8,1.675,1.675,0,0,1-.865.584,1.614,1.614,0,0,1-1.144-.127l-.347,2.677Zm.276-3.562.8.628a1.06,1.06,0,0,0,.769.278.928.928,0,0,0,.634-.382.9.9,0,0,0,.218-.694,1.1,1.1,0,0,0-.461-.676l-.8-.627Z" transform="translate(-643.774 -181.217)" fill="#3d46c2" stroke="rgba(0,0,0,0)" stroke-width="1"/>
          <path id="Trazado_205971" data-name="Trazado 205971" d="M664.277,195.649l-.388.64-1.272-.773-2.514,4.141-.784-.476,2.514-4.141-1.279-.777.389-.64Z" transform="translate(-646.969 -182.864)" fill="#3d46c2" stroke="rgba(0,0,0,0)" stroke-width="1"/>
          <path id="Trazado_205972" data-name="Trazado 205972" d="M667.725,197.773l-2.489,5.008-.822-.408,2.489-5.008Z" transform="translate(-648.834 -184.233)" fill="#3d46c2" stroke="rgba(0,0,0,0)" stroke-width="1"/>
          <path id="Trazado_205973" data-name="Trazado 205973" d="M673.1,200.026l-.278.695-2.2-.883-.614,1.532,1.718.688-.278.695-1.718-.688-.91,2.271-.851-.341,2.08-5.192Z" transform="translate(-650.135 -184.759)" fill="#3d46c2" stroke="rgba(0,0,0,0)" stroke-width="1"/>
          <path id="Trazado_205974" data-name="Trazado 205974" d="M677.153,201.326l-1.659,5.341-.876-.273,1.659-5.341Z" transform="translate(-652.569 -185.583)" fill="#3d46c2" stroke="rgba(0,0,0,0)" stroke-width="1"/>
          <path id="Trazado_205975" data-name="Trazado 205975" d="M680.316,202.918l-.359,1.6,1.884.423-.163.73-1.885-.423-.375,1.672,2.121.475-.164.73-3.015-.676,1.226-5.465,3.015.676-.164.73Z" transform="translate(-653.938 -185.925)" fill="#3d46c2" stroke="rgba(0,0,0,0)" stroke-width="1"/>
          <path id="Trazado_205976" data-name="Trazado 205976" d="M689.644,204.04a2.448,2.448,0,0,1,.941,1.076,2.954,2.954,0,0,1,.224,1.52,2.889,2.889,0,0,1-.5,1.44,2.425,2.425,0,0,1-1.125.859,3.478,3.478,0,0,1-1.589.185l-1.819-.172.528-5.568,1.818.172A3.414,3.414,0,0,1,689.644,204.04Zm-.435,3.948a2.04,2.04,0,0,0,.662-1.44,2.108,2.108,0,0,0-.377-1.563,1.982,1.982,0,0,0-1.446-.687l-.905-.086-.386,4.078.905.086A2.019,2.019,0,0,0,689.209,207.988Z" transform="translate(-656.651 -186.435)" fill="#3d46c2" stroke="rgba(0,0,0,0)" stroke-width="1"/>
          <path id="Trazado_205977" data-name="Trazado 205977" d="M702.5,206.016a1.51,1.51,0,0,1-.586.671,2.387,2.387,0,0,1-1.109.338l-1.01.09.2,2.261-.914.082-.5-5.57,1.924-.172a2.441,2.441,0,0,1,1.106.123,1.54,1.54,0,0,1,.718.538,1.643,1.643,0,0,1,.3.822A1.69,1.69,0,0,1,702.5,206.016Zm-1.005-.043a.868.868,0,0,0,.2-.692q-.083-.913-1.116-.821l-1.009.091.163,1.82,1.01-.091A1.118,1.118,0,0,0,701.5,205.973Z" transform="translate(-661.343 -186.552)" fill="#3d46c2" stroke="rgba(0,0,0,0)" stroke-width="1"/>
          <path id="Trazado_205978" data-name="Trazado 205978" d="M709.914,207.819l-1.733-1.911-.684.149.476,2.185-.9.2-1.189-5.464,1.887-.411a2.407,2.407,0,0,1,1.113-.012,1.564,1.564,0,0,1,.781.448,1.641,1.641,0,0,1,.4.779,1.677,1.677,0,0,1-.1,1.039,1.614,1.614,0,0,1-.826.8l1.846,1.97Zm-2.574-2.478.991-.216a1.065,1.065,0,0,0,.7-.417.927.927,0,0,0,.108-.732.893.893,0,0,0-.4-.61,1.1,1.1,0,0,0-.815-.074l-.99.216Z" transform="translate(-664.013 -186.109)" fill="#3d46c2" stroke="rgba(0,0,0,0)" stroke-width="1"/>
          <path id="Trazado_205979" data-name="Trazado 205979" d="M716.686,205.42a2.707,2.707,0,0,1-1.331-.591,3.038,3.038,0,0,1-1.038-2.76,2.715,2.715,0,0,1,.613-1.318,3.018,3.018,0,0,1,2.7-1.014,2.689,2.689,0,0,1,1.326.589,3.063,3.063,0,0,1,1.039,2.76,2.686,2.686,0,0,1-.608,1.321,3.015,3.015,0,0,1-2.7,1.014Zm2.03-1.494a1.764,1.764,0,0,0,.382-.917,2.323,2.323,0,0,0-.155-1.107,2.3,2.3,0,0,0-.612-.93,1.738,1.738,0,0,0-.889-.431,2.092,2.092,0,0,0-1.853.7,1.741,1.741,0,0,0-.384.91,2.537,2.537,0,0,0,.766,2.037,1.758,1.758,0,0,0,.891.438,2.057,2.057,0,0,0,1.853-.7Z" transform="translate(-667.084 -185.09)" fill="#3d46c2" stroke="rgba(0,0,0,0)" stroke-width="1"/>
          <path id="Trazado_205980" data-name="Trazado 205980" d="M725.65,195.813a2.444,2.444,0,0,1,1.386.346,2.961,2.961,0,0,1,1.052,1.121,2.892,2.892,0,0,1,.407,1.47,2.419,2.419,0,0,1-.432,1.347,3.49,3.49,0,0,1-1.2,1.059l-1.592.9-2.743-4.873,1.592-.9A3.4,3.4,0,0,1,725.65,195.813Zm1.9,3.49a2.04,2.04,0,0,0-.278-1.561,2.115,2.115,0,0,0-1.2-1.069,1.983,1.983,0,0,0-1.579.261l-.792.446,2.01,3.569.792-.446A2.02,2.02,0,0,0,727.545,199.3Z" transform="translate(-670.104 -183.664)" fill="#3d46c2" stroke="rgba(0,0,0,0)" stroke-width="1"/>
          <path id="Trazado_205981" data-name="Trazado 205981" d="M730.806,191.478l2.171,2.827a1.145,1.145,0,0,0,1.781.245,1.291,1.291,0,0,0,.548-.826,1.275,1.275,0,0,0-.318-.963l-2.171-2.827.728-.559,2.161,2.815a2.147,2.147,0,0,1,.469,1.1,1.849,1.849,0,0,1-.2,1.047,2.578,2.578,0,0,1-.732.857,2.543,2.543,0,0,1-1.013.484,1.807,1.807,0,0,1-1.054-.084,2.192,2.192,0,0,1-.936-.742l-2.161-2.815Z" transform="translate(-672.868 -181.309)" fill="#3d46c2" stroke="rgba(0,0,0,0)" stroke-width="1"/>
          <path id="Trazado_205982" data-name="Trazado 205982" d="M738.313,187.543a2.72,2.72,0,0,1-.013-1.454,3.054,3.054,0,0,1,2.154-2.127,2.5,2.5,0,0,1,1.6.136l-.765.794a1.48,1.48,0,0,0-.894-.024,1.8,1.8,0,0,0-.776.492,1.952,1.952,0,0,0-.508.886,1.738,1.738,0,0,0,.043.986,2.526,2.526,0,0,0,1.563,1.508,1.762,1.762,0,0,0,.99.011,1.937,1.937,0,0,0,.87-.537,1.789,1.789,0,0,0,.463-.793,1.483,1.483,0,0,0-.056-.893l.765-.793a2.475,2.475,0,0,1,.191,1.587,2.946,2.946,0,0,1-.791,1.445,2.89,2.89,0,0,1-1.264.782,2.727,2.727,0,0,1-1.451.037,3.028,3.028,0,0,1-2.119-2.045Z" transform="translate(-675.843 -179.301)" fill="#3d46c2" stroke="rgba(0,0,0,0)" stroke-width="1"/>
          <path id="Trazado_205983" data-name="Trazado 205983" d="M745.355,176.652l.6.442-.879,1.2,3.91,2.86-.542.741-3.91-2.86-.883,1.208-.6-.442Z" transform="translate(-677.616 -176.652)" fill="#3d46c2" stroke="rgba(0,0,0,0)" stroke-width="1"/>
        </g>
      </g>
      <path id="Trazado_205984" data-name="Trazado 205984" d="M622.991,186.494l-10.032,10.032,17.525,8.518L639,222.568l14.32-14.32A50.66,50.66,0,0,1,622.991,186.494Z" transform="translate(-594.023 -87.624)" fill="#3d46c2" stroke="rgba(0,0,0,0)" stroke-width="1"/>
      <path id="Trazado_205985" data-name="Trazado 205985" d="M751.962,155.575a41.335,41.335,0,0,0,2.789-36.764" transform="translate(-644.901 -62.851)" fill="none" stroke="#3e4bbf" stroke-miterlimit="10" stroke-width="1"/>
      <path id="Trazado_205986" data-name="Trazado 205986" d="M633.729,118.811a41.34,41.34,0,0,0,2.789,36.764" transform="translate(-600.509 -62.851)" fill="none" stroke="#3e4bbf" stroke-miterlimit="10" stroke-width="1"/>
      <g id="Grupo_150887" data-name="Grupo 150887" transform="translate(57.09 41.048)">
        <path id="Trazado_205987" data-name="Trazado 205987" d="M673.141,97.156v-1.57h5.378v1.57l-1.392.268v9.32l1.392.268v1.56h-5.378v-1.56l1.392-.268v-9.32Z" transform="translate(-673.141 -95.399)" fill="#3d46c2" stroke="rgba(0,0,0,0)" stroke-width="1"/>
        <path id="Trazado_205988" data-name="Trazado 205988" d="M693.259,99.63h-1.953l-.339-1.783a3.444,3.444,0,0,0-.99-.374,5.75,5.75,0,0,0-1.382-.161,2.658,2.658,0,0,0-1.655.451,1.4,1.4,0,0,0-.584,1.163,1.274,1.274,0,0,0,.61,1.083,8.448,8.448,0,0,0,2.109.9,8.226,8.226,0,0,1,3.26,1.579,3.275,3.275,0,0,1,1.11,2.577,3.083,3.083,0,0,1-1.32,2.631,5.77,5.77,0,0,1-3.478.963,7.54,7.54,0,0,1-2.787-.491,5.73,5.73,0,0,1-2.073-1.355V104.1H685.8l.276,1.846a3.142,3.142,0,0,0,1.066.531,5.027,5.027,0,0,0,1.5.21,2.6,2.6,0,0,0,1.627-.437,1.41,1.41,0,0,0,.558-1.168,1.509,1.509,0,0,0-.531-1.2,5.378,5.378,0,0,0-1.86-.856,10.594,10.594,0,0,1-3.5-1.588,3.008,3.008,0,0,1-1.186-2.515,3.091,3.091,0,0,1,1.338-2.582,5.573,5.573,0,0,1,3.362-1.03,7.825,7.825,0,0,1,2.729.455,6.314,6.314,0,0,1,2.069,1.213Z" transform="translate(-677.029 -95.296)" fill="#3d46c2" stroke="rgba(0,0,0,0)" stroke-width="1"/>
        <path id="Trazado_205989" data-name="Trazado 205989" d="M712.582,102.069a6.9,6.9,0,0,1-1.632,4.717,5.8,5.8,0,0,1-8.521,0,6.939,6.939,0,0,1-1.619-4.717v-.2a6.957,6.957,0,0,1,1.614-4.709,5.334,5.334,0,0,1,4.246-1.873,5.408,5.408,0,0,1,4.276,1.873,6.9,6.9,0,0,1,1.636,4.709Zm-2.595-.214a5.8,5.8,0,0,0-.838-3.273,2.788,2.788,0,0,0-2.479-1.258,2.717,2.717,0,0,0-2.448,1.249,5.959,5.959,0,0,0-.807,3.282v.214a5.963,5.963,0,0,0,.816,3.3,2.726,2.726,0,0,0,2.448,1.253,2.775,2.775,0,0,0,2.479-1.253,5.893,5.893,0,0,0,.83-3.3Z" transform="translate(-683.268 -95.291)" fill="#3d46c2" stroke="rgba(0,0,0,0)" stroke-width="1"/>
      </g>
      <g id="Grupo_150888" data-name="Grupo 150888" transform="translate(33.65 59.89)">
        <path id="Trazado_205990" data-name="Trazado 205990" d="M643.5,146.344a3.864,3.864,0,0,0,3.164-1.5,7.066,7.066,0,0,0,1.206-4.5v-.368a5.441,5.441,0,0,1-1.96,1.6,5.59,5.59,0,0,1-2.445.545,6.727,6.727,0,0,1-5.358-2.236,9.093,9.093,0,0,1-1.942-6.17,8.781,8.781,0,0,1,2.319-6.2,7.656,7.656,0,0,1,5.869-2.5,7.8,7.8,0,0,1,6.062,2.57q2.328,2.571,2.327,7.226V140.1q0,4.739-2.587,7.368a8.933,8.933,0,0,1-6.656,2.629,13.845,13.845,0,0,1-2.621-.26,11.538,11.538,0,0,1-2.486-.762l.553-3.533a12.8,12.8,0,0,0,2.176.611A13.277,13.277,0,0,0,643.5,146.344Zm.787-7.8a4.673,4.673,0,0,0,2.135-.46,3.828,3.828,0,0,0,1.449-1.231v-2.612a7.284,7.284,0,0,0-.938-4.069,2.92,2.92,0,0,0-2.545-1.39,2.772,2.772,0,0,0-2.4,1.448,6.335,6.335,0,0,0-.929,3.491,6.5,6.5,0,0,0,.829,3.516A2.674,2.674,0,0,0,644.29,138.54Z" transform="translate(-636.169 -125.011)" fill="#3d46c2" stroke="rgba(0,0,0,0)" stroke-width="1"/>
        <path id="Trazado_205991" data-name="Trazado 205991" d="M683.7,140.248q0,4.84-2.218,7.343a8.5,8.5,0,0,1-12.048,0q-2.227-2.5-2.227-7.343v-5.375q0-4.822,2.219-7.342a8.45,8.45,0,0,1,12.039,0q2.236,2.52,2.235,7.342Zm-4.873-5.877a8.026,8.026,0,0,0-.87-4.245,3.02,3.02,0,0,0-5.024-.009,8.148,8.148,0,0,0-.854,4.253v6.346a8.159,8.159,0,0,0,.863,4.286,2.825,2.825,0,0,0,2.537,1.34,2.777,2.777,0,0,0,2.495-1.34,8.228,8.228,0,0,0,.854-4.286Z" transform="translate(-647.528 -125.011)" fill="#3d46c2" stroke="rgba(0,0,0,0)" stroke-width="1"/>
        <path id="Trazado_205992" data-name="Trazado 205992" d="M714.6,140.248q0,4.84-2.218,7.343a8.5,8.5,0,0,1-12.048,0q-2.227-2.5-2.227-7.343v-5.375q0-4.822,2.219-7.342a8.45,8.45,0,0,1,12.04,0q2.235,2.52,2.235,7.342Zm-4.873-5.877a8.026,8.026,0,0,0-.87-4.245,3.019,3.019,0,0,0-5.023-.009,8.142,8.142,0,0,0-.854,4.253v6.346a8.16,8.16,0,0,0,.862,4.286,2.825,2.825,0,0,0,2.537,1.34,2.778,2.778,0,0,0,2.5-1.34,8.236,8.236,0,0,0,.853-4.286Z" transform="translate(-658.838 -125.011)" fill="#3d46c2" stroke="rgba(0,0,0,0)" stroke-width="1"/>
        <path id="Trazado_205993" data-name="Trazado 205993" d="M745.5,140.248q0,4.84-2.218,7.343a8.5,8.5,0,0,1-12.048,0q-2.226-2.5-2.227-7.343v-5.375q0-4.822,2.219-7.342a8.45,8.45,0,0,1,12.039,0q2.235,2.52,2.235,7.342Zm-4.872-5.877a8.026,8.026,0,0,0-.87-4.245,3.02,3.02,0,0,0-5.024-.009,8.142,8.142,0,0,0-.854,4.253v6.346a8.153,8.153,0,0,0,.863,4.286,2.825,2.825,0,0,0,2.536,1.34,2.777,2.777,0,0,0,2.495-1.34,8.228,8.228,0,0,0,.854-4.286Z" transform="translate(-670.149 -125.011)" fill="#3d46c2" stroke="rgba(0,0,0,0)" stroke-width="1"/>
      </g>
      <g id="Grupo_150889" data-name="Grupo 150889" transform="translate(47.924 45.001)">
        <circle id="Elipse_5810" data-name="Elipse 5810" cx="2.156" cy="2.156" r="2.156" fill="#3d46c2" stroke="rgba(0,0,0,0)" stroke-width="1"/>
        <path id="Trazado_205994" data-name="Trazado 205994" d="M730.677,103.682a2.156,2.156,0,1,1-2.156-2.156A2.156,2.156,0,0,1,730.677,103.682Z" transform="translate(-683.456 -101.526)" fill="#3d46c2" stroke="rgba(0,0,0,0)" stroke-width="1"/>
      </g>
      <path id="Trazado_205995" data-name="Trazado 205995" d="M690.709,167.092l3.1,5.238,5.938,1.326-4.025,4.563.574,6.057-5.584-2.418-5.584,2.418.574-6.057-4.025-4.563,5.938-1.326Z" transform="translate(-619.174 -80.523)" fill="#3d46c2" stroke="rgba(0,0,0,0)" stroke-width="1"/>
      <g id="Grupo_150890" data-name="Grupo 150890" transform="translate(47.401 86.569)">
        <path id="Trazado_205996" data-name="Trazado 205996" d="M663.806,167.092l2.039,3.449,3.91.873-2.65,3,.378,3.989-3.676-1.592-3.677,1.592.378-3.989-2.65-3,3.91-.873Z" transform="translate(-657.857 -167.092)" fill="#3d46c2" stroke="rgba(0,0,0,0)" stroke-width="1"/>
        <path id="Trazado_205997" data-name="Trazado 205997" d="M721.176,167.092l2.039,3.449,3.91.873-2.65,3,.378,3.989-3.677-1.592-3.677,1.592.378-3.989-2.65-3,3.91-.873Z" transform="translate(-678.855 -167.092)" fill="#3d46c2" stroke="rgba(0,0,0,0)" stroke-width="1"/>
      </g>
    </g>
  </g>
</svg>
