<svg xmlns="http://www.w3.org/2000/svg" width="458.594" height="291.853" viewBox="0 0 458.594 291.853">
  <g id="Grupo_150864" data-name="Grupo 150864" transform="translate(-907.811 -1780)">
    <g id="mas" transform="translate(1250 1780)">
      <path id="Trazado_205887" data-name="Trazado 205887" d="M25,0A25,25,0,1,0,50,25,25.028,25.028,0,0,0,25,0Zm0,0" fill="#3d46c2"/>
      <path id="Trazado_205888" data-name="Trazado 205888" d="M25,50A25,25,0,1,1,50,25,25.028,25.028,0,0,1,25,50ZM25,3.125A21.875,21.875,0,1,0,46.875,25,21.9,21.9,0,0,0,25,3.125Zm0,0"/>
      <path id="Trazado_205889" data-name="Trazado 205889" d="M151.438,243.125H129.563a1.563,1.563,0,0,1,0-3.125h21.875a1.563,1.563,0,0,1,0,3.125Zm0,0" transform="translate(-115.5 -216.563)" fill="#fff"/>
      <path id="Trazado_205890" data-name="Trazado 205890" d="M241.563,153A1.563,1.563,0,0,1,240,151.438V129.563a1.563,1.563,0,0,1,3.125,0v21.875A1.563,1.563,0,0,1,241.563,153Zm0,0" transform="translate(-216.563 -115.5)" fill="#fff"/>
    </g>
    <g id="Layer_36" transform="translate(1046 1778)">
      <path id="Trazado_205899" data-name="Trazado 205899" d="M23.3,0A23.3,23.3,0,1,1,0,23.3,23.3,23.3,0,0,1,23.3,0Z" transform="translate(3.682 3.682)" fill="#f85316"/>
      <g id="Grupo_150860" data-name="Grupo 150860" transform="translate(2 2)">
        <path id="Trazado_205897" data-name="Trazado 205897" d="M27,52A25,25,0,1,1,52,27,25.027,25.027,0,0,1,27,52ZM27,5.571A21.429,21.429,0,1,0,48.429,27,21.452,21.452,0,0,0,27,5.571Z" transform="translate(-2 -2)"/>
        <path id="Trazado_205898" data-name="Trazado 205898" d="M40.821,18.571H6.893A.893.893,0,0,1,6,17.679V15.893A.893.893,0,0,1,6.893,15H40.821a.893.893,0,0,1,.893.893v1.786A.893.893,0,0,1,40.821,18.571Z" transform="translate(1.143 8.214)" fill="#fff"/>
      </g>
    </g>
    <rect id="Rectángulo_40621" data-name="Rectángulo 40621" width="181.905" height="91.707" rx="4.588" transform="translate(1184.5 1866.927)" fill="#3d46c2"/>
    <rect id="Rectángulo_40621-2" data-name="Rectángulo 40621" width="181.905" height="91.707" rx="4.588" transform="translate(1184.5 1980.146)" fill="#3d46c2"/>
    <rect id="Rectángulo_40621-3" data-name="Rectángulo 40621" width="181.905" height="91.707" rx="4.588" transform="translate(983 1866.927)" fill="#f85316"/>
    <rect id="Rectángulo_40621-4" data-name="Rectángulo 40621" width="181.905" height="91.707" rx="4.588" transform="translate(982.5 1980.146)" fill="#f85316"/>
    <g id="puno" transform="translate(1180.18 1872.452)">
      <path id="Trazado_205891" data-name="Trazado 205891" d="M108.291,102.967a4.561,4.561,0,0,0,.639-2.332V95.167a4.587,4.587,0,0,0-6.922-3.951,4.589,4.589,0,0,0-7.836,0,4.593,4.593,0,0,0-6.788,2.852A4.6,4.6,0,0,0,81,98.292v12.5c0,5.117,3.906,7.655,3.906,10.938v7.129a1.465,1.465,0,0,0,1.465,1.465h18.75a1.465,1.465,0,0,0,1.465-1.465v-5.566a6.587,6.587,0,0,1,1.68-4.227,9.382,9.382,0,0,0,2.226-5.93v-6.25A4.591,4.591,0,0,0,108.291,102.967Zm-3.951-9.461a1.662,1.662,0,0,1,1.66,1.66v5.469a1.66,1.66,0,1,1-3.32,0V95.167A1.662,1.662,0,0,1,104.34,93.506Zm-7.91.1a1.66,1.66,0,0,1,3.32,0v7.031a1.66,1.66,0,1,1-3.32,0Zm-6.25,1.563a1.66,1.66,0,1,1,3.32,0v5.469a1.66,1.66,0,1,1-3.32,0Zm-6.25,3.125a1.66,1.66,0,0,1,3.32,0v2.344a1.66,1.66,0,0,1-3.32,0Zm23.633,14.844a6.587,6.587,0,0,1-1.68,4.227,9.382,9.382,0,0,0-2.226,5.93v4.1H87.836v-5.664c0-4.446-3.906-6.768-3.906-10.938v-5.878a4.575,4.575,0,0,0,4.785-.92,4.578,4.578,0,0,0,6.25,0l.1.088v2.8a4.6,4.6,0,0,0,3.5,4.459,8.333,8.333,0,0,0-1.91,3.847,1.465,1.465,0,1,0,2.873.574c.611-3.053,3.77-4.385,3.8-4.4a1.465,1.465,0,0,0-.544-2.825H99.652a1.662,1.662,0,0,1-1.66-1.66v-1.66h7.91a1.662,1.662,0,0,1,1.66,1.66Z" transform="translate(0 -80.323)" fill="#fff"/>
      <path id="Trazado_205892" data-name="Trazado 205892" d="M242.465,6.152a1.465,1.465,0,0,0,1.465-1.465V1.465a1.465,1.465,0,1,0-2.93,0V4.688A1.465,1.465,0,0,0,242.465,6.152Z" transform="translate(-144.375)" fill="#fff"/>
      <path id="Trazado_205893" data-name="Trazado 205893" d="M154.807,21.618a1.465,1.465,0,0,0,2.438-1.625l-1.562-2.344a1.465,1.465,0,0,0-2.438,1.625Z" transform="translate(-64.967 -15.337)" fill="#fff"/>
      <path id="Trazado_205894" data-name="Trazado 205894" d="M313.651,22.025a1.465,1.465,0,0,0,2.031-.406l1.563-2.344a1.465,1.465,0,0,0-2.438-1.625l-1.562,2.344a1.465,1.465,0,0,0,.406,2.031Z" transform="translate(-209.342 -15.338)" fill="#fff"/>
      <path id="Trazado_205895" data-name="Trazado 205895" d="M82.992,69.063a1.465,1.465,0,1,0,2.072-2.072L83.5,65.429A1.465,1.465,0,0,0,81.43,67.5Z" transform="translate(0 -58.653)" fill="#fff"/>
      <path id="Trazado_205896" data-name="Trazado 205896" d="M389.064,65.43a1.465,1.465,0,0,0-2.072,0l-1.563,1.563a1.465,1.465,0,1,0,2.072,2.072l1.563-1.562A1.465,1.465,0,0,0,389.064,65.43Z" transform="translate(-274.313 -58.653)" fill="#fff"/>
    </g>
    <g id="idea" transform="translate(1247.999 1992.08)">
      <g id="Grupo_150585" data-name="Grupo 150585" transform="translate(23.535 5.869)">
        <g id="Grupo_150584" data-name="Grupo 150584">
          <path id="Trazado_204583" data-name="Trazado 204583" d="M242.45,59.99a1.465,1.465,0,0,0,0,2.93,8.8,8.8,0,0,1,8.791,8.789,1.465,1.465,0,0,0,2.93,0A11.733,11.733,0,0,0,242.45,59.99Z" transform="translate(-240.985 -59.99)" fill="#fff"/>
        </g>
      </g>
      <g id="Grupo_150587" data-name="Grupo 150587" transform="translate(7.423 0.012)">
        <g id="Grupo_150586" data-name="Grupo 150586" transform="translate(0 0)">
          <path id="Trazado_204584" data-name="Trazado 204584" d="M89.812.4a17.569,17.569,0,0,0-9.366,28.847,11.412,11.412,0,0,1,2.888,7.479v2.93a4.4,4.4,0,0,0,3.037,4.179,7.306,7.306,0,0,0,14.436,0,4.4,4.4,0,0,0,3.037-4.179V36.73a11.564,11.564,0,0,1,2.973-7.575A17.581,17.581,0,0,0,89.812.4Zm3.776,46.678a4.483,4.483,0,0,1-4.144-3.037h8.288A4.483,4.483,0,0,1,93.588,47.082Zm7.325-7.422a1.467,1.467,0,0,1-1.465,1.465H87.728a1.467,1.467,0,0,1-1.465-1.465V38.195h14.649Zm3.7-12.436a14.69,14.69,0,0,0-3.619,8.042H86.183A14.477,14.477,0,0,0,82.635,27.3a14.649,14.649,0,1,1,21.977-.081Z" transform="translate(-76.01 -0.012)" fill="#fff"/>
        </g>
      </g>
      <g id="Grupo_150589" data-name="Grupo 150589" transform="translate(0 17.589)">
        <g id="Grupo_150588" data-name="Grupo 150588">
          <path id="Trazado_204585" data-name="Trazado 204585" d="M4.395,179.99H1.465a1.465,1.465,0,0,0,0,2.93h2.93a1.465,1.465,0,0,0,0-2.93Z" transform="translate(0 -179.99)" fill="#fff"/>
        </g>
      </g>
      <g id="Grupo_150591" data-name="Grupo 150591" transform="translate(0.429 7.763)">
        <g id="Grupo_150590" data-name="Grupo 150590">
          <path id="Trazado_204586" data-name="Trazado 204586" d="M8.966,81.884,6.894,79.813a1.465,1.465,0,0,0-2.072,2.072l2.072,2.072a1.465,1.465,0,0,0,2.072-2.072Z" transform="translate(-4.394 -79.383)" fill="#fff"/>
        </g>
      </g>
      <g id="Grupo_150593" data-name="Grupo 150593" transform="translate(0.429 25.342)">
        <g id="Grupo_150592" data-name="Grupo 150592">
          <path id="Trazado_204587" data-name="Trazado 204587" d="M8.966,259.813a1.465,1.465,0,0,0-2.072,0l-2.072,2.072a1.465,1.465,0,1,0,2.072,2.072l2.072-2.072A1.465,1.465,0,0,0,8.966,259.813Z" transform="translate(-4.393 -259.384)" fill="#fff"/>
        </g>
      </g>
      <g id="Grupo_150595" data-name="Grupo 150595" transform="translate(44.143 17.589)">
        <g id="Grupo_150594" data-name="Grupo 150594">
          <path id="Trazado_204588" data-name="Trazado 204588" d="M456.395,179.99h-2.93a1.465,1.465,0,0,0,0,2.93h2.93a1.465,1.465,0,0,0,0-2.93Z" transform="translate(-452 -179.99)" fill="#fff"/>
        </g>
      </g>
      <g id="Grupo_150597" data-name="Grupo 150597" transform="translate(44.572 7.763)">
        <g id="Grupo_150596" data-name="Grupo 150596">
          <path id="Trazado_204589" data-name="Trazado 204589" d="M460.966,79.813a1.465,1.465,0,0,0-2.072,0l-2.072,2.072a1.465,1.465,0,0,0,2.072,2.072l2.072-2.072A1.465,1.465,0,0,0,460.966,79.813Z" transform="translate(-456.393 -79.383)" fill="#fff"/>
        </g>
      </g>
      <g id="Grupo_150599" data-name="Grupo 150599" transform="translate(44.572 25.342)">
        <g id="Grupo_150598" data-name="Grupo 150598">
          <path id="Trazado_204590" data-name="Trazado 204590" d="M460.966,261.884l-2.072-2.072a1.465,1.465,0,0,0-2.072,2.072l2.072,2.072a1.465,1.465,0,0,0,2.072-2.072Z" transform="translate(-456.393 -259.384)" fill="#fff"/>
        </g>
      </g>
    </g>
    <g id="advertencia" transform="translate(1044.163 1968.25)">
      <g id="Grupo_150845" data-name="Grupo 150845" transform="translate(0 20.882)">
        <path id="Trazado_205878" data-name="Trazado 205878" d="M220.795,333.382a2.57,2.57,0,1,0,0,5.139,2.57,2.57,0,0,0,0-5.139Z" transform="translate(-195.795 -301.262)" fill="#fff"/>
        <path id="Trazado_205879" data-name="Trazado 205879" d="M48.783,62.108a8.774,8.774,0,0,0,.021-8.88l-16.1-27.875a8.868,8.868,0,0,0-15.4-.01L1.194,53.248A8.9,8.9,0,0,0,8.9,66.589h32.15A8.851,8.851,0,0,0,48.783,62.108Zm-3.495-2.015a4.857,4.857,0,0,1-4.245,2.457H8.893A4.791,4.791,0,0,1,4.7,60.145a4.864,4.864,0,0,1-.01-4.9l16.116-27.9a4.84,4.84,0,0,1,8.408.01l16.106,27.9A4.8,4.8,0,0,1,45.288,60.094Z" transform="translate(0 -20.882)" fill="#fff"/>
        <path id="Trazado_205880" data-name="Trazado 205880" d="M219.709,157.249a2.794,2.794,0,0,0-1.984,2.806c.062.812.113,1.634.175,2.446.175,3.094.349,6.126.524,9.22a1.883,1.883,0,0,0,1.922,1.809,1.922,1.922,0,0,0,1.922-1.871c0-.637,0-1.223.062-1.871.113-1.984.236-3.967.349-5.951.062-1.285.175-2.57.236-3.854a3.175,3.175,0,0,0-.236-1.285A2.576,2.576,0,0,0,219.709,157.249Z" transform="translate(-195.347 -143.168)" fill="#fff"/>
      </g>
    </g>
    <g id="disgusto" transform="translate(1052 1880.014)">
      <g id="Grupo_150847" data-name="Grupo 150847" transform="translate(3.814 22.81)">
        <g id="Grupo_150846" data-name="Grupo 150846">
          <rect id="Rectángulo_41938" data-name="Rectángulo 41938" width="2.444" height="2.444" fill="#fff"/>
        </g>
      </g>
      <g id="Grupo_150849" data-name="Grupo 150849" transform="translate(0 0.33)">
        <g id="Grupo_150848" data-name="Grupo 150848">
          <path id="Trazado_205881" data-name="Trazado 205881" d="M40.239,20.271a4.42,4.42,0,0,0-.972-6.387A4.421,4.421,0,0,0,38.3,7.5,4.427,4.427,0,0,0,34.817.33H23.824A19.356,19.356,0,0,0,17,1.567l-4.6,1.724V1.3H0V30.42H12.407V25.742C16.619,30.259,20.59,34.7,21.28,35.8v4.859a1.778,1.778,0,0,0,1.776,1.776,7.332,7.332,0,0,0,7.324-7.324V32.923l-1.324-4.574h8.678a4.427,4.427,0,0,0,2.505-8.079ZM9.937,27.95H2.47V3.769H9.937Zm27.8-2.07H25.768l2.141,7.395v1.841a4.861,4.861,0,0,1-4.159,4.8V35.554c0-.6,0-1.071-6.075-7.739-2.148-2.357-4.316-4.67-5.268-5.682V5.929L17.872,3.88A16.893,16.893,0,0,1,23.824,2.8H34.817a1.958,1.958,0,1,1,0,3.917H31.657v2.47h4.132a1.958,1.958,0,1,1,0,3.917h-3v2.47h3.975a1.958,1.958,0,1,1,0,3.917h-3v2.47h3.972a1.958,1.958,0,0,1,0,3.917Z" transform="translate(0 -0.33)" fill="#fff"/>
        </g>
      </g>
    </g>
    <path id="Trazado_206376" data-name="Trazado 206376" d="M-41.117,0V-11.375h3.5a5.315,5.315,0,0,1,2.684.676,4.712,4.712,0,0,1,1.848,1.922,5.928,5.928,0,0,1,.664,2.832v.523a5.945,5.945,0,0,1-.652,2.82,4.672,4.672,0,0,1-1.84,1.914A5.355,5.355,0,0,1-37.594,0Zm2.344-9.477v7.594h1.133a2.545,2.545,0,0,0,2.1-.9,4.06,4.06,0,0,0,.742-2.57v-.6a4.124,4.124,0,0,0-.719-2.629,2.537,2.537,0,0,0-2.1-.895Zm11.8,9.633A4.15,4.15,0,0,1-30-.984a4.054,4.054,0,0,1-1.168-3.039v-.219A5.106,5.106,0,0,1-30.68-6.52a3.612,3.612,0,0,1,1.395-1.547,3.914,3.914,0,0,1,2.059-.543A3.508,3.508,0,0,1-24.5-7.516a4.444,4.444,0,0,1,1,3.1v.922h-5.383a2.1,2.1,0,0,0,.66,1.328,2,2,0,0,0,1.395.5,2.437,2.437,0,0,0,2.039-.945l1.109,1.242A3.389,3.389,0,0,1-25.055-.246,4.511,4.511,0,0,1-26.977.156Zm-.258-6.945a1.411,1.411,0,0,0-1.09.455,2.357,2.357,0,0,0-.535,1.3h3.141v-.181a1.681,1.681,0,0,0-.406-1.165A1.456,1.456,0,0,0-27.234-6.789ZM-14.6-4.148A5.119,5.119,0,0,1-15.469-.98,2.872,2.872,0,0,1-17.891.156,2.639,2.639,0,0,1-20.086-.9l-.1.9h-2.031V-12h2.258v4.3a2.571,2.571,0,0,1,2.055-.914A2.9,2.9,0,0,1-15.48-7.473a5.126,5.126,0,0,1,.879,3.2Zm-2.258-.172A3.381,3.381,0,0,0-17.266-6.2a1.372,1.372,0,0,0-1.211-.592,1.489,1.489,0,0,0-1.484.885v3.346a1.509,1.509,0,0,0,1.5.893,1.4,1.4,0,0,0,1.438-1.081A5.6,5.6,0,0,0-16.859-4.321ZM-10.828,0h-2.266V-8.453h2.266Zm-2.4-10.641a1.112,1.112,0,0,1,.34-.836,1.277,1.277,0,0,1,.926-.328,1.28,1.28,0,0,1,.922.328,1.105,1.105,0,0,1,.344.836,1.108,1.108,0,0,1-.348.844,1.283,1.283,0,0,1-.918.328,1.283,1.283,0,0,1-.918-.328A1.108,1.108,0,0,1-13.227-10.641ZM-6.586,0H-8.852V-12h2.266Zm4.242,0H-4.609V-8.453h2.266Zm-2.4-10.641a1.112,1.112,0,0,1,.34-.836,1.277,1.277,0,0,1,.926-.328,1.28,1.28,0,0,1,.922.328,1.105,1.105,0,0,1,.344.836,1.108,1.108,0,0,1-.348.844,1.283,1.283,0,0,1-.918.328A1.283,1.283,0,0,1-4.395-9.8,1.108,1.108,0,0,1-4.742-10.641ZM-.836-4.289A5.094,5.094,0,0,1,.051-7.437,2.877,2.877,0,0,1,2.477-8.609a2.589,2.589,0,0,1,2.039.922V-12H6.781V0H4.742L4.633-.9A2.657,2.657,0,0,1,2.461.156,2.869,2.869,0,0,1,.066-1.02,5.258,5.258,0,0,1-.836-4.289Zm2.258.161A3.355,3.355,0,0,0,1.836-2.3a1.348,1.348,0,0,0,1.2.636,1.51,1.51,0,0,0,1.477-.887V-5.9a1.489,1.489,0,0,0-1.461-.887Q1.422-6.789,1.422-4.128ZM13.43,0A2.507,2.507,0,0,1,13.2-.758,2.732,2.732,0,0,1,11.07.156,3,3,0,0,1,9.012-.562,2.312,2.312,0,0,1,8.2-2.375a2.389,2.389,0,0,1,1-2.062,4.915,4.915,0,0,1,2.879-.727h1.039v-.484a1.393,1.393,0,0,0-.3-.937,1.183,1.183,0,0,0-.949-.352,1.345,1.345,0,0,0-.895.273.929.929,0,0,0-.324.75H8.383a2.268,2.268,0,0,1,.453-1.359,3,3,0,0,1,1.281-.98,4.669,4.669,0,0,1,1.859-.355,3.689,3.689,0,0,1,2.48.785,2.747,2.747,0,0,1,.918,2.207v3.664a4.041,4.041,0,0,0,.336,1.82V0ZM11.563-1.57a1.945,1.945,0,0,0,.922-.223,1.462,1.462,0,0,0,.625-.6V-3.844h-.844q-1.7,0-1.8,1.172l-.008.133a.9.9,0,0,0,.3.7A1.153,1.153,0,0,0,11.563-1.57Zm5.2-2.719a5.094,5.094,0,0,1,.887-3.148A2.877,2.877,0,0,1,20.07-8.609a2.589,2.589,0,0,1,2.039.922V-12h2.266V0H22.336l-.109-.9A2.657,2.657,0,0,1,20.055.156,2.869,2.869,0,0,1,17.66-1.02,5.258,5.258,0,0,1,16.758-4.289Zm2.258.161A3.355,3.355,0,0,0,19.43-2.3a1.348,1.348,0,0,0,1.2.636,1.51,1.51,0,0,0,1.477-.887V-5.9a1.489,1.489,0,0,0-1.461-.887Q19.016-6.789,19.016-4.128Zm11,4.285A4.15,4.15,0,0,1,26.988-.984,4.054,4.054,0,0,1,25.82-4.023v-.219a5.106,5.106,0,0,1,.492-2.277,3.612,3.612,0,0,1,1.395-1.547,3.914,3.914,0,0,1,2.059-.543A3.508,3.508,0,0,1,32.5-7.516a4.444,4.444,0,0,1,1,3.1v.922H28.109a2.1,2.1,0,0,0,.66,1.328,2,2,0,0,0,1.395.5A2.437,2.437,0,0,0,32.2-2.609l1.109,1.242A3.389,3.389,0,0,1,31.938-.246,4.511,4.511,0,0,1,30.016.156Zm-.258-6.945a1.411,1.411,0,0,0-1.09.455,2.357,2.357,0,0,0-.535,1.3h3.141v-.181a1.681,1.681,0,0,0-.406-1.165A1.456,1.456,0,0,0,29.758-6.789Zm9.594,4.453a.727.727,0,0,0-.41-.652,4.659,4.659,0,0,0-1.316-.426q-3.016-.633-3.016-2.562a2.323,2.323,0,0,1,.934-1.879,3.766,3.766,0,0,1,2.441-.754,4.053,4.053,0,0,1,2.574.758,2.388,2.388,0,0,1,.965,1.969H39.266a1.092,1.092,0,0,0-.312-.8A1.322,1.322,0,0,0,37.977-7a1.351,1.351,0,0,0-.883.258.814.814,0,0,0-.312.656.7.7,0,0,0,.355.605,3.657,3.657,0,0,0,1.2.4,9.8,9.8,0,0,1,1.422.379A2.336,2.336,0,0,1,41.547-2.43a2.2,2.2,0,0,1-.992,1.871,4.28,4.28,0,0,1-2.562.715,4.47,4.47,0,0,1-1.887-.379,3.166,3.166,0,0,1-1.293-1.039,2.414,2.414,0,0,1-.469-1.426h2.141a1.179,1.179,0,0,0,.445.922,1.766,1.766,0,0,0,1.109.32,1.635,1.635,0,0,0,.98-.246A.766.766,0,0,0,39.352-2.336Z" transform="translate(1073 1945.334)" fill="#fff"/>
    <g id="Grupo_150863" data-name="Grupo 150863" transform="translate(19 -110.536)">
      <g id="expandir" transform="translate(895 1990.324)">
        <g id="Grupo_150851" data-name="Grupo 150851" transform="translate(0.103 0.408)">
          <g id="Grupo_150850" data-name="Grupo 150850" transform="translate(14.289 14.395) rotate(180)">
            <path id="Trazado_205882" data-name="Trazado 205882" d="M14.829,11.361c-.015-.022-.013-.046-.032-.066L8.25,4.748l3.557.005a1.607,1.607,0,0,0,1.572-1.571v-1.2A1.579,1.579,0,0,0,11.8.408H2.515A1.592,1.592,0,0,0,1.382.894,1.58,1.58,0,0,0,.908,2.015V11.5a1.578,1.578,0,0,0,1.577,1.577h1.2A1.578,1.578,0,0,0,5.258,11.5l0-3.563,5.673,5.673.008.008.731.73a1.565,1.565,0,0,0,2.219-.014l.846-.846A1.575,1.575,0,0,0,14.829,11.361Z" transform="translate(-0.908 -0.408)" fill="#12263f"/>
          </g>
        </g>
        <g id="Grupo_150853" data-name="Grupo 150853" transform="translate(40.629 40.938) rotate(180)">
          <g id="Grupo_150852" data-name="Grupo 150852">
            <path id="Trazado_205883" data-name="Trazado 205883" d="M245.065,234.478a1.579,1.579,0,0,0-1.576-1.578h-1.2a1.612,1.612,0,0,0-1.574,1.574l.005,3.557-6.521-6.521a.493.493,0,0,0-.079-.046,1.589,1.589,0,0,0-2.14.083l-.847.847a1.6,1.6,0,0,0,.011,2.245l.73.73.008.008,5.648,5.648-3.562,0A1.615,1.615,0,0,0,232.4,242.6l0,1.2a1.579,1.579,0,0,0,1.577,1.577l9.484,0a1.571,1.571,0,0,0,1.117-.459l.043-.043a1.564,1.564,0,0,0,.448-1.107Z" transform="translate(-230.682 -231.089)" fill="#12263f"/>
          </g>
        </g>
        <g id="Grupo_150855" data-name="Grupo 150855" transform="translate(0 26.681)">
          <g id="Grupo_150854" data-name="Grupo 150854" transform="translate(14.363 14.263) rotate(180)">
            <path id="Trazado_205884" data-name="Trazado 205884" d="M13.912,232.681l-.847-.848a1.6,1.6,0,0,0-2.144-.074.65.65,0,0,0-.084.053l-6.493,6.493,0-3.559a1.574,1.574,0,0,0-1.573-1.573h-1.2A1.581,1.581,0,0,0,0,234.751v9.286a1.562,1.562,0,0,0,.486,1.134,1.55,1.55,0,0,0,1.122.474H11.09a1.577,1.577,0,0,0,1.577-1.576v-1.2a1.577,1.577,0,0,0-1.574-1.574l-3.56,0,5.621-5.62.007-.007.635-.635.1-.1A1.617,1.617,0,0,0,13.912,232.681Z" transform="translate(0 -231.382)" fill="#12263f"/>
          </g>
        </g>
        <g id="Grupo_150857" data-name="Grupo 150857" transform="matrix(-0.966, 0.259, -0.259, -0.966, 42.154, 12.712)">
          <g id="Grupo_150856" data-name="Grupo 150856" transform="translate(0 0)">
            <path id="Trazado_205885" data-name="Trazado 205885" d="M244.975,2.048A1.564,1.564,0,0,0,244.49.915,1.556,1.556,0,0,0,243.368.44h-9.286A1.58,1.58,0,0,0,232.5,2.017v1.2a1.577,1.577,0,0,0,1.574,1.575l3.559,0-6.529,6.529a.631.631,0,0,0-.051.081,1.592,1.592,0,0,0,.077,2.141l.848.848a1.609,1.609,0,0,0,2.255-.015l.73-.73.008-.008,5.657-5.656,0,3.56a1.575,1.575,0,0,0,1.573,1.573h1.2a1.579,1.579,0,0,0,1.577-1.577Z" transform="translate(-230.681 -0.44)" fill="#12263f"/>
          </g>
        </g>
        <g id="Grupo_150859" data-name="Grupo 150859" transform="translate(15.935 16.339)">
          <g id="Grupo_150858" data-name="Grupo 150858">
            <path id="Trazado_205886" data-name="Trazado 205886" d="M147.56,141.739a4.375,4.375,0,1,0,0,6.187A4.381,4.381,0,0,0,147.56,141.739Z" transform="translate(-140.093 -140.46)" fill="#12263f"/>
          </g>
        </g>
      </g>
      <path id="Trazado_206380" data-name="Trazado 206380" d="M-22.254,0H-24.6V-11.375h2.344Zm4.1-8.453.07.977a2.951,2.951,0,0,1,2.43-1.133,2.453,2.453,0,0,1,2,.789,3.682,3.682,0,0,1,.672,2.359V0h-2.258V-5.419a1.47,1.47,0,0,0-.312-1.045,1.4,1.4,0,0,0-1.039-.325,1.553,1.553,0,0,0-1.43.814V0h-2.258V-8.453Zm9.586-2.078v2.078h1.445V-6.8H-8.566v4.219a1.007,1.007,0,0,0,.18.672.9.9,0,0,0,.688.2,3.6,3.6,0,0,0,.664-.055V-.047A4.648,4.648,0,0,1-8.4.156a2.156,2.156,0,0,1-2.422-2.4V-6.8h-1.234V-8.453h1.234v-2.078ZM-1.973.156A4.15,4.15,0,0,1-5-.984,4.054,4.054,0,0,1-6.168-4.023v-.219A5.106,5.106,0,0,1-5.676-6.52,3.612,3.612,0,0,1-4.281-8.066a3.914,3.914,0,0,1,2.059-.543A3.508,3.508,0,0,1,.508-7.516a4.444,4.444,0,0,1,1,3.1v.922H-3.879a2.1,2.1,0,0,0,.66,1.328,2,2,0,0,0,1.395.5A2.437,2.437,0,0,0,.215-2.609L1.324-1.367A3.389,3.389,0,0,1-.051-.246,4.511,4.511,0,0,1-1.973.156ZM-2.23-6.789a1.411,1.411,0,0,0-1.09.455,2.357,2.357,0,0,0-.535,1.3H-.715v-.181a1.681,1.681,0,0,0-.406-1.165A1.456,1.456,0,0,0-2.23-6.789Zm9.766.453A6.134,6.134,0,0,0,6.723-6.4a1.654,1.654,0,0,0-1.68.867V0H2.785V-8.453H4.918L4.98-7.445A2.092,2.092,0,0,1,6.863-8.609a2.366,2.366,0,0,1,.7.1ZM10.7-8.453l.07.977A2.951,2.951,0,0,1,13.2-8.609a2.453,2.453,0,0,1,2,.789,3.682,3.682,0,0,1,.672,2.359V0H13.613V-5.419A1.47,1.47,0,0,0,13.3-6.464a1.4,1.4,0,0,0-1.039-.325,1.553,1.553,0,0,0-1.43.814V0H8.574V-8.453ZM17.23-4.3a5.013,5.013,0,0,1,.484-2.242A3.546,3.546,0,0,1,19.109-8.07a4.069,4.069,0,0,1,2.113-.539,3.849,3.849,0,0,1,2.793,1.047,4.2,4.2,0,0,1,1.207,2.844l.016.578A4.418,4.418,0,0,1,24.152-1.02,3.775,3.775,0,0,1,21.238.156,3.793,3.793,0,0,1,18.32-1.016,4.5,4.5,0,0,1,17.23-4.2Zm2.258.16A3.16,3.16,0,0,0,19.941-2.3a1.5,1.5,0,0,0,1.3.638,1.5,1.5,0,0,0,1.281-.63,3.457,3.457,0,0,0,.461-2.015A3.128,3.128,0,0,0,22.52-6.14a1.5,1.5,0,0,0-1.3-.649,1.474,1.474,0,0,0-1.281.646A3.516,3.516,0,0,0,19.488-4.144Z" transform="translate(915.314 2053.5)" fill="#12263f"/>
    </g>
    <g id="Grupo_150862" data-name="Grupo 150862" transform="translate(19 112.935)">
      <g id="expandir-2" data-name="expandir" transform="translate(895 1880.722)">
        <g id="Grupo_150851-2" data-name="Grupo 150851" transform="translate(0.103 0.408)">
          <g id="Grupo_150850-2" data-name="Grupo 150850">
            <path id="Trazado_205882-2" data-name="Trazado 205882" d="M14.829,11.361c-.015-.022-.013-.046-.032-.066L8.25,4.748l3.557.005a1.607,1.607,0,0,0,1.572-1.571v-1.2A1.579,1.579,0,0,0,11.8.408H2.515A1.592,1.592,0,0,0,1.382.894,1.58,1.58,0,0,0,.908,2.015V11.5a1.578,1.578,0,0,0,1.577,1.577h1.2A1.578,1.578,0,0,0,5.258,11.5l0-3.563,5.673,5.673.008.008.731.73a1.565,1.565,0,0,0,2.219-.014l.846-.846A1.575,1.575,0,0,0,14.829,11.361Z" transform="translate(-0.908 -0.408)" fill="#12263f"/>
          </g>
        </g>
        <g id="Grupo_150853-2" data-name="Grupo 150853" transform="translate(26.24 26.648)">
          <g id="Grupo_150852-2" data-name="Grupo 150852">
            <path id="Trazado_205883-2" data-name="Trazado 205883" d="M245.065,234.478a1.579,1.579,0,0,0-1.576-1.578h-1.2a1.612,1.612,0,0,0-1.574,1.574l.005,3.557-6.521-6.521a.493.493,0,0,0-.079-.046,1.589,1.589,0,0,0-2.14.083l-.847.847a1.6,1.6,0,0,0,.011,2.245l.73.73.008.008,5.648,5.648-3.562,0A1.615,1.615,0,0,0,232.4,242.6l0,1.2a1.579,1.579,0,0,0,1.577,1.577l9.484,0a1.571,1.571,0,0,0,1.117-.459l.043-.043a1.564,1.564,0,0,0,.448-1.107Z" transform="translate(-230.682 -231.089)" fill="#12263f"/>
          </g>
        </g>
        <g id="Grupo_150855-2" data-name="Grupo 150855" transform="translate(0 26.681)">
          <g id="Grupo_150854-2" data-name="Grupo 150854">
            <path id="Trazado_205884-2" data-name="Trazado 205884" d="M13.912,232.681l-.847-.848a1.6,1.6,0,0,0-2.144-.074.65.65,0,0,0-.084.053l-6.493,6.493,0-3.559a1.574,1.574,0,0,0-1.573-1.573h-1.2A1.581,1.581,0,0,0,0,234.751v9.286a1.562,1.562,0,0,0,.486,1.134,1.55,1.55,0,0,0,1.122.474H11.09a1.577,1.577,0,0,0,1.577-1.576v-1.2a1.577,1.577,0,0,0-1.574-1.574l-3.56,0,5.621-5.62.007-.007.635-.635.1-.1A1.617,1.617,0,0,0,13.912,232.681Z" transform="translate(0 -231.382)" fill="#12263f"/>
          </g>
        </g>
        <g id="Grupo_150857-2" data-name="Grupo 150857" transform="translate(26.24 0.412)">
          <g id="Grupo_150856-2" data-name="Grupo 150856" transform="translate(0 0)">
            <path id="Trazado_205885-2" data-name="Trazado 205885" d="M244.975,2.048A1.564,1.564,0,0,0,244.49.915,1.556,1.556,0,0,0,243.368.44h-9.286A1.58,1.58,0,0,0,232.5,2.017v1.2a1.577,1.577,0,0,0,1.574,1.575l3.559,0-6.529,6.529a.631.631,0,0,0-.051.081,1.592,1.592,0,0,0,.077,2.141l.848.848a1.609,1.609,0,0,0,2.255-.015l.73-.73.008-.008,5.657-5.656,0,3.56a1.575,1.575,0,0,0,1.573,1.573h1.2a1.579,1.579,0,0,0,1.577-1.577Z" transform="translate(-230.681 -0.44)" fill="#12263f"/>
          </g>
        </g>
        <g id="Grupo_150859-2" data-name="Grupo 150859" transform="translate(15.935 16.339)">
          <g id="Grupo_150858-2" data-name="Grupo 150858">
            <path id="Trazado_205886-2" data-name="Trazado 205886" d="M147.56,141.739a4.375,4.375,0,1,0,0,6.187A4.381,4.381,0,0,0,147.56,141.739Z" transform="translate(-140.093 -140.46)" fill="#12263f"/>
          </g>
        </g>
      </g>
      <path id="Trazado_206381" data-name="Trazado 206381" d="M-19.66-4.945h-4.5v3.063h5.281V0H-26.5V-11.375h7.609v1.9H-24.16v2.711h4.5Zm5.227-.984,1.422-2.523H-10.6L-13-4.312-10.5,0h-2.422l-1.508-2.656L-15.926,0h-2.43l2.508-4.312-2.4-4.141h2.422Zm7.625-4.6v2.078h1.445V-6.8H-6.809v4.219a1.007,1.007,0,0,0,.18.672.9.9,0,0,0,.688.2,3.6,3.6,0,0,0,.664-.055V-.047a4.648,4.648,0,0,1-1.367.2,2.156,2.156,0,0,1-2.422-2.4V-6.8H-10.3V-8.453h1.234v-2.078ZM-.215.156A4.15,4.15,0,0,1-3.242-.984,4.054,4.054,0,0,1-4.41-4.023v-.219A5.106,5.106,0,0,1-3.918-6.52,3.612,3.612,0,0,1-2.523-8.066,3.914,3.914,0,0,1-.465-8.609a3.508,3.508,0,0,1,2.73,1.094,4.444,4.444,0,0,1,1,3.1v.922H-2.121a2.1,2.1,0,0,0,.66,1.328,2,2,0,0,0,1.395.5,2.437,2.437,0,0,0,2.039-.945L3.082-1.367A3.389,3.389,0,0,1,1.707-.246,4.511,4.511,0,0,1-.215.156ZM-.473-6.789a1.411,1.411,0,0,0-1.09.455,2.357,2.357,0,0,0-.535,1.3H1.043v-.181A1.681,1.681,0,0,0,.637-6.377,1.456,1.456,0,0,0-.473-6.789Zm9.766.453A6.134,6.134,0,0,0,8.48-6.4a1.654,1.654,0,0,0-1.68.867V0H4.543V-8.453H6.676l.063,1.008A2.092,2.092,0,0,1,8.621-8.609a2.366,2.366,0,0,1,.7.1Zm3.164-2.117.07.977a2.951,2.951,0,0,1,2.43-1.133,2.453,2.453,0,0,1,2,.789,3.682,3.682,0,0,1,.672,2.359V0H15.371V-5.419a1.47,1.47,0,0,0-.312-1.045,1.4,1.4,0,0,0-1.039-.325,1.553,1.553,0,0,0-1.43.814V0H10.332V-8.453ZM18.988-4.3a5.013,5.013,0,0,1,.484-2.242A3.546,3.546,0,0,1,20.867-8.07a4.069,4.069,0,0,1,2.113-.539,3.849,3.849,0,0,1,2.793,1.047A4.2,4.2,0,0,1,26.98-4.719L27-4.141A4.418,4.418,0,0,1,25.91-1.02,3.775,3.775,0,0,1,23,.156a3.793,3.793,0,0,1-2.918-1.172A4.5,4.5,0,0,1,18.988-4.2Zm2.258.16A3.16,3.16,0,0,0,21.7-2.3a1.5,1.5,0,0,0,1.3.638,1.5,1.5,0,0,0,1.281-.63,3.457,3.457,0,0,0,.461-2.015,3.128,3.128,0,0,0-.461-1.831,1.5,1.5,0,0,0-1.3-.649,1.474,1.474,0,0,0-1.281.646A3.516,3.516,0,0,0,21.246-4.144Z" transform="translate(915.314 1941)" fill="#12263f"/>
    </g>
    <path id="Trazado_206379" data-name="Trazado 206379" d="M-30.25-2.344h-4.109L-35.141,0h-2.492L-33.4-11.375h2.172L-26.969,0h-2.492Zm-3.477-1.9h2.844L-32.312-8.5Zm9.414-4.211.07.945a2.971,2.971,0,0,1,2.43-1.1A2.255,2.255,0,0,1-19.57-7.32a2.9,2.9,0,0,1,2.539-1.289,2.521,2.521,0,0,1,2.047.8,3.681,3.681,0,0,1,.672,2.41V0h-2.266V-5.4a1.616,1.616,0,0,0-.281-1.053,1.245,1.245,0,0,0-.992-.333,1.409,1.409,0,0,0-1.406.971L-19.25,0h-2.258V-5.4A1.6,1.6,0,0,0-21.8-6.46a1.257,1.257,0,0,0-.984-.329,1.463,1.463,0,0,0-1.391.8V0H-26.43V-8.453ZM-8.687.156A4.15,4.15,0,0,1-11.715-.984a4.054,4.054,0,0,1-1.168-3.039v-.219a5.106,5.106,0,0,1,.492-2.277A3.612,3.612,0,0,1-11-8.066a3.914,3.914,0,0,1,2.059-.543,3.508,3.508,0,0,1,2.73,1.094,4.444,4.444,0,0,1,1,3.1v.922h-5.383a2.1,2.1,0,0,0,.66,1.328,2,2,0,0,0,1.395.5A2.437,2.437,0,0,0-6.5-2.609l1.109,1.242A3.389,3.389,0,0,1-6.766-.246,4.511,4.511,0,0,1-8.687.156Zm-.258-6.945a1.411,1.411,0,0,0-1.09.455,2.357,2.357,0,0,0-.535,1.3H-7.43v-.181a1.681,1.681,0,0,0-.406-1.165A1.456,1.456,0,0,0-8.945-6.789Zm7.094-1.664.07.977A2.951,2.951,0,0,1,.648-8.609a2.453,2.453,0,0,1,2,.789A3.682,3.682,0,0,1,3.32-5.461V0H1.063V-5.419A1.47,1.47,0,0,0,.75-6.464,1.4,1.4,0,0,0-.289-6.789a1.553,1.553,0,0,0-1.43.814V0H-3.977V-8.453ZM9.93,0A2.507,2.507,0,0,1,9.7-.758,2.732,2.732,0,0,1,7.57.156,3,3,0,0,1,5.512-.562,2.312,2.312,0,0,1,4.7-2.375a2.389,2.389,0,0,1,1-2.062A4.915,4.915,0,0,1,8.57-5.164H9.609v-.484a1.393,1.393,0,0,0-.3-.937,1.183,1.183,0,0,0-.949-.352,1.345,1.345,0,0,0-.895.273.929.929,0,0,0-.324.75H4.883a2.268,2.268,0,0,1,.453-1.359,3,3,0,0,1,1.281-.98,4.669,4.669,0,0,1,1.859-.355,3.689,3.689,0,0,1,2.48.785,2.747,2.747,0,0,1,.918,2.207v3.664a4.041,4.041,0,0,0,.336,1.82V0ZM8.063-1.57a1.945,1.945,0,0,0,.922-.223,1.462,1.462,0,0,0,.625-.6V-3.844H8.766q-1.7,0-1.8,1.172l-.008.133a.9.9,0,0,0,.3.7A1.153,1.153,0,0,0,8.063-1.57ZM16.2-1.82h4.133V0H13.32V-1.375L17.3-6.633H13.438v-1.82h6.773v1.33ZM26.648,0a2.507,2.507,0,0,1-.227-.758,2.732,2.732,0,0,1-2.133.914A3,3,0,0,1,22.23-.562a2.312,2.312,0,0,1-.816-1.812,2.389,2.389,0,0,1,1-2.062,4.915,4.915,0,0,1,2.879-.727h1.039v-.484a1.393,1.393,0,0,0-.3-.937,1.183,1.183,0,0,0-.949-.352,1.345,1.345,0,0,0-.895.273.929.929,0,0,0-.324.75H21.6a2.268,2.268,0,0,1,.453-1.359,3,3,0,0,1,1.281-.98A4.669,4.669,0,0,1,25.2-8.609a3.689,3.689,0,0,1,2.48.785,2.747,2.747,0,0,1,.918,2.207v3.664a4.041,4.041,0,0,0,.336,1.82V0ZM24.781-1.57a1.945,1.945,0,0,0,.922-.223,1.462,1.462,0,0,0,.625-.6V-3.844h-.844q-1.7,0-1.8,1.172l-.008.133a.9.9,0,0,0,.3.7A1.153,1.153,0,0,0,24.781-1.57Zm10.125-.766a.727.727,0,0,0-.41-.652,4.659,4.659,0,0,0-1.316-.426q-3.016-.633-3.016-2.562A2.323,2.323,0,0,1,31.1-7.855a3.766,3.766,0,0,1,2.441-.754,4.053,4.053,0,0,1,2.574.758,2.388,2.388,0,0,1,.965,1.969H34.82a1.092,1.092,0,0,0-.312-.8A1.322,1.322,0,0,0,33.531-7a1.351,1.351,0,0,0-.883.258.814.814,0,0,0-.312.656.7.7,0,0,0,.355.605,3.657,3.657,0,0,0,1.2.4,9.8,9.8,0,0,1,1.422.379A2.336,2.336,0,0,1,37.1-2.43a2.2,2.2,0,0,1-.992,1.871,4.28,4.28,0,0,1-2.562.715A4.47,4.47,0,0,1,31.66-.223a3.166,3.166,0,0,1-1.293-1.039A2.414,2.414,0,0,1,29.9-2.687h2.141a1.179,1.179,0,0,0,.445.922,1.766,1.766,0,0,0,1.109.32,1.635,1.635,0,0,0,.98-.246A.766.766,0,0,0,34.906-2.336Z" transform="translate(1073 2058.334)" fill="#fff"/>
    <path id="Trazado_206377" data-name="Trazado 206377" d="M-29.988-4.648h-4.5V0h-2.344V-11.375h7.406v1.9h-5.062v2.938h4.5Zm1.258.344a5.013,5.013,0,0,1,.484-2.242A3.546,3.546,0,0,1-26.852-8.07a4.069,4.069,0,0,1,2.113-.539,3.849,3.849,0,0,1,2.793,1.047,4.2,4.2,0,0,1,1.207,2.844l.016.578A4.418,4.418,0,0,1-21.809-1.02,3.775,3.775,0,0,1-24.723.156a3.793,3.793,0,0,1-2.918-1.172A4.5,4.5,0,0,1-28.73-4.2Zm2.258.16A3.16,3.16,0,0,0-26.02-2.3a1.5,1.5,0,0,0,1.3.638,1.5,1.5,0,0,0,1.281-.63,3.457,3.457,0,0,0,.461-2.015,3.128,3.128,0,0,0-.461-1.831,1.5,1.5,0,0,0-1.3-.649,1.474,1.474,0,0,0-1.281.646A3.516,3.516,0,0,0-26.473-4.144Zm11.891-2.192a6.134,6.134,0,0,0-.812-.062,1.654,1.654,0,0,0-1.68.867V0h-2.258V-8.453H-17.2l.063,1.008a2.092,2.092,0,0,1,1.883-1.164,2.366,2.366,0,0,1,.7.1Zm4.18-4.2v2.078h1.445V-6.8H-10.4v4.219a1.007,1.007,0,0,0,.18.672.9.9,0,0,0,.688.2,3.6,3.6,0,0,0,.664-.055V-.047a4.648,4.648,0,0,1-1.367.2,2.156,2.156,0,0,1-2.422-2.4V-6.8h-1.234V-8.453h1.234v-2.078ZM-2.8,0a2.507,2.507,0,0,1-.227-.758A2.732,2.732,0,0,1-5.16.156,3,3,0,0,1-7.219-.562a2.312,2.312,0,0,1-.816-1.812,2.389,2.389,0,0,1,1-2.062A4.915,4.915,0,0,1-4.16-5.164h1.039v-.484a1.393,1.393,0,0,0-.3-.937,1.183,1.183,0,0,0-.949-.352,1.345,1.345,0,0,0-.895.273.929.929,0,0,0-.324.75H-7.848a2.268,2.268,0,0,1,.453-1.359,3,3,0,0,1,1.281-.98,4.669,4.669,0,0,1,1.859-.355,3.689,3.689,0,0,1,2.48.785A2.747,2.747,0,0,1-.855-5.617v3.664A4.041,4.041,0,0,0-.52-.133V0ZM-4.668-1.57a1.945,1.945,0,0,0,.922-.223,1.462,1.462,0,0,0,.625-.6V-3.844h-.844q-1.7,0-1.8,1.172l-.008.133a.9.9,0,0,0,.3.7A1.153,1.153,0,0,0-4.668-1.57ZM3.262,0H1V-12H3.262Zm5.75.156A4.15,4.15,0,0,1,5.984-.984,4.054,4.054,0,0,1,4.816-4.023v-.219A5.106,5.106,0,0,1,5.309-6.52,3.612,3.612,0,0,1,6.7-8.066a3.914,3.914,0,0,1,2.059-.543,3.508,3.508,0,0,1,2.73,1.094,4.444,4.444,0,0,1,1,3.1v.922H7.105a2.1,2.1,0,0,0,.66,1.328,2,2,0,0,0,1.395.5A2.437,2.437,0,0,0,11.2-2.609l1.109,1.242A3.389,3.389,0,0,1,10.934-.246,4.511,4.511,0,0,1,9.012.156ZM8.754-6.789a1.411,1.411,0,0,0-1.09.455,2.357,2.357,0,0,0-.535,1.3H10.27v-.181a1.681,1.681,0,0,0-.406-1.165A1.456,1.456,0,0,0,8.754-6.789ZM16.363-1.82H20.5V0H13.48V-1.375l3.977-5.258H13.6v-1.82h6.773v1.33ZM26.809,0a2.507,2.507,0,0,1-.227-.758,2.732,2.732,0,0,1-2.133.914,3,3,0,0,1-2.059-.719,2.312,2.312,0,0,1-.816-1.812,2.389,2.389,0,0,1,1-2.062,4.915,4.915,0,0,1,2.879-.727h1.039v-.484a1.393,1.393,0,0,0-.3-.937,1.183,1.183,0,0,0-.949-.352,1.345,1.345,0,0,0-.895.273.929.929,0,0,0-.324.75H21.762a2.268,2.268,0,0,1,.453-1.359,3,3,0,0,1,1.281-.98,4.669,4.669,0,0,1,1.859-.355,3.689,3.689,0,0,1,2.48.785,2.747,2.747,0,0,1,.918,2.207v3.664a4.041,4.041,0,0,0,.336,1.82V0ZM24.941-1.57a1.945,1.945,0,0,0,.922-.223,1.462,1.462,0,0,0,.625-.6V-3.844h-.844q-1.7,0-1.8,1.172l-.008.133a.9.9,0,0,0,.3.7A1.153,1.153,0,0,0,24.941-1.57Zm10.125-.766a.727.727,0,0,0-.41-.652,4.659,4.659,0,0,0-1.316-.426q-3.016-.633-3.016-2.562a2.323,2.323,0,0,1,.934-1.879A3.766,3.766,0,0,1,33.7-8.609a4.053,4.053,0,0,1,2.574.758,2.388,2.388,0,0,1,.965,1.969H34.98a1.092,1.092,0,0,0-.312-.8A1.322,1.322,0,0,0,33.691-7a1.351,1.351,0,0,0-.883.258.814.814,0,0,0-.312.656.7.7,0,0,0,.355.605,3.657,3.657,0,0,0,1.2.4,9.8,9.8,0,0,1,1.422.379A2.336,2.336,0,0,1,37.262-2.43,2.2,2.2,0,0,1,36.27-.559a4.28,4.28,0,0,1-2.562.715A4.47,4.47,0,0,1,31.82-.223a3.166,3.166,0,0,1-1.293-1.039,2.414,2.414,0,0,1-.469-1.426H32.2a1.179,1.179,0,0,0,.445.922,1.766,1.766,0,0,0,1.109.32,1.635,1.635,0,0,0,.98-.246A.766.766,0,0,0,35.066-2.336Z" transform="translate(1273 1945.334)" fill="#fff"/>
    <path id="Trazado_206378" data-name="Trazado 206378" d="M-42.828-5.43a6.867,6.867,0,0,1-.594,2.945,4.472,4.472,0,0,1-1.7,1.953,4.7,4.7,0,0,1-2.535.688,4.732,4.732,0,0,1-2.523-.68A4.515,4.515,0,0,1-51.9-2.465a6.67,6.67,0,0,1-.617-2.9V-5.93a6.831,6.831,0,0,1,.605-2.957A4.508,4.508,0,0,1-50.2-10.848a4.706,4.706,0,0,1,2.527-.684,4.706,4.706,0,0,1,2.527.684,4.508,4.508,0,0,1,1.711,1.961,6.811,6.811,0,0,1,.605,2.949ZM-45.2-5.945a4.787,4.787,0,0,0-.641-2.719,2.088,2.088,0,0,0-1.828-.93,2.088,2.088,0,0,0-1.82.918,4.732,4.732,0,0,0-.648,2.691v.555a4.847,4.847,0,0,0,.641,2.7,2.082,2.082,0,0,0,1.844.961,2.064,2.064,0,0,0,1.813-.926,4.819,4.819,0,0,0,.641-2.7Zm11.539,1.8a5.07,5.07,0,0,1-.887,3.129A2.843,2.843,0,0,1-36.945.156a2.633,2.633,0,0,1-2.07-.891V3.25h-2.258v-11.7h2.094l.078.828a2.654,2.654,0,0,1,2.141-.984,2.862,2.862,0,0,1,2.43,1.156,5.207,5.207,0,0,1,.867,3.188Zm-2.258-.172a3.345,3.345,0,0,0-.418-1.826,1.36,1.36,0,0,0-1.215-.643,1.478,1.478,0,0,0-1.461.815V-2.5a1.5,1.5,0,0,0,1.477.839Q-35.922-1.664-35.922-4.321Zm3.3.016a5.013,5.013,0,0,1,.484-2.242A3.546,3.546,0,0,1-30.738-8.07a4.069,4.069,0,0,1,2.113-.539,3.849,3.849,0,0,1,2.793,1.047,4.2,4.2,0,0,1,1.207,2.844l.016.578A4.418,4.418,0,0,1-25.7-1.02,3.775,3.775,0,0,1-28.609.156a3.793,3.793,0,0,1-2.918-1.172A4.5,4.5,0,0,1-32.617-4.2Zm2.258.16A3.16,3.16,0,0,0-29.906-2.3a1.5,1.5,0,0,0,1.3.638,1.5,1.5,0,0,0,1.281-.63,3.457,3.457,0,0,0,.461-2.015,3.128,3.128,0,0,0-.461-1.831,1.5,1.5,0,0,0-1.3-.649,1.474,1.474,0,0,0-1.281.646A3.516,3.516,0,0,0-30.359-4.144Zm11.891-2.192a6.134,6.134,0,0,0-.812-.062,1.654,1.654,0,0,0-1.68.867V0h-2.258V-8.453h2.133l.063,1.008a2.092,2.092,0,0,1,1.883-1.164,2.366,2.366,0,0,1,.7.1Zm4.18-4.2v2.078h1.445V-6.8h-1.445v4.219a1.007,1.007,0,0,0,.18.672.9.9,0,0,0,.688.2,3.6,3.6,0,0,0,.664-.055V-.047a4.648,4.648,0,0,1-1.367.2,2.156,2.156,0,0,1-2.422-2.4V-6.8h-1.234V-8.453h1.234v-2.078ZM-6.523-.859A2.831,2.831,0,0,1-8.836.156,2.67,2.67,0,0,1-10.91-.625a3.335,3.335,0,0,1-.73-2.289V-8.453h2.258v5.467q0,1.322,1.2,1.322a1.63,1.63,0,0,0,1.578-.8V-8.453h2.266V0H-6.461ZM-.555-8.453l.07.977a2.951,2.951,0,0,1,2.43-1.133,2.453,2.453,0,0,1,2,.789,3.682,3.682,0,0,1,.672,2.359V0H2.359V-5.419a1.47,1.47,0,0,0-.312-1.045,1.4,1.4,0,0,0-1.039-.325,1.553,1.553,0,0,0-1.43.814V0H-2.68V-8.453ZM8.711,0H6.445V-8.453H8.711Zm-2.4-10.641a1.112,1.112,0,0,1,.34-.836,1.277,1.277,0,0,1,.926-.328,1.28,1.28,0,0,1,.922.328,1.105,1.105,0,0,1,.344.836A1.108,1.108,0,0,1,8.5-9.8a1.283,1.283,0,0,1-.918.328A1.283,1.283,0,0,1,6.66-9.8,1.108,1.108,0,0,1,6.313-10.641Zm3.906,6.352a5.094,5.094,0,0,1,.887-3.148,2.877,2.877,0,0,1,2.426-1.172,2.589,2.589,0,0,1,2.039.922V-12h2.266V0H15.8l-.109-.9A2.657,2.657,0,0,1,13.516.156,2.869,2.869,0,0,1,11.121-1.02,5.258,5.258,0,0,1,10.219-4.289Zm2.258.161A3.355,3.355,0,0,0,12.891-2.3a1.348,1.348,0,0,0,1.2.636,1.51,1.51,0,0,0,1.477-.887V-5.9a1.489,1.489,0,0,0-1.461-.887Q12.477-6.789,12.477-4.128ZM24.484,0a2.507,2.507,0,0,1-.227-.758,2.732,2.732,0,0,1-2.133.914,3,3,0,0,1-2.059-.719,2.312,2.312,0,0,1-.816-1.812,2.389,2.389,0,0,1,1-2.062,4.915,4.915,0,0,1,2.879-.727h1.039v-.484a1.393,1.393,0,0,0-.3-.937,1.183,1.183,0,0,0-.949-.352,1.345,1.345,0,0,0-.895.273.929.929,0,0,0-.324.75H19.438a2.268,2.268,0,0,1,.453-1.359,3,3,0,0,1,1.281-.98,4.669,4.669,0,0,1,1.859-.355,3.689,3.689,0,0,1,2.48.785,2.747,2.747,0,0,1,.918,2.207v3.664a4.041,4.041,0,0,0,.336,1.82V0ZM22.617-1.57a1.945,1.945,0,0,0,.922-.223,1.462,1.462,0,0,0,.625-.6V-3.844H23.32q-1.7,0-1.8,1.172l-.008.133a.9.9,0,0,0,.3.7A1.153,1.153,0,0,0,22.617-1.57Zm5.2-2.719A5.094,5.094,0,0,1,28.7-7.437a2.877,2.877,0,0,1,2.426-1.172,2.589,2.589,0,0,1,2.039.922V-12H35.43V0H33.391l-.109-.9A2.657,2.657,0,0,1,31.109.156,2.869,2.869,0,0,1,28.715-1.02,5.258,5.258,0,0,1,27.813-4.289Zm2.258.161A3.355,3.355,0,0,0,30.484-2.3a1.348,1.348,0,0,0,1.2.636,1.51,1.51,0,0,0,1.477-.887V-5.9A1.489,1.489,0,0,0,31.7-6.789Q30.07-6.789,30.07-4.128Zm11,4.285A4.15,4.15,0,0,1,38.043-.984a4.054,4.054,0,0,1-1.168-3.039v-.219a5.106,5.106,0,0,1,.492-2.277,3.612,3.612,0,0,1,1.395-1.547,3.914,3.914,0,0,1,2.059-.543,3.508,3.508,0,0,1,2.73,1.094,4.444,4.444,0,0,1,1,3.1v.922H39.164a2.1,2.1,0,0,0,.66,1.328,2,2,0,0,0,1.395.5,2.437,2.437,0,0,0,2.039-.945l1.109,1.242A3.389,3.389,0,0,1,42.992-.246,4.511,4.511,0,0,1,41.07.156Zm-.258-6.945a1.411,1.411,0,0,0-1.09.455,2.357,2.357,0,0,0-.535,1.3h3.141v-.181a1.681,1.681,0,0,0-.406-1.165A1.456,1.456,0,0,0,40.813-6.789Zm9.594,4.453A.727.727,0,0,0,50-2.988a4.659,4.659,0,0,0-1.316-.426q-3.016-.633-3.016-2.562A2.323,2.323,0,0,1,46.6-7.855a3.766,3.766,0,0,1,2.441-.754,4.053,4.053,0,0,1,2.574.758,2.388,2.388,0,0,1,.965,1.969H50.32a1.092,1.092,0,0,0-.312-.8A1.322,1.322,0,0,0,49.031-7a1.351,1.351,0,0,0-.883.258.814.814,0,0,0-.312.656.7.7,0,0,0,.355.605,3.657,3.657,0,0,0,1.2.4,9.8,9.8,0,0,1,1.422.379A2.336,2.336,0,0,1,52.6-2.43a2.2,2.2,0,0,1-.992,1.871,4.28,4.28,0,0,1-2.562.715A4.47,4.47,0,0,1,47.16-.223a3.166,3.166,0,0,1-1.293-1.039A2.414,2.414,0,0,1,45.4-2.687h2.141a1.179,1.179,0,0,0,.445.922,1.766,1.766,0,0,0,1.109.32,1.635,1.635,0,0,0,.98-.246A.766.766,0,0,0,50.406-2.336Z" transform="translate(1273 2063)" fill="#fff"/>
  </g>
</svg>
