<svg xmlns="http://www.w3.org/2000/svg" width="120" height="120" viewBox="0 0 120 120">
  <g id="Grupo_150462" data-name="Grupo 150462" transform="translate(-1160 -751)">
    <g id="Elipse_5613" data-name="Elipse 5613" transform="translate(1160 751)" fill="#fff" stroke="#77b43a" stroke-width="4">
      <circle cx="60" cy="60" r="60" stroke="none"/>
      <circle cx="60" cy="60" r="58" fill="none"/>
    </g>
    <g id="Layer_x0020_1" transform="translate(845.935 772.915)">
      <g id="Grupo_150460" data-name="Grupo 150460" transform="translate(343)">
        <path id="Trazado_204335" data-name="Trazado 204335" d="M369.169,23.48a4.78,4.78,0,1,1,4.78-4.78A4.782,4.782,0,0,1,369.169,23.48Zm12.426,40.914H344.019a1,1,0,0,1-1.019-1V1.019A1.02,1.02,0,0,1,344.019,0h50.317a1.02,1.02,0,0,1,1.019,1.019V50.633a12.788,12.788,0,1,1-13.761,13.761Zm12.777-11.758A10.756,10.756,0,1,0,405.11,63.393,10.79,10.79,0,0,0,394.372,52.637Zm-49.35,9.737h36.573a12.935,12.935,0,0,1,11.74-11.74V2.039H345.021Zm35.2-26.644H358.132a1.011,1.011,0,0,1,0-2.021h22.092A1.011,1.011,0,0,1,380.224,35.73Zm7.645,5.413H350.487a1.02,1.02,0,0,1,0-2.039h37.382A1.02,1.02,0,0,1,387.869,41.143Zm0,5.4H350.487a1.011,1.011,0,0,1,0-2.021h37.382A1.011,1.011,0,0,1,387.869,46.538Zm-4.482,5.4h-32.9a1.011,1.011,0,0,1,0-2.021h32.9A1.011,1.011,0,0,1,383.387,51.934Zm-5.993,5.413H350.487a1.02,1.02,0,0,1,0-2.039h26.907A1.02,1.02,0,0,1,377.394,57.347ZM394.336,71.3a.99.99,0,0,1-1-1V64.395H387.43a1.011,1.011,0,0,1,0-2.021h5.905V56.486a1.011,1.011,0,0,1,2.021,0v5.888h5.888a1.011,1.011,0,0,1,0,2.021h-5.888V70.3A1,1,0,0,1,394.336,71.3ZM371.067,30.334h-3.779a1.026,1.026,0,0,1-1.019-.9l-.334-2.865a8.727,8.727,0,0,1-1.951-1.142c-4.13,1.793-3.128,2.127-5.835-2.548a1.038,1.038,0,0,1,.281-1.336l2.32-1.722a8.044,8.044,0,0,1,0-2.25c-3.62-2.689-3.41-1.652-.7-6.327a1,1,0,0,1,1.283-.422l2.654,1.142a8.038,8.038,0,0,1,1.951-1.125c.527-4.464-.281-3.779,5.132-3.779a1.026,1.026,0,0,1,1.019.9l.334,2.882a8.036,8.036,0,0,1,1.951,1.125c4.13-1.793,3.128-2.127,5.817,2.566a1.014,1.014,0,0,1-.264,1.318l-2.32,1.722a8.044,8.044,0,0,1,0,2.25c3.6,2.689,3.41,1.652.7,6.327a1,1,0,0,1-1.283.422l-2.654-1.142a8.725,8.725,0,0,1-1.951,1.142l-.352,2.865A1,1,0,0,1,371.067,30.334Zm-2.882-2.021h1.986l.3-2.6c.123-1.054,1.547-.861,3.04-2.2a1,1,0,0,1,1.09-.193l2.39,1.037,1-1.722c-3.339-2.478-2.337-1.353-2.337-3.937s-1-1.459,2.337-3.937l-1-1.722-2.39,1.037c-.984.422-1.511-.914-3.427-1.547a.981.981,0,0,1-.7-.844l-.3-2.584h-1.986l-.3,2.584c-.123,1.054-1.547.844-3.058,2.214a1,1,0,0,1-1.072.176l-2.408-1.037-.984,1.722c3.339,2.478,2.337,1.353,2.337,3.937s1,1.459-2.337,3.937l.984,1.722,2.408-1.037c.984-.422,1.511.931,3.427,1.547a1,1,0,0,1,.7.844Zm.984-12.355c-3.6,0-3.6,5.483,0,5.483C372.79,21.441,372.79,15.958,369.169,15.958Z" transform="translate(-343)" fill-rule="evenodd"/>
      </g>
      <path id="Trazado_204336" data-name="Trazado 204336" d="M1680.952,908c-3.6,0-3.6,5.483,0,5.483C1684.573,913.483,1684.573,908,1680.952,908Z" transform="translate(-1311.783 -892.042)" fill="#ffe4af" fill-rule="evenodd"/>
      <path id="Trazado_204337" data-name="Trazado 204337" d="M1339.805,532.376a4.78,4.78,0,1,1,4.78-4.78A4.782,4.782,0,0,1,1339.805,532.376Zm-5.413-.158c.984-.422,1.511.932,3.427,1.547a1,1,0,0,1,.7.844l.3,2.6h1.986l.3-2.6c.123-1.054,1.547-.861,3.041-2.2a1,1,0,0,1,1.089-.193l2.39,1.037,1-1.722c-3.339-2.478-2.338-1.353-2.338-3.937s-1-1.459,2.338-3.937l-1-1.722-2.39,1.037c-.984.422-1.511-.914-3.427-1.547a.981.981,0,0,1-.7-.844l-.3-2.583h-1.986l-.3,2.583c-.123,1.054-1.547.844-3.058,2.214a.994.994,0,0,1-1.072.176l-2.408-1.037-.984,1.722c3.339,2.478,2.338,1.353,2.338,3.937s1,1.459-2.338,3.937l.984,1.722Z" transform="translate(-970.636 -508.896)" fill="#3d46c2" fill-rule="evenodd"/>
      <path id="Trazado_204338" data-name="Trazado 204338" d="M2662.791,2995a10.756,10.756,0,1,0,10.739,10.756A10.789,10.789,0,0,0,2662.791,2995Zm-6.942,9.736h5.905v-5.887a1.011,1.011,0,0,1,2.021,0v5.887h5.888a1.011,1.011,0,0,1,0,2.021h-5.888v5.906a1,1,0,0,1-1.02,1,.991.991,0,0,1-1-1v-5.906h-5.905A1.011,1.011,0,0,1,2655.849,3004.736Z" transform="translate(-2268.42 -2942.363)" fill="#f85316" fill-rule="evenodd"/>
      <path id="Trazado_204339" data-name="Trazado 204339" d="M494.573,176.335a12.935,12.935,0,0,1,11.74-11.74V116H458v60.335Zm1.793-10.44h-32.9a1.011,1.011,0,0,1,0-2.021h32.9A1.011,1.011,0,0,1,496.366,165.9Zm4.482-5.4H463.466a1.011,1.011,0,0,1,0-2.021h37.382A1.011,1.011,0,0,1,500.848,160.5Zm0-5.4H463.466a1.02,1.02,0,0,1,0-2.039h37.382A1.02,1.02,0,0,1,500.848,155.1Zm-7.645-5.413H471.111a1.011,1.011,0,0,1,0-2.021H493.2A1.011,1.011,0,0,1,493.2,149.691Zm-9.157-5.4h-3.779a1.026,1.026,0,0,1-1.019-.9l-.334-2.865a8.726,8.726,0,0,1-1.951-1.142c-4.13,1.793-3.128,2.127-5.835-2.548a1.038,1.038,0,0,1,.281-1.336l2.32-1.722a8.039,8.039,0,0,1,0-2.25c-3.62-2.689-3.41-1.652-.7-6.327a1,1,0,0,1,1.283-.422l2.654,1.142a8.036,8.036,0,0,1,1.951-1.125c.527-4.464-.281-3.779,5.132-3.779a1.026,1.026,0,0,1,1.019.9l.334,2.882a8.037,8.037,0,0,1,1.951,1.125c4.13-1.793,3.128-2.127,5.817,2.566a1.014,1.014,0,0,1-.264,1.318l-2.32,1.722a8.037,8.037,0,0,1,0,2.25c3.6,2.689,3.409,1.652.7,6.327a1,1,0,0,1-1.283.422l-2.654-1.142a8.727,8.727,0,0,1-1.951,1.142l-.351,2.865A1,1,0,0,1,484.046,144.3Zm6.327,24.974a1.02,1.02,0,0,1,0,2.039H463.466a1.02,1.02,0,0,1,0-2.039Z" transform="translate(-112.979 -113.961)" fill="#eaef9e" fill-rule="evenodd"/>
    </g>
  </g>
</svg>
