<svg xmlns="http://www.w3.org/2000/svg" width="96.874" height="96.874" viewBox="0 0 96.874 96.874">
  <g id="cadena" transform="translate(-2 -2)">
    <path id="Trazado_204059" data-name="Trazado 204059" d="M62.375,41v8.073H52.687v8.073H43V73.291H72.062V41Z" transform="translate(25.197 23.968)" fill="#6870d6"/>
    <circle id="Elipse_5686" data-name="Elipse 5686" cx="14.5" cy="14.5" r="14.5" transform="translate(4 68)" fill="#dce736"/>
    <path id="Trazado_204061" data-name="Trazado 204061" d="M17.531,15.916V11.073L9.458,15.916V3H3V28.833H27.218V11.073Z" transform="translate(0.615 0.615)" fill="#c1c5ff"/>
    <path id="Trazado_204062" data-name="Trazado 204062" d="M50.289,42.515a1.656,1.656,0,0,1,1.542-1.14h2.461V34.916H51.831a1.656,1.656,0,0,1-1.542-1.14q-.208-.579-.467-1.129a1.657,1.657,0,0,1,.286-1.9l1.739-1.739-4.566-4.566-1.739,1.739a1.659,1.659,0,0,1-1.9.286c-.367-.173-.744-.329-1.129-.467a1.659,1.659,0,0,1-1.141-1.544V22H34.916v2.461A1.656,1.656,0,0,1,33.777,26q-.579.208-1.129.467a1.657,1.657,0,0,1-1.9-.286l-1.739-1.739L24.446,29.01l1.739,1.739a1.659,1.659,0,0,1,.286,1.9c-.173.367-.329.744-.467,1.129a1.659,1.659,0,0,1-1.544,1.141H22v6.458h2.461A1.656,1.656,0,0,1,26,42.515q.208.579.467,1.129a1.657,1.657,0,0,1-.286,1.9l-1.739,1.739,4.566,4.566,1.739-1.739a1.659,1.659,0,0,1,1.9-.286c.367.173.744.329,1.129.467a1.659,1.659,0,0,1,1.141,1.544v2.461h6.458V51.831a1.656,1.656,0,0,1,1.14-1.542q.579-.208,1.129-.467a1.657,1.657,0,0,1,1.9.286l1.739,1.739,4.566-4.566-1.739-1.739a1.659,1.659,0,0,1-.286-1.9c.174-.37.329-.746.468-1.13ZM38.146,44.6A6.458,6.458,0,1,1,44.6,38.146,6.459,6.459,0,0,1,38.146,44.6Z" transform="translate(12.291 12.291)" fill="#f85316"/>
    <circle id="Elipse_5687" data-name="Elipse 5687" cx="3" cy="3" r="3" transform="translate(73 17)" fill="#ccd6d9"/>
    <circle id="Elipse_5688" data-name="Elipse 5688" cx="3" cy="3" r="3" transform="translate(88 17)" fill="#ccd6d9"/>
    <path id="Trazado_204063" data-name="Trazado 204063" d="M60.458,5H54V16.3H65.3V11.458Z" transform="translate(31.957 1.844)" fill="#f3f9ff"/>
    <path id="Trazado_204064" data-name="Trazado 204064" d="M43,3H60.76V17.531H43Z" transform="translate(25.197 0.615)" fill="#75b62f"/>
    <path id="Trazado_204065" data-name="Trazado 204065" d="M35.073,27a8.073,8.073,0,1,0,8.073,8.073A8.082,8.082,0,0,0,35.073,27Zm0,12.916a4.844,4.844,0,1,1,4.844-4.844A4.85,4.85,0,0,1,35.073,39.916Z" transform="translate(15.364 15.364)"/>
    <path id="Trazado_204066" data-name="Trazado 204066" d="M54.906,43.6a1.614,1.614,0,0,0,1.615-1.615V35.531a1.614,1.614,0,0,0-1.615-1.615l-2.482-.066a14.427,14.427,0,0,0-.562-1.343L53.6,30.768a1.613,1.613,0,0,0,0-2.283l-4.566-4.568a1.614,1.614,0,0,0-2.283,0l-1.807,1.7a14.421,14.421,0,0,0-1.342-.547V22.615A1.614,1.614,0,0,0,41.989,21H35.531a1.614,1.614,0,0,0-1.615,1.615L33.847,25.1a13.926,13.926,0,0,0-1.34.56l-1.739-1.739a1.662,1.662,0,0,0-2.283,0l-4.566,4.568a1.613,1.613,0,0,0,0,2.283l1.707,1.805a14.192,14.192,0,0,0-.549,1.343H22.615A1.614,1.614,0,0,0,21,35.533v6.458a1.614,1.614,0,0,0,1.615,1.615l2.482.066a14.424,14.424,0,0,0,.562,1.343l-1.739,1.739a1.613,1.613,0,0,0,0,2.283L28.485,53.6a1.614,1.614,0,0,0,2.283,0l1.807-1.7a14.421,14.421,0,0,0,1.342.547v2.459a1.614,1.614,0,0,0,1.615,1.615h6.458A1.614,1.614,0,0,0,43.6,54.906l.069-2.483a13.928,13.928,0,0,0,1.34-.56L46.752,53.6a1.662,1.662,0,0,0,2.283,0L53.6,49.034a1.613,1.613,0,0,0,0-2.283l-1.707-1.805a14.192,14.192,0,0,0,.549-1.343h2.462ZM49.579,47.3l.6.6-2.283,2.285-.6-.6a3.287,3.287,0,0,0-3.726-.605,10.41,10.41,0,0,1-.988.408,3.29,3.29,0,0,0-2.207,3.061v.846H37.146v-.846a3.288,3.288,0,0,0-2.207-3.061c-.337-.121-.668-.258-.986-.408a3.291,3.291,0,0,0-3.728.6l-.6.6-2.283-2.285.6-.6a3.252,3.252,0,0,0,.6-3.728,10.035,10.035,0,0,1-.407-.986,3.251,3.251,0,0,0-3.063-2.205h-.846V37.146h.846a3.249,3.249,0,0,0,3.063-2.212,10.03,10.03,0,0,1,.407-.985,3.251,3.251,0,0,0-.605-3.725l-.6-.6,2.283-2.285.6.6a3.294,3.294,0,0,0,3.726.605,10.411,10.411,0,0,1,.988-.408,3.289,3.289,0,0,0,2.209-3.061v-.846h3.229v.846a3.288,3.288,0,0,0,2.207,3.061c.337.121.668.258.986.408a3.284,3.284,0,0,0,3.728-.6l.6-.6,2.283,2.285-.6.6a3.252,3.252,0,0,0-.6,3.728,10.033,10.033,0,0,1,.407.986,3.251,3.251,0,0,0,3.063,2.205h.846v3.229h-.846a3.249,3.249,0,0,0-3.063,2.212,10.033,10.033,0,0,1-.407.985,3.25,3.25,0,0,0,.6,3.725Z" transform="translate(11.677 11.677)"/>
    <path id="Trazado_204067" data-name="Trazado 204067" d="M69.125,5.875a1.616,1.616,0,0,0-1.292-.646H62.989V3.615A1.614,1.614,0,0,0,61.375,2H43.615A1.614,1.614,0,0,0,42,3.615V18.146a1.614,1.614,0,0,0,1.615,1.615h3.229a4.844,4.844,0,1,0,9.687,0h4.844a4.844,4.844,0,1,0,9.687,0h1.615a1.614,1.614,0,0,0,1.615-1.615V13.3a1.614,1.614,0,0,0-.323-.969Zm-17.437,15.5A1.615,1.615,0,1,1,53.3,19.76,1.616,1.616,0,0,1,51.687,21.375Zm8.073-4.844H55.272a4.786,4.786,0,0,0-7.169,0H45.229V5.229H59.76Zm6.458,4.844a1.615,1.615,0,1,1,1.615-1.615A1.616,1.616,0,0,1,66.218,21.375Zm4.844-4.844H69.8a4.778,4.778,0,0,0-6.813-.355V8.458h4.036l4.036,5.381Z" transform="translate(24.582)"/>
    <path id="Trazado_204068" data-name="Trazado 204068" d="M18.146,74.291A16.146,16.146,0,1,0,2,58.146,16.164,16.164,0,0,0,18.146,74.291Zm0-29.062A12.916,12.916,0,1,1,5.229,58.146,12.932,12.932,0,0,1,18.146,45.229Z" transform="translate(0 24.582)"/>
    <path id="Trazado_204069" data-name="Trazado 204069" d="M13.844,60.531a1.616,1.616,0,0,1-1.615-1.615H9a4.837,4.837,0,0,0,3.229,4.547v1.912h3.229V63.463a4.832,4.832,0,0,0-1.615-9.39,1.615,1.615,0,1,1,1.615-1.615h3.229a4.837,4.837,0,0,0-3.229-4.547V46H12.229v1.912a4.832,4.832,0,0,0,1.615,9.39,1.615,1.615,0,1,1,0,3.229Z" transform="translate(4.302 27.041)"/>
    <path id="Trazado_204070" data-name="Trazado 204070" d="M72.677,40H62.989a1.614,1.614,0,0,0-1.615,1.615v6.458H53.3a1.614,1.614,0,0,0-1.615,1.615v6.458H43.615A1.614,1.614,0,0,0,42,57.76V73.906a1.614,1.614,0,0,0,1.615,1.615H72.677a1.614,1.614,0,0,0,1.615-1.615V41.615A1.614,1.614,0,0,0,72.677,40ZM51.687,72.291H45.229V59.375h6.458Zm9.687,0H54.916V51.3h6.458Zm9.687,0H64.6V43.229h6.458Z" transform="translate(24.582 23.353)"/>
    <path id="Trazado_204071" data-name="Trazado 204071" d="M3.615,31.062H27.833a1.614,1.614,0,0,0,1.615-1.615V11.687a1.616,1.616,0,0,0-2.338-1.445L19.76,13.919V11.687A1.614,1.614,0,0,0,17.314,10.3L11.687,13.68V3.615A1.614,1.614,0,0,0,10.073,2H3.615A1.614,1.614,0,0,0,2,3.615V29.448A1.614,1.614,0,0,0,3.615,31.062ZM5.229,5.229H8.458v11.3A1.614,1.614,0,0,0,10.9,17.915l5.627-3.376v1.992a1.616,1.616,0,0,0,2.338,1.445L26.218,14.3V27.833H5.229Z"/>
    <path id="Trazado_204072" data-name="Trazado 204072" d="M7,14h3.229v3.229H7Z" transform="translate(3.073 7.375)"/>
    <path id="Trazado_204073" data-name="Trazado 204073" d="M12,14h3.229v3.229H12Z" transform="translate(6.146 7.375)"/>
    <path id="Trazado_204074" data-name="Trazado 204074" d="M7.2,21.629a45.394,45.394,0,0,0-.628,31.813l3.043-1.077A42.163,42.163,0,0,1,10.2,22.827Z" transform="translate(1.229 12.063)"/>
    <path id="Trazado_204075" data-name="Trazado 204075" d="M51.13,60.12l-.956-3.084a42.4,42.4,0,0,1-26.432-.515l-1.075,3.045a45.442,45.442,0,0,0,28.463.554Z" transform="translate(12.701 33.506)"/>
    <path id="Trazado_204076" data-name="Trazado 204076" d="M62.423,50.967a45.518,45.518,0,0,0,1.119-10.044A45.121,45.121,0,0,0,57,17.481l-2.759,1.676a41.906,41.906,0,0,1,6.076,21.766,42.21,42.21,0,0,1-1.041,9.331Z" transform="translate(32.103 9.514)"/>
    <path id="Trazado_204077" data-name="Trazado 204077" d="M39.011,7.229A41.98,41.98,0,0,1,51.449,9.1l.956-3.084A45.385,45.385,0,0,0,20.592,7.91l1.317,2.948A41.652,41.652,0,0,1,39.011,7.229Z" transform="translate(11.426 1.229)"/>
  </g>
</svg>
