<svg xmlns="http://www.w3.org/2000/svg" width="392.155" height="397.012" viewBox="0 0 392.155 397.012">
  <g id="Grupo_150815" data-name="Grupo 150815" transform="translate(-923.048 -2346)">
    <g id="Grupo_150814" data-name="Grupo 150814" transform="translate(923.048 2346)">
      <g id="Grupo_150740" data-name="Grupo 150740" transform="translate(199.166 3.117)">
        <path id="Trazado_205543" data-name="Trazado 205543" d="M1641.188,206.2A193.267,193.267,0,0,0,1521.095,162.5l.009-.619a195.121,195.121,0,0,1,120.475,43.844Z" transform="translate(-1521.095 -161.877)" fill="#12263f"/>
      </g>
      <g id="Grupo_150741" data-name="Grupo 150741" transform="translate(192.676 106.564)">
        <path id="Trazado_205544" data-name="Trazado 205544" d="M1480.166,875.264a3.4,3.4,0,1,1,3.4-3.4A3.407,3.407,0,0,1,1480.166,875.264Zm0-6.187a2.784,2.784,0,1,0,2.784,2.784A2.787,2.787,0,0,0,1480.166,869.078Z" transform="translate(-1476.763 -868.459)" fill="#12263f"/>
      </g>
      <g id="Grupo_150742" data-name="Grupo 150742" transform="translate(195.769 6.496)">
        <rect id="Rectángulo_41929" data-name="Rectángulo 41929" width="0.619" height="100.415" transform="translate(0 0)" fill="#12263f"/>
      </g>
      <g id="Grupo_150743" data-name="Grupo 150743" transform="translate(192.676 0)">
        <path id="Trazado_205545" data-name="Trazado 205545" d="M1480.166,147.392a3.4,3.4,0,1,1,3.4-3.4A3.406,3.406,0,0,1,1480.166,147.392Zm0-6.186a2.784,2.784,0,1,0,2.784,2.784A2.787,2.787,0,0,0,1480.166,141.206Z" transform="translate(-1476.763 -140.587)" fill="#12263f"/>
      </g>
      <path id="Trazado_205546" data-name="Trazado 205546" d="M1698.365,916.313l4.557-.8-2.974-3.544Z" transform="translate(-1473.245 -799.031)" fill="#12263f"/>
      <path id="Trazado_205547" data-name="Trazado 205547" d="M1947.31,232.339l4.556-.8-2.974-3.544Z" transform="translate(-1685.744 -215.194)" fill="#12263f"/>
      <g id="Grupo_150744" data-name="Grupo 150744" transform="translate(199.158 109.706)">
        <path id="Trazado_205548" data-name="Trazado 205548" d="M1572.63,909.323a88.028,88.028,0,0,0-51.591-18.781l.021-.619a88.643,88.643,0,0,1,51.951,18.913Z" transform="translate(-1521.039 -889.923)" fill="#12263f"/>
      </g>
      <g id="Grupo_150745" data-name="Grupo 150745" transform="translate(323.989 50.948)">
        <path id="Trazado_205550" data-name="Trazado 205550" d="M2437.585,599.725a193.274,193.274,0,0,0-63.9-110.675l.405-.468a195.126,195.126,0,0,1,64.106,111.026Z" transform="translate(-2373.681 -488.582)" fill="#12263f"/>
      </g>
      <g id="Grupo_150746" data-name="Grupo 150746" transform="translate(249.937 127.406)">
        <path id="Trazado_205551" data-name="Trazado 205551" d="M1871.279,1017.622a3.4,3.4,0,1,1,2.608-1.215A3.4,3.4,0,0,1,1871.279,1017.622Zm0-6.187a2.785,2.785,0,1,0,1.788.651A2.78,2.78,0,0,0,1871.283,1011.435Z" transform="translate(-1867.878 -1010.817)" fill="#12263f"/>
      </g>
      <g id="Grupo_150747" data-name="Grupo 150747" transform="translate(255.051 51.359)">
        <rect id="Rectángulo_41930" data-name="Rectángulo 41930" width="100.415" height="0.619" transform="translate(0 76.896) rotate(-49.977)" fill="#12263f"/>
      </g>
      <g id="Grupo_150748" data-name="Grupo 150748" transform="translate(318.437 45.773)">
        <path id="Trazado_205552" data-name="Trazado 205552" d="M2339.156,460.04a3.4,3.4,0,1,1,2.608-1.216A3.4,3.4,0,0,1,2339.156,460.04Zm0-6.187a2.784,2.784,0,1,0,1.787.651A2.78,2.78,0,0,0,2339.16,453.854Z" transform="translate(-2335.757 -453.235)" fill="#12263f"/>
      </g>
      <path id="Trazado_205553" data-name="Trazado 205553" d="M2010.958,1186.349l4.007,2.313v-4.626Z" transform="translate(-1740.074 -1031.27)" fill="#12263f"/>
      <path id="Trazado_205554" data-name="Trazado 205554" d="M2641.312,822.413l4.008,2.313V820.1Z" transform="translate(-2278.14 -720.616)" fill="#12263f"/>
      <g id="Grupo_150749" data-name="Grupo 150749" transform="translate(255.469 132.602)">
        <path id="Trazado_205555" data-name="Trazado 205555" d="M1933.114,1094.322a88.034,88.034,0,0,0-27.448-47.55l.413-.46a88.644,88.644,0,0,1,27.641,47.881Z" transform="translate(-1905.665 -1046.313)" fill="#12263f"/>
      </g>
      <g id="Grupo_150750" data-name="Grupo 150750" transform="translate(366.774 168.077)">
        <path id="Trazado_205557" data-name="Trazado 205557" d="M2666.46,1414.878l-.541-.3a193.269,193.269,0,0,0,22.187-125.858l.611-.1a195.111,195.111,0,0,1-22.257,126.258Z" transform="translate(-2665.919 -1288.62)" fill="#12263f"/>
      </g>
      <g id="Grupo_150751" data-name="Grupo 150751" transform="translate(280.405 180.178)">
        <path id="Trazado_205558" data-name="Trazado 205558" d="M2079.388,1378.076a3.407,3.407,0,1,1,.594-.052A3.395,3.395,0,0,1,2079.388,1378.076Zm.007-6.188a2.784,2.784,0,0,0-.007,5.569,2.828,2.828,0,0,0,.487-.043,2.784,2.784,0,0,0-.481-5.526Z" transform="translate(-2075.989 -1371.27)" fill="#12263f"/>
      </g>
      <g id="Grupo_150752" data-name="Grupo 150752" transform="translate(286.762 165.318)">
        <rect id="Rectángulo_41931" data-name="Rectángulo 41931" width="100.415" height="0.618" transform="translate(0 17.42) rotate(-9.99)" fill="#12263f"/>
      </g>
      <g id="Grupo_150753" data-name="Grupo 150753" transform="translate(385.35 161.673)">
        <path id="Trazado_205559" data-name="Trazado 205559" d="M2796.2,1251.683a3.4,3.4,0,0,1-.587-6.754,3.453,3.453,0,0,1,.594-.052,3.4,3.4,0,0,1,.587,6.754A3.454,3.454,0,0,1,2796.2,1251.683Zm.007-6.188a2.839,2.839,0,0,0-.487.043,2.784,2.784,0,0,0,.48,5.526,2.824,2.824,0,0,0,.487-.043,2.784,2.784,0,0,0-.48-5.526Z" transform="translate(-2792.801 -1244.877)" fill="#12263f"/>
      </g>
      <path id="Trazado_205560" data-name="Trazado 205560" d="M2084.473,1598.54l1.583,4.348,2.974-3.544Z" transform="translate(-1802.826 -1385.089)" fill="#12263f"/>
      <path id="Trazado_205561" data-name="Trazado 205561" d="M2801.283,1724.934l1.583,4.348,2.973-3.544Z" transform="translate(-2414.691 -1492.979)" fill="#12263f"/>
      <g id="Grupo_150754" data-name="Grupo 150754" transform="translate(274.453 186.59)">
        <path id="Trazado_205562" data-name="Trazado 205562" d="M2035.877,1469.512l-.546-.291a88.029,88.029,0,0,0,9.537-54.068l.613-.087A88.641,88.641,0,0,1,2035.877,1469.512Z" transform="translate(-2035.331 -1415.066)" fill="#12263f"/>
      </g>
      <g id="Grupo_150755" data-name="Grupo 150755" transform="translate(265.784 299.382)">
        <path id="Trazado_205564" data-name="Trazado 205564" d="M1976.338,2268.209l-.221-.578a193.278,193.278,0,0,0,97.9-82.151l.531.317a195.119,195.119,0,0,1-98.207,82.411Z" transform="translate(-1976.117 -2185.48)" fill="#12263f"/>
      </g>
      <g id="Grupo_150756" data-name="Grupo 150756" transform="translate(269.825 240.189)">
        <path id="Trazado_205565" data-name="Trazado 205565" d="M2007.12,1787.977a3.4,3.4,0,1,1,2.95-1.7A3.4,3.4,0,0,1,2007.12,1787.977Zm.006-6.188a2.784,2.784,0,1,0,1.389.373A2.8,2.8,0,0,0,2007.126,1781.789Z" transform="translate(-2003.721 -1781.171)" fill="#12263f"/>
      </g>
      <g id="Grupo_150757" data-name="Grupo 150757" transform="translate(275.718 244.852)">
        <rect id="Rectángulo_41932" data-name="Rectángulo 41932" width="0.619" height="100.415" transform="matrix(0.5, -0.866, 0.866, 0.5, 0, 0.536)" fill="#12263f"/>
      </g>
      <g id="Grupo_150758" data-name="Grupo 150758" transform="translate(362.112 293.471)">
        <path id="Trazado_205566" data-name="Trazado 205566" d="M2637.473,2151.911a3.4,3.4,0,1,1,2.95-1.7A3.406,3.406,0,0,1,2637.473,2151.911Zm.007-6.187a2.784,2.784,0,1,0,2.407,4.176,2.784,2.784,0,0,0-2.407-4.176Z" transform="translate(-2634.075 -2145.105)" fill="#12263f"/>
      </g>
      <path id="Trazado_205567" data-name="Trazado 205567" d="M1875.279,1951.22l-1.583,4.347,4.557-.8Z" transform="translate(-1622.907 -1686.136)" fill="#12263f"/>
      <path id="Trazado_205568" data-name="Trazado 205568" d="M2343.146,2508.8l-1.583,4.348,4.556-.8Z" transform="translate(-2022.277 -2162.081)" fill="#12263f"/>
      <g id="Grupo_150759" data-name="Grupo 150759" transform="translate(229.315 246.08)">
        <path id="Trazado_205569" data-name="Trazado 205569" d="M1727.257,1857.272l-.231-.573a88.028,88.028,0,0,0,42.06-35.288l.526.327A88.641,88.641,0,0,1,1727.257,1857.272Z" transform="translate(-1727.026 -1821.41)" fill="#12263f"/>
      </g>
      <g id="Grupo_150760" data-name="Grupo 150760" transform="translate(131.975 383.642)">
        <path id="Trazado_205571" data-name="Trazado 205571" d="M1126.278,2772.424l-1.139,0a195.325,195.325,0,0,1-62.985-10.825l.2-.585a193.275,193.275,0,0,0,127.8,0l.2.585A195.293,195.293,0,0,1,1126.278,2772.424Z" transform="translate(-1062.154 -2761.007)" fill="#12263f"/>
      </g>
      <g id="Grupo_150761" data-name="Grupo 150761" transform="translate(223.143 279.358)">
        <path id="Trazado_205572" data-name="Trazado 205572" d="M1688.271,2055.516a3.4,3.4,0,1,1,1.164-.206A3.414,3.414,0,0,1,1688.271,2055.516Zm0-6.188a2.784,2.784,0,1,0,2.616,1.833A2.776,2.776,0,0,0,1688.271,2049.328Z" transform="translate(-1684.868 -2048.709)" fill="#12263f"/>
      </g>
      <g id="Grupo_150762" data-name="Grupo 150762" transform="translate(227.3 285.526)">
        <rect id="Rectángulo_41933" data-name="Rectángulo 41933" width="0.619" height="100.415" transform="matrix(0.94, -0.342, 0.342, 0.94, 0, 0.212)" fill="#12263f"/>
      </g>
      <g id="Grupo_150763" data-name="Grupo 150763" transform="translate(259.589 379.495)">
        <path id="Trazado_205573" data-name="Trazado 205573" d="M1937.208,2739.491a3.4,3.4,0,0,1-1.164-6.6,3.374,3.374,0,0,1,1.164-.206,3.4,3.4,0,0,1,0,6.806Zm0-6.188a2.785,2.785,0,1,0,2.615,1.833A2.777,2.777,0,0,0,1937.208,2733.3Z" transform="translate(-1933.803 -2732.685)" fill="#12263f"/>
      </g>
      <path id="Trazado_205574" data-name="Trazado 205574" d="M1481.261,2092.847l-4.007,2.313,4.007,2.314Z" transform="translate(-1284.507 -1807.027)" fill="#12263f"/>
      <path id="Trazado_205575" data-name="Trazado 205575" d="M1481.261,2820.716l-4.007,2.314,4.007,2.314Z" transform="translate(-1284.507 -2428.332)" fill="#12263f"/>
      <g id="Grupo_150764" data-name="Grupo 150764" transform="translate(168.434 283.474)">
        <path id="Trazado_205576" data-name="Trazado 205576" d="M1338.835,2081.836a89.11,89.11,0,0,1-27.652-4.422l.192-.589a88.031,88.031,0,0,0,54.9,0l.192.588A89.052,89.052,0,0,1,1338.835,2081.836Z" transform="translate(-1311.183 -2076.826)" fill="#12263f"/>
      </g>
      <g id="Grupo_150765" data-name="Grupo 150765" transform="translate(27.941 299.385)">
        <path id="Trazado_205578" data-name="Trazado 205578" d="M449.772,2268.224a195.11,195.11,0,0,1-98.213-82.4l.531-.317a193.275,193.275,0,0,0,97.9,82.144Z" transform="translate(-351.559 -2185.503)" fill="#12263f"/>
      </g>
      <g id="Grupo_150766" data-name="Grupo 150766" transform="translate(162.205 279.357)">
        <path id="Trazado_205579" data-name="Trazado 205579" d="M1272.038,2055.512a3.4,3.4,0,1,1,3.2-2.24A3.388,3.388,0,0,1,1272.038,2055.512Zm0-6.189a2.8,2.8,0,0,0-2.616,1.833,2.785,2.785,0,0,0,1.664,3.569,2.784,2.784,0,0,0,1.9-5.232A2.769,2.769,0,0,0,1272.038,2049.324Z" transform="translate(-1268.633 -2048.706)" fill="#12263f"/>
      </g>
      <g id="Grupo_150767" data-name="Grupo 150767" transform="translate(129.933 285.525)">
        <rect id="Rectángulo_41934" data-name="Rectángulo 41934" width="100.415" height="0.619" transform="translate(0 94.361) rotate(-70.004)" fill="#12263f"/>
      </g>
      <g id="Grupo_150768" data-name="Grupo 150768" transform="translate(125.759 379.495)">
        <path id="Trazado_205580" data-name="Trazado 205580" d="M1023.1,2739.489a3.4,3.4,0,1,1,3.2-2.24A3.4,3.4,0,0,1,1023.1,2739.489Zm0-6.188a2.786,2.786,0,1,0,.952.169A2.793,2.793,0,0,0,1023.1,2733.3Z" transform="translate(-1019.699 -2732.682)" fill="#12263f"/>
      </g>
      <path id="Trazado_205581" data-name="Trazado 205581" d="M1096.01,1952.476l-4.557-.8,1.583,4.348Z" transform="translate(-955.188 -1686.521)" fill="#12263f"/>
      <path id="Trazado_205582" data-name="Trazado 205582" d="M628.145,2510.057l-4.556-.8,1.582,4.348Z" transform="translate(-555.822 -2162.47)" fill="#12263f"/>
      <g id="Grupo_150769" data-name="Grupo 150769" transform="translate(120.256 246.077)">
        <path id="Trazado_205583" data-name="Trazado 205583" d="M1024.461,1857.255a88.64,88.64,0,0,1-42.35-35.541l.525-.327a88.027,88.027,0,0,0,42.055,35.294Z" transform="translate(-982.111 -1821.387)" fill="#12263f"/>
      </g>
      <g id="Grupo_150770" data-name="Grupo 150770" transform="translate(0.084 168.077)">
        <path id="Trazado_205585" data-name="Trazado 205585" d="M186.049,1414.876a195.12,195.12,0,0,1-22.267-126.256l.61.1a193.276,193.276,0,0,0,22.2,125.856Z" transform="translate(-161.287 -1288.62)" fill="#12263f"/>
      </g>
      <g id="Grupo_150771" data-name="Grupo 150771" transform="translate(115.527 240.188)">
        <path id="Trazado_205586" data-name="Trazado 205586" d="M953.213,1787.973a3.4,3.4,0,1,1,3.284-2.522,3.405,3.405,0,0,1-3.284,2.522Zm-.006-6.187a2.784,2.784,0,1,0,2.414,1.393A2.779,2.779,0,0,0,953.207,1781.785Z" transform="translate(-949.808 -1781.167)" fill="#12263f"/>
      </g>
      <g id="Grupo_150772" data-name="Grupo 150772" transform="translate(29.171 244.842)">
        <rect id="Rectángulo_41935" data-name="Rectángulo 41935" width="100.415" height="0.619" transform="matrix(0.866, -0.5, 0.5, 0.866, 0, 50.226)" fill="#12263f"/>
      </g>
      <g id="Grupo_150773" data-name="Grupo 150773" transform="translate(23.24 293.47)">
        <path id="Trazado_205587" data-name="Trazado 205587" d="M322.858,2151.908a3.4,3.4,0,1,1,1.7-.456A3.415,3.415,0,0,1,322.858,2151.908Zm-.006-6.187a2.785,2.785,0,1,0,2.414,1.393A2.784,2.784,0,0,0,322.852,2145.72Z" transform="translate(-319.454 -2145.102)" fill="#12263f"/>
      </g>
      <path id="Trazado_205588" data-name="Trazado 205588" d="M890.566,1586.978l-2.974-3.545-1.583,4.348Z" transform="translate(-779.822 -1372.194)" fill="#12263f"/>
      <path id="Trazado_205589" data-name="Trazado 205589" d="M173.752,1713.372l-2.974-3.544-1.583,4.348Z" transform="translate(-167.954 -1480.084)" fill="#12263f"/>
      <g id="Grupo_150774" data-name="Grupo 150774" transform="translate(106.663 186.588)">
        <path id="Trazado_205590" data-name="Trazado 205590" d="M899.751,1469.505a88.637,88.637,0,0,1-9.6-54.447l.612.087a88.024,88.024,0,0,0,9.531,54.069Z" transform="translate(-889.26 -1415.058)" fill="#12263f"/>
      </g>
      <g id="Grupo_150775" data-name="Grupo 150775" transform="translate(3.659 50.945)">
        <path id="Trazado_205592" data-name="Trazado 205592" d="M186.318,599.709l-.608-.117a195.116,195.116,0,0,1,64.1-111.03l.405.468A193.271,193.271,0,0,0,186.318,599.709Z" transform="translate(-185.71 -488.562)" fill="#12263f"/>
      </g>
      <g id="Grupo_150776" data-name="Grupo 150776" transform="translate(104.944 180.178)">
        <path id="Trazado_205593" data-name="Trazado 205593" d="M880.93,1378.076a3.452,3.452,0,0,1-.594-.052,3.4,3.4,0,1,1,.594.052Zm-.007-6.187a2.784,2.784,0,0,0-.48,5.526,2.859,2.859,0,0,0,.487.043,2.784,2.784,0,0,0,.48-5.526A2.819,2.819,0,0,0,880.922,1371.889Z" transform="translate(-877.523 -1371.27)" fill="#12263f"/>
      </g>
      <g id="Grupo_150777" data-name="Grupo 150777" transform="translate(6.395 165.309)">
        <rect id="Rectángulo_41936" data-name="Rectángulo 41936" width="0.618" height="100.415" transform="matrix(0.174, -0.985, 0.985, 0.174, 0, 0.609)" fill="#12263f"/>
      </g>
      <g id="Grupo_150778" data-name="Grupo 150778" transform="translate(0 161.673)">
        <path id="Trazado_205594" data-name="Trazado 205594" d="M164.121,1251.683a3.407,3.407,0,0,1-3.354-3.994,3.4,3.4,0,0,1,3.347-2.812,3.453,3.453,0,0,1,.594.052,3.4,3.4,0,0,1-.587,6.754Zm-.007-6.187a2.784,2.784,0,0,0-.48,5.526,2.822,2.822,0,0,0,.487.043,2.784,2.784,0,0,0,.48-5.526A2.857,2.857,0,0,0,164.114,1245.5Z" transform="translate(-160.715 -1244.877)" fill="#12263f"/>
      </g>
      <path id="Trazado_205595" data-name="Trazado 205595" d="M961.056,1180.865v-4.627l-4.007,2.313Z" transform="translate(-840.462 -1024.614)" fill="#12263f"/>
      <path id="Trazado_205596" data-name="Trazado 205596" d="M330.7,816.929V812.3l-4.007,2.313Z" transform="translate(-302.395 -713.96)" fill="#12263f"/>
      <g id="Grupo_150779" data-name="Grupo 150779" transform="translate(108.63 132.604)">
        <path id="Trazado_205597" data-name="Trazado 205597" d="M903.3,1094.328l-.6-.128a88.641,88.641,0,0,1,27.646-47.878l.413.46A88.03,88.03,0,0,0,903.3,1094.328Z" transform="translate(-902.7 -1046.322)" fill="#12263f"/>
      </g>
      <g id="Grupo_150780" data-name="Grupo 150780" transform="translate(72.508 3.113)">
        <path id="Trazado_205599" data-name="Trazado 205599" d="M656.361,206.18l-.39-.48a195.113,195.113,0,0,1,120.471-43.853l.01.619A193.272,193.272,0,0,0,656.361,206.18Z" transform="translate(-655.971 -161.847)" fill="#12263f"/>
      </g>
      <g id="Grupo_150781" data-name="Grupo 150781" transform="translate(135.413 127.405)">
        <path id="Trazado_205600" data-name="Trazado 205600" d="M1089.042,1017.619a3.4,3.4,0,1,1,2.186-.8A3.394,3.394,0,0,1,1089.042,1017.619Zm0-6.187a2.784,2.784,0,1,0,2.135,1A2.786,2.786,0,0,0,1089.039,1011.432Z" transform="translate(-1085.638 -1010.814)" fill="#12263f"/>
      </g>
      <g id="Grupo_150782" data-name="Grupo 150782" transform="translate(72.07 51.346)">
        <rect id="Rectángulo_41937" data-name="Rectángulo 41937" width="0.619" height="100.415" transform="translate(0 0.398) rotate(-40)" fill="#12263f"/>
      </g>
      <g id="Grupo_150783" data-name="Grupo 150783" transform="translate(66.917 45.773)">
        <path id="Trazado_205601" data-name="Trazado 205601" d="M621.188,460.039a3.4,3.4,0,1,1,2.186-.8A3.4,3.4,0,0,1,621.188,460.039Zm0-6.186a2.784,2.784,0,1,0,2.134.994A2.785,2.785,0,0,0,621.185,453.853Z" transform="translate(-617.785 -453.234)" fill="#12263f"/>
      </g>
      <path id="Trazado_205602" data-name="Trazado 205602" d="M1283.726,919.475l2.974-3.545-4.556-.8Z" transform="translate(-1117.961 -801.731)" fill="#12263f"/>
      <path id="Trazado_205603" data-name="Trazado 205603" d="M1034.777,235.5l2.974-3.544-4.557-.8Z" transform="translate(-905.459 -217.893)" fill="#12263f"/>
      <g id="Grupo_150784" data-name="Grupo 150784" transform="translate(141.025 109.71)">
        <path id="Trazado_205604" data-name="Trazado 205604" d="M1124.349,909.339l-.381-.487a88.64,88.64,0,0,1,51.953-18.906l.021.619A88.022,88.022,0,0,0,1124.349,909.339Z" transform="translate(-1123.968 -889.946)" fill="#12263f"/>
      </g>
      <ellipse id="Elipse_5792" data-name="Elipse 5792" cx="1.237" cy="1.237" rx="1.237" ry="1.237" transform="matrix(0.229, -0.973, 0.973, 0.229, 194.591, 57.967)" fill="#12263f"/>
      <ellipse id="Elipse_5793" data-name="Elipse 5793" cx="1.237" cy="1.237" rx="1.237" ry="1.237" transform="matrix(0.229, -0.973, 0.973, 0.229, 194.591, 64.151)" fill="#12263f"/>
      <path id="Trazado_205605" data-name="Trazado 205605" d="M1492.035,882.081a1.65,1.65,0,1,1-1.65-1.65A1.65,1.65,0,0,1,1492.035,882.081Z" transform="translate(-1294.307 -772.114)" fill="#12263f"/>
      <path id="Trazado_205606" data-name="Trazado 205606" d="M1492.035,154.209a1.65,1.65,0,1,1-1.65-1.65A1.65,1.65,0,0,1,1492.035,154.209Z" transform="translate(-1294.307 -150.806)" fill="#12263f"/>
      <ellipse id="Elipse_5794" data-name="Elipse 5794" cx="1.237" cy="1.237" rx="1.237" ry="1.237" transform="matrix(0.229, -0.973, 0.973, 0.229, 194.591, 51.782)" fill="#12263f"/>
      <path id="Trazado_205607" data-name="Trazado 205607" d="M2117.2,750.736a1.237,1.237,0,1,1-.153-1.743A1.238,1.238,0,0,1,2117.2,750.736Z" transform="translate(-1828.899 -659.672)" fill="#12263f"/>
      <path id="Trazado_205608" data-name="Trazado 205608" d="M2090.051,783.1a1.237,1.237,0,1,1-.153-1.743A1.237,1.237,0,0,1,2090.051,783.1Z" transform="translate(-1805.722 -687.294)" fill="#12263f"/>
      <path id="Trazado_205609" data-name="Trazado 205609" d="M1882.766,1025.5a1.65,1.65,0,1,1-.2-2.324A1.65,1.65,0,0,1,1882.766,1025.5Z" transform="translate(-1628.162 -893.629)" fill="#12263f"/>
      <path id="Trazado_205610" data-name="Trazado 205610" d="M2350.634,467.917a1.65,1.65,0,1,1-.2-2.324A1.65,1.65,0,0,1,2350.634,467.917Z" transform="translate(-2027.532 -417.682)" fill="#12263f"/>
      <path id="Trazado_205611" data-name="Trazado 205611" d="M2144.357,718.375a1.237,1.237,0,1,1-.152-1.743A1.238,1.238,0,0,1,2144.357,718.375Z" transform="translate(-1852.077 -632.05)" fill="#12263f"/>
      <path id="Trazado_205612" data-name="Trazado 205612" d="M2448.209,1325.75a1.237,1.237,0,1,1,1-1.433A1.237,1.237,0,0,1,2448.209,1325.75Z" transform="translate(-2112.069 -1150.14)" fill="#12263f"/>
      <path id="Trazado_205613" data-name="Trazado 205613" d="M2406.609,1333.086a1.238,1.238,0,1,1,1-1.434A1.238,1.238,0,0,1,2406.609,1333.086Z" transform="translate(-2076.56 -1156.402)" fill="#12263f"/>
      <path id="Trazado_205614" data-name="Trazado 205614" d="M2089.9,1386.521a1.65,1.65,0,1,1,1.338-1.911A1.65,1.65,0,0,1,2089.9,1386.521Z" transform="translate(-1805.804 -1201.314)" fill="#12263f"/>
      <path id="Trazado_205615" data-name="Trazado 205615" d="M2806.71,1260.127a1.65,1.65,0,1,1,1.338-1.911A1.65,1.65,0,0,1,2806.71,1260.127Z" transform="translate(-2417.671 -1093.426)" fill="#12263f"/>
      <path id="Trazado_205616" data-name="Trazado 205616" d="M2489.811,1318.416a1.237,1.237,0,1,1,1-1.433A1.236,1.236,0,0,1,2489.811,1318.416Z" transform="translate(-2147.58 -1143.88)" fill="#12263f"/>
      <path id="Trazado_205617" data-name="Trazado 205617" d="M2332.163,1979a1.238,1.238,0,1,1,1.69-.453A1.238,1.238,0,0,1,2332.163,1979Z" transform="translate(-2013.725 -1707.88)" fill="#12263f"/>
      <path id="Trazado_205618" data-name="Trazado 205618" d="M2295.581,1957.884a1.237,1.237,0,1,1,1.69-.452A1.237,1.237,0,0,1,2295.581,1957.884Z" transform="translate(-1982.498 -1689.852)" fill="#12263f"/>
      <path id="Trazado_205619" data-name="Trazado 205619" d="M2016.511,1796.222a1.65,1.65,0,1,1,2.253-.6A1.649,1.649,0,0,1,2016.511,1796.222Z" transform="translate(-1744.109 -1551.202)" fill="#12263f"/>
      <path id="Trazado_205620" data-name="Trazado 205620" d="M2646.863,2160.158a1.65,1.65,0,1,1,2.254-.6A1.649,1.649,0,0,1,2646.863,2160.158Z" transform="translate(-2282.175 -1861.855)" fill="#12263f"/>
      <path id="Trazado_205621" data-name="Trazado 205621" d="M2368.746,2000.126a1.238,1.238,0,1,1,1.69-.454A1.239,1.239,0,0,1,2368.746,2000.126Z" transform="translate(-2044.951 -1725.909)" fill="#12263f"/>
      <path id="Trazado_205622" data-name="Trazado 205622" d="M1823.362,2404.834a1.237,1.237,0,1,1,1.586.739A1.237,1.237,0,0,1,1823.362,2404.834Z" transform="translate(-1579.879 -2071.92)" fill="#12263f"/>
      <path id="Trazado_205623" data-name="Trazado 205623" d="M1808.914,2365.138a1.237,1.237,0,1,1,1.586.739A1.237,1.237,0,0,1,1808.914,2365.138Z" transform="translate(-1567.546 -2038.036)" fill="#12263f"/>
      <path id="Trazado_205624" data-name="Trazado 205624" d="M1696.939,2062.9a1.65,1.65,0,1,1,2.115.986A1.649,1.649,0,0,1,1696.939,2062.9Z" transform="translate(-1471.943 -1779.573)" fill="#12263f"/>
      <path id="Trazado_205625" data-name="Trazado 205625" d="M1945.884,2746.873a1.65,1.65,0,1,1,2.115.987A1.65,1.65,0,0,1,1945.884,2746.873Z" transform="translate(-1684.441 -2363.41)" fill="#12263f"/>
      <path id="Trazado_205626" data-name="Trazado 205626" d="M1837.81,2444.529a1.238,1.238,0,1,1,1.586.74A1.238,1.238,0,0,1,1837.81,2444.529Z" transform="translate(-1592.211 -2105.803)" fill="#12263f"/>
      <path id="Trazado_205627" data-name="Trazado 205627" d="M1159.88,2403.986a1.237,1.237,0,1,1,.74,1.586A1.238,1.238,0,0,1,1159.88,2403.986Z" transform="translate(-1013.534 -2071.919)" fill="#12263f"/>
      <path id="Trazado_205628" data-name="Trazado 205628" d="M1174.328,2364.292a1.237,1.237,0,1,1,.74,1.585A1.237,1.237,0,0,1,1174.328,2364.292Z" transform="translate(-1025.865 -2038.036)" fill="#12263f"/>
      <path id="Trazado_205629" data-name="Trazado 205629" d="M1280.715,2061.769a1.65,1.65,0,1,1,.986,2.115A1.65,1.65,0,0,1,1280.715,2061.769Z" transform="translate(-1116.656 -1779.572)" fill="#12263f"/>
      <path id="Trazado_205630" data-name="Trazado 205630" d="M1031.769,2745.743a1.65,1.65,0,1,1,.986,2.114A1.651,1.651,0,0,1,1031.769,2745.743Z" transform="translate(-904.157 -2363.409)" fill="#12263f"/>
      <path id="Trazado_205631" data-name="Trazado 205631" d="M1145.432,2443.681a1.237,1.237,0,1,1,.739,1.587A1.237,1.237,0,0,1,1145.432,2443.681Z" transform="translate(-1001.2 -2105.803)" fill="#12263f"/>
      <path id="Trazado_205632" data-name="Trazado 205632" d="M652.168,1976.861a1.237,1.237,0,1,1-.453,1.689A1.237,1.237,0,0,1,652.168,1976.861Z" transform="translate(-579.689 -1707.88)" fill="#12263f"/>
      <path id="Trazado_205633" data-name="Trazado 205633" d="M688.751,1955.738a1.237,1.237,0,1,1-.453,1.691A1.239,1.239,0,0,1,688.751,1955.738Z" transform="translate(-610.916 -1689.85)" fill="#12263f"/>
      <path id="Trazado_205634" data-name="Trazado 205634" d="M962.6,1793.363a1.65,1.65,0,1,1-.6,2.254A1.65,1.65,0,0,1,962.6,1793.363Z" transform="translate(-844.495 -1551.2)" fill="#12263f"/>
      <path id="Trazado_205635" data-name="Trazado 205635" d="M332.245,2157.3a1.65,1.65,0,1,1-.6,2.254A1.649,1.649,0,0,1,332.245,2157.3Z" transform="translate(-306.428 -1861.853)" fill="#12263f"/>
      <path id="Trazado_205636" data-name="Trazado 205636" d="M615.584,1997.981a1.237,1.237,0,1,1-.453,1.69A1.237,1.237,0,0,1,615.584,1997.981Z" transform="translate(-548.461 -1725.908)" fill="#12263f"/>
      <path id="Trazado_205637" data-name="Trazado 205637" d="M537.789,1323.311a1.237,1.237,0,1,1-1.434,1A1.236,1.236,0,0,1,537.789,1323.311Z" transform="translate(-481.344 -1150.138)" fill="#12263f"/>
      <path id="Trazado_205638" data-name="Trazado 205638" d="M579.391,1330.647a1.237,1.237,0,1,1-1.433,1A1.237,1.237,0,0,1,579.391,1330.647Z" transform="translate(-516.855 -1156.4)" fill="#12263f"/>
      <path id="Trazado_205639" data-name="Trazado 205639" d="M891.434,1383.267a1.65,1.65,0,1,1-1.911,1.338A1.65,1.65,0,0,1,891.434,1383.267Z" transform="translate(-782.801 -1201.311)" fill="#12263f"/>
      <path id="Trazado_205640" data-name="Trazado 205640" d="M174.623,1256.875a1.65,1.65,0,1,1-1.911,1.338A1.649,1.649,0,0,1,174.623,1256.875Z" transform="translate(-170.934 -1093.424)" fill="#12263f"/>
      <path id="Trazado_205641" data-name="Trazado 205641" d="M496.191,1315.974a1.237,1.237,0,1,1-1.433,1A1.237,1.237,0,0,1,496.191,1315.974Z" transform="translate(-445.836 -1143.876)" fill="#12263f"/>
      <path id="Trazado_205642" data-name="Trazado 205642" d="M870.266,749.143a1.237,1.237,0,1,1-1.743-.153A1.237,1.237,0,0,1,870.266,749.143Z" transform="translate(-764.519 -659.67)" fill="#12263f"/>
      <path id="Trazado_205643" data-name="Trazado 205643" d="M897.419,781.5a1.237,1.237,0,1,1-1.743-.152A1.237,1.237,0,0,1,897.419,781.5Z" transform="translate(-787.697 -687.293)" fill="#12263f"/>
      <path id="Trazado_205644" data-name="Trazado 205644" d="M1100.525,1023.375a1.65,1.65,0,1,1-2.324-.2A1.65,1.65,0,0,1,1100.525,1023.375Z" transform="translate(-960.446 -893.628)" fill="#12263f"/>
      <path id="Trazado_205645" data-name="Trazado 205645" d="M632.661,465.8a1.65,1.65,0,1,1-2.325-.2A1.65,1.65,0,0,1,632.661,465.8Z" transform="translate(-561.079 -417.68)" fill="#12263f"/>
      <path id="Trazado_205646" data-name="Trazado 205646" d="M843.113,716.784a1.237,1.237,0,1,1-1.743-.152A1.238,1.238,0,0,1,843.113,716.784Z" transform="translate(-741.342 -632.049)" fill="#12263f"/>
    </g>
    <path id="Trazado_205577" data-name="Trazado 205577" d="M414.225,1919.945l79.292-45.775A96.955,96.955,0,0,0,533.1,1907.4l-31.32,86.049A188.646,188.646,0,0,1,414.225,1919.945Z" transform="translate(545.938 725.636)" fill="#3d46c2"/>
    <g id="Grupo_150786" data-name="Grupo 150786" transform="translate(1012.391 2631.016)">
      <path id="Trazado_205649" data-name="Trazado 205649" d="M779.052,2097.721a.518.518,0,1,1-.518.518.519.519,0,0,1,.518-.518Zm5.7-6.219a.518.518,0,1,1-.518.519.519.519,0,0,1,.518-.519Zm6.738,2.073a.518.518,0,1,1-.518.518.518.518,0,0,1,.518-.518Zm6.219-3.628a.518.518,0,1,1-.519.518.518.518,0,0,1,.519-.518Zm-18.658,14.512a.518.518,0,1,1-.518.518.518.518,0,0,1,.518-.518Zm6.219,3.628a.518.518,0,1,1-.518.518.518.518,0,0,1,.518-.518Zm6.219-6.219a.518.518,0,1,1-.518.518.518.518,0,0,1,.518-.518Zm6.738,5.7a.518.518,0,1,1-.519-.518.518.518,0,0,1,.519.518Zm-24.877,3.83,4.737-5.213a1.525,1.525,0,0,0,2-.047l3.664,2.747a1.555,1.555,0,0,0,3.073-.28,1.306,1.306,0,0,0-.031-.284l4.063-4.514a1.629,1.629,0,0,0,.632.135,1.555,1.555,0,0,0,1-.373l3.8,3.374a1.573,1.573,0,0,0-.135.627,1.575,1.575,0,1,0,.85-1.378l-3.96-3.54a1.607,1.607,0,0,0,0-.264,1.555,1.555,0,0,0-3.11,0,1.528,1.528,0,0,0,.176.7l-3.877,4.307a1.54,1.54,0,0,0-2.265.368l-3.364-2.545a1.2,1.2,0,0,0,0-.238,1.555,1.555,0,1,0-3.11,0,1.31,1.31,0,0,0,.031.285l-4.177,4.592v-5.7l5-4.545a1.6,1.6,0,0,0,.7.186,1.555,1.555,0,0,0,1.555-1.555,1.341,1.341,0,0,0-.031-.291l3.913-4.374a1.591,1.591,0,0,0,.264,0,1.55,1.55,0,0,0,1.109-.467l4.146,1.38a1.555,1.555,0,0,0,3.037-.611l3.628-2.271a1.279,1.279,0,1,0-.518-.923l-3.628,2.271a1.554,1.554,0,0,0-2.452.472l-3.768-1.265c0-.046,0-.093,0-.139a1.555,1.555,0,1,0-2.737,1l-3.56,4.007a1.519,1.519,0,0,0-.959-.342,1.555,1.555,0,0,0-1.555,1.554,1.509,1.509,0,0,0,.14.632l-4.286,3.9v-15.414H772v1.037h-1.037v1.037H772v5.183h-1.037v1.037H772v5.183h-1.037v1.036H772v5.183h-1.037v1.036H772v5.7c0,.286.232.829.518.829h6.012v1.037h1.037v-1.037h5.183v1.037h1.037v-1.037h5.183v1.037h1.036v-1.037h5.182v1.037h1.037v-1.037h4.146v-1.348H773.351V2111.4Z" transform="translate(-770.967 -2087.355)" fill="#fff" stroke="#3f5390" stroke-miterlimit="22.926" stroke-width="0.24" fill-rule="evenodd"/>
      <path id="Trazado_205650" data-name="Trazado 205650" d="M828.357,2292.805h2.131v2.13h-2.131v-2.13Z" transform="translate(-819.954 -2262.727)" fill="#fff" stroke="#3f5390" stroke-miterlimit="22.926" stroke-width="0.24" fill-rule="evenodd"/>
      <path id="Trazado_205651" data-name="Trazado 205651" d="M857.462,2292.805h2.131v2.13h-2.131v-2.13Z" transform="translate(-844.799 -2262.727)" fill="#fff" stroke="#3f5390" stroke-miterlimit="22.926" stroke-width="0.24" fill-rule="evenodd"/>
      <path id="Trazado_205652" data-name="Trazado 205652" d="M886.568,2292.805H888.7v2.13h-2.131v-2.13Z" transform="translate(-869.643 -2262.727)" fill="#fff" stroke="#3f5390" stroke-miterlimit="22.926" stroke-width="0.24" fill-rule="evenodd"/>
      <path id="Trazado_205653" data-name="Trazado 205653" d="M915.674,2292.805H917.8v2.13h-2.131v-2.13Z" transform="translate(-894.488 -2262.727)" fill="#fff" stroke="#3f5390" stroke-miterlimit="22.926" stroke-width="0.24" fill-rule="evenodd"/>
    </g>
    <path id="Trazado_205591" data-name="Trazado 205591" d="M301.8,550.133l58.848,70.138a96.957,96.957,0,0,0-25.857,44.75l-90.181-15.9A188.64,188.64,0,0,1,301.8,550.133Z" transform="translate(690.719 1855.825)" fill="#dce736"/>
    <g id="Grupo_150785" data-name="Grupo 150785" transform="translate(978.041 2446.395)">
      <path id="Trazado_205647" data-name="Trazado 205647" d="M619.339,834.8h-.345a9.645,9.645,0,0,0-.852-2.054l.245-.245a1.493,1.493,0,0,0,0-2.108l-1.634-1.633a1.491,1.491,0,0,0-2.109,0l-.245.245a9.6,9.6,0,0,0-2.055-.853v-.345a1.492,1.492,0,0,0-1.491-1.491h-2.311a1.492,1.492,0,0,0-1.491,1.491v.345a9.625,9.625,0,0,0-2.056.853l-.244-.244a1.49,1.49,0,0,0-2.109,0l-1.634,1.634a1.493,1.493,0,0,0,0,2.107l.245.245a9.578,9.578,0,0,0-.852,2.054h-.347a1.492,1.492,0,0,0-1.491,1.491v2.313a1.492,1.492,0,0,0,1.491,1.491h.347a9.555,9.555,0,0,0,.852,2.054l-.245.246a1.493,1.493,0,0,0,0,2.107l1.633,1.633a1.489,1.489,0,0,0,2.109,0l.245-.245a9.557,9.557,0,0,0,2.056.852v.346a1.492,1.492,0,0,0,1.491,1.491h2.311a1.492,1.492,0,0,0,1.491-1.491v-.346a9.562,9.562,0,0,0,2.055-.851l.243.243a1.489,1.489,0,0,0,2.108,0l1.637-1.634a1.493,1.493,0,0,0,0-2.107l-.245-.246a9.642,9.642,0,0,0,.851-2.054h.345a1.492,1.492,0,0,0,1.49-1.491v-2.313a1.492,1.492,0,0,0-1.49-1.491Zm-8.324,12.288a.163.163,0,0,1-.161.161h-2.311a.163.163,0,0,1-.161-.161v-5.056a.664.664,0,0,0-.434-.623,4.555,4.555,0,0,1-.986-8.049c.056-.038.106-.07.149-.1,0,.086-.008.168-.012.211-.005.068-.009.121-.009.174v3.139a2.751,2.751,0,0,0,2.563,2.739.658.658,0,0,0,.088,0,2.75,2.75,0,0,0,2.561-2.739v-3.139c0-.053,0-.105-.009-.173,0-.043-.009-.125-.012-.212.043.025.093.057.149.095a4.556,4.556,0,0,1-.984,8.049.665.665,0,0,0-.433.623v5.056Zm8.484-8.485a.165.165,0,0,1-.161.16h-.862a.665.665,0,0,0-.648.518,8.324,8.324,0,0,1-1.084,2.615.664.664,0,0,0,.092.825l.611.611a.163.163,0,0,1,0,.226L615.81,845.2a.159.159,0,0,1-.225,0l-.611-.611a.664.664,0,0,0-.826-.091,8.27,8.27,0,0,1-1.8.856v-2.874a5.884,5.884,0,0,0,.838-10.213c-.247-.169-1-.684-1.659-.3s-.582,1.245-.555,1.618c0,.033,0,.059.005.075v3.139a1.282,1.282,0,1,1-2.551,0v-3.134c0-.02,0-.047.006-.08.027-.373.093-1.245-.554-1.618s-1.413.136-1.661.3a5.883,5.883,0,0,0,.839,10.213v2.873a8.3,8.3,0,0,1-1.805-.857.664.664,0,0,0-.826.092l-.612.612a.159.159,0,0,1-.225,0l-1.634-1.634a.164.164,0,0,1,0-.227l.611-.611a.665.665,0,0,0,.092-.825,8.278,8.278,0,0,1-1.084-2.614.665.665,0,0,0-.649-.519h-.863a.165.165,0,0,1-.161-.16v-2.313a.163.163,0,0,1,.161-.161h.863a.665.665,0,0,0,.649-.519A8.266,8.266,0,0,1,602.654,833a.665.665,0,0,0-.092-.825l-.611-.611a.163.163,0,0,1,0-.226l1.636-1.636a.16.16,0,0,1,.225,0l.611.611a.665.665,0,0,0,.825.092,8.32,8.32,0,0,1,2.617-1.086.664.664,0,0,0,.519-.648v-.862a.163.163,0,0,1,.161-.161h2.311a.162.162,0,0,1,.16.161v.862a.665.665,0,0,0,.519.649,8.286,8.286,0,0,1,2.615,1.086.665.665,0,0,0,.826-.091l.612-.612a.161.161,0,0,1,.225,0l1.636,1.634a.163.163,0,0,1,0,.226l-.611.611a.665.665,0,0,0-.092.826,8.319,8.319,0,0,1,1.084,2.615.665.665,0,0,0,.648.518h.862a.163.163,0,0,1,.161.161v2.313Z" transform="translate(-589.457 -826.32)" fill="#12263f" fill-rule="evenodd"/>
      <path id="Trazado_205648" data-name="Trazado 205648" d="M563.539,977.977l-5.279,2.711a2.452,2.452,0,0,0-1.769-.753h-3.617a1.011,1.011,0,0,1-.255-.017,2.032,2.032,0,0,1-.2-.173l-.033-.031c-2.927-2.755-5.4-2.58-8.21-1.47a1.922,1.922,0,0,1-.921.2h-.818a1.769,1.769,0,0,0-1.676-1.212h-2.66A1.767,1.767,0,0,0,536.342,979v6.981a1.766,1.766,0,0,0,1.764,1.764h2.66a1.769,1.769,0,0,0,1.676-1.21h1.5a.708.708,0,0,1,.286.043l.212.059,6.882,1.841c.3.082.582.162.851.24a8.67,8.67,0,0,0,2.4.47,5.257,5.257,0,0,0,2.987-1.075l.017-.012,3.244-2.255a.665.665,0,1,0-.772-1.083L556.8,987.01c-1.743,1.159-2.483.945-4.266.428-.275-.079-.559-.162-.876-.247l-6.882-1.841-.2-.054a1.856,1.856,0,0,0-.646-.093h-1.407v-5.428h.747l.038,0a3.107,3.107,0,0,0,1.352-.291c2.469-.974,4.375-1.09,6.811,1.2l.033.031a1.609,1.609,0,0,0,1.362.551h3.617a1.13,1.13,0,0,1,.987.583l.007.011a1.128,1.128,0,0,1-.994,1.663H550.63a.665.665,0,0,0,0,1.33h5.862a2.455,2.455,0,0,0,2.4-2.994l5.255-2.7a1.07,1.07,0,1,1,1.133,1.813l-2.305,1.642a.665.665,0,1,0,.771,1.083l2.306-1.642a2.4,2.4,0,0,0-2.513-4.079Zm-22.338,8a.441.441,0,0,1-.436.434h-2.66a.44.44,0,0,1-.434-.434V979a.435.435,0,0,1,.434-.436h2.66a.441.441,0,0,1,.436.436v6.98Z" transform="translate(-536.342 -955.138)" fill="#12263f" fill-rule="evenodd"/>
    </g>
    <path id="Trazado_205570" data-name="Trazado 205570" d="M1109.618,2222.5l31.318-86.033a96.961,96.961,0,0,0,51.682.018l31.319,86.049A188.642,188.642,0,0,1,1109.618,2222.5Z" transform="translate(-47.646 501.739)" fill="#dce736"/>
    <g id="Grupo_150798" data-name="Grupo 150798" transform="translate(1104.809 2665.165)">
      <path id="Trazado_205733" data-name="Trazado 205733" d="M1543.759,2386.705a2.526,2.526,0,1,1-2.526,2.526,2.528,2.528,0,0,1,2.526-2.526Zm0,6.062a3.536,3.536,0,1,0-3.536-3.536,3.54,3.54,0,0,0,3.536,3.536Z" transform="translate(-1520.017 -2376.165)" fill="#12263f" fill-rule="evenodd"/>
      <path id="Trazado_205734" data-name="Trazado 205734" d="M1440.251,2379.8a2.526,2.526,0,1,1-2.526,2.526,2.529,2.529,0,0,1,2.526-2.526Zm0,6.062a3.536,3.536,0,1,0-3.536-3.536,3.54,3.54,0,0,0,3.536,3.536Z" transform="translate(-1431.664 -2370.274)" fill="#12263f" fill-rule="evenodd"/>
      <path id="Trazado_205735" data-name="Trazado 205735" d="M1511.048,2450.413l-2.168,2.169-2.169-2.169-.714.714,2.169,2.169-2.169,2.168.714.714,2.169-2.169,2.168,2.169.714-.714-2.169-2.168,2.169-2.169-.714-.714Z" transform="translate(-1490.802 -2431.409)" fill="#12263f" fill-rule="evenodd"/>
      <path id="Trazado_205736" data-name="Trazado 205736" d="M1563.537,2338.4l-2.169,2.169-2.169-2.169-.714.714,2.168,2.169-2.168,2.168.714.715,2.169-2.168,2.169,2.168.714-.715-2.168-2.168,2.168-2.169-.714-.714Z" transform="translate(-1535.606 -2335.796)" fill="#12263f" fill-rule="evenodd"/>
      <path id="Trazado_205737" data-name="Trazado 205737" d="M1408.273,2388.65a2.526,2.526,0,1,1-2.526-2.526,2.528,2.528,0,0,1,2.526,2.526Zm3.985-6.372a15.785,15.785,0,0,0,3.588-2.507,9.752,9.752,0,0,0,.943-1.072,11.449,11.449,0,0,0,2.163-6.118,4.857,4.857,0,0,0-.445-2.494l1.663.832.452-.9-3.031-1.516a.509.509,0,0,0-.419-.015.5.5,0,0,0-.285.307l-1.01,3.031.958.319.628-1.883c.048.1.092.182.128.25a3.72,3.72,0,0,1,.352,2.027,10.433,10.433,0,0,1-1.972,5.572,8.978,8.978,0,0,1-.848.958,14.765,14.765,0,0,1-3.365,2.335c-1.784,1.015-3.615,2.074-4.664,3.982a3.553,3.553,0,1,0,.867.516c.907-1.677,2.551-2.627,4.3-3.62Z" transform="translate(-1402.211 -2361.441)" fill="#12263f" fill-rule="evenodd"/>
      <path id="Trazado_205738" data-name="Trazado 205738" d="M1476.372,2321.215c.142.191.328.466.537.8l.854-.54c-.226-.359-.423-.65-.585-.864l-.807.606Z" transform="translate(-1465.515 -2320.608)" fill="#12263f" fill-rule="evenodd"/>
      <path id="Trazado_205739" data-name="Trazado 205739" d="M1497.754,2358.148c-.1-.261-.237-.586-.414-.967l-.915.427c.166.357.295.657.383.893l.946-.354Z" transform="translate(-1482.631 -2351.827)" fill="#12263f" fill-rule="evenodd"/>
      <path id="Trazado_205740" data-name="Trazado 205740" d="M1483.579,2333.022c.163.277.331.569.5.868l.881-.494c-.171-.305-.342-.6-.509-.886l-.87.513Z" transform="translate(-1471.666 -2330.766)" fill="#12263f" fill-rule="evenodd"/>
      <path id="Trazado_205741" data-name="Trazado 205741" d="M1490.269,2345.167c.16.3.317.6.463.888l.9-.457c-.15-.294-.309-.6-.474-.906l-.89.475Z" transform="translate(-1477.377 -2341.166)" fill="#12263f" fill-rule="evenodd"/>
    </g>
    <path id="Trazado_205563" data-name="Trazado 205563" d="M1805.125,1993.461l-31.311-86.036a96.96,96.96,0,0,0,39.6-33.207l79.3,45.786A188.649,188.649,0,0,1,1805.125,1993.461Z" transform="translate(-614.601 725.592)" fill="#75b62f"/>
    <path id="Trazado_205747" data-name="Trazado 205747" d="M2042.818,2102.413a2.433,2.433,0,0,1,1.849,1.85h6.411v-.018l0-.025,0-.025,0-.025,0-.025,0-.024,0-.025,0-.025,0-.025,0-.024,0-.025,0-.025,0-.024,0-.025,0-.024,0-.024,0-.025,0-.025,0-.025,0-.025,0-.024,0-.025,0-.025,0-.024,0-.025,0-.025-.005-.025,0-.025-.005-.025,0-.024,0-.024-.006-.025-.005-.025,0-.024-.006-.025-.006-.025-.005-.025-.006-.024-.006-.024-.006-.025-.006-.025-.006-.025-.007-.025-.006-.025-.007-.024-.006-.025-.007-.025-.006-.024-.007-.025-.007-.025-.007-.024-.007-.025-.008-.025-.006-.024-.008-.024-.007-.025-.007-.024-.008-.025-.008-.025-.007-.025-.008-.025-.008-.024-.008-.024-.008-.025-.008-.025-.009-.024-.008-.025-.008-.025-.009-.024-.009-.025-.009-.025-.009-.025-.009-.024-.009-.025-.01-.025-.009-.025-.009-.025-.01-.025-.01-.025-.01-.024-.01-.025-.01-.025-.01-.024-.01-.025-.01-.024-.01-.025-.011-.024-.01-.025-.011-.025-.011-.025-.011-.024-.011-.025-.011-.025-.011-.025-.011-.024-.011-.025-.011-.025-.012-.024-.011-.025-.012-.025-.011-.025-.012-.024-.012-.024-.012-.025-.012-.024-.012-.025-.012-.025h0l7.354,3.152-7.354,3.151.012-.024.012-.025.012-.025.012-.024.012-.025.012-.025.011-.025.012-.024.011-.025.012-.024.011-.024.011-.025.011-.025.011-.025.011-.024.011-.025.011-.025.011-.024.011-.024.01-.025.011-.025.01-.025.01-.025.01-.024.01-.025.01-.024.01-.025.01-.025.01-.025.01-.024.009-.025.009-.024.01-.024.009-.025.009-.025.009-.025.009-.025.009-.025.009-.024.008-.025.008-.025.009-.024.008-.025.008-.024.008-.025.008-.025.008-.025.007-.025.008-.024.008-.025.007-.024.007-.025.008-.025.006-.025.008-.025.007-.024.007-.025.007-.024.007-.025.006-.024.007-.025.006-.025.007-.025.006-.025.007-.025.006-.025.006-.024.006-.025.006-.025.006-.025.005-.025.006-.025.006-.025,0-.024.005-.025.006-.025,0-.025,0-.024.005-.024,0-.025.005-.025,0-.024,0-.025,0-.024,0-.025,0-.025,0-.025,0-.024,0-.024,0-.025,0-.025,0-.024,0-.025,0-.025,0-.025,0-.024,0-.025,0-.025,0-.025,0-.024,0-.025,0-.025,0-.025,0-.025,0-.025,0-.023v-.018h-6.411a2.434,2.434,0,0,1-1.849,1.85v6.41l.016,0,.024,0,.025,0,.025,0,.025,0,.024,0,.025,0,.025,0,.025,0,.024,0,.025,0,.024,0,.025,0,.024,0,.025,0,.025,0,.025,0,.025,0,.025,0,.025,0,.024,0,.025,0,.025,0,.024,0,.025,0,.025,0,.025,0,.025,0,.024-.005.025-.005.025,0,.024,0,.025-.006.024-.005.025-.005.025-.006.025-.006.024-.005.025-.006.025-.006.024-.006.025-.007.025-.006.024-.007.024-.006.025-.006.025-.007.024-.006.025-.007.025-.007.025-.006.025-.007.024-.007.025-.008.024-.007.025-.007.024-.008.025-.007.025-.008.024-.008.024-.008.025-.008.025-.008.025-.009.025-.009.024-.008.025-.008.024-.009.025-.008.025-.009.025-.009.025-.008.024-.01.025-.009.025-.009.024-.009.025-.009.024-.01.024-.009.025-.009.025-.01.024-.011.025-.009.024-.01.025-.01.025-.01.025-.011.025-.011.024-.011.025-.01.025-.011.024-.01.024-.011.025-.011.025-.011.024-.011.024-.011.025-.011.025-.012.025-.011.024-.011.025-.012.024-.012.024-.011.025-.013.025-.012.025-.012h0l-3.152,7.353-3.152-7.353.024.012.025.012.024.013.025.011.025.012.024.012.025.011.024.011.025.012.024.011.025.011.025.011.025.011.025.011.024.011.025.01.024.011.025.01.025.011.024.011.025.011.024.01.025.01.025.01.024.009.025.011.025.01.024.009.025.009.025.01.024.009.024.009.025.009.025.009.024.01.025.008.025.009.024.009.024.008.025.009.025.008.024.008.025.009.025.009.025.008.025.008.025.008.024.008.025.008.025.007.024.008.024.007.025.007.025.008.025.007.025.007.025.006.024.007.025.007.024.006.025.007.024.006.025.006.024.007.025.006.025.007.025.006.024.006.024.006.024.005.025.006.025.006.024.005.025.005.025.006.025,0,.024,0,.024.005.025.005.024,0,.024,0,.025,0,.024,0,.024,0,.025,0,.025,0,.024,0,.025,0,.024,0,.025,0,.025,0,.024,0,.025,0,.025,0,.025,0,.024,0,.025,0,.025,0,.024,0,.025,0,.024,0,.024,0,.025,0,.025,0,.024,0,.024,0,.016,0v-6.41a2.434,2.434,0,0,1-1.849-1.85h-6.41v.018l0,.023,0,.025,0,.025,0,.025,0,.025,0,.025,0,.024,0,.025,0,.025,0,.024,0,.025,0,.025,0,.025,0,.025,0,.024,0,.025,0,.025,0,.024,0,.024,0,.025,0,.025,0,.025,0,.024,0,.025,0,.024,0,.025,0,.025.005.024,0,.024,0,.025.005.025.005.025.005.024.005.025.005.025.006.025.005.025.006.025.006.025.006.024.006.025.006.025.006.025.007.025.006.025.006.025.007.024.007.025.006.024.007.025.007.024.007.025.007.025.007.025.008.025.008.024.008.025.008.024.008.025.008.025.008.025.008.025.008.024.009.025.009.024.009.025.008.025.009.024.009.025.008.025.01.025.009.025.009.025.009.024.01.024.01.025.01.024.01.025.01.025.01.025.009.024.01.025.01.024.011.025.01.025.01.025.01.025.011.024.011.024.01.025.011.025.011.024.011.025.011.025.011.025.011.024.011.024.012.025.011.024.012.025.012.025.012.025.012.024.012.025.012.025.012.024h0l-7.354-3.151,7.354-3.152-.012.025-.012.025-.012.024-.012.025-.012.024-.012.024-.012.025-.011.025-.012.025-.011.024-.011.025-.011.025-.011.024-.011.025-.011.025-.011.025-.01.024-.011.025-.011.025-.01.025-.01.024-.01.025-.011.024-.01.025-.01.024-.009.025-.01.025-.01.024-.01.025-.01.025-.01.025-.01.025-.009.025-.009.025-.009.024-.01.025-.008.025-.009.025-.009.024-.008.025-.009.025-.009.024-.009.025-.008.025-.008.024-.008.024-.008.025-.008.025-.008.025-.008.025-.008.024-.008.025-.007.024-.007.024-.007.025-.007.025-.007.024-.006.025-.007.025-.007.024-.006.025-.006.025-.007.024-.006.025-.006.025-.006.025-.006.025-.006.025-.006.024-.005.024-.006.025-.005.025-.005.025-.005.024-.005.025-.005.025,0,.024,0,.024-.005.025,0,.025,0,.025,0,.025,0,.025,0,.024,0,.025,0,.025,0,.024,0,.025,0,.025,0,.025,0,.025,0,.024,0,.024,0,.025,0,.024,0,.025,0,.025,0,.024,0,.025,0,.025,0,.025,0,.024,0,.025,0,.025,0,.025,0,.025v.018h6.41a2.433,2.433,0,0,1,1.849-1.85V2096h-.016l-.024,0-.024,0-.025,0-.025,0-.024,0-.024,0-.025,0-.024,0-.025,0-.025,0-.024,0-.025,0-.025,0-.025,0-.024,0-.025,0-.025,0-.024,0-.025,0-.024,0-.025,0-.025.005-.024,0-.024,0-.025,0-.024.005-.024,0-.025,0-.024,0-.024,0-.025.005-.025.006-.025,0-.024.006-.025.005-.025.006-.024.006-.024.006-.024.006-.025.006-.025.006-.025.006-.024.007-.025.006-.024.006-.025.007-.024.007-.025.006-.024.007-.025.006-.025.007-.025.007-.025.007-.025.007-.024.008-.024.008-.025.007-.025.008-.024.008-.025.008-.025.009-.025.007-.025.009-.025.009-.024.008-.025.009-.025.008-.024.008-.024.01-.025.008-.025.009-.024.009-.025.01-.025.009-.024.008-.024.01-.025.009-.025.01-.024.009-.025.01-.025.009-.024.01-.025.01-.025.01-.024.011-.025.01-.024.01-.025.011-.025.011-.024.011-.025.011-.024.011-.025.011-.025.011-.025.011-.025.011-.024.011-.025.012-.024.011-.025.012-.024.012-.025.011-.025.012-.024.012-.025.012-.024.013h0l3.152-7.354,3.152,7.354-.025-.013-.025-.012-.025-.012-.024-.012-.024-.011-.025-.012-.024-.012-.025-.011-.025-.012-.025-.011-.024-.011-.024-.011-.025-.011-.025-.011-.024-.011-.024-.011-.025-.011-.025-.011-.024-.011-.025-.01-.025-.01-.025-.011-.025-.01-.024-.01-.025-.01-.024-.009-.025-.01-.025-.009-.024-.01-.024-.009-.025-.01-.024-.008-.025-.009-.025-.01-.024-.009-.025-.009-.025-.008-.025-.01-.025-.008-.024-.008-.025-.009-.024-.008-.025-.009-.025-.009-.025-.007-.025-.009-.024-.008-.024-.008-.025-.008-.025-.007-.024-.008-.025-.008-.024-.007-.025-.007-.024-.007-.025-.007-.025-.006-.025-.007-.025-.006-.024-.007-.025-.007-.025-.006-.024-.006-.024-.007-.025-.006-.025-.006-.024-.006-.025-.006-.025-.006-.024-.006-.025-.006-.025-.005-.025-.006-.024,0-.025-.006-.024-.005-.025,0-.025,0-.024,0-.025,0-.025-.005-.025,0-.025,0-.024,0-.025-.005-.025,0-.024,0-.025,0-.025,0-.025,0-.025,0-.025,0-.025,0-.024,0-.025,0-.024,0-.025,0-.024,0-.025,0-.025,0-.025,0-.024,0-.025,0-.025,0-.025,0-.024,0h-.016v6.41Z" transform="translate(-830.651 541.902)" fill="#12263f" fill-rule="evenodd"/>
    <path id="Trazado_205542" data-name="Trazado 205542" d="M1659.186,255.424l-58.854,70.134a96.954,96.954,0,0,0-48.559-17.693V216.293A188.647,188.647,0,0,1,1659.186,255.424Z" transform="translate(-425.068 2140.791)" fill="#75b62f"/>
    <g id="Grupo_150800" data-name="Grupo 150800" transform="translate(1147.577 2383.802)">
      <path id="Trazado_205748" data-name="Trazado 205748" d="M1700.745,561.875a3.8,3.8,0,0,0-.2-2.248,3.078,3.078,0,0,0-5.368,0,4.309,4.309,0,0,0-.114,2.248c.172,2.11,1.124,3.842,2.833,3.842s2.7-1.732,2.845-3.842Z" transform="translate(-1691.052 -538.738)" fill="#12263f" fill-rule="evenodd"/>
      <path id="Trazado_205749" data-name="Trazado 205749" d="M1674.945,611.47h.883l-.367,1.032h-.975l-.355-1.032Zm-.482,1.377,1.021-.012.654,1.984h5.713l-.011-2.684a.4.4,0,0,0-.253-.321,13.027,13.027,0,0,1-4.393-2.363,3.13,3.13,0,0,1-4.359,0c-.826,1-3.533,2.053-4.4,2.305a.4.4,0,0,0-.264.344l.011,2.718h5.678Z" transform="translate(-1668.166 -582.61)" fill="#12263f" fill-rule="evenodd"/>
      <path id="Trazado_205750" data-name="Trazado 205750" d="M1769.879,533.133l6.217,3.59,1.01-1.744-6.217-3.59v-7.18h-2.019v7.18l-6.217,3.59,1.009,1.744Z" transform="translate(-1748.82 -509.847)" fill="#12263f" fill-rule="evenodd"/>
      <path id="Trazado_205751" data-name="Trazado 205751" d="M1888.65,561.875a3.885,3.885,0,0,0-.206-2.248,3.068,3.068,0,0,0-5.356,0,4.078,4.078,0,0,0-.115,2.248c.161,2.11,1.113,3.842,2.833,3.842s2.7-1.732,2.844-3.842Z" transform="translate(-1851.44 -538.738)" fill="#12263f" fill-rule="evenodd"/>
      <path id="Trazado_205752" data-name="Trazado 205752" d="M1862.9,611.47h.872l-.355,1.032h-.975l-.367-1.032Zm-.482,1.377,1.009-.012.654,1.984h5.712l-.011-2.684a.373.373,0,0,0-.253-.321,12.992,12.992,0,0,1-4.382-2.363,3.13,3.13,0,0,1-4.359,0c-.826,1-3.544,2.053-4.416,2.305a.407.407,0,0,0-.252.344l.011,2.718h5.667Z" transform="translate(-1828.604 -582.61)" fill="#12263f" fill-rule="evenodd"/>
      <path id="Trazado_205753" data-name="Trazado 205753" d="M1795.1,429.948a3.889,3.889,0,0,0-.207-2.248,3.057,3.057,0,0,0-5.356,0,4.079,4.079,0,0,0-.115,2.248c.161,2.111,1.113,3.843,2.833,3.843s2.7-1.732,2.845-3.843Z" transform="translate(-1771.589 -426.117)" fill="#12263f" fill-rule="evenodd"/>
      <path id="Trazado_205754" data-name="Trazado 205754" d="M1769.354,479.532h.872l-.355,1.044h-.975l-.367-1.044Zm-.482,1.376,1.01-.011.654,2h5.712l-.011-2.7a.352.352,0,0,0-.252-.31,12.874,12.874,0,0,1-4.394-2.374,3.087,3.087,0,0,1-4.347,0c-.826,1.009-3.544,2.053-4.416,2.306-.229.069-.252.356-.252.356l.012,2.718h5.666Z" transform="translate(-1748.753 -469.988)" fill="#12263f" fill-rule="evenodd"/>
    </g>
    <path id="Trazado_205598" data-name="Trazado 205598" d="M821.834,216.54l0,91.556a96.961,96.961,0,0,0-48.572,17.66L714.4,255.608A188.641,188.641,0,0,1,821.834,216.54Z" transform="translate(289.711 2140.58)" fill="#3d46c2"/>
    <g id="Grupo_150801" data-name="Grupo 150801" transform="translate(1054.155 2393.659)">
      <path id="Trazado_205755" data-name="Trazado 205755" d="M1277.369,483.074a.586.586,0,1,1,0-1.172.586.586,0,0,1,0,1.172Zm0-1.95a1.361,1.361,0,1,0,1.361,1.361,1.361,1.361,0,0,0-1.361-1.361Z" transform="translate(-1243.832 -478.927)" fill="#fff" fill-rule="evenodd"/>
      <path id="Trazado_205756" data-name="Trazado 205756" d="M1094.9,478.616l-3.375,1.184a.16.16,0,0,1-.076.018.227.227,0,0,1-.206-.147l-3.97-11.3a.24.24,0,0,1,.012-.171.23.23,0,0,1,.124-.112l3.375-1.184a.29.29,0,0,1,.071-.012.215.215,0,0,1,.206.147l3.97,11.3a.216.216,0,0,1-.129.277Zm-7.133,2.456c-.589-.477-1.3-1.072-2.056-1.714-1.478-1.249-3.151-2.662-4.789-3.893a17.9,17.9,0,0,0-4.53-2.7,4.346,4.346,0,0,0-2.421.212,7.6,7.6,0,0,0-1.437.9,8.191,8.191,0,0,1-1.237.807,4.328,4.328,0,0,1-1.614.324,2.169,2.169,0,0,1-1.419-.342c-.076-.077-.277-.265-.036-.837a3.349,3.349,0,0,1,.866-.919c.2-.171.412-.353.613-.548.365-.348.7-.713,1.031-1.066.354-.371.689-.73.955-.96a7.2,7.2,0,0,1,3.151-1.667,13.6,13.6,0,0,1,3.888.518c.353.083.713.171,1.1.265a20.365,20.365,0,0,0,3.328.63,10.7,10.7,0,0,0,3.776-.348l3.316,9.448a8.115,8.115,0,0,0-2.48,1.9Zm1.255,3.628a1.58,1.58,0,0,1-1.9.713,1.749,1.749,0,0,1-.265-.118l-5-2.851a.389.389,0,1,0-.383.677l5,2.845a.7.7,0,0,0,.13.071.4.4,0,0,0,.018.082,1.58,1.58,0,0,1-1.114,1.938,1.561,1.561,0,0,1-1.2-.153l-5.142-2.927a.382.382,0,0,0-.524.147.392.392,0,0,0,.141.53l4.577,2.6a1.579,1.579,0,0,1-2.321,1.738l-4.606-2.621a.388.388,0,0,0-.389.671l2.833,1.614a1.583,1.583,0,0,1-1.1,1.979,1.559,1.559,0,0,1-1.2-.153l-1.9-1.131.194-.253a1.726,1.726,0,0,0-.33-2.415,1.7,1.7,0,0,0-1.042-.353,1.735,1.735,0,0,0-.46.065,1.641,1.641,0,0,0,0-.418,1.855,1.855,0,0,0-1.861-1.667,2.025,2.025,0,0,0-.719.135,1.891,1.891,0,0,0-.736-1.567,1.845,1.845,0,0,0-1.131-.383,1.98,1.98,0,0,0-.948.247,1.723,1.723,0,0,0-2.745-1.143c-.424-.495-.813-.966-1.166-1.39a14.843,14.843,0,0,0-1.92-2.1l3.323-9.448a9.523,9.523,0,0,0,4.659.942c.177,0,.347,0,.518-.006-.047.053-.1.106-.147.153-.324.347-.654.7-1,1.037-.189.183-.389.353-.583.518a3.763,3.763,0,0,0-1.078,1.207,1.861,1.861,0,0,0-.165.954,1.244,1.244,0,0,0,.383.742,2.848,2.848,0,0,0,1.967.56,5.048,5.048,0,0,0,1.938-.4,9.346,9.346,0,0,0,1.36-.878,6.915,6.915,0,0,1,1.278-.813,3.763,3.763,0,0,1,1.873-.188c2.373.8,6.238,4.064,9.065,6.45,1.314,1.113,2.456,2.079,3.186,2.58a1.646,1.646,0,0,1,.625,2.174Zm-16.1,6.067a.941.941,0,0,1-.754-1.514l.583-.772a.953.953,0,0,1,.754-.371.949.949,0,0,1,.754,1.52l-.448.589a.078.078,0,0,0-.017.024l-.118.153a.943.943,0,0,1-.754.371Zm-3.228-1.626a1.1,1.1,0,0,1-.424-.76,1.252,1.252,0,0,1,.247-.889l.7-.913a1.227,1.227,0,0,1,.966-.495,1.067,1.067,0,0,1,.665.224,1.1,1.1,0,0,1,.424.76,1.215,1.215,0,0,1-.253.884l-.695.919a1.234,1.234,0,0,1-.972.489,1.1,1.1,0,0,1-.66-.218Zm-2.586-1.808a1.074,1.074,0,0,1-.424-.76,1.243,1.243,0,0,1,.247-.889l.7-.913a1.231,1.231,0,0,1,.972-.495,1.091,1.091,0,0,1,.665.224,1.174,1.174,0,0,1,.171,1.643l-.695.919a1.242,1.242,0,0,1-.972.489,1.1,1.1,0,0,1-.66-.218Zm-2.321-1.838a.942.942,0,0,1-.365-.624.974.974,0,0,1,.189-.7l.583-.766h0a.943.943,0,0,1,.754-.371.918.918,0,0,1,.572.194.946.946,0,0,1,.177,1.325l-.583.766a.934.934,0,0,1-.754.371.918.918,0,0,1-.571-.194Zm-4.188-5.678a.155.155,0,0,1-.071-.018l-3.375-1.184a.215.215,0,0,1-.135-.277l3.97-11.3a.216.216,0,0,1,.206-.147.294.294,0,0,1,.071.012l3.375,1.184a.212.212,0,0,1,.124.112.215.215,0,0,1,.012.171l-3.97,11.3a.215.215,0,0,1-.206.147Zm35.165-1.738-3.97-11.3a1,1,0,0,0-.943-.666.905.905,0,0,0-.33.059l-3.375,1.184a1.016,1.016,0,0,0-.565.507,1,1,0,0,0-.041.76l.13.365a12.276,12.276,0,0,1-6.656-.3c-.383-.094-.754-.188-1.119-.265a13.5,13.5,0,0,0-4.188-.53,8.059,8.059,0,0,0-3.528,1.844c-.03.03-.059.053-.089.083-.177,0-.359.006-.554.006a9.608,9.608,0,0,1-5.13-.907l.1-.295a.993.993,0,0,0-.607-1.266l-3.375-1.184a.906.906,0,0,0-.33-.059.99.99,0,0,0-.937.666l-3.97,11.3a.989.989,0,0,0,.607,1.267l3.375,1.19a1.047,1.047,0,0,0,.33.053h0a1,1,0,0,0,.937-.666l.012-.024a20.011,20.011,0,0,1,1.59,1.808c.377.448.789.954,1.249,1.478l-.395.518a1.721,1.721,0,0,0,.324,2.409,1.726,1.726,0,0,0,1.042.353,1.831,1.831,0,0,0,.542-.083,1.46,1.46,0,0,0,.012.277,1.846,1.846,0,0,0,.724,1.284,1.821,1.821,0,0,0,1.131.383,1.885,1.885,0,0,0,.719-.142,1.5,1.5,0,0,0,.012.283,1.856,1.856,0,0,0,.724,1.284,1.822,1.822,0,0,0,1.131.383,2.032,2.032,0,0,0,.854-.194,1.692,1.692,0,0,0,.672,1.249,1.666,1.666,0,0,0,1.043.353,1.718,1.718,0,0,0,1.284-.571l1.979,1.184.006.006a2.35,2.35,0,0,0,1.166.306,2.268,2.268,0,0,0,.624-.082,2.334,2.334,0,0,0,1.431-1.107,2.363,2.363,0,0,0,.306-1.137l.937.53a2.334,2.334,0,0,0,1.16.312,2.285,2.285,0,0,0,.63-.088,2.339,2.339,0,0,0,1.426-1.107,2.367,2.367,0,0,0,.306-1.084,2.31,2.31,0,0,0,.907.183,2.539,2.539,0,0,0,.63-.082,2.357,2.357,0,0,0,1.72-2.533c.071.006.141.006.206.006a2.354,2.354,0,0,0,2.05-1.19,2.273,2.273,0,0,0,.206-1.773,2.674,2.674,0,0,0-1.06-1.431c-.135-.094-.289-.206-.459-.33a7.523,7.523,0,0,1,2.126-1.643l.006.012a1,1,0,0,0,.937.666,1.044,1.044,0,0,0,.33-.053l3.375-1.19a.992.992,0,0,0,.613-1.267Z" transform="translate(-1056.231 -466.117)" fill="#fff" fill-rule="evenodd"/>
      <path id="Trazado_205757" data-name="Trazado 205757" d="M1070.872,535.159a.586.586,0,0,1,0-1.172.586.586,0,1,1,0,1.172Zm0-1.95a1.364,1.364,0,1,0,1.36,1.367,1.366,1.366,0,0,0-1.36-1.367Z" transform="translate(-1067.567 -523.386)" fill="#fff" fill-rule="evenodd"/>
    </g>
    <path id="Trazado_205549" data-name="Trazado 205549" d="M2078.87,648.965,1988.7,664.86a96.954,96.954,0,0,0-25.825-44.767l58.861-70.148A188.638,188.638,0,0,1,2078.87,648.965Z" transform="translate(-775.986 1855.986)" fill="#dce736"/>
    <g id="Grupo_150802" data-name="Grupo 150802" transform="translate(1228.198 2448.233)">
      <path id="Trazado_205758" data-name="Trazado 205758" d="M2273.045,846.669a1.141,1.141,0,0,0,.807-.334l3.162-3.162a.7.7,0,0,0-.448-1.185l-1.683-.105,1.1-1.1a.472.472,0,0,0-.668-.667l-1.1,1.1-.106-1.683a.7.7,0,0,0-1.186-.448l-3.162,3.162a1.144,1.144,0,0,0-.332.879l.109,1.732a14.889,14.889,0,0,0-20.658,21.361.472.472,0,1,0,.7-.635,13.95,13.95,0,0,1,19.845-19.576l-2.153,2.153A10.918,10.918,0,0,0,2250.18,861.2h0a10.924,10.924,0,0,0,20.412-2.772.472.472,0,1,0-.924-.192,9.98,9.98,0,0,1-18.649,2.532h0a9.846,9.846,0,0,1-1.1-4.561,9.97,9.97,0,0,1,16.689-7.377l-2.134,2.134a6.974,6.974,0,1,0,.667.667l2.134-2.134a9.941,9.941,0,0,1,2.6,6.651.472.472,0,0,0,.472.469h0a.472.472,0,0,0,.469-.475,10.879,10.879,0,0,0-2.88-7.313l2.153-2.153a13.95,13.95,0,0,1-18.966,20.37.472.472,0,0,0-.594.733,14.887,14.887,0,0,0,24.25-11.574,14.766,14.766,0,0,0-2.927-8.867q-.3-.4-.618-.777c1.85.116,1.75.111,1.809.111Zm-7.131,9.533a6.025,6.025,0,1,1-2.112-4.574l-2.147,2.147a3,3,0,1,0,.667.667l2.147-2.147a5.994,5.994,0,0,1,1.444,3.907Zm-6.352.333a.471.471,0,0,0,.667,0l1.415-1.414a2.058,2.058,0,1,1-.667-.668l-1.414,1.414a.471.471,0,0,0,0,.667Zm10.811-13.47a.2.2,0,0,1,.057-.152l2.773-2.773.123,1.964-2.835,2.836Zm.785,2.542,2.836-2.836,1.964.123-2.773,2.773a.2.2,0,0,1-.152.058Zm0,0" transform="translate(-2245.009 -838.88)" fill="#12263f"/>
      <circle id="Elipse_5796" data-name="Elipse 5796" cx="1.167" cy="1.167" r="1.167" transform="translate(13.288 17.331) rotate(-45)" fill="#12263f"/>
    </g>
    <path id="Trazado_205556" data-name="Trazado 205556" d="M2175.268,1440.791l-79.287-45.78a96.972,96.972,0,0,0,8.992-50.895l90.18-15.9A188.632,188.632,0,0,1,2175.268,1440.791Z" transform="translate(-889.601 1191.659)" fill="#3d46c2"/>
    <path id="Trazado_205584" data-name="Trazado 205584" d="M217.109,1328.258l90.164,15.9a96.965,96.965,0,0,0,8.957,50.9l-79.3,45.786A188.646,188.646,0,0,1,217.109,1328.258Z" transform="translate(715.625 1191.621)" fill="#75b62f"/>
    <ellipse id="Elipse_5733" data-name="Elipse 5733" cx="67.432" cy="67.432" rx="67.432" ry="67.432" transform="translate(1051.694 2477.618)" fill="none" stroke="#13273e" stroke-width="2"/>
    <text id="Factores_claves_de_éxito_" data-name="Factores
claves
de éxito " transform="translate(1120.213 2530.05)" fill="#12263f" font-size="20" font-family="Roboto-Bold, Roboto" font-weight="700"><tspan x="-38.877" y="0">Factores</tspan><tspan x="-28.691" y="22">claves</tspan><tspan x="-38.052" y="44">de éxito </tspan></text>
    <g id="Grupo_150803" data-name="Grupo 150803" transform="translate(1235.154 2548.916)">
      <path id="Trazado_205759" data-name="Trazado 205759" d="M2434.369,1553.02c.112-1.433.281-2.668-.337-3.707a5.051,5.051,0,0,0-8.846,0c-.562,1.011-.281,2.415-.2,3.707.281,3.482,1.854,6.346,4.69,6.346s4.437-2.864,4.69-6.346Z" transform="translate(-2405.472 -1546.701)" fill="#fefefe" fill-rule="evenodd"/>
      <path id="Trazado_205760" data-name="Trazado 205760" d="M2391.77,1632.121h1.432l-.589,1.91h-1.6l-.59-1.91Zm-.814,2.527,1.684-.028,1.1,3.651h9.436l-.028-4.914a.7.7,0,0,0-.421-.59c-1.32-.449-5.392-2.246-7.245-4.353a4.78,4.78,0,0,1-7.189,0c-1.377,1.854-5.842,3.763-7.3,4.24-.365.112-.421.646-.421.646l.029,4.971h9.379Z" transform="translate(-2367.675 -1616.451)" fill="#fefefe" fill-rule="evenodd"/>
      <path id="Trazado_205761" data-name="Trazado 205761" d="M2339.4,1575.031a5.736,5.736,0,0,0-.281-3.23,4.534,4.534,0,0,0-3.818-2.275,4.448,4.448,0,0,0-3.9,2.275c-.506.871-.252,2.078-.168,3.23.225,3.033,1.6,5.532,4.073,5.532s3.875-2.5,4.1-5.532Z" transform="translate(-2325.446 -1566.185)" fill="#fefefe" fill-rule="evenodd"/>
      <path id="Trazado_205762" data-name="Trazado 205762" d="M2537.357,1575.031a5.751,5.751,0,0,0-.282-3.23,4.415,4.415,0,0,0-7.723,0c-.505.871-.252,2.078-.169,3.23.226,3.033,1.6,5.532,4.073,5.532s3.876-2.5,4.1-5.532Z" transform="translate(-2494.418 -1566.185)" fill="#fefefe" fill-rule="evenodd"/>
      <path id="Trazado_205763" data-name="Trazado 205763" d="M2539.992,1650.578h-4.1v-1.264h4.1Zm2.724-2.78a.491.491,0,0,0-.336-.449c-1.18-.337-4.719-1.769-6.347-3.4-.786.87-3,3.342-3.089,3.342s-2.387-2.444-3.173-3.342a4.97,4.97,0,0,1-1.123.954c.168.084.309.14.449.2a1.61,1.61,0,0,1,.983,1.433v.028l.028,5.111h12.637Z" transform="translate(-2494.077 -1629.714)" fill="#fefefe" fill-rule="evenodd"/>
      <path id="Trazado_205764" data-name="Trazado 205764" d="M2304.821,1646.535v-.084a1.736,1.736,0,0,1,1.011-1.489c.168-.056.365-.14.618-.225a6.786,6.786,0,0,1-.927-.786c-.814.87-3.033,3.342-3.117,3.342s-2.387-2.444-3.174-3.342c-1.179,1.432-5.083,2.948-6.347,3.314a.6.6,0,0,0-.365.505l.028,3.9h12.3Z" transform="translate(-2292.521 -1629.714)" fill="#fefefe" fill-rule="evenodd"/>
    </g>
    <g id="Grupo_150799" data-name="Grupo 150799" transform="translate(967.509 2540.132)">
      <path id="Trazado_205742" data-name="Trazado 205742" d="M456.811,1521.6l3.2,5.536a2.538,2.538,0,1,0,4.4-2.538l-1.9-3.3,1.649-.952a.635.635,0,0,0,.232-.867l-.825-1.429,12.155-2.385a1.9,1.9,0,0,0,1.543-2.852l-2.109-3.653,1.348-2.042a.635.635,0,0,0,.02-.667l-1.269-2.2a.635.635,0,0,0-.588-.316l-2.442.146-2.341-4.055a1.887,1.887,0,0,0-1.625-.952h-.024a1.887,1.887,0,0,0-1.6.877l-8.289,10.561-5.389,3.112a4.443,4.443,0,0,0-2.221,3.856v0a4.442,4.442,0,0,0,6.091,4.112Zm6.493,3.632a1.269,1.269,0,0,1-2.2,1.269l-3.173-5.5,2.2-1.269,3.173,5.5Zm-1.44-5.032-.634-1.1,1.1-.635.635,1.1-1.1.635Zm12.475-14.97.877,1.519-.782,1.184-1.512-2.619,1.417-.084Zm-6.658-4.578a.634.634,0,0,1,1.091.013l7.381,12.784a.634.634,0,0,1-.534.952,2.319,2.319,0,0,0-.348.059l-7.808-13.523c.164-.211.185-.231.218-.284Zm-1.062,1.36,7.335,12.706-11.071,2.171-3.366-5.83,7.1-9.047Zm-14.206,17.05a3.171,3.171,0,0,1,1.161-4.334l4.946-2.856,3.173,5.5-4.946,2.856a3.178,3.178,0,0,1-4.334-1.161Z" transform="translate(-450.72 -1497.663)" fill="#12263f" fill-rule="evenodd"/>
      <path id="Trazado_205743" data-name="Trazado 205743" d="M473.237,1623.891a.635.635,0,0,0-.867-.232l-1.1.635a.636.636,0,0,1-.867-.232.635.635,0,1,0-1.1.635,1.907,1.907,0,0,0,2.6.7l1.1-.635a.635.635,0,0,0,.232-.867Z" transform="translate(-466.511 -1603.929)" fill="#12263f" fill-rule="evenodd"/>
      <path id="Trazado_205744" data-name="Trazado 205744" d="M643.684,1507.884l-3.536,1.968a.635.635,0,0,0,.617,1.109l3.536-1.968a.635.635,0,0,0-.617-1.109Z" transform="translate(-612.137 -1505.108)" fill="#12263f" fill-rule="evenodd"/>
      <path id="Trazado_205745" data-name="Trazado 205745" d="M644.715,1549.288l-2.452-.657a.635.635,0,1,0-.329,1.226l2.452.657a.635.635,0,0,0,.328-1.226Z" transform="translate(-613.538 -1539.94)" fill="#12263f" fill-rule="evenodd"/>
      <path id="Trazado_205746" data-name="Trazado 205746" d="M617.622,1489.862l-.658,2.452a.635.635,0,1,0,1.226.329l.658-2.452a.635.635,0,0,0-1.226-.329Z" transform="translate(-592.607 -1489.391)" fill="#12263f" fill-rule="evenodd"/>
    </g>
    <path id="Trazado_206382" data-name="Trazado 206382" d="M-26.092-1.53h4.043V0H-28V-9.242h1.9ZM-19.141,0h-1.841V-6.868h1.841ZM-21.09-8.646a.9.9,0,0,1,.276-.679,1.037,1.037,0,0,1,.752-.267,1.04,1.04,0,0,1,.749.267.9.9,0,0,1,.279.679.9.9,0,0,1-.282.686,1.042,1.042,0,0,1-.746.267,1.042,1.042,0,0,1-.746-.267A.9.9,0,0,1-21.09-8.646Zm3.174,5.161a4.139,4.139,0,0,1,.72-2.558A2.338,2.338,0,0,1-15.225-7a2.1,2.1,0,0,1,1.657.749v-3.5h1.841V0h-1.657l-.089-.73a2.159,2.159,0,0,1-1.765.857,2.331,2.331,0,0,1-1.946-.955A4.272,4.272,0,0,1-17.916-3.485Zm1.834.131a2.726,2.726,0,0,0,.336,1.486,1.1,1.1,0,0,0,.978.517,1.227,1.227,0,0,0,1.2-.721V-4.8a1.21,1.21,0,0,0-1.187-.721Q-16.082-5.516-16.082-3.354ZM-7.144.127A3.372,3.372,0,0,1-9.6-.8a3.294,3.294,0,0,1-.949-2.469v-.178a4.149,4.149,0,0,1,.4-1.85A2.935,2.935,0,0,1-9.02-6.554,3.18,3.18,0,0,1-7.347-7a2.85,2.85,0,0,1,2.219.889,3.611,3.611,0,0,1,.809,2.52v.749H-8.693a1.7,1.7,0,0,0,.536,1.079,1.621,1.621,0,0,0,1.133.406A1.98,1.98,0,0,0-5.367-2.12l.9,1.009A2.754,2.754,0,0,1-5.583-.2,3.665,3.665,0,0,1-7.144.127Zm-.209-5.643a1.146,1.146,0,0,0-.885.37,1.915,1.915,0,0,0-.435,1.058h2.552v-.147a1.366,1.366,0,0,0-.33-.947A1.183,1.183,0,0,0-7.354-5.516Zm7.935.368A4.984,4.984,0,0,0-.079-5.2a1.344,1.344,0,0,0-1.365.7V0H-3.279V-6.868h1.733l.051.819A1.7,1.7,0,0,1,.035-7a1.922,1.922,0,0,1,.571.083ZM5.253,0a2.037,2.037,0,0,1-.184-.616A2.22,2.22,0,0,1,3.336.127,2.439,2.439,0,0,1,1.663-.457,1.878,1.878,0,0,1,1-1.93a1.941,1.941,0,0,1,.809-1.676A3.994,3.994,0,0,1,4.148-4.2h.844v-.394a1.132,1.132,0,0,0-.244-.762.961.961,0,0,0-.771-.286,1.093,1.093,0,0,0-.727.222.755.755,0,0,0-.263.609H1.152a1.843,1.843,0,0,1,.368-1.1,2.434,2.434,0,0,1,1.041-.8A3.794,3.794,0,0,1,4.072-7a3,3,0,0,1,2.015.638,2.232,2.232,0,0,1,.746,1.793v2.977A3.284,3.284,0,0,0,7.106-.108V0ZM3.736-1.276a1.58,1.58,0,0,0,.749-.181,1.188,1.188,0,0,0,.508-.486V-3.123H4.307q-1.377,0-1.466.952l-.006.108a.734.734,0,0,0,.241.565A.937.937,0,0,0,3.736-1.276Zm6.614-.2h3.358V0h-5.7V-1.117l3.231-4.272H8.1V-6.868h5.5v1.081Zm4.139-2.006a4.025,4.025,0,0,1,.752-2.545A2.437,2.437,0,0,1,17.269-7a2.138,2.138,0,0,1,1.758.774l.076-.647h1.663v6.64a2.935,2.935,0,0,1-.409,1.568A2.629,2.629,0,0,1,19.2,2.355a4.05,4.05,0,0,1-1.739.349,3.766,3.766,0,0,1-1.473-.3,2.614,2.614,0,0,1-1.085-.778L15.72.508a2.149,2.149,0,0,0,1.663.768,1.573,1.573,0,0,0,1.136-.39,1.464,1.464,0,0,0,.406-1.108V-.59a2.122,2.122,0,0,1-1.669.717,2.431,2.431,0,0,1-2-.968,4.024,4.024,0,0,1-.765-2.568Zm1.834.131a2.52,2.52,0,0,0,.375,1.47,1.19,1.19,0,0,0,1.028.532,1.273,1.273,0,0,0,1.2-.631v-2.9a1.27,1.27,0,0,0-1.187-.631,1.2,1.2,0,0,0-1.038.542A2.841,2.841,0,0,0,16.323-3.354ZM21.89-3.5a4.073,4.073,0,0,1,.394-1.822,2.881,2.881,0,0,1,1.133-1.238A3.306,3.306,0,0,1,25.134-7a3.127,3.127,0,0,1,2.269.851,3.414,3.414,0,0,1,.981,2.311l.013.47a3.59,3.59,0,0,1-.882,2.536,3.067,3.067,0,0,1-2.368.955,3.082,3.082,0,0,1-2.371-.952,3.653,3.653,0,0,1-.885-2.59Zm1.834.13a2.567,2.567,0,0,0,.368,1.5,1.215,1.215,0,0,0,1.054.518,1.217,1.217,0,0,0,1.041-.512A2.809,2.809,0,0,0,26.562-3.5a2.542,2.542,0,0,0-.375-1.488,1.217,1.217,0,0,0-1.054-.528,1.2,1.2,0,0,0-1.041.524A2.857,2.857,0,0,0,23.724-3.367Z" transform="translate(1167.269 2436.031)" fill="#12263f"/>
    <path id="Trazado_206384" data-name="Trazado 206384" d="M-19.843-2.425a.977.977,0,0,0-.381-.828,5,5,0,0,0-1.371-.609,9.72,9.72,0,0,1-1.568-.632,2.562,2.562,0,0,1-1.574-2.292,2.232,2.232,0,0,1,.422-1.336A2.753,2.753,0,0,1-23.1-9.039a4.563,4.563,0,0,1,1.774-.33,4.154,4.154,0,0,1,1.765.359A2.81,2.81,0,0,1-18.361-8a2.649,2.649,0,0,1,.428,1.485h-1.9a1.246,1.246,0,0,0-.4-.987,1.644,1.644,0,0,0-1.124-.352,1.756,1.756,0,0,0-1.085.3.931.931,0,0,0-.387.778.892.892,0,0,0,.454.755,5.128,5.128,0,0,0,1.336.571A5.773,5.773,0,0,1-18.675-4.24a2.415,2.415,0,0,1,.743,1.8A2.224,2.224,0,0,1-18.84-.555a3.974,3.974,0,0,1-2.444.682,4.719,4.719,0,0,1-1.942-.39,3.074,3.074,0,0,1-1.336-1.07,2.739,2.739,0,0,1-.46-1.574h1.911q0,1.53,1.828,1.53a1.778,1.778,0,0,0,1.06-.276A.9.9,0,0,0-19.843-2.425ZM-17.05-3.5a4.073,4.073,0,0,1,.394-1.822,2.881,2.881,0,0,1,1.133-1.238A3.306,3.306,0,0,1-13.806-7a3.128,3.128,0,0,1,2.269.851,3.414,3.414,0,0,1,.981,2.311l.013.47a3.59,3.59,0,0,1-.882,2.536,3.067,3.067,0,0,1-2.368.955,3.082,3.082,0,0,1-2.371-.952,3.653,3.653,0,0,1-.885-2.59Zm1.834.13a2.567,2.567,0,0,0,.368,1.5,1.215,1.215,0,0,0,1.054.518,1.217,1.217,0,0,0,1.041-.512A2.809,2.809,0,0,0-12.378-3.5a2.542,2.542,0,0,0-.375-1.488,1.217,1.217,0,0,0-1.054-.528,1.2,1.2,0,0,0-1.041.524A2.857,2.857,0,0,0-15.215-3.367ZM-7.478,0H-9.318V-9.75h1.841Zm5.624-.7A2.3,2.3,0,0,1-3.732.127,2.17,2.17,0,0,1-5.418-.508a2.71,2.71,0,0,1-.594-1.86v-4.5h1.834v4.442q0,1.074.978,1.074A1.325,1.325,0,0,0-1.917-2V-6.868H-.076V0H-1.8Zm6.018-.654a1.2,1.2,0,0,0,.825-.279.979.979,0,0,0,.33-.743H7.04a2.353,2.353,0,0,1-.381,1.279,2.513,2.513,0,0,1-1.025.9A3.208,3.208,0,0,1,4.2.127,2.982,2.982,0,0,1,1.873-.809,3.705,3.705,0,0,1,1.022-3.4v-.121a3.663,3.663,0,0,1,.844-2.533A2.947,2.947,0,0,1,4.183-7a2.889,2.889,0,0,1,2.066.733A2.6,2.6,0,0,1,7.04-4.31H5.319a1.261,1.261,0,0,0-.33-.871,1.1,1.1,0,0,0-.838-.335,1.1,1.1,0,0,0-.968.467,2.708,2.708,0,0,0-.327,1.516v.191A2.742,2.742,0,0,0,3.18-1.816,1.119,1.119,0,0,0,4.164-1.352ZM10.023,0H8.182V-6.868h1.841ZM8.074-8.646a.9.9,0,0,1,.276-.679A1.037,1.037,0,0,1,9.1-9.591a1.04,1.04,0,0,1,.749.267.9.9,0,0,1,.279.679.9.9,0,0,1-.282.686,1.042,1.042,0,0,1-.746.267,1.042,1.042,0,0,1-.746-.267A.9.9,0,0,1,8.074-8.646ZM11.248-3.5a4.073,4.073,0,0,1,.394-1.822,2.881,2.881,0,0,1,1.133-1.238A3.306,3.306,0,0,1,14.492-7a3.127,3.127,0,0,1,2.269.851,3.414,3.414,0,0,1,.981,2.311l.013.47a3.59,3.59,0,0,1-.882,2.536A3.067,3.067,0,0,1,14.5.127a3.082,3.082,0,0,1-2.371-.952,3.653,3.653,0,0,1-.885-2.59Zm1.834.13a2.567,2.567,0,0,0,.368,1.5,1.215,1.215,0,0,0,1.054.518,1.217,1.217,0,0,0,1.041-.512A2.809,2.809,0,0,0,15.92-3.5a2.542,2.542,0,0,0-.375-1.488,1.217,1.217,0,0,0-1.054-.528,1.2,1.2,0,0,0-1.041.524A2.857,2.857,0,0,0,13.083-3.367ZM14.854-9.75h2L15.095-7.782H13.6Zm5.719,2.882.057.793A2.4,2.4,0,0,1,22.6-7a1.993,1.993,0,0,1,1.625.641,2.991,2.991,0,0,1,.546,1.917V0H22.94V-4.4a1.2,1.2,0,0,0-.254-.849,1.135,1.135,0,0,0-.844-.264,1.261,1.261,0,0,0-1.162.662V0H18.846V-6.868Z" transform="translate(992.509 2496.462)" fill="#12263f"/>
    <path id="Trazado_206385" data-name="Trazado 206385" d="M-33.779-3.079A3.27,3.27,0,0,1-34.88-.73,3.868,3.868,0,0,1-37.5.127a3.478,3.478,0,0,1-2.8-1.2,4.906,4.906,0,0,1-1.019-3.285v-.565a5.54,5.54,0,0,1,.47-2.349A3.52,3.52,0,0,1-39.5-8.826a3.761,3.761,0,0,1,2.028-.543,3.768,3.768,0,0,1,2.577.857,3.515,3.515,0,0,1,1.13,2.406h-1.9a1.93,1.93,0,0,0-.5-1.3,1.845,1.845,0,0,0-1.3-.4,1.618,1.618,0,0,0-1.425.682,3.824,3.824,0,0,0-.486,2.117v.7a4.093,4.093,0,0,0,.454,2.19,1.588,1.588,0,0,0,1.431.692,1.88,1.88,0,0,0,1.317-.4,1.821,1.821,0,0,0,.5-1.247Zm.844-.419a4.073,4.073,0,0,1,.394-1.822,2.881,2.881,0,0,1,1.133-1.238A3.306,3.306,0,0,1-29.691-7a3.127,3.127,0,0,1,2.269.851,3.414,3.414,0,0,1,.981,2.311l.013.47a3.59,3.59,0,0,1-.882,2.536,3.067,3.067,0,0,1-2.368.955,3.082,3.082,0,0,1-2.371-.952,3.653,3.653,0,0,1-.885-2.59Zm1.834.13a2.567,2.567,0,0,0,.368,1.5,1.215,1.215,0,0,0,1.054.518,1.217,1.217,0,0,0,1.041-.512A2.809,2.809,0,0,0-28.263-3.5a2.542,2.542,0,0,0-.375-1.488,1.217,1.217,0,0,0-1.054-.528,1.2,1.2,0,0,0-1.041.524A2.857,2.857,0,0,0-31.1-3.367Zm7.522-3.5.057.768A2.414,2.414,0,0,1-21.547-7a1.832,1.832,0,0,1,1.822,1.047A2.358,2.358,0,0,1-17.662-7,2.049,2.049,0,0,1-16-6.344a2.991,2.991,0,0,1,.546,1.958V0h-1.841V-4.39a1.313,1.313,0,0,0-.229-.856,1.011,1.011,0,0,0-.806-.27,1.145,1.145,0,0,0-1.143.789L-19.465,0H-21.3V-4.384a1.3,1.3,0,0,0-.235-.865,1.021,1.021,0,0,0-.8-.267,1.188,1.188,0,0,0-1.13.649V0H-25.3V-6.868ZM-9.931-.7A2.3,2.3,0,0,1-11.81.127,2.17,2.17,0,0,1-13.5-.508a2.71,2.71,0,0,1-.594-1.86v-4.5h1.834v4.442q0,1.074.978,1.074A1.325,1.325,0,0,0-9.994-2V-6.868h1.841V0H-9.88Zm4.85-6.17.057.793A2.4,2.4,0,0,1-3.05-7a1.993,1.993,0,0,1,1.625.641A2.991,2.991,0,0,1-.879-4.437V0H-2.714V-4.4a1.2,1.2,0,0,0-.254-.849,1.135,1.135,0,0,0-.844-.264,1.261,1.261,0,0,0-1.162.662V0H-6.808V-6.868ZM2.447,0H.606V-6.868H2.447ZM.5-8.646a.9.9,0,0,1,.276-.679,1.037,1.037,0,0,1,.752-.267,1.04,1.04,0,0,1,.749.267.9.9,0,0,1,.279.679.9.9,0,0,1-.282.686,1.042,1.042,0,0,1-.746.267A1.042,1.042,0,0,1,.781-7.96.9.9,0,0,1,.5-8.646ZM6.814-1.352a1.2,1.2,0,0,0,.825-.279.979.979,0,0,0,.33-.743H9.69a2.353,2.353,0,0,1-.381,1.279,2.513,2.513,0,0,1-1.025.9A3.208,3.208,0,0,1,6.846.127,2.982,2.982,0,0,1,4.523-.809,3.705,3.705,0,0,1,3.672-3.4v-.121a3.663,3.663,0,0,1,.844-2.533A2.947,2.947,0,0,1,6.833-7,2.889,2.889,0,0,1,8.9-6.262,2.6,2.6,0,0,1,9.69-4.31H7.969a1.261,1.261,0,0,0-.33-.871A1.1,1.1,0,0,0,6.8-5.516a1.1,1.1,0,0,0-.968.467,2.708,2.708,0,0,0-.327,1.516v.191A2.742,2.742,0,0,0,5.83-1.816,1.119,1.119,0,0,0,6.814-1.352ZM14.717,0a2.037,2.037,0,0,1-.184-.616A2.22,2.22,0,0,1,12.8.127a2.439,2.439,0,0,1-1.673-.584,1.878,1.878,0,0,1-.663-1.473,1.941,1.941,0,0,1,.809-1.676,3.994,3.994,0,0,1,2.339-.59h.844v-.394a1.132,1.132,0,0,0-.244-.762.961.961,0,0,0-.771-.286,1.093,1.093,0,0,0-.727.222.755.755,0,0,0-.263.609H10.616a1.843,1.843,0,0,1,.368-1.1,2.434,2.434,0,0,1,1.041-.8A3.794,3.794,0,0,1,13.536-7a3,3,0,0,1,2.015.638A2.232,2.232,0,0,1,16.3-4.564v2.977a3.284,3.284,0,0,0,.273,1.479V0ZM13.2-1.276a1.58,1.58,0,0,0,.749-.181,1.188,1.188,0,0,0,.508-.486V-3.123h-.686q-1.377,0-1.466.952l-.006.108a.734.734,0,0,0,.241.565A.937.937,0,0,0,13.2-1.276Zm7.363-.076a1.2,1.2,0,0,0,.825-.279.979.979,0,0,0,.33-.743h1.72a2.353,2.353,0,0,1-.381,1.279,2.513,2.513,0,0,1-1.025.9,3.208,3.208,0,0,1-1.438.321,2.982,2.982,0,0,1-2.323-.936A3.705,3.705,0,0,1,17.421-3.4v-.121a3.663,3.663,0,0,1,.844-2.533A2.947,2.947,0,0,1,20.582-7a2.889,2.889,0,0,1,2.066.733,2.6,2.6,0,0,1,.79,1.952h-1.72a1.261,1.261,0,0,0-.33-.871,1.1,1.1,0,0,0-.838-.335,1.1,1.1,0,0,0-.968.467,2.708,2.708,0,0,0-.327,1.516v.191a2.742,2.742,0,0,0,.324,1.526A1.119,1.119,0,0,0,20.563-1.352ZM26.422,0H24.581V-6.868h1.841ZM24.473-8.646a.9.9,0,0,1,.276-.679,1.037,1.037,0,0,1,.752-.267,1.04,1.04,0,0,1,.749.267.9.9,0,0,1,.279.679.9.9,0,0,1-.282.686,1.042,1.042,0,0,1-.746.267,1.042,1.042,0,0,1-.746-.267A.9.9,0,0,1,24.473-8.646ZM27.647-3.5a4.073,4.073,0,0,1,.394-1.822,2.881,2.881,0,0,1,1.133-1.238A3.306,3.306,0,0,1,30.891-7a3.128,3.128,0,0,1,2.269.851,3.414,3.414,0,0,1,.981,2.311l.013.47a3.59,3.59,0,0,1-.882,2.536A3.067,3.067,0,0,1,30.9.127a3.082,3.082,0,0,1-2.371-.952,3.653,3.653,0,0,1-.885-2.59Zm1.834.13a2.567,2.567,0,0,0,.368,1.5,1.215,1.215,0,0,0,1.054.518,1.217,1.217,0,0,0,1.041-.512A2.809,2.809,0,0,0,32.319-3.5a2.542,2.542,0,0,0-.375-1.488,1.217,1.217,0,0,0-1.054-.528,1.2,1.2,0,0,0-1.041.524A2.857,2.857,0,0,0,29.482-3.367ZM31.253-9.75h2L31.494-7.782H30Zm5.719,2.882.057.793A2.4,2.4,0,0,1,39-7a1.993,1.993,0,0,1,1.625.641,2.991,2.991,0,0,1,.546,1.917V0H39.34V-4.4a1.2,1.2,0,0,0-.254-.849,1.135,1.135,0,0,0-.844-.264,1.261,1.261,0,0,0-1.162.662V0H35.245V-6.868Z" transform="translate(981.751 2586.216)" fill="#12263f"/>
    <path id="Trazado_206388" data-name="Trazado 206388" d="M-26.765,0V-9.242h2.844a4.319,4.319,0,0,1,2.18.549,3.829,3.829,0,0,1,1.5,1.562,4.816,4.816,0,0,1,.54,2.3v.425a4.83,4.83,0,0,1-.53,2.292A3.8,3.8,0,0,1-21.725-.559,4.351,4.351,0,0,1-23.9,0Zm1.9-7.7v6.17h.92a2.068,2.068,0,0,0,1.708-.73,3.3,3.3,0,0,0,.6-2.088v-.489a3.351,3.351,0,0,0-.584-2.136A2.061,2.061,0,0,0-23.921-7.7ZM-16.5,0h-1.841V-6.868H-16.5Zm-1.949-8.646a.9.9,0,0,1,.276-.679,1.037,1.037,0,0,1,.752-.267,1.04,1.04,0,0,1,.749.267.9.9,0,0,1,.279.679.9.9,0,0,1-.282.686,1.042,1.042,0,0,1-.746.267,1.042,1.042,0,0,1-.746-.267A.9.9,0,0,1-18.449-8.646Zm7.319,3.5a4.984,4.984,0,0,0-.66-.051,1.344,1.344,0,0,0-1.365.7V0H-14.99V-6.868h1.733l.051.819A1.7,1.7,0,0,1-11.677-7a1.922,1.922,0,0,1,.571.083ZM-7.208.127A3.372,3.372,0,0,1-9.667-.8a3.294,3.294,0,0,1-.949-2.469v-.178a4.149,4.149,0,0,1,.4-1.85A2.935,2.935,0,0,1-9.083-6.554,3.18,3.18,0,0,1-7.411-7a2.85,2.85,0,0,1,2.219.889,3.611,3.611,0,0,1,.809,2.52v.749H-8.757A1.7,1.7,0,0,0-8.22-1.758a1.621,1.621,0,0,0,1.133.406A1.98,1.98,0,0,0-5.43-2.12l.9,1.009A2.754,2.754,0,0,1-5.646-.2,3.665,3.665,0,0,1-7.208.127Zm-.209-5.643a1.146,1.146,0,0,0-.885.37,1.915,1.915,0,0,0-.435,1.058h2.552v-.147a1.366,1.366,0,0,0-.33-.947A1.183,1.183,0,0,0-7.417-5.516ZM-.486-1.352A1.2,1.2,0,0,0,.34-1.631a.979.979,0,0,0,.33-.743H2.39a2.353,2.353,0,0,1-.381,1.279,2.513,2.513,0,0,1-1.025.9A3.208,3.208,0,0,1-.454.127,2.982,2.982,0,0,1-2.777-.809,3.705,3.705,0,0,1-3.628-3.4v-.121a3.663,3.663,0,0,1,.844-2.533A2.947,2.947,0,0,1-.467-7,2.889,2.889,0,0,1,1.6-6.262,2.6,2.6,0,0,1,2.39-4.31H.67a1.261,1.261,0,0,0-.33-.871A1.1,1.1,0,0,0-.5-5.516a1.1,1.1,0,0,0-.968.467,2.708,2.708,0,0,0-.327,1.516v.191a2.742,2.742,0,0,0,.324,1.526A1.119,1.119,0,0,0-.486-1.352Zm6.779,0a1.2,1.2,0,0,0,.825-.279.979.979,0,0,0,.33-.743h1.72a2.353,2.353,0,0,1-.381,1.279,2.513,2.513,0,0,1-1.025.9A3.208,3.208,0,0,1,6.325.127,2.982,2.982,0,0,1,4-.809,3.705,3.705,0,0,1,3.152-3.4v-.121A3.663,3.663,0,0,1,4-6.049,2.947,2.947,0,0,1,6.313-7a2.889,2.889,0,0,1,2.066.733,2.6,2.6,0,0,1,.79,1.952H7.449a1.261,1.261,0,0,0-.33-.871,1.1,1.1,0,0,0-.838-.335,1.1,1.1,0,0,0-.968.467,2.708,2.708,0,0,0-.327,1.516v.191A2.742,2.742,0,0,0,5.31-1.816,1.119,1.119,0,0,0,6.294-1.352ZM12.153,0H10.312V-6.868h1.841ZM10.2-8.646a.9.9,0,0,1,.276-.679,1.037,1.037,0,0,1,.752-.267,1.04,1.04,0,0,1,.749.267.9.9,0,0,1,.279.679.9.9,0,0,1-.282.686,1.042,1.042,0,0,1-.746.267,1.042,1.042,0,0,1-.746-.267A.9.9,0,0,1,10.2-8.646ZM13.378-3.5a4.073,4.073,0,0,1,.394-1.822A2.881,2.881,0,0,1,14.9-6.557,3.306,3.306,0,0,1,16.621-7a3.127,3.127,0,0,1,2.269.851,3.414,3.414,0,0,1,.981,2.311l.013.47A3.59,3.59,0,0,1,19-.828a3.067,3.067,0,0,1-2.368.955,3.082,3.082,0,0,1-2.371-.952,3.653,3.653,0,0,1-.885-2.59Zm1.834.13a2.567,2.567,0,0,0,.368,1.5,1.215,1.215,0,0,0,1.054.518,1.217,1.217,0,0,0,1.041-.512A2.809,2.809,0,0,0,18.05-3.5a2.542,2.542,0,0,0-.375-1.488,1.217,1.217,0,0,0-1.054-.528,1.2,1.2,0,0,0-1.041.524A2.857,2.857,0,0,0,15.212-3.367ZM16.983-9.75h2L17.224-7.782H15.733ZM22.7-6.868l.057.793A2.4,2.4,0,0,1,24.734-7a1.993,1.993,0,0,1,1.625.641A2.991,2.991,0,0,1,26.9-4.437V0H25.07V-4.4a1.2,1.2,0,0,0-.254-.849,1.135,1.135,0,0,0-.844-.264,1.261,1.261,0,0,0-1.162.662V0H20.976V-6.868Z" transform="translate(1211.641 2675.224)" fill="#12263f"/>
    <path id="Trazado_206387" data-name="Trazado 206387" d="M-23.2-4.018h-3.656V-1.53h4.291V0h-6.2V-9.242h6.183V-7.7h-4.278v2.2H-23.2Zm5.351,2.12a.591.591,0,0,0-.333-.53,3.785,3.785,0,0,0-1.07-.346q-2.45-.514-2.45-2.082a1.887,1.887,0,0,1,.759-1.527A3.06,3.06,0,0,1-18.957-7a3.293,3.293,0,0,1,2.092.616,1.94,1.94,0,0,1,.784,1.6h-1.834a.888.888,0,0,0-.254-.651,1.075,1.075,0,0,0-.793-.257,1.1,1.1,0,0,0-.717.209.661.661,0,0,0-.254.533.565.565,0,0,0,.289.492,2.971,2.971,0,0,0,.974.324,7.958,7.958,0,0,1,1.155.308,1.9,1.9,0,0,1,1.454,1.847,1.792,1.792,0,0,1-.806,1.52,3.478,3.478,0,0,1-2.082.581,3.632,3.632,0,0,1-1.533-.308,2.572,2.572,0,0,1-1.051-.844,1.962,1.962,0,0,1-.381-1.158h1.739a.958.958,0,0,0,.362.749,1.435,1.435,0,0,0,.9.26,1.328,1.328,0,0,0,.8-.2A.622.622,0,0,0-17.846-1.9Zm5.161-6.659v1.688h1.174v1.346h-1.174v3.428a.818.818,0,0,0,.146.546.733.733,0,0,0,.559.165,2.925,2.925,0,0,0,.54-.044v1.39a3.777,3.777,0,0,1-1.111.165A1.752,1.752,0,0,1-14.52-1.822v-3.7h-1V-6.868h1V-8.557ZM-6.63-5.148A4.984,4.984,0,0,0-7.29-5.2a1.344,1.344,0,0,0-1.365.7V0H-10.49V-6.868h1.733l.051.819A1.7,1.7,0,0,1-7.176-7a1.922,1.922,0,0,1,.571.083ZM-1.958,0a2.037,2.037,0,0,1-.184-.616A2.22,2.22,0,0,1-3.875.127,2.439,2.439,0,0,1-5.548-.457,1.878,1.878,0,0,1-6.211-1.93,1.941,1.941,0,0,1-5.4-3.605,3.994,3.994,0,0,1-3.063-4.2h.844v-.394a1.132,1.132,0,0,0-.244-.762.961.961,0,0,0-.771-.286,1.093,1.093,0,0,0-.727.222.755.755,0,0,0-.263.609H-6.059a1.843,1.843,0,0,1,.368-1.1,2.434,2.434,0,0,1,1.041-.8A3.794,3.794,0,0,1-3.139-7a3,3,0,0,1,2.015.638A2.232,2.232,0,0,1-.378-4.564v2.977A3.284,3.284,0,0,0-.1-.108V0ZM-3.475-1.276a1.58,1.58,0,0,0,.749-.181,1.188,1.188,0,0,0,.508-.486V-3.123H-2.9q-1.377,0-1.466.952l-.006.108a.734.734,0,0,0,.241.565A.937.937,0,0,0-3.475-1.276Zm6.7-7.281v1.688H4.4v1.346H3.228v3.428a.818.818,0,0,0,.146.546.733.733,0,0,0,.559.165,2.925,2.925,0,0,0,.54-.044v1.39A3.777,3.777,0,0,1,3.361.127,1.752,1.752,0,0,1,1.393-1.822v-3.7h-1V-6.868h1V-8.557ZM8.585.127A3.372,3.372,0,0,1,6.125-.8a3.294,3.294,0,0,1-.949-2.469v-.178a4.149,4.149,0,0,1,.4-1.85A2.935,2.935,0,0,1,6.709-6.554,3.18,3.18,0,0,1,8.382-7a2.85,2.85,0,0,1,2.219.889,3.611,3.611,0,0,1,.809,2.52v.749H7.036a1.7,1.7,0,0,0,.536,1.079,1.621,1.621,0,0,0,1.133.406,1.98,1.98,0,0,0,1.657-.768l.9,1.009A2.754,2.754,0,0,1,10.147-.2,3.665,3.665,0,0,1,8.585.127ZM8.376-5.516a1.146,1.146,0,0,0-.885.37,1.915,1.915,0,0,0-.435,1.058H9.607v-.147a1.366,1.366,0,0,0-.33-.947A1.183,1.183,0,0,0,8.376-5.516Zm3.809,2.031a4.025,4.025,0,0,1,.752-2.545A2.437,2.437,0,0,1,14.965-7a2.138,2.138,0,0,1,1.758.774l.076-.647h1.663v6.64a2.935,2.935,0,0,1-.409,1.568A2.629,2.629,0,0,1,16.9,2.355a4.05,4.05,0,0,1-1.739.349,3.766,3.766,0,0,1-1.473-.3A2.614,2.614,0,0,1,12.6,1.625L13.416.508a2.149,2.149,0,0,0,1.663.768,1.573,1.573,0,0,0,1.136-.39,1.464,1.464,0,0,0,.406-1.108V-.59a2.122,2.122,0,0,1-1.669.717,2.431,2.431,0,0,1-2-.968,4.024,4.024,0,0,1-.765-2.568Zm1.834.131a2.52,2.52,0,0,0,.375,1.47,1.19,1.19,0,0,0,1.028.532,1.273,1.273,0,0,0,1.2-.631v-2.9a1.27,1.27,0,0,0-1.187-.631,1.2,1.2,0,0,0-1.038.542A2.841,2.841,0,0,0,14.019-3.354ZM21.807,0H19.967V-6.868h1.841ZM19.859-8.646a.9.9,0,0,1,.276-.679,1.037,1.037,0,0,1,.752-.267,1.04,1.04,0,0,1,.749.267.9.9,0,0,1,.279.679.9.9,0,0,1-.282.686,1.042,1.042,0,0,1-.746.267,1.042,1.042,0,0,1-.746-.267A.9.9,0,0,1,19.859-8.646ZM27.3,0a2.037,2.037,0,0,1-.184-.616,2.22,2.22,0,0,1-1.733.743,2.439,2.439,0,0,1-1.673-.584,1.878,1.878,0,0,1-.663-1.473,1.941,1.941,0,0,1,.809-1.676,3.994,3.994,0,0,1,2.339-.59h.844v-.394a1.132,1.132,0,0,0-.244-.762.961.961,0,0,0-.771-.286,1.093,1.093,0,0,0-.727.222.755.755,0,0,0-.263.609H23.2a1.843,1.843,0,0,1,.368-1.1,2.434,2.434,0,0,1,1.041-.8A3.794,3.794,0,0,1,26.117-7a3,3,0,0,1,2.015.638,2.232,2.232,0,0,1,.746,1.793v2.977a3.284,3.284,0,0,0,.273,1.479V0ZM25.781-1.276a1.58,1.58,0,0,0,.749-.181,1.188,1.188,0,0,0,.508-.486V-3.123h-.686q-1.377,0-1.466.952l-.006.108a.734.734,0,0,0,.241.565A.937.937,0,0,0,25.781-1.276Z" transform="translate(1120.213 2711.93)" fill="#12263f"/>
    <path id="Trazado_206386" data-name="Trazado 206386" d="M-8.077-4.018h-3.656V-1.53h4.291V0h-6.2V-9.242h6.183V-7.7h-4.278v2.2h3.656Zm-1.987-7.719h2L-9.823-9.769h-1.492Zm6.233,6.919,1.155-2.05H-.714L-2.669-3.5-.632,0H-2.6L-3.824-2.158-5.043,0H-7.017L-4.98-3.5-6.928-6.868h1.968ZM2.1,0H.263V-6.868H2.1ZM.156-8.646a.9.9,0,0,1,.276-.679,1.037,1.037,0,0,1,.752-.267,1.04,1.04,0,0,1,.749.267.9.9,0,0,1,.279.679.9.9,0,0,1-.282.686,1.042,1.042,0,0,1-.746.267A1.042,1.042,0,0,1,.438-7.96.9.9,0,0,1,.156-8.646Zm5.656.089v1.688H6.986v1.346H5.811v3.428a.818.818,0,0,0,.146.546.733.733,0,0,0,.559.165,2.925,2.925,0,0,0,.54-.044v1.39A3.777,3.777,0,0,1,5.945.127,1.752,1.752,0,0,1,3.977-1.822v-3.7h-1V-6.868h1V-8.557ZM7.531-3.5a4.073,4.073,0,0,1,.394-1.822A2.881,2.881,0,0,1,9.058-6.557,3.306,3.306,0,0,1,10.775-7a3.128,3.128,0,0,1,2.269.851,3.414,3.414,0,0,1,.981,2.311l.013.47a3.59,3.59,0,0,1-.882,2.536,3.067,3.067,0,0,1-2.368.955A3.082,3.082,0,0,1,8.417-.825a3.653,3.653,0,0,1-.885-2.59Zm1.834.13a2.567,2.567,0,0,0,.368,1.5,1.215,1.215,0,0,0,1.054.518,1.217,1.217,0,0,0,1.041-.512A2.809,2.809,0,0,0,12.2-3.5a2.542,2.542,0,0,0-.375-1.488,1.217,1.217,0,0,0-1.054-.528,1.2,1.2,0,0,0-1.041.524A2.857,2.857,0,0,0,9.366-3.367Z" transform="translate(1026.391 2680.538)" fill="#fff"/>
    <path id="Trazado_206390" data-name="Trazado 206390" d="M-15.764-4.412a5.579,5.579,0,0,1-.482,2.393A3.633,3.633,0,0,1-17.627-.432a3.819,3.819,0,0,1-2.06.559,3.845,3.845,0,0,1-2.05-.552A3.669,3.669,0,0,1-23.134-2a5.42,5.42,0,0,1-.5-2.358v-.457a5.55,5.55,0,0,1,.492-2.4,3.663,3.663,0,0,1,1.39-1.593A3.824,3.824,0,0,1-19.7-9.369a3.824,3.824,0,0,1,2.053.555,3.663,3.663,0,0,1,1.39,1.593,5.534,5.534,0,0,1,.492,2.4Zm-1.93-.419a3.889,3.889,0,0,0-.521-2.209A1.7,1.7,0,0,0-19.7-7.795a1.7,1.7,0,0,0-1.479.746,3.845,3.845,0,0,0-.527,2.187v.451a3.938,3.938,0,0,0,.521,2.2,1.692,1.692,0,0,0,1.5.781,1.677,1.677,0,0,0,1.473-.752,3.915,3.915,0,0,0,.521-2.193Zm9.382,1.46A4.159,4.159,0,0,1-9.017-.8a2.334,2.334,0,0,1-1.968.924A2.144,2.144,0,0,1-12.768-.73l-.083.73H-14.5V-9.75h1.834v3.5A2.089,2.089,0,0,1-11-7a2.353,2.353,0,0,1,1.971.924,4.165,4.165,0,0,1,.714,2.6Zm-1.834-.14a2.747,2.747,0,0,0-.33-1.525,1.115,1.115,0,0,0-.984-.481,1.21,1.21,0,0,0-1.206.719v2.719a1.226,1.226,0,0,0,1.219.726,1.133,1.133,0,0,0,1.168-.879A4.546,4.546,0,0,0-10.147-3.51ZM-5.24-6.868V.375a2.457,2.457,0,0,1-.6,1.768,2.292,2.292,0,0,1-1.739.632,3.73,3.73,0,0,1-.908-.108V1.212a3.444,3.444,0,0,0,.578.057q.832,0,.832-.882V-6.868ZM-7.227-8.646a.9.9,0,0,1,.276-.679A1.037,1.037,0,0,1-6.2-9.591a1.037,1.037,0,0,1,.752.267.9.9,0,0,1,.276.679.9.9,0,0,1-.282.686,1.042,1.042,0,0,1-.746.267,1.042,1.042,0,0,1-.746-.267A.9.9,0,0,1-7.227-8.646ZM-.644.127A3.372,3.372,0,0,1-3.1-.8a3.294,3.294,0,0,1-.949-2.469v-.178a4.149,4.149,0,0,1,.4-1.85A2.935,2.935,0,0,1-2.52-6.554,3.18,3.18,0,0,1-.847-7a2.85,2.85,0,0,1,2.219.889,3.611,3.611,0,0,1,.809,2.52v.749H-2.193a1.7,1.7,0,0,0,.536,1.079,1.621,1.621,0,0,0,1.133.406A1.98,1.98,0,0,0,1.133-2.12l.9,1.009A2.754,2.754,0,0,1,.917-.2,3.665,3.665,0,0,1-.644.127ZM-.854-5.516a1.146,1.146,0,0,0-.885.37,1.915,1.915,0,0,0-.435,1.058H.378v-.147a1.366,1.366,0,0,0-.33-.947A1.183,1.183,0,0,0-.854-5.516ZM5.418-8.557v1.688H6.592v1.346H5.418v3.428a.818.818,0,0,0,.146.546.733.733,0,0,0,.559.165,2.925,2.925,0,0,0,.54-.044v1.39A3.777,3.777,0,0,1,5.551.127,1.752,1.752,0,0,1,3.583-1.822v-3.7h-1V-6.868h1V-8.557ZM9.55,0H7.709V-6.868H9.55ZM7.6-8.646a.9.9,0,0,1,.276-.679,1.037,1.037,0,0,1,.752-.267,1.04,1.04,0,0,1,.749.267.9.9,0,0,1,.279.679.9.9,0,0,1-.282.686,1.042,1.042,0,0,1-.746.267,1.042,1.042,0,0,1-.746-.267A.9.9,0,0,1,7.6-8.646Zm6.03,6.4,1.276-4.627h1.917L14.508,0H12.756L10.439-6.868h1.917ZM17.25-3.5a4.073,4.073,0,0,1,.394-1.822,2.881,2.881,0,0,1,1.133-1.238A3.306,3.306,0,0,1,20.493-7a3.127,3.127,0,0,1,2.269.851,3.414,3.414,0,0,1,.981,2.311l.013.47a3.59,3.59,0,0,1-.882,2.536,3.067,3.067,0,0,1-2.368.955,3.082,3.082,0,0,1-2.371-.952,3.653,3.653,0,0,1-.885-2.59Zm1.834.13a2.567,2.567,0,0,0,.368,1.5,1.215,1.215,0,0,0,1.054.518,1.217,1.217,0,0,0,1.041-.512A2.809,2.809,0,0,0,21.922-3.5a2.542,2.542,0,0,0-.375-1.488,1.217,1.217,0,0,0-1.054-.528,1.2,1.2,0,0,0-1.041.524A2.857,2.857,0,0,0,19.084-3.367Z" transform="translate(1242.666 2496.462)" fill="#12263f"/>
    <path id="Trazado_206389" data-name="Trazado 206389" d="M-9.633-1.168a3.305,3.305,0,0,1-1.454.955,6.087,6.087,0,0,1-2.082.34,4.124,4.124,0,0,1-2.1-.524,3.493,3.493,0,0,1-1.4-1.52,5.351,5.351,0,0,1-.5-2.342v-.628a5.682,5.682,0,0,1,.467-2.4,3.451,3.451,0,0,1,1.346-1.549,3.876,3.876,0,0,1,2.06-.536,3.86,3.86,0,0,1,2.571.784A3.35,3.35,0,0,1-9.633-6.3h-1.854a1.843,1.843,0,0,0-.562-1.162,1.794,1.794,0,0,0-1.2-.368,1.689,1.689,0,0,0-1.479.73,3.838,3.838,0,0,0-.514,2.171v.59a3.654,3.654,0,0,0,.552,2.2,1.891,1.891,0,0,0,1.619.743,2.112,2.112,0,0,0,1.53-.457V-3.453H-13.27v-1.4h3.637Zm5.281-3.98a4.984,4.984,0,0,0-.66-.051,1.344,1.344,0,0,0-1.365.7V0H-8.211V-6.868h1.733l.051.819A1.7,1.7,0,0,1-4.9-7a1.922,1.922,0,0,1,.571.083Zm5,4.45A2.3,2.3,0,0,1-1.235.127,2.17,2.17,0,0,1-2.92-.508a2.71,2.71,0,0,1-.594-1.86v-4.5h1.834v4.442q0,1.074.978,1.074A1.325,1.325,0,0,0,.581-2V-6.868H2.422V0H.7ZM9.988-3.371a4.119,4.119,0,0,1-.72,2.542A2.31,2.31,0,0,1,7.322.127,2.14,2.14,0,0,1,5.64-.6V2.641H3.805V-6.868h1.7L5.57-6.2A2.156,2.156,0,0,1,7.309-7a2.326,2.326,0,0,1,1.974.939,4.231,4.231,0,0,1,.7,2.59ZM8.154-3.51a2.718,2.718,0,0,0-.34-1.484,1.105,1.105,0,0,0-.987-.522,1.2,1.2,0,0,0-1.187.662v2.821a1.221,1.221,0,0,0,1.2.681Q8.154-1.352,8.154-3.51Zm2.685.013a4.073,4.073,0,0,1,.394-1.822,2.881,2.881,0,0,1,1.133-1.238A3.306,3.306,0,0,1,14.082-7a3.128,3.128,0,0,1,2.269.851,3.414,3.414,0,0,1,.981,2.311l.013.47a3.59,3.59,0,0,1-.882,2.536,3.067,3.067,0,0,1-2.368.955,3.082,3.082,0,0,1-2.371-.952,3.653,3.653,0,0,1-.885-2.59Zm1.834.13a2.567,2.567,0,0,0,.368,1.5,1.215,1.215,0,0,0,1.054.518,1.217,1.217,0,0,0,1.041-.512A2.809,2.809,0,0,0,15.51-3.5a2.542,2.542,0,0,0-.375-1.488,1.217,1.217,0,0,0-1.054-.528,1.2,1.2,0,0,0-1.041.524A2.857,2.857,0,0,0,12.673-3.367Z" transform="translate(1258.119 2589.844)" fill="#fff"/>
    <path id="Trazado_206383" data-name="Trazado 206383" d="M-13.578-4.018h-3.656V-1.53h4.291V0h-6.2V-9.242h6.183V-7.7h-4.278v2.2h3.656Zm1.225.521a4.105,4.105,0,0,1,.72-2.558A2.355,2.355,0,0,1-9.655-7,2.109,2.109,0,0,1-7.9-6.151l.121-.717h1.612V2.641H-8V-.59A2.115,2.115,0,0,1-9.667.127a2.338,2.338,0,0,1-1.955-.952A4.307,4.307,0,0,1-12.353-3.5Zm1.834.13a2.693,2.693,0,0,0,.346,1.5,1.107,1.107,0,0,0,.974.515A1.234,1.234,0,0,0-8-2.026V-4.868a1.224,1.224,0,0,0-1.181-.648A1.121,1.121,0,0,0-10.169-5,2.974,2.974,0,0,0-10.518-3.367ZM-.609-.7A2.3,2.3,0,0,1-2.488.127,2.17,2.17,0,0,1-4.174-.508a2.71,2.71,0,0,1-.594-1.86v-4.5h1.834v4.442q0,1.074.978,1.074A1.325,1.325,0,0,0-.673-2V-6.868H1.168V0H-.559Zm5.1.7H2.647V-6.868H4.488ZM2.539-8.646a.9.9,0,0,1,.276-.679,1.037,1.037,0,0,1,.752-.267,1.04,1.04,0,0,1,.749.267.9.9,0,0,1,.279.679.9.9,0,0,1-.282.686,1.042,1.042,0,0,1-.746.267,1.042,1.042,0,0,1-.746-.267A.9.9,0,0,1,2.539-8.646Zm9.642,5.275a4.119,4.119,0,0,1-.72,2.542A2.31,2.31,0,0,1,9.515.127,2.14,2.14,0,0,1,7.833-.6V2.641H6V-6.868H7.7l.063.673A2.156,2.156,0,0,1,9.5-7a2.326,2.326,0,0,1,1.974.939,4.231,4.231,0,0,1,.7,2.59Zm-1.834-.14a2.718,2.718,0,0,0-.34-1.484,1.105,1.105,0,0,0-.987-.522,1.2,1.2,0,0,0-1.187.662v2.821a1.221,1.221,0,0,0,1.2.681Q10.347-1.352,10.347-3.51Zm2.685.013a4.073,4.073,0,0,1,.394-1.822,2.881,2.881,0,0,1,1.133-1.238A3.306,3.306,0,0,1,16.275-7a3.127,3.127,0,0,1,2.269.851,3.414,3.414,0,0,1,.981,2.311l.013.47a3.59,3.59,0,0,1-.882,2.536,3.067,3.067,0,0,1-2.368.955,3.082,3.082,0,0,1-2.371-.952,3.653,3.653,0,0,1-.885-2.59Zm1.834.13a2.567,2.567,0,0,0,.368,1.5,1.215,1.215,0,0,0,1.054.518,1.217,1.217,0,0,0,1.041-.512A2.809,2.809,0,0,0,17.7-3.5a2.542,2.542,0,0,0-.375-1.488,1.217,1.217,0,0,0-1.054-.528,1.2,1.2,0,0,0-1.041.524A2.857,2.857,0,0,0,14.866-3.367Z" transform="translate(1074.155 2436.031)" fill="#fff"/>
  </g>
</svg>
