<svg xmlns="http://www.w3.org/2000/svg" width="98.734" height="98.734" viewBox="0 0 98.734 98.734">
  <g id="productividad" transform="translate(0 0)">
    <g id="Grupo_150405" data-name="Grupo 150405" transform="translate(1.646 1.646)">
      <path id="Trazado_204078" data-name="Trazado 204078" d="M337.16,29.513V25.052a1.06,1.06,0,0,0-1.06-1.06h-1.729a1.059,1.059,0,0,1-1.019-.813,16.341,16.341,0,0,0-1.771-4.26,1.058,1.058,0,0,1,.147-1.3l1.226-1.226a1.06,1.06,0,0,0,0-1.5L329.8,11.742a1.061,1.061,0,0,0-1.5,0l-1.226,1.226a1.058,1.058,0,0,1-1.3.147,16.343,16.343,0,0,0-4.26-1.771,1.058,1.058,0,0,1-.813-1.019V8.6a1.06,1.06,0,0,0-1.06-1.06h-4.461a1.06,1.06,0,0,0-1.06,1.06v1.729a1.059,1.059,0,0,1-.813,1.019,16.343,16.343,0,0,0-4.26,1.771,1.058,1.058,0,0,1-1.3-.147l-1.226-1.226a1.061,1.061,0,0,0-1.5,0L301.873,14.9a1.06,1.06,0,0,0,0,1.5l1.226,1.226a1.058,1.058,0,0,1,.147,1.3,16.348,16.348,0,0,0-1.771,4.26,1.059,1.059,0,0,1-1.019.813h-1.729a1.061,1.061,0,0,0-1.061,1.061v4.461a1.06,1.06,0,0,0,1.06,1.06h1.729a1.059,1.059,0,0,1,1.019.813,16.345,16.345,0,0,0,1.771,4.26,1.058,1.058,0,0,1-.147,1.3l-1.226,1.226a1.06,1.06,0,0,0,0,1.5l3.155,3.154a1.061,1.061,0,0,0,1.5,0l1.226-1.226a1.058,1.058,0,0,1,1.3-.147,16.35,16.35,0,0,0,4.26,1.771,1.058,1.058,0,0,1,.813,1.019v1.729a1.061,1.061,0,0,0,1.061,1.061h4.461a1.06,1.06,0,0,0,1.06-1.06V44.24a1.059,1.059,0,0,1,.813-1.019,16.343,16.343,0,0,0,4.26-1.771,1.058,1.058,0,0,1,1.3.147l1.226,1.226a1.061,1.061,0,0,0,1.5,0l3.154-3.154a1.06,1.06,0,0,0,0-1.5l-1.226-1.226a1.058,1.058,0,0,1-.147-1.3,16.342,16.342,0,0,0,1.771-4.26,1.059,1.059,0,0,1,1.02-.813H336.1A1.061,1.061,0,0,0,337.16,29.513Z" transform="translate(-241.717 -7.535)" fill="#f85316"/>
      <path id="Trazado_204079" data-name="Trazado 204079" d="M213.05,310.823a13.069,13.069,0,0,1-3.7,9.133,10.508,10.508,0,0,0-2.88,7.323,3.3,3.3,0,0,1-3.291,3.291h-6.714a3.322,3.322,0,0,1-3.159-3.291,10.7,10.7,0,0,0-2.929-7.372,13.15,13.15,0,0,1,7.043-22.018,9.187,9.187,0,0,1,.971-.148,13.174,13.174,0,0,1,14.662,13.082Z" transform="translate(-152.163 -241.709)" fill="#dce736"/>
      <circle id="Elipse_5689" data-name="Elipse 5689" cx="9.873" cy="9.873" r="9.873" transform="translate(65.823 9.874)" fill="#fff"/>
      <path id="Trazado_204081" data-name="Trazado 204081" d="M47.027,27.28A19.741,19.741,0,0,1,27.28,47.027a17.44,17.44,0,0,1-2.468-.164,19.736,19.736,0,0,1,0-39.165,17.44,17.44,0,0,1,2.468-.164A19.741,19.741,0,0,1,47.027,27.28Z" transform="translate(-7.533 -7.533)" fill="#3d46c2"/>
      <circle id="Elipse_5691" data-name="Elipse 5691" cx="13.165" cy="13.165" r="13.165" transform="translate(6.582 6.582)" fill="#fff"/>
    </g>
    <g id="Grupo_150406" data-name="Grupo 150406" transform="translate(0 0)">
      <path id="Trazado_204083" data-name="Trazado 204083" d="M214.98,494.934a1.646,1.646,0,1,0,0,3.291h13.165a1.646,1.646,0,0,0,0-3.291Z" transform="translate(-172.195 -399.491)"/>
      <path id="Trazado_204084" data-name="Trazado 204084" d="M179.358,302.569a14.771,14.771,0,0,0,3.932,12.593,8.939,8.939,0,0,1,2.467,6.225,4.942,4.942,0,0,0,4.937,4.937h6.582a4.942,4.942,0,0,0,4.937-4.937,8.793,8.793,0,0,1,2.414-6.17,14.808,14.808,0,1,0-25.268-12.649ZM194,293.412a11.384,11.384,0,0,1,7.665,2.935,11.5,11.5,0,0,1,.6,16.58,12.057,12.057,0,0,0-3.343,8.46,1.647,1.647,0,0,1-1.645,1.646h-6.582a1.648,1.648,0,0,1-1.646-1.647,12.208,12.208,0,0,0-3.383-8.5,11.506,11.506,0,0,1,7-19.4,12.111,12.111,0,0,1,1.335-.074Z" transform="translate(-144.618 -234.172)"/>
      <path id="Trazado_204085" data-name="Trazado 204085" d="M352.853,51.2A11.519,11.519,0,1,0,364.372,62.72,11.519,11.519,0,0,0,352.853,51.2Zm0,19.747a8.228,8.228,0,1,1,8.228-8.228A8.228,8.228,0,0,1,352.853,70.948Z" transform="translate(-275.511 -41.327)"/>
      <path id="Trazado_204086" data-name="Trazado 204086" d="M96.028,16.456H94.76a18.127,18.127,0,0,0-1.615-3.885l.9-.9a2.708,2.708,0,0,0,0-3.827L90.892,4.689a2.769,2.769,0,0,0-3.828,0l-.9.9a17.981,17.981,0,0,0-3.884-1.614V2.707A2.709,2.709,0,0,0,79.573,0H75.112a2.709,2.709,0,0,0-2.706,2.706V3.975a18.013,18.013,0,0,0-3.884,1.614l-.9-.9a2.77,2.77,0,0,0-3.825,0L60.639,7.843a2.708,2.708,0,0,0,0,3.827l.9.9a18.125,18.125,0,0,0-1.615,3.885H58.656a2.709,2.709,0,0,0-2.706,2.706v.585H42.7A21.382,21.382,0,1,0,19.747,42.7V67.469a4.942,4.942,0,0,0,4.937,4.937h4.937a1.646,1.646,0,1,0,0-3.291H24.684a1.647,1.647,0,0,1-1.646-1.646V42.7A21.4,21.4,0,0,0,42.7,23.038H55.95v.585a2.709,2.709,0,0,0,2.706,2.706h1.268a18.126,18.126,0,0,0,1.615,3.885l-.9.9a2.708,2.708,0,0,0,0,3.827L63.792,38.1a2.769,2.769,0,0,0,3.828,0l.9-.9a17.981,17.981,0,0,0,3.884,1.614v1.269a2.709,2.709,0,0,0,2.706,2.706H75.7V67.468a1.647,1.647,0,0,1-1.646,1.646H69.114a1.646,1.646,0,0,0,0,3.291h4.937a4.942,4.942,0,0,0,4.937-4.937V42.785h.585a2.709,2.709,0,0,0,2.706-2.706V38.81A17.971,17.971,0,0,0,86.163,37.2l.9.9a2.77,2.77,0,0,0,3.825,0l3.154-3.154a2.708,2.708,0,0,0,0-3.827l-.9-.9a18.123,18.123,0,0,0,1.615-3.885h1.268a2.709,2.709,0,0,0,2.706-2.706V19.162A2.708,2.708,0,0,0,96.028,16.456ZM21.393,39.494a18.1,18.1,0,1,1,18.1-18.1A18.1,18.1,0,0,1,21.393,39.494ZM95.443,23.038H94.3a2.712,2.712,0,0,0-2.613,2.048,14.708,14.708,0,0,1-1.592,3.832,2.708,2.708,0,0,0,.4,3.3l.813.812-2.329,2.328-.81-.811a2.706,2.706,0,0,0-3.3-.4,14.707,14.707,0,0,1-3.829,1.592,2.708,2.708,0,0,0-2.051,2.614v1.143H75.7V38.351a2.707,2.707,0,0,0-2.049-2.613,14.721,14.721,0,0,1-3.829-1.592,2.7,2.7,0,0,0-3.3.4l-.811.812-2.329-2.328.813-.812a2.708,2.708,0,0,0,.4-3.3A14.7,14.7,0,0,1,63,25.086a2.712,2.712,0,0,0-2.613-2.047H59.242V19.747h1.144A2.712,2.712,0,0,0,63,17.7a14.7,14.7,0,0,1,1.593-3.832,2.708,2.708,0,0,0-.4-3.3l-.813-.812,2.329-2.328.81.811a2.7,2.7,0,0,0,3.3.4,14.707,14.707,0,0,1,3.829-1.592A2.708,2.708,0,0,0,75.7,4.435V3.291h3.291V4.435a2.707,2.707,0,0,0,2.049,2.613A14.733,14.733,0,0,1,84.87,8.642a2.707,2.707,0,0,0,3.3-.4l.811-.812,2.329,2.328-.813.812a2.707,2.707,0,0,0-.4,3.3A14.7,14.7,0,0,1,91.687,17.7,2.712,2.712,0,0,0,94.3,19.747h1.144v3.291Z" transform="translate(0 0)"/>
      <circle id="Elipse_5692" data-name="Elipse 5692" cx="1.646" cy="1.646" r="1.646" transform="translate(75.696 19.747)"/>
      <path id="Trazado_204087" data-name="Trazado 204087" d="M48.944,34.134a14.81,14.81,0,1,0,14.81,14.81A14.81,14.81,0,0,0,48.944,34.134Zm0,26.329A11.519,11.519,0,1,1,60.463,48.944,11.519,11.519,0,0,1,48.944,60.463Z" transform="translate(-27.552 -27.552)"/>
      <path id="Trazado_204088" data-name="Trazado 204088" d="M105.692,75.814v-5.9a1.646,1.646,0,1,0-3.291,0V76.5a1.646,1.646,0,0,0,.482,1.163l3.291,3.291a1.645,1.645,0,0,0,2.327-2.327Z" transform="translate(-82.654 -55.103)"/>
      <path id="Trazado_204089" data-name="Trazado 204089" d="M250.759,236.983v-4.937a1.646,1.646,0,0,0-3.291,0v4.937a1.646,1.646,0,0,0,3.291,0Z" transform="translate(-199.746 -185.97)"/>
      <path id="Trazado_204090" data-name="Trazado 204090" d="M159.761,268.366a1.645,1.645,0,1,0-2.327,2.327l3.49,3.49a1.645,1.645,0,0,0,2.327-2.327Z" transform="translate(-126.684 -216.224)"/>
      <path id="Trazado_204091" data-name="Trazado 204091" d="M326.176,268.374a1.645,1.645,0,0,0-2.327,0l-3.49,3.49a1.645,1.645,0,0,0,2.327,2.327l3.49-3.49a1.645,1.645,0,0,0,0-2.327Z" transform="translate(-258.192 -216.232)"/>
      <path id="Trazado_204092" data-name="Trazado 204092" d="M157.44,437.109a1.645,1.645,0,0,0,2.327,0l3.49-3.49a1.645,1.645,0,0,0-2.327-2.327l-3.49,3.49a1.645,1.645,0,0,0,0,2.327Z" transform="translate(-126.69 -347.733)"/>
      <path id="Trazado_204093" data-name="Trazado 204093" d="M320.358,431.291a1.645,1.645,0,0,0,0,2.327l3.49,3.49a1.645,1.645,0,0,0,2.327-2.327l-3.49-3.49a1.645,1.645,0,0,0-2.327,0Z" transform="translate(-258.191 -347.732)"/>
    </g>
  </g>
</svg>
