<svg xmlns="http://www.w3.org/2000/svg" width="610" height="400" viewBox="0 0 610 400">
  <g id="Grupo_150487" data-name="Grupo 150487" transform="translate(-265 -2141)">
    <rect id="Rectángulo_41738" data-name="Rectángulo 41738" width="610" height="400" transform="translate(265 2141)" fill="#f3f9ff"/>
    <g id="Grupo_150486" data-name="Grupo 150486" transform="translate(-51.803 -11.649)">
      <rect id="Rectángulo_41924" data-name="Rectángulo 41924" width="115.15" height="44.574" rx="10" transform="translate(563.888 2174)" fill="#3d46c2"/>
      <path id="Trazado_206285" data-name="Trazado 206285" d="M10.567-4.026A4.277,4.277,0,0,1,9.127-.955,5.058,5.058,0,0,1,5.7.166,4.548,4.548,0,0,1,2.046-1.4a6.416,6.416,0,0,1-1.332-4.3v-.739A7.245,7.245,0,0,1,1.328-9.5a4.6,4.6,0,0,1,1.756-2.038,4.918,4.918,0,0,1,2.652-.71,4.927,4.927,0,0,1,3.37,1.121,4.6,4.6,0,0,1,1.478,3.146H8.093a2.524,2.524,0,0,0-.652-1.7,2.413,2.413,0,0,0-1.706-.527,2.116,2.116,0,0,0-1.864.892,5,5,0,0,0-.635,2.768v.913a5.352,5.352,0,0,0,.594,2.864,2.077,2.077,0,0,0,1.872.9,2.458,2.458,0,0,0,1.722-.527,2.381,2.381,0,0,0,.652-1.631Zm8.907-1.229H14.692V-2H20.3V0H12.2V-12.086h8.085v2.017H14.692v2.88h4.781Zm12.219-.515a7.3,7.3,0,0,1-.631,3.129A4.751,4.751,0,0,1,29.256-.564a4.994,4.994,0,0,1-2.694.73,5.028,5.028,0,0,1-2.681-.722,4.8,4.8,0,0,1-1.826-2.063A7.087,7.087,0,0,1,21.4-5.7v-.6a7.258,7.258,0,0,1,.643-3.142,4.79,4.79,0,0,1,1.818-2.083,5,5,0,0,1,2.685-.726,5,5,0,0,1,2.685.726,4.79,4.79,0,0,1,1.818,2.083,7.237,7.237,0,0,1,.643,3.134Zm-2.523-.548a5.086,5.086,0,0,0-.681-2.889,2.218,2.218,0,0,0-1.942-.988,2.219,2.219,0,0,0-1.934.975,5.028,5.028,0,0,0-.689,2.86v.589A5.15,5.15,0,0,0,24.6-2.9a2.212,2.212,0,0,0,1.959,1.021,2.192,2.192,0,0,0,1.926-.984,5.12,5.12,0,0,0,.681-2.868Z" transform="translate(605.436 2201.144)" fill="#fff"/>
      <path id="Trazado_204344" data-name="Trazado 204344" d="M375.667.047,1.39,0H-2.547" transform="translate(435.439 2236.059)" fill="none" stroke="#3e4bbf" stroke-width="1.835"/>
      <line id="Línea_625" data-name="Línea 625" x1="27.069" transform="translate(395.18 2364.779)" fill="none" stroke="#3e4bbf" stroke-miterlimit="10" stroke-width="1.835"/>
      <line id="Línea_628" data-name="Línea 628" x1="27.069" transform="translate(578.996 2364.779)" fill="none" stroke="#3e4bbf" stroke-miterlimit="10" stroke-width="1.835"/>
      <line id="Línea_632" data-name="Línea 632" x1="27.069" transform="translate(766.589 2364.779)" fill="none" stroke="#3e4bbf" stroke-miterlimit="10" stroke-width="1.835"/>
      <line id="Línea_626" data-name="Línea 626" x1="27.069" transform="translate(395.18 2429.275)" fill="none" stroke="#3e4bbf" stroke-miterlimit="10" stroke-width="1.835"/>
      <line id="Línea_629" data-name="Línea 629" x1="27.069" transform="translate(578.996 2429.275)" fill="none" stroke="#3e4bbf" stroke-miterlimit="10" stroke-width="1.835"/>
      <line id="Línea_631" data-name="Línea 631" x1="27.069" transform="translate(766.589 2429.275)" fill="none" stroke="#3e4bbf" stroke-miterlimit="10" stroke-width="1.835"/>
      <path id="Trazado_204342" data-name="Trazado 204342" d="M27.306,0H-.917" transform="translate(394.943 2496.689)" fill="none" stroke="#3e4bbf" stroke-width="1.835"/>
      <path id="Trazado_204343" data-name="Trazado 204343" d="M27.044,0H.1" transform="translate(579.021 2496.689)" fill="none" stroke="#3e4bbf" stroke-width="1.835"/>
      <line id="Línea_633" data-name="Línea 633" x1="27.069" transform="translate(766.589 2496.689)" fill="none" stroke="#3e4bbf" stroke-miterlimit="10" stroke-width="1.835"/>
      <line id="Línea_620" data-name="Línea 620" y2="43.3" transform="translate(434.023 2235.062)" fill="none" stroke="#3e4bbf" stroke-miterlimit="10" stroke-width="1.835"/>
      <line id="Línea_634" data-name="Línea 634" y2="68.213" transform="translate(623.694 2210.149)" fill="none" stroke="#3e4bbf" stroke-miterlimit="10" stroke-width="1.835"/>
      <line id="Línea_622" data-name="Línea 622" y2="185.531" transform="translate(395.18 2311.406)" fill="none" stroke="#3e4bbf" stroke-miterlimit="10" stroke-width="1.835"/>
      <line id="Línea_623" data-name="Línea 623" y2="185.531" transform="translate(580.255 2311.406)" fill="none" stroke="#3e4bbf" stroke-miterlimit="10" stroke-width="1.835"/>
      <path id="Trazado_204345" data-name="Trazado 204345" d="M0,0V186.446" transform="translate(766.589 2311.406)" fill="none" stroke="#3e4bbf" stroke-width="1.835"/>
      <line id="Línea_621" data-name="Línea 621" y2="43.3" transform="translate(810.025 2235.062)" fill="none" stroke="#3e4bbf" stroke-miterlimit="10" stroke-width="1.835"/>
      <rect id="Rectángulo_40599" data-name="Rectángulo 40599" width="128.045" height="49.656" rx="6.469" transform="translate(370 2263.083)" fill="#bae887" stroke="#77b43a" stroke-width="1.835"/>
      <rect id="Rectángulo_40599-2" data-name="Rectángulo 40599" width="128.045" height="49.656" rx="6.469" transform="translate(559.672 2262.747)" fill="#bae887" stroke="#77b43a" stroke-width="1.835"/>
      <rect id="Rectángulo_40599-3" data-name="Rectángulo 40599" width="128.045" height="49.656" rx="6.469" transform="translate(745.56 2262.747)" fill="#bae887" stroke="#77b43a" stroke-width="1.835"/>
      <path id="Trazado_206286" data-name="Trazado 206286" d="M4.333-12.086l3.1,8.766,3.088-8.766H13.8V0H11.3V-3.3l.249-5.7L8.284,0H6.574L3.32-9,3.569-3.3V0H1.079V-12.086ZM21.018,0a2.664,2.664,0,0,1-.241-.805,2.9,2.9,0,0,1-2.266.971A3.189,3.189,0,0,1,16.323-.6a2.456,2.456,0,0,1-.867-1.926,2.538,2.538,0,0,1,1.058-2.191,5.222,5.222,0,0,1,3.059-.772h1.1V-6a1.48,1.48,0,0,0-.32-1,1.257,1.257,0,0,0-1.009-.374,1.429,1.429,0,0,0-.95.291.987.987,0,0,0-.344.8h-2.4a2.41,2.41,0,0,1,.481-1.444A3.182,3.182,0,0,1,17.5-8.77a4.961,4.961,0,0,1,1.976-.378,3.92,3.92,0,0,1,2.635.834,2.918,2.918,0,0,1,.975,2.345v3.893a4.294,4.294,0,0,0,.357,1.934V0ZM19.034-1.668a2.066,2.066,0,0,0,.979-.237,1.554,1.554,0,0,0,.664-.635V-4.084h-.9q-1.8,0-1.917,1.245l-.008.141a.96.96,0,0,0,.315.739A1.225,1.225,0,0,0,19.034-1.668Zm10.94-5.063a6.517,6.517,0,0,0-.863-.066,1.757,1.757,0,0,0-1.785.921V0h-2.4V-8.981h2.266l.066,1.071a2.223,2.223,0,0,1,2-1.237,2.514,2.514,0,0,1,.747.108ZM34.39-3.6l-.863.863V0h-2.4V-12.75h2.4v7.064l.465-.6,2.3-2.7h2.88L35.926-5.238,39.454,0H36.7ZM44.177.166A4.409,4.409,0,0,1,40.96-1.046a4.308,4.308,0,0,1-1.241-3.229v-.232a5.426,5.426,0,0,1,.523-2.42,3.838,3.838,0,0,1,1.482-1.644,4.159,4.159,0,0,1,2.187-.577,3.727,3.727,0,0,1,2.9,1.162,4.722,4.722,0,0,1,1.058,3.3v.979H42.151a2.229,2.229,0,0,0,.7,1.411,2.12,2.12,0,0,0,1.482.531,2.589,2.589,0,0,0,2.167-1l1.179,1.32A3.6,3.6,0,0,1,46.219-.261,4.793,4.793,0,0,1,44.177.166ZM43.9-7.213a1.5,1.5,0,0,0-1.158.484,2.5,2.5,0,0,0-.569,1.384h3.337v-.192a1.786,1.786,0,0,0-.432-1.238A1.547,1.547,0,0,0,43.9-7.213Zm8.2-3.976v2.208H53.64v1.76H52.1v4.482a1.07,1.07,0,0,0,.191.714.959.959,0,0,0,.73.216,3.826,3.826,0,0,0,.706-.058V-.05a4.939,4.939,0,0,1-1.453.216,2.29,2.29,0,0,1-2.573-2.548V-7.222H48.394v-1.76h1.312v-2.208ZM57.508,0H55.1V-8.981h2.407ZM54.959-11.306a1.181,1.181,0,0,1,.361-.888,1.356,1.356,0,0,1,.984-.349,1.36,1.36,0,0,1,.979.349,1.175,1.175,0,0,1,.365.888,1.178,1.178,0,0,1-.369.9,1.363,1.363,0,0,1-.975.349,1.363,1.363,0,0,1-.975-.349A1.178,1.178,0,0,1,54.959-11.306Zm6.732,2.324.075,1.038a3.136,3.136,0,0,1,2.582-1.2,2.606,2.606,0,0,1,2.125.838A3.912,3.912,0,0,1,67.187-5.8V0h-2.4V-5.757a1.562,1.562,0,0,0-.332-1.111,1.484,1.484,0,0,0-1.1-.345,1.65,1.65,0,0,0-1.519.865V0h-2.4V-8.981Zm6.964,4.424a5.264,5.264,0,0,1,.984-3.329,3.187,3.187,0,0,1,2.652-1.262,2.8,2.8,0,0,1,2.3,1.013l.1-.847h2.175V-.3a3.839,3.839,0,0,1-.535,2.05A3.439,3.439,0,0,1,74.823,3.08a5.3,5.3,0,0,1-2.274.457,4.925,4.925,0,0,1-1.926-.394A3.418,3.418,0,0,1,69.2,2.125L70.266.664a2.81,2.81,0,0,0,2.175,1,2.057,2.057,0,0,0,1.486-.51,1.915,1.915,0,0,0,.531-1.448V-.772a2.775,2.775,0,0,1-2.183.938A3.179,3.179,0,0,1,69.656-1.1a5.262,5.262,0,0,1-1-3.358Zm2.4.171a3.3,3.3,0,0,0,.49,1.922,1.557,1.557,0,0,0,1.345.7,1.665,1.665,0,0,0,1.569-.826V-6.388a1.661,1.661,0,0,0-1.552-.826,1.566,1.566,0,0,0-1.357.709A3.715,3.715,0,0,0,71.055-4.386Z" transform="translate(390.689 2293.104)" fill="#12263f"/>
      <path id="Trazado_206293" data-name="Trazado 206293" d="M5.545-3l2.739-9.089h2.772L6.848,0H4.25L.058-12.086H2.822ZM15.8.166a4.409,4.409,0,0,1-3.217-1.212,4.308,4.308,0,0,1-1.241-3.229v-.232a5.426,5.426,0,0,1,.523-2.42,3.838,3.838,0,0,1,1.482-1.644,4.159,4.159,0,0,1,2.187-.577,3.727,3.727,0,0,1,2.9,1.162A4.722,4.722,0,0,1,19.5-4.69v.979H13.779a2.229,2.229,0,0,0,.7,1.411,2.12,2.12,0,0,0,1.482.531,2.589,2.589,0,0,0,2.167-1l1.179,1.32A3.6,3.6,0,0,1,17.847-.261,4.793,4.793,0,0,1,15.8.166Zm-.274-7.379a1.5,1.5,0,0,0-1.158.484A2.5,2.5,0,0,0,13.8-5.346h3.337v-.192a1.786,1.786,0,0,0-.432-1.238A1.547,1.547,0,0,0,15.531-7.213Zm7.537-1.768.075,1.038a3.136,3.136,0,0,1,2.582-1.2,2.606,2.606,0,0,1,2.125.838A3.912,3.912,0,0,1,28.563-5.8V0h-2.4V-5.757a1.562,1.562,0,0,0-.332-1.111,1.484,1.484,0,0,0-1.1-.345,1.65,1.65,0,0,0-1.519.865V0h-2.4V-8.981Zm10.185-2.208v2.208h1.536v1.76H33.253v4.482a1.07,1.07,0,0,0,.191.714.959.959,0,0,0,.73.216,3.826,3.826,0,0,0,.706-.058V-.05a4.939,4.939,0,0,1-1.453.216,2.29,2.29,0,0,1-2.573-2.548V-7.222H29.542v-1.76h1.312v-2.208ZM41.33,0a2.664,2.664,0,0,1-.241-.805,2.9,2.9,0,0,1-2.266.971A3.189,3.189,0,0,1,36.635-.6a2.456,2.456,0,0,1-.867-1.926,2.538,2.538,0,0,1,1.058-2.191,5.222,5.222,0,0,1,3.059-.772h1.1V-6a1.48,1.48,0,0,0-.32-1,1.257,1.257,0,0,0-1.009-.374,1.429,1.429,0,0,0-.95.291.987.987,0,0,0-.344.8h-2.4a2.41,2.41,0,0,1,.481-1.444A3.182,3.182,0,0,1,37.81-8.77a4.961,4.961,0,0,1,1.976-.378,3.92,3.92,0,0,1,2.635.834A2.918,2.918,0,0,1,43.4-5.968v3.893a4.294,4.294,0,0,0,.357,1.934V0ZM39.346-1.668a2.066,2.066,0,0,0,.979-.237,1.554,1.554,0,0,0,.664-.635V-4.084h-.9q-1.8,0-1.917,1.245l-.008.141a.96.96,0,0,0,.315.739A1.225,1.225,0,0,0,39.346-1.668ZM50.1-2.482a.773.773,0,0,0-.436-.693,4.95,4.95,0,0,0-1.4-.452q-3.2-.672-3.2-2.723a2.468,2.468,0,0,1,.992-2,4,4,0,0,1,2.594-.8,4.307,4.307,0,0,1,2.735.805A2.538,2.538,0,0,1,52.411-6.25h-2.4A1.161,1.161,0,0,0,49.68-7.1a1.405,1.405,0,0,0-1.038-.336,1.436,1.436,0,0,0-.938.274.865.865,0,0,0-.332.7.739.739,0,0,0,.378.643,3.885,3.885,0,0,0,1.274.423,10.407,10.407,0,0,1,1.511.4,2.482,2.482,0,0,1,1.9,2.416A2.343,2.343,0,0,1,51.382-.594a4.548,4.548,0,0,1-2.723.76,4.75,4.75,0,0,1-2-.4,3.363,3.363,0,0,1-1.374-1.1,2.565,2.565,0,0,1-.5-1.515h2.274a1.252,1.252,0,0,0,.473.979,1.877,1.877,0,0,0,1.179.34A1.737,1.737,0,0,0,49.751-1.8.814.814,0,0,0,50.1-2.482Z" transform="translate(594.597 2292.768)" fill="#12263f"/>
      <path id="Trazado_206294" data-name="Trazado 206294" d="M8.351-4.939H3.569V0H1.079V-12.086H8.948v2.017H3.569v3.121H8.351ZM12.767,0H10.359V-8.981h2.407ZM10.218-11.306a1.181,1.181,0,0,1,.361-.888,1.356,1.356,0,0,1,.984-.349,1.36,1.36,0,0,1,.979.349,1.175,1.175,0,0,1,.365.888,1.178,1.178,0,0,1-.369.9,1.363,1.363,0,0,1-.975.349,1.363,1.363,0,0,1-.975-.349A1.178,1.178,0,0,1,10.218-11.306ZM16.95-8.981l.075,1.038a3.136,3.136,0,0,1,2.582-1.2,2.606,2.606,0,0,1,2.125.838A3.912,3.912,0,0,1,22.445-5.8V0h-2.4V-5.757a1.562,1.562,0,0,0-.332-1.111,1.484,1.484,0,0,0-1.1-.345,1.65,1.65,0,0,0-1.519.865V0h-2.4V-8.981ZM29.468,0a2.664,2.664,0,0,1-.241-.805,2.9,2.9,0,0,1-2.266.971A3.189,3.189,0,0,1,24.774-.6a2.456,2.456,0,0,1-.867-1.926,2.538,2.538,0,0,1,1.058-2.191,5.222,5.222,0,0,1,3.059-.772h1.1V-6a1.48,1.48,0,0,0-.32-1A1.257,1.257,0,0,0,27.8-7.371a1.429,1.429,0,0,0-.95.291.987.987,0,0,0-.344.8h-2.4a2.41,2.41,0,0,1,.481-1.444A3.182,3.182,0,0,1,25.948-8.77a4.961,4.961,0,0,1,1.976-.378,3.92,3.92,0,0,1,2.635.834,2.918,2.918,0,0,1,.975,2.345v3.893a4.294,4.294,0,0,0,.357,1.934V0ZM27.484-1.668a2.066,2.066,0,0,0,.979-.237,1.554,1.554,0,0,0,.664-.635V-4.084h-.9q-1.8,0-1.917,1.245l-.008.141a.96.96,0,0,0,.315.739A1.225,1.225,0,0,0,27.484-1.668Zm8.1-7.313.075,1.038a3.136,3.136,0,0,1,2.582-1.2,2.606,2.606,0,0,1,2.125.838A3.912,3.912,0,0,1,41.081-5.8V0h-2.4V-5.757a1.562,1.562,0,0,0-.332-1.111,1.484,1.484,0,0,0-1.1-.345,1.65,1.65,0,0,0-1.519.865V0h-2.4V-8.981ZM45.654-1.934h4.391V0H42.591V-1.461l4.225-5.586h-4.1V-8.981h7.2v1.413ZM56.752,0a2.664,2.664,0,0,1-.241-.805,2.9,2.9,0,0,1-2.266.971A3.189,3.189,0,0,1,52.058-.6a2.456,2.456,0,0,1-.867-1.926,2.538,2.538,0,0,1,1.058-2.191,5.222,5.222,0,0,1,3.059-.772h1.1V-6a1.48,1.48,0,0,0-.32-1,1.257,1.257,0,0,0-1.009-.374,1.429,1.429,0,0,0-.95.291.987.987,0,0,0-.344.8h-2.4a2.41,2.41,0,0,1,.481-1.444A3.182,3.182,0,0,1,53.233-8.77a4.961,4.961,0,0,1,1.976-.378,3.92,3.92,0,0,1,2.635.834,2.918,2.918,0,0,1,.975,2.345v3.893a4.294,4.294,0,0,0,.357,1.934V0ZM54.769-1.668a2.066,2.066,0,0,0,.979-.237,1.554,1.554,0,0,0,.664-.635V-4.084h-.9q-1.8,0-1.917,1.245L53.59-2.7a.96.96,0,0,0,.315.739A1.225,1.225,0,0,0,54.769-1.668Zm10.758-.813a.773.773,0,0,0-.436-.693,4.95,4.95,0,0,0-1.4-.452q-3.2-.672-3.2-2.723a2.468,2.468,0,0,1,.992-2,4,4,0,0,1,2.594-.8,4.307,4.307,0,0,1,2.735.805A2.538,2.538,0,0,1,67.834-6.25h-2.4A1.161,1.161,0,0,0,65.1-7.1a1.405,1.405,0,0,0-1.038-.336,1.436,1.436,0,0,0-.938.274.865.865,0,0,0-.332.7.739.739,0,0,0,.378.643,3.885,3.885,0,0,0,1.274.423,10.407,10.407,0,0,1,1.511.4,2.482,2.482,0,0,1,1.9,2.416A2.343,2.343,0,0,1,66.8-.594a4.548,4.548,0,0,1-2.723.76,4.75,4.75,0,0,1-2-.4,3.363,3.363,0,0,1-1.374-1.1,2.565,2.565,0,0,1-.5-1.515H62.48a1.252,1.252,0,0,0,.473.979,1.877,1.877,0,0,0,1.179.34A1.737,1.737,0,0,0,65.174-1.8.814.814,0,0,0,65.526-2.482Z" transform="translate(769.342 2292.768)" fill="#12263f"/>
      <rect id="Rectángulo_40599-4" data-name="Rectángulo 40599" width="85.239" height="34.966" rx="6.469" transform="translate(412.806 2413.786)" fill="#d1d5fc" stroke="#3e4bbf" stroke-width="1.835"/>
      <rect id="Rectángulo_40599-5" data-name="Rectángulo 40599" width="85.239" height="34.966" rx="6.469" transform="translate(412.806 2478.282)" fill="#d1d5fc" stroke="#3e4bbf" stroke-width="1.835"/>
      <rect id="Rectángulo_40599-6" data-name="Rectángulo 40599" width="85.239" height="34.966" rx="6.469" transform="translate(412.806 2349.289)" fill="#d1d5fc" stroke="#3e4bbf" stroke-width="1.835"/>
      <path id="Trazado_206288" data-name="Trazado 206288" d="M10.567-4.026A4.277,4.277,0,0,1,9.127-.955,5.058,5.058,0,0,1,5.7.166,4.548,4.548,0,0,1,2.046-1.4a6.416,6.416,0,0,1-1.332-4.3v-.739A7.245,7.245,0,0,1,1.328-9.5a4.6,4.6,0,0,1,1.756-2.038,4.918,4.918,0,0,1,2.652-.71,4.927,4.927,0,0,1,3.37,1.121,4.6,4.6,0,0,1,1.478,3.146H8.093a2.524,2.524,0,0,0-.652-1.7,2.413,2.413,0,0,0-1.706-.527,2.116,2.116,0,0,0-1.864.892,5,5,0,0,0-.635,2.768v.913a5.352,5.352,0,0,0,.594,2.864,2.077,2.077,0,0,0,1.872.9,2.458,2.458,0,0,0,1.722-.527,2.381,2.381,0,0,0,.652-1.631ZM17.249,0a2.664,2.664,0,0,1-.241-.805,2.9,2.9,0,0,1-2.266.971A3.189,3.189,0,0,1,12.555-.6a2.456,2.456,0,0,1-.867-1.926,2.538,2.538,0,0,1,1.058-2.191A5.222,5.222,0,0,1,15.8-5.487h1.1V-6a1.48,1.48,0,0,0-.32-1,1.257,1.257,0,0,0-1.009-.374,1.429,1.429,0,0,0-.95.291.987.987,0,0,0-.344.8h-2.4a2.41,2.41,0,0,1,.481-1.444A3.182,3.182,0,0,1,13.729-8.77a4.961,4.961,0,0,1,1.976-.378,3.92,3.92,0,0,1,2.635.834,2.918,2.918,0,0,1,.975,2.345v3.893a4.294,4.294,0,0,0,.357,1.934V0ZM15.265-1.668a2.066,2.066,0,0,0,.979-.237,1.554,1.554,0,0,0,.664-.635V-4.084h-.9q-1.8,0-1.917,1.245l-.008.141a.96.96,0,0,0,.315.739A1.225,1.225,0,0,0,15.265-1.668Zm10.94-5.063a6.517,6.517,0,0,0-.863-.066,1.757,1.757,0,0,0-1.785.921V0h-2.4V-8.981h2.266l.066,1.071a2.223,2.223,0,0,1,2-1.237,2.514,2.514,0,0,1,.747.108Zm.647,2.175a5.264,5.264,0,0,1,.984-3.329,3.187,3.187,0,0,1,2.652-1.262,2.8,2.8,0,0,1,2.3,1.013l.1-.847h2.175V-.3a3.839,3.839,0,0,1-.535,2.05A3.439,3.439,0,0,1,33.021,3.08a5.3,5.3,0,0,1-2.274.457,4.925,4.925,0,0,1-1.926-.394A3.418,3.418,0,0,1,27.4,2.125L28.463.664a2.81,2.81,0,0,0,2.175,1,2.057,2.057,0,0,0,1.486-.51,1.915,1.915,0,0,0,.531-1.448V-.772a2.775,2.775,0,0,1-2.183.938A3.179,3.179,0,0,1,27.853-1.1a5.262,5.262,0,0,1-1-3.358Zm2.4.171a3.3,3.3,0,0,0,.49,1.922,1.557,1.557,0,0,0,1.345.7,1.665,1.665,0,0,0,1.569-.826V-6.388A1.661,1.661,0,0,0,31.1-7.213a1.566,1.566,0,0,0-1.357.709A3.715,3.715,0,0,0,29.252-4.386Zm7.28-.187a5.327,5.327,0,0,1,.515-2.382,3.767,3.767,0,0,1,1.482-1.619,4.323,4.323,0,0,1,2.245-.573,4.09,4.09,0,0,1,2.968,1.112,4.464,4.464,0,0,1,1.282,3.021l.017.614a4.694,4.694,0,0,1-1.154,3.316A4.011,4.011,0,0,1,40.79.166a4.031,4.031,0,0,1-3.1-1.245,4.777,4.777,0,0,1-1.158-3.387Zm2.4.17a3.357,3.357,0,0,0,.481,1.958,1.588,1.588,0,0,0,1.378.678,1.592,1.592,0,0,0,1.361-.669,3.674,3.674,0,0,0,.49-2.141,3.324,3.324,0,0,0-.49-1.945,1.592,1.592,0,0,0-1.378-.69,1.566,1.566,0,0,0-1.361.686A3.735,3.735,0,0,0,38.931-4.4Z" transform="translate(429.718 2435.203)" fill="#12263f"/>
      <path id="Trazado_206289" data-name="Trazado 206289" d="M10.567-4.026A4.277,4.277,0,0,1,9.127-.955,5.058,5.058,0,0,1,5.7.166,4.548,4.548,0,0,1,2.046-1.4a6.416,6.416,0,0,1-1.332-4.3v-.739A7.245,7.245,0,0,1,1.328-9.5a4.6,4.6,0,0,1,1.756-2.038,4.918,4.918,0,0,1,2.652-.71,4.927,4.927,0,0,1,3.37,1.121,4.6,4.6,0,0,1,1.478,3.146H8.093a2.524,2.524,0,0,0-.652-1.7,2.413,2.413,0,0,0-1.706-.527,2.116,2.116,0,0,0-1.864.892,5,5,0,0,0-.635,2.768v.913a5.352,5.352,0,0,0,.594,2.864,2.077,2.077,0,0,0,1.872.9,2.458,2.458,0,0,0,1.722-.527,2.381,2.381,0,0,0,.652-1.631ZM17.249,0a2.664,2.664,0,0,1-.241-.805,2.9,2.9,0,0,1-2.266.971A3.189,3.189,0,0,1,12.555-.6a2.456,2.456,0,0,1-.867-1.926,2.538,2.538,0,0,1,1.058-2.191A5.222,5.222,0,0,1,15.8-5.487h1.1V-6a1.48,1.48,0,0,0-.32-1,1.257,1.257,0,0,0-1.009-.374,1.429,1.429,0,0,0-.95.291.987.987,0,0,0-.344.8h-2.4a2.41,2.41,0,0,1,.481-1.444A3.182,3.182,0,0,1,13.729-8.77a4.961,4.961,0,0,1,1.976-.378,3.92,3.92,0,0,1,2.635.834,2.918,2.918,0,0,1,.975,2.345v3.893a4.294,4.294,0,0,0,.357,1.934V0ZM15.265-1.668a2.066,2.066,0,0,0,.979-.237,1.554,1.554,0,0,0,.664-.635V-4.084h-.9q-1.8,0-1.917,1.245l-.008.141a.96.96,0,0,0,.315.739A1.225,1.225,0,0,0,15.265-1.668Zm10.94-5.063a6.517,6.517,0,0,0-.863-.066,1.757,1.757,0,0,0-1.785.921V0h-2.4V-8.981h2.266l.066,1.071a2.223,2.223,0,0,1,2-1.237,2.514,2.514,0,0,1,.747.108Zm.647,2.175a5.264,5.264,0,0,1,.984-3.329,3.187,3.187,0,0,1,2.652-1.262,2.8,2.8,0,0,1,2.3,1.013l.1-.847h2.175V-.3a3.839,3.839,0,0,1-.535,2.05A3.439,3.439,0,0,1,33.021,3.08a5.3,5.3,0,0,1-2.274.457,4.925,4.925,0,0,1-1.926-.394A3.418,3.418,0,0,1,27.4,2.125L28.463.664a2.81,2.81,0,0,0,2.175,1,2.057,2.057,0,0,0,1.486-.51,1.915,1.915,0,0,0,.531-1.448V-.772a2.775,2.775,0,0,1-2.183.938A3.179,3.179,0,0,1,27.853-1.1a5.262,5.262,0,0,1-1-3.358Zm2.4.171a3.3,3.3,0,0,0,.49,1.922,1.557,1.557,0,0,0,1.345.7,1.665,1.665,0,0,0,1.569-.826V-6.388A1.661,1.661,0,0,0,31.1-7.213a1.566,1.566,0,0,0-1.357.709A3.715,3.715,0,0,0,29.252-4.386Zm7.28-.187a5.327,5.327,0,0,1,.515-2.382,3.767,3.767,0,0,1,1.482-1.619,4.323,4.323,0,0,1,2.245-.573,4.09,4.09,0,0,1,2.968,1.112,4.464,4.464,0,0,1,1.282,3.021l.017.614a4.694,4.694,0,0,1-1.154,3.316A4.011,4.011,0,0,1,40.79.166a4.031,4.031,0,0,1-3.1-1.245,4.777,4.777,0,0,1-1.158-3.387Zm2.4.17a3.357,3.357,0,0,0,.481,1.958,1.588,1.588,0,0,0,1.378.678,1.592,1.592,0,0,0,1.361-.669,3.674,3.674,0,0,0,.49-2.141,3.324,3.324,0,0,0-.49-1.945,1.592,1.592,0,0,0-1.378-.69,1.566,1.566,0,0,0-1.361.686A3.735,3.735,0,0,0,38.931-4.4Z" transform="translate(429.718 2499.699)" fill="#12263f"/>
      <path id="Trazado_206287" data-name="Trazado 206287" d="M10.567-4.026A4.277,4.277,0,0,1,9.127-.955,5.058,5.058,0,0,1,5.7.166,4.548,4.548,0,0,1,2.046-1.4a6.416,6.416,0,0,1-1.332-4.3v-.739A7.245,7.245,0,0,1,1.328-9.5a4.6,4.6,0,0,1,1.756-2.038,4.918,4.918,0,0,1,2.652-.71,4.927,4.927,0,0,1,3.37,1.121,4.6,4.6,0,0,1,1.478,3.146H8.093a2.524,2.524,0,0,0-.652-1.7,2.413,2.413,0,0,0-1.706-.527,2.116,2.116,0,0,0-1.864.892,5,5,0,0,0-.635,2.768v.913a5.352,5.352,0,0,0,.594,2.864,2.077,2.077,0,0,0,1.872.9,2.458,2.458,0,0,0,1.722-.527,2.381,2.381,0,0,0,.652-1.631ZM17.249,0a2.664,2.664,0,0,1-.241-.805,2.9,2.9,0,0,1-2.266.971A3.189,3.189,0,0,1,12.555-.6a2.456,2.456,0,0,1-.867-1.926,2.538,2.538,0,0,1,1.058-2.191A5.222,5.222,0,0,1,15.8-5.487h1.1V-6a1.48,1.48,0,0,0-.32-1,1.257,1.257,0,0,0-1.009-.374,1.429,1.429,0,0,0-.95.291.987.987,0,0,0-.344.8h-2.4a2.41,2.41,0,0,1,.481-1.444A3.182,3.182,0,0,1,13.729-8.77a4.961,4.961,0,0,1,1.976-.378,3.92,3.92,0,0,1,2.635.834,2.918,2.918,0,0,1,.975,2.345v3.893a4.294,4.294,0,0,0,.357,1.934V0ZM15.265-1.668a2.066,2.066,0,0,0,.979-.237,1.554,1.554,0,0,0,.664-.635V-4.084h-.9q-1.8,0-1.917,1.245l-.008.141a.96.96,0,0,0,.315.739A1.225,1.225,0,0,0,15.265-1.668Zm10.94-5.063a6.517,6.517,0,0,0-.863-.066,1.757,1.757,0,0,0-1.785.921V0h-2.4V-8.981h2.266l.066,1.071a2.223,2.223,0,0,1,2-1.237,2.514,2.514,0,0,1,.747.108Zm.647,2.175a5.264,5.264,0,0,1,.984-3.329,3.187,3.187,0,0,1,2.652-1.262,2.8,2.8,0,0,1,2.3,1.013l.1-.847h2.175V-.3a3.839,3.839,0,0,1-.535,2.05A3.439,3.439,0,0,1,33.021,3.08a5.3,5.3,0,0,1-2.274.457,4.925,4.925,0,0,1-1.926-.394A3.418,3.418,0,0,1,27.4,2.125L28.463.664a2.81,2.81,0,0,0,2.175,1,2.057,2.057,0,0,0,1.486-.51,1.915,1.915,0,0,0,.531-1.448V-.772a2.775,2.775,0,0,1-2.183.938A3.179,3.179,0,0,1,27.853-1.1a5.262,5.262,0,0,1-1-3.358Zm2.4.171a3.3,3.3,0,0,0,.49,1.922,1.557,1.557,0,0,0,1.345.7,1.665,1.665,0,0,0,1.569-.826V-6.388A1.661,1.661,0,0,0,31.1-7.213a1.566,1.566,0,0,0-1.357.709A3.715,3.715,0,0,0,29.252-4.386Zm7.28-.187a5.327,5.327,0,0,1,.515-2.382,3.767,3.767,0,0,1,1.482-1.619,4.323,4.323,0,0,1,2.245-.573,4.09,4.09,0,0,1,2.968,1.112,4.464,4.464,0,0,1,1.282,3.021l.017.614a4.694,4.694,0,0,1-1.154,3.316A4.011,4.011,0,0,1,40.79.166a4.031,4.031,0,0,1-3.1-1.245,4.777,4.777,0,0,1-1.158-3.387Zm2.4.17a3.357,3.357,0,0,0,.481,1.958,1.588,1.588,0,0,0,1.378.678,1.592,1.592,0,0,0,1.361-.669,3.674,3.674,0,0,0,.49-2.141,3.324,3.324,0,0,0-.49-1.945,1.592,1.592,0,0,0-1.378-.69,1.566,1.566,0,0,0-1.361.686A3.735,3.735,0,0,0,38.931-4.4Z" transform="translate(429.718 2370.707)" fill="#12263f"/>
      <rect id="Rectángulo_40599-7" data-name="Rectángulo 40599" width="85.239" height="34.966" rx="6.469" transform="translate(602.478 2413.786)" fill="#d1d5fc" stroke="#3e4bbf" stroke-width="1.835"/>
      <rect id="Rectángulo_40599-8" data-name="Rectángulo 40599" width="85.239" height="34.966" rx="6.469" transform="translate(602.478 2478.282)" fill="#d1d5fc" stroke="#3e4bbf" stroke-width="1.835"/>
      <rect id="Rectángulo_40599-9" data-name="Rectángulo 40599" width="85.239" height="34.966" rx="6.469" transform="translate(602.478 2349.289)" fill="#d1d5fc" stroke="#3e4bbf" stroke-width="1.835"/>
      <path id="Trazado_206291" data-name="Trazado 206291" d="M10.567-4.026A4.277,4.277,0,0,1,9.127-.955,5.058,5.058,0,0,1,5.7.166,4.548,4.548,0,0,1,2.046-1.4a6.416,6.416,0,0,1-1.332-4.3v-.739A7.245,7.245,0,0,1,1.328-9.5a4.6,4.6,0,0,1,1.756-2.038,4.918,4.918,0,0,1,2.652-.71,4.927,4.927,0,0,1,3.37,1.121,4.6,4.6,0,0,1,1.478,3.146H8.093a2.524,2.524,0,0,0-.652-1.7,2.413,2.413,0,0,0-1.706-.527,2.116,2.116,0,0,0-1.864.892,5,5,0,0,0-.635,2.768v.913a5.352,5.352,0,0,0,.594,2.864,2.077,2.077,0,0,0,1.872.9,2.458,2.458,0,0,0,1.722-.527,2.381,2.381,0,0,0,.652-1.631ZM17.249,0a2.664,2.664,0,0,1-.241-.805,2.9,2.9,0,0,1-2.266.971A3.189,3.189,0,0,1,12.555-.6a2.456,2.456,0,0,1-.867-1.926,2.538,2.538,0,0,1,1.058-2.191A5.222,5.222,0,0,1,15.8-5.487h1.1V-6a1.48,1.48,0,0,0-.32-1,1.257,1.257,0,0,0-1.009-.374,1.429,1.429,0,0,0-.95.291.987.987,0,0,0-.344.8h-2.4a2.41,2.41,0,0,1,.481-1.444A3.182,3.182,0,0,1,13.729-8.77a4.961,4.961,0,0,1,1.976-.378,3.92,3.92,0,0,1,2.635.834,2.918,2.918,0,0,1,.975,2.345v3.893a4.294,4.294,0,0,0,.357,1.934V0ZM15.265-1.668a2.066,2.066,0,0,0,.979-.237,1.554,1.554,0,0,0,.664-.635V-4.084h-.9q-1.8,0-1.917,1.245l-.008.141a.96.96,0,0,0,.315.739A1.225,1.225,0,0,0,15.265-1.668Zm10.94-5.063a6.517,6.517,0,0,0-.863-.066,1.757,1.757,0,0,0-1.785.921V0h-2.4V-8.981h2.266l.066,1.071a2.223,2.223,0,0,1,2-1.237,2.514,2.514,0,0,1,.747.108Zm.647,2.175a5.264,5.264,0,0,1,.984-3.329,3.187,3.187,0,0,1,2.652-1.262,2.8,2.8,0,0,1,2.3,1.013l.1-.847h2.175V-.3a3.839,3.839,0,0,1-.535,2.05A3.439,3.439,0,0,1,33.021,3.08a5.3,5.3,0,0,1-2.274.457,4.925,4.925,0,0,1-1.926-.394A3.418,3.418,0,0,1,27.4,2.125L28.463.664a2.81,2.81,0,0,0,2.175,1,2.057,2.057,0,0,0,1.486-.51,1.915,1.915,0,0,0,.531-1.448V-.772a2.775,2.775,0,0,1-2.183.938A3.179,3.179,0,0,1,27.853-1.1a5.262,5.262,0,0,1-1-3.358Zm2.4.171a3.3,3.3,0,0,0,.49,1.922,1.557,1.557,0,0,0,1.345.7,1.665,1.665,0,0,0,1.569-.826V-6.388A1.661,1.661,0,0,0,31.1-7.213a1.566,1.566,0,0,0-1.357.709A3.715,3.715,0,0,0,29.252-4.386Zm7.28-.187a5.327,5.327,0,0,1,.515-2.382,3.767,3.767,0,0,1,1.482-1.619,4.323,4.323,0,0,1,2.245-.573,4.09,4.09,0,0,1,2.968,1.112,4.464,4.464,0,0,1,1.282,3.021l.017.614a4.694,4.694,0,0,1-1.154,3.316A4.011,4.011,0,0,1,40.79.166a4.031,4.031,0,0,1-3.1-1.245,4.777,4.777,0,0,1-1.158-3.387Zm2.4.17a3.357,3.357,0,0,0,.481,1.958,1.588,1.588,0,0,0,1.378.678,1.592,1.592,0,0,0,1.361-.669,3.674,3.674,0,0,0,.49-2.141,3.324,3.324,0,0,0-.49-1.945,1.592,1.592,0,0,0-1.378-.69,1.566,1.566,0,0,0-1.361.686A3.735,3.735,0,0,0,38.931-4.4Z" transform="translate(619.389 2435.203)" fill="#12263f"/>
      <path id="Trazado_206290" data-name="Trazado 206290" d="M10.567-4.026A4.277,4.277,0,0,1,9.127-.955,5.058,5.058,0,0,1,5.7.166,4.548,4.548,0,0,1,2.046-1.4a6.416,6.416,0,0,1-1.332-4.3v-.739A7.245,7.245,0,0,1,1.328-9.5a4.6,4.6,0,0,1,1.756-2.038,4.918,4.918,0,0,1,2.652-.71,4.927,4.927,0,0,1,3.37,1.121,4.6,4.6,0,0,1,1.478,3.146H8.093a2.524,2.524,0,0,0-.652-1.7,2.413,2.413,0,0,0-1.706-.527,2.116,2.116,0,0,0-1.864.892,5,5,0,0,0-.635,2.768v.913a5.352,5.352,0,0,0,.594,2.864,2.077,2.077,0,0,0,1.872.9,2.458,2.458,0,0,0,1.722-.527,2.381,2.381,0,0,0,.652-1.631ZM17.249,0a2.664,2.664,0,0,1-.241-.805,2.9,2.9,0,0,1-2.266.971A3.189,3.189,0,0,1,12.555-.6a2.456,2.456,0,0,1-.867-1.926,2.538,2.538,0,0,1,1.058-2.191A5.222,5.222,0,0,1,15.8-5.487h1.1V-6a1.48,1.48,0,0,0-.32-1,1.257,1.257,0,0,0-1.009-.374,1.429,1.429,0,0,0-.95.291.987.987,0,0,0-.344.8h-2.4a2.41,2.41,0,0,1,.481-1.444A3.182,3.182,0,0,1,13.729-8.77a4.961,4.961,0,0,1,1.976-.378,3.92,3.92,0,0,1,2.635.834,2.918,2.918,0,0,1,.975,2.345v3.893a4.294,4.294,0,0,0,.357,1.934V0ZM15.265-1.668a2.066,2.066,0,0,0,.979-.237,1.554,1.554,0,0,0,.664-.635V-4.084h-.9q-1.8,0-1.917,1.245l-.008.141a.96.96,0,0,0,.315.739A1.225,1.225,0,0,0,15.265-1.668Zm10.94-5.063a6.517,6.517,0,0,0-.863-.066,1.757,1.757,0,0,0-1.785.921V0h-2.4V-8.981h2.266l.066,1.071a2.223,2.223,0,0,1,2-1.237,2.514,2.514,0,0,1,.747.108Zm.647,2.175a5.264,5.264,0,0,1,.984-3.329,3.187,3.187,0,0,1,2.652-1.262,2.8,2.8,0,0,1,2.3,1.013l.1-.847h2.175V-.3a3.839,3.839,0,0,1-.535,2.05A3.439,3.439,0,0,1,33.021,3.08a5.3,5.3,0,0,1-2.274.457,4.925,4.925,0,0,1-1.926-.394A3.418,3.418,0,0,1,27.4,2.125L28.463.664a2.81,2.81,0,0,0,2.175,1,2.057,2.057,0,0,0,1.486-.51,1.915,1.915,0,0,0,.531-1.448V-.772a2.775,2.775,0,0,1-2.183.938A3.179,3.179,0,0,1,27.853-1.1a5.262,5.262,0,0,1-1-3.358Zm2.4.171a3.3,3.3,0,0,0,.49,1.922,1.557,1.557,0,0,0,1.345.7,1.665,1.665,0,0,0,1.569-.826V-6.388A1.661,1.661,0,0,0,31.1-7.213a1.566,1.566,0,0,0-1.357.709A3.715,3.715,0,0,0,29.252-4.386Zm7.28-.187a5.327,5.327,0,0,1,.515-2.382,3.767,3.767,0,0,1,1.482-1.619,4.323,4.323,0,0,1,2.245-.573,4.09,4.09,0,0,1,2.968,1.112,4.464,4.464,0,0,1,1.282,3.021l.017.614a4.694,4.694,0,0,1-1.154,3.316A4.011,4.011,0,0,1,40.79.166a4.031,4.031,0,0,1-3.1-1.245,4.777,4.777,0,0,1-1.158-3.387Zm2.4.17a3.357,3.357,0,0,0,.481,1.958,1.588,1.588,0,0,0,1.378.678,1.592,1.592,0,0,0,1.361-.669,3.674,3.674,0,0,0,.49-2.141,3.324,3.324,0,0,0-.49-1.945,1.592,1.592,0,0,0-1.378-.69,1.566,1.566,0,0,0-1.361.686A3.735,3.735,0,0,0,38.931-4.4Z" transform="translate(619.389 2499.699)" fill="#12263f"/>
      <path id="Trazado_206292" data-name="Trazado 206292" d="M10.567-4.026A4.277,4.277,0,0,1,9.127-.955,5.058,5.058,0,0,1,5.7.166,4.548,4.548,0,0,1,2.046-1.4a6.416,6.416,0,0,1-1.332-4.3v-.739A7.245,7.245,0,0,1,1.328-9.5a4.6,4.6,0,0,1,1.756-2.038,4.918,4.918,0,0,1,2.652-.71,4.927,4.927,0,0,1,3.37,1.121,4.6,4.6,0,0,1,1.478,3.146H8.093a2.524,2.524,0,0,0-.652-1.7,2.413,2.413,0,0,0-1.706-.527,2.116,2.116,0,0,0-1.864.892,5,5,0,0,0-.635,2.768v.913a5.352,5.352,0,0,0,.594,2.864,2.077,2.077,0,0,0,1.872.9,2.458,2.458,0,0,0,1.722-.527,2.381,2.381,0,0,0,.652-1.631ZM17.249,0a2.664,2.664,0,0,1-.241-.805,2.9,2.9,0,0,1-2.266.971A3.189,3.189,0,0,1,12.555-.6a2.456,2.456,0,0,1-.867-1.926,2.538,2.538,0,0,1,1.058-2.191A5.222,5.222,0,0,1,15.8-5.487h1.1V-6a1.48,1.48,0,0,0-.32-1,1.257,1.257,0,0,0-1.009-.374,1.429,1.429,0,0,0-.95.291.987.987,0,0,0-.344.8h-2.4a2.41,2.41,0,0,1,.481-1.444A3.182,3.182,0,0,1,13.729-8.77a4.961,4.961,0,0,1,1.976-.378,3.92,3.92,0,0,1,2.635.834,2.918,2.918,0,0,1,.975,2.345v3.893a4.294,4.294,0,0,0,.357,1.934V0ZM15.265-1.668a2.066,2.066,0,0,0,.979-.237,1.554,1.554,0,0,0,.664-.635V-4.084h-.9q-1.8,0-1.917,1.245l-.008.141a.96.96,0,0,0,.315.739A1.225,1.225,0,0,0,15.265-1.668Zm10.94-5.063a6.517,6.517,0,0,0-.863-.066,1.757,1.757,0,0,0-1.785.921V0h-2.4V-8.981h2.266l.066,1.071a2.223,2.223,0,0,1,2-1.237,2.514,2.514,0,0,1,.747.108Zm.647,2.175a5.264,5.264,0,0,1,.984-3.329,3.187,3.187,0,0,1,2.652-1.262,2.8,2.8,0,0,1,2.3,1.013l.1-.847h2.175V-.3a3.839,3.839,0,0,1-.535,2.05A3.439,3.439,0,0,1,33.021,3.08a5.3,5.3,0,0,1-2.274.457,4.925,4.925,0,0,1-1.926-.394A3.418,3.418,0,0,1,27.4,2.125L28.463.664a2.81,2.81,0,0,0,2.175,1,2.057,2.057,0,0,0,1.486-.51,1.915,1.915,0,0,0,.531-1.448V-.772a2.775,2.775,0,0,1-2.183.938A3.179,3.179,0,0,1,27.853-1.1a5.262,5.262,0,0,1-1-3.358Zm2.4.171a3.3,3.3,0,0,0,.49,1.922,1.557,1.557,0,0,0,1.345.7,1.665,1.665,0,0,0,1.569-.826V-6.388A1.661,1.661,0,0,0,31.1-7.213a1.566,1.566,0,0,0-1.357.709A3.715,3.715,0,0,0,29.252-4.386Zm7.28-.187a5.327,5.327,0,0,1,.515-2.382,3.767,3.767,0,0,1,1.482-1.619,4.323,4.323,0,0,1,2.245-.573,4.09,4.09,0,0,1,2.968,1.112,4.464,4.464,0,0,1,1.282,3.021l.017.614a4.694,4.694,0,0,1-1.154,3.316A4.011,4.011,0,0,1,40.79.166a4.031,4.031,0,0,1-3.1-1.245,4.777,4.777,0,0,1-1.158-3.387Zm2.4.17a3.357,3.357,0,0,0,.481,1.958,1.588,1.588,0,0,0,1.378.678,1.592,1.592,0,0,0,1.361-.669,3.674,3.674,0,0,0,.49-2.141,3.324,3.324,0,0,0-.49-1.945,1.592,1.592,0,0,0-1.378-.69,1.566,1.566,0,0,0-1.361.686A3.735,3.735,0,0,0,38.931-4.4Z" transform="translate(619.389 2370.707)" fill="#12263f"/>
      <rect id="Rectángulo_40599-10" data-name="Rectángulo 40599" width="85.239" height="34.966" rx="6.469" transform="translate(788.366 2413.786)" fill="#d1d5fc" stroke="#3e4bbf" stroke-width="1.835"/>
      <rect id="Rectángulo_40599-11" data-name="Rectángulo 40599" width="85.239" height="34.966" rx="6.469" transform="translate(788.366 2478.282)" fill="#d1d5fc" stroke="#3e4bbf" stroke-width="1.835"/>
      <rect id="Rectángulo_40599-12" data-name="Rectángulo 40599" width="85.239" height="34.966" rx="6.469" transform="translate(788.366 2349.289)" fill="#d1d5fc" stroke="#3e4bbf" stroke-width="1.835"/>
      <path id="Trazado_206296" data-name="Trazado 206296" d="M10.567-4.026A4.277,4.277,0,0,1,9.127-.955,5.058,5.058,0,0,1,5.7.166,4.548,4.548,0,0,1,2.046-1.4a6.416,6.416,0,0,1-1.332-4.3v-.739A7.245,7.245,0,0,1,1.328-9.5a4.6,4.6,0,0,1,1.756-2.038,4.918,4.918,0,0,1,2.652-.71,4.927,4.927,0,0,1,3.37,1.121,4.6,4.6,0,0,1,1.478,3.146H8.093a2.524,2.524,0,0,0-.652-1.7,2.413,2.413,0,0,0-1.706-.527,2.116,2.116,0,0,0-1.864.892,5,5,0,0,0-.635,2.768v.913a5.352,5.352,0,0,0,.594,2.864,2.077,2.077,0,0,0,1.872.9,2.458,2.458,0,0,0,1.722-.527,2.381,2.381,0,0,0,.652-1.631ZM17.249,0a2.664,2.664,0,0,1-.241-.805,2.9,2.9,0,0,1-2.266.971A3.189,3.189,0,0,1,12.555-.6a2.456,2.456,0,0,1-.867-1.926,2.538,2.538,0,0,1,1.058-2.191A5.222,5.222,0,0,1,15.8-5.487h1.1V-6a1.48,1.48,0,0,0-.32-1,1.257,1.257,0,0,0-1.009-.374,1.429,1.429,0,0,0-.95.291.987.987,0,0,0-.344.8h-2.4a2.41,2.41,0,0,1,.481-1.444A3.182,3.182,0,0,1,13.729-8.77a4.961,4.961,0,0,1,1.976-.378,3.92,3.92,0,0,1,2.635.834,2.918,2.918,0,0,1,.975,2.345v3.893a4.294,4.294,0,0,0,.357,1.934V0ZM15.265-1.668a2.066,2.066,0,0,0,.979-.237,1.554,1.554,0,0,0,.664-.635V-4.084h-.9q-1.8,0-1.917,1.245l-.008.141a.96.96,0,0,0,.315.739A1.225,1.225,0,0,0,15.265-1.668Zm10.94-5.063a6.517,6.517,0,0,0-.863-.066,1.757,1.757,0,0,0-1.785.921V0h-2.4V-8.981h2.266l.066,1.071a2.223,2.223,0,0,1,2-1.237,2.514,2.514,0,0,1,.747.108Zm.647,2.175a5.264,5.264,0,0,1,.984-3.329,3.187,3.187,0,0,1,2.652-1.262,2.8,2.8,0,0,1,2.3,1.013l.1-.847h2.175V-.3a3.839,3.839,0,0,1-.535,2.05A3.439,3.439,0,0,1,33.021,3.08a5.3,5.3,0,0,1-2.274.457,4.925,4.925,0,0,1-1.926-.394A3.418,3.418,0,0,1,27.4,2.125L28.463.664a2.81,2.81,0,0,0,2.175,1,2.057,2.057,0,0,0,1.486-.51,1.915,1.915,0,0,0,.531-1.448V-.772a2.775,2.775,0,0,1-2.183.938A3.179,3.179,0,0,1,27.853-1.1a5.262,5.262,0,0,1-1-3.358Zm2.4.171a3.3,3.3,0,0,0,.49,1.922,1.557,1.557,0,0,0,1.345.7,1.665,1.665,0,0,0,1.569-.826V-6.388A1.661,1.661,0,0,0,31.1-7.213a1.566,1.566,0,0,0-1.357.709A3.715,3.715,0,0,0,29.252-4.386Zm7.28-.187a5.327,5.327,0,0,1,.515-2.382,3.767,3.767,0,0,1,1.482-1.619,4.323,4.323,0,0,1,2.245-.573,4.09,4.09,0,0,1,2.968,1.112,4.464,4.464,0,0,1,1.282,3.021l.017.614a4.694,4.694,0,0,1-1.154,3.316A4.011,4.011,0,0,1,40.79.166a4.031,4.031,0,0,1-3.1-1.245,4.777,4.777,0,0,1-1.158-3.387Zm2.4.17a3.357,3.357,0,0,0,.481,1.958,1.588,1.588,0,0,0,1.378.678,1.592,1.592,0,0,0,1.361-.669,3.674,3.674,0,0,0,.49-2.141,3.324,3.324,0,0,0-.49-1.945,1.592,1.592,0,0,0-1.378-.69,1.566,1.566,0,0,0-1.361.686A3.735,3.735,0,0,0,38.931-4.4Z" transform="translate(805.278 2435.203)" fill="#12263f"/>
      <path id="Trazado_206297" data-name="Trazado 206297" d="M10.567-4.026A4.277,4.277,0,0,1,9.127-.955,5.058,5.058,0,0,1,5.7.166,4.548,4.548,0,0,1,2.046-1.4a6.416,6.416,0,0,1-1.332-4.3v-.739A7.245,7.245,0,0,1,1.328-9.5a4.6,4.6,0,0,1,1.756-2.038,4.918,4.918,0,0,1,2.652-.71,4.927,4.927,0,0,1,3.37,1.121,4.6,4.6,0,0,1,1.478,3.146H8.093a2.524,2.524,0,0,0-.652-1.7,2.413,2.413,0,0,0-1.706-.527,2.116,2.116,0,0,0-1.864.892,5,5,0,0,0-.635,2.768v.913a5.352,5.352,0,0,0,.594,2.864,2.077,2.077,0,0,0,1.872.9,2.458,2.458,0,0,0,1.722-.527,2.381,2.381,0,0,0,.652-1.631ZM17.249,0a2.664,2.664,0,0,1-.241-.805,2.9,2.9,0,0,1-2.266.971A3.189,3.189,0,0,1,12.555-.6a2.456,2.456,0,0,1-.867-1.926,2.538,2.538,0,0,1,1.058-2.191A5.222,5.222,0,0,1,15.8-5.487h1.1V-6a1.48,1.48,0,0,0-.32-1,1.257,1.257,0,0,0-1.009-.374,1.429,1.429,0,0,0-.95.291.987.987,0,0,0-.344.8h-2.4a2.41,2.41,0,0,1,.481-1.444A3.182,3.182,0,0,1,13.729-8.77a4.961,4.961,0,0,1,1.976-.378,3.92,3.92,0,0,1,2.635.834,2.918,2.918,0,0,1,.975,2.345v3.893a4.294,4.294,0,0,0,.357,1.934V0ZM15.265-1.668a2.066,2.066,0,0,0,.979-.237,1.554,1.554,0,0,0,.664-.635V-4.084h-.9q-1.8,0-1.917,1.245l-.008.141a.96.96,0,0,0,.315.739A1.225,1.225,0,0,0,15.265-1.668Zm10.94-5.063a6.517,6.517,0,0,0-.863-.066,1.757,1.757,0,0,0-1.785.921V0h-2.4V-8.981h2.266l.066,1.071a2.223,2.223,0,0,1,2-1.237,2.514,2.514,0,0,1,.747.108Zm.647,2.175a5.264,5.264,0,0,1,.984-3.329,3.187,3.187,0,0,1,2.652-1.262,2.8,2.8,0,0,1,2.3,1.013l.1-.847h2.175V-.3a3.839,3.839,0,0,1-.535,2.05A3.439,3.439,0,0,1,33.021,3.08a5.3,5.3,0,0,1-2.274.457,4.925,4.925,0,0,1-1.926-.394A3.418,3.418,0,0,1,27.4,2.125L28.463.664a2.81,2.81,0,0,0,2.175,1,2.057,2.057,0,0,0,1.486-.51,1.915,1.915,0,0,0,.531-1.448V-.772a2.775,2.775,0,0,1-2.183.938A3.179,3.179,0,0,1,27.853-1.1a5.262,5.262,0,0,1-1-3.358Zm2.4.171a3.3,3.3,0,0,0,.49,1.922,1.557,1.557,0,0,0,1.345.7,1.665,1.665,0,0,0,1.569-.826V-6.388A1.661,1.661,0,0,0,31.1-7.213a1.566,1.566,0,0,0-1.357.709A3.715,3.715,0,0,0,29.252-4.386Zm7.28-.187a5.327,5.327,0,0,1,.515-2.382,3.767,3.767,0,0,1,1.482-1.619,4.323,4.323,0,0,1,2.245-.573,4.09,4.09,0,0,1,2.968,1.112,4.464,4.464,0,0,1,1.282,3.021l.017.614a4.694,4.694,0,0,1-1.154,3.316A4.011,4.011,0,0,1,40.79.166a4.031,4.031,0,0,1-3.1-1.245,4.777,4.777,0,0,1-1.158-3.387Zm2.4.17a3.357,3.357,0,0,0,.481,1.958,1.588,1.588,0,0,0,1.378.678,1.592,1.592,0,0,0,1.361-.669,3.674,3.674,0,0,0,.49-2.141,3.324,3.324,0,0,0-.49-1.945,1.592,1.592,0,0,0-1.378-.69,1.566,1.566,0,0,0-1.361.686A3.735,3.735,0,0,0,38.931-4.4Z" transform="translate(805.278 2499.699)" fill="#12263f"/>
      <path id="Trazado_206295" data-name="Trazado 206295" d="M10.567-4.026A4.277,4.277,0,0,1,9.127-.955,5.058,5.058,0,0,1,5.7.166,4.548,4.548,0,0,1,2.046-1.4a6.416,6.416,0,0,1-1.332-4.3v-.739A7.245,7.245,0,0,1,1.328-9.5a4.6,4.6,0,0,1,1.756-2.038,4.918,4.918,0,0,1,2.652-.71,4.927,4.927,0,0,1,3.37,1.121,4.6,4.6,0,0,1,1.478,3.146H8.093a2.524,2.524,0,0,0-.652-1.7,2.413,2.413,0,0,0-1.706-.527,2.116,2.116,0,0,0-1.864.892,5,5,0,0,0-.635,2.768v.913a5.352,5.352,0,0,0,.594,2.864,2.077,2.077,0,0,0,1.872.9,2.458,2.458,0,0,0,1.722-.527,2.381,2.381,0,0,0,.652-1.631ZM17.249,0a2.664,2.664,0,0,1-.241-.805,2.9,2.9,0,0,1-2.266.971A3.189,3.189,0,0,1,12.555-.6a2.456,2.456,0,0,1-.867-1.926,2.538,2.538,0,0,1,1.058-2.191A5.222,5.222,0,0,1,15.8-5.487h1.1V-6a1.48,1.48,0,0,0-.32-1,1.257,1.257,0,0,0-1.009-.374,1.429,1.429,0,0,0-.95.291.987.987,0,0,0-.344.8h-2.4a2.41,2.41,0,0,1,.481-1.444A3.182,3.182,0,0,1,13.729-8.77a4.961,4.961,0,0,1,1.976-.378,3.92,3.92,0,0,1,2.635.834,2.918,2.918,0,0,1,.975,2.345v3.893a4.294,4.294,0,0,0,.357,1.934V0ZM15.265-1.668a2.066,2.066,0,0,0,.979-.237,1.554,1.554,0,0,0,.664-.635V-4.084h-.9q-1.8,0-1.917,1.245l-.008.141a.96.96,0,0,0,.315.739A1.225,1.225,0,0,0,15.265-1.668Zm10.94-5.063a6.517,6.517,0,0,0-.863-.066,1.757,1.757,0,0,0-1.785.921V0h-2.4V-8.981h2.266l.066,1.071a2.223,2.223,0,0,1,2-1.237,2.514,2.514,0,0,1,.747.108Zm.647,2.175a5.264,5.264,0,0,1,.984-3.329,3.187,3.187,0,0,1,2.652-1.262,2.8,2.8,0,0,1,2.3,1.013l.1-.847h2.175V-.3a3.839,3.839,0,0,1-.535,2.05A3.439,3.439,0,0,1,33.021,3.08a5.3,5.3,0,0,1-2.274.457,4.925,4.925,0,0,1-1.926-.394A3.418,3.418,0,0,1,27.4,2.125L28.463.664a2.81,2.81,0,0,0,2.175,1,2.057,2.057,0,0,0,1.486-.51,1.915,1.915,0,0,0,.531-1.448V-.772a2.775,2.775,0,0,1-2.183.938A3.179,3.179,0,0,1,27.853-1.1a5.262,5.262,0,0,1-1-3.358Zm2.4.171a3.3,3.3,0,0,0,.49,1.922,1.557,1.557,0,0,0,1.345.7,1.665,1.665,0,0,0,1.569-.826V-6.388A1.661,1.661,0,0,0,31.1-7.213a1.566,1.566,0,0,0-1.357.709A3.715,3.715,0,0,0,29.252-4.386Zm7.28-.187a5.327,5.327,0,0,1,.515-2.382,3.767,3.767,0,0,1,1.482-1.619,4.323,4.323,0,0,1,2.245-.573,4.09,4.09,0,0,1,2.968,1.112,4.464,4.464,0,0,1,1.282,3.021l.017.614a4.694,4.694,0,0,1-1.154,3.316A4.011,4.011,0,0,1,40.79.166a4.031,4.031,0,0,1-3.1-1.245,4.777,4.777,0,0,1-1.158-3.387Zm2.4.17a3.357,3.357,0,0,0,.481,1.958,1.588,1.588,0,0,0,1.378.678,1.592,1.592,0,0,0,1.361-.669,3.674,3.674,0,0,0,.49-2.141,3.324,3.324,0,0,0-.49-1.945,1.592,1.592,0,0,0-1.378-.69,1.566,1.566,0,0,0-1.361.686A3.735,3.735,0,0,0,38.931-4.4Z" transform="translate(805.278 2370.707)" fill="#12263f"/>
    </g>
  </g>
</svg>
