<svg xmlns="http://www.w3.org/2000/svg" width="100" height="96.342" viewBox="0 0 100 96.342">
  <g id="habilidades" transform="translate(-8.001 -14.671)">
    <g id="Grupo_150411" data-name="Grupo 150411" transform="translate(9.598 16.267)">
      <g id="Grupo_150407" data-name="Grupo 150407" transform="translate(34.127 0)">
        <path id="Trazado_204094" data-name="Trazado 204094" d="M208.98,54.921c.663-11.279,5.551-10.822,5.551-18.474a13.778,13.778,0,1,0-27.556,0c0,7.652,4.888,7.195,5.551,18.474V57.16a2.245,2.245,0,0,0,2.239,2.239h11.976a2.245,2.245,0,0,0,2.239-2.239Z" transform="translate(-186.975 -22.669)" fill="#dce736" fill-rule="evenodd"/>
        <path id="Trazado_204095" data-name="Trazado 204095" d="M260.6,54.921c.663-11.279,5.551-10.822,5.551-18.474a13.778,13.778,0,0,0-13.778-13.778c-.3,0-.606.011-.9.03A13.778,13.778,0,0,1,264.34,36.447c0,7.652-4.888,7.195-5.551,18.474V57.16A2.245,2.245,0,0,1,256.55,59.4h1.81A2.245,2.245,0,0,0,260.6,57.16Z" transform="translate(-238.594 -22.669)" fill="#ffd064" fill-rule="evenodd"/>
        <path id="Trazado_204096" data-name="Trazado 204096" d="M245.264,224.584h-7.383v3.143a2.246,2.246,0,0,0,2.239,2.239h2.906a2.245,2.245,0,0,0,2.239-2.239Z" transform="translate(-227.72 -184.28)" fill="#a0a0a3" fill-rule="evenodd"/>
        <path id="Trazado_204097" data-name="Trazado 204097" d="M236.114,207.7a2.245,2.245,0,0,0,2.239-2.239v-3.1H226.377v3.1a2.245,2.245,0,0,0,2.239,2.239Z" transform="translate(-218.512 -166.493)" fill="#b1b1b5" fill-rule="evenodd"/>
        <path id="Trazado_204098" data-name="Trazado 204098" d="M269.729,207.7a2.245,2.245,0,0,0,2.239-2.239v-3.1h-1.354v3.1a2.245,2.245,0,0,1-2.239,2.239Z" transform="translate(-252.128 -166.493)" fill="#a0a0a3" fill-rule="evenodd"/>
        <path id="Trazado_204099" data-name="Trazado 204099" d="M231.239,184.245H214.786v2.239a2.245,2.245,0,0,0,2.239,2.239H229a2.245,2.245,0,0,0,2.239-2.239Z" transform="translate(-209.235 -151.993)" fill="#d1d1d6" fill-rule="evenodd"/>
        <path id="Trazado_204100" data-name="Trazado 204100" d="M280.981,184.245h-1.81v2.239a2.245,2.245,0,0,1-2.239,2.239h1.81a2.245,2.245,0,0,0,2.239-2.239Z" transform="translate(-258.976 -151.993)" fill="#b1b1b5" fill-rule="evenodd"/>
      </g>
      <g id="Grupo_150408" data-name="Grupo 150408" transform="translate(0 26.746)">
        <path id="Trazado_204101" data-name="Trazado 204101" d="M33.666,159.2a12.8,12.8,0,0,1,4.67,1.936l2.49-1.106,2.144,2.144-1.106,2.49a12.8,12.8,0,0,1,1.936,4.671l2.541.978v3.032l-2.541.978A12.8,12.8,0,0,1,41.864,179l1.106,2.49-2.144,2.144-2.489-1.106a12.794,12.794,0,0,1-4.671,1.936L32.688,187H29.656l-.978-2.541a12.8,12.8,0,0,1-4.67-1.936l-2.49,1.106-2.144-2.144L20.48,179a12.8,12.8,0,0,1-1.936-4.671L16,173.348v-3.032l2.541-.978a12.8,12.8,0,0,1,1.936-4.67l-1.106-2.49,2.144-2.144,2.49,1.106a12.8,12.8,0,0,1,4.67-1.936l.978-2.541h3.032Z" transform="translate(-16.003 -156.663)" fill="#f85316" fill-rule="evenodd"/>
        <path id="Trazado_204102" data-name="Trazado 204102" d="M60.716,160.391l.8-.355,2.144,2.144-1.106,2.49a12.8,12.8,0,0,1,1.936,4.671l2.541.978v3.032l-2.541.978A12.8,12.8,0,0,1,62.553,179l1.106,2.49-2.144,2.144-.8-.355,1.789-1.789L61.4,179a12.8,12.8,0,0,0,1.936-4.67l2.541-.978v-3.032l-2.541-.978A12.8,12.8,0,0,0,61.4,164.67l1.106-2.49Zm-18.864,0,.355-.355,2.49,1.106q-.24.146-.473.3ZM44.7,182.526l-2.49,1.106-.355-.355,2.373-1.054Q44.457,182.38,44.7,182.526Zm9.658-23.32a12.8,12.8,0,0,1,4.67,1.936l-.682.3a15.7,15.7,0,0,0-5.143-2.239l-.978-2.541h1.155Zm4.608,23.362a12.8,12.8,0,0,1-4.608,1.894L53.377,187H52.223l.978-2.541a15.7,15.7,0,0,0,5.144-2.239l.682.3C59,182.54,58.984,182.554,58.963,182.569Z" transform="translate(-36.692 -156.665)" fill="#685e68" fill-rule="evenodd"/>
        <circle id="Elipse_5693" data-name="Elipse 5693" cx="7.787" cy="7.787" r="7.787" transform="translate(7.382 7.383)" fill="#eceff1"/>
        <path id="Trazado_204103" data-name="Trazado 204103" d="M60.774,193.651c.185,0,.369.007.551.02a7.786,7.786,0,0,0,0,15.534c-.182.013-.366.02-.551.02a7.787,7.787,0,1,1,0-15.573Z" transform="translate(-45.605 -186.268)" fill="#d1d1d6" fill-rule="evenodd"/>
      </g>
      <g id="Grupo_150409" data-name="Grupo 150409" transform="translate(62.874 24.164)">
        <circle id="Elipse_5694" data-name="Elipse 5694" cx="15.17" cy="15.17" r="15.17" transform="translate(0 5.734) rotate(-10.894)" fill="#dce736"/>
      </g>
      <g id="Grupo_150410" data-name="Grupo 150410" transform="translate(28.386 54.932)">
        <path id="Trazado_204105" data-name="Trazado 204105" d="M160.5,417.491h34.453a2.288,2.288,0,0,0,2.216-2.858,20.081,20.081,0,0,0-38.884,0,2.288,2.288,0,0,0,2.216,2.858Z" transform="translate(-158.211 -379.275)" fill="#75b62f" fill-rule="evenodd"/>
        <circle id="Elipse_5695" data-name="Elipse 5695" cx="10.15" cy="10.15" r="10.15" transform="translate(9.369)" fill="#f6dccd"/>
        <path id="Trazado_204107" data-name="Trazado 204107" d="M250.3,297.87a10.15,10.15,0,1,1-1.423,20.2,10.151,10.151,0,0,0,0-20.1,10.255,10.255,0,0,1,1.423-.1Z" transform="translate(-230.776 -297.87)" fill="#f1cbbc" fill-rule="evenodd"/>
      </g>
    </g>
    <path id="Trazado_204108" data-name="Trazado 204108" d="M75.6,107.819A18.433,18.433,0,0,0,57.508,93.1H57.5a18.431,18.431,0,0,0-18.094,14.721ZM57.5,89.9h.009a8.554,8.554,0,1,0-.009,0Zm21.553,19.342a1.592,1.592,0,0,1-1.586,1.766H37.544a1.6,1.6,0,0,1-1.59-1.766A21.607,21.607,0,0,1,50.768,90.967a11.747,11.747,0,1,1,13.47,0A21.608,21.608,0,0,1,79.051,109.246ZM90.736,78.451l.667,4.6a1.6,1.6,0,0,1-3.16.457l0-.017A32.7,32.7,0,0,1,76.62,94.056,1.6,1.6,0,0,1,75.1,91.248a29.5,29.5,0,0,0,10.05-8.894,1.6,1.6,0,0,1-.831-3.02l4.12-2.078a1.595,1.595,0,0,1,2.3,1.2ZM40.423,92.575a1.592,1.592,0,0,1-1.188.845l-4.6.666a1.767,1.767,0,0,1-.232.016,1.6,1.6,0,0,1-.228-3.177l.02,0A32.743,32.743,0,0,1,23.622,79.294a1.6,1.6,0,0,1,2.808-1.521,29.547,29.547,0,0,0,8.9,10.057A1.6,1.6,0,0,1,38.353,87l2.08,4.122A1.593,1.593,0,0,1,40.423,92.575ZM24.269,37.92a1.594,1.594,0,0,0,1.578,1.367,1.583,1.583,0,0,0,.722-.172l4.12-2.077a1.6,1.6,0,0,0-.831-3.02,29.516,29.516,0,0,1,10.05-8.894,1.6,1.6,0,0,0-1.521-2.808A32.653,32.653,0,0,0,26.766,32.877l0-.018a1.6,1.6,0,0,0-3.16.456Zm52.387-8.546a1.6,1.6,0,0,0,3.018-.828,29.517,29.517,0,0,1,8.9,10.048,1.6,1.6,0,1,0,2.809-1.521A32.713,32.713,0,0,0,80.815,25.452l.017,0a1.6,1.6,0,1,0-.457-3.163l-4.6.667a1.6,1.6,0,0,0-1.2,2.3ZM63.083,31.751a1.605,1.605,0,1,0-1.6-1.6v1.6ZM45.322,30.046a12.181,12.181,0,1,1,24.362,0,11.283,11.283,0,0,1-2.034,6.6,22.3,22.3,0,0,0-3.4,10.276H61.48V34.945h1.6a4.8,4.8,0,1,0-4.8-4.8v1.6H56.721v-1.6a4.8,4.8,0,1,0-4.8,4.8h1.6V46.921H50.75a22.29,22.29,0,0,0-3.395-10.276,11.284,11.284,0,0,1-2.034-6.6ZM59.673,59.715v-.643H55.484v.643a.65.65,0,0,0,.641.641H59.03A.651.651,0,0,0,59.673,59.715Zm2.3-4.48v-.641H53.186v.641a.651.651,0,0,0,.642.643h7.5A.651.651,0,0,0,61.969,55.235Zm-11.1-5.121v.644a.653.653,0,0,0,.643.643H63.489a.652.652,0,0,0,.643-.643v-.644Zm7.414-15.169H56.721V46.921h1.565Zm-4.759-4.8a1.605,1.605,0,1,0-1.6,1.6h1.6ZM44.6,38.259a14.4,14.4,0,0,1-2.471-8.212,15.374,15.374,0,1,1,30.749,0,14.4,14.4,0,0,1-2.471,8.212,19.694,19.694,0,0,0-3.08,10.311v2.188a3.84,3.84,0,0,1-2.164,3.447v1.03a3.839,3.839,0,0,1-2.3,3.511v.969a3.841,3.841,0,0,1-3.836,3.834H56.124a3.839,3.839,0,0,1-3.834-3.834v-.969a3.837,3.837,0,0,1-2.3-3.511v-.958a3.838,3.838,0,0,1-2.313-3.518V48.57A19.676,19.676,0,0,0,44.6,38.259ZM27.416,69.287a11.318,11.318,0,0,0,3.326-1.379,1.592,1.592,0,0,1,1.485-.1l1.461.648,1.351-1.353-.648-1.461a1.6,1.6,0,0,1,.1-1.485,11.379,11.379,0,0,0,1.377-3.324,1.6,1.6,0,0,1,.98-1.121l1.491-.573V57.227l-1.489-.572a1.6,1.6,0,0,1-.98-1.12,11.379,11.379,0,0,0-1.379-3.326,1.6,1.6,0,0,1-.1-1.485l.648-1.461-1.351-1.351-1.463.649a1.6,1.6,0,0,1-1.485-.1,11.361,11.361,0,0,0-3.324-1.38A1.6,1.6,0,0,1,26.3,46.1l-.573-1.491H23.809L23.237,46.1a1.594,1.594,0,0,1-1.122.978,11.381,11.381,0,0,0-3.324,1.38,1.6,1.6,0,0,1-1.484.1l-1.462-.649-1.353,1.351.649,1.461a1.591,1.591,0,0,1-.1,1.485,11.326,11.326,0,0,0-1.379,3.326,1.6,1.6,0,0,1-.98,1.12l-1.489.572v1.915l1.489.573a1.6,1.6,0,0,1,.98,1.119,11.348,11.348,0,0,0,1.378,3.326,1.6,1.6,0,0,1,.1,1.485l-.649,1.461,1.353,1.353,1.462-.651a1.6,1.6,0,0,1,1.484.1,11.373,11.373,0,0,0,3.324,1.379,1.6,1.6,0,0,1,1.122.978l.572,1.491h1.915l.573-1.489a1.6,1.6,0,0,1,1.119-.98Zm-.6,5.662a1.594,1.594,0,0,0,1.489-1.021l.676-1.759a14.469,14.469,0,0,0,2.687-1.112l1.72.765a1.6,1.6,0,0,0,1.778-.332l2.9-2.9a1.6,1.6,0,0,0,.332-1.778l-.767-1.722A14.475,14.475,0,0,0,38.753,62.4l1.757-.676a1.6,1.6,0,0,0,1.023-1.491V56.131A1.6,1.6,0,0,0,40.51,54.64l-1.757-.674a14.466,14.466,0,0,0-1.114-2.687l.767-1.72a1.6,1.6,0,0,0-.332-1.778l-2.9-2.9a1.6,1.6,0,0,0-1.778-.332l-1.722.767A14.355,14.355,0,0,0,28.986,44.2l-.676-1.759a1.594,1.594,0,0,0-1.489-1.022H22.714a1.6,1.6,0,0,0-1.491,1.022L20.546,44.2a14.484,14.484,0,0,0-2.685,1.113l-1.722-.767a1.6,1.6,0,0,0-1.777.332l-2.9,2.9a1.6,1.6,0,0,0-.332,1.778l.765,1.72a14.575,14.575,0,0,0-1.111,2.687l-1.759.674A1.6,1.6,0,0,0,8,56.131v4.106a1.6,1.6,0,0,0,1.022,1.491l1.757.674a14.451,14.451,0,0,0,1.113,2.687l-.765,1.72a1.6,1.6,0,0,0,.332,1.778l2.9,2.9a1.6,1.6,0,0,0,1.778.332l1.72-.765a14.673,14.673,0,0,0,2.685,1.112l.676,1.759a1.6,1.6,0,0,0,1.491,1.021H26.82Zm4.137-16.765A6.19,6.19,0,1,1,24.766,52,6.2,6.2,0,0,1,30.957,58.185Zm-6.191,9.381a9.382,9.382,0,1,1,9.384-9.381,9.392,9.392,0,0,1-9.384,9.381Zm79.046-9.381A13.574,13.574,0,1,0,90.237,71.758,13.589,13.589,0,0,0,103.812,58.185Zm3.193,0A16.768,16.768,0,1,0,90.237,74.952,16.787,16.787,0,0,0,107.005,58.185Zm-10.343,3.36a4.49,4.49,0,0,1-1.051,3.569A6.544,6.544,0,0,1,91.834,67.1v.687a1.6,1.6,0,1,1-3.193,0V67.07a6.076,6.076,0,0,1-4.819-4.418,1.6,1.6,0,1,1,3.1-.772c.412,1.648,2.13,2.2,3.479,2.164a4.048,4.048,0,0,0,2.8-1.02,1.3,1.3,0,0,0,.3-1.094c-.1-.784-.579-1.745-3.5-2.224-4.555-.748-5.621-3.138-5.71-5.012a5.3,5.3,0,0,1,4.358-5.368v-.74a1.6,1.6,0,1,1,3.194,0v.727a6.059,6.059,0,0,1,4.343,3.644,1.6,1.6,0,0,1-2.946,1.237,3.192,3.192,0,0,0-3.79-1.775c-.342.078-2.044.545-1.968,2.12.02.417.073,1.527,3.037,2.013,3.757.617,5.827,2.3,6.152,4.991Z" transform="translate(0)" fill-rule="evenodd"/>
  </g>
</svg>
