<svg xmlns="http://www.w3.org/2000/svg" width="610" height="400" viewBox="0 0 610 400">
  <g id="Grupo_150867" data-name="Grupo 150867" transform="translate(-265 -3096)">
    <rect id="Rectángulo_41790" data-name="Rectángulo 41790" width="610" height="400" transform="translate(265 3096)" fill="#f3f9ff"/>
    <rect id="Rectángulo_40599" data-name="Rectángulo 40599" width="512.341" height="34" rx="6.469" transform="translate(314.5 3124.659)" fill="#d1d5fc" stroke="#3e4bbf" stroke-width="1.835"/>
    <rect id="Rectángulo_40599-2" data-name="Rectángulo 40599" width="512.341" height="34" rx="6.469" transform="translate(314.5 3172.396)" fill="#d1d5fc" stroke="#3e4bbf" stroke-width="1.835"/>
    <rect id="Rectángulo_40599-3" data-name="Rectángulo 40599" width="313.13" height="34" rx="6.469" transform="translate(513.711 3220.134)" fill="#bae887" stroke="#77b43a" stroke-width="1.835"/>
    <path id="Rectángulo_40599-4" data-name="Rectángulo 40599" d="M6.469,0H306.662a6.469,6.469,0,0,1,6.469,6.469V198.531A6.469,6.469,0,0,1,306.662,205H6.469A6.469,6.469,0,0,1,0,198.531V6.469A6.469,6.469,0,0,1,6.469,0Z" transform="translate(513.711 3267.871)" fill="#f9f69d" stroke="#dce548" stroke-width="1.835"/>
    <rect id="Rectángulo_40599-5" data-name="Rectángulo 40599" width="180.5" height="205" rx="6.469" transform="translate(314.5 3267.871)" fill="#ffd4a2" stroke="#f55427" stroke-width="1.835"/>
    <path id="Trazado_206404" data-name="Trazado 206404" d="M-11.387-9.477h-3.484V0h-2.344V-9.477h-3.437v-1.9h9.266ZM-7.762,0H-10.02V-8.453h2.258Zm-.664-11.883h2.461L-8.129-9.461H-9.965Zm5.313,1.352v2.078h1.445V-6.8H-3.113v4.219a1.007,1.007,0,0,0,.18.672.9.9,0,0,0,.688.2,3.6,3.6,0,0,0,.664-.055V-.047a4.648,4.648,0,0,1-1.367.2,2.156,2.156,0,0,1-2.422-2.4V-6.8H-6.605V-8.453h1.234v-2.078ZM4.652-.859A2.831,2.831,0,0,1,2.34.156,2.67,2.67,0,0,1,.266-.625a3.335,3.335,0,0,1-.73-2.289V-8.453H1.793v5.467q0,1.322,1.2,1.322a1.63,1.63,0,0,0,1.578-.8V-8.453H6.84V0H4.715ZM10.926,0H8.66V-12h2.266Zm1.508-4.3a5.013,5.013,0,0,1,.484-2.242A3.546,3.546,0,0,1,14.313-8.07a4.069,4.069,0,0,1,2.113-.539,3.849,3.849,0,0,1,2.793,1.047,4.2,4.2,0,0,1,1.207,2.844l.016.578A4.418,4.418,0,0,1,19.355-1.02,3.775,3.775,0,0,1,16.441.156a3.793,3.793,0,0,1-2.918-1.172A4.5,4.5,0,0,1,12.434-4.2Zm2.258.16A3.16,3.16,0,0,0,15.145-2.3a1.5,1.5,0,0,0,1.3.638,1.5,1.5,0,0,0,1.281-.63,3.457,3.457,0,0,0,.461-2.015,3.128,3.128,0,0,0-.461-1.831,1.5,1.5,0,0,0-1.3-.649,1.474,1.474,0,0,0-1.281.646A3.516,3.516,0,0,0,14.691-4.144Z" transform="translate(571 3144.625)" fill="#12263f"/>
    <path id="Trazado_206405" data-name="Trazado 206405" d="M-81.3,0V-11.375h3.5a5.315,5.315,0,0,1,2.684.676A4.712,4.712,0,0,1-73.27-8.777a5.928,5.928,0,0,1,.664,2.832v.523a5.945,5.945,0,0,1-.652,2.82A4.672,4.672,0,0,1-75.1-.687,5.355,5.355,0,0,1-77.777,0Zm2.344-9.477v7.594h1.133a2.545,2.545,0,0,0,2.1-.9,4.06,4.06,0,0,0,.742-2.57v-.6A4.124,4.124,0,0,0-75.7-8.582a2.537,2.537,0,0,0-2.1-.895ZM-67.16.156A4.15,4.15,0,0,1-70.187-.984a4.054,4.054,0,0,1-1.168-3.039v-.219a5.106,5.106,0,0,1,.492-2.277,3.612,3.612,0,0,1,1.395-1.547,3.914,3.914,0,0,1,2.059-.543,3.508,3.508,0,0,1,2.73,1.094,4.444,4.444,0,0,1,1,3.1v.922h-5.383a2.1,2.1,0,0,0,.66,1.328,2,2,0,0,0,1.395.5,2.437,2.437,0,0,0,2.039-.945l1.109,1.242A3.389,3.389,0,0,1-65.238-.246,4.511,4.511,0,0,1-67.16.156Zm-.258-6.945a1.411,1.411,0,0,0-1.09.455,2.357,2.357,0,0,0-.535,1.3H-65.9v-.181a1.681,1.681,0,0,0-.406-1.165A1.456,1.456,0,0,0-67.418-6.789Zm9.594,4.453a.727.727,0,0,0-.41-.652,4.659,4.659,0,0,0-1.316-.426q-3.016-.633-3.016-2.562a2.323,2.323,0,0,1,.934-1.879,3.766,3.766,0,0,1,2.441-.754,4.053,4.053,0,0,1,2.574.758,2.388,2.388,0,0,1,.965,1.969H-57.91a1.092,1.092,0,0,0-.312-.8A1.322,1.322,0,0,0-59.2-7a1.351,1.351,0,0,0-.883.258.814.814,0,0,0-.312.656.7.7,0,0,0,.355.605,3.657,3.657,0,0,0,1.2.4,9.8,9.8,0,0,1,1.422.379A2.336,2.336,0,0,1-55.629-2.43a2.2,2.2,0,0,1-.992,1.871,4.28,4.28,0,0,1-2.562.715A4.47,4.47,0,0,1-61.07-.223a3.166,3.166,0,0,1-1.293-1.039,2.414,2.414,0,0,1-.469-1.426h2.141a1.179,1.179,0,0,0,.445.922,1.766,1.766,0,0,0,1.109.32,1.635,1.635,0,0,0,.98-.246A.766.766,0,0,0-57.824-2.336Zm7.164.672a1.481,1.481,0,0,0,1.016-.344,1.2,1.2,0,0,0,.406-.914h2.117a2.9,2.9,0,0,1-.469,1.574A3.093,3.093,0,0,1-48.852-.238a3.949,3.949,0,0,1-1.77.395A3.67,3.67,0,0,1-53.48-1,4.56,4.56,0,0,1-54.527-4.18v-.148a4.508,4.508,0,0,1,1.039-3.117,3.627,3.627,0,0,1,2.852-1.164,3.555,3.555,0,0,1,2.543.9,3.2,3.2,0,0,1,.973,2.4h-2.117a1.551,1.551,0,0,0-.406-1.072,1.354,1.354,0,0,0-1.031-.412,1.36,1.36,0,0,0-1.191.575,3.333,3.333,0,0,0-.4,1.866v.235a3.375,3.375,0,0,0,.4,1.878A1.377,1.377,0,0,0-50.66-1.664Zm9.578-4.672a6.134,6.134,0,0,0-.812-.062,1.654,1.654,0,0,0-1.68.867V0h-2.258V-8.453H-43.7l.063,1.008a2.092,2.092,0,0,1,1.883-1.164,2.366,2.366,0,0,1,.7.1ZM-37.613,0h-2.266V-8.453h2.266Zm-2.4-10.641a1.112,1.112,0,0,1,.34-.836,1.277,1.277,0,0,1,.926-.328,1.28,1.28,0,0,1,.922.328,1.105,1.105,0,0,1,.344.836,1.108,1.108,0,0,1-.348.844,1.283,1.283,0,0,1-.918.328,1.283,1.283,0,0,1-.918-.328A1.108,1.108,0,0,1-40.012-10.641Zm11.867,6.492a5.07,5.07,0,0,1-.887,3.129A2.843,2.843,0,0,1-31.426.156,2.633,2.633,0,0,1-33.5-.734V3.25h-2.258v-11.7h2.094l.078.828a2.654,2.654,0,0,1,2.141-.984,2.862,2.862,0,0,1,2.43,1.156,5.207,5.207,0,0,1,.867,3.188ZM-30.4-4.321a3.345,3.345,0,0,0-.418-1.826,1.36,1.36,0,0,0-1.215-.643,1.478,1.478,0,0,0-1.461.815V-2.5a1.5,1.5,0,0,0,1.477.839Q-30.4-1.664-30.4-4.321Zm7.172,2.656a1.481,1.481,0,0,0,1.016-.344,1.2,1.2,0,0,0,.406-.914h2.117a2.9,2.9,0,0,1-.469,1.574A3.093,3.093,0,0,1-21.422-.238a3.949,3.949,0,0,1-1.77.395A3.67,3.67,0,0,1-26.051-1,4.56,4.56,0,0,1-27.1-4.18v-.148a4.508,4.508,0,0,1,1.039-3.117,3.627,3.627,0,0,1,2.852-1.164,3.555,3.555,0,0,1,2.543.9,3.2,3.2,0,0,1,.973,2.4h-2.117a1.551,1.551,0,0,0-.406-1.072,1.354,1.354,0,0,0-1.031-.412,1.36,1.36,0,0,0-1.191.575,3.333,3.333,0,0,0-.4,1.866v.235a3.375,3.375,0,0,0,.4,1.878A1.377,1.377,0,0,0-23.23-1.664ZM-16.02,0h-2.266V-8.453h2.266Zm-2.4-10.641a1.112,1.112,0,0,1,.34-.836,1.277,1.277,0,0,1,.926-.328,1.28,1.28,0,0,1,.922.328,1.105,1.105,0,0,1,.344.836,1.108,1.108,0,0,1-.348.844,1.283,1.283,0,0,1-.918.328A1.283,1.283,0,0,1-18.07-9.8,1.108,1.108,0,0,1-18.418-10.641ZM-14.512-4.3a5.013,5.013,0,0,1,.484-2.242A3.546,3.546,0,0,1-12.633-8.07a4.069,4.069,0,0,1,2.113-.539A3.849,3.849,0,0,1-7.727-7.562,4.2,4.2,0,0,1-6.52-4.719l.016.578A4.418,4.418,0,0,1-7.59-1.02,3.775,3.775,0,0,1-10.5.156a3.793,3.793,0,0,1-2.918-1.172A4.5,4.5,0,0,1-14.512-4.2Zm2.258.16A3.16,3.16,0,0,0-11.8-2.3a1.5,1.5,0,0,0,1.3.638,1.5,1.5,0,0,0,1.281-.63,3.457,3.457,0,0,0,.461-2.015A3.128,3.128,0,0,0-9.223-6.14a1.5,1.5,0,0,0-1.3-.649,1.474,1.474,0,0,0-1.281.646A3.516,3.516,0,0,0-12.254-4.144ZM-10.074-12h2.461L-9.777-9.578h-1.836Zm7.039,3.547.07.977A2.951,2.951,0,0,1-.535-8.609a2.453,2.453,0,0,1,2,.789,3.682,3.682,0,0,1,.672,2.359V0H-.121V-5.419A1.47,1.47,0,0,0-.434-6.464a1.4,1.4,0,0,0-1.039-.325,1.553,1.553,0,0,0-1.43.814V0H-5.16V-8.453ZM7.48-4.289a5.094,5.094,0,0,1,.887-3.148,2.877,2.877,0,0,1,2.426-1.172,2.589,2.589,0,0,1,2.039.922V-12H15.1V0H13.059l-.109-.9A2.657,2.657,0,0,1,10.777.156,2.869,2.869,0,0,1,8.383-1.02,5.258,5.258,0,0,1,7.48-4.289Zm2.258.161A3.355,3.355,0,0,0,10.152-2.3a1.348,1.348,0,0,0,1.2.636,1.51,1.51,0,0,0,1.477-.887V-5.9a1.489,1.489,0,0,0-1.461-.887Q9.738-6.789,9.738-4.128Zm11,4.285A4.15,4.15,0,0,1,17.711-.984a4.054,4.054,0,0,1-1.168-3.039v-.219a5.106,5.106,0,0,1,.492-2.277A3.612,3.612,0,0,1,18.43-8.066a3.914,3.914,0,0,1,2.059-.543,3.508,3.508,0,0,1,2.73,1.094,4.444,4.444,0,0,1,1,3.1v.922H18.832a2.1,2.1,0,0,0,.66,1.328,2,2,0,0,0,1.395.5,2.437,2.437,0,0,0,2.039-.945l1.109,1.242A3.389,3.389,0,0,1,22.66-.246,4.511,4.511,0,0,1,20.738.156ZM20.48-6.789a1.411,1.411,0,0,0-1.09.455,2.357,2.357,0,0,0-.535,1.3H22v-.181a1.681,1.681,0,0,0-.406-1.165A1.456,1.456,0,0,0,20.48-6.789ZM31.863,0H29.6V-12h2.266Zm6.758,0a2.507,2.507,0,0,1-.227-.758,2.732,2.732,0,0,1-2.133.914A3,3,0,0,1,34.2-.562a2.312,2.312,0,0,1-.816-1.812,2.389,2.389,0,0,1,1-2.062,4.915,4.915,0,0,1,2.879-.727H38.3v-.484a1.393,1.393,0,0,0-.3-.937,1.183,1.183,0,0,0-.949-.352,1.345,1.345,0,0,0-.895.273.929.929,0,0,0-.324.75H33.574a2.268,2.268,0,0,1,.453-1.359,3,3,0,0,1,1.281-.98,4.669,4.669,0,0,1,1.859-.355,3.689,3.689,0,0,1,2.48.785,2.747,2.747,0,0,1,.918,2.207v3.664A4.041,4.041,0,0,0,40.9-.133V0ZM36.754-1.57a1.945,1.945,0,0,0,.922-.223,1.462,1.462,0,0,0,.625-.6V-3.844h-.844q-1.7,0-1.8,1.172l-.008.133a.9.9,0,0,0,.3.7A1.153,1.153,0,0,0,36.754-1.57Zm12.234-8.961v2.078h1.445V-6.8H48.988v4.219a1.007,1.007,0,0,0,.18.672.9.9,0,0,0,.688.2,3.6,3.6,0,0,0,.664-.055V-.047a4.648,4.648,0,0,1-1.367.2,2.156,2.156,0,0,1-2.422-2.4V-6.8H45.5V-8.453H46.73v-2.078ZM56.59,0a2.507,2.507,0,0,1-.227-.758A2.732,2.732,0,0,1,54.23.156a3,3,0,0,1-2.059-.719,2.312,2.312,0,0,1-.816-1.812,2.389,2.389,0,0,1,1-2.062,4.915,4.915,0,0,1,2.879-.727H56.27v-.484a1.393,1.393,0,0,0-.3-.937,1.183,1.183,0,0,0-.949-.352,1.345,1.345,0,0,0-.895.273.929.929,0,0,0-.324.75H51.543A2.268,2.268,0,0,1,52-7.273a3,3,0,0,1,1.281-.98,4.669,4.669,0,0,1,1.859-.355,3.689,3.689,0,0,1,2.48.785,2.747,2.747,0,0,1,.918,2.207v3.664a4.041,4.041,0,0,0,.336,1.82V0ZM54.723-1.57a1.945,1.945,0,0,0,.922-.223,1.462,1.462,0,0,0,.625-.6V-3.844h-.844q-1.7,0-1.8,1.172l-.008.133a.9.9,0,0,0,.3.7A1.153,1.153,0,0,0,54.723-1.57Zm10.3-4.766a6.134,6.134,0,0,0-.812-.062,1.654,1.654,0,0,0-1.68.867V0H60.27V-8.453H62.4l.063,1.008a2.092,2.092,0,0,1,1.883-1.164,2.366,2.366,0,0,1,.7.1ZM69.848.156A4.15,4.15,0,0,1,66.82-.984a4.054,4.054,0,0,1-1.168-3.039v-.219a5.106,5.106,0,0,1,.492-2.277,3.612,3.612,0,0,1,1.395-1.547A3.914,3.914,0,0,1,69.6-8.609a3.508,3.508,0,0,1,2.73,1.094,4.444,4.444,0,0,1,1,3.1v.922H67.941a2.1,2.1,0,0,0,.66,1.328,2,2,0,0,0,1.395.5,2.437,2.437,0,0,0,2.039-.945l1.109,1.242A3.389,3.389,0,0,1,71.77-.246,4.511,4.511,0,0,1,69.848.156ZM69.59-6.789a1.411,1.411,0,0,0-1.09.455,2.357,2.357,0,0,0-.535,1.3h3.141v-.181A1.681,1.681,0,0,0,70.7-6.377,1.456,1.456,0,0,0,69.59-6.789ZM79.5,0a2.507,2.507,0,0,1-.227-.758,2.732,2.732,0,0,1-2.133.914,3,3,0,0,1-2.059-.719,2.312,2.312,0,0,1-.816-1.812,2.389,2.389,0,0,1,1-2.062,4.915,4.915,0,0,1,2.879-.727h1.039v-.484a1.393,1.393,0,0,0-.3-.937,1.183,1.183,0,0,0-.949-.352,1.345,1.345,0,0,0-.895.273.929.929,0,0,0-.324.75H74.457a2.268,2.268,0,0,1,.453-1.359,3,3,0,0,1,1.281-.98,4.669,4.669,0,0,1,1.859-.355,3.689,3.689,0,0,1,2.48.785,2.747,2.747,0,0,1,.918,2.207v3.664a4.041,4.041,0,0,0,.336,1.82V0ZM77.637-1.57a1.945,1.945,0,0,0,.922-.223,1.462,1.462,0,0,0,.625-.6V-3.844H78.34q-1.7,0-1.8,1.172l-.008.133a.9.9,0,0,0,.3.7A1.153,1.153,0,0,0,77.637-1.57Z" transform="translate(571 3194.785)" fill="#12263f"/>
    <path id="Trazado_206406" data-name="Trazado 206406" d="M-71.223,0h-2.344l-4.562-7.484V0h-2.344V-11.375h2.344l4.57,7.5v-7.5h2.336Zm4.281,0h-2.266V-8.453h2.266Zm-2.4-10.641a1.112,1.112,0,0,1,.34-.836,1.277,1.277,0,0,1,.926-.328,1.28,1.28,0,0,1,.922.328,1.105,1.105,0,0,1,.344.836,1.108,1.108,0,0,1-.348.844,1.283,1.283,0,0,1-.918.328,1.283,1.283,0,0,1-.918-.328A1.108,1.108,0,0,1-69.34-10.641Zm7.422,7.883,1.57-5.7h2.359L-60.84,0H-63l-2.852-8.453h2.359ZM-53.207.156A4.15,4.15,0,0,1-56.234-.984,4.054,4.054,0,0,1-57.4-4.023v-.219A5.106,5.106,0,0,1-56.91-6.52a3.612,3.612,0,0,1,1.395-1.547,3.914,3.914,0,0,1,2.059-.543,3.508,3.508,0,0,1,2.73,1.094,4.444,4.444,0,0,1,1,3.1v.922h-5.383a2.1,2.1,0,0,0,.66,1.328,2,2,0,0,0,1.395.5,2.437,2.437,0,0,0,2.039-.945l1.109,1.242A3.389,3.389,0,0,1-51.285-.246,4.511,4.511,0,0,1-53.207.156Zm-.258-6.945a1.411,1.411,0,0,0-1.09.455,2.357,2.357,0,0,0-.535,1.3h3.141v-.181a1.681,1.681,0,0,0-.406-1.165A1.456,1.456,0,0,0-53.465-6.789ZM-46.066,0h-2.266V-12h2.266Zm5.75.156A4.15,4.15,0,0,1-43.344-.984a4.054,4.054,0,0,1-1.168-3.039v-.219A5.106,5.106,0,0,1-44.02-6.52a3.612,3.612,0,0,1,1.395-1.547,3.914,3.914,0,0,1,2.059-.543,3.508,3.508,0,0,1,2.73,1.094,4.444,4.444,0,0,1,1,3.1v.922h-5.383a2.1,2.1,0,0,0,.66,1.328,2,2,0,0,0,1.395.5,2.437,2.437,0,0,0,2.039-.945l1.109,1.242A3.389,3.389,0,0,1-38.395-.246,4.511,4.511,0,0,1-40.316.156Zm-.258-6.945a1.411,1.411,0,0,0-1.09.455,2.357,2.357,0,0,0-.535,1.3h3.141v-.181a1.681,1.681,0,0,0-.406-1.165A1.456,1.456,0,0,0-40.574-6.789Zm9.594,4.453a.727.727,0,0,0-.41-.652,4.659,4.659,0,0,0-1.316-.426q-3.016-.633-3.016-2.562a2.323,2.323,0,0,1,.934-1.879,3.766,3.766,0,0,1,2.441-.754,4.053,4.053,0,0,1,2.574.758,2.388,2.388,0,0,1,.965,1.969h-2.258a1.092,1.092,0,0,0-.312-.8A1.322,1.322,0,0,0-32.355-7a1.351,1.351,0,0,0-.883.258.814.814,0,0,0-.312.656.7.7,0,0,0,.355.605,3.657,3.657,0,0,0,1.2.4,9.8,9.8,0,0,1,1.422.379A2.336,2.336,0,0,1-28.785-2.43a2.2,2.2,0,0,1-.992,1.871A4.28,4.28,0,0,1-32.34.156a4.47,4.47,0,0,1-1.887-.379A3.166,3.166,0,0,1-35.52-1.262a2.414,2.414,0,0,1-.469-1.426h2.141a1.179,1.179,0,0,0,.445.922,1.766,1.766,0,0,0,1.109.32,1.635,1.635,0,0,0,.98-.246A.766.766,0,0,0-30.98-2.336ZM-23.7-4.289a5.094,5.094,0,0,1,.887-3.148,2.877,2.877,0,0,1,2.426-1.172,2.589,2.589,0,0,1,2.039.922V-12h2.266V0h-2.039l-.109-.9A2.657,2.657,0,0,1-20.4.156,2.869,2.869,0,0,1-22.8-1.02,5.258,5.258,0,0,1-23.7-4.289Zm2.258.161A3.355,3.355,0,0,0-21.027-2.3a1.348,1.348,0,0,0,1.2.636,1.51,1.51,0,0,0,1.477-.887V-5.9a1.489,1.489,0,0,0-1.461-.887Q-21.441-6.789-21.441-4.128Zm11,4.285A4.15,4.15,0,0,1-13.469-.984a4.054,4.054,0,0,1-1.168-3.039v-.219a5.106,5.106,0,0,1,.492-2.277A3.612,3.612,0,0,1-12.75-8.066a3.914,3.914,0,0,1,2.059-.543,3.508,3.508,0,0,1,2.73,1.094,4.444,4.444,0,0,1,1,3.1v.922h-5.383a2.1,2.1,0,0,0,.66,1.328,2,2,0,0,0,1.395.5,2.437,2.437,0,0,0,2.039-.945l1.109,1.242A3.389,3.389,0,0,1-8.52-.246,4.511,4.511,0,0,1-10.441.156ZM-10.7-6.789a1.411,1.411,0,0,0-1.09.455,2.357,2.357,0,0,0-.535,1.3h3.141v-.181A1.681,1.681,0,0,0-9.59-6.377,1.456,1.456,0,0,0-10.7-6.789Zm8.648,2.5a5.094,5.094,0,0,1,.887-3.148A2.877,2.877,0,0,1,1.262-8.609,2.589,2.589,0,0,1,3.3-7.687V-12H5.566V0H3.527L3.418-.9A2.657,2.657,0,0,1,1.246.156,2.869,2.869,0,0,1-1.148-1.02,5.258,5.258,0,0,1-2.051-4.289Zm2.258.161A3.355,3.355,0,0,0,.621-2.3a1.348,1.348,0,0,0,1.2.636A1.51,1.51,0,0,0,3.3-2.551V-5.9A1.489,1.489,0,0,0,1.84-6.789Q.207-6.789.207-4.128Zm11,4.285A4.15,4.15,0,0,1,8.18-.984,4.054,4.054,0,0,1,7.012-4.023v-.219A5.106,5.106,0,0,1,7.5-6.52,3.612,3.612,0,0,1,8.9-8.066a3.914,3.914,0,0,1,2.059-.543,3.508,3.508,0,0,1,2.73,1.094,4.444,4.444,0,0,1,1,3.1v.922H9.3a2.1,2.1,0,0,0,.66,1.328,2,2,0,0,0,1.395.5,2.437,2.437,0,0,0,2.039-.945L14.5-1.367A3.389,3.389,0,0,1,13.129-.246,4.511,4.511,0,0,1,11.207.156Zm-.258-6.945a1.411,1.411,0,0,0-1.09.455,2.357,2.357,0,0,0-.535,1.3h3.141v-.181a1.681,1.681,0,0,0-.406-1.165A1.456,1.456,0,0,0,10.949-6.789Zm9.594,4.453a.727.727,0,0,0-.41-.652,4.659,4.659,0,0,0-1.316-.426Q15.8-4.047,15.8-5.977a2.323,2.323,0,0,1,.934-1.879,3.766,3.766,0,0,1,2.441-.754,4.053,4.053,0,0,1,2.574.758,2.388,2.388,0,0,1,.965,1.969H20.457a1.092,1.092,0,0,0-.312-.8A1.322,1.322,0,0,0,19.168-7a1.351,1.351,0,0,0-.883.258.814.814,0,0,0-.312.656.7.7,0,0,0,.355.605,3.657,3.657,0,0,0,1.2.4,9.8,9.8,0,0,1,1.422.379A2.336,2.336,0,0,1,22.738-2.43a2.2,2.2,0,0,1-.992,1.871,4.28,4.28,0,0,1-2.562.715A4.47,4.47,0,0,1,17.3-.223,3.166,3.166,0,0,1,16-1.262a2.414,2.414,0,0,1-.469-1.426h2.141a1.179,1.179,0,0,0,.445.922,1.766,1.766,0,0,0,1.109.32,1.635,1.635,0,0,0,.98-.246A.766.766,0,0,0,20.543-2.336ZM28.082.156A4.15,4.15,0,0,1,25.055-.984a4.054,4.054,0,0,1-1.168-3.039v-.219a5.106,5.106,0,0,1,.492-2.277,3.612,3.612,0,0,1,1.395-1.547,3.914,3.914,0,0,1,2.059-.543,3.508,3.508,0,0,1,2.73,1.094,4.444,4.444,0,0,1,1,3.1v.922H26.176a2.1,2.1,0,0,0,.66,1.328,2,2,0,0,0,1.395.5,2.437,2.437,0,0,0,2.039-.945l1.109,1.242A3.389,3.389,0,0,1,30-.246,4.511,4.511,0,0,1,28.082.156Zm-.258-6.945a1.411,1.411,0,0,0-1.09.455,2.357,2.357,0,0,0-.535,1.3H29.34v-.181a1.681,1.681,0,0,0-.406-1.165A1.456,1.456,0,0,0,27.824-6.789Zm7.133-1.664.07.945a2.971,2.971,0,0,1,2.43-1.1A2.255,2.255,0,0,1,39.7-7.32a2.9,2.9,0,0,1,2.539-1.289,2.521,2.521,0,0,1,2.047.8,3.681,3.681,0,0,1,.672,2.41V0H42.691V-5.4a1.616,1.616,0,0,0-.281-1.053,1.245,1.245,0,0,0-.992-.333,1.409,1.409,0,0,0-1.406.971L40.02,0H37.762V-5.4a1.6,1.6,0,0,0-.289-1.065,1.257,1.257,0,0,0-.984-.329,1.463,1.463,0,0,0-1.391.8V0H32.84V-8.453ZM54.3-4.148a5.07,5.07,0,0,1-.887,3.129A2.843,2.843,0,0,1,51.02.156a2.633,2.633,0,0,1-2.07-.891V3.25H46.691v-11.7h2.094l.078.828A2.654,2.654,0,0,1,51-8.609a2.862,2.862,0,0,1,2.43,1.156A5.207,5.207,0,0,1,54.3-4.266Zm-2.258-.172a3.345,3.345,0,0,0-.418-1.826,1.36,1.36,0,0,0-1.215-.643,1.478,1.478,0,0,0-1.461.815V-2.5a1.5,1.5,0,0,0,1.477.839Q52.043-1.664,52.043-4.321ZM59.59.156A4.15,4.15,0,0,1,56.563-.984a4.054,4.054,0,0,1-1.168-3.039v-.219a5.106,5.106,0,0,1,.492-2.277,3.612,3.612,0,0,1,1.395-1.547,3.914,3.914,0,0,1,2.059-.543,3.508,3.508,0,0,1,2.73,1.094,4.444,4.444,0,0,1,1,3.1v.922H57.684a2.1,2.1,0,0,0,.66,1.328,2,2,0,0,0,1.395.5,2.437,2.437,0,0,0,2.039-.945l1.109,1.242A3.389,3.389,0,0,1,61.512-.246,4.511,4.511,0,0,1,59.59.156Zm-.258-6.945a1.411,1.411,0,0,0-1.09.455,2.357,2.357,0,0,0-.535,1.3h3.141v-.181a1.681,1.681,0,0,0-.406-1.165A1.456,1.456,0,0,0,59.332-6.789Zm7.094-1.664.07.977a2.951,2.951,0,0,1,2.43-1.133,2.453,2.453,0,0,1,2,.789A3.682,3.682,0,0,1,71.6-5.461V0H69.34V-5.419a1.47,1.47,0,0,0-.312-1.045,1.4,1.4,0,0,0-1.039-.325,1.553,1.553,0,0,0-1.43.814V0H64.3V-8.453ZM70.91-11.9a2.187,2.187,0,0,1-.516,1.48,1.6,1.6,0,0,1-1.258.6,1.908,1.908,0,0,1-.527-.066,3.539,3.539,0,0,1-.637-.285,3.435,3.435,0,0,0-.586-.27A1.432,1.432,0,0,0,67-10.492a.627.627,0,0,0-.465.2.759.759,0,0,0-.191.555L65.027-9.82a2.22,2.22,0,0,1,.512-1.477,1.578,1.578,0,0,1,1.254-.609,1.614,1.614,0,0,1,.441.059,4.86,4.86,0,0,1,.676.285,4.392,4.392,0,0,0,.648.273,1.48,1.48,0,0,0,.375.047.659.659,0,0,0,.473-.191.728.728,0,0,0,.2-.551ZM72.957-4.3a5.013,5.013,0,0,1,.484-2.242A3.546,3.546,0,0,1,74.836-8.07a4.069,4.069,0,0,1,2.113-.539,3.849,3.849,0,0,1,2.793,1.047,4.2,4.2,0,0,1,1.207,2.844l.016.578A4.418,4.418,0,0,1,79.879-1.02,3.775,3.775,0,0,1,76.965.156a3.793,3.793,0,0,1-2.918-1.172A4.5,4.5,0,0,1,72.957-4.2Zm2.258.16A3.16,3.16,0,0,0,75.668-2.3a1.5,1.5,0,0,0,1.3.638,1.5,1.5,0,0,0,1.281-.63,3.457,3.457,0,0,0,.461-2.015,3.128,3.128,0,0,0-.461-1.831,1.5,1.5,0,0,0-1.3-.649,1.474,1.474,0,0,0-1.281.646A3.516,3.516,0,0,0,75.215-4.144Z" transform="translate(677 3242.634)" fill="#12263f"/>
    <path id="Trazado_206408" data-name="Trazado 206408" d="M-21.031-3.789A4.025,4.025,0,0,1-22.387-.9,4.76,4.76,0,0,1-25.609.156a4.28,4.28,0,0,1-3.441-1.473A6.038,6.038,0,0,1-30.3-5.359v-.7a6.819,6.819,0,0,1,.578-2.891,4.332,4.332,0,0,1,1.652-1.918,4.629,4.629,0,0,1,2.5-.668,4.637,4.637,0,0,1,3.172,1.055,4.326,4.326,0,0,1,1.391,2.961h-2.344a2.376,2.376,0,0,0-.613-1.6,2.271,2.271,0,0,0-1.605-.5,1.991,1.991,0,0,0-1.754.84,4.707,4.707,0,0,0-.6,2.605V-5.3a5.038,5.038,0,0,0,.559,2.7,1.954,1.954,0,0,0,1.762.852,2.314,2.314,0,0,0,1.621-.5,2.241,2.241,0,0,0,.613-1.535Zm6.141-2.547A6.134,6.134,0,0,0-15.7-6.4a1.654,1.654,0,0,0-1.68.867V0h-2.258V-8.453h2.133l.063,1.008a2.092,2.092,0,0,1,1.883-1.164,2.366,2.366,0,0,1,.7.1ZM-11.422,0h-2.266V-8.453h2.266Zm-2.4-10.641a1.112,1.112,0,0,1,.34-.836,1.277,1.277,0,0,1,.926-.328,1.28,1.28,0,0,1,.922.328,1.105,1.105,0,0,1,.344.836,1.108,1.108,0,0,1-.348.844,1.283,1.283,0,0,1-.918.328,1.283,1.283,0,0,1-.918-.328A1.108,1.108,0,0,1-13.82-10.641Zm6.961.109v2.078h1.445V-6.8H-6.859v4.219a1.007,1.007,0,0,0,.18.672.9.9,0,0,0,.688.2,3.6,3.6,0,0,0,.664-.055V-.047A4.648,4.648,0,0,1-6.7.156a2.156,2.156,0,0,1-2.422-2.4V-6.8h-1.234V-8.453h1.234v-2.078ZM-.266.156A4.15,4.15,0,0,1-3.293-.984,4.054,4.054,0,0,1-4.461-4.023v-.219A5.106,5.106,0,0,1-3.969-6.52,3.612,3.612,0,0,1-2.574-8.066,3.914,3.914,0,0,1-.516-8.609a3.508,3.508,0,0,1,2.73,1.094,4.444,4.444,0,0,1,1,3.1v.922H-2.172a2.1,2.1,0,0,0,.66,1.328,2,2,0,0,0,1.395.5,2.437,2.437,0,0,0,2.039-.945L3.031-1.367A3.389,3.389,0,0,1,1.656-.246,4.511,4.511,0,0,1-.266.156ZM-.523-6.789a1.411,1.411,0,0,0-1.09.455,2.357,2.357,0,0,0-.535,1.3H.992v-.181A1.681,1.681,0,0,0,.586-6.377,1.456,1.456,0,0,0-.523-6.789Zm9.766.453A6.134,6.134,0,0,0,8.43-6.4a1.654,1.654,0,0,0-1.68.867V0H4.492V-8.453H6.625l.063,1.008A2.092,2.092,0,0,1,8.57-8.609a2.366,2.366,0,0,1,.7.1ZM12.711,0H10.445V-8.453h2.266Zm-2.4-10.641a1.112,1.112,0,0,1,.34-.836,1.277,1.277,0,0,1,.926-.328,1.28,1.28,0,0,1,.922.328,1.105,1.105,0,0,1,.344.836A1.108,1.108,0,0,1,12.5-9.8a1.283,1.283,0,0,1-.918.328A1.283,1.283,0,0,1,10.66-9.8,1.108,1.108,0,0,1,10.313-10.641ZM14.219-4.3A5.013,5.013,0,0,1,14.7-6.547,3.546,3.546,0,0,1,16.1-8.07a4.069,4.069,0,0,1,2.113-.539A3.849,3.849,0,0,1,21-7.562a4.2,4.2,0,0,1,1.207,2.844l.016.578A4.418,4.418,0,0,1,21.141-1.02,3.775,3.775,0,0,1,18.227.156a3.793,3.793,0,0,1-2.918-1.172A4.5,4.5,0,0,1,14.219-4.2Zm2.258.16A3.16,3.16,0,0,0,16.93-2.3a1.5,1.5,0,0,0,1.3.638,1.5,1.5,0,0,0,1.281-.63,3.457,3.457,0,0,0,.461-2.015,3.128,3.128,0,0,0-.461-1.831,1.5,1.5,0,0,0-1.3-.649,1.474,1.474,0,0,0-1.281.646A3.516,3.516,0,0,0,16.477-4.144ZM28.2-2.336a.727.727,0,0,0-.41-.652,4.659,4.659,0,0,0-1.316-.426q-3.016-.633-3.016-2.562a2.323,2.323,0,0,1,.934-1.879,3.766,3.766,0,0,1,2.441-.754,4.053,4.053,0,0,1,2.574.758,2.388,2.388,0,0,1,.965,1.969H28.109a1.092,1.092,0,0,0-.312-.8A1.322,1.322,0,0,0,26.82-7a1.351,1.351,0,0,0-.883.258.814.814,0,0,0-.312.656.7.7,0,0,0,.355.605,3.657,3.657,0,0,0,1.2.4A9.8,9.8,0,0,1,28.6-4.7,2.336,2.336,0,0,1,30.391-2.43,2.2,2.2,0,0,1,29.4-.559a4.28,4.28,0,0,1-2.562.715,4.47,4.47,0,0,1-1.887-.379,3.166,3.166,0,0,1-1.293-1.039,2.414,2.414,0,0,1-.469-1.426h2.141a1.179,1.179,0,0,0,.445.922,1.766,1.766,0,0,0,1.109.32,1.635,1.635,0,0,0,.98-.246A.766.766,0,0,0,28.2-2.336Z" transform="translate(674 3370.634)" fill="#12263f"/>
    <path id="Trazado_206407" data-name="Trazado 206407" d="M-26.281-2.344h-4.109L-31.172,0h-2.492l4.234-11.375h2.172L-23,0h-2.492Zm-3.477-1.9h2.844L-28.344-8.5Zm12.25,1.906a.727.727,0,0,0-.41-.652,4.659,4.659,0,0,0-1.316-.426q-3.016-.633-3.016-2.562a2.323,2.323,0,0,1,.934-1.879,3.766,3.766,0,0,1,2.441-.754,4.053,4.053,0,0,1,2.574.758,2.388,2.388,0,0,1,.965,1.969h-2.258a1.092,1.092,0,0,0-.312-.8A1.322,1.322,0,0,0-18.883-7a1.351,1.351,0,0,0-.883.258.814.814,0,0,0-.312.656.7.7,0,0,0,.355.605,3.657,3.657,0,0,0,1.2.4A9.8,9.8,0,0,1-17.1-4.7,2.336,2.336,0,0,1-15.312-2.43,2.2,2.2,0,0,1-16.3-.559a4.28,4.28,0,0,1-2.562.715,4.47,4.47,0,0,1-1.887-.379,3.166,3.166,0,0,1-1.293-1.039,2.414,2.414,0,0,1-.469-1.426h2.141a1.179,1.179,0,0,0,.445.922,1.766,1.766,0,0,0,1.109.32,1.635,1.635,0,0,0,.98-.246A.766.766,0,0,0-17.508-2.336ZM-6.25-4.148A5.07,5.07,0,0,1-7.137-1.02,2.843,2.843,0,0,1-9.531.156,2.633,2.633,0,0,1-11.6-.734V3.25h-2.258v-11.7h2.094l.078.828a2.654,2.654,0,0,1,2.141-.984,2.862,2.862,0,0,1,2.43,1.156A5.207,5.207,0,0,1-6.25-4.266Zm-2.258-.172a3.345,3.345,0,0,0-.418-1.826,1.36,1.36,0,0,0-1.215-.643,1.478,1.478,0,0,0-1.461.815V-2.5a1.5,1.5,0,0,0,1.477.839Q-8.508-1.664-8.508-4.321ZM-.961.156A4.15,4.15,0,0,1-3.988-.984,4.054,4.054,0,0,1-5.156-4.023v-.219A5.106,5.106,0,0,1-4.664-6.52,3.612,3.612,0,0,1-3.27-8.066a3.914,3.914,0,0,1,2.059-.543A3.508,3.508,0,0,1,1.52-7.516a4.444,4.444,0,0,1,1,3.1v.922H-2.867a2.1,2.1,0,0,0,.66,1.328,2,2,0,0,0,1.395.5,2.437,2.437,0,0,0,2.039-.945L2.336-1.367A3.389,3.389,0,0,1,.961-.246,4.511,4.511,0,0,1-.961.156Zm-.258-6.945a1.411,1.411,0,0,0-1.09.455,2.357,2.357,0,0,0-.535,1.3H.3v-.181A1.681,1.681,0,0,0-.109-6.377,1.456,1.456,0,0,0-1.219-6.789ZM7.313-1.664a1.481,1.481,0,0,0,1.016-.344,1.2,1.2,0,0,0,.406-.914h2.117a2.9,2.9,0,0,1-.469,1.574A3.093,3.093,0,0,1,9.121-.238a3.949,3.949,0,0,1-1.77.395A3.67,3.67,0,0,1,4.492-1,4.56,4.56,0,0,1,3.445-4.18v-.148A4.508,4.508,0,0,1,4.484-7.445,3.627,3.627,0,0,1,7.336-8.609a3.555,3.555,0,0,1,2.543.9,3.2,3.2,0,0,1,.973,2.4H8.734a1.551,1.551,0,0,0-.406-1.072A1.354,1.354,0,0,0,7.3-6.789a1.36,1.36,0,0,0-1.191.575,3.333,3.333,0,0,0-.4,1.866v.235a3.375,3.375,0,0,0,.4,1.878A1.377,1.377,0,0,0,7.313-1.664Zm7.531-8.867v2.078h1.445V-6.8H14.844v4.219a1.007,1.007,0,0,0,.18.672.9.9,0,0,0,.688.2,3.6,3.6,0,0,0,.664-.055V-.047a4.648,4.648,0,0,1-1.367.2,2.156,2.156,0,0,1-2.422-2.4V-6.8H11.352V-8.453h1.234v-2.078ZM16.961-4.3a5.013,5.013,0,0,1,.484-2.242A3.546,3.546,0,0,1,18.84-8.07a4.069,4.069,0,0,1,2.113-.539,3.849,3.849,0,0,1,2.793,1.047,4.2,4.2,0,0,1,1.207,2.844l.016.578A4.418,4.418,0,0,1,23.883-1.02,3.775,3.775,0,0,1,20.969.156a3.793,3.793,0,0,1-2.918-1.172A4.5,4.5,0,0,1,16.961-4.2Zm2.258.16A3.16,3.16,0,0,0,19.672-2.3a1.5,1.5,0,0,0,1.3.638,1.5,1.5,0,0,0,1.281-.63,3.457,3.457,0,0,0,.461-2.015A3.128,3.128,0,0,0,22.25-6.14a1.5,1.5,0,0,0-1.3-.649,1.474,1.474,0,0,0-1.281.646A3.516,3.516,0,0,0,19.219-4.144ZM30.938-2.336a.727.727,0,0,0-.41-.652,4.659,4.659,0,0,0-1.316-.426Q26.2-4.047,26.2-5.977a2.323,2.323,0,0,1,.934-1.879,3.766,3.766,0,0,1,2.441-.754,4.053,4.053,0,0,1,2.574.758,2.388,2.388,0,0,1,.965,1.969H30.852a1.092,1.092,0,0,0-.312-.8A1.322,1.322,0,0,0,29.563-7a1.351,1.351,0,0,0-.883.258.814.814,0,0,0-.312.656.7.7,0,0,0,.355.605,3.657,3.657,0,0,0,1.2.4,9.8,9.8,0,0,1,1.422.379A2.336,2.336,0,0,1,33.133-2.43a2.2,2.2,0,0,1-.992,1.871,4.28,4.28,0,0,1-2.562.715,4.47,4.47,0,0,1-1.887-.379A3.166,3.166,0,0,1,26.4-1.262a2.414,2.414,0,0,1-.469-1.426H28.07a1.179,1.179,0,0,0,.445.922,1.766,1.766,0,0,0,1.109.32,1.635,1.635,0,0,0,.98-.246A.766.766,0,0,0,30.938-2.336ZM-26.867,16a2.507,2.507,0,0,1-.227-.758,2.732,2.732,0,0,1-2.133.914,3,3,0,0,1-2.059-.719,2.312,2.312,0,0,1-.816-1.812,2.389,2.389,0,0,1,1-2.062,4.915,4.915,0,0,1,2.879-.727h1.039v-.484a1.393,1.393,0,0,0-.3-.937,1.183,1.183,0,0,0-.949-.352,1.345,1.345,0,0,0-.895.273.929.929,0,0,0-.324.75h-2.258a2.268,2.268,0,0,1,.453-1.359,3,3,0,0,1,1.281-.98,4.669,4.669,0,0,1,1.859-.355,3.689,3.689,0,0,1,2.48.785,2.747,2.747,0,0,1,.918,2.207v3.664a4.041,4.041,0,0,0,.336,1.82V16Zm-1.867-1.57a1.945,1.945,0,0,0,.922-.223,1.462,1.462,0,0,0,.625-.6V12.156h-.844q-1.7,0-1.8,1.172l-.008.133a.9.9,0,0,0,.3.7A1.153,1.153,0,0,0-28.734,14.43Zm13.422,1.727a4.15,4.15,0,0,1-3.027-1.141,4.054,4.054,0,0,1-1.168-3.039v-.219a5.106,5.106,0,0,1,.492-2.277,3.612,3.612,0,0,1,1.395-1.547,3.914,3.914,0,0,1,2.059-.543,3.508,3.508,0,0,1,2.73,1.094,4.444,4.444,0,0,1,1,3.1v.922h-5.383a2.1,2.1,0,0,0,.66,1.328,2,2,0,0,0,1.395.5,2.437,2.437,0,0,0,2.039-.945l1.109,1.242a3.389,3.389,0,0,1-1.375,1.121A4.511,4.511,0,0,1-15.312,16.156Zm-.258-6.945a1.411,1.411,0,0,0-1.09.455,2.357,2.357,0,0,0-.535,1.3h3.141v-.181a1.681,1.681,0,0,0-.406-1.165A1.456,1.456,0,0,0-15.57,9.211Zm8.078,4.031,1.57-5.7h2.359L-6.414,16H-8.57l-2.852-8.453h2.359ZM2.211,16a2.507,2.507,0,0,1-.227-.758,2.732,2.732,0,0,1-2.133.914,3,3,0,0,1-2.059-.719,2.312,2.312,0,0,1-.816-1.812,2.389,2.389,0,0,1,1-2.062,4.915,4.915,0,0,1,2.879-.727H1.891v-.484a1.393,1.393,0,0,0-.3-.937,1.183,1.183,0,0,0-.949-.352,1.345,1.345,0,0,0-.895.273.929.929,0,0,0-.324.75H-2.836a2.268,2.268,0,0,1,.453-1.359A3,3,0,0,1-1.1,7.746,4.669,4.669,0,0,1,.758,7.391a3.689,3.689,0,0,1,2.48.785,2.747,2.747,0,0,1,.918,2.207v3.664a4.041,4.041,0,0,0,.336,1.82V16ZM.344,14.43a1.945,1.945,0,0,0,.922-.223,1.462,1.462,0,0,0,.625-.6V12.156H1.047q-1.7,0-1.8,1.172l-.008.133a.9.9,0,0,0,.3.7A1.153,1.153,0,0,0,.344,14.43ZM8.273,16H6.008V4H8.273Zm6.922-.859a2.831,2.831,0,0,1-2.312,1.016,2.67,2.67,0,0,1-2.074-.781,3.335,3.335,0,0,1-.73-2.289V7.547h2.258v5.467q0,1.322,1.2,1.322a1.63,1.63,0,0,0,1.578-.8V7.547h2.266V16H15.258ZM23.984,16a2.507,2.507,0,0,1-.227-.758,2.732,2.732,0,0,1-2.133.914,3,3,0,0,1-2.059-.719,2.312,2.312,0,0,1-.816-1.812,2.389,2.389,0,0,1,1-2.062,4.915,4.915,0,0,1,2.879-.727h1.039v-.484a1.393,1.393,0,0,0-.3-.937,1.183,1.183,0,0,0-.949-.352,1.345,1.345,0,0,0-.895.273.929.929,0,0,0-.324.75H18.938a2.268,2.268,0,0,1,.453-1.359,3,3,0,0,1,1.281-.98,4.669,4.669,0,0,1,1.859-.355,3.689,3.689,0,0,1,2.48.785,2.747,2.747,0,0,1,.918,2.207v3.664a4.041,4.041,0,0,0,.336,1.82V16Zm-1.867-1.57a1.945,1.945,0,0,0,.922-.223,1.462,1.462,0,0,0,.625-.6V12.156H22.82q-1.7,0-1.8,1.172l-.008.133a.9.9,0,0,0,.3.7A1.153,1.153,0,0,0,22.117,14.43Zm10.3-4.766A6.134,6.134,0,0,0,31.6,9.6a1.654,1.654,0,0,0-1.68.867V16H27.664V7.547H29.8l.063,1.008a2.092,2.092,0,0,1,1.883-1.164,2.366,2.366,0,0,1,.7.1Z" transform="translate(401 3370.634)" fill="#12263f"/>
  </g>
</svg>
