<svg xmlns="http://www.w3.org/2000/svg" width="96.184" height="96.184" viewBox="0 0 96.184 96.184">
  <g id="subcontratacion" transform="translate(-1 -1)">
    <g id="Grupo_150427" data-name="Grupo 150427" transform="translate(2.583 2.583)">
      <g id="Grupo_150412" data-name="Grupo 150412" transform="translate(62.012 0)">
        <circle id="Elipse_5696" data-name="Elipse 5696" cx="15.5" cy="15.5" r="15.5" transform="translate(-0.063 0.069)" fill="#f3f9ff"/>
      </g>
      <g id="Grupo_150413" data-name="Grupo 150413" transform="translate(0 0)">
        <circle id="Elipse_5697" data-name="Elipse 5697" cx="15.5" cy="15.5" r="15.5" transform="translate(-0.051 0.069)" fill="#f3f9ff"/>
      </g>
      <g id="Grupo_150414" data-name="Grupo 150414" transform="translate(4.949 18.585)">
        <path id="Trazado_204109" data-name="Trazado 204109" d="M15.744,14a10.848,10.848,0,0,1,10.534,8.269,15.465,15.465,0,0,1-21.067,0A10.848,10.848,0,0,1,15.744,14Z" transform="translate(-5.21 -14)" fill="#f85316"/>
      </g>
      <g id="Grupo_150415" data-name="Grupo 150415" transform="translate(67.002 18.585)">
        <path id="Trazado_204110" data-name="Trazado 204110" d="M55.744,14a10.848,10.848,0,0,1,10.534,8.269,15.465,15.465,0,0,1-21.067,0A10.848,10.848,0,0,1,55.744,14Z" transform="translate(-47.21 -14)" fill="#f85316"/>
      </g>
      <g id="Grupo_150416" data-name="Grupo 150416" transform="translate(9.302 6.201)">
        <circle id="Elipse_5698" data-name="Elipse 5698" cx="6.5" cy="6.5" r="6.5" transform="translate(-0.354 -0.132)" fill="#f0d0b4"/>
      </g>
      <g id="Grupo_150417" data-name="Grupo 150417" transform="translate(71.314 6.201)">
        <circle id="Elipse_5699" data-name="Elipse 5699" cx="6.5" cy="6.5" r="6.5" transform="translate(-0.365 -0.132)" fill="#f0d0b4"/>
      </g>
      <g id="Grupo_150418" data-name="Grupo 150418" transform="translate(54.266 49.612)">
        <path id="Trazado_204111" data-name="Trazado 204111" d="M55.616,34V52.616H37V34H55.616Z" transform="translate(-37 -34)" fill="#dce736"/>
      </g>
      <g id="Grupo_150419" data-name="Grupo 150419" transform="translate(35.65 30.996)">
        <path id="Trazado_204112" data-name="Trazado 204112" d="M43.616,40.616V59.232H31.205V34.411H25V22H49.822V40.616Z" transform="translate(-25 -22)" fill="#75b62f"/>
      </g>
      <g id="Grupo_150420" data-name="Grupo 150420" transform="translate(23.239 43.406)">
        <path id="Trazado_204113" data-name="Trazado 204113" d="M35.616,30V54.822H17V30H35.616Z" transform="translate(-17 -30)" fill="#dce736"/>
      </g>
      <g id="Grupo_150421" data-name="Grupo 150421" transform="translate(57.043 68.228)">
        <path id="Trazado_204114" data-name="Trazado 204114" d="M54.629,46H69.414a46.928,46.928,0,0,1-9.525,12.426l-.016-.016H38.79A75.042,75.042,0,0,0,41.97,46Z" transform="translate(-38.79 -46)" fill="#3d46c2"/>
      </g>
      <g id="Grupo_150422" data-name="Grupo 150422" transform="translate(46.509 80.639)">
        <path id="Trazado_204115" data-name="Trazado 204115" d="M63.616,54l.016.016A46.456,46.456,0,0,1,32,66.411c4.08,0,7.788-4.716,10.534-12.411Z" transform="translate(-32 -54)" fill="#3d46c2"/>
      </g>
      <g id="Grupo_150423" data-name="Grupo 150423" transform="translate(35.976 80.639)">
        <path id="Trazado_204116" data-name="Trazado 204116" d="M25.21,54H46.277c-2.746,7.695-6.454,12.411-10.534,12.411S27.956,61.695,25.21,54Z" transform="translate(-25.21 -54)" fill="#3d46c2"/>
      </g>
      <g id="Grupo_150424" data-name="Grupo 150424" transform="translate(32.795 68.228)">
        <path id="Trazado_204117" data-name="Trazado 204117" d="M44.631,46h5.957a75.043,75.043,0,0,1-3.18,12.411H26.34A75.043,75.043,0,0,1,23.16,46H44.631Z" transform="translate(-23.16 -46)" fill="#3d46c2"/>
      </g>
      <g id="Grupo_150425" data-name="Grupo 150425" transform="translate(14.877 80.639)">
        <path id="Trazado_204118" data-name="Trazado 204118" d="M32.708,54c2.746,7.695,6.454,12.411,10.534,12.411a46.456,46.456,0,0,1-31.632-12.4L11.626,54Z" transform="translate(-11.61 -54)" fill="#3d46c2"/>
      </g>
      <g id="Grupo_150426" data-name="Grupo 150426" transform="translate(5.352 68.228)">
        <path id="Trazado_204119" data-name="Trazado 204119" d="M36.094,58.411H15.011L15,58.426A46.927,46.927,0,0,1,5.47,46H32.913a75.043,75.043,0,0,0,3.18,12.411Z" transform="translate(-5.47 -46)" fill="#3d46c2"/>
      </g>
    </g>
    <g id="Grupo_150428" data-name="Grupo 150428" transform="translate(1 1)">
      <path id="Trazado_204120" data-name="Trazado 204120" d="M75.468,39.616H63.058V21H35.133V33.411H22.723V58.232H3.807l1.2,2.277a48.092,48.092,0,0,0,85.067,0l1.2-2.277H75.468Zm-3.1,18.616H56.852V42.719H72.366ZM47.544,83.054c-2.907,0-5.842-3.47-8.261-9.308H55.805c-2.419,5.838-5.354,9.308-8.261,9.308Zm11.62-9.308H74.938a44.8,44.8,0,0,1-20.7,8.791,29.582,29.582,0,0,0,4.926-8.791ZM40.852,82.537a44.837,44.837,0,0,1-20.7-8.791H35.925A29.548,29.548,0,0,0,40.852,82.537ZM38.123,70.643A73.971,73.971,0,0,1,35.7,61.335H59.389a73.706,73.706,0,0,1-2.425,9.308Zm.113-46.54H59.955V39.616H53.75V58.232H44.441V33.411H38.236ZM25.825,36.513H41.339V58.232H25.825ZM9.043,61.335h23.5a80.419,80.419,0,0,0,2.3,9.308H16.522a45.065,45.065,0,0,1-7.479-9.308Zm77,0a45.072,45.072,0,0,1-7.481,9.308H60.248a80.419,80.419,0,0,0,2.3-9.308h23.5Z" transform="translate(0.548 10.027)"/>
      <path id="Trazado_204121" data-name="Trazado 204121" d="M18.065,35.13A17.065,17.065,0,1,0,1,18.065,17.085,17.085,0,0,0,18.065,35.13ZM9.328,28.938a9.247,9.247,0,0,1,17.474,0,13.9,13.9,0,0,1-17.474,0Zm4.083-13.976a4.654,4.654,0,1,1,4.654,4.654A4.66,4.66,0,0,1,13.411,14.962ZM18.065,4.1a13.937,13.937,0,0,1,11.1,22.4A12.358,12.358,0,0,0,23.2,20.728a7.757,7.757,0,1,0-10.276,0A12.358,12.358,0,0,0,6.968,26.5a13.937,13.937,0,0,1,11.1-22.4Z" transform="translate(-1 -1)"/>
      <path id="Trazado_204122" data-name="Trazado 204122" d="M58.065,35.13A17.065,17.065,0,1,0,41,18.065,17.085,17.085,0,0,0,58.065,35.13Zm-8.737-6.191a9.247,9.247,0,0,1,17.474,0,13.9,13.9,0,0,1-17.474,0Zm4.083-13.976a4.654,4.654,0,1,1,4.654,4.654A4.66,4.66,0,0,1,53.411,14.962ZM58.065,4.1a13.937,13.937,0,0,1,11.1,22.4A12.358,12.358,0,0,0,63.2,20.728a7.757,7.757,0,1,0-10.276,0A12.358,12.358,0,0,0,46.968,26.5a13.937,13.937,0,0,1,11.1-22.4Z" transform="translate(21.054 -1)"/>
      <path id="Trazado_204123" data-name="Trazado 204123" d="M33.6,8.525v13.32h3.1V8.525l5.109,5.109L44,11.44,35.147,2.586,26.293,11.44l2.194,2.194Z" transform="translate(12.945 -0.126)"/>
      <path id="Trazado_204124" data-name="Trazado 204124" d="M31,17h3.1v3.1H31Z" transform="translate(15.54 7.822)"/>
      <path id="Trazado_204125" data-name="Trazado 204125" d="M57.763,26.487,62.871,31.6H48v3.1H62.871l-5.109,5.109L59.956,42l8.854-8.854-8.854-8.854Z" transform="translate(24.913 11.843)"/>
      <path id="Trazado_204126" data-name="Trazado 204126" d="M13.633,39.806,8.525,34.7H20.293V31.6H8.525l5.109-5.109L11.44,24.293,2.586,33.147,11.44,42Z" transform="translate(-0.126 11.843)"/>
      <path id="Trazado_204127" data-name="Trazado 204127" d="M32,33h3.1v3.1H32Z" transform="translate(16.092 16.643)"/>
      <path id="Trazado_204128" data-name="Trazado 204128" d="M32,25h3.1v3.1H32Z" transform="translate(16.092 12.232)"/>
      <path id="Trazado_204129" data-name="Trazado 204129" d="M32,41h3.1v3.1H32Z" transform="translate(16.092 21.054)"/>
      <path id="Trazado_204130" data-name="Trazado 204130" d="M32,37h3.1v3.1H32Z" transform="translate(16.092 18.849)"/>
      <path id="Trazado_204131" data-name="Trazado 204131" d="M32,29h3.1v3.1H32Z" transform="translate(16.092 14.438)"/>
      <path id="Trazado_204132" data-name="Trazado 204132" d="M36,29h3.1v3.1H36Z" transform="translate(18.297 14.438)"/>
      <path id="Trazado_204133" data-name="Trazado 204133" d="M36,25h3.1v3.1H36Z" transform="translate(18.297 12.232)"/>
      <path id="Trazado_204134" data-name="Trazado 204134" d="M28,25h3.1v3.1H28Z" transform="translate(13.886 12.232)"/>
      <path id="Trazado_204135" data-name="Trazado 204135" d="M20,33h3.1v3.1H20Z" transform="translate(9.476 16.643)"/>
      <path id="Trazado_204136" data-name="Trazado 204136" d="M24,33h3.1v3.1H24Z" transform="translate(11.681 16.643)"/>
      <path id="Trazado_204137" data-name="Trazado 204137" d="M24,37h3.1v3.1H24Z" transform="translate(11.681 18.849)"/>
      <path id="Trazado_204138" data-name="Trazado 204138" d="M20,37h3.1v3.1H20Z" transform="translate(9.476 18.849)"/>
      <path id="Trazado_204139" data-name="Trazado 204139" d="M24,41h3.1v3.1H24Z" transform="translate(11.681 21.054)"/>
      <path id="Trazado_204140" data-name="Trazado 204140" d="M20,41h3.1v3.1H20Z" transform="translate(9.476 21.054)"/>
      <path id="Trazado_204141" data-name="Trazado 204141" d="M44,37h3.1v3.1H44Z" transform="translate(22.708 18.849)"/>
      <path id="Trazado_204142" data-name="Trazado 204142" d="M40,37h3.1v3.1H40Z" transform="translate(20.503 18.849)"/>
      <path id="Trazado_204143" data-name="Trazado 204143" d="M44,41h3.1v3.1H44Z" transform="translate(22.708 21.054)"/>
      <path id="Trazado_204144" data-name="Trazado 204144" d="M40,41h3.1v3.1H40Z" transform="translate(20.503 21.054)"/>
    </g>
  </g>
</svg>
