<svg xmlns="http://www.w3.org/2000/svg" width="58.436" height="70.684" viewBox="0 0 58.436 70.684">
  <g id="Grupo_150262" data-name="Grupo 150262" transform="translate(0 0)">
    <path id="Trazado_159987" data-name="Trazado 159987" d="M721.742-2871.269q0,12.86,0,25.72a4.63,4.63,0,0,1-3.6,4.825,5.985,5.985,0,0,1-1.358.115q-19.632.009-39.265,0a4.633,4.633,0,0,1-4.989-4.981c0-1.2-.023-2.4.01-3.6.013-.489-.1-.667-.627-.65-1.248.039-2.5.02-3.746.011a4.611,4.611,0,0,1-4.857-4.9q-.008-25.828,0-51.657a4.6,4.6,0,0,1,4.918-4.9q19.668-.008,39.337,0a4.62,4.62,0,0,1,4.953,4.944c0,1.2.027,2.4-.011,3.6-.017.522.1.712.664.69,1.223-.048,2.449-.02,3.674-.014a4.615,4.615,0,0,1,4.894,4.93Q721.749-2884.2,721.742-2871.269Zm-12.323-9.252q0-12.822,0-25.644c0-1.6-.459-2.056-2.055-2.056h-38.9c-1.6,0-2.056.459-2.056,2.056q0,25.608,0,51.216c0,1.594.464,2.058,2.055,2.058h38.826c1.691,0,2.128-.436,2.128-2.13Q709.419-2867.771,709.419-2880.521Zm9.222,9.184q0-12.9,0-25.79c0-1.347-.532-1.869-1.878-1.873-1.153,0-2.308.047-3.457-.018-.682-.038-.8.2-.8.824.018,14.431-.01,28.863.033,43.295a4.848,4.848,0,0,1-5.064,5.1c-4.945-.092-9.893-.025-14.84-.025-5.427,0-10.854.01-16.281-.015-.615,0-.761.18-.737.762.046,1.1.013,2.209.013,3.313,0,1.647.45,2.1,2.089,2.1h38.829c1.642,0,2.092-.449,2.092-2.094Q718.642-2858.55,718.641-2871.337Z" transform="translate(-663.307 2911.288)" fill="#040404"/>
    <path id="Trazado_159988" data-name="Trazado 159988" d="M722.425-2867.667q0,12.75,0,25.5c0,1.694-.436,2.13-2.128,2.13H681.471c-1.591,0-2.055-.463-2.055-2.059q0-25.608,0-51.216c0-1.6.461-2.056,2.056-2.056h38.9c1.6,0,2.055.458,2.055,2.057Q722.426-2880.489,722.425-2867.667Zm-21.5-21.537a12.254,12.254,0,0,0-12.287,12.238,12.262,12.262,0,0,0,12.132,12.321A12.255,12.255,0,0,0,713.2-2876.74,12.238,12.238,0,0,0,700.926-2889.2Zm6.192,31.479c2.518,0,5.037.011,7.556-.006a1.531,1.531,0,0,0,1.622-1.551,1.535,1.535,0,0,0-1.61-1.5q-7.628-.015-15.255,0a1.488,1.488,0,0,0-1.4.838,1.511,1.511,0,0,0,1.462,2.216C702.033-2857.709,704.575-2857.723,707.118-2857.725Zm0,6.161c-2.519,0-5.037-.005-7.555,0a1.528,1.528,0,0,0-1.7,1.538,1.482,1.482,0,0,0,1.635,1.517q7.556.015,15.111,0a1.668,1.668,0,0,0,1.022-.273,1.526,1.526,0,0,0,.571-1.717,1.5,1.5,0,0,0-1.53-1.068C712.156-2851.57,709.637-2851.563,707.118-2851.564Zm-17.023-6.159c1.007,0,2.013.013,3.019,0a1.489,1.489,0,0,0,1.638-1.513,1.5,1.5,0,0,0-1.617-1.541q-2.983-.022-5.967,0a1.538,1.538,0,0,0-1.622,1.556,1.534,1.534,0,0,0,1.6,1.494C688.131-2857.709,689.113-2857.725,690.1-2857.723Zm.013,9.22c1.03,0,2.061.019,3.091-.005a1.473,1.473,0,0,0,1.554-1.521,1.489,1.489,0,0,0-1.559-1.526q-3.019-.03-6.039,0a1.537,1.537,0,0,0-1.609,1.5,1.538,1.538,0,0,0,1.614,1.555C688.143-2848.487,689.126-2848.5,690.108-2848.5Z" transform="translate(-676.313 2898.434)" fill="#f3f9ff"/>
    <path id="Trazado_159989" data-name="Trazado 159989" d="M770.247-2819.908q0,12.787,0,25.574c0,1.645-.45,2.094-2.092,2.094H729.326c-1.639,0-2.088-.45-2.089-2.1,0-1.1.032-2.21-.013-3.313-.024-.581.122-.765.737-.762,5.427.026,10.854.016,16.281.016,4.946,0,9.895-.066,14.84.025a4.848,4.848,0,0,0,5.064-5.1c-.042-14.432-.015-28.863-.032-43.3,0-.628.117-.862.8-.823,1.149.064,2.3.015,3.457.018,1.345,0,1.877.526,1.877,1.873Q770.249-2832.8,770.247-2819.908Z" transform="translate(-714.912 2859.859)" fill="#dee4f0"/>
    <path id="Trazado_159990" data-name="Trazado 159990" d="M739.593-2863.363a12.238,12.238,0,0,1,12.273,12.463,12.255,12.255,0,0,1-12.428,12.1,12.262,12.262,0,0,1-12.131-12.321A12.253,12.253,0,0,1,739.593-2863.363Zm-.008,3.058a9.246,9.246,0,0,0-9.218,9.115,9.229,9.229,0,0,0,9.151,9.326,9.227,9.227,0,0,0,9.288-9.186A9.227,9.227,0,0,0,739.586-2860.305Z" transform="translate(-714.981 2872.593)" fill="#020202"/>
    <path id="Trazado_159991" data-name="Trazado 159991" d="M784.371-2712.737c-2.542,0-5.085.015-7.628-.006a1.511,1.511,0,0,1-1.462-2.216,1.489,1.489,0,0,1,1.4-.838q7.628,0,15.255,0a1.535,1.535,0,0,1,1.61,1.5,1.532,1.532,0,0,1-1.622,1.551C789.408-2712.727,786.89-2712.738,784.371-2712.737Z" transform="translate(-753.567 2753.447)" fill="#020202"/>
    <path id="Trazado_159992" data-name="Trazado 159992" d="M784.473-2667.916c2.518,0,5.037-.006,7.556,0a1.5,1.5,0,0,1,1.53,1.068,1.525,1.525,0,0,1-.571,1.717,1.668,1.668,0,0,1-1.022.274q-7.556,0-15.111,0a1.482,1.482,0,0,1-1.635-1.517,1.528,1.528,0,0,1,1.7-1.539C779.436-2667.922,781.954-2667.916,784.473-2667.916Z" transform="translate(-753.668 2714.786)" fill="#020202"/>
    <path id="Trazado_159993" data-name="Trazado 159993" d="M715.8-2712.762c-.982,0-1.965.015-2.947-.005a1.534,1.534,0,0,1-1.6-1.495,1.537,1.537,0,0,1,1.621-1.556q2.983-.023,5.967,0a1.5,1.5,0,0,1,1.617,1.541,1.49,1.49,0,0,1-1.638,1.513C717.816-2712.747,716.81-2712.76,715.8-2712.762Z" transform="translate(-702.021 2753.47)" fill="#020202"/>
    <path id="Trazado_159994" data-name="Trazado 159994" d="M715.814-2664.876c-.982,0-1.965.016-2.947,0a1.539,1.539,0,0,1-1.614-1.555,1.536,1.536,0,0,1,1.609-1.5q3.019-.024,6.039,0a1.489,1.489,0,0,1,1.559,1.526,1.473,1.473,0,0,1-1.554,1.521C717.875-2664.858,716.844-2664.877,715.814-2664.876Z" transform="translate(-702.019 2714.807)" fill="#020202"/>
    <path id="Trazado_159995" data-name="Trazado 159995" d="M752.422-2847.481a9.227,9.227,0,0,1,9.22,9.255,9.226,9.226,0,0,1-9.288,9.185,9.229,9.229,0,0,1-9.151-9.325A9.246,9.246,0,0,1,752.422-2847.481Zm6.121,6.115a1.477,1.477,0,0,0-.947-1.362,1.508,1.508,0,0,0-1.763.422c-1.494,1.49-3,2.965-4.465,4.486-.409.427-.627.371-.976-.025-.443-.5-.93-.969-1.42-1.426a1.533,1.533,0,0,0-2.244-.027,1.526,1.526,0,0,0,.072,2.192c.967,1,1.947,1.986,2.951,2.948a1.489,1.489,0,0,0,2.291-.018c2.012-1.989,4-4,6.006-6A1.635,1.635,0,0,0,758.543-2841.366Z" transform="translate(-727.817 2859.769)" fill="#3d46c2"/>
    <path id="Trazado_159996" data-name="Trazado 159996" d="M771.518-2821.983a1.635,1.635,0,0,1-.5,1.193c-2,2-3.993,4.009-6.006,6a1.489,1.489,0,0,1-2.291.018c-1-.962-1.984-1.949-2.951-2.948a1.525,1.525,0,0,1-.072-2.191,1.533,1.533,0,0,1,2.244.027c.491.457.978.923,1.42,1.426.349.4.566.452.976.026,1.461-1.522,2.971-3,4.465-4.487a1.508,1.508,0,0,1,1.763-.422A1.477,1.477,0,0,1,771.518-2821.983Z" transform="translate(-740.792 2840.385)" fill="#fff"/>
  </g>
</svg>
