<svg xmlns="http://www.w3.org/2000/svg" width="120" height="120" viewBox="0 0 120 120">
  <g id="Grupo_150374" data-name="Grupo 150374" transform="translate(-332 -4266.52)">
    <circle id="Elipse_5635" data-name="Elipse 5635" cx="60" cy="60" r="60" transform="translate(332 4266.52)" fill="#fff"/>
    <g id="Copia_de_objetivo_4" data-name="Copia de objetivo 4" transform="translate(354.039 4281.836)">
      <g id="Grupo_150369" data-name="Grupo 150369" transform="translate(1.237 1.597)">
        <circle id="Elipse_5676" data-name="Elipse 5676" cx="35.63" cy="35.63" r="35.63" transform="translate(0 10.361)" fill="#f85316"/>
        <circle id="Elipse_5677" data-name="Elipse 5677" cx="26.888" cy="26.888" r="26.888" transform="translate(8.743 19.104)" fill="#f5f5f5"/>
        <circle id="Elipse_5678" data-name="Elipse 5678" cx="18.145" cy="18.145" r="18.145" transform="translate(17.485 27.846)" fill="#f85316"/>
        <circle id="Elipse_5679" data-name="Elipse 5679" cx="9.237" cy="9.237" r="9.237" transform="translate(26.393 36.754)" fill="#f5f5f5"/>
        <path id="Trazado_203924" data-name="Trazado 203924" d="M219.09,270.512a9.208,9.208,0,0,1-2.346,6l-7.728-3.6a3.213,3.213,0,0,1-1.678-3.972c.036-.1.076-.2.122-.3a3.218,3.218,0,0,1,4.274-1.556Z" transform="translate(-174.224 -224.372)" fill="#e6e6e6"/>
        <g id="Grupo_150368" data-name="Grupo 150368" transform="translate(32.935)">
          <g id="Grupo_150366" data-name="Grupo 150366" transform="translate(26.952 13.41)">
            <path id="Trazado_203925" data-name="Trazado 203925" d="M392.014,92.445a.33.33,0,0,1,.179.558l-3.49,3.506-2.141,2.151-5.851,5.876a1.65,1.65,0,0,1-1.437.464l-8.726-1.437,6.535-6.483,2.166-2.148,3.984-3.952Z" transform="translate(-370.549 -90.98)" fill="#dce736"/>
            <path id="Trazado_203926" data-name="Trazado 203926" d="M421.789,116.517l-2.141,2.151-9.478-1.58,2.166-2.148Z" transform="translate(-403.634 -110.988)" fill="#dce736"/>
          </g>
          <g id="Grupo_150367" data-name="Grupo 150367" transform="translate(21.352)">
            <path id="Trazado_203927" data-name="Trazado 203927" d="M350.709,19.287l-3.964,3.878-2.156,2.11-6.512,6.372-1.454-8.838a1.65,1.65,0,0,1,.461-1.434l5.875-5.881,2.149-2.153,3.556-3.559a.33.33,0,0,1,.559.181Z" transform="translate(-336.6 -9.687)" fill="#dce736"/>
            <path id="Trazado_203928" data-name="Trazado 203928" d="M378.927,41.673l-2.156,2.11L375.14,34l2.149-2.153Z" transform="translate(-368.783 -28.194)" fill="#dce736"/>
          </g>
          <path id="Trazado_203929" data-name="Trazado 203929" d="M250.16,48.372a3.2,3.2,0,0,1-.942,2.273L212.65,87.214a3.214,3.214,0,0,1-4.307.218c-.082-.068-.163-.14-.241-.218a3.216,3.216,0,0,1,0-4.548L244.671,46.1a3.214,3.214,0,0,1,4.548,0c.078.078.15.158.218.241a3.2,3.2,0,0,1,.724,2.034Z" transform="translate(-207.16 -39.304)" fill="#75b62f"/>
        </g>
      </g>
      <path id="Trazado_203931" data-name="Trazado 203931" d="M70.688,30.4a1.237,1.237,0,0,0,.877-.364L84.1,17.45a1.237,1.237,0,0,0-.673-2.093l-6.737-1.124.419-.419a4.454,4.454,0,1,0-6.3-6.3l-.439.439-1.1-6.913a1.237,1.237,0,0,0-2.1-.679L54.533,13.01a1.237,1.237,0,0,0-.346,1.075l.172,1.043a36.9,36.9,0,0,0-37.552,1.524,1.237,1.237,0,1,0,1.348,2.075,34.42,34.42,0,0,1,36.724-.443l.729,4.431-2.157,2.157a27.809,27.809,0,0,0-16.583-5.407A28.125,28.125,0,1,0,64.992,47.589q0-.4-.011-.794a1.237,1.237,0,1,0-2.473.068q.01.362.01.726a25.65,25.65,0,1,1-25.651-25.65,25.358,25.358,0,0,1,14.811,4.706l-4.521,4.521A19.381,19.381,0,0,0,17.485,47.589,19.542,19.542,0,0,0,17.86,51.4a1.238,1.238,0,0,0,2.427-.484A16.924,16.924,0,0,1,36.867,30.681a16.8,16.8,0,0,1,8.49,2.285l-4.815,4.815a10.476,10.476,0,1,0,6.221,6.376l4.848-4.848a16.921,16.921,0,0,1-29.5,16.584,1.237,1.237,0,0,0-2.16,1.207A19.394,19.394,0,1,0,53.418,37.5l4.53-4.53A25.343,25.343,0,0,1,61.8,41.54a1.237,1.237,0,0,0,2.405-.581A27.811,27.811,0,0,0,59.722,31.2l2.219-2.219,4.3.707a34.4,34.4,0,1,1-52.38-7.661A1.237,1.237,0,1,0,12.2,20.187,36.861,36.861,0,1,0,69.385,30.2l1.1.181a1.236,1.236,0,0,0,.2.016Zm9.964-13-2.87,2.883-6.126-1.022,2.882-2.882ZM72.556,9.265a1.979,1.979,0,0,1,2.8,2.8L38.787,48.633a1.979,1.979,0,1,1-2.8-2.8ZM67.2,3.828l1,6.288L65.322,13,64.28,6.754ZM56.732,14.31l5.4-5.4,1.041,6.245-5.411,5.411ZM44.867,47.589a7.994,7.994,0,1,1-6.312-7.821l-4.317,4.317a4.454,4.454,0,0,0,6.3,6.3l4.2-4.2A8.065,8.065,0,0,1,44.867,47.589ZM64.094,26.826,69.5,21.415l6.134,1.023-5.379,5.4Z" transform="translate(0 0)"/>
    </g>
  </g>
</svg>
