<svg xmlns="http://www.w3.org/2000/svg" width="145.898" height="145.898" viewBox="0 0 145.898 145.898">
  <g id="Grupo_150949" data-name="Grupo 150949" transform="translate(-727.051 -4071.335)">
    <g id="Grupo_150945" data-name="Grupo 150945" transform="translate(0 484.785)">
      <g id="Grupo_150939" data-name="Grupo 150939" transform="translate(728.465 3587.965)">
        <circle id="Elipse_5805" data-name="Elipse 5805" cx="50.583" cy="50.583" r="50.583" transform="translate(0 71.535) rotate(-45)" fill="#fff" stroke="#3e4bbf" stroke-miterlimit="10" stroke-width="2"/>
        <path id="Trazado_205902" data-name="Trazado 205902" d="M932.71,182.753a50.662,50.662,0,0,1-30.33,21.755l14.32,14.32,8.518-17.525,17.525-8.518Z" transform="translate(-818.608 -83.884)" fill="#3d46c2"/>
        <ellipse id="Elipse_5806" data-name="Elipse 5806" cx="47.305" cy="47.305" rx="47.305" ry="47.305" transform="matrix(0.23, -0.973, 0.973, 0.23, 14.627, 106.706)" fill="none" stroke="#3e4bbf" stroke-miterlimit="10" stroke-width="1"/>
        <g id="Grupo_150875" data-name="Grupo 150875" transform="translate(32.633 27.429)">
          <g id="Grupo_150874" data-name="Grupo 150874">
            <path id="Trazado_205903" data-name="Trazado 205903" d="M828.8,106.391l-1.407.334a3.03,3.03,0,0,1-1.324,1.818,2.713,2.713,0,0,1-1.4.4,3.034,3.034,0,0,1-2.57-1.447,2.72,2.72,0,0,1-.378-1.4,3.016,3.016,0,0,1,1.413-2.511,2.691,2.691,0,0,1,1.394-.4,2.879,2.879,0,0,1,1.469.392,2.921,2.921,0,0,1,1.053.976,2.683,2.683,0,0,1,.421,1.295l1.9-.472Zm-4.073,1.664a1.752,1.752,0,0,0,.964-.237,2.059,2.059,0,0,0,.972-1.725,1.762,1.762,0,0,0-.3-.948,2.536,2.536,0,0,0-1.9-1.068,1.733,1.733,0,0,0-.958.242,2.085,2.085,0,0,0-.971,1.724,1.73,1.73,0,0,0,.29.944,2.3,2.3,0,0,0,.826.747A2.325,2.325,0,0,0,824.723,108.055Z" transform="translate(-821.717 -82.189)" fill="#3d46c2"/>
            <path id="Trazado_205904" data-name="Trazado 205904" d="M826.622,96.938l2.813,2.19a1.146,1.146,0,0,0,1.785-.211,1.293,1.293,0,0,0,.322-.937,1.272,1.272,0,0,0-.55-.852l-2.813-2.19.564-.723,2.8,2.18a2.14,2.14,0,0,1,.731.947,1.844,1.844,0,0,1,.069,1.064,2.709,2.709,0,0,1-1.352,1.736,1.8,1.8,0,0,1-1.041.184,2.184,2.184,0,0,1-1.092-.483l-2.8-2.18Z" transform="translate(-823.306 -78.906)" fill="#3d46c2"/>
            <path id="Trazado_205905" data-name="Trazado 205905" d="M838.357,91.883l-1.68,1.631.507,1.1-.687.667-2.463-5.414.762-.74,5.339,2.623-.694.673Zm-.706-.358-2.463-1.232,1.153,2.5Z" transform="translate(-826.225 -77.045)" fill="#3d46c2"/>
            <path id="Trazado_205906" data-name="Trazado 205906" d="M842.9,88.59l1.5-1.153.451.586-2.225,1.713-3.411-4.432.727-.559Z" transform="translate(-828.12 -75.441)" fill="#3d46c2"/>
            <path id="Trazado_205907" data-name="Trazado 205907" d="M844.889,81.205l3.087,4.663-.765.507-3.088-4.663Z" transform="translate(-829.918 -74.145)" fill="#3d46c2"/>
            <path id="Trazado_205908" data-name="Trazado 205908" d="M850.406,77.133l.359.656-1.305.716,2.329,4.248-.8.441-2.329-4.248-1.312.72-.36-.656Z" transform="translate(-830.965 -72.655)" fill="#3d46c2"/>
            <path id="Trazado_205909" data-name="Trazado 205909" d="M858.011,73.735l-.385,4,.758,1.881-.851.343-.758-1.881-3.056-2.612.948-.382,2.227,2.062.177-3.03Z" transform="translate(-833.431 -71.411)" fill="#3d46c2"/>
            <path id="Trazado_205910" data-name="Trazado 205910" d="M871.841,70.371l1,5.5-.9.163-.682-3.769-1,4.073-.626.113-2.369-3.463.682,3.769-.9.164-1-5.5.974-.177,2.713,3.966,1.143-4.664Z" transform="translate(-837.942 -70.18)" fill="#3d46c2"/>
            <path id="Trazado_205911" data-name="Trazado 205911" d="M881.49,74.513l-2.341.048-.379,1.151-.957.02,1.888-5.641,1.063-.022,2.117,5.558-.965.02Zm-.273-.743-.962-2.58-.864,2.617Z" transform="translate(-842.249 -70.069)" fill="#3d46c2"/>
            <path id="Trazado_205912" data-name="Trazado 205912" d="M891.445,76.259l-.911-.11L888.3,71.67l-.5,4.146-.91-.111.675-5.56.911.111,2.237,4.471.5-4.138.91.111Z" transform="translate(-845.569 -70.097)" fill="#3d46c2"/>
            <path id="Trazado_205913" data-name="Trazado 205913" d="M899,77.011l-2.26-.611-.687,1-.924-.25,3.4-4.882,1.025.277.471,5.93-.931-.252Zm-.053-.789-.2-2.746-1.565,2.269Z" transform="translate(-848.587 -70.873)" fill="#3d46c2"/>
            <path id="Trazado_205914" data-name="Trazado 205914" d="M909.51,77.848a1.477,1.477,0,0,0-.3-.821,1.814,1.814,0,0,0-.732-.554,1.953,1.953,0,0,0-1.007-.17,1.742,1.742,0,0,0-.907.375,2.209,2.209,0,0,0-.652.874,2.24,2.24,0,0,0-.2,1.075,1.749,1.749,0,0,0,.336.926,1.954,1.954,0,0,0,.807.626,1.749,1.749,0,0,0,1.28.106,1.818,1.818,0,0,0,.98-.809l-1.923-.845.295-.67,2.822,1.239-.288.656a2.763,2.763,0,0,1-3.5,1.082,2.893,2.893,0,0,1-1.171-.914,2.735,2.735,0,0,1-.538-1.348,3.032,3.032,0,0,1,1.184-2.7,2.723,2.723,0,0,1,1.361-.514,3.05,3.05,0,0,1,2.741,1.283,2.5,2.5,0,0,1,.425,1.544Z" transform="translate(-852.123 -72.039)" fill="#3d46c2"/>
            <path id="Trazado_205915" data-name="Trazado 205915" d="M915.78,79.993l-.85,1.4,1.651,1-.387.64-1.652-1-.888,1.466,1.858,1.127-.388.64-2.642-1.6,2.9-4.79,2.642,1.6-.387.64Z" transform="translate(-854.938 -73.293)" fill="#3d46c2"/>
            <path id="Trazado_205916" data-name="Trazado 205916" d="M926.041,86.593,922.5,90.92l-.709-.581,2.427-2.963-3.746,1.882-.493-.4,1.1-4.049-2.427,2.963-.709-.581,3.544-4.326.765.627-1.259,4.636,4.291-2.153Z" transform="translate(-856.936 -74.751)" fill="#3d46c2"/>
            <path id="Trazado_205917" data-name="Trazado 205917" d="M930.374,91.988,929.165,93.1l1.307,1.421-.55.507-1.308-1.421-1.261,1.16,1.47,1.6-.55.507L926.181,94.6l4.122-3.791L932.4,93.08l-.551.507Z" transform="translate(-859.952 -77.659)" fill="#3d46c2"/>
            <path id="Trazado_205918" data-name="Trazado 205918" d="M933.157,103.378l-.532-.747,1.8-4.67-3.4,2.421-.532-.747,4.563-3.247.532.747-1.8,4.665,3.4-2.417.531.747Z" transform="translate(-861.531 -79.702)" fill="#3d46c2"/>
            <path id="Trazado_205919" data-name="Trazado 205919" d="M942.459,107.734l-.661.351-.7-1.314-4.277,2.275-.43-.81,4.276-2.275-.7-1.321.661-.352Z" transform="translate(-863.69 -82.594)" fill="#3d46c2"/>
          </g>
        </g>
        <g id="Grupo_150877" data-name="Grupo 150877" transform="translate(35.977 92.63)">
          <g id="Grupo_150876" data-name="Grupo 150876">
            <path id="Trazado_205920" data-name="Trazado 205920" d="M829.535,174.726a2.721,2.721,0,0,1,1.439.2,3.056,3.056,0,0,1,1.786,2.444,2.5,2.5,0,0,1-.372,1.558l-.671-.874a1.48,1.48,0,0,0,.156-.881,1.785,1.785,0,0,0-.372-.841,1.951,1.951,0,0,0-.8-.633,1.735,1.735,0,0,0-.982-.1A2.526,2.526,0,0,0,828,176.923a1.765,1.765,0,0,0-.157.978,1.92,1.92,0,0,0,.4.94,1.787,1.787,0,0,0,.716.576,1.478,1.478,0,0,0,.891.077l.671.874a2.475,2.475,0,0,1-1.6-.046,2.934,2.934,0,0,1-1.312-1,2.89,2.89,0,0,1-.587-1.366,2.729,2.729,0,0,1,.178-1.44,3.029,3.029,0,0,1,2.336-1.794Z" transform="translate(-826.992 -173.567)" fill="#3d46c2"/>
            <path id="Trazado_205921" data-name="Trazado 205921" d="M836.419,182.019l-1.16,1.161,1.366,1.364-.529.529-1.367-1.364-1.211,1.213,1.538,1.536-.529.529-2.186-2.183,3.957-3.963,2.186,2.183-.529.529Z" transform="translate(-828.95 -175.814)" fill="#3d46c2"/>
            <path id="Trazado_205922" data-name="Trazado 205922" d="M840.026,191.574l.372-2.554-.55-.434-1.383,1.757-.721-.567,3.46-4.394,1.517,1.2a2.4,2.4,0,0,1,.717.852,1.56,1.56,0,0,1,.152.887,1.643,1.643,0,0,1-.349.8,1.676,1.676,0,0,1-.864.584,1.616,1.616,0,0,1-1.144-.127l-.347,2.677Zm.275-3.562.8.628a1.061,1.061,0,0,0,.769.278.926.926,0,0,0,.634-.382.9.9,0,0,0,.219-.693,1.1,1.1,0,0,0-.462-.676l-.8-.628Z" transform="translate(-830.927 -177.476)" fill="#3d46c2"/>
            <path id="Trazado_205923" data-name="Trazado 205923" d="M851.431,191.908l-.389.64-1.272-.772-2.514,4.141-.784-.476,2.514-4.141-1.279-.777.388-.64Z" transform="translate(-834.122 -179.123)" fill="#3d46c2"/>
            <path id="Trazado_205924" data-name="Trazado 205924" d="M854.878,194.032l-2.489,5.008-.822-.408,2.489-5.008Z" transform="translate(-835.987 -180.492)" fill="#3d46c2"/>
            <path id="Trazado_205925" data-name="Trazado 205925" d="M860.258,196.285l-.278.694-2.2-.883-.613,1.531,1.718.688-.278.694-1.718-.688-.91,2.271-.851-.341,2.079-5.192Z" transform="translate(-837.289 -181.018)" fill="#3d46c2"/>
            <path id="Trazado_205926" data-name="Trazado 205926" d="M864.306,197.586l-1.658,5.341-.876-.272,1.659-5.341Z" transform="translate(-839.722 -181.843)" fill="#3d46c2"/>
            <path id="Trazado_205927" data-name="Trazado 205927" d="M867.469,199.177l-.359,1.6,1.884.422-.164.73-1.885-.423-.375,1.672,2.121.475-.164.73-3.015-.676,1.226-5.466,3.015.676-.164.73Z" transform="translate(-841.091 -182.184)" fill="#3d46c2"/>
            <path id="Trazado_205928" data-name="Trazado 205928" d="M876.8,200.3a2.443,2.443,0,0,1,.941,1.075,2.947,2.947,0,0,1,.224,1.52,2.888,2.888,0,0,1-.5,1.44,2.42,2.42,0,0,1-1.124.859,3.48,3.48,0,0,1-1.589.185l-1.819-.172.528-5.568,1.818.172A3.4,3.4,0,0,1,876.8,200.3Zm-.435,3.948a2.04,2.04,0,0,0,.662-1.441,2.112,2.112,0,0,0-.376-1.563,1.983,1.983,0,0,0-1.447-.687l-.9-.086-.387,4.077.905.086A2.016,2.016,0,0,0,876.363,204.247Z" transform="translate(-843.805 -182.694)" fill="#3d46c2"/>
            <path id="Trazado_205929" data-name="Trazado 205929" d="M889.658,202.276a1.514,1.514,0,0,1-.586.67,2.383,2.383,0,0,1-1.109.338l-1.01.091.2,2.26-.914.082-.5-5.57,1.924-.172a2.441,2.441,0,0,1,1.106.123,1.537,1.537,0,0,1,.718.538,1.637,1.637,0,0,1,.3.822A1.69,1.69,0,0,1,889.658,202.276Zm-1.006-.044a.867.867,0,0,0,.2-.692q-.083-.914-1.116-.821l-1.01.09.164,1.82,1.009-.091A1.117,1.117,0,0,0,888.652,202.232Z" transform="translate(-848.496 -182.811)" fill="#3d46c2"/>
            <path id="Trazado_205930" data-name="Trazado 205930" d="M897.067,204.078l-1.733-1.912-.684.149.475,2.186-.9.195-1.189-5.464,1.887-.411a2.4,2.4,0,0,1,1.113-.011,1.56,1.56,0,0,1,.782.448,1.649,1.649,0,0,1,.4.779,1.674,1.674,0,0,1-.1,1.038,1.613,1.613,0,0,1-.826.8l1.845,1.97Zm-2.573-2.478.99-.216a1.063,1.063,0,0,0,.7-.417.929.929,0,0,0,.108-.732.9.9,0,0,0-.4-.609,1.091,1.091,0,0,0-.815-.074l-.99.216Z" transform="translate(-851.166 -182.368)" fill="#3d46c2"/>
            <path id="Trazado_205931" data-name="Trazado 205931" d="M903.839,201.679a2.705,2.705,0,0,1-1.331-.591,3.035,3.035,0,0,1-1.039-2.76,2.721,2.721,0,0,1,.614-1.318,3.018,3.018,0,0,1,2.7-1.014,2.7,2.7,0,0,1,1.326.589,2.87,2.87,0,0,1,.872,1.245,2.9,2.9,0,0,1,.166,1.515,2.685,2.685,0,0,1-.608,1.321,3.015,3.015,0,0,1-2.7,1.014Zm2.03-1.494a1.759,1.759,0,0,0,.382-.917,2.536,2.536,0,0,0-.767-2.037,1.744,1.744,0,0,0-.888-.431,2.089,2.089,0,0,0-1.853.7,1.745,1.745,0,0,0-.385.91,2.54,2.54,0,0,0,.767,2.037,1.757,1.757,0,0,0,.892.439,2.06,2.06,0,0,0,1.853-.7Z" transform="translate(-854.238 -181.349)" fill="#3d46c2"/>
            <path id="Trazado_205932" data-name="Trazado 205932" d="M912.8,192.072a2.452,2.452,0,0,1,1.387.346,2.958,2.958,0,0,1,1.051,1.122,2.9,2.9,0,0,1,.408,1.47,2.423,2.423,0,0,1-.433,1.347,3.478,3.478,0,0,1-1.2,1.059l-1.591.9-2.744-4.873,1.592-.9A3.4,3.4,0,0,1,912.8,192.072Zm1.9,3.49A2.037,2.037,0,0,0,914.42,194a2.116,2.116,0,0,0-1.2-1.069,1.985,1.985,0,0,0-1.58.262l-.792.446,2.01,3.569.792-.446A2.016,2.016,0,0,0,914.7,195.562Z" transform="translate(-857.257 -179.923)" fill="#3d46c2"/>
            <path id="Trazado_205933" data-name="Trazado 205933" d="M917.959,187.737l2.171,2.828a1.146,1.146,0,0,0,1.781.245,1.294,1.294,0,0,0,.548-.826,1.271,1.271,0,0,0-.318-.964l-2.171-2.827.727-.559,2.161,2.814a2.138,2.138,0,0,1,.469,1.1,1.844,1.844,0,0,1-.2,1.047,2.571,2.571,0,0,1-.732.857,2.537,2.537,0,0,1-1.014.484,1.8,1.8,0,0,1-1.054-.084,2.191,2.191,0,0,1-.936-.742l-2.161-2.815Z" transform="translate(-860.021 -177.568)" fill="#3d46c2"/>
            <path id="Trazado_205934" data-name="Trazado 205934" d="M925.466,183.8a2.715,2.715,0,0,1-.012-1.454,3.051,3.051,0,0,1,2.153-2.127,2.5,2.5,0,0,1,1.6.136l-.765.794a1.48,1.48,0,0,0-.894-.024,1.794,1.794,0,0,0-.777.492,1.961,1.961,0,0,0-.508.886,1.744,1.744,0,0,0,.043.986A2.524,2.524,0,0,0,927.866,185a1.769,1.769,0,0,0,.991.011,1.929,1.929,0,0,0,.87-.536,1.794,1.794,0,0,0,.464-.794,1.483,1.483,0,0,0-.056-.893L930.9,182a2.476,2.476,0,0,1,.191,1.587,2.935,2.935,0,0,1-.791,1.445,2.9,2.9,0,0,1-1.264.783,2.733,2.733,0,0,1-1.451.037,3.029,3.029,0,0,1-2.12-2.045Z" transform="translate(-862.997 -175.56)" fill="#3d46c2"/>
            <path id="Trazado_205935" data-name="Trazado 205935" d="M932.509,172.911l.6.442-.879,1.2,3.91,2.861-.541.74-3.91-2.861-.884,1.208-.6-.442Z" transform="translate(-864.769 -172.911)" fill="#3d46c2"/>
          </g>
        </g>
        <path id="Trazado_205936" data-name="Trazado 205936" d="M810.144,182.753l-10.033,10.032,17.525,8.518,8.518,17.525,14.32-14.32A50.66,50.66,0,0,1,810.144,182.753Z" transform="translate(-781.176 -83.884)" fill="#3d46c2"/>
        <path id="Trazado_205937" data-name="Trazado 205937" d="M939.115,151.834A41.335,41.335,0,0,0,941.9,115.07" transform="translate(-832.053 -59.111)" fill="none" stroke="#3e4bbf" stroke-miterlimit="10" stroke-width="1"/>
        <path id="Trazado_205938" data-name="Trazado 205938" d="M820.881,115.07a41.335,41.335,0,0,0,2.789,36.764" transform="translate(-787.662 -59.111)" fill="none" stroke="#3e4bbf" stroke-miterlimit="10" stroke-width="1"/>
        <g id="Grupo_150878" data-name="Grupo 150878" transform="translate(57.091 41.048)">
          <path id="Trazado_205939" data-name="Trazado 205939" d="M860.295,93.416v-1.57h5.377v1.57l-1.391.268V103l1.391.268v1.561h-5.377V103.27l1.391-.268V93.683Z" transform="translate(-860.295 -91.658)" fill="#3d46c2"/>
          <path id="Trazado_205940" data-name="Trazado 205940" d="M880.412,95.89h-1.953l-.339-1.783a3.438,3.438,0,0,0-.99-.375,5.759,5.759,0,0,0-1.383-.161,2.66,2.66,0,0,0-1.655.451,1.4,1.4,0,0,0-.583,1.163,1.275,1.275,0,0,0,.61,1.084,8.472,8.472,0,0,0,2.11.9,8.236,8.236,0,0,1,3.259,1.579,3.275,3.275,0,0,1,1.11,2.577,3.083,3.083,0,0,1-1.32,2.631,5.765,5.765,0,0,1-3.477.963,7.557,7.557,0,0,1-2.788-.49,5.746,5.746,0,0,1-2.073-1.356v-2.711h2.016l.276,1.846a3.157,3.157,0,0,0,1.066.531,5.048,5.048,0,0,0,1.5.209,2.593,2.593,0,0,0,1.627-.437,1.409,1.409,0,0,0,.558-1.168,1.508,1.508,0,0,0-.531-1.2,5.374,5.374,0,0,0-1.859-.856,10.579,10.579,0,0,1-3.5-1.588,3.007,3.007,0,0,1-1.186-2.514,3.091,3.091,0,0,1,1.338-2.582,5.577,5.577,0,0,1,3.362-1.03,7.828,7.828,0,0,1,2.729.455,6.291,6.291,0,0,1,2.068,1.213Z" transform="translate(-864.182 -91.555)" fill="#3d46c2"/>
          <path id="Trazado_205941" data-name="Trazado 205941" d="M899.735,98.328a6.9,6.9,0,0,1-1.632,4.717,5.8,5.8,0,0,1-8.521,0,6.938,6.938,0,0,1-1.618-4.717v-.2a6.956,6.956,0,0,1,1.614-4.709,5.332,5.332,0,0,1,4.245-1.873,5.409,5.409,0,0,1,4.276,1.873,6.9,6.9,0,0,1,1.636,4.709Zm-2.595-.214a5.8,5.8,0,0,0-.838-3.273,2.788,2.788,0,0,0-2.479-1.257,2.715,2.715,0,0,0-2.448,1.248,5.954,5.954,0,0,0-.808,3.282v.214a5.972,5.972,0,0,0,.816,3.3,2.729,2.729,0,0,0,2.448,1.253,2.777,2.777,0,0,0,2.479-1.253,5.9,5.9,0,0,0,.829-3.3Z" transform="translate(-870.422 -91.55)" fill="#3d46c2"/>
        </g>
        <g id="Grupo_150880" data-name="Grupo 150880" transform="translate(47.924 45.001)">
          <ellipse id="Elipse_5807" data-name="Elipse 5807" cx="2.156" cy="2.156" rx="2.156" ry="2.156" fill="#3d46c2"/>
          <path id="Trazado_205946" data-name="Trazado 205946" d="M917.83,99.941a2.156,2.156,0,1,1-2.156-2.156A2.156,2.156,0,0,1,917.83,99.941Z" transform="translate(-870.609 -97.785)" fill="#3d46c2"/>
        </g>
        <path id="Trazado_205947" data-name="Trazado 205947" d="M877.862,163.351l3.1,5.238,5.938,1.326-4.025,4.563.574,6.057-5.584-2.418-5.584,2.418.574-6.057-4.025-4.563,5.938-1.326Z" transform="translate(-806.327 -76.782)" fill="#3d46c2"/>
        <g id="Grupo_150881" data-name="Grupo 150881" transform="translate(47.401 86.568)">
          <path id="Trazado_205948" data-name="Trazado 205948" d="M850.959,163.351,853,166.8l3.91.873-2.65,3,.378,3.989-3.676-1.592-3.677,1.592.378-3.989-2.65-3,3.91-.873Z" transform="translate(-845.01 -163.351)" fill="#3d46c2"/>
          <path id="Trazado_205949" data-name="Trazado 205949" d="M908.328,163.351l2.039,3.449,3.91.873-2.65,3,.378,3.989-3.677-1.592-3.677,1.592.378-3.989-2.65-3,3.91-.873Z" transform="translate(-866.008 -163.351)" fill="#3d46c2"/>
        </g>
        <g id="Grupo_150915" data-name="Grupo 150915" transform="translate(32.633 62.83)">
          <path id="Trazado_206136" data-name="Trazado 206136" d="M660.229,764.165h2.247v2.643h-2.247v1.948l2.111.409v2.383h-8.2v-2.383l2.125-.409v-1.948h-8.091l-.191-1.948,8.241-13.144h4Zm-8.527,0h4.563v-7.151l-.082-.027-.327.572Z" transform="translate(-647.984 -751.429)" fill="#3d46c2"/>
          <path id="Trazado_206137" data-name="Trazado 206137" d="M683.889,756.237l-.354-1.335H678.2l-.559,4.576a4.971,4.971,0,0,1,1.335-.674,5.545,5.545,0,0,1,1.716-.28,5.487,5.487,0,0,1,4.427,1.73,7.189,7.189,0,0,1,1.567,4.93,6.794,6.794,0,0,1-1.723,4.754,6.371,6.371,0,0,1-4.965,1.894,7.459,7.459,0,0,1-4.672-1.492,4.716,4.716,0,0,1-1.88-4.106l.027-.068,3.814-.191a2.772,2.772,0,0,0,.749,2.064,2.664,2.664,0,0,0,1.962.742,2.3,2.3,0,0,0,2.057-.994,4.541,4.541,0,0,0,.668-2.575,4.8,4.8,0,0,0-.708-2.751,2.391,2.391,0,0,0-2.111-1.035,3.014,3.014,0,0,0-1.737.422,2.306,2.306,0,0,0-.865,1.144l-3.514-.231,1.144-11.047h11.414v4.522Z" transform="translate(-657.301 -751.429)" fill="#3d46c2"/>
          <path id="Trazado_206138" data-name="Trazado 206138" d="M710.965,763.659q0,3.937-1.8,5.973a6.914,6.914,0,0,1-9.8,0q-1.812-2.037-1.811-5.973v-4.372a8.777,8.777,0,0,1,1.8-5.973,6.874,6.874,0,0,1,9.794,0,8.735,8.735,0,0,1,1.818,5.973ZM707,758.878a6.531,6.531,0,0,0-.708-3.453,2.456,2.456,0,0,0-4.087-.007,6.63,6.63,0,0,0-.694,3.46v5.162a6.637,6.637,0,0,0,.7,3.487,2.3,2.3,0,0,0,2.064,1.09,2.258,2.258,0,0,0,2.029-1.09A6.691,6.691,0,0,0,707,764.04Z" transform="translate(-666.126 -751.264)" fill="#3d46c2"/>
          <path id="Trazado_206139" data-name="Trazado 206139" d="M736.1,763.659q0,3.937-1.8,5.973a6.914,6.914,0,0,1-9.8,0q-1.813-2.037-1.812-5.973v-4.372a8.778,8.778,0,0,1,1.8-5.973,6.874,6.874,0,0,1,9.793,0,8.735,8.735,0,0,1,1.818,5.973Zm-3.964-4.781a6.531,6.531,0,0,0-.708-3.453,2.456,2.456,0,0,0-4.086-.007,6.628,6.628,0,0,0-.695,3.46v5.162a6.63,6.63,0,0,0,.7,3.487,2.3,2.3,0,0,0,2.064,1.09,2.259,2.259,0,0,0,2.029-1.09,6.7,6.7,0,0,0,.694-3.487Z" transform="translate(-675.326 -751.264)" fill="#3d46c2"/>
          <path id="Trazado_206140" data-name="Trazado 206140" d="M747.111,769.164l3.351-.409v-13.43H747.07V753.05l7.355-1.335v17.04l3.351.409v2.383H747.111Z" transform="translate(-684.251 -751.429)" fill="#3d46c2"/>
        </g>
      </g>
    </g>
  </g>
</svg>
