<svg xmlns="http://www.w3.org/2000/svg" width="100" height="101.963" viewBox="0 0 100 101.963">
  <g id="benchmarking" transform="translate(-4.928)">
    <g id="Grupo_150430" data-name="Grupo 150430" transform="translate(6.92 1.992)">
      <path id="Trazado_204170" data-name="Trazado 204170" d="M85.087,10V77.638c-.095,0-.19,0-.285,0a26.142,26.142,0,0,0-26.144,26.141H14.928V10Z" transform="translate(-14.928 -10)" fill="#eaf0f0"/>
    </g>
    <g id="Grupo_150431" data-name="Grupo 150431" transform="translate(19.086 43.293)">
      <path id="Trazado_204171" data-name="Trazado 204171" d="M76,217.344H85.4v16.249H76Z" transform="translate(-76.004 -217.344)" fill="#3d46c2"/>
    </g>
    <g id="Grupo_150432" data-name="Grupo 150432" transform="translate(36.9 32.923)">
      <path id="Trazado_204172" data-name="Trazado 204172" d="M165.434,165.284h9.392V191.9h-9.392Z" transform="translate(-165.434 -165.284)" fill="#75b62f"/>
    </g>
    <g id="Grupo_150433" data-name="Grupo 150433" transform="translate(55.521 35.273)">
      <path id="Trazado_204173" data-name="Trazado 204173" d="M258.918,177.082h9.392V201.35h-9.392Z" transform="translate(-258.918 -177.082)" fill="#dce736"/>
    </g>
    <g id="Grupo_150434" data-name="Grupo 150434" transform="translate(71.917 90.594)">
      <circle id="Elipse_5707" data-name="Elipse 5707" cx="4.338" cy="4.338" r="4.338" transform="matrix(0.981, -0.196, 0.196, 0.981, 0, 1.701)" fill="#5c90ae"/>
    </g>
    <g id="Grupo_150435" data-name="Grupo 150435" transform="translate(19.464 23.909)">
      <circle id="Elipse_5708" data-name="Elipse 5708" cx="4.318" cy="4.318" r="4.318" fill="#f85316"/>
    </g>
    <g id="Grupo_150436" data-name="Grupo 150436" transform="translate(37.08 13.948)">
      <circle id="Elipse_5709" data-name="Elipse 5709" cx="4.318" cy="4.318" r="4.318" fill="#f85316"/>
    </g>
    <g id="Grupo_150437" data-name="Grupo 150437" transform="translate(55.375 13.948)">
      <circle id="Elipse_5710" data-name="Elipse 5710" cx="4.318" cy="4.318" r="4.318" fill="#f85316"/>
    </g>
    <g id="Grupo_150441" data-name="Grupo 150441" transform="translate(50.652 69.627)">
      <g id="Grupo_150438" data-name="Grupo 150438" transform="translate(0 4.183)">
        <path id="Trazado_204174" data-name="Trazado 204174" d="M234.473,392.5h13.991a12.138,12.138,0,0,1,5.482-10.156l-7.52-11.8A26.12,26.12,0,0,0,234.473,392.5Z" transform="translate(-234.473 -370.546)" fill="#3d46c2"/>
      </g>
      <g id="Grupo_150439" data-name="Grupo 150439" transform="translate(33.054 4.383)">
        <path id="Trazado_204175" data-name="Trazado 204175" d="M407.993,371.549l-7.579,11.768a12.136,12.136,0,0,1,5.239,9.991h13.991A26.116,26.116,0,0,0,407.993,371.549Z" transform="translate(-400.414 -371.549)" fill="#f85316"/>
      </g>
      <g id="Grupo_150440" data-name="Grupo 150440" transform="translate(11.953)">
        <path id="Trazado_204176" data-name="Trazado 204176" d="M308.67,349.544a26.019,26.019,0,0,0-14.189,4.183l7.52,11.8a12.142,12.142,0,0,1,13.581.165l7.579-11.768A26.019,26.019,0,0,0,308.67,349.544Z" transform="translate(-294.481 -349.544)" fill="#dce736"/>
      </g>
    </g>
    <g id="Grupo_150442" data-name="Grupo 150442" transform="translate(4.928)">
      <path id="Trazado_204177" data-name="Trazado 204177" d="M113.823,185.886a1.992,1.992,0,0,0,1.992-1.992V159.626a1.992,1.992,0,0,0-1.992-1.992h-9.392a1.992,1.992,0,0,0-1.992,1.992V181.9H97.194V157.276a1.992,1.992,0,0,0-1.992-1.992H85.81a1.992,1.992,0,0,0-1.992,1.992V181.9H79.38V167.646a1.992,1.992,0,0,0-1.992-1.992H68A1.992,1.992,0,0,0,66,167.646v16.248A1.992,1.992,0,0,0,68,185.886Zm-7.4-24.268h5.408V181.9h-5.408ZM69.988,181.9V169.638H75.4V181.9Zm17.814,0V159.268H93.21V181.9Z" transform="translate(-53.838 -124.353)"/>
      <path id="Trazado_204178" data-name="Trazado 204178" d="M96.468,348.036a1.992,1.992,0,0,0-1.992-1.992H68.047a1.992,1.992,0,0,0,0,3.984h26.43A1.992,1.992,0,0,0,96.468,348.036Z" transform="translate(-53.889 -277.114)"/>
      <path id="Trazado_204179" data-name="Trazado 204179" d="M68.047,397.722a1.992,1.992,0,0,0,0,3.984H83.94a1.992,1.992,0,0,0,0-3.984Z" transform="translate(-53.889 -318.499)"/>
      <path id="Trazado_204180" data-name="Trazado 204180" d="M74.381,70.1c-8.359.317-8.356,12.3,0,12.619a6.336,6.336,0,0,0,6.076-8.006L87.3,70.662a6.33,6.33,0,0,0,10.678-2.22h6.324a6.309,6.309,0,1,0,0-3.984H97.981A6.313,6.313,0,0,0,85.71,66.976L78.22,71.409A6.278,6.278,0,0,0,74.381,70.1Zm35.91-5.977a2.325,2.325,0,1,1-2.326,2.325A2.328,2.328,0,0,1,110.291,64.125Zm-18.3,0a2.326,2.326,0,1,1-2.326,2.325A2.328,2.328,0,0,1,92,64.125ZM74.381,78.737a2.325,2.325,0,1,1,2.326-2.326A2.328,2.328,0,0,1,74.381,78.737Z" transform="translate(-55.527 -48.185)"/>
      <path id="Trazado_204181" data-name="Trazado 204181" d="M92.391,72.353a27.967,27.967,0,0,0-13.32-4.624V45.194a1.992,1.992,0,1,0-3.984,0V67.687c-13.747.691-25.6,12.318-26.358,26.091H8.912V3.984H75.087V27.666a1.992,1.992,0,1,0,3.984,0V1.992A1.992,1.992,0,0,0,77.079,0H6.92A1.992,1.992,0,0,0,4.928,1.992V95.769A1.992,1.992,0,0,0,6.92,97.761c10.268.005,48.2,0,57.723,0a1.992,1.992,0,0,0,1.992-1.992,10.14,10.14,0,0,1,4.585-8.492,10.319,10.319,0,0,1,11.352.138,10.182,10.182,0,0,1,2.308,2.213L81.593,91.3a6.33,6.33,0,1,0-.016,8.727,6.321,6.321,0,0,0,1.705-5.116l3.34-1.7a10.117,10.117,0,0,1,.331,2.557,1.992,1.992,0,0,0,1.992,1.992h13.991a1.992,1.992,0,0,0,1.992-1.992A28.1,28.1,0,0,0,92.391,72.353ZM78.7,97.277a2.346,2.346,0,1,1-.076-3.317,2.371,2.371,0,0,1,.076,3.317Zm-15.9-3.5H52.725a24.313,24.313,0,0,1,9.329-17.124l5.408,8.489A14.094,14.094,0,0,0,62.791,93.777ZM70.8,82.96l-5.4-8.476a24.305,24.305,0,0,1,23.111.162l-5.44,8.446A14.191,14.191,0,0,0,70.8,82.96Zm20,10.817a14.108,14.108,0,0,0-.562-2.4l3.991-2.033a1.992,1.992,0,1,0-1.808-3.55L88.47,87.8a14.159,14.159,0,0,0-2.118-2.451l5.466-8.487a24.113,24.113,0,0,1,9.044,16.915H90.8Z" transform="translate(-4.928)"/>
      <path id="Trazado_204182" data-name="Trazado 204182" d="M360.116,173.878a1.991,1.991,0,1,0-.345,2.6A2.009,2.009,0,0,0,360.116,173.878Z" transform="translate(-286.442 -138.554)"/>
    </g>
  </g>
</svg>
