<svg xmlns="http://www.w3.org/2000/svg" width="120" height="120" viewBox="0 0 120 120">
  <g id="Grupo_150375" data-name="Grupo 150375" transform="translate(-604 -4266.52)">
    <circle id="Elipse_5638" data-name="Elipse 5638" cx="60" cy="60" r="60" transform="translate(604 4266.52)" fill="#fff"/>
    <g id="proceso-de-trabajo" transform="translate(615.295 4276.52)">
      <g id="Grupo_150372" data-name="Grupo 150372" transform="translate(1.522 1.522)">
        <path id="Trazado_203963" data-name="Trazado 203963" d="M73.213,11.9h0A43.288,43.288,0,0,0,30.148,50.817l11.427-.535A32.073,32.073,0,0,1,73.213,23.172l-.051.018v4.375l11.048-8.926L73.162,8v3.918" transform="translate(-25.934 -8)" fill="#dce736"/>
        <path id="Trazado_203965" data-name="Trazado 203965" d="M185.413,162.263l-3.62-.544a16.889,16.889,0,0,0-2.662-6.424l2.175-2.945a1.3,1.3,0,0,0-.126-1.685l-1.874-1.874a1.3,1.3,0,0,0-1.685-.126l-2.945,2.175a16.888,16.888,0,0,0-6.424-2.662l-.544-3.62a1.3,1.3,0,0,0-1.281-1.1h-2.65a1.3,1.3,0,0,0-1.281,1.1l-.544,3.62a16.887,16.887,0,0,0-6.424,2.662l-2.945-2.175a1.3,1.3,0,0,0-1.685.126l-1.874,1.874a1.3,1.3,0,0,0-.126,1.685l2.176,2.945a16.888,16.888,0,0,0-2.662,6.424l-3.62.544a1.3,1.3,0,0,0-1.1,1.281v2.65a1.3,1.3,0,0,0,1.1,1.281l3.62.544a16.889,16.889,0,0,0,2.662,6.424l-2.176,2.945a1.3,1.3,0,0,0,.126,1.685l1.874,1.874a1.3,1.3,0,0,0,1.685.126l2.945-2.175a16.888,16.888,0,0,0,6.424,2.662l.544,3.62a1.3,1.3,0,0,0,1.281,1.1h2.65a1.3,1.3,0,0,0,1.281-1.1l.544-3.62a16.887,16.887,0,0,0,6.424-2.662l2.945,2.175a1.3,1.3,0,0,0,1.685-.126l1.874-1.874a1.3,1.3,0,0,0,.126-1.685l-2.175-2.945a16.889,16.889,0,0,0,2.662-6.424l3.62-.544a1.3,1.3,0,0,0,1.1-1.281v-2.65a1.3,1.3,0,0,0-1.1-1.281ZM165.1,173.438a8.57,8.57,0,1,1,8.57-8.57A8.57,8.57,0,0,1,165.1,173.438Z" transform="translate(-117.876 -117.685)" fill="#f85316"/>
        <path id="Trazado_203966" data-name="Trazado 203966" d="M11.945,208.748c0,.015,0,.029,0,.044a43.288,43.288,0,0,0,38.918,43.065l-.671-11.449a32.018,32.018,0,0,1-26.975-31.615c0-.015,0-.029,0-.044h4.348L18.639,197.7,8,208.748h3.918" transform="translate(-8 -161.609)" fill="#75b62f"/>
        <path id="Trazado_203967" data-name="Trazado 203967" d="M208.748,306.165h.088A32.018,32.018,0,0,0,240.45,279.2l11.46-.779a43.287,43.287,0,0,1-43.074,39.017h-.088v3.9L197.7,310.7l11.048-8.926v4.375Z" transform="translate(-161.609 -226.972)" fill="#dce736"/>
        <path id="Trazado_203971" data-name="Trazado 203971" d="M317.678,72.719c0-.015,0-.029,0-.044A43.287,43.287,0,0,0,278.664,29.6l6.78,6.529-6.085,4.917a32.018,32.018,0,0,1,27.048,31.627c0,.015,0,.029,0,.044H301.97L310.9,83.767l10.639-11.048Z" transform="translate(-227.169 -25.492)" fill="#75b62f"/>
      </g>
      <g id="Grupo_150373" data-name="Grupo 150373" transform="translate(0 0)">
        <path id="Trazado_203973" data-name="Trazado 203973" d="M213.588,203.347a10.023,10.023,0,0,0-9.41,13.458,1.43,1.43,0,1,0,2.686-.982A7.158,7.158,0,1,1,209.9,219.5a1.43,1.43,0,0,0-1.476,2.449,10.018,10.018,0,1,0,5.164-18.6Z" transform="translate(-164.841 -164.659)"/>
        <path id="Trazado_203974" data-name="Trazado 203974" d="M179.389,154.574l-2.651-.4a18.213,18.213,0,0,0-2.119-5.114l1.594-2.157a2.712,2.712,0,0,0-.265-3.549l-1.877-1.877a2.712,2.712,0,0,0-3.549-.265l-2.157,1.594a18.2,18.2,0,0,0-5.113-2.119l-.4-2.651a2.711,2.711,0,0,0-2.7-2.322H157.5a2.711,2.711,0,0,0-2.7,2.322l-.4,2.651a18.206,18.206,0,0,0-5.113,2.119l-2.157-1.594a2.711,2.711,0,0,0-3.549.265l-1.877,1.877a2.711,2.711,0,0,0-.265,3.55l1.593,2.157a18.194,18.194,0,0,0-2.119,5.114l-2.651.4a2.711,2.711,0,0,0-2.322,2.7v2.655a2.711,2.711,0,0,0,2.322,2.7l2.651.4a18.208,18.208,0,0,0,2.119,5.114l-1.593,2.157a2.711,2.711,0,0,0,.265,3.549l1.877,1.877a2.711,2.711,0,0,0,3.549.265l2.157-1.594a18.2,18.2,0,0,0,5.113,2.119l.4,2.651a2.711,2.711,0,0,0,2.7,2.322h2.655a2.711,2.711,0,0,0,2.7-2.322l.4-2.651a18.2,18.2,0,0,0,5.113-2.119l2.158,1.594a2.711,2.711,0,0,0,3.549-.265l1.877-1.877a2.712,2.712,0,0,0,.265-3.549l-1.594-2.157a18.2,18.2,0,0,0,2.119-5.114l2.651-.4a2.711,2.711,0,0,0,2.322-2.7v-2.655a2.71,2.71,0,0,0-2.322-2.7Zm-.538,5.238-3.514.528a1.429,1.429,0,0,0-1.193,1.15,15.415,15.415,0,0,1-2.442,5.893,1.429,1.429,0,0,0,.03,1.657l2.112,2.86-1.717,1.716-2.86-2.112a1.431,1.431,0,0,0-1.657-.03,15.414,15.414,0,0,1-5.893,2.442,1.43,1.43,0,0,0-1.15,1.193l-.528,3.514h-2.427l-.528-3.515a1.429,1.429,0,0,0-1.15-1.193,15.415,15.415,0,0,1-5.893-2.442,1.428,1.428,0,0,0-1.657.03l-2.859,2.112-1.717-1.716,2.112-2.86a1.429,1.429,0,0,0,.03-1.657,15.412,15.412,0,0,1-2.442-5.893,1.429,1.429,0,0,0-1.193-1.15l-3.514-.528v-2.427l3.514-.528a1.429,1.429,0,0,0,1.193-1.15,15.413,15.413,0,0,1,2.442-5.893,1.429,1.429,0,0,0-.03-1.657l-2.112-2.86,1.717-1.716,2.859,2.112a1.43,1.43,0,0,0,1.657.03,15.419,15.419,0,0,1,5.893-2.442,1.429,1.429,0,0,0,1.15-1.193l.528-3.515h2.427l.528,3.514a1.43,1.43,0,0,0,1.15,1.193,15.412,15.412,0,0,1,5.893,2.442,1.429,1.429,0,0,0,1.657-.03l2.86-2.112,1.717,1.716-2.112,2.86a1.43,1.43,0,0,0-.03,1.657,15.414,15.414,0,0,1,2.442,5.893,1.429,1.429,0,0,0,1.193,1.15l3.514.528Z" transform="translate(-110.079 -109.893)"/>
        <path id="Trazado_203975" data-name="Trazado 203975" d="M97.3,48.19a1.43,1.43,0,0,0-1.316-.87H93.525A44.8,44.8,0,0,0,53.664,4.177L49.739.4a1.439,1.439,0,0,0-2.421,1.03v2.5a44.481,44.481,0,0,0-24.356,8.139A1.43,1.43,0,0,0,24.609,14.4,41.667,41.667,0,0,1,48.748,6.764a1.43,1.43,0,0,0,1.43-1.43V4.788l7.481,7.2-7.482,6.045V16.63a1.43,1.43,0,0,0-1.43-1.43A33.515,33.515,0,0,0,16.263,40.485L13.2,36.692a1.439,1.439,0,0,0-2.142-.093L7.7,40.086A41.887,41.887,0,0,1,20.308,17.881a1.43,1.43,0,1,0-1.939-2.1A44.709,44.709,0,0,0,4.23,43.688L.4,47.669a1.439,1.439,0,0,0,1.03,2.422H3.97A44.8,44.8,0,0,0,43.732,93.224l3.935,3.79a1.439,1.439,0,0,0,2.421-1.03v-2.5a44.454,44.454,0,0,0,24.749-8.358A1.43,1.43,0,0,0,73.17,82.8a41.649,41.649,0,0,1-24.44,7.841h-.071a1.43,1.43,0,0,0-1.43,1.43v.548l-7.481-7.2,7.481-6.045V80.78a1.43,1.43,0,0,0,1.421,1.43h.1a33.515,33.515,0,0,0,32.463-25.2l3,3.71a1.439,1.439,0,0,0,2.142.093l3.469-3.6A41.912,41.912,0,0,1,77.447,79.286,1.43,1.43,0,1,0,79.4,81.371,44.736,44.736,0,0,0,93.275,53.62l3.735-3.879A1.429,1.429,0,0,0,97.3,48.19ZM36.691,84.211a1.439,1.439,0,0,0-.093,2.142l3.534,3.4A41.952,41.952,0,0,1,6.808,48.71v-.049a1.43,1.43,0,0,0-1.43-1.43H4.788l7.2-7.482,6.045,7.482H16.673a1.425,1.425,0,0,0-1.43,1.425v.049a33.515,33.515,0,0,0,25.21,32.466ZM68.741,71.93a30.63,30.63,0,0,1-18.652,7.392V76.379a1.44,1.44,0,0,0-2.328-1.112l-4.456,3.6A30.654,30.654,0,0,1,18.134,50.091h2.9a1.44,1.44,0,0,0,1.112-2.329l-3.571-4.42a30.653,30.653,0,0,1,28.746-25.25v2.939a1.44,1.44,0,0,0,2.328,1.112l4.473-3.614a30.654,30.654,0,0,1,25.243,28.79H76.376a1.44,1.44,0,0,0-1.112,2.329l3.643,4.509A30.661,30.661,0,0,1,68.741,71.93ZM85.414,57.661,79.37,50.179h1.452a1.425,1.425,0,0,0,1.43-1.425v-.049A33.516,33.516,0,0,0,56.976,16.221l3.74-3.022a1.439,1.439,0,0,0,.093-2.142L57.253,7.632A41.951,41.951,0,0,1,90.687,48.7v.049a1.43,1.43,0,0,0,1.43,1.43h.5Z" transform="translate(0 0)"/>
      </g>
    </g>
  </g>
</svg>
