<svg xmlns="http://www.w3.org/2000/svg" width="614" height="400" viewBox="0 0 614 400">
  <g id="Grupo_150494" data-name="Grupo 150494" transform="translate(-258 -1103)">
    <rect id="Rectángulo_41738" data-name="Rectángulo 41738" width="614" height="400" transform="translate(258 1103)" fill="#f3f9ff"/>
    <g id="Grupo_150493" data-name="Grupo 150493" transform="translate(52.862 48.649)">
      <rect id="Rectángulo_41924" data-name="Rectángulo 41924" width="155.736" height="42.548" rx="10" transform="translate(471.678 1124.351)" fill="#3d46c2"/>
      <path id="Trazado_206350" data-name="Trazado 206350" d="M.952,0V-10.664H4.233a4.983,4.983,0,0,1,2.516.634,4.418,4.418,0,0,1,1.732,1.8A5.557,5.557,0,0,1,9.1-5.574v.491a5.573,5.573,0,0,1-.612,2.644A4.38,4.38,0,0,1,6.768-.645,5.021,5.021,0,0,1,4.255,0Zm2.2-8.884v7.119H4.211a2.386,2.386,0,0,0,1.97-.842,3.806,3.806,0,0,0,.7-2.41v-.564A3.867,3.867,0,0,0,6.2-8.046a2.378,2.378,0,0,0-1.97-.839ZM12.8,0H10.671V-7.925H12.8ZM10.547-9.976a1.042,1.042,0,0,1,.319-.784,1.2,1.2,0,0,1,.868-.308,1.2,1.2,0,0,1,.864.308,1.036,1.036,0,0,1,.322.784,1.039,1.039,0,0,1-.326.791,1.2,1.2,0,0,1-.861.308,1.2,1.2,0,0,1-.861-.308A1.039,1.039,0,0,1,10.547-9.976ZM18.992-5.94A5.751,5.751,0,0,0,18.23-6a1.55,1.55,0,0,0-1.575.813V0H14.539V-7.925h2l.059.945a1.961,1.961,0,0,1,1.765-1.091,2.218,2.218,0,0,1,.659.1ZM23.518.146A3.89,3.89,0,0,1,20.68-.923a3.8,3.8,0,0,1-1.095-2.849v-.205a4.787,4.787,0,0,1,.461-2.135,3.386,3.386,0,0,1,1.307-1.45,3.669,3.669,0,0,1,1.93-.509,3.289,3.289,0,0,1,2.56,1.025,4.167,4.167,0,0,1,.934,2.908v.864H21.731a1.966,1.966,0,0,0,.619,1.245,1.871,1.871,0,0,0,1.307.469,2.285,2.285,0,0,0,1.912-.886l1.04,1.165A3.178,3.178,0,0,1,25.32-.231,4.229,4.229,0,0,1,23.518.146Zm-.242-6.511a1.323,1.323,0,0,0-1.022.427,2.209,2.209,0,0,0-.5,1.221H24.7v-.169a1.576,1.576,0,0,0-.381-1.092A1.365,1.365,0,0,0,23.276-6.365Zm8,4.8a1.388,1.388,0,0,0,.952-.322,1.129,1.129,0,0,0,.381-.857h1.985a2.715,2.715,0,0,1-.439,1.476A2.9,2.9,0,0,1,32.97-.223a3.7,3.7,0,0,1-1.659.37A3.44,3.44,0,0,1,28.63-.934a4.275,4.275,0,0,1-.981-2.985v-.139a4.226,4.226,0,0,1,.974-2.922A3.4,3.4,0,0,1,31.3-8.071a3.333,3.333,0,0,1,2.384.846,3,3,0,0,1,.912,2.252H32.607a1.455,1.455,0,0,0-.381-1.005,1.27,1.27,0,0,0-.967-.387,1.275,1.275,0,0,0-1.117.539,3.125,3.125,0,0,0-.377,1.749v.22A3.164,3.164,0,0,0,30.139-2.1,1.291,1.291,0,0,0,31.274-1.56Zm7.061-8.313v1.948H39.69v1.553H38.335v3.955a.944.944,0,0,0,.168.63.846.846,0,0,0,.645.19,3.376,3.376,0,0,0,.623-.051v1.6a4.358,4.358,0,0,1-1.282.19A2.021,2.021,0,0,1,36.218-2.1v-4.27H35.061V-7.925h1.157V-9.873ZM40.32-4.036a4.7,4.7,0,0,1,.454-2.1,3.324,3.324,0,0,1,1.307-1.428,3.814,3.814,0,0,1,1.981-.505,3.609,3.609,0,0,1,2.618.981,3.939,3.939,0,0,1,1.132,2.666l.015.542A4.142,4.142,0,0,1,46.809-.956a3.539,3.539,0,0,1-2.732,1.1,3.556,3.556,0,0,1-2.736-1.1A4.215,4.215,0,0,1,40.32-3.94Zm2.117.15a2.962,2.962,0,0,0,.425,1.727,1.4,1.4,0,0,0,1.216.6,1.4,1.4,0,0,0,1.2-.591,3.241,3.241,0,0,0,.432-1.889,2.933,2.933,0,0,0-.432-1.716,1.4,1.4,0,0,0-1.216-.609,1.382,1.382,0,0,0-1.2.605A3.3,3.3,0,0,0,42.437-3.885ZM53.584-5.94A5.751,5.751,0,0,0,52.822-6a1.55,1.55,0,0,0-1.575.813V0H49.131V-7.925h2l.059.945a1.961,1.961,0,0,1,1.765-1.091,2.218,2.218,0,0,1,.659.1ZM58.03-4.021A4.644,4.644,0,0,1,58.9-6.958a2.812,2.812,0,0,1,2.34-1.113,2.466,2.466,0,0,1,2.029.894l.088-.747h1.919V-.264A3.387,3.387,0,0,1,64.8,1.545a3.034,3.034,0,0,1-1.329,1.172,4.673,4.673,0,0,1-2.007.4,4.346,4.346,0,0,1-1.7-.348,3.016,3.016,0,0,1-1.252-.9L59.451.586a2.48,2.48,0,0,0,1.919.886,1.815,1.815,0,0,0,1.311-.45,1.69,1.69,0,0,0,.469-1.278V-.681a2.448,2.448,0,0,1-1.926.828A2.8,2.8,0,0,1,58.912-.97a4.643,4.643,0,0,1-.883-2.963Zm2.117.151a2.907,2.907,0,0,0,.432,1.7,1.373,1.373,0,0,0,1.187.614,1.469,1.469,0,0,0,1.384-.728V-5.636a1.465,1.465,0,0,0-1.37-.728,1.382,1.382,0,0,0-1.2.625A3.278,3.278,0,0,0,60.146-3.87ZM70.547.146A3.89,3.89,0,0,1,67.709-.923a3.8,3.8,0,0,1-1.095-2.849v-.205a4.787,4.787,0,0,1,.461-2.135,3.386,3.386,0,0,1,1.307-1.45,3.669,3.669,0,0,1,1.93-.509,3.289,3.289,0,0,1,2.56,1.025,4.167,4.167,0,0,1,.934,2.908v.864H68.76a1.966,1.966,0,0,0,.619,1.245,1.871,1.871,0,0,0,1.307.469A2.285,2.285,0,0,0,72.6-2.446l1.04,1.165A3.178,3.178,0,0,1,72.349-.231,4.229,4.229,0,0,1,70.547.146Zm-.242-6.511a1.323,1.323,0,0,0-1.022.427,2.209,2.209,0,0,0-.5,1.221h2.944v-.169a1.576,1.576,0,0,0-.381-1.092A1.365,1.365,0,0,0,70.305-6.365Zm6.65-1.56.066.916A2.767,2.767,0,0,1,79.3-8.071a2.3,2.3,0,0,1,1.875.74A3.451,3.451,0,0,1,81.8-5.12V0H79.688V-5.08a1.379,1.379,0,0,0-.293-.98,1.31,1.31,0,0,0-.974-.3,1.456,1.456,0,0,0-1.34.763V0H74.963V-7.925ZM87.056.146A3.89,3.89,0,0,1,84.218-.923a3.8,3.8,0,0,1-1.095-2.849v-.205a4.787,4.787,0,0,1,.461-2.135,3.386,3.386,0,0,1,1.307-1.45,3.669,3.669,0,0,1,1.93-.509,3.289,3.289,0,0,1,2.56,1.025,4.167,4.167,0,0,1,.934,2.908v.864H85.269a1.966,1.966,0,0,0,.619,1.245,1.871,1.871,0,0,0,1.307.469,2.285,2.285,0,0,0,1.912-.886l1.04,1.165A3.178,3.178,0,0,1,88.857-.231,4.229,4.229,0,0,1,87.056.146Zm-.242-6.511a1.323,1.323,0,0,0-1.022.427,2.209,2.209,0,0,0-.5,1.221h2.944v-.169a1.576,1.576,0,0,0-.381-1.092A1.365,1.365,0,0,0,86.814-6.365Zm9.155.425A5.751,5.751,0,0,0,95.208-6a1.55,1.55,0,0,0-1.575.813V0H91.516V-7.925h2l.059.945a1.961,1.961,0,0,1,1.765-1.091,2.218,2.218,0,0,1,.659.1ZM101.36,0a2.351,2.351,0,0,1-.212-.71,2.561,2.561,0,0,1-2,.857,2.814,2.814,0,0,1-1.93-.674,2.167,2.167,0,0,1-.765-1.7,2.24,2.24,0,0,1,.934-1.934,4.608,4.608,0,0,1,2.7-.681h.974V-5.3a1.306,1.306,0,0,0-.282-.879,1.109,1.109,0,0,0-.89-.33,1.261,1.261,0,0,0-.839.256.871.871,0,0,0-.3.7H96.628a2.126,2.126,0,0,1,.425-1.274,2.808,2.808,0,0,1,1.2-.919A4.378,4.378,0,0,1,100-8.071a3.459,3.459,0,0,1,2.325.736,2.575,2.575,0,0,1,.861,2.069v3.435A3.789,3.789,0,0,0,103.5-.125V0Zm-1.75-1.472a1.823,1.823,0,0,0,.864-.209,1.371,1.371,0,0,0,.586-.56V-3.6h-.791q-1.589,0-1.692,1.1l-.007.125a.847.847,0,0,0,.278.652A1.081,1.081,0,0,0,99.609-1.472ZM107.043,0h-2.124V-11.25h2.124Z" transform="translate(493.466 1148.989)" fill="#fff"/>
      <path id="Trazado_204344" data-name="Trazado 204344" d="M362.3.045,1.251,0h-3.8" transform="translate(370.185 1183.59)" fill="none" stroke="#3e4bbf" stroke-width="1.835"/>
      <line id="Línea_625" data-name="Línea 625" x1="452.1" transform="translate(331.641 1306.459)" fill="none" stroke="#3e4bbf" stroke-miterlimit="10" stroke-width="1.835" stroke-dasharray="4 4"/>
      <line id="Línea_626" data-name="Línea 626" x1="452.1" transform="translate(331.641 1368.025)" fill="none" stroke="#3e4bbf" stroke-miterlimit="10" stroke-width="1.835" stroke-dasharray="4 4"/>
      <line id="Línea_620" data-name="Línea 620" y2="41.333" transform="translate(368.718 1182.638)" fill="none" stroke="#3e4bbf" stroke-miterlimit="10" stroke-width="1.835"/>
      <line id="Línea_634" data-name="Línea 634" y2="65.114" transform="translate(551.694 1158.857)" fill="none" stroke="#3e4bbf" stroke-miterlimit="10" stroke-width="1.835"/>
      <line id="Línea_622" data-name="Línea 622" y2="113.544" transform="translate(368.718 1255.512)" fill="none" stroke="#3e4bbf" stroke-miterlimit="10" stroke-width="1.835"/>
      <line id="Línea_623" data-name="Línea 623" y2="113.544" transform="translate(551.699 1255.512)" fill="none" stroke="#3e4bbf" stroke-miterlimit="10" stroke-width="1.835"/>
      <path id="Trazado_204345" data-name="Trazado 204345" d="M0,0V114.417" transform="translate(732.483 1255.512)" fill="none" stroke="#3e4bbf" stroke-width="1.835"/>
      <line id="Línea_621" data-name="Línea 621" y2="41.333" transform="translate(731.452 1182.638)" fill="none" stroke="#3e4bbf" stroke-miterlimit="10" stroke-width="1.835"/>
      <rect id="Rectángulo_40599" data-name="Rectángulo 40599" width="122.227" height="47.4" rx="6.469" transform="translate(307.605 1209.385)" fill="#bae887" stroke="#77b43a" stroke-width="1.835"/>
      <rect id="Rectángulo_40599-2" data-name="Rectángulo 40599" width="122.227" height="47.4" rx="6.469" transform="translate(490.585 1209.065)" fill="#bae887" stroke="#77b43a" stroke-width="1.835"/>
      <rect id="Rectángulo_40599-3" data-name="Rectángulo 40599" width="122.227" height="47.4" rx="6.469" transform="translate(669.916 1209.065)" fill="#bae887" stroke="#77b43a" stroke-width="1.835"/>
      <path id="Trazado_206351" data-name="Trazado 206351" d="M6.973-2.2H3.12L2.388,0H.051l3.97-10.664H6.057L10.049,0H7.712ZM3.713-3.977H6.379L5.039-7.969Zm1.78-9.543H7.8L5.771-11.25H4.05ZM15.359-5.94A5.751,5.751,0,0,0,14.6-6a1.55,1.55,0,0,0-1.575.813V0H10.906V-7.925h2l.059.945a1.961,1.961,0,0,1,1.765-1.091,2.218,2.218,0,0,1,.659.1ZM19.885.146A3.89,3.89,0,0,1,17.047-.923a3.8,3.8,0,0,1-1.095-2.849v-.205a4.787,4.787,0,0,1,.461-2.135,3.386,3.386,0,0,1,1.307-1.45,3.669,3.669,0,0,1,1.93-.509,3.289,3.289,0,0,1,2.56,1.025,4.167,4.167,0,0,1,.934,2.908v.864H18.1a1.966,1.966,0,0,0,.619,1.245,1.871,1.871,0,0,0,1.307.469,2.285,2.285,0,0,0,1.912-.886l1.04,1.165A3.178,3.178,0,0,1,21.687-.231,4.229,4.229,0,0,1,19.885.146Zm-.242-6.511a1.323,1.323,0,0,0-1.022.427,2.209,2.209,0,0,0-.5,1.221h2.944v-.169a1.576,1.576,0,0,0-.381-1.092A1.365,1.365,0,0,0,19.644-6.365ZM28.938,0a2.351,2.351,0,0,1-.212-.71,2.561,2.561,0,0,1-2,.857A2.814,2.814,0,0,1,24.8-.527a2.167,2.167,0,0,1-.765-1.7,2.24,2.24,0,0,1,.934-1.934,4.608,4.608,0,0,1,2.7-.681h.974V-5.3a1.306,1.306,0,0,0-.282-.879,1.109,1.109,0,0,0-.89-.33,1.261,1.261,0,0,0-.839.256.871.871,0,0,0-.3.7H24.207a2.126,2.126,0,0,1,.425-1.274,2.808,2.808,0,0,1,1.2-.919,4.378,4.378,0,0,1,1.743-.333,3.459,3.459,0,0,1,2.325.736,2.575,2.575,0,0,1,.861,2.069v3.435a3.789,3.789,0,0,0,.315,1.707V0Zm-1.75-1.472a1.823,1.823,0,0,0,.864-.209,1.371,1.371,0,0,0,.586-.56V-3.6h-.791q-1.589,0-1.692,1.1l-.007.125a.847.847,0,0,0,.278.652A1.081,1.081,0,0,0,27.188-1.472ZM36.7,0V-6.372H35.522V-7.925H36.7V-8.6a2.736,2.736,0,0,1,.765-2.069,2.964,2.964,0,0,1,2.142-.736,4.989,4.989,0,0,1,1.077.145l-.022,1.627A2.7,2.7,0,0,0,40.02-9.7q-1.194,0-1.194,1.13v.642H40.4v1.553H38.826V0Zm9.543-.806a2.654,2.654,0,0,1-2.168.952,2.5,2.5,0,0,1-1.945-.732,3.127,3.127,0,0,1-.685-2.146V-7.925h2.117V-2.8q0,1.239,1.128,1.239a1.528,1.528,0,0,0,1.479-.748V-7.925H48.3V0H46.3Zm5.6-7.119.066.916a2.767,2.767,0,0,1,2.278-1.062,2.3,2.3,0,0,1,1.875.74,3.451,3.451,0,0,1,.63,2.212V0H54.573V-5.08a1.379,1.379,0,0,0-.293-.98,1.31,1.31,0,0,0-.974-.3,1.456,1.456,0,0,0-1.34.763V0H49.849V-7.925ZM61.589-1.56a1.388,1.388,0,0,0,.952-.322,1.129,1.129,0,0,0,.381-.857h1.985a2.715,2.715,0,0,1-.439,1.476,2.9,2.9,0,0,1-1.183,1.04,3.7,3.7,0,0,1-1.659.37,3.44,3.44,0,0,1-2.681-1.08,4.275,4.275,0,0,1-.981-2.985v-.139a4.226,4.226,0,0,1,.974-2.922,3.4,3.4,0,0,1,2.673-1.091A3.333,3.333,0,0,1,64-7.225a3,3,0,0,1,.912,2.252H62.922a1.455,1.455,0,0,0-.381-1.005,1.27,1.27,0,0,0-.967-.387,1.275,1.275,0,0,0-1.117.539,3.125,3.125,0,0,0-.377,1.749v.22A3.164,3.164,0,0,0,60.454-2.1,1.291,1.291,0,0,0,61.589-1.56ZM68.35,0H66.226V-7.925H68.35ZM66.1-9.976a1.042,1.042,0,0,1,.319-.784,1.2,1.2,0,0,1,.868-.308,1.2,1.2,0,0,1,.864.308,1.036,1.036,0,0,1,.322.784,1.039,1.039,0,0,1-.326.791,1.2,1.2,0,0,1-.861.308,1.2,1.2,0,0,1-.861-.308A1.039,1.039,0,0,1,66.1-9.976Zm3.662,5.94a4.7,4.7,0,0,1,.454-2.1,3.324,3.324,0,0,1,1.307-1.428,3.814,3.814,0,0,1,1.981-.505,3.609,3.609,0,0,1,2.618.981,3.939,3.939,0,0,1,1.132,2.666l.015.542A4.142,4.142,0,0,1,76.252-.956a3.539,3.539,0,0,1-2.732,1.1,3.556,3.556,0,0,1-2.736-1.1A4.215,4.215,0,0,1,69.763-3.94Zm2.117.15A2.962,2.962,0,0,0,72.3-2.158a1.4,1.4,0,0,0,1.216.6,1.4,1.4,0,0,0,1.2-.591,3.241,3.241,0,0,0,.432-1.889,2.933,2.933,0,0,0-.432-1.716,1.4,1.4,0,0,0-1.216-.609,1.382,1.382,0,0,0-1.2.605A3.3,3.3,0,0,0,71.88-3.885Zm8.643-4.039.066.916a2.767,2.767,0,0,1,2.278-1.062,2.3,2.3,0,0,1,1.875.74,3.451,3.451,0,0,1,.63,2.212V0H83.254V-5.08a1.379,1.379,0,0,0-.293-.98,1.31,1.31,0,0,0-.974-.3,1.456,1.456,0,0,0-1.34.763V0H78.53V-7.925ZM91.567,0a2.351,2.351,0,0,1-.212-.71,2.561,2.561,0,0,1-2,.857,2.814,2.814,0,0,1-1.93-.674,2.167,2.167,0,0,1-.765-1.7,2.24,2.24,0,0,1,.934-1.934,4.608,4.608,0,0,1,2.7-.681h.974V-5.3a1.306,1.306,0,0,0-.282-.879,1.109,1.109,0,0,0-.89-.33,1.261,1.261,0,0,0-.839.256.871.871,0,0,0-.3.7H86.836a2.126,2.126,0,0,1,.425-1.274,2.808,2.808,0,0,1,1.2-.919,4.378,4.378,0,0,1,1.743-.333,3.459,3.459,0,0,1,2.325.736,2.575,2.575,0,0,1,.861,2.069v3.435a3.789,3.789,0,0,0,.315,1.707V0Zm-1.75-1.472a1.823,1.823,0,0,0,.864-.209,1.371,1.371,0,0,0,.586-.56V-3.6h-.791q-1.589,0-1.692,1.1l-.007.125a.847.847,0,0,0,.278.652A1.081,1.081,0,0,0,89.817-1.472ZM97.251,0H95.127V-11.25h2.124Z" transform="translate(315.74 1236.769)" fill="#12263f"/>
      <path id="Trazado_206354" data-name="Trazado 206354" d="M6.973-2.2H3.12L2.388,0H.051l3.97-10.664H6.057L10.049,0H7.712ZM3.713-3.977H6.379L5.039-7.969Zm1.78-9.543H7.8L5.771-11.25H4.05ZM15.359-5.94A5.751,5.751,0,0,0,14.6-6a1.55,1.55,0,0,0-1.575.813V0H10.906V-7.925h2l.059.945a1.961,1.961,0,0,1,1.765-1.091,2.218,2.218,0,0,1,.659.1ZM19.885.146A3.89,3.89,0,0,1,17.047-.923a3.8,3.8,0,0,1-1.095-2.849v-.205a4.787,4.787,0,0,1,.461-2.135,3.386,3.386,0,0,1,1.307-1.45,3.669,3.669,0,0,1,1.93-.509,3.289,3.289,0,0,1,2.56,1.025,4.167,4.167,0,0,1,.934,2.908v.864H18.1a1.966,1.966,0,0,0,.619,1.245,1.871,1.871,0,0,0,1.307.469,2.285,2.285,0,0,0,1.912-.886l1.04,1.165A3.178,3.178,0,0,1,21.687-.231,4.229,4.229,0,0,1,19.885.146Zm-.242-6.511a1.323,1.323,0,0,0-1.022.427,2.209,2.209,0,0,0-.5,1.221h2.944v-.169a1.576,1.576,0,0,0-.381-1.092A1.365,1.365,0,0,0,19.644-6.365ZM28.938,0a2.351,2.351,0,0,1-.212-.71,2.561,2.561,0,0,1-2,.857A2.814,2.814,0,0,1,24.8-.527a2.167,2.167,0,0,1-.765-1.7,2.24,2.24,0,0,1,.934-1.934,4.608,4.608,0,0,1,2.7-.681h.974V-5.3a1.306,1.306,0,0,0-.282-.879,1.109,1.109,0,0,0-.89-.33,1.261,1.261,0,0,0-.839.256.871.871,0,0,0-.3.7H24.207a2.126,2.126,0,0,1,.425-1.274,2.808,2.808,0,0,1,1.2-.919,4.378,4.378,0,0,1,1.743-.333,3.459,3.459,0,0,1,2.325.736,2.575,2.575,0,0,1,.861,2.069v3.435a3.789,3.789,0,0,0,.315,1.707V0Zm-1.75-1.472a1.823,1.823,0,0,0,.864-.209,1.371,1.371,0,0,0,.586-.56V-3.6h-.791q-1.589,0-1.692,1.1l-.007.125a.847.847,0,0,0,.278.652A1.081,1.081,0,0,0,27.188-1.472ZM36.7,0V-6.372H35.522V-7.925H36.7V-8.6a2.736,2.736,0,0,1,.765-2.069,2.964,2.964,0,0,1,2.142-.736,4.989,4.989,0,0,1,1.077.145l-.022,1.627A2.7,2.7,0,0,0,40.02-9.7q-1.194,0-1.194,1.13v.642H40.4v1.553H38.826V0Zm9.543-.806a2.654,2.654,0,0,1-2.168.952,2.5,2.5,0,0,1-1.945-.732,3.127,3.127,0,0,1-.685-2.146V-7.925h2.117V-2.8q0,1.239,1.128,1.239a1.528,1.528,0,0,0,1.479-.748V-7.925H48.3V0H46.3Zm5.6-7.119.066.916a2.767,2.767,0,0,1,2.278-1.062,2.3,2.3,0,0,1,1.875.74,3.451,3.451,0,0,1,.63,2.212V0H54.573V-5.08a1.379,1.379,0,0,0-.293-.98,1.31,1.31,0,0,0-.974-.3,1.456,1.456,0,0,0-1.34.763V0H49.849V-7.925ZM61.589-1.56a1.388,1.388,0,0,0,.952-.322,1.129,1.129,0,0,0,.381-.857h1.985a2.715,2.715,0,0,1-.439,1.476,2.9,2.9,0,0,1-1.183,1.04,3.7,3.7,0,0,1-1.659.37,3.44,3.44,0,0,1-2.681-1.08,4.275,4.275,0,0,1-.981-2.985v-.139a4.226,4.226,0,0,1,.974-2.922,3.4,3.4,0,0,1,2.673-1.091A3.333,3.333,0,0,1,64-7.225a3,3,0,0,1,.912,2.252H62.922a1.455,1.455,0,0,0-.381-1.005,1.27,1.27,0,0,0-.967-.387,1.275,1.275,0,0,0-1.117.539,3.125,3.125,0,0,0-.377,1.749v.22A3.164,3.164,0,0,0,60.454-2.1,1.291,1.291,0,0,0,61.589-1.56ZM68.35,0H66.226V-7.925H68.35ZM66.1-9.976a1.042,1.042,0,0,1,.319-.784,1.2,1.2,0,0,1,.868-.308,1.2,1.2,0,0,1,.864.308,1.036,1.036,0,0,1,.322.784,1.039,1.039,0,0,1-.326.791,1.2,1.2,0,0,1-.861.308,1.2,1.2,0,0,1-.861-.308A1.039,1.039,0,0,1,66.1-9.976Zm3.662,5.94a4.7,4.7,0,0,1,.454-2.1,3.324,3.324,0,0,1,1.307-1.428,3.814,3.814,0,0,1,1.981-.505,3.609,3.609,0,0,1,2.618.981,3.939,3.939,0,0,1,1.132,2.666l.015.542A4.142,4.142,0,0,1,76.252-.956a3.539,3.539,0,0,1-2.732,1.1,3.556,3.556,0,0,1-2.736-1.1A4.215,4.215,0,0,1,69.763-3.94Zm2.117.15A2.962,2.962,0,0,0,72.3-2.158a1.4,1.4,0,0,0,1.216.6,1.4,1.4,0,0,0,1.2-.591,3.241,3.241,0,0,0,.432-1.889,2.933,2.933,0,0,0-.432-1.716,1.4,1.4,0,0,0-1.216-.609,1.382,1.382,0,0,0-1.2.605A3.3,3.3,0,0,0,71.88-3.885Zm8.643-4.039.066.916a2.767,2.767,0,0,1,2.278-1.062,2.3,2.3,0,0,1,1.875.74,3.451,3.451,0,0,1,.63,2.212V0H83.254V-5.08a1.379,1.379,0,0,0-.293-.98,1.31,1.31,0,0,0-.974-.3,1.456,1.456,0,0,0-1.34.763V0H78.53V-7.925ZM91.567,0a2.351,2.351,0,0,1-.212-.71,2.561,2.561,0,0,1-2,.857,2.814,2.814,0,0,1-1.93-.674,2.167,2.167,0,0,1-.765-1.7,2.24,2.24,0,0,1,.934-1.934,4.608,4.608,0,0,1,2.7-.681h.974V-5.3a1.306,1.306,0,0,0-.282-.879,1.109,1.109,0,0,0-.89-.33,1.261,1.261,0,0,0-.839.256.871.871,0,0,0-.3.7H86.836a2.126,2.126,0,0,1,.425-1.274,2.808,2.808,0,0,1,1.2-.919,4.378,4.378,0,0,1,1.743-.333,3.459,3.459,0,0,1,2.325.736,2.575,2.575,0,0,1,.861,2.069v3.435a3.789,3.789,0,0,0,.315,1.707V0Zm-1.75-1.472a1.823,1.823,0,0,0,.864-.209,1.371,1.371,0,0,0,.586-.56V-3.6h-.791q-1.589,0-1.692,1.1l-.007.125a.847.847,0,0,0,.278.652A1.081,1.081,0,0,0,89.817-1.472ZM97.251,0H95.127V-11.25h2.124Z" transform="translate(498.721 1236.449)" fill="#12263f"/>
      <path id="Trazado_206355" data-name="Trazado 206355" d="M6.973-2.2H3.12L2.388,0H.051l3.97-10.664H6.057L10.049,0H7.712ZM3.713-3.977H6.379L5.039-7.969Zm1.78-9.543H7.8L5.771-11.25H4.05ZM15.359-5.94A5.751,5.751,0,0,0,14.6-6a1.55,1.55,0,0,0-1.575.813V0H10.906V-7.925h2l.059.945a1.961,1.961,0,0,1,1.765-1.091,2.218,2.218,0,0,1,.659.1ZM19.885.146A3.89,3.89,0,0,1,17.047-.923a3.8,3.8,0,0,1-1.095-2.849v-.205a4.787,4.787,0,0,1,.461-2.135,3.386,3.386,0,0,1,1.307-1.45,3.669,3.669,0,0,1,1.93-.509,3.289,3.289,0,0,1,2.56,1.025,4.167,4.167,0,0,1,.934,2.908v.864H18.1a1.966,1.966,0,0,0,.619,1.245,1.871,1.871,0,0,0,1.307.469,2.285,2.285,0,0,0,1.912-.886l1.04,1.165A3.178,3.178,0,0,1,21.687-.231,4.229,4.229,0,0,1,19.885.146Zm-.242-6.511a1.323,1.323,0,0,0-1.022.427,2.209,2.209,0,0,0-.5,1.221h2.944v-.169a1.576,1.576,0,0,0-.381-1.092A1.365,1.365,0,0,0,19.644-6.365ZM28.938,0a2.351,2.351,0,0,1-.212-.71,2.561,2.561,0,0,1-2,.857A2.814,2.814,0,0,1,24.8-.527a2.167,2.167,0,0,1-.765-1.7,2.24,2.24,0,0,1,.934-1.934,4.608,4.608,0,0,1,2.7-.681h.974V-5.3a1.306,1.306,0,0,0-.282-.879,1.109,1.109,0,0,0-.89-.33,1.261,1.261,0,0,0-.839.256.871.871,0,0,0-.3.7H24.207a2.126,2.126,0,0,1,.425-1.274,2.808,2.808,0,0,1,1.2-.919,4.378,4.378,0,0,1,1.743-.333,3.459,3.459,0,0,1,2.325.736,2.575,2.575,0,0,1,.861,2.069v3.435a3.789,3.789,0,0,0,.315,1.707V0Zm-1.75-1.472a1.823,1.823,0,0,0,.864-.209,1.371,1.371,0,0,0,.586-.56V-3.6h-.791q-1.589,0-1.692,1.1l-.007.125a.847.847,0,0,0,.278.652A1.081,1.081,0,0,0,27.188-1.472ZM36.7,0V-6.372H35.522V-7.925H36.7V-8.6a2.736,2.736,0,0,1,.765-2.069,2.964,2.964,0,0,1,2.142-.736,4.989,4.989,0,0,1,1.077.145l-.022,1.627A2.7,2.7,0,0,0,40.02-9.7q-1.194,0-1.194,1.13v.642H40.4v1.553H38.826V0Zm9.543-.806a2.654,2.654,0,0,1-2.168.952,2.5,2.5,0,0,1-1.945-.732,3.127,3.127,0,0,1-.685-2.146V-7.925h2.117V-2.8q0,1.239,1.128,1.239a1.528,1.528,0,0,0,1.479-.748V-7.925H48.3V0H46.3Zm5.6-7.119.066.916a2.767,2.767,0,0,1,2.278-1.062,2.3,2.3,0,0,1,1.875.74,3.451,3.451,0,0,1,.63,2.212V0H54.573V-5.08a1.379,1.379,0,0,0-.293-.98,1.31,1.31,0,0,0-.974-.3,1.456,1.456,0,0,0-1.34.763V0H49.849V-7.925ZM61.589-1.56a1.388,1.388,0,0,0,.952-.322,1.129,1.129,0,0,0,.381-.857h1.985a2.715,2.715,0,0,1-.439,1.476,2.9,2.9,0,0,1-1.183,1.04,3.7,3.7,0,0,1-1.659.37,3.44,3.44,0,0,1-2.681-1.08,4.275,4.275,0,0,1-.981-2.985v-.139a4.226,4.226,0,0,1,.974-2.922,3.4,3.4,0,0,1,2.673-1.091A3.333,3.333,0,0,1,64-7.225a3,3,0,0,1,.912,2.252H62.922a1.455,1.455,0,0,0-.381-1.005,1.27,1.27,0,0,0-.967-.387,1.275,1.275,0,0,0-1.117.539,3.125,3.125,0,0,0-.377,1.749v.22A3.164,3.164,0,0,0,60.454-2.1,1.291,1.291,0,0,0,61.589-1.56ZM68.35,0H66.226V-7.925H68.35ZM66.1-9.976a1.042,1.042,0,0,1,.319-.784,1.2,1.2,0,0,1,.868-.308,1.2,1.2,0,0,1,.864.308,1.036,1.036,0,0,1,.322.784,1.039,1.039,0,0,1-.326.791,1.2,1.2,0,0,1-.861.308,1.2,1.2,0,0,1-.861-.308A1.039,1.039,0,0,1,66.1-9.976Zm3.662,5.94a4.7,4.7,0,0,1,.454-2.1,3.324,3.324,0,0,1,1.307-1.428,3.814,3.814,0,0,1,1.981-.505,3.609,3.609,0,0,1,2.618.981,3.939,3.939,0,0,1,1.132,2.666l.015.542A4.142,4.142,0,0,1,76.252-.956a3.539,3.539,0,0,1-2.732,1.1,3.556,3.556,0,0,1-2.736-1.1A4.215,4.215,0,0,1,69.763-3.94Zm2.117.15A2.962,2.962,0,0,0,72.3-2.158a1.4,1.4,0,0,0,1.216.6,1.4,1.4,0,0,0,1.2-.591,3.241,3.241,0,0,0,.432-1.889,2.933,2.933,0,0,0-.432-1.716,1.4,1.4,0,0,0-1.216-.609,1.382,1.382,0,0,0-1.2.605A3.3,3.3,0,0,0,71.88-3.885Zm8.643-4.039.066.916a2.767,2.767,0,0,1,2.278-1.062,2.3,2.3,0,0,1,1.875.74,3.451,3.451,0,0,1,.63,2.212V0H83.254V-5.08a1.379,1.379,0,0,0-.293-.98,1.31,1.31,0,0,0-.974-.3,1.456,1.456,0,0,0-1.34.763V0H78.53V-7.925ZM91.567,0a2.351,2.351,0,0,1-.212-.71,2.561,2.561,0,0,1-2,.857,2.814,2.814,0,0,1-1.93-.674,2.167,2.167,0,0,1-.765-1.7,2.24,2.24,0,0,1,.934-1.934,4.608,4.608,0,0,1,2.7-.681h.974V-5.3a1.306,1.306,0,0,0-.282-.879,1.109,1.109,0,0,0-.89-.33,1.261,1.261,0,0,0-.839.256.871.871,0,0,0-.3.7H86.836a2.126,2.126,0,0,1,.425-1.274,2.808,2.808,0,0,1,1.2-.919,4.378,4.378,0,0,1,1.743-.333,3.459,3.459,0,0,1,2.325.736,2.575,2.575,0,0,1,.861,2.069v3.435a3.789,3.789,0,0,0,.315,1.707V0Zm-1.75-1.472a1.823,1.823,0,0,0,.864-.209,1.371,1.371,0,0,0,.586-.56V-3.6h-.791q-1.589,0-1.692,1.1l-.007.125a.847.847,0,0,0,.278.652A1.081,1.081,0,0,0,89.817-1.472ZM97.251,0H95.127V-11.25h2.124Z" transform="translate(677.785 1236.449)" fill="#12263f"/>
      <rect id="Rectángulo_40599-4" data-name="Rectángulo 40599" width="99.502" height="33.377" rx="6.469" transform="translate(234.756 1289.771)" fill="#bae887" stroke="#77b43a" stroke-width="1.835"/>
      <rect id="Rectángulo_40599-5" data-name="Rectángulo 40599" width="99.502" height="33.377" rx="6.469" transform="translate(232.138 1351.337)" fill="#bae887" stroke="#77b43a" stroke-width="1.835"/>
      <path id="Trazado_206352" data-name="Trazado 206352" d="M3.149-3.757V0H.952V-10.664h4.16a4.813,4.813,0,0,1,2.113.439,3.238,3.238,0,0,1,1.4,1.249,3.482,3.482,0,0,1,.491,1.842A3.062,3.062,0,0,1,8.046-4.662a4.469,4.469,0,0,1-2.97.9Zm0-1.78H5.112a1.93,1.93,0,0,0,1.329-.41A1.492,1.492,0,0,0,6.9-7.119a1.759,1.759,0,0,0-.461-1.267,1.724,1.724,0,0,0-1.274-.5H3.149Zm11.792-.4A5.751,5.751,0,0,0,14.18-6a1.55,1.55,0,0,0-1.575.813V0H10.488V-7.925h2l.059.945a1.961,1.961,0,0,1,1.765-1.091,2.218,2.218,0,0,1,.659.1Zm.425,1.9a4.7,4.7,0,0,1,.454-2.1,3.324,3.324,0,0,1,1.307-1.428,3.814,3.814,0,0,1,1.981-.505,3.609,3.609,0,0,1,2.618.981,3.939,3.939,0,0,1,1.132,2.666l.015.542A4.142,4.142,0,0,1,21.855-.956a3.539,3.539,0,0,1-2.732,1.1,3.556,3.556,0,0,1-2.736-1.1A4.215,4.215,0,0,1,15.366-3.94Zm2.117.15a2.962,2.962,0,0,0,.425,1.727,1.4,1.4,0,0,0,1.216.6,1.4,1.4,0,0,0,1.2-.591,3.241,3.241,0,0,0,.432-1.889,2.933,2.933,0,0,0-.432-1.716,1.4,1.4,0,0,0-1.216-.609,1.382,1.382,0,0,0-1.2.605A3.3,3.3,0,0,0,17.483-3.885ZM27.026-3l1.465-4.929h2.271L27.576,1.23l-.176.417A2.416,2.416,0,0,1,25.056,3.2a3.33,3.33,0,0,1-.937-.139v-1.6l.322.007a1.741,1.741,0,0,0,.9-.183A1.2,1.2,0,0,0,25.8.674l.249-.652L23.276-7.925h2.278ZM35.149.146A3.89,3.89,0,0,1,32.311-.923a3.8,3.8,0,0,1-1.095-2.849v-.205a4.787,4.787,0,0,1,.461-2.135,3.386,3.386,0,0,1,1.307-1.45,3.669,3.669,0,0,1,1.93-.509,3.289,3.289,0,0,1,2.56,1.025,4.167,4.167,0,0,1,.934,2.908v.864H33.362a1.966,1.966,0,0,0,.619,1.245,1.871,1.871,0,0,0,1.307.469A2.285,2.285,0,0,0,37.2-2.446l1.04,1.165A3.178,3.178,0,0,1,36.951-.231,4.229,4.229,0,0,1,35.149.146Zm-.242-6.511a1.323,1.323,0,0,0-1.022.427,2.209,2.209,0,0,0-.5,1.221h2.944v-.169a1.576,1.576,0,0,0-.381-1.092A1.365,1.365,0,0,0,34.907-6.365Zm8,4.8a1.388,1.388,0,0,0,.952-.322,1.129,1.129,0,0,0,.381-.857h1.985a2.715,2.715,0,0,1-.439,1.476A2.9,2.9,0,0,1,44.6-.223a3.7,3.7,0,0,1-1.659.37,3.44,3.44,0,0,1-2.681-1.08,4.275,4.275,0,0,1-.981-2.985v-.139a4.226,4.226,0,0,1,.974-2.922,3.4,3.4,0,0,1,2.673-1.091,3.333,3.333,0,0,1,2.384.846,3,3,0,0,1,.912,2.252H44.238a1.455,1.455,0,0,0-.381-1.005,1.27,1.27,0,0,0-.967-.387,1.275,1.275,0,0,0-1.117.539A3.125,3.125,0,0,0,41.4-4.076v.22A3.164,3.164,0,0,0,41.77-2.1,1.291,1.291,0,0,0,42.905-1.56Zm7.061-8.313v1.948h1.355v1.553H49.966v3.955a.944.944,0,0,0,.168.63.846.846,0,0,0,.645.19,3.376,3.376,0,0,0,.623-.051v1.6a4.358,4.358,0,0,1-1.282.19A2.021,2.021,0,0,1,47.849-2.1v-4.27H46.692V-7.925h1.157V-9.873Zm1.985,5.837a4.7,4.7,0,0,1,.454-2.1,3.324,3.324,0,0,1,1.307-1.428,3.814,3.814,0,0,1,1.981-.505,3.609,3.609,0,0,1,2.618.981,3.939,3.939,0,0,1,1.132,2.666l.015.542A4.142,4.142,0,0,1,58.44-.956a3.539,3.539,0,0,1-2.732,1.1,3.556,3.556,0,0,1-2.736-1.1A4.215,4.215,0,0,1,51.951-3.94Zm2.117.15a2.962,2.962,0,0,0,.425,1.727,1.4,1.4,0,0,0,1.216.6,1.4,1.4,0,0,0,1.2-.591,3.241,3.241,0,0,0,.432-1.889,2.933,2.933,0,0,0-.432-1.716,1.4,1.4,0,0,0-1.216-.609,1.382,1.382,0,0,0-1.2.605A3.3,3.3,0,0,0,54.067-3.885ZM69.551,0H67.434V-8.17l-2.527.78V-9.1l4.417-1.582h.227Z" transform="translate(243.461 1309.01)" fill="#12263f"/>
      <path id="Trazado_206353" data-name="Trazado 206353" d="M3.149-3.757V0H.952V-10.664h4.16a4.813,4.813,0,0,1,2.113.439,3.238,3.238,0,0,1,1.4,1.249,3.482,3.482,0,0,1,.491,1.842A3.062,3.062,0,0,1,8.046-4.662a4.469,4.469,0,0,1-2.97.9Zm0-1.78H5.112a1.93,1.93,0,0,0,1.329-.41A1.492,1.492,0,0,0,6.9-7.119a1.759,1.759,0,0,0-.461-1.267,1.724,1.724,0,0,0-1.274-.5H3.149Zm11.792-.4A5.751,5.751,0,0,0,14.18-6a1.55,1.55,0,0,0-1.575.813V0H10.488V-7.925h2l.059.945a1.961,1.961,0,0,1,1.765-1.091,2.218,2.218,0,0,1,.659.1Zm.425,1.9a4.7,4.7,0,0,1,.454-2.1,3.324,3.324,0,0,1,1.307-1.428,3.814,3.814,0,0,1,1.981-.505,3.609,3.609,0,0,1,2.618.981,3.939,3.939,0,0,1,1.132,2.666l.015.542A4.142,4.142,0,0,1,21.855-.956a3.539,3.539,0,0,1-2.732,1.1,3.556,3.556,0,0,1-2.736-1.1A4.215,4.215,0,0,1,15.366-3.94Zm2.117.15a2.962,2.962,0,0,0,.425,1.727,1.4,1.4,0,0,0,1.216.6,1.4,1.4,0,0,0,1.2-.591,3.241,3.241,0,0,0,.432-1.889,2.933,2.933,0,0,0-.432-1.716,1.4,1.4,0,0,0-1.216-.609,1.382,1.382,0,0,0-1.2.605A3.3,3.3,0,0,0,17.483-3.885ZM27.026-3l1.465-4.929h2.271L27.576,1.23l-.176.417A2.416,2.416,0,0,1,25.056,3.2a3.33,3.33,0,0,1-.937-.139v-1.6l.322.007a1.741,1.741,0,0,0,.9-.183A1.2,1.2,0,0,0,25.8.674l.249-.652L23.276-7.925h2.278ZM35.149.146A3.89,3.89,0,0,1,32.311-.923a3.8,3.8,0,0,1-1.095-2.849v-.205a4.787,4.787,0,0,1,.461-2.135,3.386,3.386,0,0,1,1.307-1.45,3.669,3.669,0,0,1,1.93-.509,3.289,3.289,0,0,1,2.56,1.025,4.167,4.167,0,0,1,.934,2.908v.864H33.362a1.966,1.966,0,0,0,.619,1.245,1.871,1.871,0,0,0,1.307.469A2.285,2.285,0,0,0,37.2-2.446l1.04,1.165A3.178,3.178,0,0,1,36.951-.231,4.229,4.229,0,0,1,35.149.146Zm-.242-6.511a1.323,1.323,0,0,0-1.022.427,2.209,2.209,0,0,0-.5,1.221h2.944v-.169a1.576,1.576,0,0,0-.381-1.092A1.365,1.365,0,0,0,34.907-6.365Zm8,4.8a1.388,1.388,0,0,0,.952-.322,1.129,1.129,0,0,0,.381-.857h1.985a2.715,2.715,0,0,1-.439,1.476A2.9,2.9,0,0,1,44.6-.223a3.7,3.7,0,0,1-1.659.37,3.44,3.44,0,0,1-2.681-1.08,4.275,4.275,0,0,1-.981-2.985v-.139a4.226,4.226,0,0,1,.974-2.922,3.4,3.4,0,0,1,2.673-1.091,3.333,3.333,0,0,1,2.384.846,3,3,0,0,1,.912,2.252H44.238a1.455,1.455,0,0,0-.381-1.005,1.27,1.27,0,0,0-.967-.387,1.275,1.275,0,0,0-1.117.539A3.125,3.125,0,0,0,41.4-4.076v.22A3.164,3.164,0,0,0,41.77-2.1,1.291,1.291,0,0,0,42.905-1.56Zm7.061-8.313v1.948h1.355v1.553H49.966v3.955a.944.944,0,0,0,.168.63.846.846,0,0,0,.645.19,3.376,3.376,0,0,0,.623-.051v1.6a4.358,4.358,0,0,1-1.282.19A2.021,2.021,0,0,1,47.849-2.1v-4.27H46.692V-7.925h1.157V-9.873Zm1.985,5.837a4.7,4.7,0,0,1,.454-2.1,3.324,3.324,0,0,1,1.307-1.428,3.814,3.814,0,0,1,1.981-.505,3.609,3.609,0,0,1,2.618.981,3.939,3.939,0,0,1,1.132,2.666l.015.542A4.142,4.142,0,0,1,58.44-.956a3.539,3.539,0,0,1-2.732,1.1,3.556,3.556,0,0,1-2.736-1.1A4.215,4.215,0,0,1,51.951-3.94Zm2.117.15a2.962,2.962,0,0,0,.425,1.727,1.4,1.4,0,0,0,1.216.6,1.4,1.4,0,0,0,1.2-.591,3.241,3.241,0,0,0,.432-1.889,2.933,2.933,0,0,0-.432-1.716,1.4,1.4,0,0,0-1.216-.609,1.382,1.382,0,0,0-1.2.605A3.3,3.3,0,0,0,54.067-3.885ZM71.719,0h-7.31V-1.45l3.45-3.677A8.51,8.51,0,0,0,68.91-6.482a2.177,2.177,0,0,0,.341-1.1A1.629,1.629,0,0,0,68.892-8.7,1.3,1.3,0,0,0,67.866-9.1a1.4,1.4,0,0,0-1.132.494,1.958,1.958,0,0,0-.414,1.3H64.2a3.5,3.5,0,0,1,.465-1.78,3.278,3.278,0,0,1,1.315-1.263,4,4,0,0,1,1.926-.458,3.784,3.784,0,0,1,2.56.791,2.8,2.8,0,0,1,.912,2.234,3.586,3.586,0,0,1-.41,1.611,8.954,8.954,0,0,1-1.406,1.912L67.134-1.707h4.585Z" transform="translate(240.843 1370.576)" fill="#12263f"/>
      <g id="Elipse_5719" data-name="Elipse 5719" transform="translate(359.138 1294.423)" fill="#f85316" stroke="#3e4bbf" stroke-width="4">
        <ellipse cx="10" cy="10.5" rx="10" ry="10.5" stroke="none"/>
        <ellipse cx="10" cy="10.5" rx="8" ry="8.5" fill="none"/>
      </g>
      <g id="Elipse_5720" data-name="Elipse 5720" transform="translate(540.138 1294.423)" fill="#f85316" stroke="#3e4bbf" stroke-width="4">
        <ellipse cx="10" cy="10.5" rx="10" ry="10.5" stroke="none"/>
        <ellipse cx="10" cy="10.5" rx="8" ry="8.5" fill="none"/>
      </g>
      <g id="Elipse_5721" data-name="Elipse 5721" transform="translate(540.138 1356.423)" fill="#f85316" stroke="#3e4bbf" stroke-width="4">
        <circle cx="10" cy="10" r="10" stroke="none"/>
        <circle cx="10" cy="10" r="8" fill="none"/>
      </g>
      <g id="Elipse_5722" data-name="Elipse 5722" transform="translate(723.138 1356.423)" fill="#f85316" stroke="#3e4bbf" stroke-width="4">
        <ellipse cx="10.5" cy="10" rx="10.5" ry="10" stroke="none"/>
        <ellipse cx="10.5" cy="10" rx="8.5" ry="8" fill="none"/>
      </g>
    </g>
  </g>
</svg>
